<?xml version="1.0" encoding="UTF-8"?>
<svg version="1.1" xmlns="http://www.w3.org/2000/svg" width="512" height="512">
<path d="M0 0 C12.54 0 25.08 0 38 0 C38 1.32 38 2.64 38 4 C38.6798999 3.97905273 39.3597998 3.95810547 40.06030273 3.93652344 C43.18588047 3.85260105 46.31122016 3.8011009 49.4375 3.75 C50.50677734 3.71648438 51.57605469 3.68296875 52.67773438 3.6484375 C62.57123696 3.52741606 69.83642337 6.05560519 77.140625 12.8046875 C83.76166039 20.62196037 86.12172988 29.22911769 86.13142776 39.2403059 C86.1334804 39.96232635 86.13553303 40.68434679 86.13764787 41.42824665 C86.14331483 43.8543778 86.14186099 46.28045213 86.14044189 48.70658875 C86.1430257 50.46094271 86.14603891 52.21529609 86.1494453 53.96964866 C86.15751668 58.79611917 86.15930495 63.6225748 86.16004276 68.44905126 C86.16189307 73.65234296 86.16944029 78.85562694 86.17617798 84.05891418 C86.18976273 95.43909084 86.19578622 106.81926398 86.20018864 118.19944739 C86.20295077 125.30447766 86.20718807 132.40950656 86.21169281 139.5145359 C86.22388557 159.18403761 86.23418493 178.85353823 86.2375679 198.52304363 C86.23789725 200.41156038 86.23789725 200.41156038 86.23823325 202.33822899 C86.23845153 203.60026174 86.23866981 204.86229449 86.2388947 206.16257066 C86.23933817 208.7199527 86.23978473 211.27733475 86.24023438 213.8347168 C86.24056652 215.73754372 86.24056652 215.73754372 86.24090537 217.67881159 C86.24485365 238.23530857 86.26230855 258.7917701 86.2855939 279.34825339 C86.30930443 300.45031295 86.32176961 321.55235473 86.32293582 342.65442783 C86.32385274 354.50365905 86.32960932 366.3528441 86.34775543 378.20206261 C86.36315235 388.29168648 86.36827927 398.38124989 86.36001733 408.47088327 C86.35610943 413.61840476 86.35704737 418.76580448 86.37107468 423.913311 C86.38380491 428.62796678 86.38262372 433.34240919 86.37048396 438.05706463 C86.36852546 439.76031401 86.37161249 441.46357846 86.38032833 443.16680666 C86.44137189 455.90490354 85.57962794 466.91314013 77 477 C70.1912853 483.33819376 63.23698632 486.46737563 53.92298889 486.38095093 C53.13861039 486.3856309 52.35423189 486.39031087 51.54608434 486.39513266 C48.93297305 486.40704324 46.32039004 486.39764099 43.70727539 486.38818359 C41.82761836 486.39225108 39.94796372 486.39759396 38.0683136 486.40411377 C32.97325233 486.417773 27.87837362 486.41249418 22.78330922 486.40297651 C17.44590218 486.39537162 12.10851057 486.40242794 6.77110291 486.40713501 C-2.19258423 486.41259061 -11.15619718 486.40540655 -20.11987305 486.39111328 C-30.47467115 486.37479215 -40.82929199 486.3800722 -51.18408579 486.3965925 C-60.08195826 486.41021886 -68.97977746 486.41212124 -77.877657 486.40427649 C-83.18863394 486.39960567 -88.49952764 486.39895879 -93.81049919 486.40888596 C-98.80512195 486.41756987 -103.79951685 486.4115076 -108.79411507 486.39420319 C-110.62423449 486.39024575 -112.45437318 486.39135963 -114.28448486 486.39799118 C-116.78858146 486.40622642 -119.29195438 486.39586162 -121.79600525 486.38095093 C-122.51498975 486.38764309 -123.23397426 486.39433526 -123.97474617 486.40123022 C-133.07263064 486.29662631 -139.22229005 482.66479736 -145.7265625 476.55078125 C-150.96639818 470.67172163 -154.12617696 463.58739808 -154.12304783 455.71138477 C-154.12503888 454.60814202 -154.12702993 453.50489927 -154.12908131 452.36822492 C-154.12616847 451.15131473 -154.12325563 449.93440454 -154.12025452 448.68061829 C-154.12110894 447.39173602 -154.12196337 446.10285375 -154.12284368 444.77491444 C-154.12508543 441.19018558 -154.1210717 437.60548645 -154.11606562 434.02076137 C-154.11175675 430.15779232 -154.11320786 426.29482502 -154.1139679 422.43185425 C-154.11449285 415.73659682 -154.111349 409.04134911 -154.10573006 402.34609413 C-154.09761124 392.66581826 -154.09499944 382.9855471 -154.09374207 373.30526819 C-154.09155215 357.6005635 -154.08489369 341.89586399 -154.07543945 326.19116211 C-154.06626378 310.93334987 -154.0591837 295.67553905 -154.05493164 280.41772461 C-154.05466892 279.47760917 -154.05440619 278.53749374 -154.05413551 277.56888995 C-154.05283049 272.85271942 -154.05156678 268.13654888 -154.05032361 263.42037833 C-154.03995287 224.28024859 -154.02233618 185.14012463 -154 146 C-155.32 146 -156.64 146 -158 146 C-158 139.73 -158 133.46 -158 127 C-156.68 127 -155.36 127 -154 127 C-154 122.38 -154 117.76 -154 113 C-155.32 113 -156.64 113 -158 113 C-158 107.06 -158 101.12 -158 95 C-156.02 94.505 -156.02 94.505 -154 94 C-154 88.06 -154 82.12 -154 76 C-155.32 76 -156.64 76 -158 76 C-158 67.42 -158 58.84 -158 50 C-156.68 50 -155.36 50 -154 50 C-154.0314209 49.12432373 -154.0314209 49.12432373 -154.06347656 48.23095703 C-154.80658452 24.40917334 -154.80658452 24.40917334 -145.6875 13.625 C-140.47653405 8.16548468 -135.23504086 4.25537098 -127.47755051 3.87695217 C-126.04508421 3.87833486 -126.04508421 3.87833486 -124.5836792 3.87974548 C-123.48434052 3.87837082 -122.38500183 3.87699615 -121.25234985 3.87557983 C-120.05113495 3.87917511 -118.84992004 3.88277039 -117.61230469 3.88647461 C-115.70948227 3.88625557 -115.70948227 3.88625557 -113.76821899 3.8860321 C-110.29334589 3.88574526 -106.81850732 3.89162383 -103.34364223 3.89860606 C-99.7108064 3.9048583 -96.07796978 3.90544488 -92.44512939 3.90663147 C-85.56747412 3.90973926 -78.68983475 3.91794523 -71.81218648 3.92798096 C-63.98153149 3.93915922 -56.15087573 3.94465687 -48.32021475 3.94967639 C-32.21346719 3.96012829 -16.10673563 3.97771706 0 4 C0 2.68 0 1.36 0 0 Z " fill="#ECECEC" transform="translate(283,13)"/>
<path d="M0 0 C12.54 0 25.08 0 38 0 C38 1.32 38 2.64 38 4 C38.6798999 3.97905273 39.3597998 3.95810547 40.06030273 3.93652344 C43.18588047 3.85260105 46.31122016 3.8011009 49.4375 3.75 C50.50677734 3.71648438 51.57605469 3.68296875 52.67773438 3.6484375 C62.57123696 3.52741606 69.83642337 6.05560519 77.140625 12.8046875 C83.76166039 20.62196037 86.12172988 29.22911769 86.13142776 39.2403059 C86.1334804 39.96232635 86.13553303 40.68434679 86.13764787 41.42824665 C86.14331483 43.8543778 86.14186099 46.28045213 86.14044189 48.70658875 C86.1430257 50.46094271 86.14603891 52.21529609 86.1494453 53.96964866 C86.15751668 58.79611917 86.15930495 63.6225748 86.16004276 68.44905126 C86.16189307 73.65234296 86.16944029 78.85562694 86.17617798 84.05891418 C86.18976273 95.43909084 86.19578622 106.81926398 86.20018864 118.19944739 C86.20295077 125.30447766 86.20718807 132.40950656 86.21169281 139.5145359 C86.22388557 159.18403761 86.23418493 178.85353823 86.2375679 198.52304363 C86.23789725 200.41156038 86.23789725 200.41156038 86.23823325 202.33822899 C86.23845153 203.60026174 86.23866981 204.86229449 86.2388947 206.16257066 C86.23933817 208.7199527 86.23978473 211.27733475 86.24023438 213.8347168 C86.24056652 215.73754372 86.24056652 215.73754372 86.24090537 217.67881159 C86.24485365 238.23530857 86.26230855 258.7917701 86.2855939 279.34825339 C86.30930443 300.45031295 86.32176961 321.55235473 86.32293582 342.65442783 C86.32385274 354.50365905 86.32960932 366.3528441 86.34775543 378.20206261 C86.36315235 388.29168648 86.36827927 398.38124989 86.36001733 408.47088327 C86.35610943 413.61840476 86.35704737 418.76580448 86.37107468 423.913311 C86.38380491 428.62796678 86.38262372 433.34240919 86.37048396 438.05706463 C86.36852546 439.76031401 86.37161249 441.46357846 86.38032833 443.16680666 C86.44137189 455.90490354 85.57962794 466.91314013 77 477 C70.1912853 483.33819376 63.23698632 486.46737563 53.92298889 486.38095093 C53.13861039 486.3856309 52.35423189 486.39031087 51.54608434 486.39513266 C48.93297305 486.40704324 46.32039004 486.39764099 43.70727539 486.38818359 C41.82761836 486.39225108 39.94796372 486.39759396 38.0683136 486.40411377 C32.97325233 486.417773 27.87837362 486.41249418 22.78330922 486.40297651 C17.44590218 486.39537162 12.10851057 486.40242794 6.77110291 486.40713501 C-2.19258423 486.41259061 -11.15619718 486.40540655 -20.11987305 486.39111328 C-30.47467115 486.37479215 -40.82929199 486.3800722 -51.18408579 486.3965925 C-60.08195826 486.41021886 -68.97977746 486.41212124 -77.877657 486.40427649 C-83.18863394 486.39960567 -88.49952764 486.39895879 -93.81049919 486.40888596 C-98.80512195 486.41756987 -103.79951685 486.4115076 -108.79411507 486.39420319 C-110.62423449 486.39024575 -112.45437318 486.39135963 -114.28448486 486.39799118 C-116.78858146 486.40622642 -119.29195438 486.39586162 -121.79600525 486.38095093 C-122.51498975 486.38764309 -123.23397426 486.39433526 -123.97474617 486.40123022 C-133.07263064 486.29662631 -139.22229005 482.66479736 -145.7265625 476.55078125 C-150.96639818 470.67172163 -154.12617696 463.58739808 -154.12304783 455.71138477 C-154.12503888 454.60814202 -154.12702993 453.50489927 -154.12908131 452.36822492 C-154.12616847 451.15131473 -154.12325563 449.93440454 -154.12025452 448.68061829 C-154.12110894 447.39173602 -154.12196337 446.10285375 -154.12284368 444.77491444 C-154.12508543 441.19018558 -154.1210717 437.60548645 -154.11606562 434.02076137 C-154.11175675 430.15779232 -154.11320786 426.29482502 -154.1139679 422.43185425 C-154.11449285 415.73659682 -154.111349 409.04134911 -154.10573006 402.34609413 C-154.09761124 392.66581826 -154.09499944 382.9855471 -154.09374207 373.30526819 C-154.09155215 357.6005635 -154.08489369 341.89586399 -154.07543945 326.19116211 C-154.06626378 310.93334987 -154.0591837 295.67553905 -154.05493164 280.41772461 C-154.05466892 279.47760917 -154.05440619 278.53749374 -154.05413551 277.56888995 C-154.05283049 272.85271942 -154.05156678 268.13654888 -154.05032361 263.42037833 C-154.03995287 224.28024859 -154.02233618 185.14012463 -154 146 C-155.32 146 -156.64 146 -158 146 C-158 139.73 -158 133.46 -158 127 C-156.68 127 -155.36 127 -154 127 C-154 122.38 -154 117.76 -154 113 C-155.32 113 -156.64 113 -158 113 C-158 107.06 -158 101.12 -158 95 C-156.02 94.505 -156.02 94.505 -154 94 C-154 88.06 -154 82.12 -154 76 C-155.32 76 -156.64 76 -158 76 C-158 67.42 -158 58.84 -158 50 C-156.68 50 -155.36 50 -154 50 C-154.0314209 49.12432373 -154.0314209 49.12432373 -154.06347656 48.23095703 C-154.80658452 24.40917334 -154.80658452 24.40917334 -145.6875 13.625 C-140.47653405 8.16548468 -135.23504086 4.25537098 -127.47755051 3.87695217 C-126.04508421 3.87833486 -126.04508421 3.87833486 -124.5836792 3.87974548 C-123.48434052 3.87837082 -122.38500183 3.87699615 -121.25234985 3.87557983 C-120.05113495 3.87917511 -118.84992004 3.88277039 -117.61230469 3.88647461 C-115.70948227 3.88625557 -115.70948227 3.88625557 -113.76821899 3.8860321 C-110.29334589 3.88574526 -106.81850732 3.89162383 -103.34364223 3.89860606 C-99.7108064 3.9048583 -96.07796978 3.90544488 -92.44512939 3.90663147 C-85.56747412 3.90973926 -78.68983475 3.91794523 -71.81218648 3.92798096 C-63.98153149 3.93915922 -56.15087573 3.94465687 -48.32021475 3.94967639 C-32.21346719 3.96012829 -16.10673563 3.97771706 0 4 C0 2.68 0 1.36 0 0 Z M-137 63 C-137 179.82 -137 296.64 -137 417 C-69.02 417 -1.04 417 69 417 C69 300.18 69 183.36 69 63 C1.02 63 -66.96 63 -137 63 Z " fill="#202020" transform="translate(283,13)"/>
<path d="M0 0 C7.91886714 -0.02314476 15.8377202 -0.040926 23.75661278 -0.05181217 C27.43345711 -0.05703632 31.11027834 -0.0641255 34.78710938 -0.07543945 C38.3337896 -0.08628493 41.88044757 -0.09228037 45.4271431 -0.09487724 C46.78196183 -0.09672849 48.13677931 -0.10034338 49.49158859 -0.10573006 C51.38549365 -0.11296238 53.27942098 -0.11340824 55.17333984 -0.11352539 C56.79216568 -0.11685631 56.79216568 -0.11685631 58.44369507 -0.12025452 C61 0 61 0 63 1 C63.125 3.375 63.125 3.375 63 6 C60.3646046 8.6353954 59.1730381 8.25799931 55.49633789 8.2746582 C54.34496841 8.28419022 53.19359894 8.29372223 52.00733948 8.30354309 C50.75839401 8.30263168 49.50944855 8.30172028 48.22265625 8.30078125 C46.30651772 8.30720894 46.30651772 8.30720894 44.35166931 8.31376648 C41.64552122 8.31951912 38.93975338 8.32093441 36.23364258 8.31567383 C32.76540507 8.30988039 29.29770181 8.32680408 25.82955265 8.3500185 C22.52309099 8.36829243 19.21665935 8.36457062 15.91015625 8.36328125 C14.66323502 8.372491 13.41631378 8.38170074 12.13160706 8.39118958 C10.97708542 8.38496078 9.82256378 8.37873199 8.63305664 8.37231445 C7.61538712 8.37294388 6.59771759 8.3735733 5.54920959 8.3742218 C3 8 3 8 1.14793396 6.78923035 C-0.3646026 4.43171118 -0.22263815 2.74587054 0 0 Z " fill="#646464" transform="translate(224,51)"/>
<path d="M0 0 C3.35286458 0.03255208 6.70572917 0.06510417 10.05859375 0.09765625 C10.05859375 4.71765625 10.05859375 9.33765625 10.05859375 14.09765625 C5.43859375 14.09765625 0.81859375 14.09765625 -3.94140625 14.09765625 C-4.0390625 4.0390625 -4.0390625 4.0390625 -3.94140625 1.09765625 C-2.94140625 0.09765625 -2.94140625 0.09765625 0 0 Z " fill="#151515" transform="translate(247.94140625,455.90234375)"/>
<path d="M0 0 C1.15136948 -0.00960754 2.30273895 -0.01921509 3.48899841 -0.02911377 C5.36241661 -0.03548859 5.36241661 -0.03548859 7.27368164 -0.04199219 C9.18982018 -0.0505423 9.18982018 -0.0505423 11.14466858 -0.05926514 C13.85071377 -0.06872514 16.55664777 -0.07561702 19.26269531 -0.07910156 C22.73089691 -0.08459003 26.19870664 -0.10862607 29.66678524 -0.13707352 C32.97322118 -0.16016884 36.27967631 -0.16214728 39.58618164 -0.16699219 C41.45656349 -0.18551239 41.45656349 -0.18551239 43.36473083 -0.20440674 C44.51925247 -0.20140564 45.67377411 -0.19840454 46.86328125 -0.1953125 C47.88095078 -0.19895813 48.8986203 -0.20260376 49.9471283 -0.20635986 C52.49633789 0.16113281 52.49633789 0.16113281 54.33668518 1.51544189 C55.92800164 3.77371717 55.71486514 5.46596344 55.49633789 8.16113281 C55.00133789 6.18113281 55.00133789 6.18113281 54.49633789 4.16113281 C34.03633789 3.83113281 13.57633789 3.50113281 -7.50366211 3.16113281 C-7.50366211 2.50113281 -7.50366211 1.84113281 -7.50366211 1.16113281 C-4.88573626 -0.14783011 -2.9317443 0.01968578 0 0 Z " fill="#343332" transform="translate(232.503662109375,47.8388671875)"/>
<path d="M0 0 C12.54 0 25.08 0 38 0 C38 1.32 38 2.64 38 4 C25.46 4 12.92 4 0 4 C0 2.68 0 1.36 0 0 Z " fill="#858484" transform="translate(283,13)"/>
<path d="M0 0 C1.37376679 0.00398964 2.74753489 0.01873698 4.12109375 0.04296875 C4.81912109 0.04361328 5.51714844 0.04425781 6.23632812 0.04492188 C11.41828217 0.09015717 11.41828217 0.09015717 12.55859375 1.23046875 C12.65840589 3.90778255 12.6973925 6.5535105 12.68359375 9.23046875 C12.68939453 10.35582031 12.68939453 10.35582031 12.6953125 11.50390625 C12.68520428 17.10385822 12.68520428 17.10385822 11.55859375 18.23046875 C8.86204521 18.30366496 6.19167917 18.32289412 3.49609375 18.29296875 C2.73748047 18.28845703 1.97886719 18.28394531 1.19726562 18.27929688 C-0.68232496 18.26747555 -2.56187524 18.24953953 -4.44140625 18.23046875 C-5.9266135 15.26005426 -5.61198845 12.53282428 -5.62890625 9.23046875 C-5.64308594 7.97234375 -5.65726563 6.71421875 -5.671875 5.41796875 C-5.34312235 0.87115249 -4.52502536 0.30303802 0 0 Z M-3.44140625 3.23046875 C-3.51399571 5.41686328 -3.52514408 7.60547264 -3.50390625 9.79296875 C-3.48328125 11.91734375 -3.46265625 14.04171875 -3.44140625 16.23046875 C1.17859375 16.23046875 5.79859375 16.23046875 10.55859375 16.23046875 C10.55859375 11.61046875 10.55859375 6.99046875 10.55859375 2.23046875 C8.43421875 2.20984375 6.30984375 2.18921875 4.12109375 2.16796875 C2.32865234 2.15056641 2.32865234 2.15056641 0.5 2.1328125 C-2.33013966 1.89145083 -2.33013966 1.89145083 -3.44140625 3.23046875 Z " fill="#888888" transform="translate(247.44140625,453.76953125)"/>
<path d="M0 0 C1.32 0 2.64 0 4 0 C4 8.58 4 17.16 4 26 C2.68 26 1.36 26 0 26 C0 17.42 0 8.84 0 0 Z " fill="#929191" transform="translate(125,63)"/>
<path d="M0 0 C4.34482759 1.34482759 4.34482759 1.34482759 6 3 C6.25 5.9375 6.25 5.9375 6 9 C3 11 3 11 0.4375 10.75 C-2 10 -2 10 -4 8 C-3.8125 5 -3.8125 5 -3 2 C-2.01 1.34 -1.02 0.68 0 0 Z " fill="#151515" transform="translate(196,48)"/>
<path d="M0 0 C2 2 2 2 2.25 5 C2 8 2 8 0 10 C-3.625 9.625 -3.625 9.625 -7 9 C-8.33157895 3.55263158 -8.33157895 3.55263158 -6.875 1.125 C-4.40522151 -0.3568671 -2.83386167 -0.3633156 0 0 Z " fill="#151515" transform="translate(259,31)"/>
<path d="M0 0 C1.32 0 2.64 0 4 0 C4 6.27 4 12.54 4 19 C2.68 19 1.36 19 0 19 C0 12.73 0 6.46 0 0 Z " fill="#8A8A8A" transform="translate(125,140)"/>
<path d="M0 0 C0.99 0 1.98 0 3 0 C3 6.27 3 12.54 3 19 C1.68 19 0.36 19 -1 19 C-1.02683987 16.02077407 -1.04676037 13.04178705 -1.0625 10.0625 C-1.07087891 9.21236328 -1.07925781 8.36222656 -1.08789062 7.48632812 C-1.09111328 6.67744141 -1.09433594 5.86855469 -1.09765625 5.03515625 C-1.10289307 4.2862915 -1.10812988 3.53742676 -1.11352539 2.76586914 C-1 1 -1 1 0 0 Z " fill="#8D8D8D" transform="translate(126,107)"/>
<path d="M0 0 C4.95 0 9.9 0 15 0 C16.52634923 3.05269846 15.83794444 5.75845689 15.5625 9.125 C15.46066406 10.40632813 15.35882813 11.68765625 15.25390625 13.0078125 C15.17011719 13.99523437 15.08632813 14.98265625 15 16 C14.67 16 14.34 16 14 16 C14 11.38 14 6.76 14 2 C9.38 2.33 4.76 2.66 0 3 C0 2.01 0 1.02 0 0 Z " fill="#808080" transform="translate(244,454)"/>
<path d="M0 0 C3.3 0 6.6 0 10 0 C10 1.32 10 2.64 10 4 C6.7 4 3.4 4 0 4 C0 2.68 0 1.36 0 0 Z " fill="#BEBEBE" transform="translate(283,13)"/>
<path d="M0 0 C2.97 0 5.94 0 9 0 C9 1.32 9 2.64 9 4 C6.03 4 3.06 4 0 4 C0 2.68 0 1.36 0 0 Z " fill="#C1C1C1" transform="translate(312,13)"/>
<path d="M0 0 C1.32 0 2.64 0 4 0 C4 1.98 4 3.96 4 6 C2.68 6 1.36 6 0 6 C0 4.02 0 2.04 0 0 Z " fill="#BCBCBC" transform="translate(125,140)"/>
<path d="M0 0 C1.32 0 2.64 0 4 0 C4 1.98 4 3.96 4 6 C2.68 6 1.36 6 0 6 C0 4.02 0 2.04 0 0 Z " fill="#C2C2C2" transform="translate(125,83)"/>
<path d="M0 0 C1.32 0.66 2.64 1.32 4 2 C3.34 3.32 2.68 4.64 2 6 C1.01 5.67 0.02 5.34 -1 5 C-0.67 3.35 -0.34 1.7 0 0 Z " fill="#272726" transform="translate(255,33)"/>
<path d="M0 0 C1.98 0.495 1.98 0.495 4 1 C3.67 2.32 3.34 3.64 3 5 C1.68 4.67 0.36 4.34 -1 4 C-0.67 2.68 -0.34 1.36 0 0 Z " fill="#292927" transform="translate(196,51)"/>
<path d="M0 0 C1.32 0 2.64 0 4 0 C4 1.65 4 3.3 4 5 C2.68 5 1.36 5 0 5 C0 3.35 0 1.7 0 0 Z " fill="#C0C0C0" transform="translate(125,154)"/>
<path d="M0 0 C1.32 0 2.64 0 4 0 C4 1.65 4 3.3 4 5 C2.68 5 1.36 5 0 5 C0 3.35 0 1.7 0 0 Z " fill="#BFBFBF" transform="translate(125,121)"/>
<path d="M0 0 C1.32 0 2.64 0 4 0 C4 1.65 4 3.3 4 5 C2.68 5 1.36 5 0 5 C0 3.35 0 1.7 0 0 Z " fill="#C4C4C4" transform="translate(125,63)"/>
<path d="M0 0 C1.65 0 3.3 0 5 0 C5 1.32 5 2.64 5 4 C3.35 4 1.7 4 0 4 C0 2.68 0 1.36 0 0 Z " fill="#9D9C9C" transform="translate(307,13)"/>
<path d="M0 0 C0.99 0 1.98 0 3 0 C3 1.65 3 3.3 3 5 C1.68 5 0.36 5 -1 5 C-0.67 3.35 -0.34 1.7 0 0 Z " fill="#C2C2C2" transform="translate(126,107)"/>
</svg>
