<svg xmlns="http://www.w3.org/2000/svg" width="20" height="20" viewBox="0 0 20 20"><path d="M9.21006 12.7292C9.80611 12.7292 10.3229 12.5177 10.7604 12.0948C11.1979 11.6719 11.4166 11.1542 11.4166 10.5417V5.3125H13.9375V3.91666H10.5208V8.83333C10.3492 8.70833 10.1463 8.61111 9.91183 8.54166C9.6774 8.47222 9.43962 8.4375 9.19848 8.4375C8.60863 8.4375 8.11558 8.64172 7.71933 9.05016C7.32308 9.45862 7.12496 9.95862 7.12496 10.5502C7.12496 11.1417 7.32326 11.6528 7.71986 12.0833C8.11644 12.5139 8.61317 12.7292 9.21006 12.7292ZM4.52079 15.6458C4.11297 15.6458 3.75755 15.4921 3.45452 15.1846C3.15148 14.8772 2.99996 14.524 2.99996 14.125V2.375C2.99996 1.97604 3.15148 1.62283 3.45452 1.31537C3.75755 1.0079 4.11297 0.854164 4.52079 0.854164H16.2708C16.6698 0.854164 17.023 1.0079 17.3304 1.31537C17.6379 1.62283 17.7916 1.97604 17.7916 2.375V14.125C17.7916 14.524 17.6379 14.8772 17.3304 15.1846C17.023 15.4921 16.6698 15.6458 16.2708 15.6458H4.52079ZM4.52079 14.125H16.2708V2.375H4.52079V14.125ZM1.74996 18.4167C1.34214 18.4167 0.986716 18.2629 0.683688 17.9555C0.380647 17.648 0.229126 17.2948 0.229126 16.8958V3.625H1.74996V16.8958H15.0208V18.4167H1.74996Z" fill="#666666"></path></svg>