<?xml version="1.0" encoding="UTF-8"?>
<svg version="1.1" xmlns="http://www.w3.org/2000/svg" width="512" height="512">
<path d="M0 0 C1.97932564 -0.00271566 3.95865027 -0.00627981 5.93797302 -0.01062012 C11.27471622 -0.01967795 16.61138142 -0.01622731 21.94812584 -0.00986195 C27.55628023 -0.00476754 33.16442833 -0.00950291 38.77258301 -0.01263428 C48.18710518 -0.01626394 57.60159589 -0.01150111 67.01611328 -0.00195312 C77.871344 0.00892948 88.72649956 0.00540319 99.58172846 -0.00560594 C108.93332639 -0.01470735 118.28490181 -0.01595016 127.63650274 -0.0107286 C133.20800348 -0.00762456 138.77946899 -0.00715621 144.35096741 -0.01380157 C149.59106494 -0.01961607 154.83106639 -0.01550366 160.07115364 -0.00401306 C161.98422652 -0.0013883 163.89730761 -0.00209378 165.81037712 -0.00653839 C179.51191103 -0.03541487 192.90823704 0.33208075 205.99804688 4.88378906 C206.752229 5.14248779 207.50641113 5.40118652 208.28344727 5.66772461 C220.33201366 9.98923026 230.46532372 16.72458356 239.99804688 25.25878906 C240.94744141 26.08443359 240.94744141 26.08443359 241.91601562 26.92675781 C251.72129548 36.0140309 261.59041251 50.97179755 263.99804688 64.25878906 C265.94686768 64.22736816 265.94686768 64.22736816 267.93505859 64.1953125 C272.84412215 64.12185903 277.75313931 64.07661381 282.66259766 64.0390625 C284.77075418 64.01918331 286.87885735 63.99207024 288.98681641 63.95703125 C307.10900888 63.66376398 323.48183652 65.1542681 339.99804688 73.25878906 C340.93003906 73.71125 341.86203125 74.16371094 342.82226562 74.62988281 C363.80938858 85.43078709 380.07524048 104.76650573 387.35742188 127.22363281 C389.32202342 134.00720262 391.11249974 140.5609582 391.1452179 147.6497345 C391.15595085 149.25349945 391.15595085 149.25349945 391.16690063 150.8896637 C391.16958954 152.05279587 391.17227844 153.21592804 391.17504883 154.41430664 C391.18162003 155.64754669 391.18819122 156.88078674 391.19496155 158.15139771 C391.21467934 162.23537442 391.22636517 166.31931183 391.23632812 170.40332031 C391.24037943 171.816093 391.24449646 173.2288655 391.24867821 174.6416378 C391.26772441 181.28808506 391.28195086 187.93452133 391.29029018 194.58099061 C391.30002978 202.21493053 391.32626519 209.84857796 391.36679107 217.48241502 C391.39713786 223.4054368 391.41177687 229.3283757 391.41507119 235.25147361 C391.41740263 238.77766822 391.42610854 242.30355029 391.45153236 245.82966042 C391.660934 276.46232818 385.90407266 300.79610791 363.99804688 323.25878906 C363.41410156 323.91621094 362.83015625 324.57363281 362.22851562 325.25097656 C351.41667615 337.13031411 335.12761237 344.07380555 319.81054688 347.63378906 C319.09866211 347.80177002 318.38677734 347.96975098 317.65332031 348.14282227 C313.46094452 349.02989218 309.50437701 349.33440911 305.21557617 349.30029297 C304.23542038 349.29430084 303.25526459 349.28830872 302.2454071 349.28213501 C301.50377823 349.27443085 300.76214935 349.26672668 299.99804688 349.25878906 C300.00470871 349.95956573 300.01137054 350.66034241 300.01823425 351.38235474 C300.07847047 358.0027071 300.12408459 364.62298242 300.15348339 371.24354744 C300.16910604 374.64685937 300.19028122 378.04994391 300.22436523 381.453125 C300.26334721 385.37008903 300.27778427 389.28696257 300.29101562 393.20410156 C300.30649948 394.41993927 300.32198334 395.63577698 300.3379364 396.88845825 C300.33929448 403.72536614 300.1858077 408.83489781 295.31054688 414.07128906 C292.01139922 415.76544597 288.6798865 416.5601496 284.99804688 416.25878906 C279.91546864 414.24466316 277.35508599 411.59793534 274.40625 407.15087891 C273.51684145 405.87774821 272.62317256 404.6075862 271.72590637 403.33998108 C271.25126261 402.66866716 270.77661884 401.99735325 270.28759193 401.30569649 C254.27111431 379.15493068 233.76824116 352.93056909 205.48485374 347.78829956 C176.39436376 343.63029775 145.57471862 345.64326122 116.41838074 348.25621033 C92.95811916 350.28057209 73.10188399 345.81786825 53.99804688 331.25878906 C51.35133981 329.01186432 48.78047332 326.7156911 46.25195312 324.33691406 C43.91987849 322.186717 41.48301386 320.22865837 38.99804688 318.25878906 C38.09038574 319.18216064 37.18272461 320.10553223 36.24755859 321.05688477 C32.86708613 324.49179696 29.47658056 327.91665695 26.08300781 331.33862305 C24.61769961 332.81898578 23.15509931 334.30203413 21.6953125 335.7878418 C19.59241428 337.92726856 17.47985718 340.05673915 15.36523438 342.18457031 C14.71811493 342.84717361 14.07099548 343.50977692 13.40426636 344.19245911 C8.8934728 348.70490073 5.00327166 351.94244961 -1.56445312 352.63378906 C-6.20647949 352.12738619 -8.69266062 350.75512335 -11.75195312 347.25878906 C-13.98115101 343.69207245 -14.12454232 340.79169401 -14.11547852 336.68579102 C-14.11536522 334.97435661 -14.11536522 334.97435661 -14.11524963 333.22834778 C-14.11008835 331.99702621 -14.10492706 330.76570465 -14.09960938 329.49707031 C-14.09819443 328.23614059 -14.09677948 326.97521088 -14.09532166 325.67607117 C-14.09066887 322.32727198 -14.08168654 318.97854095 -14.07061768 315.62976074 C-14.06038 312.21118763 -14.05581899 308.79260747 -14.05078125 305.37402344 C-14.03974412 298.66892645 -14.02299999 291.96386169 -14.00195312 285.25878906 C-14.88945251 285.26567749 -15.7769519 285.27256592 -16.69134521 285.27966309 C-17.85828918 285.28502075 -19.02523315 285.29037842 -20.22753906 285.29589844 C-21.38316345 285.30278687 -22.53878784 285.30967529 -23.72943115 285.31677246 C-41.20611808 285.00711596 -58.77961057 276.19064708 -72.00195312 265.25878906 C-73.27619141 264.22818359 -73.27619141 264.22818359 -74.57617188 263.17675781 C-91.05795038 249.16850809 -101.90248059 228.62400615 -105.00195312 207.25878906 C-105.0947576 205.43008611 -105.14477607 203.59879928 -105.15585327 201.76777649 C-105.16445374 200.70156067 -105.1730542 199.63534485 -105.18191528 198.53681946 C-105.18617523 197.3819957 -105.19043518 196.22717194 -105.19482422 195.03735352 C-105.20709045 193.19450272 -105.20709045 193.19450272 -105.21960449 191.31442261 C-105.24440257 187.25030839 -105.26113223 183.18623135 -105.27539062 179.12207031 C-105.28075715 177.71400638 -105.28613467 176.30594249 -105.29152298 174.89787865 C-105.31314527 169.02922739 -105.33187159 163.16057873 -105.34314537 157.29189777 C-105.35931545 148.93383662 -105.3923299 140.57624535 -105.44954622 132.2183612 C-105.48855339 126.3148078 -105.50781464 120.41137835 -105.51306593 114.50769967 C-105.51668104 110.9964326 -105.52828067 107.48566779 -105.56116867 103.97454262 C-105.836761 73.00876385 -99.67493179 49.00486238 -78.25195312 26.07128906 C-56.23950246 5.12181389 -29.35845369 -0.06820815 0 0 Z " fill="#428DFE" transform="translate(113.001953125,47.7412109375)"/>
<path d="M0 0 C2.07416234 -0.00734897 4.1483206 -0.01593759 6.22247314 -0.02566528 C11.83225778 -0.04780572 17.44189519 -0.05081561 23.05171752 -0.04891777 C27.74804484 -0.04879769 32.44434139 -0.05737719 37.14066011 -0.06569529 C48.2293739 -0.08490349 59.31801242 -0.087823 70.40673828 -0.08105469 C81.81353493 -0.07441977 93.22000773 -0.09726236 104.62673873 -0.13436842 C114.44795495 -0.16514754 124.26906746 -0.17641643 134.0903309 -0.1725316 C139.94371926 -0.17047215 145.79685566 -0.17581839 151.65019798 -0.20042419 C157.16043509 -0.22282395 162.67014907 -0.22070403 168.1803894 -0.20049667 C170.19099148 -0.19710965 172.20162968 -0.20207485 174.212183 -0.21648026 C195.44017701 -0.3579587 213.14788469 4.42020058 228.72973633 19.63867188 C242.42182324 33.6254235 248.93898244 50.12991784 248.85644531 69.65161133 C248.86674019 71.38837128 248.86674019 71.38837128 248.87724304 73.16021729 C248.89540065 76.95134074 248.89168867 80.74204592 248.88598633 84.53320312 C248.8893972 86.51944155 248.89281775 88.50568016 248.8973394 90.49191636 C248.91132283 96.72732217 248.90987624 102.9625908 248.8984375 109.19799805 C248.8869718 115.58852745 248.9010197 121.97863639 248.92783397 128.36911041 C248.95013133 133.89398687 248.9565968 139.41873273 248.95075756 144.9436509 C248.94741886 148.22656708 248.95135232 151.50915854 248.96700859 154.7920475 C249.06815085 179.47701191 246.20526366 199.48628014 228.06958008 217.83007812 C213.24892398 231.74476935 196.50894792 236.57130537 176.55371094 236.56176758 C175.3723909 236.565242 174.19107086 236.56871643 172.97395325 236.57229614 C170.41656397 236.57963059 167.85916842 236.58498825 165.30177116 236.58858681 C161.25432506 236.59452925 157.20696536 236.6110979 153.15956116 236.62992859 C151.77054887 236.63626462 150.38153653 236.64259026 148.99252415 236.64890575 C147.94966289 236.65365447 147.94966289 236.65365447 146.88573372 236.65849912 C137.47201441 236.70049303 128.05833813 236.73357059 118.64453125 236.74584961 C112.28099613 236.75423486 105.91767819 236.77673504 99.55425173 236.81520528 C96.19165311 236.83493622 92.82937888 236.84738017 89.46671867 236.84237099 C85.71803862 236.84002313 81.97024068 236.86214502 78.22167969 236.88989258 C77.11345856 236.88329117 76.00523743 236.87668976 74.86343384 236.86988831 C66.06844144 236.97690238 61.90241434 239.69874875 55.74804688 245.91308594 C54.87081467 246.7936969 53.99358246 247.67430786 53.08976746 248.581604 C52.1520143 249.53288434 51.2142964 250.48419943 50.27661133 251.43554688 C49.30160506 252.41683133 48.32607665 253.39759724 47.35005188 254.37786865 C44.7963837 256.94476994 42.24836729 259.51720117 39.70196533 262.09130859 C35.61020168 266.22639925 31.51148091 270.3545687 27.40964699 274.47966766 C25.97746211 275.92210056 24.54871943 277.36788001 23.12028503 278.81402588 C22.25881363 279.6820282 21.39734222 280.55003052 20.50976562 281.44433594 C19.74842819 282.21392639 18.98709076 282.98351685 18.2026825 283.77642822 C16.45239258 285.41992188 16.45239258 285.41992188 15.45239258 285.41992188 C15.44304687 284.23962402 15.43370117 283.05932617 15.42407227 281.84326172 C15.3840861 277.4483519 15.31830343 273.05413574 15.24487305 268.65966797 C15.21671338 266.76067033 15.19547399 264.86155658 15.18139648 262.96240234 C15.1598974 260.22628549 15.1132125 257.49155736 15.06176758 254.75585938 C15.06053894 253.91187592 15.0593103 253.06789246 15.05804443 252.19833374 C14.92644419 246.85669468 14.15352768 243.55569006 10.45239258 239.41992188 C6.95858565 237.45007351 3.95601835 237.17186831 -0.01245117 237.14648438 C-1.05312744 237.12884033 -2.09380371 237.11119629 -3.16601562 237.09301758 C-4.26131592 237.077146 -5.35661621 237.06127441 -6.48510742 237.04492188 C-26.72103129 236.46923848 -43.33864333 230.4903726 -57.95776367 216.03710938 C-68.33269992 204.98667644 -76.63546184 189.95212998 -76.68804932 174.38806152 C-76.69375946 173.37337799 -76.6994696 172.35869446 -76.70535278 171.31326294 C-76.70647064 170.20570648 -76.7075885 169.09815002 -76.70874023 167.95703125 C-76.71370514 166.78578705 -76.71867004 165.61454285 -76.7237854 164.4078064 C-76.73588398 161.19659024 -76.74335052 157.98541047 -76.74779606 154.77417564 C-76.75073301 152.76327105 -76.75483916 150.75237208 -76.75930023 148.74147034 C-76.77297377 142.43674354 -76.782639 136.1320297 -76.78650212 129.8272891 C-76.79097134 122.5748219 -76.80846666 115.32254425 -76.83750272 108.07013464 C-76.85921548 102.44952693 -76.86921162 96.82897215 -76.87054324 91.208323 C-76.8715852 87.85887735 -76.87883572 84.5097507 -76.89536285 81.1603241 C-76.91252852 77.41272898 -76.91051673 73.66558786 -76.90405273 69.91796875 C-76.91326752 68.82660614 -76.9224823 67.73524353 -76.93197632 66.61080933 C-76.87663119 56.30290405 -74.74342527 46.62362848 -70.04760742 37.41992188 C-69.70648926 36.74767578 -69.36537109 36.07542969 -69.01391602 35.3828125 C-61.05657676 20.49329097 -47.2579883 9.25323964 -31.54760742 3.41992188 C-30.87699626 3.16555611 -30.2063851 2.91119034 -29.51545238 2.64911652 C-19.86815562 -0.50066355 -10.02853022 -0.01683107 0 0 Z " fill="#D3E0F4" transform="translate(108.547607421875,72.580078125)"/>
<path d="M0 0 C4.83395154 -0.07543378 9.66754384 -0.12919195 14.50195312 -0.16479492 C16.13873274 -0.17967183 17.77547407 -0.1999798 19.41210938 -0.22631836 C40.45133703 -0.555864 58.08187566 2.62030689 75 16 C76.03125 16.7425 77.0625 17.485 78.125 18.25 C85.04797714 24.87197814 90.05874013 32.36722385 93.9375 41.0625 C94.36083618 41.99799683 94.36083618 41.99799683 94.79272461 42.95239258 C98.70330292 52.25034646 99.29913942 61.96135323 99.29052734 71.93457031 C99.29724457 73.07275711 99.30396179 74.21094391 99.31088257 75.38362122 C99.32975044 79.11516791 99.33378107 82.84653368 99.3359375 86.578125 C99.34237303 89.19447908 99.34910194 91.81083245 99.35610962 94.42718506 C99.36885174 99.90085004 99.37187954 105.37446672 99.37060547 110.84814453 C99.36940574 117.13695946 99.39048991 123.42543031 99.4220928 129.7141583 C99.45160286 135.80797262 99.45857602 141.90162433 99.45738602 147.99550629 C99.45973126 150.56766922 99.46849333 153.13983526 99.48405075 155.71195221 C99.61830714 180.19974686 96.60821243 199.43292452 79 218 C63.61710817 232.78321978 44.5200223 237.42738294 23.80493164 237.58544922 C16.86368501 237.59180584 16.86368501 237.59180584 11 241 C7.4873644 245.51347846 7.53064447 249.53497921 7.48828125 255.01953125 C7.47033005 255.87810226 7.45237885 256.73667328 7.43388367 257.6212616 C7.37989259 260.3516251 7.34592126 263.08181492 7.3125 265.8125 C7.279317 267.6686439 7.24482642 269.52476492 7.20898438 271.38085938 C7.12417266 275.92044738 7.05730823 280.45998486 7 285 C3.47552204 283.49622732 1.22424627 281.46154914 -1.46142578 278.74975586 C-2.33558136 277.87222153 -3.20973694 276.99468719 -4.11038208 276.09056091 C-5.05539073 275.13201992 -6.00036676 274.17344676 -6.9453125 273.21484375 C-7.92078397 272.23309878 -8.89677444 271.25186924 -9.8732605 270.27113342 C-12.43805859 267.69305471 -14.99722373 265.1094626 -17.55480957 262.52423096 C-21.6542664 258.38159008 -25.76051571 254.24570853 -29.8699913 250.1130085 C-31.30490272 248.66786343 -32.7363598 247.21936031 -34.16751099 245.77049255 C-35.03536224 244.89611038 -35.9032135 244.02172821 -36.79736328 243.12084961 C-37.56251251 242.34744736 -38.32766174 241.5740451 -39.11599731 240.77720642 C-42.04008299 238.01887498 -43.79076942 237.87267624 -47.70869446 237.85523987 C-49.19918556 237.84489212 -49.19918556 237.84489212 -50.7197876 237.83433533 C-51.81426208 237.83172195 -52.90873657 237.82910858 -54.03637695 237.82641602 C-55.18621567 237.819729 -56.33605438 237.81304199 -57.52073669 237.80615234 C-60.02635437 237.79207162 -62.5319851 237.78018728 -65.03762245 237.77020454 C-69.01097751 237.75381262 -72.98426109 237.73077889 -76.95756531 237.70530701 C-88.25819872 237.63417222 -99.55887951 237.57461118 -110.85961914 237.52319336 C-117.09787731 237.49473406 -123.33605849 237.45925985 -129.57423562 237.41653961 C-132.87054147 237.39431422 -136.16676336 237.37688851 -139.46312904 237.36609077 C-143.15562213 237.35383025 -146.84786974 237.32963245 -150.5402832 237.30297852 C-151.61249115 237.30238937 -152.6846991 237.30180023 -153.78939819 237.30119324 C-174.56913961 237.10411271 -193.14852334 231.026612 -208 216 C-209.02403979 214.68503982 -210.03099024 213.35602281 -211 212 C-208.15247725 205.73007737 -204.22707766 200.16976022 -198 197 C-189.81404748 194.94667061 -181.06634075 195.62915858 -172.69921875 195.77734375 C-170.21499253 195.78050535 -167.73075493 195.77851154 -165.24653625 195.7716217 C-158.72288543 195.76597106 -152.20140131 195.82411886 -145.67822266 195.89770508 C-137.78085437 195.97645652 -129.88317152 195.98748957 -121.98546314 196.00055027 C-115.83407073 196.01088015 -109.68373371 196.03351087 -103.53263855 196.09690857 C-89.29779265 196.21508443 -75.60571076 196.10922549 -62 191.375 C-61.24364258 191.11412598 -60.48728516 190.85325195 -59.70800781 190.58447266 C-37.37846046 182.54376545 -20.08285692 166.43150858 -9.70141602 145.23681641 C-2.97705078 130.68852608 -0.88527915 116.50366273 -0.79467773 100.58349609 C-0.78477814 99.48963593 -0.77487854 98.39577576 -0.76467896 97.26876831 C-0.73332869 93.68701268 -0.70841221 90.10524383 -0.68359375 86.5234375 C-0.66300131 84.02665887 -0.64200427 81.52988355 -0.62062073 79.03311157 C-0.56563648 72.48690482 -0.51612365 65.94066784 -0.46777344 59.39440918 C-0.41788266 52.70431528 -0.36178974 46.01427093 -0.30664062 39.32421875 C-0.19934861 26.21618326 -0.09766324 13.10811058 0 0 Z " fill="#7EABFA" transform="translate(381,136)"/>
<path d="M0 0 C4.75771411 2.7268662 7.72199298 6.52384206 9.8125 11.5625 C10.66345075 16.64007388 10.31867228 20.98443349 8.75 25.875 C4.94876035 31.14768726 0.36673613 35.3827375 -6.1875 36.5625 C-12.25526218 36.63916848 -16.44755599 35.54836201 -21.1875 31.5625 C-26.36327209 26.20438364 -27.67737724 21.83136858 -27.58984375 14.48828125 C-26.80624482 8.79007153 -23.82606619 4.60918656 -19.32421875 1.1171875 C-13.1274811 -2.43444971 -6.58024592 -2.71983498 0 0 Z " fill="#438DFE" transform="translate(203.1875,173.4375)"/>
<path d="M0 0 C5.62562327 2.97202739 9.18828946 5.6009695 11.3125 11.75 C11.98869619 17.96544722 12.08235204 23.52085039 8.3125 28.75 C4.52323918 32.72106878 0.82794234 35.75722038 -4.6875 36.75 C-10.75526218 36.82666848 -14.94755599 35.73586201 -19.6875 31.75 C-24.68987607 26.57138846 -26.0642536 22.47029728 -25.9609375 15.3828125 C-25.44551421 10.42002257 -23.66804047 6.5594938 -19.96875 3.1796875 C-13.62848614 -1.52177934 -7.51034949 -2.54588118 0 0 Z " fill="#438DFE" transform="translate(275.6875,173.25)"/>
<path d="M0 0 C5.1039194 3.36394688 8.66952282 7.00906367 10.75 12.8125 C11.681361 19.67276881 10.88562651 24.26205389 6.75 29.8125 C3.29357004 33.46311142 -0.27595267 35.8371966 -5.25 36.8125 C-11.57674506 36.90519956 -16.13983052 35.51987786 -21.25 31.8125 C-26.2106799 25.41583382 -27.20367425 19.74533578 -26.25 11.8125 C-24.0700923 6.13722305 -20.59127643 2.71536763 -15.25 -0.1875 C-10.07304236 -1.91315255 -5.12711982 -1.8733707 0 0 Z " fill="#438DFE" transform="translate(128.25,173.1875)"/>
</svg>
