<?xml version="1.0" encoding="UTF-8"?>
<svg version="1.1" xmlns="http://www.w3.org/2000/svg" width="512" height="512">
<path d="M0 0 C1.96733091 -0.00668677 1.96733091 -0.00668677 3.97440588 -0.01350862 C5.43352104 -0.01341932 6.89263619 -0.01322947 8.35175133 -0.01294994 C9.8990025 -0.01624933 11.44625281 -0.01997505 12.99350202 -0.02409142 C17.25215154 -0.03411107 21.51078697 -0.03782816 25.76944661 -0.04048073 C30.35993693 -0.04438388 34.95041608 -0.0539622 39.54089928 -0.0626936 C50.63021588 -0.08245752 61.7195334 -0.09252404 72.80886322 -0.10142139 C78.03063235 -0.10580433 83.25240046 -0.11117112 88.47416878 -0.11641026 C105.83176081 -0.13342232 123.18935221 -0.14791667 140.54695129 -0.155159 C145.05149524 -0.1570689 149.55603919 -0.15898923 154.06058311 -0.16094494 C155.18016916 -0.16142868 156.2997552 -0.16191242 157.4532681 -0.16241082 C175.59136295 -0.1707118 193.72939188 -0.19604997 211.86745794 -0.22852562 C230.48797853 -0.26159337 249.1084656 -0.2796075 267.72901571 -0.28280324 C278.18435338 -0.28496857 288.63959489 -0.29372075 299.09490395 -0.31926441 C307.99879831 -0.34096749 316.90257316 -0.34902373 325.80649097 -0.33929763 C330.34849872 -0.33475184 334.89025986 -0.33665543 339.43223381 -0.35605907 C343.59372253 -0.37368353 347.7547846 -0.37269896 351.91627781 -0.35716178 C353.41835026 -0.35478462 354.9204522 -0.35911496 356.42247958 -0.37099043 C368.20955836 -0.45837849 377.24557798 1.09242303 385.98392296 9.42718983 C386.53821983 9.99051014 387.09251671 10.55383045 387.66361046 11.13422108 C388.40611046 11.87672108 389.14861046 12.61922108 389.91361046 13.38422108 C396.23129337 23.31200852 396.20311471 33.4869888 396.05423546 44.83343983 C396.04675967 46.52165012 396.04107308 48.20986918 396.03708458 49.89809132 C396.0219333 54.30572643 395.98274458 58.71282031 395.93826866 63.12024403 C395.89708691 67.63199006 395.87902504 72.14382497 395.85892296 76.65570545 C395.81623805 85.48212357 395.7481172 94.30810468 395.66361046 103.13422108 C396.38056084 103.12533863 397.09751122 103.11645618 397.83618736 103.10730457 C404.63183795 103.02676333 411.42741611 102.96605736 418.223423 102.92697239 C421.71638993 102.9062018 425.2089586 102.87808102 428.7016964 102.83246326 C432.72809985 102.78021162 436.75409272 102.7611891 440.78079796 102.74359608 C442.01973808 102.72295094 443.25867821 102.70230579 444.53516197 102.68103504 C455.06424387 102.67834028 463.16082666 104.90963067 470.90970421 112.20453358 C476.54273963 118.40212711 479.90896737 125.07788017 479.92367268 133.51112747 C479.93073827 134.80623888 479.93780386 136.1013503 479.94508356 137.43570751 C479.94283226 138.87105523 479.94038577 140.30640266 479.93776512 141.74174976 C479.9422176 143.26796769 479.94753167 144.79418331 479.95363384 146.32039553 C479.96782271 150.51611522 479.96947697 154.71176086 479.96903694 158.9075011 C479.97068432 163.4317849 479.98374918 167.95603812 479.99522972 172.48030567 C480.01808286 182.37265851 480.02600033 192.2649899 480.03105617 202.15736556 C480.03431212 208.33235319 480.04083389 214.50733458 480.04805756 220.68231869 C480.06762208 237.77488822 480.08402776 254.86745196 480.08693409 271.96003342 C480.08712166 273.0538646 480.08730923 274.14769579 480.08750248 275.27467338 C480.08786874 277.4921726 480.08823243 279.70967182 480.08859359 281.92717104 C480.08877641 283.02795605 480.08895922 284.12874106 480.08914757 285.26288319 C480.08941839 286.91607233 480.08941839 286.91607233 480.08969469 288.60265923 C480.09323838 306.47182113 480.12027365 324.34086267 480.15764546 342.2099828 C480.19569629 360.5502778 480.21509132 378.89051301 480.2153936 397.23084837 C480.21597882 407.5306843 480.22451235 417.83037657 480.25339127 428.13017559 C480.27786178 436.89804131 480.28521724 445.66571095 480.27014374 454.43360155 C480.26295765 458.90833691 480.26390516 463.38268475 480.28655434 467.85737705 C480.30708517 471.95270901 480.30459987 476.04735406 480.28367949 480.14267809 C480.28017327 481.62513404 480.28514245 483.10763897 480.29938393 484.59003066 C480.41139096 497.05060514 480.41139096 497.05060514 477.31268978 500.9926281 C473.64635615 503.95659913 470.56751616 504.56845671 465.87064171 504.45843983 C461.5449822 503.82298896 458.28430059 501.47611427 454.66361046 499.13422108 C453.50608066 498.39460286 452.34852662 497.65502259 451.19095421 496.91547108 C448.35109176 495.09139328 445.52118943 493.2526275 442.69486046 491.40765858 C437.03955841 487.71991145 431.35223243 484.08278385 425.66361046 480.44672108 C424.6085128 479.77189686 423.55341515 479.09707264 422.46634483 478.4017992 C419.19902089 476.31220866 415.93136463 474.22313875 412.66361046 472.13422108 C388.33165281 456.57997381 388.33165281 456.57997381 378.97611046 450.50922108 C372.37287351 446.22491488 365.74182954 441.98518328 359.10111046 437.75922108 C358.18434532 437.17575916 357.26758018 436.59229725 356.32303429 435.99115467 C353.77160219 434.36940839 351.21992368 432.74826508 348.66361046 431.13422108 C348.1257889 430.72638217 347.58796735 430.31854326 347.03384817 429.89834559 C341.34230174 425.83011783 336.73127154 425.42648216 329.86029625 425.515172 C328.79470934 425.50893303 327.72912244 425.50269405 326.63124502 425.49626601 C323.07215312 425.48138289 319.51416538 425.50197045 315.95511436 425.52240467 C313.39875971 425.51886265 310.84240731 425.51308412 308.28606224 425.50523853 C302.78635403 425.49306496 297.28697855 425.49589962 291.78728676 425.51207066 C283.8249268 425.53519203 275.86281545 425.52780564 267.90044706 425.51253946 C254.96633703 425.4882869 242.03230674 425.4840541 229.09818077 425.49457264 C228.32477743 425.49519646 227.55137409 425.49582029 226.75453429 425.49646302 C225.18931194 425.49773429 223.62408959 425.49900853 222.05886724 425.50028572 C221.28291431 425.50091811 220.50696139 425.50155049 219.70749474 425.50220203 C218.93090253 425.50284018 218.15431032 425.50347833 217.35418502 425.50413581 C208.73271791 425.51093904 200.11125192 425.51293274 191.48978233 425.51312733 C190.71793231 425.51315016 189.94608228 425.51317299 189.15084286 425.51319651 C176.26612499 425.5131272 163.38143733 425.50107704 150.49673402 425.48216784 C142.55777952 425.47122565 134.61898379 425.47199983 126.68003713 425.48810758 C120.5930331 425.49984252 114.5061306 425.49679361 108.41911697 425.48847866 C105.92706799 425.48766936 103.43501111 425.49200653 100.94298172 425.50192165 C97.53545284 425.51482128 94.12841983 425.50924766 90.72089195 425.49930286 C89.73993982 425.50756104 88.75898769 425.51581921 87.74830973 425.52432764 C76.43324859 425.44629707 68.01596412 422.40014816 59.94095421 414.43500233 C52.89196094 406.72787209 51.55728754 398.45763344 51.34720421 388.33343983 C51.31603256 387.07887737 51.31603256 387.07887737 51.28423119 385.79897022 C51.21910012 383.13996687 51.16002096 380.4808688 51.10111046 377.82172108 C51.05789054 376.01376877 51.01427516 374.20582586 50.97025108 372.39789295 C50.8634563 367.97676486 50.7620872 363.55554195 50.66361046 359.13422108 C35.37989036 368.83160048 35.37989036 368.83160048 20.16361046 378.63422108 C13.43522519 383.00162509 6.679991 387.32592238 -0.08638954 391.63422108 C-1.0280497 392.23427967 -1.96970985 392.83433826 -2.93990517 393.45258045 C-3.82871376 394.01783436 -4.71752235 394.58308826 -5.63326454 395.16547108 C-6.42055946 395.66627186 -7.20785439 396.16707264 -8.01900673 396.6830492 C-8.78374306 397.16193592 -9.54847939 397.64082264 -10.33638954 398.13422108 C-11.64313637 398.95406483 -11.64313637 398.95406483 -12.97628212 399.79047108 C-16.95697191 402.05691533 -20.8955196 401.91456564 -25.33638954 401.13422108 C-28.45525532 399.44326975 -30.72657808 397.35384399 -32.33638954 394.13422108 C-32.43494627 392.14249865 -32.46741109 390.1474056 -32.47061062 388.15324879 C-32.47506846 386.87006071 -32.47952631 385.58687263 -32.48411924 384.26480007 C-32.48402993 382.82731214 -32.48384006 381.38982422 -32.48356056 379.95233631 C-32.48685816 378.43568483 -32.4905835 376.91903423 -32.49470204 375.40238476 C-32.50474249 371.21902754 -32.50844213 367.03568466 -32.51109135 362.85231709 C-32.51498849 358.34631853 -32.52456738 353.84033139 -32.53330421 349.3343401 C-32.55308782 338.44292931 -32.56313832 327.55151757 -32.572032 316.66009331 C-32.57641276 311.53295868 -32.58178021 306.4058251 -32.58702087 301.27869129 C-32.60403686 284.23686405 -32.61853055 267.19503745 -32.62576962 250.15320301 C-32.62767957 245.72841866 -32.62959989 241.30363431 -32.63155556 236.87884998 C-32.6320393 235.77906724 -32.63252304 234.6792845 -32.63302144 233.546175 C-32.64131986 215.73451198 -32.66665195 197.92291615 -32.69913623 180.11128247 C-32.73220576 161.82982889 -32.75021838 143.54840946 -32.75341386 125.26692581 C-32.75557931 115.00047041 -32.76433286 104.73411293 -32.78987503 94.46768665 C-32.81158075 85.72294366 -32.81963315 76.97832237 -32.80990825 68.2335555 C-32.80536287 63.77257061 -32.80726351 59.31183681 -32.82666969 54.85088634 C-32.84429764 50.76333221 -32.84330676 46.67621241 -32.8277724 42.58865368 C-32.82539573 41.11343908 -32.82972304 39.63819443 -32.84160105 38.16302574 C-32.93334569 26.01186301 -31.11060691 17.0924286 -22.62545204 8.11468983 C-15.95564736 2.34405676 -8.66774509 0.0136558 0 0 Z M-7.33638954 29.13422108 C-8.07561499 31.83279451 -8.07561499 31.83279451 -7.95162868 34.87384892 C-7.96158393 36.05223402 -7.97153917 37.23061913 -7.98179609 38.44471288 C-7.96723188 39.74042014 -7.95266767 41.0361274 -7.93766212 42.37109852 C-7.93984205 43.76048865 -7.94421911 45.14987679 -7.95060796 46.53925395 C-7.96180689 50.3614078 -7.94176354 54.18286328 -7.91671765 58.00492811 C-7.89515816 62.12486902 -7.90242987 66.24476943 -7.90622902 70.36475086 C-7.90885287 77.50425289 -7.89314371 84.64352675 -7.86503983 91.78297138 C-7.82443272 102.10541469 -7.81138547 112.42774747 -7.80509987 122.75026199 C-7.79415229 139.49712603 -7.76086555 156.24386842 -7.71358681 172.99066639 C-7.66770319 189.26019144 -7.63230542 205.52968347 -7.61104774 221.79926014 C-7.60973413 222.80183976 -7.60842051 223.80441938 -7.60706709 224.8373802 C-7.60054198 229.8669454 -7.59422342 234.89651083 -7.58800757 239.92607641 C-7.53616015 281.66220927 -7.44808227 323.39820822 -7.33638954 365.13422108 C-2.86618098 363.4324182 0.94168066 361.14433399 4.91361046 358.50922108 C6.43915642 357.50976611 7.96523085 356.5111175 9.49173546 355.51312733 C10.73406944 354.69932606 10.73406944 354.69932606 12.00150108 353.86908436 C16.86884032 350.69710045 21.76778508 347.57448277 26.66361046 344.44672108 C28.81988147 343.06784768 30.9761312 341.68894102 33.13236046 340.31000233 C34.75464561 339.27287098 34.75464561 339.27287098 36.40970421 338.21478748 C41.66213084 334.85635563 46.91278065 331.49514872 52.16361046 328.13422108 C53.18188927 327.48259998 54.20016808 326.83097889 55.24930382 326.1596117 C60.09568823 323.05829234 64.94170761 319.95640689 69.78644371 316.85251331 C71.49671366 315.75682576 73.20709804 314.66131707 74.91751671 313.5658617 C77.05967109 312.19382068 79.20161214 310.8214465 81.34329796 309.4486742 C84.11465437 307.6739049 86.88868941 305.90340985 89.66361046 304.13422108 C90.44977745 303.62939198 91.23594444 303.12456287 92.04593468 302.60443592 C93.10771935 301.9288866 93.10771935 301.9288866 94.19095421 301.23968983 C94.79544395 300.85321278 95.3999337 300.46673573 96.02274132 300.06854725 C99.10662318 298.31255619 101.69526168 298.00884582 105.16018391 298.00672913 C106.08679008 298.00372148 107.01339626 298.00071383 107.96808141 297.99761504 C109.49753286 298.0002406 109.49753286 298.0002406 111.05788231 298.0029192 C112.1397647 298.00080348 113.22164708 297.99868777 114.33631378 297.99650794 C117.97984654 297.99049225 121.62334481 297.99150921 125.26688194 297.99237537 C127.87163922 297.98934498 130.47639596 297.98582385 133.08115196 297.98184681 C138.69925427 297.97373148 144.31735205 297.96878922 149.93545914 297.96555614 C158.81272229 297.96006214 167.68994696 297.94316781 176.56719017 297.92421436 C179.60334104 297.91785759 182.63949201 297.91154918 185.67564297 297.9052372 C186.43441489 297.90365344 187.19318681 297.90206967 187.97495181 297.90043792 C196.61343748 297.88249885 205.25192586 297.86627308 213.8904171 297.85126209 C215.07506785 297.84919829 215.07506785 297.84919829 216.28365094 297.84709278 C229.08771174 297.82515329 241.89176265 297.81440421 254.69583892 297.80689134 C267.83578188 297.79882587 280.97563989 297.77555488 294.11553437 297.73893768 C302.22383723 297.7168897 310.33196556 297.70725499 318.4402969 297.71343801 C324.65018066 297.71698197 330.85984663 297.69978117 337.06967735 297.67475986 C339.6206685 297.66781665 342.17168872 297.66775486 344.72267914 297.67496014 C348.19624569 297.68378282 351.66886566 297.66826068 355.14235497 297.64647388 C356.15975854 297.65491642 357.17716211 297.66335896 358.2253961 297.67205733 C363.61693786 297.68647245 363.61693786 297.68647245 368.25868893 295.22720528 C370.31399219 292.16531381 370.78925398 290.49054742 370.79503822 286.84157562 C370.79887937 285.93499417 370.80272051 285.02841272 370.80667806 284.0943591 C370.80537833 282.59074369 370.80537833 282.59074369 370.80405235 281.0567522 C370.80702348 279.99684757 370.8099946 278.93694294 370.81305575 277.84491998 C370.82177344 274.26971497 370.82325359 270.69454332 370.82474327 267.1193285 C370.82936926 264.56560157 370.83439362 262.01187533 370.83978844 259.45814991 C370.85293528 252.5036087 370.85939822 245.54907853 370.8637991 238.59452701 C370.86655979 234.25362923 370.87079684 229.91273369 370.87530327 225.57183743 C370.88749756 213.55777565 370.89779642 201.54371566 370.90117836 189.52964783 C370.90139793 188.76039695 370.90161749 187.99114608 370.90184371 187.19858458 C370.90206199 186.42747159 370.90228027 185.65635861 370.90250516 184.86187857 C370.90294863 183.29925771 370.90339519 181.73663686 370.90384483 180.174016 C370.90406626 179.39889871 370.90428769 178.62378143 370.90451583 177.82517574 C370.90846422 165.26419301 370.92591877 152.70326828 370.94920436 140.14230796 C370.97290766 127.25216673 370.98537975 114.36205461 370.98654628 101.47189122 C370.98746364 94.2321223 370.99323117 86.99242892 371.01136589 79.75268078 C371.02835983 72.94425499 371.03002714 66.13599724 371.02122688 59.32754803 C371.02045375 56.82534114 371.02483533 54.32312669 371.03468513 51.82093906 C371.04732226 48.4113332 371.04157242 45.00224255 371.03110313 41.59264088 C371.03915954 40.59692277 371.04721594 39.60120466 371.05551648 38.57531327 C371.01999673 33.64660366 370.97896667 30.08452591 367.66361046 26.13422108 C364.925021 24.76492635 362.75149026 25.00492262 359.68428898 25 C358.4015008 24.99554216 357.11871263 24.99108431 355.79705209 24.98649138 C354.36004936 24.98658069 352.92304663 24.98677056 351.48604393 24.98705006 C349.96995379 24.98375249 348.45386452 24.98002715 346.93777639 24.97590858 C342.75616767 24.9658684 338.5745733 24.96216856 334.39295423 24.95951927 C329.8890963 24.95562222 325.3852498 24.94604353 320.88139915 24.9373064 C309.99743076 24.91752573 299.11346141 24.90747407 288.22947952 24.89857861 C283.10817575 24.89419862 277.98687302 24.88883109 272.86557007 24.88358974 C255.84860988 24.8665764 238.83165035 24.85208099 221.81468296 24.844841 C217.39673105 24.84293101 212.97877915 24.84101069 208.56082726 24.83905506 C207.46272357 24.83857132 206.36461989 24.83808758 205.23324034 24.83758918 C187.43436584 24.82928428 169.63555845 24.80394008 151.83671328 24.77147438 C133.57675407 24.73843821 115.31682902 24.72039539 97.05683976 24.71719676 C86.79892747 24.71502855 76.54111306 24.70623438 66.28322983 24.68073559 C57.5493232 24.65907561 48.81553822 24.65095494 40.08160778 24.66070237 C35.62326772 24.66526068 31.16517888 24.66327243 26.70687294 24.64394093 C22.62759813 24.62640522 18.54875961 24.62722822 14.46948079 24.64283822 C12.9916634 24.64522896 11.51381655 24.64081528 10.03604438 24.62900957 C8.03090147 24.61397959 6.02561028 24.62590477 4.02045536 24.63923645 C2.90554146 24.63825964 1.79062755 24.63728283 0.64192837 24.63627642 C-3.12064935 25.26534139 -4.76092596 26.33425849 -7.33638954 29.13422108 Z " fill="#2A89CA" transform="translate(32.33638954162598,3.865778923034668)"/>
<path d="M0 0 C0.99914079 -0.00384115 1.99828157 -0.00768229 3.02769935 -0.01163983 C4.67869249 -0.01034011 4.67869249 -0.01034011 6.36303902 -0.00901413 C7.52997044 -0.01198525 8.69690186 -0.01495637 9.89919484 -0.01801753 C13.1436223 -0.02520489 16.38801754 -0.0278774 19.63245177 -0.028615 C23.12946591 -0.0304646 26.62646854 -0.03801141 30.12347603 -0.04475021 C37.77214891 -0.0583373 45.42081655 -0.06435869 53.06949949 -0.06876087 C57.84375018 -0.07152236 62.61799884 -0.07575951 67.39224815 -0.08026505 C80.60646309 -0.09245763 93.82067641 -0.10275734 107.03489685 -0.10614014 C108.30370732 -0.10646949 108.30370732 -0.10646949 109.59815032 -0.10680549 C110.44606385 -0.10702377 111.29397738 -0.10724204 112.16758525 -0.10746694 C113.88582285 -0.1079104 115.60406045 -0.10835697 117.32229805 -0.10880661 C118.17460582 -0.10902804 119.02691359 -0.10924947 119.90504886 -0.10947761 C133.7204717 -0.11342699 147.53584184 -0.13088532 161.35124432 -0.15416613 C175.52963113 -0.17786614 189.70799148 -0.19034135 203.88639843 -0.19150805 C211.8493837 -0.19242552 219.81230028 -0.19819576 227.77526665 -0.21632767 C234.55481905 -0.23171037 241.33428154 -0.23685994 248.11384808 -0.22858956 C251.57371137 -0.22467668 255.0333935 -0.22564353 258.49323463 -0.23964691 C262.24214871 -0.25227614 265.99059367 -0.24653846 269.73950386 -0.23606491 C270.83570451 -0.24412132 271.93190515 -0.25217772 273.061324 -0.26047826 C282.25912878 -0.20012906 282.25912878 -0.20012906 286.17825508 3.13142776 C289.04493274 6.59121114 289.72129905 9.63682758 289.52591133 14.13924026 C288.92915708 17.55884327 287.44764708 19.56343156 285.17825508 22.13142776 C279.61293775 25.8885853 274.22812657 25.55513885 267.76005745 25.51910782 C266.60422454 25.52449336 265.44839164 25.52987889 264.25753349 25.53542763 C261.05784802 25.54724588 257.85849701 25.54564195 254.65880859 25.53826082 C251.20473562 25.53352806 247.75071836 25.54603992 244.29666328 25.55627823 C237.53327664 25.57346938 230.76998288 25.57430561 224.00658006 25.56906532 C218.50906157 25.56502304 213.01157052 25.56646787 207.51405334 25.57181358 C206.73146011 25.57256201 205.94886688 25.57331043 205.14255871 25.57408153 C203.55269702 25.57561301 201.96283534 25.57715136 200.37297367 25.5786965 C185.46551875 25.59242263 170.55811632 25.58698301 155.65066259 25.57551128 C142.01458324 25.56557835 128.37863956 25.57852039 114.74258114 25.60244548 C100.73809957 25.6268317 86.73368122 25.63644555 72.72917885 25.62979275 C64.86788579 25.62629952 57.00669708 25.62853943 49.14542007 25.64604378 C42.45343114 25.6607598 35.76162005 25.66140913 29.06963462 25.64397287 C25.65604015 25.63545549 22.24276346 25.63333086 18.82918549 25.64862442 C15.12696771 25.66177685 11.42561652 25.65033622 7.72343636 25.63263321 C6.6467806 25.64223822 5.57012484 25.65184322 4.46084315 25.66173929 C-1.8386763 25.59966806 -5.71639294 24.92282108 -10.82174492 21.13142776 C-13.20772659 17.55245525 -13.60753995 15.41552722 -13.82174492 11.13142776 C-12.49991146 7.16592739 -11.23754103 3.69327485 -7.82174492 1.13142776 C-4.90094193 0.15782677 -3.03994104 0.00438092 0 0 Z " fill="#1D9AD6" transform="translate(75.82174491882324,213.86857223510742)"/>
<path d="M0 0 C1.17680737 -0.00623996 2.35361475 -0.01247993 3.56608295 -0.01890898 C6.82898968 -0.03210427 10.09130132 -0.02735432 13.35419321 -0.0149641 C16.87437517 -0.00591774 20.39447639 -0.01988125 23.91464233 -0.03088379 C30.80920573 -0.0486781 37.70359503 -0.04482503 44.59816527 -0.03323323 C50.20108835 -0.02420274 55.80396261 -0.02297323 61.40689087 -0.02732849 C62.60266533 -0.02824789 62.60266533 -0.02824789 63.82259685 -0.02918586 C65.44201654 -0.03046475 67.06143621 -0.0317616 68.68085587 -0.03307623 C83.86915531 -0.04448469 99.05735822 -0.03136416 114.24564183 -0.00987476 C127.28026465 0.00799648 140.31474498 0.00489245 153.34936523 -0.0135498 C168.48299983 -0.03495183 183.61654979 -0.04338603 198.75019741 -0.03110075 C200.3636875 -0.02982654 201.97717761 -0.02856906 203.59066772 -0.02732849 C204.78149561 -0.02640284 204.78149561 -0.02640284 205.99638063 -0.02545848 C211.59311758 -0.02200357 217.18980089 -0.02783696 222.78652954 -0.0372467 C229.60633422 -0.04846066 236.42595472 -0.04543947 243.24573827 -0.02412373 C246.72590348 -0.01360502 250.20576153 -0.00950507 253.68592453 -0.02272034 C257.45677829 -0.03360639 261.22676076 -0.01999447 264.99755859 0 C266.65148605 -0.01338433 266.65148605 -0.01338433 268.33882618 -0.02703905 C275.75074042 0.04950227 275.75074042 0.04950227 279.63557434 2.43030548 C283.12465684 6.32092378 283.95296223 9.11816121 283.82299805 14.47668457 C283.28880334 17.82344661 281.63001704 19.95044928 279.4987793 22.50793457 C276.25879332 24.66792522 275.386309 24.75961985 271.64859295 24.76799679 C270.64310207 24.77506238 269.63761119 24.78212797 268.60165089 24.78940767 C267.49388903 24.78699259 266.38612716 24.7845775 265.24479675 24.78208923 C264.07040379 24.78732591 262.89601083 24.79256259 261.68603021 24.79795796 C258.42070076 24.81039237 255.15550433 24.81380075 251.89015567 24.81336105 C248.37061325 24.81500694 244.85111026 24.82806919 241.33158875 24.83955383 C233.63326253 24.86242078 225.93496384 24.87032626 218.23660827 24.87538028 C213.4308549 24.87863534 208.62510956 24.88515666 203.81936073 24.89238167 C190.51679205 24.91194983 177.21423084 24.92835276 163.91164684 24.9312582 C163.06008954 24.93144577 162.20853223 24.93163334 161.33117016 24.9318266 C159.6048106 24.93219285 157.87845103 24.93255655 156.15209147 24.93291771 C155.29510929 24.93310052 154.43812711 24.93328333 153.55517578 24.93347168 C152.26813575 24.9337425 152.26813575 24.9337425 150.95509491 24.9340188 C137.04977112 24.93756097 123.14460214 24.96458503 109.23933204 25.00196957 C94.96714316 25.04003389 80.69503113 25.05941554 66.42279035 25.05971771 C58.40774606 25.06030271 50.39288644 25.06882171 42.37788963 25.09771538 C35.55330247 25.12220428 28.7289673 25.12952918 21.9043481 25.11446785 C18.42196629 25.10728853 14.94008233 25.10819926 11.45775604 25.13087845 C7.68263642 25.1512085 3.90881445 25.14086179 0.13371277 25.12266541 C-0.96735693 25.13586537 -2.06842663 25.14906534 -3.20286208 25.16266531 C-11.4678869 25.07140596 -11.4678869 25.07140596 -15.1578474 22.09402561 C-18.26993569 18.659599 -19.37843805 16.12105421 -19.5012207 11.50793457 C-16.40974367 0.59683915 -10.07779543 -0.08155409 0 0 Z " fill="#1D9AD6" transform="translate(81.501220703125,152.4920654296875)"/>
<path d="M0 0 C0.97398533 -0.00679667 0.97398533 -0.00679667 1.96764714 -0.01373065 C4.13549203 -0.0263541 6.30308503 -0.02475566 8.47096252 -0.02310181 C10.02845074 -0.02908827 11.585936 -0.03589409 13.14341736 -0.04345703 C17.3686119 -0.06111025 21.59372542 -0.06581207 25.81895328 -0.0670886 C28.45949123 -0.06851091 31.10000862 -0.07278198 33.74054146 -0.07808304 C42.95456881 -0.09657963 52.16853832 -0.10475394 61.38258362 -0.10317993 C69.96855623 -0.10197797 78.55427768 -0.12309193 87.14018673 -0.15466726 C94.51527921 -0.18082232 101.89028961 -0.19154758 109.26542813 -0.19026911 C113.66875579 -0.18975934 118.07186011 -0.19545121 122.47514153 -0.21662521 C126.61618097 -0.23599523 130.7567837 -0.23614077 134.89783859 -0.22159195 C136.41597062 -0.21950134 137.9341299 -0.22421984 139.45221519 -0.23631287 C141.52822567 -0.25177697 143.60273228 -0.24245223 145.67871094 -0.22705078 C146.83920676 -0.22814032 147.99970259 -0.22922985 149.19536495 -0.2303524 C154.04740033 0.52264821 157.21520236 2.80266346 160.27784729 6.57992554 C162.22083132 11.2214985 161.92481524 14.83888168 160.21534729 19.51742554 C158.14926468 22.65217157 156.76256094 23.64692914 153.40284729 25.26742554 C150.28997135 25.64774227 150.28997135 25.64774227 146.72976685 25.65510559 C146.07227619 25.66049113 145.41478553 25.66587667 144.73737091 25.6714254 C142.54176774 25.68569384 140.34676844 25.67860442 138.15113831 25.67147827 C136.57394426 25.67718245 134.99675434 25.6841469 133.41957092 25.692276 C129.14061544 25.71021742 124.86186492 25.70903719 120.58288312 25.70333362 C117.00928074 25.70024315 113.43571781 25.70633264 109.86212105 25.71237236 C101.43092024 25.72641924 92.99982076 25.72485499 84.56861877 25.71347046 C75.87357156 25.70198904 67.17883279 25.71606487 58.48382622 25.74286693 C51.01530618 25.76502556 43.54688294 25.77166095 36.07833236 25.76579052 C31.61912808 25.76242012 27.16012151 25.76484145 22.7009449 25.78204155 C18.50735794 25.79751125 14.31422779 25.79355511 10.12065887 25.7747364 C8.58318354 25.77105055 7.04567436 25.77415894 5.50823021 25.78462219 C3.40593189 25.79783534 1.30514522 25.78628455 -0.79708862 25.76863098 C-1.97233314 25.7684217 -3.14757765 25.76821241 -4.35843563 25.76799679 C-8.33326185 25.15365361 -10.48579418 23.77824743 -13.59715271 21.26742554 C-15.82584401 17.45708235 -16.61082555 15.06045015 -16.53465271 10.64242554 C-15.48934595 6.87932119 -14.388813 4.98153971 -11.59715271 2.26742554 C-7.65338998 0.28518493 -4.38437837 0.01266687 0 0 Z " fill="#14A6DE" transform="translate(78.59715270996094,90.73257446289063)"/>
</svg>
