<svg xmlns="http://www.w3.org/2000/svg" width="20" height="20" viewBox="0 0 20 20"><path d="M5.95829 10.5625H6.79163V8.8125H7.74996C7.9819 8.8125 8.18225 8.73073 8.351 8.56718C8.51975 8.40364 8.60413 8.20764 8.60413 7.97916V7.04166C8.60413 6.80972 8.51975 6.60937 8.351 6.44062C8.18225 6.27187 7.9819 6.1875 7.74996 6.1875H5.95829V10.5625ZM6.79163 7.97916V7.04166H7.74996V7.97916H6.79163ZM9.49996 10.5625H11.2609C11.4897 10.5625 11.6909 10.4826 11.8645 10.3229C12.0382 10.1632 12.125 9.96528 12.125 9.72916V7.04166C12.125 6.80972 12.0372 6.60937 11.8617 6.44062C11.6862 6.27187 11.4892 6.1875 11.2708 6.1875H9.49996V10.5625ZM10.3333 9.72916V7.04166H11.2708V9.72916H10.3333ZM13.0833 10.5625H13.9166V8.8125H14.875V7.97916H13.9166V7.04166H14.875V6.1875H13.0833V10.5625ZM4.52079 15.6458C4.11297 15.6458 3.75755 15.4921 3.45452 15.1846C3.15148 14.8772 2.99996 14.524 2.99996 14.125V2.375C2.99996 1.97604 3.15148 1.62283 3.45452 1.31537C3.75755 1.0079 4.11297 0.854164 4.52079 0.854164H16.2708C16.6698 0.854164 17.023 1.0079 17.3304 1.31537C17.6379 1.62283 17.7916 1.97604 17.7916 2.375V14.125C17.7916 14.524 17.6379 14.8772 17.3304 15.1846C17.023 15.4921 16.6698 15.6458 16.2708 15.6458H4.52079ZM4.52079 14.125H16.2708V2.375H4.52079V14.125ZM1.74996 18.4167C1.34214 18.4167 0.986716 18.2629 0.683688 17.9555C0.380647 17.648 0.229126 17.2948 0.229126 16.8958V3.625H1.74996V16.8958H15.0208V18.4167H1.74996Z" fill="#666666"></path></svg>