<?xml version="1.0" encoding="UTF-8"?>
<svg version="1.1" xmlns="http://www.w3.org/2000/svg" width="512" height="512">
<path d="M0 0 C1.80007207 -0.00461416 3.60014037 -0.01097052 5.40020084 -0.01890898 C10.32530088 -0.03555467 15.25008953 -0.02737759 20.17519045 -0.0149641 C25.49497838 -0.00589643 30.81471358 -0.01989186 36.13449097 -0.03088379 C46.5475035 -0.04865524 56.96040059 -0.04483512 67.37341762 -0.03323323 C75.83750654 -0.02419379 84.30156315 -0.02297712 92.76565552 -0.02732849 C93.97104668 -0.02794142 95.17643784 -0.02855436 96.418356 -0.02918586 C98.86720809 -0.03046478 101.31606018 -0.03176164 103.76491225 -0.03307623 C126.71913303 -0.044478 149.67328988 -0.03137461 172.62750018 -0.00987476 C192.31639606 0.00799584 212.00519761 0.00489162 231.6940918 -0.0135498 C254.56707913 -0.03496359 277.44001045 -0.0433794 300.3130064 -0.03110075 C302.75276883 -0.02982657 305.19253126 -0.02856909 307.6322937 -0.02732849 C308.83265308 -0.02671139 310.03301246 -0.02609429 311.26974636 -0.02545848 C319.72209111 -0.02200712 328.17440027 -0.02782935 336.6267395 -0.0372467 C346.92958281 -0.04847369 357.23230423 -0.04541183 367.5351336 -0.02412373 C372.79018247 -0.01362284 378.04502824 -0.00947524 383.30007553 -0.02272034 C388.11392102 -0.03466977 392.92737581 -0.02803954 397.74118602 -0.00681013 C399.47926094 -0.00235489 401.21736911 -0.00458601 402.95542252 -0.01431328 C418.25366108 -0.09334101 431.4199726 3.01270243 442.94897461 13.75793457 C452.92015548 24.4564251 456.81747844 37.08930881 456.70690918 51.44958496 C456.71314914 52.70895654 456.7193891 53.96832811 456.72581816 55.26586246 C456.74239494 58.73160561 456.73431901 62.19690374 456.72187328 65.66264772 C456.71277685 69.4118772 456.72681515 73.1610332 456.73779297 76.9102478 C456.75553405 84.24315209 456.75175797 91.57589216 456.74014241 98.90880275 C456.73109093 104.87098835 456.72989148 110.83312809 456.73423767 116.7953186 C456.7348506 117.64546352 456.73546354 118.49560845 456.73609504 119.37151533 C456.73737401 121.09883143 456.73867086 122.82614751 456.73998541 124.55346358 C456.75137828 140.73199899 456.73829782 156.91044359 456.71678394 173.0889641 C456.69891413 186.95620545 456.7020186 200.82331283 456.72045898 214.69055176 C456.74188857 230.81311846 456.75027976 246.93560567 456.73800993 263.05818462 C456.7367358 264.77897325 456.73547831 266.49976189 456.73423767 268.22055054 C456.73362057 269.0671038 456.73300347 269.91365707 456.73236766 270.78586346 C456.72892103 276.73752099 456.73472828 282.6891279 456.74415588 288.64077759 C456.75540048 295.89870269 456.75228428 303.15645487 456.73103291 310.41436028 C456.72055543 314.11403302 456.71634374 317.81341793 456.72962952 321.51308823 C456.74383963 325.53106832 456.72681744 329.54832829 456.70690918 333.56628418 C456.71583207 334.72515168 456.72475495 335.88401918 456.73394823 337.07800388 C456.61055693 349.94832571 451.76761756 361.79604943 442.94897461 371.25793457 C430.56402751 382.80092255 416.65351521 385.10684584 400.39794922 385.01586914 C398.59787715 385.0204833 396.79780885 385.02683966 394.99774837 385.03477812 C390.07264834 385.05142381 385.14785969 385.04324673 380.22275877 385.03083324 C374.90297084 385.02176557 369.58323564 385.035761 364.26345825 385.04675293 C353.85044572 385.06452438 343.43754863 385.06070426 333.0245316 385.04910237 C324.56044268 385.04006293 316.09638607 385.03884626 307.6322937 385.04319763 C306.42690254 385.04381056 305.22151138 385.0444235 303.97959322 385.045055 C301.53074113 385.04633392 299.08188904 385.04763078 296.63303697 385.04894537 C273.67881619 385.06034714 250.72465934 385.04724375 227.77044904 385.0257439 C208.08155316 385.00787331 188.39275161 385.01097753 168.70385742 385.02941895 C145.83087009 385.05083273 122.95793877 385.05924854 100.08494282 385.04696989 C97.64518039 385.04569572 95.20541796 385.04443823 92.76565552 385.04319763 C91.56529614 385.04258053 90.36493676 385.04196343 89.12820286 385.04132763 C80.67585811 385.03787626 72.22354895 385.04369849 63.77120972 385.05311584 C53.46836641 385.06434283 43.16564499 385.06128097 32.86281562 385.03999287 C27.60776675 385.02949198 22.35292098 385.02534438 17.09787369 385.03858948 C12.2840282 385.05053891 7.47057341 385.04390868 2.6567632 385.02267927 C0.91868827 385.01822403 -0.81941989 385.02045515 -2.5574733 385.03018242 C-17.85571186 385.10921015 -31.02202338 382.00316671 -42.55102539 371.25793457 C-52.52220626 360.55944404 -56.41952922 347.92656033 -56.30895996 333.56628418 C-56.31519992 332.3069126 -56.32143989 331.04754103 -56.32786894 329.75000668 C-56.34444572 326.28426353 -56.33636979 322.8189654 -56.32392406 319.35322142 C-56.31482763 315.60399194 -56.32886593 311.85483594 -56.33984375 308.10562134 C-56.35758483 300.77271705 -56.35380875 293.43997699 -56.34219319 286.10706639 C-56.33314171 280.14488079 -56.33194226 274.18274105 -56.33628845 268.22055054 C-56.33690138 267.37040562 -56.33751432 266.5202607 -56.33814582 265.64435381 C-56.33942479 263.91703771 -56.34072164 262.18972163 -56.34203619 260.46240556 C-56.35342906 244.28387015 -56.3403486 228.10542555 -56.31883472 211.92690504 C-56.30096491 198.05966369 -56.30406938 184.19255631 -56.32250977 170.32531738 C-56.34393935 154.20275068 -56.35233055 138.08026347 -56.34006071 121.95768452 C-56.33878658 120.23689589 -56.3375291 118.51610725 -56.33628845 116.7953186 C-56.33567135 115.94876534 -56.33505425 115.10221207 -56.33441845 114.23000568 C-56.33097181 108.27834815 -56.33677906 102.32674124 -56.34620667 96.37509155 C-56.35745127 89.11716645 -56.35433507 81.85941427 -56.33308369 74.60150886 C-56.32260621 70.90183612 -56.31839452 67.20245121 -56.3316803 63.50278091 C-56.34589041 59.48480082 -56.32886822 55.46754085 -56.30895996 51.44958496 C-56.31788285 50.29071746 -56.32680573 49.13184996 -56.33599901 47.93786526 C-56.21260771 35.06754343 -51.36966834 23.21981971 -42.55102539 13.75793457 C-30.16607829 2.21494659 -16.25556599 -0.0909767 0 0 Z " fill="#F34336" transform="translate(55.801025390625,63.4920654296875)"/>
<path d="M0 0 C5.46229292 3.64152861 10.66906559 7.16606774 15.75 11.25 C16.96178676 12.21280978 18.17403697 13.17503652 19.38671875 14.13671875 C19.98919434 14.61544434 20.59166992 15.09416992 21.21240234 15.58740234 C23.97615687 17.7713799 26.76729861 19.91900312 29.5625 22.0625 C30.09456055 22.47081055 30.62662109 22.87912109 31.17480469 23.29980469 C32.24674284 24.12212231 33.31884524 24.94422586 34.39111328 25.76611328 C37.09649812 27.84092587 39.79804166 29.92072853 42.5 32 C43.58331518 32.83335693 44.66664851 33.66669027 45.75 34.5 C143.25 109.5 143.25 109.5 144.87402344 110.74926758 C145.96058779 111.58507376 147.04717645 112.42084835 148.13378906 113.2565918 C150.79288548 115.30183636 153.4514994 117.34769991 156.109375 119.39453125 C162.33668139 124.18893754 168.57127057 128.97372959 174.8125 133.75 C175.50569336 134.28085205 176.19888672 134.8117041 176.91308594 135.35864258 C178.26294093 136.39102689 179.61688824 137.4180849 180.97509766 138.43945312 C182.38201872 139.52373567 183.76051948 140.6455021 185.11474609 141.79492188 C187.02524608 143.37201299 188.83684316 144.79263617 191 146 C195.68008631 145.46817201 199.19922744 141.63941514 202.75 138.6875 C204.08460721 137.59862788 205.42059809 136.51144996 206.7578125 135.42578125 C207.45165039 134.86197754 208.14548828 134.29817383 208.86035156 133.71728516 C212.40162843 130.87505085 216.01104857 128.12385772 219.625 125.375 C220.34042969 124.83020996 221.05585938 124.28541992 221.79296875 123.72412109 C223.19993547 122.65314163 224.60715557 121.58249493 226.01464844 120.51220703 C228.93390565 118.28866065 231.84278576 116.05175667 234.75 113.8125 C235.78640625 113.01457031 236.8228125 112.21664062 237.890625 111.39453125 C238.91671875 110.60433594 239.9428125 109.81414062 241 109 C243.16644651 107.33304708 245.33322497 105.66652587 247.5 104 C248.58333938 103.16667453 249.66667272 102.3333412 250.75 101.5 C283.25 76.5 315.75 51.5 348.25 26.5 C348.78633057 26.08741943 349.32266113 25.67483887 349.87524414 25.24975586 C350.95769106 24.41714192 352.0402105 23.58462225 353.12280273 22.75219727 C355.84530322 20.65862756 358.56649085 18.56339183 361.28515625 16.46484375 C366.75532072 12.24439897 372.23721879 8.03967751 377.75 3.875 C378.73484375 3.12992188 379.7196875 2.38484375 380.734375 1.6171875 C383 0 383 0 384 0 C384 98.67 384 197.34 384 299 C257.28 299 130.56 299 0 299 C0 200.33 0 101.66 0 0 Z " fill="#EBEEF0" transform="translate(64,149)"/>
<path d="M0 0 C126.06 0 252.12 0 382 0 C373.50738791 8.49261209 364.12283117 15.72409692 354.56811523 22.96630859 C348.88796073 27.28496813 343.33564673 31.74183851 337.81396484 36.26049805 C331.84532737 41.14184848 325.79454594 45.91158962 319.71777344 50.65722656 C316.80728392 52.93233918 313.90401293 55.21663043 311 57.5 C307.51348899 60.24054626 304.02621842 62.98009632 300.53515625 65.71484375 C294.4986907 70.44612756 288.48376068 75.20218208 282.5 80 C275.94437 85.25634643 269.34861504 90.4594206 262.73388672 95.64111328 C259.82033183 97.92453295 256.91031584 100.21245445 254 102.5 C250.51343843 105.24048208 247.02621854 107.98009622 243.53515625 110.71484375 C237.49868839 115.44612937 231.48391121 120.20236752 225.5 125 C218.92544787 130.26848487 212.33241549 135.51044881 205.67871094 140.67871094 C203.97834337 142.01704562 202.30492031 143.38439996 200.6328125 144.7578125 C199.56804005 145.60978974 198.50295054 146.46137092 197.4375 147.3125 C196.50808594 148.07175781 195.57867187 148.83101562 194.62109375 149.61328125 C192 151 192 151 189.62890625 150.60546875 C185.97699764 148.37525413 182.77002733 145.75166105 179.5 143 C178.06493419 141.81243271 176.62872221 140.62624919 175.19140625 139.44140625 C174.48129395 138.85504395 173.77118164 138.26868164 173.03955078 137.66455078 C170.21644151 135.36050972 167.33589159 133.14631143 164.4375 130.9375 C159.11573881 126.87719332 153.87721646 122.72447229 148.65820312 118.53320312 C142.71744477 113.76472185 136.73071287 109.0565415 130.73388672 104.35888672 C127.23553554 101.6171488 123.7420205 98.86925044 120.24755859 96.12255859 C117.34497577 93.84143761 114.44131727 91.56171737 111.53515625 89.28515625 C104.86231939 84.05509493 98.22245764 78.786497 91.60791016 73.48291016 C85.6810536 68.73497767 79.71206408 64.04193285 73.73388672 59.35888672 C70.23553554 56.6171488 66.7420205 53.86925044 63.24755859 51.12255859 C60.34497577 48.84143761 57.44131727 46.56171737 54.53515625 44.28515625 C47.86231939 39.05509493 41.22245764 33.786497 34.60791016 28.48291016 C30.40114994 25.11292586 26.17749329 21.76556437 21.9375 18.4375 C21.37329346 17.99414307 20.80908691 17.55078613 20.2277832 17.09399414 C17.17548987 14.69803309 14.11516237 12.31294829 11.046875 9.9375 C10.40113525 9.43549072 9.75539551 8.93348145 9.09008789 8.41625977 C7.84693788 7.45003885 6.6014256 6.48684755 5.35327148 5.52709961 C1.11252928 2.22505856 1.11252928 2.22505856 0 0 Z " fill="#ECEEF0" transform="translate(65,64)"/>
<path d="M0 0 C0 98.67 0 197.34 0 299 C-4.91694807 295.31228895 -9.8050491 291.62086503 -14.625 287.8125 C-15.84761802 286.84890982 -17.07027538 285.88536956 -18.29296875 284.921875 C-18.90833496 284.43654297 -19.52370117 283.95121094 -20.15771484 283.45117188 C-21.93242485 282.05322908 -23.70974863 280.6587 -25.48828125 279.265625 C-32.15407774 274.04304613 -38.78547018 268.78014043 -45.39208984 263.48291016 C-51.89203106 258.27588654 -58.44320018 253.13511087 -65 248 C-72.8300581 241.86770718 -80.63269448 235.70444342 -88.39208984 229.48291016 C-94.3189464 224.73497767 -100.28793592 220.04193285 -106.26611328 215.35888672 C-109.76446446 212.6171488 -113.2579795 209.86925044 -116.75244141 207.12255859 C-119.65502423 204.84143761 -122.55868273 202.56171737 -125.46484375 200.28515625 C-132.13768061 195.05509493 -138.77754236 189.786497 -145.39208984 184.48291016 C-151.31735316 179.73625399 -157.28497347 175.04484019 -163.26171875 170.36328125 C-165.02015122 168.98419601 -166.77606979 167.60197149 -168.53125 166.21875 C-176.31140604 160.08945018 -184.13636681 154.02181877 -192 148 C-187.85023803 143.61146204 -183.28883084 139.98156951 -178.5 136.3125 C-177.70118408 135.69600586 -176.90236816 135.07951172 -176.0793457 134.44433594 C-173.72209995 132.62623363 -171.36135885 130.81275514 -169 129 C-167.79533307 128.07192583 -166.59088075 127.14357296 -165.38671875 126.21484375 C-162.26110825 123.80559697 -159.13065522 121.40268838 -156 119 C-153.83289153 117.33390747 -151.66645047 115.66694801 -149.5 114 C-148.41667876 113.16665095 -147.33334544 112.33331759 -146.25 111.5 C-145.71375 111.0875 -145.1775 110.675 -144.625 110.25 C-108.33333333 82.33333333 -72.04166667 54.41666667 -35.75 26.5 C-35.21366943 26.08741943 -34.67733887 25.67483887 -34.12475586 25.24975586 C-33.04230894 24.41714192 -31.9597895 23.58462225 -30.87719727 22.75219727 C-28.15469678 20.65862756 -25.43350915 18.56339183 -22.71484375 16.46484375 C-17.24467928 12.24439897 -11.76278121 8.03967751 -6.25 3.875 C-5.26515625 3.12992188 -4.2803125 2.38484375 -3.265625 1.6171875 C-1 0 -1 0 0 0 Z " fill="#CFD7DB" transform="translate(448,149)"/>
</svg>
