<?xml version="1.0" encoding="UTF-8"?>
<svg version="1.1" xmlns="http://www.w3.org/2000/svg" width="512" height="512">
<path d="M0 0 C7.34368819 8.79460752 7.96171005 17.3928354 7.8215332 28.43017578 C7.82012042 29.99813288 7.8209192 31.56609328 7.82374573 33.13404846 C7.82517234 37.36295499 7.79590619 41.59114329 7.76087594 45.81988382 C7.72948552 50.24942223 7.72667175 54.67897958 7.7207489 59.10861206 C7.70524756 67.48431301 7.66426968 75.85968518 7.61400145 84.23524177 C7.5579921 93.77575345 7.53059242 103.31628134 7.50552428 112.85691667 C7.45335025 132.47120041 7.36548059 152.08518882 7.25390625 171.69921875 C8.21501784 171.66556119 9.17612944 171.63190363 10.16636562 171.59722614 C11.4272302 171.57104804 12.68809477 171.54486994 13.98716736 171.51789856 C15.23702895 171.484241 16.48689054 171.45058344 17.77462673 171.41590595 C23.36654379 171.87124783 25.69791861 174.65285696 29.25390625 178.69921875 C30.79872779 180.21543987 32.35119537 181.72389726 33.90991211 183.22583008 C35.59887681 184.90827854 37.28504065 186.59354226 38.96875 188.28125 C39.86509659 189.17663986 40.76144318 190.07202972 41.68495178 190.99455261 C43.56440227 192.87332651 45.44282812 194.75305866 47.31958008 196.63452148 C49.72594901 199.04663648 52.13684749 201.45416682 54.54906368 203.86043262 C56.85805058 206.16494898 59.16323769 208.47325835 61.46875 210.78125 C62.33531723 211.645793 63.20188446 212.510336 64.0947113 213.40107727 C65.28714195 214.59823616 65.28714195 214.59823616 66.50366211 215.81958008 C67.55667763 216.87378899 67.55667763 216.87378899 68.63096619 217.94929504 C71.37921412 220.91257405 71.37677751 222.8475463 71.36743164 226.79150391 C71.36735611 227.8524527 71.36728058 228.91340149 71.36720276 230.00650024 C71.35946083 231.72998184 71.35946083 231.72998184 71.3515625 233.48828125 C71.34944008 235.24862198 71.34944008 235.24862198 71.34727478 237.04452515 C71.34166314 240.8044486 71.32910863 244.5643132 71.31640625 248.32421875 C71.31139275 250.86848873 71.30682958 253.41275963 71.30273438 255.95703125 C71.29168993 262.20444728 71.27494043 268.45182881 71.25390625 274.69921875 C72.00749924 274.68725464 72.76109222 274.67529053 73.53752136 274.66296387 C75.02171318 274.64900574 75.02171318 274.64900574 76.53588867 274.63476562 C77.51635666 274.62280151 78.49682465 274.6108374 79.50700378 274.59851074 C85.87684524 274.83204435 91.62282459 278.27530887 96.23828125 282.52734375 C103.32205043 291.15411216 103.6952072 301.49284404 103.64208984 312.19189453 C103.64997528 314.16453781 103.64997528 314.16453781 103.65802002 316.17703247 C103.67159555 319.75546167 103.66643655 323.3336289 103.65688276 326.91206217 C103.64923829 330.67192143 103.65634468 334.43175964 103.66104126 338.19161987 C103.66648362 344.50099681 103.65934588 350.81026805 103.64501953 357.11962891 C103.62868171 364.39859349 103.63399576 371.67730609 103.65049875 378.95626462 C103.66414018 385.22577566 103.66602075 391.49521114 103.65818274 397.76473224 C103.6535226 401.50065862 103.65283568 405.23646677 103.66279221 408.97238541 C103.67311786 413.13685133 103.65878126 417.30088677 103.64208984 421.46533203 C103.64816254 422.69255981 103.65423523 423.9197876 103.66049194 425.1842041 C103.58983943 434.71262045 102.16119923 441.79192577 95.25390625 448.69921875 C88.42838905 452.82296873 82.07969768 452.84679585 74.33612061 452.83966064 C73.32956114 452.84263177 72.32300168 452.84560289 71.28594041 452.84866405 C67.90904302 452.85734401 64.5321811 452.8588587 61.15527344 452.86035156 C58.73567123 452.86498021 56.31606975 452.87000493 53.89646912 452.87539673 C47.31992519 452.88851774 40.74338864 452.8950019 34.16683483 452.89940739 C30.05822559 452.90217274 25.9496187 452.90641062 21.84101105 452.91091156 C10.4590609 452.92310166 -0.92288737 452.93340162 -12.3048439 452.93678665 C-13.39693438 452.937116 -13.39693438 452.937116 -14.51108728 452.937452 C-15.2408598 452.93767028 -15.97063232 452.93788856 -16.72251916 452.93811345 C-18.20124324 452.93855691 -19.67996732 452.93900348 -21.15869141 452.93945312 C-21.89218495 452.93967455 -22.6256785 452.93989598 -23.38139912 452.94012412 C-35.2637384 452.94407125 -47.14601632 452.96152379 -59.02833191 452.98481265 C-71.23606006 453.00854562 -83.44375745 453.02098938 -95.65150905 453.02215457 C-102.50235891 453.02307021 -109.35312881 453.02879463 -116.2039566 453.04697418 C-122.64881393 453.06401656 -129.09356009 453.06561325 -135.53843498 453.05683517 C-137.90189711 453.05606449 -140.26536738 453.06041164 -142.62880898 453.07029343 C-145.85951093 453.08300756 -149.08967511 453.0771386 -152.32037354 453.06671143 C-153.71753062 453.07879603 -153.71753062 453.07879603 -155.1429131 453.09112477 C-162.76965068 453.0337013 -170.24783163 451.72826591 -176.12109375 446.51171875 C-176.74757812 445.98191406 -177.3740625 445.45210938 -178.01953125 444.90625 C-182.52027616 439.15303535 -183.18440218 432.92253046 -183.08666992 425.89648438 C-183.087108 425.05650909 -183.08754608 424.21653381 -183.08799744 423.35110474 C-183.08592409 420.60231463 -183.06266249 417.85415098 -183.0390625 415.10546875 C-183.03346136 413.18876478 -183.02919371 411.27205649 -183.02619934 409.35534668 C-183.01479134 404.33129848 -182.98535922 399.30751396 -182.9520874 394.28356934 C-182.92129902 389.14871791 -182.90767532 384.01382354 -182.89257812 378.87890625 C-182.86048545 368.81889511 -182.80933836 358.75907893 -182.74609375 348.69921875 C-183.73609375 349.02921875 -184.72609375 349.35921875 -185.74609375 349.69921875 C-187.08216635 349.79175906 -188.42244687 349.82989962 -189.76171875 349.83203125 C-190.58357666 349.83420654 -191.40543457 349.83638184 -192.25219727 349.83862305 C-193.61042603 349.83149292 -193.61042603 349.83149292 -194.99609375 349.82421875 C-196.44616821 349.81805542 -196.44616821 349.81805542 -197.92553711 349.81176758 C-341.89827492 348.76186053 -341.89827492 348.76186053 -389.74609375 312.69921875 C-390.35582031 312.28285156 -390.96554687 311.86648438 -391.59375 311.4375 C-397.1496365 307.38781291 -401.39094235 300.42498058 -402.74609375 293.69921875 C-402.83700487 292.09400023 -402.87689387 290.48550134 -402.88031483 288.87771416 C-402.88477267 287.90404959 -402.88923051 286.93038502 -402.89382344 285.92721546 C-402.89363908 284.86011345 -402.89345472 283.79301143 -402.89326477 282.693573 C-402.89694146 281.55789985 -402.90061815 280.4222267 -402.90440625 279.25213921 C-402.91545262 275.43224843 -402.91928856 271.61238484 -402.9230957 267.79248047 C-402.92882756 265.05937975 -402.93599355 262.32628311 -402.94300842 259.59318542 C-402.96276039 251.38116666 -402.97283752 243.16914668 -402.98173621 234.95711011 C-402.98612126 231.08817762 -402.99148752 227.2192465 -402.99672508 223.35031509 C-403.01373623 210.48606844 -403.02822983 197.62182263 -403.03547382 184.75756645 C-403.03738366 181.42008335 -403.039304 178.08260026 -403.04125977 174.74511719 C-403.04174351 173.91562078 -403.04222725 173.08612437 -403.04272565 172.2314917 C-403.05102384 158.79778375 -403.07635769 145.3641649 -403.10884044 131.93049584 C-403.14193076 118.13286772 -403.15992437 104.33528485 -403.16311806 90.53761685 C-403.16528136 82.79299526 -403.17400342 75.04850361 -403.19957924 67.30392075 C-403.22131325 60.70750657 -403.22932345 54.1112539 -403.21961246 47.51480798 C-403.21507538 44.15139762 -403.21911171 40.78858977 -403.2363739 37.42518044 C-403.25407179 33.77209573 -403.24699571 30.1198518 -403.23384094 26.46676636 C-403.24481019 25.41304868 -403.25577943 24.359331 -403.26708108 23.27368248 C-403.18336072 13.62136792 -400.58955834 5.62427458 -393.74609375 -1.30078125 C-350.15689917 -36.73573861 -278.30292596 -39.26899342 -224.39428711 -40.8034668 C-222.31285228 -40.86315912 -220.23164099 -40.9283603 -218.15039062 -40.99414062 C-152.08783295 -43.00362778 -52.74639819 -45.427947 0 0 Z " fill="#020303" transform="translate(405.74609375,50.30078125)"/>
<path d="M0 0 C1.05421646 -0.0076664 1.05421646 -0.0076664 2.12973022 -0.01548767 C4.45465601 -0.02939449 6.77928559 -0.02842568 9.10424805 -0.02612305 C10.72226573 -0.03001031 12.34028239 -0.03434504 13.95829773 -0.03910828 C17.35195215 -0.0465735 20.74550256 -0.04627772 24.13916016 -0.04101562 C28.48029324 -0.03523042 32.82099837 -0.05212727 37.16206074 -0.0753603 C40.50530981 -0.09012252 43.84845652 -0.09096579 47.19173241 -0.08785057 C48.79165683 -0.08836286 50.39158712 -0.09358324 51.99147987 -0.10366249 C54.23418208 -0.11605372 56.47606014 -0.10921914 58.71875 -0.09765625 C60.63044731 -0.09860039 60.63044731 -0.09860039 62.58076477 -0.0995636 C68.71604418 0.56158017 72.52699029 3.36803247 76.76831055 7.66137695 C77.61973633 8.51795898 78.47116211 9.37454102 79.34838867 10.25708008 C80.22043945 11.14975586 81.09249023 12.04243164 81.9909668 12.9621582 C82.85915039 13.83549805 83.72733398 14.70883789 84.62182617 15.60864258 C89.06469579 20.10524304 93.36063452 24.67956617 97.48681641 29.46777344 C99.86681519 32.21272762 102.33597503 34.85560547 104.8659668 37.4621582 C105.32293945 37.95651367 105.77991211 38.45086914 106.25073242 38.96020508 C111.73812869 44.58089842 118.49932604 48.42584059 126.42962646 48.88697815 C128.38064496 48.90673011 130.33206061 48.89991126 132.28295898 48.87060547 C133.35742783 48.874664 134.43189667 48.87872253 135.53892517 48.88290405 C137.85399134 48.88839305 140.16910758 48.88249303 142.48412323 48.86624336 C146.14986507 48.84071963 149.81448839 48.84565514 153.48028564 48.85813904 C161.25480397 48.87882665 169.02897162 48.85921929 176.8034668 48.8371582 C185.82956263 48.8160416 194.8552977 48.81146883 203.8813858 48.83765984 C207.49000887 48.84101991 211.09794086 48.81980611 214.70648193 48.79725647 C216.91817373 48.79976744 219.12986467 48.80332719 221.34155273 48.80810547 C222.84252754 48.78877708 222.84252754 48.78877708 224.37382507 48.76905823 C230.06325767 48.8100656 233.70238019 49.22107075 238.0534668 53.2746582 C242.31582366 58.87138684 241.47439384 65.67740198 241.44165039 72.39257812 C241.44571912 73.72848438 241.45106269 75.06438726 241.45758057 76.40028381 C241.47122033 80.01580157 241.46597054 83.63106162 241.45644331 87.2465837 C241.44883406 91.03282969 241.45589539 94.81905402 241.46060181 98.6053009 C241.46605368 104.95956374 241.45888062 111.31372183 241.44458008 117.66796875 C241.42823351 125.01624903 241.43355878 132.36427985 241.45005929 139.71255416 C241.46366528 146.02436879 241.46559883 152.33610827 241.45774329 158.64793283 C241.45306457 162.41673488 241.45244774 166.18541957 241.46235275 169.9542141 C241.47261393 174.15126761 241.4583997 178.34788933 241.44165039 182.54492188 C241.44772308 183.79641022 241.45379578 185.04789856 241.46005249 186.33731079 C241.45159302 187.47708878 241.44313354 188.61686676 241.43441772 189.79118347 C241.43328665 190.78353595 241.43215557 191.77588842 241.43099022 192.79831219 C240.97940641 195.76045363 240.37470086 196.45026806 238.0534668 198.2746582 C236.08887869 198.65185636 236.08887869 198.65185636 233.80677128 198.65497494 C232.93589943 198.66341488 232.06502758 198.67185482 231.16776568 198.68055052 C230.21038655 198.67454047 229.25300743 198.66853042 228.26661682 198.66233826 C227.25007127 198.66772379 226.23352572 198.67310933 225.18617576 198.67865807 C221.76364417 198.69302006 218.34149486 198.68581355 214.91894531 198.67871094 C212.47181892 198.68441019 210.02469519 198.6913727 207.57757568 198.69950867 C201.61086168 198.7156334 195.64429912 198.71753073 189.67757816 198.71229576 C184.82879771 198.7082581 179.98004841 198.70969281 175.13126945 198.71504402 C174.44176587 198.71579244 173.75226228 198.71654087 173.04186464 198.71731197 C171.64123916 198.71884341 170.24061369 198.72038176 168.83998822 198.72192694 C155.69809298 198.73566246 142.55625722 198.73020696 129.41436332 198.71874172 C117.38622465 198.70880868 105.3582398 198.7217493 93.33012486 198.74567591 C80.98573907 198.77004704 68.64142498 198.77967967 56.29701561 198.77302319 C49.36412359 198.76952647 42.43134989 198.77179271 35.49847603 198.78927422 C28.98056361 198.80550519 22.46289784 198.80084554 15.94497681 198.78196907 C13.5487823 198.77826877 11.15256622 198.78143328 8.75639153 198.79185486 C5.49301685 198.8049676 2.23063163 198.79360304 -1.03269958 198.77586365 C-1.98784799 198.78546865 -2.94299639 198.79507366 -3.92708868 198.80496973 C-7.76053363 198.76189769 -10.21132898 198.71782457 -13.53398132 196.71499634 C-15.45434576 193.39735638 -15.50433708 190.45819719 -15.4611969 186.7280426 C-15.46814243 185.96452844 -15.47508796 185.20101428 -15.48224396 184.41436332 C-15.50055203 181.853908 -15.49023948 179.29437526 -15.47998047 176.73388672 C-15.48703705 174.89906113 -15.49578097 173.06424136 -15.50608826 171.22943115 C-15.52862163 166.24385901 -15.52563325 161.25860373 -15.51676679 156.273 C-15.51166252 152.11280909 -15.51894492 147.95267803 -15.52623886 143.79249328 C-15.54325052 133.97912218 -15.53965937 124.16590652 -15.52294922 114.35253906 C-15.50602603 104.22429191 -15.52186235 94.09647568 -15.5541721 83.96827561 C-15.5808519 75.27601191 -15.58814836 66.58388249 -15.57965702 57.89158195 C-15.57472317 52.69851904 -15.57696819 47.50571547 -15.59744453 42.31268501 C-15.61577633 37.42960293 -15.60987358 32.54714157 -15.58524513 27.66409302 C-15.58022929 25.87141671 -15.58374703 24.07869332 -15.59639359 22.28605461 C-15.61228919 19.83940549 -15.5974087 17.39480916 -15.57472229 14.94825745 C-15.58655802 14.2379428 -15.59839375 13.52762816 -15.61058813 12.79578882 C-15.53865208 8.98019341 -15.0525803 7.40337959 -12.59477139 4.42005825 C-8.03306206 0.72451022 -5.84240861 0.02116086 0 0 Z " fill="#E9BC8B" transform="translate(252.946533203125,289.725341796875)"/>
<path d="M0 0 C0.09281293 8.76240308 0.16382186 17.52463611 0.20724869 26.28742409 C0.2280949 30.35666939 0.25635753 34.42557759 0.30175781 38.49462891 C0.3453226 42.42390618 0.36915942 46.35285987 0.37950897 50.28236008 C0.38688138 51.77905748 0.4012782 53.27573782 0.42292023 54.77229691 C0.45209757 56.87413602 0.45595032 58.97465006 0.45410156 61.07666016 C0.46298401 62.27134918 0.47186646 63.46603821 0.48101807 64.69692993 C-0.4239608 70.91126742 -4.63605061 75.2385738 -9.30078125 79.14453125 C-36.71690402 97.9906359 -75.9047953 103.17661261 -108.125 106.6875 C-110.02092035 106.90092108 -111.91675423 107.11511177 -113.8125 107.33007812 C-118.87356651 107.9005732 -123.93546681 108.46111237 -129 109 C-129.81435516 109.08853241 -130.62871033 109.17706482 -131.46774292 109.26828003 C-151.92081428 111.42082772 -172.58238829 111.24403553 -193.125 111.25 C-193.8271035 111.25044186 -194.529207 111.25088371 -195.25258636 111.25133896 C-217.21651685 111.25855601 -238.99833014 110.82892829 -260.83227539 108.25323486 C-263.12091488 107.98587465 -265.41079646 107.73201539 -267.70117188 107.47998047 C-354.72846796 97.80650978 -354.72846796 97.80650978 -378 74 C-380.92909636 69.9655236 -381.3681137 67.13776215 -381.34057617 62.19018555 C-381.34101425 61.52621262 -381.34145233 60.86223969 -381.34190369 60.17814636 C-381.33982423 57.99736471 -381.31653461 55.81736504 -381.29296875 53.63671875 C-381.28736976 52.1192924 -381.28310109 50.6018606 -381.28010559 49.08442688 C-381.26868058 45.100951 -381.23923395 41.11780606 -381.20599365 37.13446045 C-381.17524197 33.06559729 -381.16158939 28.99668038 -381.14648438 24.92773438 C-381.11436167 16.95167147 -381.06319409 8.97587697 -381 1 C-376.1714628 2.87290897 -371.72835244 5.26763819 -367.23046875 7.81445312 C-356.67445521 13.60359318 -345.21701578 17.01715276 -333.625 20.0625 C-332.97492981 20.23430786 -332.32485962 20.40611572 -331.65509033 20.58312988 C-320.50537872 23.51613865 -309.33952893 25.86231282 -297.93310547 27.56005859 C-294.84839072 28.02274013 -291.77045469 28.52061786 -288.69140625 29.01953125 C-281.47810453 30.15811027 -274.24837712 31.11418945 -267 32 C-265.76378906 32.15388184 -264.52757812 32.30776367 -263.25390625 32.46630859 C-240.00136798 35.19582609 -216.69239393 35.29067672 -193.31209183 35.31007385 C-190.8488308 35.31246474 -188.38558837 35.31778466 -185.92233276 35.32336426 C-167.1080967 35.3546695 -148.48517492 34.939665 -129.73338318 33.24243164 C-127.0359349 33.00318717 -124.33777336 32.79225655 -121.63720703 32.59155273 C-110.10326738 31.72909812 -98.72472001 29.9582769 -87.3125 28.125 C-86.53916321 28.00193481 -85.76582642 27.87886963 -84.96905518 27.7520752 C-76.38283579 26.37640148 -67.85541582 24.82864447 -59.36328125 22.953125 C-58.64360672 22.79441925 -57.92393219 22.6357135 -57.18244934 22.47219849 C-49.64885922 20.76388175 -42.30240795 18.51110471 -35 16 C-34.33226562 15.77054688 -33.66453125 15.54109375 -32.9765625 15.3046875 C-24.47812562 12.34163096 -7.5494606 0 0 0 Z " fill="#7FE8FD" transform="translate(399,91)"/>
<path d="M0 0 C1.22161835 -0.00517639 2.44323669 -0.01035278 3.70187378 -0.01568604 C21.86165573 -0.07638488 39.83871197 0.79601003 57.9375 2.25 C60.64927902 2.45834788 63.36112725 2.66576187 66.07301331 2.87271118 C80.48631217 4.06102516 94.71105659 6.72741349 108.9375 9.25 C109.97100586 9.42821289 111.00451172 9.60642578 112.06933594 9.79003906 C123.69355516 11.79610999 134.79954442 14.36222305 145.9375 18.25 C147.07832031 18.63478516 147.07832031 18.63478516 148.2421875 19.02734375 C179.31039806 29.53423049 179.31039806 29.53423049 185.9375 41.25 C186.8125 44.75 186.8125 44.75 185.9375 48.25 C174.77443622 66.37231557 144.91743841 72.43610628 125.9375 77.25 C119.54740756 78.69967699 113.11154711 79.79527964 106.64013672 80.81005859 C103.91832891 81.25312071 101.21275694 81.7534906 98.50390625 82.26953125 C81.14172224 85.50044132 63.63889901 86.88402845 46.04043579 88.10211182 C44.05592826 88.24167158 42.07223615 88.39269002 40.08862305 88.54443359 C25.95096313 89.52612986 11.7911296 89.49718652 -2.375 89.5 C-3.05613735 89.50029457 -3.7372747 89.50058914 -4.43905258 89.50089264 C-151.13546654 89.51110615 -151.13546654 89.51110615 -190.64453125 52.79296875 C-193.01217621 50.21660577 -194.02714802 48.4797879 -194.5625 45 C-193.86842819 39.79446139 -191.99935081 37.61408615 -188.0625 34.25 C-165.1174645 17.08448325 -134.66212627 11.91400415 -107.0625 7.4375 C-106.15515106 7.2902951 -105.24780212 7.14309021 -104.31295776 6.99142456 C-86.81568372 4.18278027 -69.32568241 2.07333368 -51.625 1.125 C-50.85568146 1.08330688 -50.08636292 1.04161377 -49.29373169 0.99865723 C-32.87005468 0.14453789 -16.44287 0.03157298 0 0 Z " fill="#56A3FE" transform="translate(212.0625,23.75)"/>
<path d="M0 0 C0.33 0 0.66 0 1 0 C1 14.19 1 28.38 1 43 C-2.86589844 43.00410889 -6.73179687 43.00821777 -10.71484375 43.01245117 C-23.4913547 43.02965267 -36.26765195 43.07390974 -49.04403687 43.13209057 C-56.78996919 43.16670396 -64.53572423 43.19209127 -72.28173828 43.19555664 C-79.03531848 43.19860165 -85.78858264 43.21916376 -92.54204082 43.26052457 C-96.11611735 43.28180815 -99.68974512 43.29447945 -103.2638855 43.28615379 C-107.25969715 43.27717479 -111.25431654 43.30731409 -115.25 43.34057617 C-116.42748306 43.33195053 -117.60496613 43.32332489 -118.81813049 43.31443787 C-125.83391761 43.41225929 -130.59630629 44.36785692 -136 49 C-141.39384201 54.67772843 -142.30135741 59.93719689 -142.4140625 67.58203125 C-142.43342865 68.39621017 -142.4527948 69.2103891 -142.4727478 70.04924011 C-142.53228752 72.63688852 -142.57882583 75.22458203 -142.625 77.8125 C-142.6632034 79.57228449 -142.7022565 81.33205074 -142.7421875 83.09179688 C-142.83796782 87.39438234 -142.92209285 91.6970553 -143 96 C-143.7331543 96.04825928 -144.46630859 96.09651855 -145.22167969 96.14624023 C-154.6995587 96.86861085 -161.50382288 98.83693352 -168 106.125 C-169.80793929 108.35884807 -171.4029626 110.6044439 -173 113 C-175.1131897 113.3742218 -175.1131897 113.3742218 -177.76806641 113.37231445 C-179.26641273 113.38149902 -179.26641273 113.38149902 -180.79502869 113.39086914 C-181.88618484 113.38176514 -182.977341 113.37266113 -184.1015625 113.36328125 C-185.79854027 113.36545654 -185.79854027 113.36545654 -187.52980042 113.36767578 C-191.22846891 113.36641335 -194.92644879 113.34117463 -198.625 113.3125 C-200.51141708 113.30360245 -200.51141708 113.30360245 -202.4359436 113.29452515 C-337.98334635 112.64141254 -337.98334635 112.64141254 -377.171875 75.91796875 C-380.47574354 72.4517306 -380.12182796 69.95462531 -380.11352539 65.25537109 C-380.11367142 64.56257553 -380.11381744 63.86977997 -380.1139679 63.1559906 C-380.11327018 60.86177459 -380.10548442 58.56763936 -380.09765625 56.2734375 C-380.09579157 54.68445887 -380.0943679 53.09547966 -380.09336853 51.50650024 C-380.08954731 47.32090675 -380.07972039 43.13534787 -380.06866455 38.94976807 C-380.05844194 34.68005847 -380.05386909 30.4103433 -380.04882812 26.140625 C-380.03809778 17.76040077 -380.02102608 9.38020469 -380 1 C-376.02868597 2.53503512 -372.55228644 4.41089623 -368.875 6.5625 C-340.68276634 21.95234328 -305.99527529 26.89954891 -274.5 30.875 C-273.73628082 30.97268677 -272.97256165 31.07037354 -272.18569946 31.17102051 C-245.43153755 34.52700377 -218.642286 35.38314165 -191.71354294 35.31805801 C-189.33328941 35.31240087 -186.95304306 35.30959141 -184.57278442 35.30697632 C-162.64706318 35.27196565 -140.89646301 34.96938605 -119.11114502 32.25646973 C-116.80985466 31.97690044 -114.50681313 31.7185336 -112.20263672 31.46386719 C-91.81485952 29.20529293 -71.83949037 26.3689426 -52 21 C-50.9579541 20.72397949 -49.9159082 20.44795898 -48.84228516 20.16357422 C-22.63283001 13.75655481 -22.63283001 13.75655481 0 0 Z " fill="#65CAFC" transform="translate(398,180)"/>
<path d="M0 0 C1.53605141 0.82587112 1.53605141 0.82587112 3.10313416 1.66842651 C4.46316313 2.39735777 5.82323735 3.12620463 7.18334961 3.85498047 C7.85632835 4.21710129 8.5293071 4.57922211 9.22267914 4.95231628 C14.2299027 7.63216348 19.27030522 10.05396676 24.5625 12.125 C25.39998779 12.4535498 26.23747559 12.78209961 27.1003418 13.12060547 C41.81342588 18.73091485 57.01728725 22.15078475 72.4375 25.1875 C73.63737549 25.42549316 74.83725098 25.66348633 76.07348633 25.90869141 C95.8241571 29.65584386 115.78354879 31.60864817 135.8125 33.125 C136.91855591 33.21060181 138.02461182 33.29620361 139.16418457 33.38439941 C161.12412247 35.06733113 182.97418154 35.6897772 205 36 C205 61.41 205 86.82 205 113 C175.72910328 113.24190824 147.06930945 113.24617982 118 110 C116.83301575 109.87271515 116.83301575 109.87271515 115.64245605 109.74285889 C26.45570713 99.99491879 26.45570713 99.99491879 3 76 C-0.00531029 71.89318529 -0.36745806 68.95963007 -0.34057617 63.91479492 C-0.34101425 63.22156128 -0.34145233 62.52832764 -0.34190369 61.81408691 C-0.3398233 59.53592189 -0.31652893 57.25850429 -0.29296875 54.98046875 C-0.2873701 53.39578147 -0.28310127 51.81108899 -0.28010559 50.22639465 C-0.26867794 46.06537416 -0.23922892 41.90467025 -0.20599365 37.74377441 C-0.17524775 33.49394004 -0.16159062 29.24405428 -0.14648438 24.99414062 C-0.11435699 16.66261551 -0.0631861 8.33134719 0 0 Z " fill="#7FE8FD" transform="translate(18,272)"/>
<path d="M0 0 C1.22555099 -0.00549866 2.45110199 -0.01099731 3.71379089 -0.0166626 C5.06882106 -0.00250702 6.42384727 0.0120322 7.77886963 0.0269165 C9.20801258 0.02804499 10.63715784 0.0274111 12.06629944 0.02514648 C15.94424123 0.02399843 19.82168851 0.04752208 23.69951534 0.07544231 C27.75273573 0.10044094 31.80596735 0.10279675 35.85925293 0.10754395 C43.53386921 0.11997828 51.20825769 0.15280598 58.88277364 0.1929419 C67.62027377 0.23764546 76.35778476 0.25964307 85.09537077 0.27972364 C103.06845009 0.32153829 121.04131733 0.39189915 139.01422119 0.48101807 C139.02356689 1.70731934 139.0329126 2.93362061 139.0425415 4.19708252 C139.08238583 8.74286349 139.14812875 13.28796369 139.22174072 17.83331299 C139.24998268 19.80132305 139.27118113 21.76944722 139.28521729 23.73760986 C139.3066024 26.56543536 139.3532286 29.39188422 139.40484619 32.21929932 C139.40668915 33.54131096 139.40668915 33.54131096 139.40856934 34.89002991 C139.41897248 39.63123951 139.41897248 39.63123951 141.8001709 43.53285217 C144.06258112 44.50172818 145.59898048 44.8736278 148.04840088 44.91339111 C148.83972412 44.9333313 149.63104736 44.95327148 150.4463501 44.97381592 C151.26796631 44.98005981 152.08958252 44.98630371 152.93609619 44.99273682 C153.69873779 45.00937378 154.46137939 45.02601074 155.24713135 45.04315186 C158.08588306 45.10082369 160.92510372 45.13317208 163.76422119 45.16851807 C173.29297119 45.32320557 173.29297119 45.32320557 183.01422119 45.48101807 C183.01422119 59.67101807 183.01422119 73.86101807 183.01422119 88.48101807 C161.87242214 88.76177973 161.87242214 88.76177973 152.83453369 88.82281494 C146.67622464 88.86460122 140.51864669 88.91393954 134.36090088 89.00909424 C129.39414991 89.0853611 124.42818323 89.12705181 119.46089172 89.14515877 C117.56943927 89.15805591 115.67802797 89.18324214 113.78691101 89.22112846 C97.10224982 89.54197933 97.10224982 89.54197933 92.06915283 85.20953369 C91.01104321 84.00039845 89.98636207 82.76029369 89.01422119 81.48101807 C88.20589844 80.71539551 87.39757568 79.94977295 86.5647583 79.16094971 C85.56327759 78.16116089 85.56327759 78.16116089 84.54156494 77.14117432 C83.78681885 76.38771729 83.03207275 75.63426025 82.25445557 74.85797119 C81.49455322 74.09420166 80.73465088 73.33043213 79.95172119 72.54351807 C79.18795166 71.78361572 78.42418213 71.02371338 77.63726807 70.24078369 C73.44997267 66.04632441 69.43646175 61.7623859 65.56671143 57.27374268 C58.85908908 49.52817405 52.41170713 42.57515556 42.01422119 40.48101807 C40.27397449 40.36887004 38.53028706 40.30532016 36.78668213 40.2756958 C35.74590515 40.25575058 34.70512817 40.23580536 33.6328125 40.21525574 C32.51602112 40.19854324 31.39922974 40.18183075 30.24859619 40.16461182 C29.10006165 40.14383072 27.9515271 40.12304962 26.76818848 40.10163879 C23.10026008 40.03626814 19.43226027 39.97731613 15.76422119 39.91851807 C13.27723465 39.87532099 10.79025532 39.83170632 8.30328369 39.78765869 C2.20700497 39.68059948 -3.88934476 39.57880981 -9.98577881 39.48101807 C-10.08476496 34.56978217 -10.15730128 29.65912869 -10.20550537 24.74713135 C-10.22560274 23.07678104 -10.25288564 21.40650094 -10.28753662 19.73638916 C-10.33614 17.33338086 -10.35876536 14.93130373 -10.37640381 12.52789307 C-10.39704895 11.78295593 -10.41769409 11.0380188 -10.43896484 10.27050781 C-10.44038275 6.98331764 -10.33718085 4.94815848 -8.33150864 2.28189468 C-5.34803486 -0.00859423 -3.73659484 -0.01292939 0 0 Z " fill="#F4F4F4" transform="translate(278.98577880859375,236.51898193359375)"/>
<path d="M0 0 C1.8871875 0.061875 1.8871875 0.061875 3.8125 0.125 C3.52940863 0.60972928 3.24631726 1.09445856 2.95464736 1.5938766 C0.28181032 6.47796704 -0.76321681 10.52620132 -0.67524719 16.12139893 C-0.67937046 16.8849528 -0.68349372 17.64850667 -0.68774194 18.43519855 C-0.69661106 20.97182239 -0.67707859 23.50739425 -0.6574707 26.04394531 C-0.65797991 27.87112554 -0.66023825 29.69830598 -0.66410828 31.52548218 C-0.66951466 36.47154823 -0.6501523 41.41723787 -0.62600732 46.36323643 C-0.60467659 51.54233684 -0.60530475 56.72143637 -0.60331726 61.90057373 C-0.596876 70.5926357 -0.57564962 79.28455662 -0.54418945 87.9765625 C-0.50384963 99.13665295 -0.48649315 110.29665166 -0.47688007 121.45680618 C-0.46858208 131.05290386 -0.45134778 140.6489821 -0.43184257 150.24506283 C-0.42779325 152.30472983 -0.42405375 154.36439747 -0.4206202 156.42406559 C-0.41083571 162.29215617 -0.39634894 168.1601918 -0.3737812 174.02824783 C-0.36765817 175.80683266 -0.36320832 177.58542413 -0.36053848 179.36401749 C-0.35655763 181.78823343 -0.34644023 184.2123468 -0.33467102 186.63653564 C-0.33494756 187.69644773 -0.33494756 187.69644773 -0.33522969 188.77777219 C-0.31290461 192.03772068 -0.18658199 195.00650169 0.8125 198.125 C-0.60243551 198.23384119 -2.01982943 198.31097617 -3.4375 198.375 C-4.22640625 198.42140625 -5.0153125 198.4678125 -5.828125 198.515625 C-9.16589543 197.963014 -10.13252841 196.7933362 -12.1875 194.125 C-12.58272307 191.47121535 -12.73283707 189.23058563 -12.7021637 186.5783844 C-12.70910922 185.81487024 -12.71605475 185.05135608 -12.72321075 184.26470512 C-12.74151883 181.7042498 -12.73120628 179.14471705 -12.72094727 176.58422852 C-12.72800385 174.74940292 -12.73674777 172.91458316 -12.74705505 171.07977295 C-12.76958843 166.09420081 -12.76660005 161.10894553 -12.75773358 156.1233418 C-12.75262931 151.96315089 -12.75991172 147.80301983 -12.76720566 143.64283508 C-12.78421732 133.82946398 -12.78062617 124.01624832 -12.76391602 114.20288086 C-12.74699283 104.07463371 -12.76282914 93.94681748 -12.7951389 83.8186174 C-12.82181869 75.12635371 -12.82911516 66.43422428 -12.82062382 57.74192375 C-12.81568996 52.54886084 -12.81793499 47.35605727 -12.83841133 42.16302681 C-12.85674313 37.27994473 -12.85084038 32.39748337 -12.82621193 27.51443481 C-12.82119609 25.72175851 -12.82471382 23.92903512 -12.83736038 22.13639641 C-12.85325599 19.68974729 -12.8383755 17.24515096 -12.81568909 14.79859924 C-12.82752482 14.0882846 -12.83936054 13.37796995 -12.85155493 12.64613062 C-12.77961888 8.83053521 -12.2935471 7.25372139 -9.83573818 4.27040005 C-4.386899 -0.14383275 -4.386899 -0.14383275 0 0 Z " fill="#D29F6B" transform="translate(250.1875,289.875)"/>
<path d="M0 0 C-1.11375 0.3403125 -2.2275 0.680625 -3.375 1.03125 C-19.47043323 6.08560319 -35.66698072 12.44993376 -47.6875 24.75 C-49.75518226 29.86997513 -49.91550902 34.5713176 -49 40 C-43.68091403 52.27960862 -27.57981603 58.23260086 -16 63 C-8.795384 65.74050786 -1.4136069 67.90608049 6 70 C6 70.33 6 70.66 6 71 C-20.70588322 70.38024322 -56.71231559 61.00908418 -76.58203125 42.54296875 C-78.94967621 39.96660577 -79.96464802 38.2297879 -80.5 34.75 C-79.80592819 29.54446139 -77.93685081 27.36408615 -74 24 C-58.22033038 12.19499829 -19.41134892 -6.27873954 0 0 Z " fill="#2383C1" transform="translate(98,34)"/>
<path d="M0 0 C2.46073955 1.28724818 4.91858171 2.57955313 7.375 3.875 C8.07367188 4.23980469 8.77234375 4.60460937 9.4921875 4.98046875 C14.7734375 7.7734375 14.7734375 7.7734375 17 10 C17.15820026 12.41176149 17.19266218 14.70281855 17.13525391 17.11181641 C17.12579239 17.84362625 17.11633087 18.5754361 17.10658264 19.329422 C17.07284421 21.75371973 17.02474639 24.17751235 16.9765625 26.6015625 C16.95040159 28.28020906 16.92513409 29.95886976 16.90072632 31.63754272 C16.83401423 36.0600369 16.75513489 40.48223441 16.67376709 44.90447998 C16.59290644 49.41537064 16.5234894 53.92643556 16.453125 58.4375 C16.31331781 67.29187559 16.1606632 76.14598002 16 85 C14.39329665 84.07433971 12.79133902 83.14043911 11.19140625 82.203125 C10.29881104 81.68395508 9.40621582 81.16478516 8.48657227 80.62988281 C4.64089059 78.10913948 2.06968084 75.13936168 0 71 C-0.09202122 68.75335569 -0.11749805 66.50389567 -0.11352539 64.25537109 C-0.11367142 63.56257553 -0.11381744 62.86977997 -0.1139679 62.1559906 C-0.11327018 59.86177459 -0.10548442 57.56763936 -0.09765625 55.2734375 C-0.09579157 53.68445887 -0.0943679 52.09547966 -0.09336853 50.50650024 C-0.08954731 46.32090675 -0.07972039 42.13534787 -0.06866455 37.94976807 C-0.05844194 33.68005847 -0.05386909 29.4103433 -0.04882812 25.140625 C-0.03809778 16.76040077 -0.02102608 8.38020469 0 0 Z " fill="#65CBFD" transform="translate(18,272)"/>
<path d="M0 0 C5.53636532 2.21454613 10.76524219 5.14467756 16 8 C16 33.08 16 58.16 16 84 C11.39006609 82.15602643 9.29240106 80.76664529 5.75 77.5 C4.87859375 76.7059375 4.0071875 75.911875 3.109375 75.09375 C0.50857548 72.51221566 0.03003114 71.73319261 -0.12025452 68.0640564 C-0.11803391 66.80719025 -0.11581329 65.5503241 -0.11352539 64.25537109 C-0.11367142 63.56257553 -0.11381744 62.86977997 -0.1139679 62.1559906 C-0.11327018 59.86177459 -0.10548442 57.56763936 -0.09765625 55.2734375 C-0.09579157 53.68445887 -0.0943679 52.09547966 -0.09336853 50.50650024 C-0.08954731 46.32090675 -0.07972039 42.13534787 -0.06866455 37.94976807 C-0.05844194 33.68005847 -0.05386909 29.4103433 -0.04882812 25.140625 C-0.03809778 16.76040077 -0.02102608 8.38020469 0 0 Z " fill="#4DA5FE" transform="translate(18,181)"/>
<path d="M0 0 C5.53636532 2.21454613 10.76524219 5.14467756 16 8 C16 32.42 16 56.84 16 82 C3.14285714 74.28571429 3.14285714 74.28571429 0 68 C-0.09182083 65.8452107 -0.11750462 63.68750282 -0.11352539 61.53076172 C-0.11367142 60.86722687 -0.11381744 60.20369202 -0.1139679 59.52005005 C-0.11327031 57.32322947 -0.10548514 55.1264933 -0.09765625 52.9296875 C-0.09579152 51.40796963 -0.09436788 49.88625116 -0.09336853 48.36453247 C-0.08954767 44.35648953 -0.07972104 40.34848274 -0.06866455 36.3404541 C-0.05844118 32.25171396 -0.05386892 28.16296799 -0.04882812 24.07421875 C-0.0380984 16.04946256 -0.02102713 8.02473578 0 0 Z " fill="#65CBFD" transform="translate(18,92)"/>
<path d="M0 0 C1.18432617 0.30067383 1.18432617 0.30067383 2.39257812 0.60742188 C7.03594274 1.86459436 10.47754311 3.15929938 13.9375 6.6875 C14.5625 9.6875 14.5625 9.6875 13.9375 12.6875 C12 15.125 12 15.125 8.9375 16.6875 C2.89157391 16.78661354 -2.61980029 15.07863264 -8.375 13.375 C-9.06891846 13.17463135 -9.76283691 12.9742627 -10.4777832 12.76782227 C-14.61307049 11.46973876 -17.39670368 10.15035603 -20.0625 6.6875 C-20.625 3.6875 -20.625 3.6875 -20.0625 0.6875 C-14.4617593 -5.73687904 -7.20001581 -1.94323642 0 0 Z " fill="#030606" transform="translate(65.0625,141.3125)"/>
<path d="M0 0 C3.36234593 0.81701864 6.64429671 1.81600914 9.9375 2.875 C10.78634766 3.13152344 11.63519531 3.38804687 12.50976562 3.65234375 C13.31994141 3.90886719 14.13011719 4.16539062 14.96484375 4.4296875 C15.6930835 4.65897949 16.42132324 4.88827148 17.17163086 5.12451172 C19 6 19 6 21 9 C20.86977358 12.64633962 20.71529798 15.08441859 18.4375 18 C12.69934094 20.35411654 5.01692377 17.39915582 -0.75 15.75 C-1.49121094 15.55792969 -2.23242188 15.36585938 -2.99609375 15.16796875 C-7.77253601 13.804496 -10.31045286 12.41557095 -13 8 C-13.64134264 4.71311895 -13.29548139 3.48818664 -11.5625 0.625 C-7.68325821 -1.83500699 -4.39268439 -0.79344631 0 0 Z " fill="#020505" transform="translate(58,318)"/>
<path d="M0 0 C5.11810554 0.15248242 9.91436984 1.68103459 14.796875 3.11328125 C15.74175781 3.37431641 16.68664062 3.63535156 17.66015625 3.90429688 C19.01947266 4.29584961 19.01947266 4.29584961 20.40625 4.6953125 C21.63553223 5.04879761 21.63553223 5.04879761 22.88964844 5.40942383 C25.25423722 6.38646249 26.47653671 7.29138034 28.046875 9.30078125 C28.56942502 12.80933139 28.42072521 14.63804679 26.671875 17.73828125 C19.83097632 21.81024475 9.72976014 17.40561119 2.46484375 15.62890625 C-1.41368135 14.12182221 -3.38244254 12.55338138 -5.953125 9.30078125 C-5.86662518 4.19729175 -5.66935883 0.5774347 0 0 Z " fill="#020405" transform="translate(50.953125,227.69921875)"/>
<path d="M0 0 C4.77935451 0.12474661 9.4693326 0.76866137 14.1875 1.5 C14.9204126 1.60078857 15.6533252 1.70157715 16.40844727 1.80541992 C21.47314863 2.66408889 24.1870952 4.09144387 27.4375 8.3125 C27.50733202 11.80410091 27.11320494 13.50165407 24.875 16.1875 C19.28049346 18.76957994 12.15293698 17.18131504 6.25 16.125 C5.56486328 16.02380859 4.87972656 15.92261719 4.17382812 15.81835938 C-0.82099964 14.92900121 -3.4793723 13.33136295 -6.5625 9.3125 C-6.46655414 3.65169422 -6.1001188 0.53509814 0 0 Z " fill="#030608" transform="translate(90.5625,237.6875)"/>
<path d="M0 0 C1.43859375 0.18175781 1.43859375 0.18175781 2.90625 0.3671875 C3.958125 0.49480469 5.01 0.62242187 6.09375 0.75390625 C7.186875 0.91503906 8.28 1.07617188 9.40625 1.2421875 C10.499375 1.39300781 11.5925 1.54382813 12.71875 1.69921875 C21.99976839 3.09819579 21.99976839 3.09819579 25.40625 5.2421875 C27.40625 8.2421875 27.40625 8.2421875 27.21875 11.2421875 C26.3660149 14.39074786 25.93184568 15.30985255 23.40625 17.2421875 C15.19840941 18.74794243 5.27410924 16.74942445 -2.59375 14.2421875 C-5.55324283 11.88226777 -6.46662542 11.00493496 -7.09375 7.2421875 C-6.37461965 2.92740543 -4.51937612 0.42198994 0 0 Z " fill="#040707" transform="translate(90.59375,326.7578125)"/>
<path d="M0 0 C1.34468545 0.21712665 2.6897725 0.43177434 4.03515625 0.64453125 C5.48209353 0.88609579 6.92870841 1.12959917 8.375 1.375 C9.07729736 1.48851807 9.77959473 1.60203613 10.50317383 1.71899414 C13.32621032 2.23174627 15.58997475 2.70829867 17.94921875 4.38671875 C19.81216995 7.2469375 19.40348391 9.71448815 19 13 C17.3125 15.2265625 17.3125 15.2265625 15 17 C7.15787001 17.85006295 -2.63005252 15.65113389 -10 13 C-12.88628358 10.6341148 -13.86798387 9.70408602 -14.5625 6 C-14 3 -14 3 -12.0625 0.5625 C-7.76091863 -1.63218437 -4.55528558 -0.87149968 0 0 Z " fill="#040708" transform="translate(98,149)"/>
<path d="M0 0 C1.59134766 0.061875 1.59134766 0.061875 3.21484375 0.125 C8.68857514 0.44977022 12.43049309 0.73029982 17 4 C18.43735246 6.87470493 18.38172649 8.81894588 18 12 C15.27079707 14.86085279 13.78903316 15.94893925 9.80078125 16.20703125 C8.64964844 16.07683594 7.49851563 15.94664062 6.3125 15.8125 C5.08402344 15.67972656 3.85554688 15.54695312 2.58984375 15.41015625 C0.81287109 15.20712891 0.81287109 15.20712891 -1 15 C-1.98871094 14.95746094 -2.97742188 14.91492188 -3.99609375 14.87109375 C-8.18989319 14.67791725 -10.3304723 14.52939399 -13.6875 11.875 C-15.4095001 8.10299979 -15.11873951 5.95287962 -14 2 C-9.49632671 -1.00244886 -5.28497336 -0.21166351 0 0 Z " fill="#040707" transform="translate(139,155)"/>
<path d="M0 0 C1.50240234 0.04640625 1.50240234 0.04640625 3.03515625 0.09375 C7.02315625 0.33435332 9.57107878 0.76838254 13.125 2.6875 C15 5 15 5 15.5625 8 C14.86714219 11.70857501 13.96074707 12.70749403 11 15 C2.96513181 16.22179697 -7.26425784 15.64086528 -15 13 C-17.37982145 10.51737849 -17.95183946 9.39331106 -18.375 5.9375 C-18 3 -18 3 -16.91796875 1.33203125 C-12.51009138 -1.72924407 -5.22679802 -0.21054574 0 0 Z " fill="#020505" transform="translate(142,334)"/>
<path d="M0 0 C1.13912842 0.0930542 1.13912842 0.0930542 2.30126953 0.18798828 C16.0126963 1.40619468 16.0126963 1.40619468 19.51171875 4.26171875 C20.8125 5.875 20.8125 5.875 21.25 8.8125 C20.8125 11.875 20.8125 11.875 19.375 14.25 C15.53966472 16.68216383 12.16664406 16.25489176 7.8125 15.875 C6.86479736 15.80901611 6.86479736 15.80901611 5.89794922 15.74169922 C3.76170046 15.58643552 1.6320441 15.39222633 -0.5 15.1875 C-1.19383789 15.1344873 -1.88767578 15.08147461 -2.60253906 15.02685547 C-6.2886924 14.61240938 -7.96871831 14.09133915 -10.63671875 11.453125 C-12.39865623 8.52395942 -12.87366719 7.22006507 -12.1875 3.875 C-8.84509389 -0.8765439 -5.32976692 -0.52938567 0 0 Z " fill="#020405" transform="translate(136.1875,244.125)"/>
<path d="M0 0 C-0.32145996 0.83354004 -0.64291992 1.66708008 -0.97412109 2.52587891 C-2.10147815 6.34365399 -2.3186339 9.60974575 -2.4140625 13.5859375 C-2.44967285 14.87032715 -2.4852832 16.1547168 -2.52197266 17.47802734 C-2.55597168 19.09402832 -2.5899707 20.7100293 -2.625 22.375 C-2.74875 27.53125 -2.8725 32.6875 -3 38 C9.54 38 22.08 38 35 38 C35 38.33 35 38.66 35 39 C19.49 39 3.98 39 -12 39 C-12.0825 33.3075 -12.165 27.615 -12.25 21.75 C-12.28641602 19.95916992 -12.32283203 18.16833984 -12.36035156 16.32324219 C-12.37203811 14.89779865 -12.38223003 13.47234173 -12.390625 12.046875 C-12.41108887 11.31162598 -12.43155273 10.57637695 -12.45263672 9.81884766 C-12.45504584 6.27985413 -12.28662472 4.3757508 -10.109375 1.52148438 C-6.6759595 -0.95502551 -4.13076872 -0.27538458 0 0 Z " fill="#E0E0E0" transform="translate(281,237)"/>
<path d="M0 0 C3.4919213 1.74596065 5.21602248 2.95968891 7.890625 5.625 C8.59960938 6.33140625 9.30859375 7.0378125 10.0390625 7.765625 C10.76867187 8.50296875 11.49828125 9.2403125 12.25 10 C12.99507813 10.73734375 13.74015625 11.4746875 14.5078125 12.234375 C15.21164062 12.94078125 15.91546875 13.6471875 16.640625 14.375 C17.28547852 15.02210938 17.93033203 15.66921875 18.59472656 16.3359375 C20 18 20 18 20 20 C13.4 20 6.8 20 0 20 C0 13.4 0 6.8 0 0 Z " fill="#B1B1B1" transform="translate(432,248)"/>
<path d="M0 0 C1.79323253 0.28187936 3.58457126 0.5758281 5.375 0.875 C6.37273437 1.03742188 7.37046875 1.19984375 8.3984375 1.3671875 C11 2 11 2 13 4 C9.04 3.67 5.08 3.34 1 3 C0.67 2.01 0.34 1.02 0 0 Z " fill="#247CB7" transform="translate(91,101)"/>
</svg>
