<?xml version="1.0" encoding="UTF-8"?>
<svg version="1.1" xmlns="http://www.w3.org/2000/svg" width="512" height="512">
<path d="M0 0 C2 2.1875 2 2.1875 3 5 C2.66479981 9.70145393 1.64383776 11.97914275 -1.68212891 15.27667236 C-2.47298889 16.07296051 -3.26384888 16.86924866 -4.07867432 17.68966675 C-4.95247742 18.54392242 -5.82628052 19.3981781 -6.7265625 20.27832031 C-7.64193787 21.19281952 -8.55731323 22.10731873 -9.50042725 23.04953003 C-12.0059198 25.55219031 -14.52643279 28.0392134 -17.04979706 30.52383518 C-19.68777716 33.12679224 -22.311175 35.74435963 -24.93603516 38.36053467 C-29.90809443 43.31190268 -34.89233433 48.25081034 -39.88144112 53.18499446 C-47.21017946 60.43407265 -54.5214231 67.70076218 -61.83151245 74.96863937 C-62.90899563 76.03986454 -63.98647976 77.11108876 -65.06396484 78.18231201 C-65.58982618 78.70517564 -66.11568752 79.22803926 -66.65748405 79.76674724 C-69.78873272 82.87928959 -72.92384752 85.98787231 -76.06239319 89.0930562 C-77.54228266 90.55763241 -79.02112566 92.02325622 -80.49957275 93.48928833 C-82.3048435 95.2790077 -84.11199799 97.06682963 -85.92132568 98.85244751 C-86.71218567 99.63745636 -87.50304565 100.42246521 -88.31787109 101.23126221 C-89.00883881 101.91481403 -89.69980652 102.59836586 -90.41171265 103.30263138 C-92.0813694 104.92559262 -92.0813694 104.92559262 -93 107 C-91.7934375 107.0928125 -91.7934375 107.0928125 -90.5625 107.1875 C-82.68158298 108.98490213 -74.12792858 114.08468365 -69.71484375 121.01953125 C-66.33146275 127.55588378 -64.59476385 134.16623384 -66.70721436 141.43269348 C-69.25444435 148.38946613 -72.28798529 154.97187242 -75.640625 161.57421875 C-76.16767029 162.62406448 -76.69471558 163.67391022 -77.23773193 164.75556946 C-78.90281587 168.06910379 -80.57624574 171.37833829 -82.25 174.6875 C-83.388578 176.94958944 -84.52660411 179.21195675 -85.6640625 181.47460938 C-88.43634038 186.98629931 -91.21546096 192.4944952 -94 198 C-92.99187256 197.98622314 -91.98374512 197.97244629 -90.94506836 197.95825195 C-89.59749612 197.9471053 -88.24992103 197.93629993 -86.90234375 197.92578125 C-85.58484131 197.91200439 -84.26733887 197.89822754 -82.90991211 197.8840332 C-73.18077206 198.17259652 -64.30478396 200.83730847 -57.25 207.703125 C-52.75518509 212.67335302 -50.73178842 216.9222172 -50.8046875 223.73828125 C-50.81435547 225.33833008 -50.81435547 225.33833008 -50.82421875 226.97070312 C-50.84935547 228.62489258 -50.84935547 228.62489258 -50.875 230.3125 C-50.88402344 231.43462891 -50.89304687 232.55675781 -50.90234375 233.71289062 C-50.92585514 236.47547909 -50.95871845 239.23762932 -51 242 C-50.33395752 242.1139209 -49.66791504 242.2278418 -48.98168945 242.34521484 C-41.35746137 243.74077977 -35.67550967 245.8112022 -30.43359375 251.78515625 C-24.34046521 260.64292818 -22.86100516 271.49309256 -24 282 C-26.35129513 292.16237727 -31.58108581 299.3890916 -39.58203125 305.87109375 C-43.23953764 307.5787179 -47.00709946 307.71796561 -51 308 C-50.97381592 308.79583496 -50.94763184 309.59166992 -50.9206543 310.41162109 C-50.81583003 314.06587471 -50.75140191 317.71981079 -50.6875 321.375 C-50.6246582 323.25251953 -50.6246582 323.25251953 -50.56054688 325.16796875 C-50.54443359 326.39902344 -50.52832031 327.63007813 -50.51171875 328.8984375 C-50.47244263 330.57945557 -50.47244263 330.57945557 -50.43237305 332.29443359 C-52.0361932 342.7644475 -58.73010174 349.44222355 -66.04296875 356.6015625 C-67.01847321 357.57280672 -67.99300989 358.54502383 -68.96662903 359.51815796 C-70.99224053 361.5376526 -73.02575284 363.54868205 -75.06616211 365.55322266 C-77.68441579 368.1258121 -80.28677885 370.71378979 -82.88413525 373.30745888 C-84.88815413 375.30706134 -86.89754986 377.30118127 -88.90892982 379.29337692 C-89.87127907 380.24684249 -90.83255673 381.20139086 -91.79274559 382.15703201 C-93.12778814 383.48307211 -94.47032585 384.80155346 -95.81323242 386.11962891 C-96.57536545 386.87112213 -97.33749847 387.62261536 -98.12272644 388.3968811 C-100 390 -100 390 -102 390 C-102 390.66 -102 391.32 -102 392 C-103.4772644 393.45335484 -103.4772644 393.45335484 -105.51513672 395.13929749 C-109.82952854 398.81106106 -113.80196033 402.71985764 -117.7578125 406.77124023 C-119.26799674 408.30772127 -120.77825392 409.84413062 -122.28857422 411.38047791 C-123.07649353 412.18387037 -123.86441284 412.98726284 -124.6762085 413.81500053 C-128.88229169 418.09803586 -133.10663182 422.36302151 -137.328125 426.63085938 C-142.68491213 432.04772751 -148.03586944 437.4699544 -153.36523438 442.91381836 C-157.68835028 447.32884912 -162.03068013 451.7241346 -166.38665771 456.10673714 C-168.03964765 457.77700822 -169.68544241 459.45443218 -171.3237915 461.1390667 C-173.61173686 463.48972636 -175.92339778 465.81433946 -178.2421875 468.13452148 C-179.24617584 469.1840097 -179.24617584 469.1840097 -180.27044678 470.25469971 C-183.52091847 473.45657469 -185.66951228 475.41014621 -190.35986328 475.49159241 C-194 475 -194 475 -196 474 C-197.72435292 470.55129415 -197.97973264 467.66181939 -197 464 C-194.18312903 459.98917312 -190.68302527 456.67159933 -187.17773438 453.26953125 C-186.12184205 452.21589686 -185.06771087 451.16049505 -184.01521301 450.10346985 C-181.15897255 447.24493694 -178.27876681 444.41171656 -175.39358711 441.58243561 C-172.38038048 438.61928873 -169.38986076 435.63342299 -166.39685059 432.64990234 C-160.72847986 427.00638212 -155.04002916 421.38356147 -149.34406233 415.76791 C-142.8592587 409.37257064 -136.39719613 402.95446039 -129.93693447 396.53434563 C-116.64975159 383.33075072 -103.33430807 370.15599292 -90 357 C-91.2058374 356.7208374 -91.2058374 356.7208374 -92.43603516 356.43603516 C-93.50128418 356.18128418 -94.5665332 355.9265332 -95.6640625 355.6640625 C-96.7154541 355.4160791 -97.7668457 355.1680957 -98.85009766 354.91259766 C-107.11740793 352.51737166 -112.48806001 348.35527834 -116.94140625 341.05078125 C-118.98360286 337.0944963 -119.11753854 333.97601801 -119.09765625 329.58203125 C-119.09282227 327.70161133 -119.09282227 327.70161133 -119.08789062 325.78320312 C-119.07532227 323.81770508 -119.07532227 323.81770508 -119.0625 321.8125 C-119.05748317 320.47721519 -119.05292059 319.14192859 -119.04882812 317.80664062 C-119.03702695 314.53771527 -119.02056297 311.26888009 -119 308 C-119.79211884 308.00888245 -120.58423767 308.01776489 -121.40036011 308.0269165 C-128.90244434 308.10740275 -136.40431623 308.16813587 -143.90672112 308.20724869 C-147.76287279 308.22803376 -151.61866469 308.25618242 -155.47460938 308.30175781 C-159.20290741 308.34554361 -162.93086161 308.36920521 -166.65939713 308.37950897 C-168.07464121 308.3868422 -169.48986864 308.40116079 -170.90496445 308.42292023 C-181.23846468 308.57534879 -189.95936125 307.91357881 -197.875 300.75 C-204.1946546 293.70000796 -206.34489722 286.48467359 -206 277 C-205.01693885 270.78079724 -203.0969469 265.48511412 -200.21875 259.9140625 C-199.84576782 259.17280121 -199.47278564 258.43153992 -199.08850098 257.66781616 C-197.90169658 255.31533203 -196.70102434 252.97025004 -195.5 250.625 C-194.72567306 249.09289712 -193.95222985 247.56034727 -193.1796875 246.02734375 C-189.21940892 238.19222882 -185.17010431 230.4071897 -181.0625 222.6484375 C-175.70268867 212.51757408 -170.5937844 202.2665422 -165.5 192 C-159.97466108 180.86365799 -154.39072463 169.77299367 -148.56326294 158.79127502 C-145.96436851 153.87820939 -143.45287627 148.93251944 -141.0234375 143.93359375 C-140.71694275 143.30562897 -140.410448 142.67766418 -140.09466553 142.03067017 C-138.87682812 139.53321392 -137.66055378 137.03528269 -136.46289062 134.52807617 C-135.55709865 132.63658361 -134.63531853 130.75355802 -133.7109375 128.87109375 C-133.18806152 127.78755615 -132.66518555 126.70401855 -132.12646484 125.58764648 C-126.85285284 116.02869302 -118.63187557 108.34065865 -110.96582031 100.70703125 C-109.87713606 99.6156301 -108.78887622 98.52380544 -107.70100403 97.43159485 C-104.77411755 94.49567167 -101.84103889 91.56601185 -98.9064455 88.63779449 C-95.82636247 85.56280923 -92.75120063 82.48290846 -89.67523193 79.40380859 C-84.51770684 74.24265809 -79.35600804 69.08571005 -74.19189453 63.93115234 C-68.22360973 57.97378402 -62.26261044 52.00919839 -56.30527616 46.04088116 C-51.17841327 40.90494599 -46.04766811 35.77291363 -40.91364932 30.64413166 C-37.85207243 27.58567033 -34.79185733 24.52587932 -31.73514557 21.46255493 C-28.86681336 18.58844957 -25.99364072 15.71927298 -23.11664391 12.85384178 C-22.06196204 11.80180516 -21.00897981 10.74806149 -19.95782661 9.69249916 C-18.52356775 8.25277924 -17.0825398 6.81981217 -15.64117432 5.38720703 C-14.83669987 4.58348663 -14.03222542 3.77976624 -13.20337296 2.95169067 C-8.74078883 -1.00115072 -5.8682262 -1.60042533 0 0 Z M-113 125 C-117.86352647 131.72675715 -121.46053554 139.51019032 -125.25 146.875 C-126.13703613 148.59106445 -126.13703613 148.59106445 -127.04199219 150.34179688 C-132.95132893 161.80334439 -138.70389746 173.34431583 -144.43066406 184.89794922 C-148.14643349 192.38138858 -151.93429584 199.81698749 -155.84765625 207.19921875 C-161.47215636 217.81521775 -166.83451866 228.55769793 -172.1875 239.3125 C-173.6133296 242.17168273 -175.03972955 245.03058015 -176.46633911 247.88937378 C-177.38247272 249.72701475 -178.29727767 251.56531879 -179.21066284 253.40432739 C-181.18093738 257.36962785 -183.16029354 261.32801095 -185.19775391 265.25927734 C-185.68916618 266.21509956 -185.68916618 266.21509956 -186.19050598 267.19023132 C-187.03808953 268.83459245 -187.8942433 270.47452866 -188.7512207 272.11401367 C-190.75824531 276.75233976 -191.39785007 279.78551031 -189.8125 284.625 C-187.48487822 288.95919228 -185.7120499 291.4293167 -181 293 C-178.58812805 293.11413173 -176.20320015 293.17479945 -173.79052734 293.18945312 C-173.06017776 293.19774643 -172.32982819 293.20603973 -171.5773468 293.21458435 C-169.99281341 293.23197077 -168.40825451 293.24714143 -166.82368088 293.26036072 C-164.31952955 293.28138778 -161.8155071 293.30840825 -159.31143188 293.33703613 C-153.0946696 293.40686798 -146.8778161 293.46636376 -140.66094971 293.52606201 C-135.40448086 293.57690927 -130.14808269 293.63169549 -124.89171219 293.69187927 C-122.41825685 293.7185364 -119.94479519 293.73929743 -117.47128296 293.7598877 C-115.96441326 293.77648246 -114.45754658 293.79335356 -112.95068359 293.81054688 C-112.25768661 293.81473129 -111.56468964 293.81891571 -110.85069275 293.82322693 C-106.11384908 293.88615092 -106.11384908 293.88615092 -105 295 C-104.90159772 297.75144985 -104.86286347 300.48237896 -104.859375 303.234375 C-104.84104169 304.94011746 -104.8214709 306.64584699 -104.80078125 308.3515625 C-104.77183755 311.04872308 -104.7500009 313.74505698 -104.74951172 316.44238281 C-104.74617228 319.04046485 -104.71158748 321.63662679 -104.671875 324.234375 C-104.6789447 325.03663513 -104.6860144 325.83889526 -104.69329834 326.66546631 C-104.6021455 330.87001668 -104.37452378 332.52612886 -101.68066406 335.93457031 C-94.78599738 341.24685448 -87.47490089 342.02321638 -79 341 C-74.23671009 339.57520361 -70.32485351 337.75895902 -67 334 C-65.39447063 330.78894126 -65.77897898 327.27706211 -65.71875 323.74609375 C-65.70034058 322.93004166 -65.68193115 322.11398956 -65.66296387 321.27320862 C-65.58413307 317.77350204 -65.51639864 314.2736005 -65.44775391 310.77368164 C-65.39615235 308.22271837 -65.33886212 305.67192717 -65.28125 303.12109375 C-65.26767456 302.32319931 -65.25409912 301.52530487 -65.2401123 300.70323181 C-65.11282674 295.11282674 -65.11282674 295.11282674 -64 294 C-62.29447142 293.9242922 -60.58853556 293.85343088 -58.88183594 293.81176758 C-51.6261668 293.80053299 -51.6261668 293.80053299 -45.25 290.8125 C-40.80953437 285.26191796 -38.81794178 280.10027049 -39 273 C-40.04993461 266.70039235 -41.75267307 261.96749109 -47 258 C-50.64389626 256.74923469 -54.42949126 256.68512557 -58.25 256.4375 C-59.51328125 256.35371094 -60.7765625 256.26992188 -62.078125 256.18359375 C-63.04234375 256.12300781 -64.0065625 256.06242188 -65 256 C-65.00410889 255.00145996 -65.00821777 254.00291992 -65.01245117 252.97412109 C-65.03431323 249.24997164 -65.08867401 245.52686818 -65.15258789 241.80322266 C-65.17570671 240.19525214 -65.19014924 238.58713152 -65.19555664 236.97900391 C-65.20489196 234.65953701 -65.24597459 232.34241086 -65.29296875 230.0234375 C-65.2890361 229.31069672 -65.28510345 228.59795593 -65.28105164 227.86361694 C-65.44523144 222.17797075 -67.09153847 219.84111819 -71 216 C-79.46343516 212.03042422 -87.78187433 212.45479315 -96.5703125 214.85546875 C-99.90842128 216.42792192 -101.66743055 218.12255337 -104 221 C-104.506552 223.97460988 -104.72236858 226.39284604 -104.70703125 229.36328125 C-104.72215256 230.15526413 -104.73727386 230.94724701 -104.75285339 231.76322937 C-104.7956638 234.27994403 -104.80456132 236.79545782 -104.8125 239.3125 C-104.83564969 241.02412032 -104.86101603 242.73571219 -104.88867188 244.44726562 C-104.95561397 248.63216072 -104.97663675 252.81373002 -105 257 C-115.89 256.67 -126.78 256.34 -138 256 C-136.87501716 248.12512013 -136.87501716 248.12512013 -134.79846191 244.0091095 C-134.33575394 243.07971054 -133.87304596 242.15031158 -133.39631653 241.19274902 C-132.88719223 240.1956189 -132.37806793 239.19848877 -131.85351562 238.17114258 C-131.05103645 236.56990791 -131.05103645 236.56990791 -130.23234558 234.93632507 C-128.77044915 232.02383199 -127.29983849 229.11594485 -125.82543755 226.20976853 C-124.28208067 223.1619042 -122.75078812 220.10799258 -121.21838379 217.05461121 C-118.316088 211.27583783 -115.40431027 205.50190293 -112.48848009 199.7299487 C-107.2640854 189.38759326 -102.05399356 179.03803658 -96.85023069 168.6852867 C-95.32353536 165.64880442 -93.79462878 162.6134719 -92.26094055 159.58051491 C-90.5528224 156.20222055 -88.84928874 152.82164883 -87.14648438 149.44067383 C-86.63736008 148.43747101 -86.12823578 147.43426819 -85.60368347 146.40066528 C-85.14097549 145.4797258 -84.67826752 144.55878632 -84.20153809 143.60993958 C-83.79816978 142.81154065 -83.39480148 142.01314173 -82.9792099 141.1905489 C-81.30183096 137.43815568 -80.82128512 135.68932883 -81.875 131.625 C-84.09094611 126.82033179 -88.48498891 124.43745164 -93 122 C-100.06659741 119.64446753 -107.07977101 120.35139809 -113 125 Z " fill="#CD84C9" transform="translate(370,24)"/>
<path d="M0 0 C12.59321578 2.66394949 23.65728385 22.05374699 30.42578125 32.26953125 C54.49590165 69.50102137 67.78034182 110.8888828 67.5625 155.3125 C67.56067719 156.09231232 67.55885437 156.87212463 67.55697632 157.67556763 C67.3148649 219.56697372 41.46195098 273.69965171 -1.88891602 317.07763672 C-38.14405662 352.66213599 -91.18699432 374.89245189 -141.85131836 375.93457031 C-143.75 375.6875 -143.75 375.6875 -146.8125 373.5625 C-149.09404561 370.17698071 -149.5152998 368.68406562 -148.75 364.6875 C-146.60639945 361.9337122 -145.28161347 360.82470368 -141.87524414 359.94555664 C-140.77301514 359.83074951 -139.67078613 359.71594238 -138.53515625 359.59765625 C-136.68567383 359.38544434 -136.68567383 359.38544434 -134.79882812 359.16894531 C-134.14857666 359.10114868 -133.4983252 359.03335205 -132.82836914 358.96350098 C-129.41237529 358.6017126 -126.00529268 358.1709448 -122.59765625 357.73828125 C-121.91917633 357.65254852 -121.24069641 357.5668158 -120.54165649 357.47848511 C-84.52045983 352.80641215 -49.18935074 336.38069825 -21.75 312.6875 C-20.98171875 312.02878906 -20.2134375 311.37007813 -19.421875 310.69140625 C-16.81809292 308.4025978 -14.27726199 306.06061693 -11.75 303.6875 C-11.22390137 303.19540039 -10.69780273 302.70330078 -10.15576172 302.19628906 C22.21325631 271.66865034 41.33407652 231.10241502 49.25 187.6875 C49.38277344 186.96739746 49.51554688 186.24729492 49.65234375 185.50537109 C58.23713499 136.27545167 44.84483246 81.09961686 16.234375 40.37109375 C15.57953125 39.48550781 14.9246875 38.59992188 14.25 37.6875 C13.08210938 36.09615234 13.08210938 36.09615234 11.890625 34.47265625 C6.99997931 27.91894223 1.7786744 21.79371625 -3.81640625 15.83203125 C-6.33487039 13.03882557 -6.70991147 12.12045616 -7.0625 8.3125 C-6.75 4.6875 -6.75 4.6875 -5.125 2.25 C-2.75 0.6875 -2.75 0.6875 0 0 Z " fill="#D78EAB" transform="translate(407.75,99.3125)"/>
<path d="M0 0 C2.32579101 3.48868651 2.41865457 4.89718519 2 9 C0.9375 11.3125 0.9375 11.3125 -1 13 C-6.17232825 14.09774757 -10.70660101 13.82163634 -15.875 13.0625 C-68.55877642 6.45421693 -122.31063031 22.34729402 -164.1015625 54.65625 C-207.5523391 89.79164887 -235.78139538 138.34009814 -242.25 194.1875 C-243.78343187 209.1167015 -243.8966457 224.64446311 -242.0234375 239.546875 C-241.99535046 242.48665149 -242.68827689 244.38560014 -244 247 C-246.53836472 248.99442942 -247.81663715 249.0112263 -251.0625 248.8125 C-254.06931151 247.98082873 -255.18936404 247.47771236 -257 245 C-269.87009191 206.38972427 -253.33430462 152.30782245 -236.23828125 117.28125 C-225.47060179 95.74946008 -211.46705618 77.47323994 -195 60 C-194.31035156 59.2678125 -193.62070313 58.535625 -192.91015625 57.78125 C-187.660339 52.37039541 -181.94005968 47.63339674 -176 43 C-175.4548877 42.57315918 -174.90977539 42.14631836 -174.34814453 41.70654297 C-135.25002637 11.33637734 -49.78566712 -25.70162599 0 0 Z " fill="#CD8BC3" transform="translate(294,39)"/>
<path d="M0 0 C3.04615784 0.64624023 3.04615784 0.64624023 5.48365784 2.20874023 C7.74775742 5.74073558 7.80489854 7.50765458 7.04615784 11.64624023 C5.75858784 13.44708347 5.75858784 13.44708347 4.05575562 15.31996155 C3.41848352 16.02096041 2.78121143 16.72195927 2.12462807 17.44420052 C-1.45175586 21.2332081 -5.10610917 24.93729945 -8.79490662 28.61669922 C-9.65103043 29.47457535 -10.50715424 30.33245148 -11.38922119 31.21632385 C-13.71344466 33.54416753 -16.03986855 35.86978183 -18.36749673 38.1942203 C-20.81039762 40.63457149 -23.25083755 43.07738184 -25.69168091 45.51979065 C-29.78256333 49.61248511 -33.87553394 53.70308232 -37.9697113 57.79248047 C-42.70403906 62.52134559 -47.43472426 67.25383178 -52.16357642 71.98817199 C-56.23236493 76.06149317 -60.30309208 80.13286922 -64.37545747 84.20261437 C-66.80437497 86.62997275 -69.23261133 89.05800216 -71.65909767 91.48779106 C-74.35646143 94.18857074 -77.05788567 96.88526565 -79.75975037 99.58154297 C-80.56442749 100.38824432 -81.36910461 101.19494568 -82.19816589 102.02609253 C-83.29778404 103.12148094 -83.29778404 103.12148094 -84.4196167 104.23899841 C-85.05762364 104.87662833 -85.69563059 105.51425825 -86.35297108 106.17121029 C-89.36754078 108.94881095 -92.00318086 108.93736171 -96.04368591 108.84936523 C-97.95384216 108.64624023 -97.95384216 108.64624023 -99.95384216 107.64624023 C-101.65153226 104.25086004 -101.84708728 101.26442655 -100.95384216 97.64624023 C-98.46416219 93.94515429 -95.33780513 90.94792429 -92.16062927 87.83374023 C-91.21466093 86.87856141 -90.27040776 85.92168136 -89.32774353 84.96324158 C-86.76929076 82.37265546 -84.18635212 79.80786788 -81.59724116 77.24796677 C-78.88826099 74.56300571 -76.19928704 71.85813082 -73.50720215 69.15625 C-68.98406529 64.62314153 -64.44469287 60.10679549 -59.89549255 55.59985352 C-54.63892092 50.39167376 -49.40973793 45.15716449 -44.19422525 39.90789223 C-39.17204438 34.85457798 -34.13030462 29.82121709 -29.07963753 24.79638672 C-26.93241537 22.65936966 -24.79241446 20.51548715 -22.65795708 18.36572266 C-20.14317014 15.83458932 -17.611747 13.32135956 -15.06653595 10.82083321 C-13.69293332 9.46323317 -12.33643468 8.08839546 -10.98052979 6.71311951 C-4.2192021 0.12523849 -4.2192021 0.12523849 0 0 Z " fill="#AFC7CF" transform="translate(123.95384216308594,254.353759765625)"/>
<path d="M0 0 C1.875 1.0625 1.875 1.0625 3 3 C3.77345798 9.66572709 3.77345798 9.66572709 1.99483109 12.73399162 C0.49830745 14.49202616 -1.08055959 16.08217006 -2.75146484 17.67553711 C-3.3627272 18.28957397 -3.97398956 18.90361084 -4.60377502 19.53625488 C-6.62095771 21.5529641 -8.66505855 23.53978674 -10.7109375 25.52734375 C-12.12029128 26.92430754 -13.52795345 28.32297983 -14.93399048 29.72328186 C-18.63435705 33.39881478 -22.35855075 37.0492725 -26.08782959 40.69543457 C-29.13447095 43.68199352 -32.16424404 46.68534451 -35.19319725 49.68982601 C-41.4414269 55.8874518 -47.70063713 62.07406939 -53.98974609 68.23022461 C-54.57165207 68.8031575 -55.15355804 69.37609039 -55.75309753 69.96638489 C-60.80550201 74.89613061 -60.80550201 74.89613061 -64.875 75.25 C-68 75 -68 75 -70.375 74 C-72.4348607 71.46478684 -72.75105679 69.37818498 -72.55804443 66.14186096 C-70.29629228 57.46090593 -58.46672516 49.30261311 -52.171875 43.00390625 C-50.93346085 41.76227362 -49.6951198 40.52056807 -48.45684814 39.27879333 C-45.87664419 36.6926364 -43.29441731 34.10851903 -40.7109375 31.52563477 C-37.39815301 28.21295259 -34.09234262 24.89340182 -30.78818893 21.57211399 C-28.24031883 19.01315005 -25.68794182 16.45871894 -23.13425446 13.90556145 C-21.91260437 12.6827307 -20.69257694 11.45827664 -19.47420502 10.23217964 C-17.77753597 8.52574813 -16.07469118 6.82572735 -14.37011719 5.12719727 C-13.86825897 4.61971954 -13.36640076 4.11224182 -12.84933472 3.58938599 C-8.52236042 -0.69857407 -5.93514917 -1.48378729 0 0 Z " fill="#CB6DE0" transform="translate(179,132)"/>
<path d="M0 0 C3.14662676 2.97359433 5.51904952 6.46638454 8 10 C14.20777901 18.52855091 20.71963099 26.39170934 28 34 C28.886875 34.93972656 29.77375 35.87945312 30.6875 36.84765625 C36.01916519 42.35756025 41.53660954 47.19951743 47.76123047 51.65283203 C50.70967384 53.80086695 52.85623661 55.4673637 54 59 C53.81416141 62.03536365 53.44051393 64.22262247 51.9375 66.875 C49.44205343 68.32396897 47.23803847 68.78097607 44.359375 68.66015625 C38.97067256 67.15239017 35.02080282 62.70449966 31 59 C29.98292365 58.08855569 28.96468225 57.17840987 27.9453125 56.26953125 C15.62895361 45.21317794 4.98081507 33.43253578 -4.9375 20.1875 C-5.4104248 19.56536621 -5.88334961 18.94323242 -6.37060547 18.30224609 C-9.04412189 14.67896612 -10.95112104 11.45773559 -12 7 C-10.3857131 0.5428524 -6.37429488 -1.25395965 0 0 Z " fill="#A6E5C9" transform="translate(81,364)"/>
<path d="M0 0 C2.3125 1.125 2.3125 1.125 4 3 C5.07333571 6.29156285 5.43146561 8.09167204 3.92797852 11.25683594 C1.3708313 14.89519305 -1.62880287 17.89501886 -4.78515625 21.015625 C-5.44204941 21.67205994 -6.09894257 22.32849487 -6.77574158 23.00482178 C-8.15940565 24.3854746 -9.54548952 25.76370611 -10.93383789 27.13964844 C-13.06391993 29.25140771 -15.18582488 31.37112637 -17.30664062 33.4921875 C-18.65317367 34.83380739 -20.00016311 36.17496941 -21.34765625 37.515625 C-21.98413589 38.15099182 -22.62061554 38.78635864 -23.27638245 39.440979 C-23.86717087 40.02538757 -24.45795929 40.60979614 -25.06665039 41.21191406 C-25.58610733 41.7275592 -26.10556427 42.24320435 -26.64076233 42.7744751 C-28.93029078 44.83877496 -30.22579473 45.0250883 -33.375 45.375 C-37 45 -37 45 -39.5 42.9375 C-41.52416396 38.97351225 -41.1677656 37.28962727 -40 33 C-37.95430325 30.14163695 -35.50379869 27.78039448 -32.97265625 25.3515625 C-31.91648354 24.3045668 -31.91648354 24.3045668 -30.838974 23.23641968 C-28.59385244 21.01817026 -26.32846347 18.82193349 -24.0625 16.625 C-22.54100174 15.12503161 -21.02080384 13.62374296 -19.50195312 12.12109375 C-16.72504383 9.38628358 -13.94665088 6.65321615 -11.14868164 3.93994141 C-10.58766251 3.39479889 -10.02664337 2.84965637 -9.44862366 2.28799438 C-6.43460096 -0.39182124 -3.93080613 -0.31446449 0 0 Z " fill="#DA75B9" transform="translate(408,259)"/>
<path d="M0 0 C1.9375 1.125 1.9375 1.125 3 3 C3.625 6.1875 3.625 6.1875 3 10 C-1.85554588 17.0324181 -8.81825099 23.10315684 -14.82470703 29.17480469 C-15.946952 30.31373123 -17.06378694 31.45801255 -18.17529297 32.60742188 C-19.80268221 34.28970984 -21.44604705 35.95481891 -23.09375 37.6171875 C-23.5825061 38.12861298 -24.07126221 38.64003845 -24.5748291 39.16696167 C-28.08898374 42.66013694 -31.13013645 44.14454167 -36 45 C-38.44253321 43.88493049 -40.11356555 42.88643445 -42 41 C-42.56518217 37.04399574 -42.92389295 34.44293119 -40.7288208 31.01467896 C-38.85557047 28.91363847 -36.89576371 26.97036197 -34.8515625 25.03515625 C-34.12383636 24.31637802 -33.39611023 23.59759979 -32.64633179 22.85704041 C-30.32401562 20.57276976 -27.97512661 18.31811169 -25.625 16.0625 C-24.05031532 14.51938024 -22.47737703 12.97447621 -20.90625 11.42773438 C-18.03316458 8.61309156 -15.1563291 5.80281635 -12.25634766 3.01586914 C-11.67454742 2.45597794 -11.09274719 1.89608673 -10.49331665 1.31922913 C-7.02484707 -1.74489401 -4.36286013 -0.91849687 0 0 Z " fill="#E28A97" transform="translate(419,194)"/>
<path d="M0 0 C2 1 2 1 3 3 C3.90077273 9.55697227 3.90077273 9.55697227 1.76315308 12.98141479 C-0.06021734 15.08549721 -1.97201638 17.02843002 -3.97265625 18.96484375 C-4.68852402 19.68362198 -5.40439178 20.40240021 -6.14195251 21.14295959 C-7.65654883 22.65424365 -9.18103586 24.15567166 -10.71459961 25.64770508 C-13.05499953 27.93018515 -15.35578932 30.24768618 -17.65429688 32.57226562 C-19.13320214 34.03869507 -20.61425364 35.50296385 -22.09765625 36.96484375 C-22.78336197 37.65642075 -23.46906769 38.34799774 -24.17555237 39.06053162 C-28.26955326 42.99720906 -31.04064064 45.06249003 -37 45 C-39.9375 43.5 -39.9375 43.5 -42 41 C-42.875 37.875 -42.875 37.875 -42 34 C-36.33368161 26.57496472 -29.22119641 20.06331202 -22.60424805 13.47387695 C-21.03638932 11.91148028 -19.4740797 10.34367194 -17.91210938 8.77539062 C-16.91177961 7.77572007 -15.91114056 6.7763589 -14.91015625 5.77734375 C-13.56642944 4.43530884 -13.56642944 4.43530884 -12.19555664 3.06616211 C-8.44592606 -0.46248502 -4.9871373 -0.53032953 0 0 Z " fill="#EEAC61" transform="translate(405,46)"/>
<path d="M0 0 C2.4375 1.5625 2.4375 1.5625 4 4 C4.60483399 7.49053166 4.72064637 9.90229818 2.72900391 12.93600464 C0.84954732 15.09536259 -1.11634443 17.11250603 -3.15625 19.12109375 C-3.89194214 19.86585464 -4.62763428 20.61061554 -5.38562012 21.37794495 C-6.94401828 22.94547516 -8.51136861 24.50414909 -10.08691406 26.05444336 C-12.49039719 28.42801669 -14.85125245 30.83883112 -17.2109375 33.25585938 C-18.73196375 34.77585422 -20.25532751 36.2935143 -21.78125 37.80859375 C-22.48366821 38.53034286 -23.18608643 39.25209198 -23.90979004 39.99571228 C-27.27342103 43.2505876 -29.56478246 45.43218485 -34.38867188 45.51196289 C-38 45 -38 45 -40 44 C-41.65923377 40.68153245 -41.76274997 37.55731605 -41 34 C-39.01517259 30.84600426 -36.47047889 28.37184078 -33.80859375 25.78125 C-33.07052994 25.03790405 -32.33246613 24.29455811 -31.57203674 23.52868652 C-30.01046414 21.96605431 -28.43889553 20.41335586 -26.8581543 18.87011719 C-24.44345521 16.50583088 -22.07137101 14.10411743 -19.70117188 11.6953125 C-18.1768661 10.17988696 -16.65024743 8.66678358 -15.12109375 7.15625 C-14.41351425 6.43763794 -13.70593475 5.71902588 -12.97691345 4.9786377 C-8.72776585 0.8874974 -6.19578258 -1.07359574 0 0 Z " fill="#A6E5C9" transform="translate(173,437)"/>
<path d="M0 0 C2 2.1875 2 2.1875 3 5 C2.49327969 12.22579498 -1.64671816 15.49424749 -6.5625 20.375 C-7.34947266 21.20644531 -8.13644531 22.03789062 -8.94726562 22.89453125 C-15.55834997 29.53286657 -15.55834997 29.53286657 -20.46875 29.609375 C-24 29 -24 29 -25.9375 27.875 C-27.50004001 25.11757646 -27.93754358 23.18527721 -28 20 C-25.17242685 15.06043118 -21.53432139 11.22943266 -17.5 7.25 C-16.93152344 6.67378906 -16.36304688 6.09757812 -15.77734375 5.50390625 C-15.22175781 4.95089844 -14.66617187 4.39789063 -14.09375 3.828125 C-13.59552734 3.3321582 -13.09730469 2.83619141 -12.58398438 2.32519531 C-8.3821663 -1.19013584 -5.31761489 -1.45025861 0 0 Z " fill="#CE62E4" transform="translate(382,360)"/>
<path d="M0 0 C2.45931605 1.50732274 2.86105399 2.63278554 3.875 5.3125 C4.07529398 9.61882054 2.27257854 12.60147914 -0.60595703 15.76489258 C-2.53229271 17.63997712 -4.50092583 19.45273713 -6.5 21.25 C-7.17675781 21.87390625 -7.85351562 22.4978125 -8.55078125 23.140625 C-16.08166809 30.03279757 -16.08166809 30.03279757 -20.5 29.875 C-24 29 -24 29 -26 27.375 C-27.43636337 23.963637 -27.29467806 21.39162415 -26 18 C-23.46508438 14.52380227 -20.50123152 11.57286486 -17.4375 8.5625 C-16.25704102 7.32209961 -16.25704102 7.32209961 -15.05273438 6.05664062 C-10.01639941 1.02860959 -7.18531054 -1.23994297 0 0 Z " fill="#DB75B8" transform="translate(225,86)"/>
<path d="M0 0 C3.68664217 0.81239151 4.98855092 1.48135819 7.03125 4.66796875 C7.68505801 7.63495714 7.87299083 8.83101486 7.03125 11.66796875 C4.36754494 15.36946099 1.1825353 18.44687991 -2.09375 21.60546875 C-2.9496875 22.48009766 -3.805625 23.35472656 -4.6875 24.25585938 C-11.08633719 30.5611751 -11.08633719 30.5611751 -15.08544922 31.04516602 C-17.96875 30.66796875 -17.96875 30.66796875 -20.84375 28.54296875 C-23.37972424 25.11194478 -23.47363854 23.83975331 -22.96875 19.66796875 C-20.45222447 15.9306142 -17.12042832 12.93845792 -13.90625 9.79296875 C-13.05869141 8.91382813 -12.21113281 8.0346875 -11.33789062 7.12890625 C-4.27510522 0.10429807 -4.27510522 0.10429807 0 0 Z " fill="#B3BCD1" transform="translate(133.96875,317.33203125)"/>
</svg>
