<?xml version="1.0" encoding="UTF-8"?>
<svg version="1.1" xmlns="http://www.w3.org/2000/svg" width="1555" height="1555">
<path d="M0 0 C2.58059596 -0.00259012 5.16119152 -0.00560506 7.74178654 -0.0090034 C14.04011973 -0.01650182 20.33844443 -0.01877224 26.63678163 -0.01933246 C34.19396416 -0.02025421 41.75113906 -0.02694517 49.30831826 -0.03367928 C67.55642366 -0.04965405 85.80452815 -0.05563159 104.05263929 -0.06042803 C112.69586774 -0.06277128 121.33909553 -0.06637457 129.98232346 -0.07012341 C159.61041709 -0.08294769 189.23851037 -0.09367069 218.86660671 -0.09712601 C220.72236272 -0.09734763 222.57811872 -0.09756942 224.43387473 -0.09779136 C226.29388354 -0.09801199 228.15389236 -0.09823248 230.01390117 -0.09845281 C233.74486824 -0.09889534 237.4758353 -0.09934246 241.20680237 -0.09979248 C242.13184809 -0.09990187 243.05689382 -0.10001126 244.00997124 -0.10012397 C274.01582125 -0.10375596 304.02164713 -0.11968714 334.0274879 -0.14298284 C365.80728278 -0.16761044 397.58706386 -0.18130007 429.36686856 -0.18249393 C432.85873576 -0.18266536 436.35060297 -0.18288078 439.84247017 -0.18312836 C441.13201314 -0.18321201 441.13201314 -0.18321201 442.44760748 -0.18329735 C456.24245047 -0.1844448 470.0372685 -0.19543988 483.83210308 -0.21001541 C497.70695474 -0.22442166 511.58177462 -0.22759403 525.45663171 -0.21957543 C533.68366037 -0.2151397 541.910586 -0.21889701 550.13760099 -0.23481394 C556.30177748 -0.24579909 562.46584944 -0.24085951 568.63002408 -0.23004207 C571.10755344 -0.22809514 573.58509333 -0.2311165 576.06260794 -0.23988643 C595.60767465 -0.30463889 614.93558316 0.94839888 633.96925354 5.70294189 C634.97770325 5.95052246 635.98615295 6.19810303 637.02516174 6.45318604 C681.86773166 17.96630935 681.86773166 17.96630935 696.35597229 33.66387939 C699.60575814 36.98169618 703.2448202 39.47987522 707.04347229 42.12872314 C710.80092849 44.88919382 714.15433406 48.01734133 717.56690979 51.18731689 C719.83962536 53.30315982 719.83962536 53.30315982 723.03175354 55.14044189 C726.3626508 57.56291263 727.98251224 60.18877385 730.14894104 63.64825439 C731.88110485 66.29208337 733.77907401 68.6961068 735.78175354 71.14044189 C738.29382674 74.21180686 740.55895499 77.27448264 742.65675354 80.64044189 C745.66370524 85.37639083 749.57663057 88.83956146 753.80519104 92.48809814 C756.12236947 95.59751347 755.91906478 97.24109852 755.69825745 101.00933838 C755.85410946 104.98721043 757.94219679 108.19001595 759.78175354 111.64044189 C775.09123868 142.19241224 779.10168672 174.07105436 779.03572083 207.79055786 C779.03802841 210.37066108 779.04120693 212.95076364 779.04517531 215.53086483 C779.05235717 221.11647386 779.0522053 226.70204413 779.04708099 232.28765488 C779.03948079 240.59495143 779.04340197 248.90221561 779.04949761 257.20951198 C779.06000653 272.05594204 779.05912471 286.90235484 779.05333978 301.74878652 C779.04829812 314.7527952 779.04700013 327.75679758 779.04938507 340.76080704 C779.04961423 342.05737379 779.04961423 342.05737379 779.04984801 343.38013382 C779.05047076 346.889591 779.05110757 350.39904819 779.05176754 353.90850536 C779.05788174 386.81472168 779.05234642 419.72092705 779.04157374 452.62714168 C779.03209817 481.79255102 779.03291948 510.95794287 779.04249573 540.12335205 C779.05323638 572.94425224 779.0574329 605.76514273 779.0512712 638.58604443 C779.05062986 642.09449394 779.05000417 645.60294346 779.04938507 649.11139297 C779.04922692 649.97516117 779.04906876 650.83892936 779.04890581 651.72887234 C779.04664227 664.70473751 779.04927033 677.68059562 779.05434418 690.65645981 C779.06009723 705.44239628 779.05856097 720.22831289 779.04778269 735.01424693 C779.04247263 742.5446028 779.04018988 750.07492634 779.04708099 757.60528183 C779.09767789 816.56440365 779.09767789 816.56440365 776.78175354 845.14044189 C776.70213269 846.12701711 776.62251184 847.11359233 776.54047823 848.13006377 C776.11704209 853.24838827 775.61832364 858.35082239 775.03175354 863.45294189 C774.90770142 864.56345917 774.90770142 864.56345917 774.78114319 865.69641113 C765.11005762 951.79249591 741.72079562 1035.87877175 642.02296448 1222.38604736 C640.82328221 1224.08174304 639.6338582 1225.78423515 638.44581604 1227.48809814 C621.20723665 1252.06316324 602.31261325 1275.58600577 582.00831604 1297.69512939 C580.07975434 1299.81316382 578.20455838 1301.96273907 576.34425354 1304.14044189 C572.9854529 1308.01782221 569.35015158 1311.60111255 565.70143127 1315.20147705 C562.50075547 1318.37488227 559.61386948 1321.64194573 556.78175354 1325.14044189 C555.13578844 1326.82755613 553.46938205 1328.49500409 551.78175354 1330.14044189 C550.45144104 1331.53262939 550.45144104 1331.53262939 549.09425354 1332.95294189 C546.78175354 1335.14044189 546.78175354 1335.14044189 544.78175354 1335.14044189 C544.45175354 1336.13044189 544.12175354 1337.12044189 543.78175354 1338.14044189 C542.46144104 1339.47247314 542.46144104 1339.47247314 540.65675354 1340.95294189 C536.45698473 1344.50427243 532.46483657 1348.23907667 528.46925354 1352.01544189 C523.24159471 1356.93467855 517.92318357 1361.59414189 512.31300354 1366.07403564 C509.78037201 1368.14156972 507.37444194 1370.3015753 504.96925354 1372.51544189 C483.25299792 1392.22659723 458.32884531 1409.16125087 433.78175354 1425.14044189 C432.98704651 1425.65832275 432.19233948 1426.17620361 431.37355042 1426.70977783 C418.04627366 1435.36391926 404.48743988 1443.5481277 390.70704651 1451.45880127 C387.85321722 1453.09936012 385.00632185 1454.75139119 382.16065979 1456.40606689 C372.66628261 1461.90851914 363.12845131 1467.18380977 353.24220276 1471.94708252 C350.32088987 1473.36396855 347.41331859 1474.8076391 344.50440979 1476.24981689 C275.21871759 1510.40384943 201.13067386 1534.16744576 87.59425354 1551.39044189 C86.29818176 1551.54150391 85.00210999 1551.69256592 83.66676331 1551.84820557 C79.37486854 1552.32117029 75.08115751 1552.7427408 70.78175354 1553.14044189 C69.40906815 1553.27124649 69.40906815 1553.27124649 68.00865173 1553.4046936 C48.47607044 1555.21757458 29.02820401 1555.50345679 9.43041611 1555.45849991 C6.93222235 1555.45285827 4.43403538 1555.45003861 1.93583679 1555.44741821 C-21.09444229 1555.41229839 -43.9726737 1555.12085131 -66.87004089 1552.4163208 C-69.51600251 1552.10546003 -72.163146 1551.80611545 -74.81053162 1551.50762939 C-86.95675987 1550.13283289 -99.09112559 1548.67431058 -111.21824646 1547.14044189 C-111.21824646 1545.49044189 -111.21824646 1543.84044189 -111.21824646 1542.14044189 C-111.761828 1542.80165039 -112.30540955 1543.46285889 -112.86546326 1544.144104 C-115.21824646 1546.14044189 -115.21824646 1546.14044189 -117.83079529 1546.41998291 C-118.83134949 1546.30839844 -119.83190369 1546.19681396 -120.86277771 1546.08184814 C-122.01987244 1545.95310303 -123.17696716 1545.82435791 -124.36912537 1545.69171143 C-131.58260564 1544.65859976 -138.74479572 1543.42583335 -145.90574646 1542.07794189 C-146.72983002 1541.92427155 -147.55391357 1541.7706012 -148.40296936 1541.61227417 C-233.47993734 1525.6843804 -314.07618679 1494.83767105 -471.21824646 1396.14044189 C-472.15628113 1395.41510254 -472.15628113 1395.41510254 -473.11326599 1394.67510986 C-480.61177883 1388.87543189 -487.93553459 1382.91043574 -495.14012146 1376.74981689 C-497.93490835 1374.36572098 -500.78875691 1372.06238674 -503.65574646 1369.76544189 C-508.6699967 1365.68953088 -513.39866933 1361.35191396 -518.09690857 1356.92022705 C-520.94581537 1354.23472388 -523.82283045 1351.61034795 -526.79930115 1349.06646729 C-531.876502 1344.63270064 -536.61911321 1339.88310154 -541.37840271 1335.11309814 C-542.33654506 1334.15563165 -543.29483562 1333.19831345 -544.25326538 1332.24113464 C-546.24915933 1330.24670443 -548.24326098 1328.25050449 -550.23606873 1326.25299072 C-552.76966509 1323.71369791 -555.30772629 1321.17892287 -557.84716129 1318.64547062 C-559.82315349 1316.67312005 -561.79672325 1314.69835927 -563.76960564 1312.72289848 C-565.15235245 1311.33917562 -566.53708576 1309.95743875 -567.921875 1308.57575989 C-572.89141176 1303.58789238 -577.64172265 1298.48967251 -582.21824646 1293.14044189 C-583.69359182 1291.51197173 -585.17218076 1289.88642673 -586.65574646 1288.26544189 C-590.33330133 1284.18964081 -593.80338977 1279.99657912 -597.20262146 1275.68731689 C-599.2624932 1273.08453323 -601.35977671 1270.51647706 -603.46824646 1267.95294189 C-605.0524191 1266.01612808 -606.63568816 1264.078575 -608.21824646 1262.14044189 C-608.66684021 1261.5929126 -609.11543396 1261.0453833 -609.57762146 1260.48126221 C-617.29788895 1251.03772072 -624.56418401 1241.32816568 -631.62449646 1231.38262939 C-633.15902062 1229.22376452 -634.70314141 1227.07209188 -636.24949646 1224.92169189 C-654.97408102 1198.78228252 -671.82135595 1171.24395003 -686.80857849 1142.80401611 C-688.09337231 1140.37639219 -689.39864084 1137.96156834 -690.71434021 1135.55059814 C-710.16078922 1099.68552892 -725.23587839 1061.7562959 -738.21824646 1023.14044189 C-738.61995056 1021.95015381 -739.02165466 1020.75986572 -739.43553162 1019.5335083 C-762.99162345 948.90537952 -776.19861712 871.05331959 -776.42137146 796.55059814 C-776.42839479 795.08920767 -776.4354816 793.6278175 -776.44262695 792.16642761 C-776.46205535 787.51192796 -776.46706245 782.857478 -776.46824646 778.20294189 C-776.46868832 777.40900024 -776.46913017 776.61505859 -776.46958542 775.79705811 C-776.47688139 750.79292307 -776.02893545 726.01122674 -773.21824646 701.14044189 C-773.08742676 699.95327576 -773.08742676 699.95327576 -772.95396423 698.74212646 C-764.37622937 620.99557135 -745.39655737 544.05938623 -703.21824646 447.14044189 C-702.76433533 446.14399658 -702.31042419 445.14755127 -701.84275818 444.12091064 C-686.68161076 411.02442263 -668.71910692 378.2219025 -648.21824646 348.14044189 C-647.46489624 346.99986497 -646.71370433 345.85786041 -645.96434021 344.71466064 C-628.27987932 317.78252772 -608.33163029 292.4523275 -587.21824646 268.14044189 C-586.56211365 267.38247314 -585.90598083 266.62450439 -585.22996521 265.84356689 C-581.29309856 261.31843281 -577.27271766 256.87157461 -573.23387146 252.43731689 C-571.2039812 250.20129214 -571.2039812 250.20129214 -569.57762146 247.84356689 C-569.12902771 247.28153564 -568.68043396 246.71950439 -568.21824646 246.14044189 C-567.55824646 246.14044189 -566.89824646 246.14044189 -566.21824646 246.14044189 C-565.95279022 245.54999588 -565.68733398 244.95954987 -565.41383362 244.35121155 C-564.18351421 242.07621822 -562.91416571 240.58877699 -561.08885193 238.76812744 C-560.45413971 238.13033859 -559.81942749 237.49254974 -559.16548157 236.83543396 C-558.135858 235.81658867 -558.135858 235.81658867 -557.08543396 234.77716064 C-556.37476776 234.06695267 -555.66410156 233.35674469 -554.93190002 232.62501526 C-553.4261974 231.12233232 -551.91806648 229.62207921 -550.40769958 228.12408447 C-548.11748343 225.85198712 -545.83523335 223.57212867 -543.55418396 221.29083252 C-542.08590218 219.82747194 -540.61716623 218.36456691 -539.14793396 216.90216064 C-538.47366364 216.22900314 -537.79939331 215.55584564 -537.10469055 214.86228943 C-533.19221148 210.98799897 -529.17986165 207.28232115 -525.00570679 203.69102478 C-522.23695748 201.28919509 -519.57887495 198.77242231 -516.90574646 196.26544189 C-511.20363998 190.96692232 -505.29409465 186.00744123 -499.21824646 181.14044189 C-497.95547033 180.11048694 -496.69382519 179.07914435 -495.43309021 178.04669189 C-487.73094214 171.74375033 -479.97698505 165.52984537 -472.03855896 159.52618408 C-470.05679055 158.01753098 -468.0910464 156.48918458 -466.12449646 154.96075439 C-394.63225737 99.87770842 -309.84931221 57.39235713 -65.65574646 2.45294189 C-64.58273788 2.36153427 -64.58273788 2.36153427 -63.48805237 2.26828003 C-42.3357313 0.49268121 -21.22046748 -0.00863881 0 0 Z M347.78175354 759.14044189 C348.78175354 761.14044189 348.78175354 761.14044189 348.78175354 761.14044189 Z M345.78175354 764.14044189 C346.78175354 766.14044189 346.78175354 766.14044189 346.78175354 766.14044189 Z M344.78175354 766.14044189 C345.78175354 768.14044189 345.78175354 768.14044189 345.78175354 768.14044189 Z M342.78175354 771.14044189 C343.78175354 773.14044189 343.78175354 773.14044189 343.78175354 773.14044189 Z M341.78175354 773.14044189 C342.78175354 776.14044189 342.78175354 776.14044189 342.78175354 776.14044189 Z M340.78175354 776.14044189 C341.78175354 778.14044189 341.78175354 778.14044189 341.78175354 778.14044189 Z M339.78175354 778.14044189 C340.78175354 781.14044189 340.78175354 781.14044189 340.78175354 781.14044189 Z M338.78175354 781.14044189 C339.78175354 783.14044189 339.78175354 783.14044189 339.78175354 783.14044189 Z M337.78175354 783.14044189 C338.78175354 786.14044189 338.78175354 786.14044189 338.78175354 786.14044189 Z M336.78175354 786.14044189 C336.45175354 787.79044189 336.12175354 789.44044189 335.78175354 791.14044189 C336.44175354 790.48044189 337.10175354 789.82044189 337.78175354 789.14044189 C337.45175354 788.15044189 337.12175354 787.16044189 336.78175354 786.14044189 Z M334.78175354 791.14044189 C334.24946028 792.40651796 333.7313081 793.67854602 333.21925354 794.95294189 C332.92921448 795.66063721 332.63917542 796.36833252 332.34034729 797.09747314 C331.5311233 799.31394859 331.5311233 799.31394859 332.78175354 802.14044189 C333.3140468 800.87436583 333.83219898 799.60233777 334.34425354 798.32794189 C334.6342926 797.62024658 334.92433167 796.91255127 335.22315979 796.18341064 C336.03238378 793.96693519 336.03238378 793.96693519 334.78175354 791.14044189 Z M330.78175354 802.14044189 C309.27694027 862.16030659 294.97428484 923.56447462 288.46925354 987.01544189 C288.38776062 987.81006836 288.3062677 988.60469482 288.2223053 989.42340088 C286.60060848 1005.47292485 285.71619714 1021.51738279 285.21925354 1037.64044189 C285.19840698 1038.31486328 285.17756042 1038.98928467 285.15608215 1039.68414307 C284.8457604 1049.84067167 284.57450085 1059.97902346 284.78175354 1070.14044189 C284.79963928 1071.15783447 284.81752502 1072.17522705 284.83595276 1073.22344971 C286.15245282 1141.23941652 296.72915579 1207.62641208 314.78175354 1273.14044189 C316.3111707 1269.16792979 315.23389413 1266.15299615 314.15675354 1262.14044189 C313.7792574 1260.70074158 313.40207474 1259.26095905 313.02516174 1257.82110596 C312.72117966 1256.67986267 312.72117966 1256.67986267 312.41105652 1255.51556396 C301.29527774 1213.56227215 294.30450454 1170.38382765 290.78175354 1127.14044189 C290.67878967 1125.99043701 290.57582581 1124.84043213 290.46974182 1123.65557861 C286.87393883 1082.71568574 286.98476508 1040.05608796 290.78175354 999.14044189 C290.91229437 997.67123312 291.04248808 996.20199347 291.17237854 994.73272705 C296.49167459 935.37057489 308.47068099 877.11582265 326.88453674 820.44781494 C327.13609024 819.67018295 327.38764374 818.89255096 327.64682007 818.09135437 C328.11679105 816.64162356 328.59046615 815.19308579 329.06866455 813.74604797 C330.31714409 809.89685925 331.22531317 806.14898858 331.78175354 802.14044189 C331.45175354 802.14044189 331.12175354 802.14044189 330.78175354 802.14044189 Z M315.78175354 1273.14044189 C316.11175354 1275.45044189 316.44175354 1277.76044189 316.78175354 1280.14044189 C317.47334755 1278.29319137 317.47334755 1278.29319137 317.78175354 1276.14044189 C317.12175354 1275.15044189 316.46175354 1274.16044189 315.78175354 1273.14044189 Z M317.78175354 1280.14044189 C318.11175354 1282.45044189 318.44175354 1284.76044189 318.78175354 1287.14044189 C319.47334755 1285.29319137 319.47334755 1285.29319137 319.78175354 1283.14044189 C319.12175354 1282.15044189 318.46175354 1281.16044189 317.78175354 1280.14044189 Z M319.78175354 1287.14044189 C320.78175354 1290.14044189 320.78175354 1290.14044189 320.78175354 1290.14044189 Z M320.78175354 1290.14044189 C321.78175354 1293.14044189 321.78175354 1293.14044189 321.78175354 1293.14044189 Z M321.78175354 1293.14044189 C322.78175354 1296.14044189 322.78175354 1296.14044189 322.78175354 1296.14044189 Z M322.78175354 1296.14044189 C323.78175354 1299.14044189 323.78175354 1299.14044189 323.78175354 1299.14044189 Z M323.78175354 1299.14044189 C324.78175354 1302.14044189 324.78175354 1302.14044189 324.78175354 1302.14044189 Z M324.78175354 1303.14044189 C325.78175354 1305.14044189 325.78175354 1305.14044189 325.78175354 1305.14044189 Z M325.78175354 1306.14044189 C326.78175354 1308.14044189 326.78175354 1308.14044189 326.78175354 1308.14044189 Z M326.78175354 1309.14044189 C327.78175354 1311.14044189 327.78175354 1311.14044189 327.78175354 1311.14044189 Z M327.78175354 1312.14044189 C328.78175354 1314.14044189 328.78175354 1314.14044189 328.78175354 1314.14044189 Z M328.78175354 1315.14044189 C329.78175354 1317.14044189 329.78175354 1317.14044189 329.78175354 1317.14044189 Z M329.78175354 1318.14044189 C330.78175354 1320.14044189 330.78175354 1320.14044189 330.78175354 1320.14044189 Z M332.78175354 1326.14044189 C333.78175354 1328.14044189 333.78175354 1328.14044189 333.78175354 1328.14044189 Z M333.78175354 1329.14044189 C334.78175354 1331.14044189 334.78175354 1331.14044189 334.78175354 1331.14044189 Z M334.78175354 1332.14044189 C335.78175354 1334.14044189 335.78175354 1334.14044189 335.78175354 1334.14044189 Z " fill="#44A3EB" transform="translate(776.2182464599609,-0.14044189453125)"/>
<path d="M0 0 C0.66 0 1.32 0 2 0 C2.8726892 1.40177604 3.6709775 2.84996598 4.4375 4.3125 C7.70412242 10.07185673 11.85645704 13.8755961 16.8046875 18.1640625 C19.31597468 21.40818082 19.19494694 22.9021138 18.93408203 26.88427734 C19.05780173 30.85522157 21.16553015 34.05911548 23 37.5 C38.30948514 68.05197035 42.31993318 99.93061247 42.25396729 133.65011597 C42.25627487 136.23021918 42.25945339 138.81032174 42.26342177 141.39042294 C42.27060363 146.97603196 42.27045176 152.56160224 42.26532745 158.14721298 C42.25772725 166.45450953 42.26164843 174.76177371 42.26774407 183.06907008 C42.27825299 197.91550014 42.27737117 212.76191294 42.27158624 227.60834463 C42.26654458 240.61235331 42.26524659 253.61635568 42.26763153 266.62036514 C42.26786069 267.9169319 42.26786069 267.9169319 42.26809447 269.23969193 C42.26871722 272.74914911 42.26935403 276.25860629 42.270014 279.76806347 C42.2761282 312.67427978 42.27059288 345.58048516 42.2598202 378.48669978 C42.25034463 407.65210912 42.25116594 436.81750098 42.26074219 465.98291016 C42.27148284 498.80381034 42.27567936 531.62470084 42.26951766 564.44560254 C42.26887632 567.95405205 42.26825063 571.46250156 42.26763153 574.97095108 C42.26747338 575.83471927 42.26731522 576.69848746 42.26715227 577.58843044 C42.26488873 590.56429561 42.26751679 603.54015373 42.27259064 616.51601791 C42.27834369 631.30195438 42.27680743 646.087871 42.26602915 660.87380503 C42.26071909 668.4041609 42.25843634 675.93448444 42.26532745 683.46483994 C42.31592435 742.42396175 42.31592435 742.42396175 40 771 C39.92037915 771.98657522 39.8407583 772.97315044 39.75872469 773.98962188 C39.33528855 779.10794637 38.8365701 784.2103805 38.25 789.3125 C38.12594788 790.42301727 38.12594788 790.42301727 37.99938965 791.55596924 C28.32830408 877.65205402 4.93904208 961.73832985 -94.75878906 1148.24560547 C-95.95847133 1149.94130114 -97.14789534 1151.64379326 -98.3359375 1153.34765625 C-115.57451689 1177.92272135 -134.46914029 1201.44556387 -154.7734375 1223.5546875 C-156.7019992 1225.67272193 -158.57719516 1227.82229717 -160.4375 1230 C-163.79630064 1233.87738032 -167.43160196 1237.46067065 -171.08032227 1241.06103516 C-174.28099807 1244.23444037 -177.16788406 1247.50150384 -180 1251 C-181.6459651 1252.68711423 -183.31237149 1254.3545622 -185 1256 C-185.886875 1256.928125 -186.77375 1257.85625 -187.6875 1258.8125 C-190 1261 -190 1261 -192 1261 C-192.33 1261.99 -192.66 1262.98 -193 1264 C-194.3203125 1265.33203125 -194.3203125 1265.33203125 -196.125 1266.8125 C-200.32476881 1270.36383054 -204.31691697 1274.09863478 -208.3125 1277.875 C-213.54015883 1282.79423666 -218.85856997 1287.45369999 -224.46875 1291.93359375 C-227.00138153 1294.00112782 -229.4073116 1296.16113341 -231.8125 1298.375 C-253.52875562 1318.08615534 -278.45290823 1335.02080897 -303 1351 C-303.79470703 1351.51788086 -304.58941406 1352.03576172 -305.40820312 1352.56933594 C-318.73547988 1361.22347737 -332.29431366 1369.4076858 -346.07470703 1377.31835938 C-348.92853632 1378.95891822 -351.77543169 1380.61094929 -354.62109375 1382.265625 C-364.11547093 1387.76807725 -373.65330223 1393.04336787 -383.53955078 1397.80664062 C-386.46086367 1399.22352665 -389.36843495 1400.6671972 -392.27734375 1402.109375 C-461.56303595 1436.26340754 -535.65107968 1460.02700386 -649.1875 1477.25 C-650.48357178 1477.40106201 -651.77964355 1477.55212402 -653.11499023 1477.70776367 C-657.406885 1478.18072839 -661.70059603 1478.6022989 -666 1479 C-667.37268539 1479.1308046 -667.37268539 1479.1308046 -668.77310181 1479.26425171 C-688.3056831 1481.07713268 -707.75354953 1481.36301489 -727.35133743 1481.31805801 C-729.84953119 1481.31241637 -732.34771816 1481.30959672 -734.84591675 1481.30697632 C-757.87619583 1481.27185649 -780.75442724 1480.98040942 -803.65179443 1478.27587891 C-806.29775605 1477.96501813 -808.94489954 1477.66567356 -811.59228516 1477.3671875 C-823.73851341 1475.992391 -835.87287913 1474.53386869 -848 1473 C-848 1471.35 -848 1469.7 -848 1468 C-849.485 1469.485 -849.485 1469.485 -851 1471 C-855.5558687 1469.49192309 -857.50690728 1465.75803589 -860 1461.9375 C-860.85226861 1460.65368586 -861.70657414 1459.37122249 -862.5625 1458.08984375 C-863.06628174 1457.33493652 -863.57006348 1456.5800293 -864.08911133 1455.80224609 C-866.55903191 1452.18020081 -869.09913935 1448.6099837 -871.63671875 1445.03515625 C-877.83741324 1436.28400948 -883.86496903 1427.4247868 -889.8125 1418.5 C-890.33191162 1417.72075165 -890.85132324 1416.9415033 -891.38647461 1416.13864136 C-900.35045416 1402.66610371 -908.97816208 1389.06025438 -917 1375 C-917.63808594 1373.88173828 -918.27617188 1372.76347656 -918.93359375 1371.61132812 C-946.81117665 1322.55248703 -968.36972169 1271.38074315 -985.77368164 1217.74584961 C-986.82948419 1214.52084892 -987.92498341 1211.31333832 -989.03125 1208.10546875 C-991.71269567 1200.07407241 -993.80132578 1191.87687285 -995.9375 1183.6875 C-996.2675705 1182.42752197 -996.2675705 1182.42752197 -996.60430908 1181.14208984 C-1001.74349788 1161.49145354 -1006.04948359 1141.77324807 -1009.51611328 1121.75830078 C-1009.99253873 1119.04253151 -1010.49262537 1116.331964 -1010.99609375 1113.62109375 C-1014.26537331 1095.58204514 -1016.06546933 1077.38923842 -1017.79431152 1059.15039062 C-1017.98037015 1057.20522225 -1018.17383124 1055.26076542 -1018.36816406 1053.31640625 C-1020.47990479 1031.90902863 -1020.20445272 1010.48483566 -1020 989 C-1019.32746185 988.96907761 -1018.65492371 988.93815521 -1017.96200562 988.90629578 C-975.93659724 987.17732026 -975.93659724 987.17732026 -934.06787109 983.37060547 C-930.8975942 982.98762916 -927.72495828 982.63422474 -924.55078125 982.28515625 C-838.97394087 972.70263896 -755.88658478 946.72763311 -675 908 C-673.98583008 907.51289551 -672.97166016 907.02579102 -671.92675781 906.52392578 C-657.60881364 899.60705623 -643.74010438 891.99776698 -630 884 C-629.03819824 883.44393066 -628.07639648 882.88786133 -627.08544922 882.31494141 C-601.4357556 867.43410534 -576.57539493 850.99189525 -553 833 C-551.54862294 831.90565843 -550.09679509 830.81191448 -548.64453125 829.71875 C-529.92170497 815.57214789 -511.89015128 800.63338008 -494.74926758 784.60571289 C-493.51515902 783.47288218 -492.26604429 782.35629432 -491.0065918 781.25170898 C-482.89483751 774.11125669 -475.30499017 766.45601097 -467.67651367 758.80688477 C-465.3108581 756.43585437 -462.93988486 754.07023578 -460.56835938 751.70507812 C-459.04134583 750.17740396 -457.51464243 748.64941972 -455.98828125 747.12109375 C-455.29019852 746.42503525 -454.59211578 745.72897675 -453.87287903 745.01182556 C-449.9181268 741.03840942 -446.13697091 736.96494155 -442.47853088 732.71664429 C-440.5700439 730.50080063 -438.59810139 728.34581589 -436.625 726.1875 C-432.72636603 721.86739209 -429.02496142 717.41928619 -425.3671875 712.89453125 C-423.31608095 710.38649503 -421.22575668 707.91901907 -419.11303711 705.46289062 C-412.63121545 697.91179479 -406.58206319 690.06367256 -400.59667969 682.11572266 C-399.09580514 680.12694913 -397.58477271 678.14640543 -396.0703125 676.16796875 C-383.27166867 659.37802324 -371.3242246 641.98303569 -360.24609375 624.01318359 C-359.14615972 622.23613501 -358.02759874 620.47064503 -356.90625 618.70703125 C-352.10581008 611.10305571 -347.83087869 603.2554756 -343.5559082 595.34741211 C-340.15296987 589.06723588 -336.63962676 582.87419036 -332.98950195 576.73510742 C-329.20922328 570.37544893 -325.50521867 563.97335832 -321.8125 557.5625 C-321.17465576 556.45551758 -320.53681152 555.34853516 -319.87963867 554.20800781 C-318.571414 551.93712726 -317.26339163 549.66613015 -315.95556641 547.39501953 C-312.80667944 541.92830016 -309.65311964 536.46427871 -306.5 531 C-305.2486933 528.83073183 -303.99739122 526.661461 -302.74609375 524.4921875 C-300.26069098 520.18398349 -297.77358023 515.87677211 -295.28515625 511.5703125 C-288.39981099 499.65107506 -281.54443537 487.71539886 -274.72149658 475.76037598 C-269.78576942 467.11303161 -264.82146826 458.4830204 -259.82421875 449.87109375 C-256.45587704 444.06582161 -253.10314341 438.25155984 -249.75 432.4375 C-249.11570068 431.33776855 -248.48140137 430.23803711 -247.82788086 429.10498047 C-246.53169703 426.85760843 -245.23555475 424.61021242 -243.93945312 422.36279297 C-240.79356797 416.90818293 -237.64674631 411.45411327 -234.5 406 C-233.2499953 403.83333604 -231.99999531 401.66666937 -230.75 399.5 C-208.25 360.5 -208.25 360.5 -206.37524414 357.25048828 C-205.1243552 355.08223736 -203.87354148 352.91394303 -202.62280273 350.74560547 C-199.51201665 345.35282085 -196.39995762 339.96077907 -193.28515625 334.5703125 C-186.46497363 322.76370516 -179.6767674 310.93973 -172.92263794 299.09527588 C-167.76664555 290.05670572 -162.54679327 281.05722862 -157.28881836 272.07763672 C-152.80810487 264.41397544 -148.39496772 256.71298363 -144 249 C-138.4593297 239.27733187 -132.86396578 229.58860003 -127.21435547 219.92871094 C-117.36906414 203.09005992 -107.65976224 186.17325115 -97.99130249 169.23260498 C-91.31733874 157.53968311 -84.59487959 145.87506392 -77.85888672 134.21777344 C-74.73675395 128.81329355 -71.61858796 123.40652588 -68.5 118 C-67.25001878 115.8333225 -66.00001879 113.66665583 -64.75 111.5 C-64.13125 110.4275 -63.5125 109.355 -62.875 108.25 C-57.25 98.5 -57.25 98.5 -55.37524414 95.25048828 C-54.1243552 93.08223736 -52.87354148 90.91394303 -51.62280273 88.74560547 C-48.51201665 83.35282085 -45.39995762 77.96077907 -42.28515625 72.5703125 C-41.04418975 70.42192183 -39.80330451 68.27348423 -38.5625 66.125 C-37.94632813 65.05838135 -37.33015625 63.9917627 -36.6953125 62.89282227 C-33.45540151 57.27812725 -30.22967178 51.6557456 -27.02734375 46.01953125 C-20.31617592 34.21010759 -13.55685762 22.43155705 -6.625 10.75 C-5.98820312 9.66581787 -5.35140625 8.58163574 -4.6953125 7.46459961 C-4.1075 6.48112549 -3.5196875 5.49765137 -2.9140625 4.484375 C-2.3979541 3.61522461 -1.8818457 2.74607422 -1.35009766 1.85058594 C-0.90456543 1.23989258 -0.4590332 0.62919922 0 0 Z M-389 685 C-388 687 -388 687 -388 687 Z M-391 690 C-390 692 -390 692 -390 692 Z M-392 692 C-391 694 -391 694 -391 694 Z M-394 697 C-393 699 -393 699 -393 699 Z M-395 699 C-394 702 -394 702 -394 702 Z M-396 702 C-395 704 -395 704 -395 704 Z M-397 704 C-396 707 -396 707 -396 707 Z M-398 707 C-397 709 -397 709 -397 709 Z M-399 709 C-398 712 -398 712 -398 712 Z M-400 712 C-400.33 713.65 -400.66 715.3 -401 717 C-400.34 716.34 -399.68 715.68 -399 715 C-399.33 714.01 -399.66 713.02 -400 712 Z M-402 717 C-402.53229326 718.26607607 -403.05044544 719.53810412 -403.5625 720.8125 C-403.85253906 721.52019531 -404.14257812 722.22789062 -404.44140625 722.95703125 C-405.25063024 725.1735067 -405.25063024 725.1735067 -404 728 C-403.46770674 726.73392393 -402.94955456 725.46189588 -402.4375 724.1875 C-402.14746094 723.47980469 -401.85742188 722.77210938 -401.55859375 722.04296875 C-400.74936976 719.8264933 -400.74936976 719.8264933 -402 717 Z M-406 728 C-427.50481327 788.0198647 -441.8074687 849.42403273 -448.3125 912.875 C-448.39399292 913.66962646 -448.47548584 914.46425293 -448.55944824 915.28295898 C-450.18114506 931.33248296 -451.0655564 947.37694089 -451.5625 963.5 C-451.58334656 964.17442139 -451.60419312 964.84884277 -451.62567139 965.54370117 C-451.93599314 975.70022978 -452.20725269 985.83858156 -452 996 C-451.98211426 997.01739258 -451.96422852 998.03478516 -451.94580078 999.08300781 C-450.62930072 1067.09897462 -440.05259775 1133.48597019 -422 1199 C-420.47058284 1195.02748789 -421.54785941 1192.01255426 -422.625 1188 C-423.00249614 1186.56029969 -423.3796788 1185.12051715 -423.7565918 1183.68066406 C-424.06057388 1182.53942078 -424.06057388 1182.53942078 -424.37069702 1181.37512207 C-435.4864758 1139.42183025 -442.477249 1096.24338576 -446 1053 C-446.10296387 1051.84999512 -446.20592773 1050.69999023 -446.31201172 1049.51513672 C-449.90781471 1008.57524385 -449.79698846 965.91564606 -446 925 C-445.86945917 923.53079122 -445.73926546 922.06155157 -445.609375 920.59228516 C-440.29007895 861.230133 -428.31107255 802.97538075 -409.8972168 746.30737305 C-409.6456633 745.52974106 -409.3941098 744.75210907 -409.13493347 743.95091248 C-408.66496249 742.50118166 -408.19128739 741.0526439 -407.71308899 739.60560608 C-406.46460945 735.75641736 -405.55644037 732.00854668 -405 728 C-405.33 728 -405.66 728 -406 728 Z M-421 1199 C-420.67 1201.31 -420.34 1203.62 -420 1206 C-419.30840599 1204.15274948 -419.30840599 1204.15274948 -419 1202 C-419.66 1201.01 -420.32 1200.02 -421 1199 Z M-419 1206 C-418.67 1208.31 -418.34 1210.62 -418 1213 C-417.30840599 1211.15274948 -417.30840599 1211.15274948 -417 1209 C-417.66 1208.01 -418.32 1207.02 -419 1206 Z M-417 1213 C-416 1216 -416 1216 -416 1216 Z M-416 1216 C-415 1219 -415 1219 -415 1219 Z M-415 1219 C-414 1222 -414 1222 -414 1222 Z M-414 1222 C-413 1225 -413 1225 -413 1225 Z M-413 1225 C-412 1228 -412 1228 -412 1228 Z M-412 1229 C-411 1231 -411 1231 -411 1231 Z M-411 1232 C-410 1234 -410 1234 -410 1234 Z M-410 1235 C-409 1237 -409 1237 -409 1237 Z M-409 1238 C-408 1240 -408 1240 -408 1240 Z M-408 1241 C-407 1243 -407 1243 -407 1243 Z M-407 1244 C-406 1246 -406 1246 -406 1246 Z M-404 1252 C-403 1254 -403 1254 -403 1254 Z M-403 1255 C-402 1257 -402 1257 -402 1257 Z M-402 1258 C-401 1260 -401 1260 -401 1260 Z " fill="#FEA800" transform="translate(1513,74)"/>
<path d="M0 0 C3.77318228 2.10518013 6.78819307 4.4872014 9.9375 7.4375 C12.66609123 9.95588865 15.07981157 12.04911481 18.25 14 C21.53181108 16.38677169 23.20969502 18.96105022 25.3125 22.390625 C27.68992473 26.06682806 30.34651082 29.519979 33 33 C32.52711548 33.79543213 32.52711548 33.79543213 32.04467773 34.60693359 C23.55343618 48.90268126 15.19718114 63.27228231 6.90722656 77.68554688 C3.77635076 83.12650565 0.63783458 88.56305248 -2.5 94 C-3.75003758 96.16664498 -5.00003756 98.33331166 -6.25 100.5 C-28.75 139.5 -28.75 139.5 -30.62475586 142.74951172 C-31.8756448 144.91776264 -33.12645852 147.08605697 -34.37719727 149.25439453 C-37.48798335 154.64717915 -40.60004238 160.03922093 -43.71484375 165.4296875 C-50.17019142 176.60449102 -56.60329344 187.79154303 -63 199 C-70.00961705 211.28241289 -77.0657242 223.53757795 -84.14111328 235.78222656 C-87.26324605 241.18670645 -90.38141204 246.59347412 -93.5 252 C-94.74998122 254.1666775 -95.99998121 256.33334417 -97.25 258.5 C-97.86875 259.5725 -98.4875 260.645 -99.125 261.75 C-194.75 427.5 -194.75 427.5 -196.62475586 430.74951172 C-197.8756448 432.91776264 -199.12645852 435.08605697 -200.37719727 437.25439453 C-203.48798335 442.64717915 -206.60004238 448.03922093 -209.71484375 453.4296875 C-216.53502637 465.23629484 -223.3232326 477.06027 -230.07736206 488.90472412 C-235.23416608 497.94471708 -240.45543769 506.94525321 -245.71337891 515.92675781 C-250.16916344 523.54905778 -254.56397146 531.20531311 -258.9375 538.875 C-265.96603507 551.20025196 -273.04240434 563.49722067 -280.14111328 575.78222656 C-283.88550821 582.26385581 -287.62493725 588.74835242 -291.36425781 595.23291016 C-294.54704539 600.75157401 -297.73330016 606.26818724 -300.92578125 611.78125 C-302.2215689 614.0207091 -303.51714415 616.26029111 -304.8125 618.5 C-305.44124023 619.58659912 -306.06998047 620.67319824 -306.71777344 621.79272461 C-310.30536497 628.00941618 -313.80976932 634.26338837 -317.25 640.5625 C-321.64925341 648.57526459 -326.50455325 656.23509395 -331.56591797 663.84375 C-333.03155442 666.04744444 -334.48700032 668.25763072 -335.94140625 670.46875 C-350.99957164 693.29259119 -367.19735231 715.1923295 -384.59521484 736.29101562 C-385.90126401 737.87988323 -387.19528081 739.47862053 -388.48828125 741.078125 C-392.80992506 746.42233392 -397.26694386 751.59810272 -401.89453125 756.6796875 C-403.72917685 758.70154184 -405.52768786 760.74678522 -407.3125 762.8125 C-417.23809606 774.16264434 -427.74625617 784.90590586 -438.41943359 795.54980469 C-440.76386677 797.88883481 -443.10284871 800.23322197 -445.44140625 802.578125 C-446.95540834 804.09146687 -448.4697203 805.60449881 -449.984375 807.1171875 C-450.67102234 807.80585907 -451.35766968 808.49453064 -452.06512451 809.20407104 C-455.99751059 813.1177155 -460.03076373 816.85667571 -464.23692322 820.47503662 C-466.82293549 822.71179344 -469.31058082 825.04454102 -471.8125 827.375 C-476.38297905 831.59274087 -481.0693887 835.6095264 -485.91796875 839.5078125 C-488.23164118 841.37869084 -490.52186579 843.26731879 -492.80078125 845.1796875 C-502.46993424 853.2730079 -512.41547607 860.86445498 -522.62353516 868.26318359 C-524.93581368 869.95309005 -527.22660431 871.66812206 -529.51171875 873.39453125 C-597.11294317 924.31635667 -675.44915673 961.8088603 -756 987 C-756.66263855 987.2075592 -757.3252771 987.41511841 -758.00799561 987.62896729 C-780.07666919 994.51610853 -802.45787544 999.92372004 -825 1005 C-826.16144531 1005.26296875 -827.32289063 1005.5259375 -828.51953125 1005.796875 C-866.81603021 1014.38139531 -905.85238577 1018.81554289 -945 1021 C-946.49490967 1021.08677002 -946.49490967 1021.08677002 -948.02001953 1021.17529297 C-961.6857819 1021.95335716 -975.31398105 1022.13001918 -989 1022 C-990.26556277 938.4014663 -976.75530546 855.26219495 -927 713 C-926.49178711 711.81148437 -925.98357422 710.62296875 -925.45996094 709.3984375 C-913.01827419 680.4975187 -899.04987346 652.07261704 -883 625 C-882.4652002 624.09137207 -881.93040039 623.18274414 -881.37939453 622.24658203 C-861.57337582 588.71119226 -839.15625044 556.84256795 -814.43994141 526.75585938 C-813.15634299 525.19064408 -811.88036928 523.619183 -810.60546875 522.046875 C-800.46361816 509.5477294 -789.86313248 497.59942982 -778.79882812 485.91210938 C-776.59058766 483.5648049 -774.41221105 481.19138483 -772.23730469 478.81323242 C-765.20153104 471.12261904 -758.07329453 463.50831503 -750.19140625 456.671875 C-745.90043938 452.94792515 -741.79592702 449.04786079 -737.6875 445.125 C-732.19078948 439.9145207 -726.6573752 434.90771051 -720.7265625 430.1953125 C-717.47887223 427.58041002 -714.33737993 424.85610478 -711.1875 422.125 C-698.32650323 411.04287479 -684.72406696 400.98141202 -671 391 C-670.02450195 390.289646 -670.02450195 390.289646 -669.02929688 389.56494141 C-660.71627924 383.52577859 -652.24264617 377.75898814 -643.6640625 372.10449219 C-640.63143052 370.0916361 -637.63322915 368.02710276 -634.63671875 365.9609375 C-633 365 -633 365 -631 365 C-631 364.34 -631 363.68 -631 363 C-630.17822266 362.61521484 -630.17822266 362.61521484 -629.33984375 362.22265625 C-621.25009584 358.31589994 -613.6591983 353.67471131 -606 349 C-595.45002541 342.56799898 -584.75815697 336.40300646 -574.02270508 330.28686523 C-572.78986431 329.58449371 -571.55703557 328.88210107 -570.32421875 328.1796875 C-569.71042862 327.82997391 -569.09663849 327.48026031 -568.46424866 327.11994934 C-562.29612627 323.60310843 -556.14702381 320.05357148 -550 316.5 C-540.90920319 311.24724653 -531.80472059 306.01919815 -522.6875 300.8125 C-522.09650513 300.4749469 -521.50551025 300.1373938 -520.89660645 299.78961182 C-515.06972044 296.46181958 -509.24122647 293.13686217 -503.41015625 289.81640625 C-493.38158949 284.10199769 -483.39481056 278.32105546 -473.43261719 272.49169922 C-465.05875861 267.59960289 -456.64239324 262.78420983 -448.21594238 257.98361206 C-440.01124079 253.30820281 -431.83559278 248.58608964 -423.6875 243.8125 C-414.88626736 238.65650229 -406.03008383 233.60720213 -397.14013672 228.60595703 C-391.66428596 225.5205601 -386.21871335 222.39324493 -380.8125 219.1875 C-373.44068644 214.81704184 -366.00715191 210.55725657 -358.5625 206.3125 C-349.32080206 201.04235996 -340.08821886 195.75736607 -330.875 190.4375 C-329.80950928 189.82229492 -328.74401855 189.20708984 -327.64624023 188.57324219 C-324.43056106 186.71595433 -321.21521429 184.8580925 -318 183 C-304.72355404 175.32745865 -291.44021919 167.6675947 -278.125 160.0625 C-277.5454657 159.73148285 -276.9659314 159.4004657 -276.36883545 159.05941772 C-270.46019316 155.68497022 -264.55002809 152.31320112 -258.63830566 148.94415283 C-246.03329723 141.75980612 -233.45204774 134.53839107 -220.92773438 127.21386719 C-204.04557088 117.34266173 -187.08384324 107.61045373 -170.0958252 97.9229126 C-161.05706757 92.76683517 -152.05740558 87.54689688 -143.07763672 82.28881836 C-134.82181716 77.46188764 -126.52161166 72.71489985 -118.21200562 67.98150635 C-110.04856729 63.33037329 -101.91691512 58.62844823 -93.8125 53.875 C-84.72215957 48.54617975 -75.55423995 43.37086575 -66.34814453 38.24511719 C-58.26374066 33.73353474 -50.25744938 29.09920613 -42.2722168 24.41479492 C-32.94768067 18.95048634 -23.56616208 13.58860489 -14.17456055 8.24072266 C-13.05090088 7.60054199 -11.92724121 6.96036133 -10.76953125 6.30078125 C-9.27836792 5.45253784 -9.27836792 5.45253784 -7.75708008 4.5871582 C-5.15254378 3.08781432 -2.57158974 1.5550444 0 0 Z " fill="#25C16F" transform="translate(1481,41)"/>
<path d="M0 0 C2.58059596 -0.00259012 5.16119152 -0.00560506 7.74178654 -0.0090034 C14.04011973 -0.01650182 20.33844443 -0.01877224 26.63678163 -0.01933246 C34.19396416 -0.02025421 41.75113906 -0.02694517 49.30831826 -0.03367928 C67.55642366 -0.04965405 85.80452815 -0.05563159 104.05263929 -0.06042803 C112.69586774 -0.06277128 121.33909553 -0.06637457 129.98232346 -0.07012341 C159.61041709 -0.08294769 189.23851037 -0.09367069 218.86660671 -0.09712601 C220.72236272 -0.09734763 222.57811872 -0.09756942 224.43387473 -0.09779136 C226.29388354 -0.09801199 228.15389236 -0.09823248 230.01390117 -0.09845281 C233.74486824 -0.09889534 237.4758353 -0.09934246 241.20680237 -0.09979248 C242.13184809 -0.09990187 243.05689382 -0.10001126 244.00997124 -0.10012397 C274.01582125 -0.10375596 304.02164713 -0.11968714 334.0274879 -0.14298284 C365.80728278 -0.16761044 397.58706386 -0.18130007 429.36686856 -0.18249393 C432.85873576 -0.18266536 436.35060297 -0.18288078 439.84247017 -0.18312836 C441.13201314 -0.18321201 441.13201314 -0.18321201 442.44760748 -0.18329735 C456.24245047 -0.1844448 470.0372685 -0.19543988 483.83210308 -0.21001541 C497.70695474 -0.22442166 511.58177462 -0.22759403 525.45663171 -0.21957543 C533.68366037 -0.2151397 541.910586 -0.21889701 550.13760099 -0.23481394 C556.30177748 -0.24579909 562.46584944 -0.24085951 568.63002408 -0.23004207 C571.10755344 -0.22809514 573.58509333 -0.2311165 576.06260794 -0.23988643 C595.60767465 -0.30463889 614.93558316 0.94839888 633.96925354 5.70294189 C634.97770325 5.95052246 635.98615295 6.19810303 637.02516174 6.45318604 C682.03397929 18.00899266 682.03397929 18.00899266 696.64894104 33.90216064 C698.49740466 35.84203181 700.14688874 37.23722352 702.40675354 38.64044189 C703.19050354 39.13544189 703.97425354 39.63044189 704.78175354 40.14044189 C704.78175354 40.80044189 704.78175354 41.46044189 704.78175354 42.14044189 C704.05923401 42.55181396 703.33671448 42.96318604 702.59230042 43.38702393 C689.85157238 50.64473176 677.12082658 57.91550426 664.46925354 65.32794189 C655.83442099 70.38585356 647.14783099 75.34218332 638.42506409 80.24664307 C631.5048371 84.14565349 624.63466445 88.12444106 617.78175354 92.14044189 C609.98588361 96.70904355 602.15804557 101.2119208 594.28175354 105.64044189 C586.51186117 110.01013778 578.78625886 114.44755203 571.09425354 118.95294189 C562.43501674 124.02372986 553.74737492 129.04230529 545.03175354 134.01544189 C544.44894623 134.34805023 543.86613892 134.68065857 543.26567078 135.02334595 C538.50829945 137.7378967 533.74931011 140.44960597 528.99024963 143.16119385 C515.19424339 151.02232148 501.41633134 158.9104784 487.70948792 166.92657471 C470.87135832 176.77203301 453.95468584 186.48086163 437.01435852 196.1491394 C424.24563029 203.43714067 411.511172 210.78403117 398.78175354 218.14044189 C385.35986211 225.89703709 371.93029286 233.63948455 358.46925354 241.32794189 C357.87843994 241.66540436 357.28762634 242.00286682 356.6789093 242.35055542 C350.85183971 245.67843828 345.02315758 249.00347861 339.19190979 252.32403564 C329.11513842 258.06578035 319.07797515 263.87122452 309.06495667 269.72344971 C292.10613078 279.63142998 275.07401621 289.41152277 258.01637268 299.14813232 C242.20139681 308.17634935 226.41259538 317.24973081 210.70069885 326.45635986 C200.57593872 332.38761879 190.3865144 338.18404364 180.13478088 343.8928833 C170.98635712 348.99874856 161.93728436 354.26474278 152.89894104 359.56231689 C146.43946354 363.34724867 139.95614416 367.09023926 133.46925354 370.82794189 C132.37177795 371.46079102 131.27430237 372.09364014 130.14356995 372.7456665 C125.36343659 375.50172448 120.58205337 378.25555722 115.79737854 381.00372314 C114.27109753 381.8822137 112.74504904 382.76110837 111.21925354 383.64044189 C110.48924133 384.06067627 109.75922913 384.48091064 109.00709534 384.91387939 C104.35791027 387.60527501 99.75085569 390.36154742 95.16065979 393.15216064 C94.59084885 393.49767975 94.0210379 393.84319885 93.43395996 394.19918823 C90.60650664 395.91370062 87.78352616 397.63443044 84.96705627 399.36700439 C83.94684387 399.98704346 82.92663147 400.60708252 81.87550354 401.24591064 C80.96478088 401.80431641 80.05405823 402.36272217 79.11573792 402.93804932 C76.78175354 404.14044189 76.78175354 404.14044189 73.78175354 404.14044189 C73.78175354 404.80044189 73.78175354 405.46044189 73.78175354 406.14044189 C73.2571051 406.32477783 72.73245667 406.50911377 72.19190979 406.69903564 C66.53016751 408.8186563 61.2853942 411.42483023 55.98878479 414.30841064 C47.30358296 418.9660149 38.43060494 423.06311312 29.40675354 427.01544189 C28.23523743 427.53085037 28.23523743 427.53085037 27.04005432 428.05667114 C22.32755797 430.1290074 17.60867663 432.18610971 12.88392639 434.23034668 C10.99155117 435.04961405 9.10089836 435.87285719 7.21046448 436.69659424 C-14.02630451 445.8906006 -35.97374366 453.13300913 -57.93180847 460.38397217 C-59.89352462 461.03300743 -61.85321178 461.68816971 -63.81248474 462.34454346 C-138.83431509 487.36414517 -220.56818525 495.09711837 -299.21824646 494.14044189 C-300.25400818 494.13319092 -301.2897699 494.12593994 -302.35691833 494.11846924 C-368.58773496 493.49584047 -438.88752725 482.951815 -501.95994568 462.20245361 C-505.14804632 461.16332295 -508.34394801 460.15313173 -511.54322815 459.1491394 C-531.43095383 452.90345309 -550.97388866 446.18697477 -570.21824646 438.14044189 C-571.24815704 437.71057983 -571.24815704 437.71057983 -572.2988739 437.27203369 C-597.13848836 426.89129929 -621.49772403 415.89946228 -645.21824646 403.14044189 C-646.88113708 402.24760498 -646.88113708 402.24760498 -648.57762146 401.33673096 C-656.12989595 397.28128914 -663.67616356 393.21480912 -671.21824646 389.14044189 C-671.21824646 353.30381921 -610.06298215 294.44596475 -587.21824646 268.14044189 C-586.56211365 267.38247314 -585.90598083 266.62450439 -585.22996521 265.84356689 C-581.29309856 261.31843281 -577.27271766 256.87157461 -573.23387146 252.43731689 C-571.2039812 250.20129214 -571.2039812 250.20129214 -569.57762146 247.84356689 C-569.12902771 247.28153564 -568.68043396 246.71950439 -568.21824646 246.14044189 C-567.55824646 246.14044189 -566.89824646 246.14044189 -566.21824646 246.14044189 C-565.95279022 245.54999588 -565.68733398 244.95954987 -565.41383362 244.35121155 C-564.18351421 242.07621822 -562.91416571 240.58877699 -561.08885193 238.76812744 C-560.45413971 238.13033859 -559.81942749 237.49254974 -559.16548157 236.83543396 C-558.47906586 236.15620377 -557.79265015 235.47697357 -557.08543396 234.77716064 C-556.37476776 234.06695267 -555.66410156 233.35674469 -554.93190002 232.62501526 C-553.4261974 231.12233232 -551.91806648 229.62207921 -550.40769958 228.12408447 C-548.11748343 225.85198712 -545.83523335 223.57212867 -543.55418396 221.29083252 C-542.08590218 219.82747194 -540.61716623 218.36456691 -539.14793396 216.90216064 C-538.47366364 216.22900314 -537.79939331 215.55584564 -537.10469055 214.86228943 C-533.19221148 210.98799897 -529.17986165 207.28232115 -525.00570679 203.69102478 C-522.23695748 201.28919509 -519.57887495 198.77242231 -516.90574646 196.26544189 C-511.20363998 190.96692232 -505.29409465 186.00744123 -499.21824646 181.14044189 C-497.95547033 180.11048694 -496.69382519 179.07914435 -495.43309021 178.04669189 C-487.73094214 171.74375033 -479.97698505 165.52984537 -472.03855896 159.52618408 C-470.05679055 158.01753098 -468.0910464 156.48918458 -466.12449646 154.96075439 C-394.63225737 99.87770842 -309.84931221 57.39235713 -65.65574646 2.45294189 C-64.58273788 2.36153427 -64.58273788 2.36153427 -63.48805237 2.26828003 C-42.3357313 0.49268121 -21.22046748 -0.00863881 0 0 Z " fill="#08C7FA" transform="translate(776.2182464599609,-0.14044189453125)"/>
<path d="M0 0 C0.33 0.66 0.66 1.32 1 2 C-0.13305664 4.67260742 -0.13305664 4.67260742 -1.91015625 8.10546875 C-2.57004861 9.39596458 -3.22987633 10.68649347 -3.88964844 11.97705078 C-4.24345581 12.66188538 -4.59726318 13.34671997 -4.96179199 14.05230713 C-18.53481929 40.38175228 -30.36801336 67.35925477 -41 95 C-41.55977539 96.44947021 -41.55977539 96.44947021 -42.13085938 97.92822266 C-65.16889016 158.04105814 -78.75818589 221.94332146 -85.3125 285.875 C-85.39399292 286.66962646 -85.47548584 287.46425293 -85.55944824 288.28295898 C-87.18114506 304.33248296 -88.0655564 320.37694089 -88.5625 336.5 C-88.58334656 337.17442139 -88.60419312 337.84884277 -88.62567139 338.54370117 C-88.93599314 348.70022978 -89.20725269 358.83858156 -89 369 C-88.98211426 370.01739258 -88.96422852 371.03478516 -88.94580078 372.08300781 C-87.8361029 429.41469817 -80.60075584 486.28747952 -67 542 C-66.84184814 542.65170166 -66.68369629 543.30340332 -66.52075195 543.97485352 C-62.05699659 562.32334413 -56.77290603 580.35371937 -50.9375 598.3125 C-50.50943558 599.6345343 -50.50943558 599.6345343 -50.07272339 600.98327637 C-44.48551702 618.16917667 -38.20739341 635.09562183 -31.1875 651.75 C-30.76992432 652.74346436 -30.35234863 653.73692871 -29.92211914 654.76049805 C-28.62118488 657.8431098 -27.31187332 660.92202955 -26 664 C-25.58943359 664.96824707 -25.17886719 665.93649414 -24.75585938 666.93408203 C-13.36901769 693.68419397 -0.90583168 720.10005883 13.96289062 745.10351562 C15 747 15 747 16 750 C-53.71501994 792.67463844 -134.0707579 822.22786152 -287.1875 850.25 C-288.48357178 850.40106201 -289.77964355 850.55212402 -291.11499023 850.70776367 C-295.406885 851.18072839 -299.70059603 851.6022989 -304 852 C-304.9151236 852.08720306 -305.83024719 852.17440613 -306.77310181 852.26425171 C-326.3056831 854.07713268 -345.75354953 854.36301489 -365.35133743 854.31805801 C-367.84953119 854.31241637 -370.34771816 854.30959672 -372.84591675 854.30697632 C-395.87619583 854.27185649 -418.75442724 853.98040942 -441.65179443 851.27587891 C-444.29775605 850.96501813 -446.94489954 850.66567356 -449.59228516 850.3671875 C-461.73851341 848.992391 -473.87287913 847.53386869 -486 846 C-486 844.35 -486 842.7 -486 841 C-487.485 842.485 -487.485 842.485 -489 844 C-493.5558687 842.49192309 -495.50690728 838.75803589 -498 834.9375 C-498.85226861 833.65368586 -499.70657414 832.37122249 -500.5625 831.08984375 C-501.31817261 829.95748291 -501.31817261 829.95748291 -502.08911133 828.80224609 C-504.55903191 825.18020081 -507.09913935 821.6099837 -509.63671875 818.03515625 C-515.83741324 809.28400948 -521.86496903 800.4247868 -527.8125 791.5 C-528.59161743 790.33112747 -528.59161743 790.33112747 -529.38647461 789.13864136 C-538.35045416 775.66610371 -546.97816208 762.06025438 -555 748 C-555.95712891 746.32260742 -555.95712891 746.32260742 -556.93359375 744.61132812 C-584.81117665 695.55248703 -606.36972169 644.38074315 -623.77368164 590.74584961 C-624.82948419 587.52084892 -625.92498341 584.31333832 -627.03125 581.10546875 C-629.71269567 573.07407241 -631.80132578 564.87687285 -633.9375 556.6875 C-634.2675705 555.42752197 -634.2675705 555.42752197 -634.60430908 554.14208984 C-639.74349788 534.49145354 -644.04948359 514.77324807 -647.51611328 494.75830078 C-647.99253873 492.04253151 -648.49262537 489.331964 -648.99609375 486.62109375 C-652.26537331 468.58204514 -654.06546933 450.38923842 -655.79431152 432.15039062 C-655.98037015 430.20522225 -656.17383124 428.26076542 -656.36816406 426.31640625 C-658.47990479 404.90902863 -658.20445272 383.48483566 -658 362 C-657.32746185 361.96907761 -656.65492371 361.93815521 -655.96200562 361.90629578 C-613.93659724 360.17732026 -613.93659724 360.17732026 -572.06787109 356.37060547 C-568.8975942 355.98762916 -565.72495828 355.63422474 -562.55078125 355.28515625 C-476.97394087 345.70263896 -393.88658478 319.72763311 -313 281 C-311.98583008 280.51289551 -310.97166016 280.02579102 -309.92675781 279.52392578 C-295.60881364 272.60705623 -281.74010438 264.99776698 -268 257 C-267.03819824 256.44393066 -266.07639648 255.88786133 -265.08544922 255.31494141 C-239.4357556 240.43410534 -214.57539493 223.99189525 -191 206 C-189.54862294 204.90565843 -188.09679509 203.81191448 -186.64453125 202.71875 C-167.92170497 188.57214789 -149.89015128 173.63338008 -132.74926758 157.60571289 C-131.51515902 156.47288218 -130.26604429 155.35629432 -129.0065918 154.25170898 C-120.89483751 147.11125669 -113.30499017 139.45601097 -105.67651367 131.80688477 C-103.3108581 129.43585437 -100.93988486 127.07023578 -98.56835938 124.70507812 C-97.04134583 123.17740396 -95.51464243 121.64941972 -93.98828125 120.12109375 C-93.29019852 119.42503525 -92.59211578 118.72897675 -91.87287903 118.01182556 C-87.9181268 114.03840942 -84.13697091 109.96494155 -80.47853088 105.71664429 C-78.5700439 103.50080063 -76.59810139 101.34581589 -74.625 99.1875 C-70.72636603 94.86739209 -67.02496142 90.41928619 -63.3671875 85.89453125 C-61.31608095 83.38649503 -59.22575668 80.91901907 -57.11303711 78.46289062 C-50.63121545 70.91179479 -44.58206319 63.06367256 -38.59667969 55.11572266 C-37.09580514 53.12694913 -35.58477271 51.14640543 -34.0703125 49.16796875 C-21.98569999 33.31254748 -10.5535013 16.91491736 0 0 Z " fill="#D33B4E" transform="translate(1151,701)"/>
<path d="M0 0 C3.5897018 1.53844363 6.03837897 3.71511548 8.875 6.375 C11.62298364 8.91345996 14.05653093 11.03478826 17.25 13 C20.53181108 15.38677169 22.20969502 17.96105022 24.3125 21.390625 C26.68992473 25.06682806 29.34651082 28.519979 32 32 C31.52711548 32.79543213 31.52711548 32.79543213 31.04467773 33.60693359 C22.55343618 47.90268126 14.19718114 62.27228231 5.90722656 76.68554688 C2.77635076 82.12650565 -0.36216542 87.56305248 -3.5 93 C-4.75003758 95.16664498 -6.00003756 97.33331166 -7.25 99.5 C-29.75 138.5 -29.75 138.5 -31.62475586 141.74951172 C-32.8756448 143.91776264 -34.12645852 146.08605697 -35.37719727 148.25439453 C-38.48798335 153.64717915 -41.60004238 159.03922093 -44.71484375 164.4296875 C-51.17019142 175.60449102 -57.60329344 186.79154303 -64 198 C-71.00961705 210.28241289 -78.0657242 222.53757795 -85.14111328 234.78222656 C-88.26324605 240.18670645 -91.38141204 245.59347412 -94.5 251 C-95.74998122 253.1666775 -96.99998121 255.33334417 -98.25 257.5 C-98.86875 258.5725 -99.4875 259.645 -100.125 260.75 C-195.75 426.5 -195.75 426.5 -197.62475586 429.74951172 C-198.8756448 431.91776264 -200.12645852 434.08605697 -201.37719727 436.25439453 C-204.48798335 441.64717915 -207.60004238 447.03922093 -210.71484375 452.4296875 C-217.53502637 464.23629484 -224.3232326 476.06027 -231.07736206 487.90472412 C-236.23416608 496.94471708 -241.45543769 505.94525321 -246.71337891 514.92675781 C-251.16916344 522.54905778 -255.56397146 530.20531311 -259.9375 537.875 C-266.96603507 550.20025196 -274.04240434 562.49722067 -281.14111328 574.78222656 C-284.88550821 581.26385581 -288.62493725 587.74835242 -292.36425781 594.23291016 C-295.54704539 599.75157401 -298.73330016 605.26818724 -301.92578125 610.78125 C-303.2215689 613.0207091 -304.51714415 615.26029111 -305.8125 617.5 C-306.44124023 618.58659912 -307.06998047 619.67319824 -307.71777344 620.79272461 C-311.30536497 627.00941618 -314.80976932 633.26338837 -318.25 639.5625 C-322.64925341 647.57526459 -327.50455325 655.23509395 -332.56591797 662.84375 C-334.03155442 665.04744444 -335.48700032 667.25763072 -336.94140625 669.46875 C-351.99957164 692.29259119 -368.19735231 714.1923295 -385.59521484 735.29101562 C-386.90126401 736.87988323 -388.19528081 738.47862053 -389.48828125 740.078125 C-393.80992506 745.42233392 -398.26694386 750.59810272 -402.89453125 755.6796875 C-404.72917685 757.70154184 -406.52768786 759.74678522 -408.3125 761.8125 C-418.23809606 773.16264434 -428.74625617 783.90590586 -439.41943359 794.54980469 C-441.76386677 796.88883481 -444.10284871 799.23322197 -446.44140625 801.578125 C-447.95540834 803.09146687 -449.4697203 804.60449881 -450.984375 806.1171875 C-451.67102234 806.80585907 -452.35766968 807.49453064 -453.06512451 808.20407104 C-456.99751059 812.1177155 -461.03076373 815.85667571 -465.23692322 819.47503662 C-467.82293549 821.71179344 -470.31058082 824.04454102 -472.8125 826.375 C-477.38297905 830.59274087 -482.0693887 834.6095264 -486.91796875 838.5078125 C-489.23164118 840.37869084 -491.52186579 842.26731879 -493.80078125 844.1796875 C-503.46993424 852.2730079 -513.41547607 859.86445498 -523.62353516 867.26318359 C-525.93581368 868.95309005 -528.22660431 870.66812206 -530.51171875 872.39453125 C-598.11294317 923.31635667 -676.44915673 960.8088603 -757 986 C-757.66263855 986.2075592 -758.3252771 986.41511841 -759.00799561 986.62896729 C-781.07666919 993.51610853 -803.45787544 998.92372004 -826 1004 C-827.16144531 1004.26296875 -828.32289063 1004.5259375 -829.51953125 1004.796875 C-867.81603021 1013.38139531 -906.85238577 1017.81554289 -946 1020 C-947.49490967 1020.08677002 -947.49490967 1020.08677002 -949.02001953 1020.17529297 C-962.68638067 1020.95339125 -976.31358582 1021.12238627 -990 1021 C-985.8226966 1016.01768368 -981.47339681 1011.33119026 -976.86842787 1006.74422938 C-975.81945068 1005.69333505 -975.81945068 1005.69333505 -974.74928202 1004.62121054 C-972.40415539 1002.27302006 -970.05548188 999.92841009 -967.7068119 997.58376408 C-966.00099971 995.87721216 -964.29540703 994.17044079 -962.59001416 992.46346983 C-958.86939818 988.74042329 -955.14722989 985.01893894 -951.42369528 981.2988121 C-945.84952515 975.72972346 -940.27825349 970.15774182 -934.70754278 964.58519302 C-925.21332016 955.08800527 -915.71673091 945.59318722 -906.21885681 936.09965134 C-896.59323746 926.47840919 -886.96870976 916.85607698 -877.3455162 907.23240852 C-876.73784298 906.6247066 -876.13016975 906.01700468 -875.50408218 905.39088755 C-872.40559247 902.29224146 -869.30712054 899.19357759 -866.2086549 896.09490744 C-843.7779699 873.66281469 -821.34486576 851.2331425 -798.9104805 828.80475044 C-776.69165429 806.59184568 -754.47386238 784.37790721 -732.25745773 762.16258049 C-731.56762854 761.47278571 -730.87779935 760.78299093 -730.16706624 760.07229328 C-723.86658591 753.77212614 -717.56611833 747.47194625 -711.26566605 741.17175106 C-695.60309771 725.50982214 -679.94036942 709.84805318 -664.27753258 694.18639278 C-663.56426341 693.47317693 -662.85099424 692.75996108 -662.11611085 692.02513263 C-627.4154373 657.32708091 -592.71292102 622.63087232 -558.01025391 587.93481445 C-545.96690227 575.89375447 -533.92355878 563.85268634 -521.88024902 551.81158447 C-520.75986573 550.6914066 -520.75986573 550.6914066 -519.61684842 549.54859887 C-484.89753409 514.83562804 -450.17952848 480.12134841 -415.46186063 445.40673087 C-413.20810034 443.15316865 -410.95433949 440.89960699 -408.70057853 438.64604545 C-393.76484985 423.71163654 -378.82914372 408.77720507 -363.89345271 393.84275849 C-334.17486347 364.12664579 -304.45614167 334.41066567 -274.73732879 304.69477662 C-273.3220256 303.27961267 -271.90672251 301.86444863 -270.49141951 300.4492845 C-206.77368803 236.7378065 -143.05441441 173.02787094 -79.33447266 109.31860352 C-78.73779486 108.72202566 -78.14111707 108.1254478 -77.52635813 107.51079183 C-47.68433287 77.67376708 -17.84221962 47.83683034 12 18 C10.89576647 16.25312483 9.78999801 14.50721987 8.68359375 12.76171875 C8.06798584 11.78936279 7.45237793 10.81700684 6.81811523 9.81518555 C4.64978332 6.45772142 2.363118 3.22243364 0 0 Z " fill="#8BDE54" transform="translate(1482,42)"/>
<path d="M0 0 C2.58059596 -0.00259012 5.16119152 -0.00560506 7.74178654 -0.0090034 C14.04011973 -0.01650182 20.33844443 -0.01877224 26.63678163 -0.01933246 C34.19396416 -0.02025421 41.75113906 -0.02694517 49.30831826 -0.03367928 C67.55642366 -0.04965405 85.80452815 -0.05563159 104.05263929 -0.06042803 C112.69586774 -0.06277128 121.33909553 -0.06637457 129.98232346 -0.07012341 C159.61041709 -0.08294769 189.23851037 -0.09367069 218.86660671 -0.09712601 C220.72236272 -0.09734763 222.57811872 -0.09756942 224.43387473 -0.09779136 C226.29388354 -0.09801199 228.15389236 -0.09823248 230.01390117 -0.09845281 C233.74486824 -0.09889534 237.4758353 -0.09934246 241.20680237 -0.09979248 C242.13184809 -0.09990187 243.05689382 -0.10001126 244.00997124 -0.10012397 C274.01582125 -0.10375596 304.02164713 -0.11968714 334.0274879 -0.14298284 C365.80728278 -0.16761044 397.58706386 -0.18130007 429.36686856 -0.18249393 C432.85873576 -0.18266536 436.35060297 -0.18288078 439.84247017 -0.18312836 C441.13201314 -0.18321201 441.13201314 -0.18321201 442.44760748 -0.18329735 C456.24245047 -0.1844448 470.0372685 -0.19543988 483.83210308 -0.21001541 C497.70695474 -0.22442166 511.58177462 -0.22759403 525.45663171 -0.21957543 C533.68366037 -0.2151397 541.910586 -0.21889701 550.13760099 -0.23481394 C556.30177748 -0.24579909 562.46584944 -0.24085951 568.63002408 -0.23004207 C571.10755344 -0.22809514 573.58509333 -0.2311165 576.06260794 -0.23988643 C595.60912873 -0.3046437 614.93369634 0.95180744 633.96925354 5.70294189 C634.97262756 5.94762207 635.97600159 6.19230225 637.00978088 6.44439697 C652.25827462 10.34133825 667.40697655 15.74470778 681.78175354 22.14044189 C681.78175354 22.80044189 681.78175354 23.46044189 681.78175354 24.14044189 C681.08952698 24.31583496 680.39730042 24.49122803 679.68409729 24.67193604 C667.11637786 27.86664535 654.58632425 31.12794379 642.15675354 34.82794189 C634.90627803 36.98534602 627.67458918 38.94269535 620.29103088 40.58258057 C614.04182264 42.00394272 607.92269644 43.81268928 601.78175354 45.64044189 C594.98218936 47.66422252 588.2082789 49.60244209 581.28175354 51.14044189 C573.36562 52.90076678 565.63352709 55.1913056 557.86256409 57.50152588 C551.47196182 59.38925655 545.06909454 61.12933902 538.59425354 62.70294189 C532.00379729 64.30493373 525.4796701 66.05168096 518.96925354 67.95294189 C509.45052648 70.72874545 499.86223738 73.20723924 490.2558136 75.65710449 C481.15203277 77.98131585 472.09802015 80.4293268 463.07862854 83.06231689 C456.52439211 84.96314933 449.92747164 86.62836658 443.29859924 88.24664307 C437.2492823 89.73743338 431.26359698 91.3997873 425.28175354 93.14044189 C418.47944211 95.11984419 411.66411029 96.96028342 404.78175354 98.64044189 C398.13017123 100.26589436 391.54213977 102.03422829 384.96925354 103.95294189 C376.0562251 106.55104748 367.08762018 108.90296326 358.09425354 111.20294189 C345.25299775 114.48969989 332.46646548 117.91238529 319.73487854 121.60137939 C310.20166159 124.35794047 300.66130529 126.96179529 291.02052307 129.31622314 C285.72779564 130.62033446 280.49935031 132.06362819 275.28175354 133.64044189 C269.23703066 135.46722197 263.16616396 137.0801154 257.03175354 138.57794189 C250.0659862 140.27901027 243.16633802 142.13605305 236.28175354 144.14044189 C228.56783256 146.38628509 220.82436899 148.41065476 213.02003479 150.31622314 C207.72752578 151.62053816 202.49919809 153.0636742 197.28175354 154.64044189 C191.23703034 156.46722207 185.16616025 158.0801024 179.03175354 159.57794189 C172.1490001 161.25887619 165.33293664 163.09287384 158.53175354 165.07794189 C150.987836 167.2769586 143.41340176 169.26901204 135.78175354 171.14044189 C128.3810274 172.9566684 121.03327732 174.87643494 113.71925354 177.01544189 C104.95381987 179.57827476 96.12995958 181.88379538 87.28175354 184.14044189 C77.76403667 186.56857486 68.28870414 189.0890928 58.8608551 191.84918213 C50.96178406 194.13855561 42.99966801 196.17036605 35.03175354 198.20294189 C26.35445732 200.41658256 17.70679742 202.66908565 9.13917542 205.27960205 C1.48365569 207.58430431 -6.27339299 209.50383316 -14.01707458 211.4866333 C-20.86674984 213.24854949 -27.67969578 215.0942306 -34.46824646 217.07794189 C-43.84250451 219.81348722 -53.28904038 222.24567689 -62.75013733 224.65866089 C-71.75574581 226.95766732 -80.71089384 229.37965514 -89.6313324 231.98980713 C-97.2206191 234.1897415 -104.87772959 236.07703465 -112.55101013 237.95904541 C-119.09234993 239.5751536 -125.55086162 241.36263336 -131.99754333 243.31866455 C-137.28322919 244.90665519 -142.60729694 246.26858317 -147.96824646 247.57794189 C-154.80445236 249.25054674 -161.5836539 251.05594411 -168.34324646 253.01544189 C-186.48285521 258.26655929 -204.74793928 263.03522741 -223.04118347 267.7175293 C-231.78333315 269.95799045 -240.47908912 272.314163 -249.1403656 274.84942627 C-257.03894195 277.13900285 -265.00073505 279.1704905 -272.96824646 281.20294189 C-284.89419756 284.23633875 -284.89419756 284.23633875 -296.71824646 287.64044189 C-306.00994323 290.45755448 -315.42194904 292.81294244 -324.83152771 295.19903564 C-332.27431359 297.09383857 -339.66733831 299.10738401 -347.04515076 301.24078369 C-351.26675367 302.43772197 -355.51518451 303.48894303 -359.78074646 304.51544189 C-367.53722264 306.41762357 -375.20842969 308.53832293 -382.87547302 310.77105713 C-390.05955621 312.84682376 -397.2853745 314.7288144 -404.53074646 316.57794189 C-413.20751604 318.79457677 -421.82288016 321.14685394 -430.40574646 323.70294189 C-439.36164257 326.36886243 -448.36018582 328.72539791 -457.43650818 330.94366455 C-464.70437789 332.73069011 -471.89068565 334.72364446 -479.07444763 336.82037354 C-487.40876805 339.2354723 -495.80637859 341.38312729 -504.2118988 343.534729 C-511.060736 345.29664839 -517.86878163 347.15435327 -524.65574646 349.14044189 C-534.06122069 351.8875808 -543.54747006 354.2559899 -553.05906677 356.60528564 C-562.49977036 358.94283592 -571.86608908 361.47434803 -581.21824646 364.14044189 C-593.73909423 367.69645669 -606.25247551 371.2054796 -618.8969574 374.29669189 C-624.91819427 375.78197886 -630.88423454 377.42317092 -636.84324646 379.14044189 C-637.70981873 379.39011719 -638.57639099 379.63979248 -639.46922302 379.89703369 C-642.91728836 380.89306233 -646.36436375 381.89247822 -649.8110199 382.89337158 C-652.27832779 383.60707127 -654.74796478 384.31211545 -657.21824646 385.01544189 C-657.95381775 385.23071533 -658.68938904 385.44598877 -659.44725037 385.66778564 C-663.12530335 386.70905305 -666.3893016 387.39470776 -670.21824646 387.14044189 C-668.42269828 374.31172265 -656.76732413 361.08594243 -649.78172302 350.50909424 C-648.38732636 348.39659636 -647.00069828 346.27927888 -645.61668396 344.15997314 C-628.06965875 317.41305571 -608.1787746 292.27631545 -587.21824646 268.14044189 C-586.56211365 267.38247314 -585.90598083 266.62450439 -585.22996521 265.84356689 C-581.29309856 261.31843281 -577.27271766 256.87157461 -573.23387146 252.43731689 C-571.2039812 250.20129214 -571.2039812 250.20129214 -569.57762146 247.84356689 C-569.12902771 247.28153564 -568.68043396 246.71950439 -568.21824646 246.14044189 C-567.55824646 246.14044189 -566.89824646 246.14044189 -566.21824646 246.14044189 C-565.95279022 245.54999588 -565.68733398 244.95954987 -565.41383362 244.35121155 C-564.18351421 242.07621822 -562.91416571 240.58877699 -561.08885193 238.76812744 C-560.45413971 238.13033859 -559.81942749 237.49254974 -559.16548157 236.83543396 C-558.47906586 236.15620377 -557.79265015 235.47697357 -557.08543396 234.77716064 C-556.37476776 234.06695267 -555.66410156 233.35674469 -554.93190002 232.62501526 C-553.4261974 231.12233232 -551.91806648 229.62207921 -550.40769958 228.12408447 C-548.11748343 225.85198712 -545.83523335 223.57212867 -543.55418396 221.29083252 C-542.08590218 219.82747194 -540.61716623 218.36456691 -539.14793396 216.90216064 C-538.47366364 216.22900314 -537.79939331 215.55584564 -537.10469055 214.86228943 C-533.19221148 210.98799897 -529.17986165 207.28232115 -525.00570679 203.69102478 C-522.23695748 201.28919509 -519.57887495 198.77242231 -516.90574646 196.26544189 C-511.20363998 190.96692232 -505.29409465 186.00744123 -499.21824646 181.14044189 C-497.95547033 180.11048694 -496.69382519 179.07914435 -495.43309021 178.04669189 C-487.73094214 171.74375033 -479.97698505 165.52984537 -472.03855896 159.52618408 C-470.05679055 158.01753098 -468.0910464 156.48918458 -466.12449646 154.96075439 C-394.63225737 99.87770842 -309.84931221 57.39235713 -65.65574646 2.45294189 C-64.58273788 2.36153427 -64.58273788 2.36153427 -63.48805237 2.26828003 C-42.3357313 0.49268121 -21.22046748 -0.00863881 0 0 Z " fill="#58F1F5" transform="translate(776.2182464599609,-0.14044189453125)"/>
<path d="M0 0 C0.66 0 1.32 0 2 0 C2.8726892 1.40177604 3.6709775 2.84996598 4.4375 4.3125 C7.05799523 8.94422531 10.0539891 12.09914833 13.9375 15.625 C18.86386355 20.30504537 18.86386355 20.30504537 19.484375 23.47265625 C19.1875 25.6875 19.1875 25.6875 18 29 C16.02 27.02 16.02 27.02 14 25 C13.49399499 26.90188089 12.98799001 28.80376179 12.48198509 30.7056427 C12.0147066 32.46196501 11.54742778 34.21828723 11.0801487 35.97460938 C9.70850026 41.13010976 8.33685807 46.2856118 6.96522522 51.44111633 C4.09449397 62.23119983 1.22371446 73.02127048 -1.64724731 83.81129265 C-3.33907838 90.16976054 -5.03087654 96.52823719 -6.72265625 102.88671875 C-6.89405278 103.53090303 -7.06544931 104.17508731 -7.24203968 104.83879232 C-12.00580662 122.74319979 -16.76806617 140.64800742 -21.5286026 158.55327415 C-23.92792747 167.57736137 -26.32764793 176.60134338 -28.72751617 185.6252861 C-29.32780712 187.88249691 -29.92808269 190.1397118 -30.5283432 192.39693069 C-37.32899192 217.96962301 -44.1386326 243.53985533 -50.98046875 269.1015625 C-51.26493677 270.16440901 -51.54940479 271.22725552 -51.84249306 272.32230949 C-53.26755457 277.64657393 -54.69275956 282.97079996 -56.11801147 288.29501343 C-56.39793819 289.34072384 -56.67786491 290.38643425 -56.96627426 291.46383286 C-57.5298378 293.56908498 -58.09341859 295.67433249 -58.65701675 297.77957535 C-67.1971722 329.68182101 -75.66006546 361.60362374 -84.06359482 393.54211426 C-91.18037172 420.58891445 -98.35929934 447.6178248 -105.625 474.625 C-114.50358145 507.62836893 -123.29887606 540.65342151 -132.0625 573.6875 C-132.38587971 574.90639671 -132.70925941 576.12529343 -133.04243851 577.3811264 C-135.92929585 588.26246777 -138.81576286 599.14391263 -141.7016449 610.0255127 C-146.77772824 629.16525967 -151.86025372 648.30328705 -156.94828415 667.4398613 C-157.56419573 669.75637783 -158.18006642 672.07290524 -158.79592896 674.38943481 C-171.83894786 723.44910124 -184.89470771 772.50538073 -197.94787598 821.56234741 C-202.63202818 839.16653544 -207.31609926 856.77074506 -212 874.375 C-212.30537689 875.52274147 -212.61075378 876.67048294 -212.92538452 877.85300446 C-220.78713979 907.40105992 -228.64631461 936.9497986 -236.5 966.5 C-244.69927216 997.35038528 -252.90387911 1028.19935003 -261.11080933 1059.04769897 C-262.04201087 1062.5479836 -262.9731619 1066.04828165 -263.90429688 1069.54858398 C-265.38706237 1075.12252529 -266.86996729 1080.6964295 -268.35297775 1086.27030563 C-268.93059291 1088.44131886 -269.50817142 1090.61234184 -270.08571243 1092.78337479 C-273.19021872 1104.45322911 -276.29837995 1116.12208957 -279.41552734 1127.78857422 C-279.96635098 1129.85094016 -280.51716796 1131.91330789 -281.06797791 1133.97567749 C-282.08932716 1137.79971846 -283.1119118 1141.62342593 -284.13526917 1145.44692993 C-287.14636124 1156.7108688 -290.05666287 1167.99367498 -292.83984375 1179.31640625 C-294.13900606 1184.59485067 -295.53026945 1189.84500985 -296.94976807 1195.092453 C-298.08555813 1199.30444205 -299.19279266 1203.52378141 -300.29980469 1207.7434082 C-302.88983707 1217.59958603 -305.51175961 1227.44708981 -308.140625 1237.29296875 C-308.62570191 1239.11075913 -309.11074219 1240.92855929 -309.5957489 1242.74636841 C-310.61910712 1246.58181304 -311.64261446 1250.41721783 -312.66622925 1254.25259399 C-315.34784643 1264.30084843 -318.02740438 1274.34965216 -320.70703125 1284.3984375 C-320.97459795 1285.40182726 -321.24216465 1286.40521702 -321.51783943 1287.43901253 C-323.34541124 1294.29262571 -325.17279154 1301.14628994 -327 1308 C-327.236903 1308.88859207 -327.473806 1309.77718414 -327.71788788 1310.69270325 C-330.42686787 1320.8541095 -333.13401983 1331.01599907 -335.83752441 1341.17886353 C-336.56735984 1343.92219815 -337.29793761 1346.66533337 -338.0291748 1349.40829468 C-339.03027822 1353.16366841 -340.02895585 1356.91968461 -341.02734375 1360.67578125 C-341.31784103 1361.7641629 -341.60833832 1362.85254456 -341.90763855 1363.97390747 C-342.17135757 1364.96776459 -342.4350766 1365.9616217 -342.70678711 1366.9855957 C-343.04787758 1368.26718315 -343.04787758 1368.26718315 -343.39585876 1369.57466125 C-344.00945224 1372.03794624 -344.52211655 1374.50714657 -345 1377 C-349.35220666 1373.05225551 -351.74677999 1367.70660325 -354.5625 1362.625 C-354.88547058 1362.04254517 -355.20844116 1361.46009033 -355.54119873 1360.85998535 C-370.12958579 1334.45231555 -382.97466172 1307.0783791 -394 1279 C-394.26514404 1278.32511536 -394.53028809 1277.65023071 -394.8034668 1276.95489502 C-422.85666799 1205.30419791 -440.92732995 1129.76670353 -447 1053 C-447.10151367 1051.85869629 -447.20302734 1050.71739258 -447.30761719 1049.54150391 C-450.90689075 1008.59267073 -450.797856 965.92499452 -447 925 C-446.86945917 923.53079122 -446.73926546 922.06155157 -446.609375 920.59228516 C-438.92053382 834.78654024 -417.61720672 749.98401038 -364.80200195 634.58911133 C-363.2448734 631.54079872 -361.80132192 628.52744088 -360.47265625 625.3671875 C-359.0644201 622.14729477 -357.46811235 619.38402748 -355.5625 616.4375 C-351.81361041 610.5170737 -348.45104352 604.4161357 -345.125 598.25 C-341.20590786 590.99742017 -337.20239354 583.82069827 -332.98950195 576.73510742 C-329.20922328 570.37544893 -325.50521867 563.97335832 -321.8125 557.5625 C-321.17465576 556.45551758 -320.53681152 555.34853516 -319.87963867 554.20800781 C-318.571414 551.93712726 -317.26339163 549.66613015 -315.95556641 547.39501953 C-312.80667944 541.92830016 -309.65311964 536.46427871 -306.5 531 C-305.2486933 528.83073183 -303.99739122 526.661461 -302.74609375 524.4921875 C-300.26069098 520.18398349 -297.77358023 515.87677211 -295.28515625 511.5703125 C-288.39981099 499.65107506 -281.54443537 487.71539886 -274.72149658 475.76037598 C-269.78576942 467.11303161 -264.82146826 458.4830204 -259.82421875 449.87109375 C-256.45587704 444.06582161 -253.10314341 438.25155984 -249.75 432.4375 C-249.11570068 431.33776855 -248.48140137 430.23803711 -247.82788086 429.10498047 C-246.53169703 426.85760843 -245.23555475 424.61021242 -243.93945312 422.36279297 C-240.79356797 416.90818293 -237.64674631 411.45411327 -234.5 406 C-233.2499953 403.83333604 -231.99999531 401.66666937 -230.75 399.5 C-208.25 360.5 -208.25 360.5 -206.37524414 357.25048828 C-205.1243552 355.08223736 -203.87354148 352.91394303 -202.62280273 350.74560547 C-199.51201665 345.35282085 -196.39995762 339.96077907 -193.28515625 334.5703125 C-186.46497363 322.76370516 -179.6767674 310.93973 -172.92263794 299.09527588 C-167.76664555 290.05670572 -162.54679327 281.05722862 -157.28881836 272.07763672 C-152.80810487 264.41397544 -148.39496772 256.71298363 -144 249 C-138.4593297 239.27733187 -132.86396578 229.58860003 -127.21435547 219.92871094 C-117.36906414 203.09005992 -107.65976224 186.17325115 -97.99130249 169.23260498 C-91.31733874 157.53968311 -84.59487959 145.87506392 -77.85888672 134.21777344 C-74.73675395 128.81329355 -71.61858796 123.40652588 -68.5 118 C-67.25001878 115.8333225 -66.00001879 113.66665583 -64.75 111.5 C-64.13125 110.4275 -63.5125 109.355 -62.875 108.25 C-57.25 98.5 -57.25 98.5 -55.37524414 95.25048828 C-54.1243552 93.08223736 -52.87354148 90.91394303 -51.62280273 88.74560547 C-48.51201665 83.35282085 -45.39995762 77.96077907 -42.28515625 72.5703125 C-41.04418975 70.42192183 -39.80330451 68.27348423 -38.5625 66.125 C-37.94632813 65.05838135 -37.33015625 63.9917627 -36.6953125 62.89282227 C-33.45540151 57.27812725 -30.22967178 51.6557456 -27.02734375 46.01953125 C-20.31617592 34.21010759 -13.55685762 22.43155705 -6.625 10.75 C-5.98820312 9.66581787 -5.35140625 8.58163574 -4.6953125 7.46459961 C-4.1075 6.48112549 -3.5196875 5.49765137 -2.9140625 4.484375 C-2.3979541 3.61522461 -1.8818457 2.74607422 -1.35009766 1.85058594 C-0.90456543 1.23989258 -0.4590332 0.62919922 0 0 Z " fill="#FEBB00" transform="translate(1513,74)"/>
<path d="M0 0 C6.17140582 3.7931286 12.12229413 7.74796722 17.9375 12.0625 C94.28125886 68.57607522 180.4411898 112.55646333 352 157 C352.74560181 157.12312561 353.49120361 157.24625122 354.25939941 157.37310791 C397.37042052 164.43725689 440.35862033 167.63186193 484 169 C484.0093457 169.99064453 484.01869141 170.98128906 484.02832031 172.00195312 C484.25889609 193.14795272 485.10268684 214.17406897 486.875 235.25 C486.99663513 236.72859497 486.99663513 236.72859497 487.12072754 238.23706055 C488.19349646 251.12211765 489.71279168 263.88668793 491.65278625 276.66937256 C492.11948873 279.80205269 492.54731173 282.93962744 492.97631836 286.07765198 C497.85835061 321.48409007 505.89892114 357.03580609 517 391 C517.43775023 392.34746508 517.87540719 393.69496046 518.31298828 395.04248047 C536.05393421 449.56219671 557.55414418 502.60621506 586.42333984 552.27783203 C587.92020041 554.86222276 589.39372494 557.45860951 590.86328125 560.05859375 C605.29617157 585.31554549 622.14185867 609.31794625 639 633 C640.72648341 635.43551352 642.4513255 637.87217413 644.17480469 640.30981445 C645.23482185 641.80834497 646.29655931 643.30566069 647.36035156 644.80151367 C650.88971932 649.77943864 650.88971932 649.77943864 652 652 C641.58338273 651.47922636 631.54482508 649.86351012 621.3125 647.9375 C620.48841644 647.78382965 619.66433289 647.6301593 618.8152771 647.47183228 C533.73830912 631.5439385 453.14205967 600.69722915 296 502 C295.37464355 501.51644043 294.74928711 501.03288086 294.10498047 500.53466797 C286.60646763 494.73498999 279.28271187 488.76999385 272.078125 482.609375 C269.28333811 480.22527908 266.42948955 477.92194485 263.5625 475.625 C258.54824976 471.54908898 253.81957713 467.21147206 249.12133789 462.77978516 C246.27243109 460.09428199 243.39541601 457.46990606 240.41894531 454.92602539 C235.34174446 450.49225875 230.59913325 445.74265965 225.83984375 440.97265625 C224.8817014 440.01518975 223.92341084 439.05787155 222.96498108 438.10069275 C220.96908713 436.10626253 218.97498548 434.11006259 216.98217773 432.11254883 C214.44858137 429.57325601 211.91052017 427.03848097 209.37108517 424.50502872 C207.39509297 422.53267816 205.42152321 420.55791737 203.44864082 418.58245659 C202.06589401 417.19873372 200.6811607 415.81699686 199.29637146 414.43531799 C194.3268347 409.44745049 189.57652381 404.34923061 185 399 C183.52465464 397.37152983 182.0460657 395.74598483 180.5625 394.125 C176.88494513 390.04919891 173.41485669 385.85613722 170.015625 381.546875 C167.95575326 378.94409133 165.85846975 376.37603517 163.75 373.8125 C162.16582736 371.87568619 160.5825583 369.9381331 159 368 C158.55140625 367.4524707 158.1028125 366.90494141 157.640625 366.34082031 C149.92035751 356.89727882 142.65406245 347.18772378 135.59375 337.2421875 C134.05922584 335.08332262 132.51510505 332.93164999 130.96875 330.78125 C112.24416544 304.64184063 95.39689051 277.10350814 80.40966797 248.66357422 C79.12487415 246.23595029 77.81960562 243.82112645 76.50390625 241.41015625 C57.05745724 205.54508703 41.98236807 167.615854 29 129 C28.5982959 127.80971191 28.1965918 126.61942383 27.78271484 125.39306641 C17.68266883 95.1101419 10.21726957 63.92698234 4.375 32.5625 C4.20660614 31.66488953 4.03821228 30.76727905 3.86471558 29.84246826 C2.01639621 19.90151665 0.46965042 10.11581186 0 0 Z " fill="#BF62C5" transform="translate(9,894)"/>
<path d="M0 0 C0.66 0.33 1.32 0.66 2 1 C-3.30152442 4.87335866 -8.61189501 8.73129042 -13.96777344 12.52905273 C-27.42674524 22.08446414 -40.48949927 32.0566669 -53.23242188 42.54833984 C-54.78964386 43.82724066 -56.35513181 45.09606249 -57.921875 46.36328125 C-70.80717816 56.7897026 -83.06335342 67.82464845 -95.09960938 79.21289062 C-97.45995208 81.43253459 -99.84546519 83.62354497 -102.23535156 85.8112793 C-109.56370341 92.52093319 -116.80714722 99.29823254 -123.328125 106.80859375 C-126.89947933 110.91963647 -130.62176387 114.86812459 -134.375 118.8125 C-139.3951818 124.12813114 -144.21099379 129.51658976 -148.76953125 135.23828125 C-151.39952547 138.49468391 -154.13349063 141.6500878 -156.875 144.8125 C-162.81382351 151.70340576 -168.47218904 158.77635708 -174 166 C-174.55526367 166.72396973 -175.11052734 167.44793945 -175.68261719 168.19384766 C-203.04831891 203.98265526 -227.18199867 242.04469485 -248 282 C-248.30166077 282.5779834 -248.60332153 283.1559668 -248.91412354 283.75146484 C-286.26093538 355.41638117 -312.03273554 432.91107484 -334 577 C-334.11327637 578.19641113 -334.22655273 579.39282227 -334.34326172 580.62548828 C-336.31412359 602.36723943 -336.60528323 624.18467806 -337 646 C-409.92560103 647.07437989 -483.13312102 635.64857887 -553 615 C-553.64443054 614.81111206 -554.28886108 614.62222412 -554.95281982 614.4276123 C-590.62154865 603.96761905 -625.37572601 590.85035587 -659 575 C-660.05848145 574.50580566 -661.11696289 574.01161133 -662.20751953 573.50244141 C-686.18824427 562.28928343 -709.64880813 550.18233458 -732.36328125 536.57714844 C-734.70395597 535.17707819 -737.05319904 533.7931757 -739.40625 532.4140625 C-760.32439955 520.02673737 -780.33120031 505.86889769 -799.92773438 491.50585938 C-803.7984281 488.69313094 -807.71277025 485.9420125 -811.625 483.1875 C-812.36733887 482.66470459 -813.10967773 482.14190918 -813.87451172 481.60327148 C-815.58242556 480.40135319 -817.29111909 479.20054292 -819 478 C-817.68596821 474.05790462 -816.21143347 473.69942468 -812.62109375 471.69921875 C-811.48446289 471.05903809 -810.34783203 470.41885742 -809.17675781 469.75927734 C-808.26343689 469.25324982 -808.26343689 469.25324982 -807.33166504 468.73699951 C-804.7659473 467.31541298 -802.21153109 465.87404768 -799.65609741 464.43408203 C-798.34553236 463.69601417 -797.03434833 462.9590444 -795.7225647 462.22314453 C-789.69311544 458.83940315 -783.71516471 455.37077114 -777.75 451.875 C-776.77587158 451.30539551 -775.80174316 450.73579102 -774.7980957 450.14892578 C-772.84069762 449.00423147 -770.88358283 447.85905259 -768.92675781 446.71337891 C-749.11688346 435.11630699 -729.24961648 423.62081465 -709.3515625 412.17578125 C-699.24367497 406.35807739 -689.15178948 400.51907244 -679.125 394.5625 C-670.84074118 389.64224905 -662.49726246 384.83098712 -654.125 380.0625 C-639.00554068 371.44987429 -623.97824771 362.68439333 -608.97265625 353.875 C-606.52353694 352.43733051 -604.07431889 350.99982945 -601.625 349.5625 C-601.01426636 349.20409027 -600.40353271 348.84568054 -599.77429199 348.47640991 C-585.82061449 340.29010202 -571.80729446 332.20813201 -557.77929688 324.14990234 C-545.6399582 317.17620069 -533.53324738 310.15551244 -521.5 303 C-509.47125793 295.84716662 -497.36889483 288.82959336 -485.23388672 281.85888672 C-479.81863393 278.74611798 -474.40959305 275.62259081 -469 272.5 C-462.45535739 268.72267106 -455.90968865 264.94717559 -449.359375 261.1796875 C-439.20844974 255.33811731 -429.07280629 249.47545573 -419 243.5 C-405.62910037 235.56802786 -392.14502697 227.83368784 -378.66796875 220.08398438 C-366.51296514 213.09235774 -354.38197823 206.06707389 -342.32275391 198.91137695 C-334.19041998 194.09376531 -326.00492333 189.37075777 -317.8125 184.65625 C-310.52698691 180.46234353 -303.2573718 176.24240257 -296 172 C-287.78755998 167.19979473 -279.55682462 162.43272191 -271.3125 157.6875 C-262.01575586 152.33516774 -252.74915481 146.93393608 -243.5 141.5 C-233.17950876 135.4366471 -222.83126193 129.42426624 -212.45703125 123.453125 C-205.29025704 119.32653496 -198.13976887 115.1731254 -191 111 C-181.59012315 105.50049973 -172.15529405 100.04550785 -162.7109375 94.60546875 C-154.46631859 89.85349866 -146.24366897 85.06487347 -138.02807617 80.26293945 C-130.80486001 76.04432601 -123.56227135 71.86028254 -116.3125 67.6875 C-107.01575343 62.33516634 -97.74926165 56.93375687 -88.5 51.5 C-73.94690519 42.95136102 -59.33009804 34.51551859 -44.69873047 26.1015625 C-41.38190455 24.19371839 -38.0658971 22.28445789 -34.75 20.375 C-33.68434814 19.76253418 -32.61869629 19.15006836 -31.52075195 18.51904297 C-26.16816095 15.435276 -20.84014507 12.31747316 -15.546875 9.1328125 C-14.52754883 8.52131348 -13.50822266 7.90981445 -12.45800781 7.27978516 C-10.52597084 6.11730996 -8.59802682 4.9479974 -6.67480469 3.77099609 C-5.82305664 3.25875488 -4.97130859 2.74651367 -4.09375 2.21875 C-3.34802734 1.76435547 -2.60230469 1.30996094 -1.83398438 0.84179688 C-1.22876953 0.56400391 -0.62355469 0.28621094 0 0 Z " fill="#3278B2" transform="translate(829,417)"/>
<path d="M0 0 C0.33 0.66 0.66 1.32 1 2 C-0.13305664 4.67260742 -0.13305664 4.67260742 -1.91015625 8.10546875 C-2.57004861 9.39596458 -3.22987633 10.68649347 -3.88964844 11.97705078 C-4.24345581 12.66188538 -4.59726318 13.34671997 -4.96179199 14.05230713 C-18.53481929 40.38175228 -30.36801336 67.35925477 -41 95 C-41.55977539 96.44947021 -41.55977539 96.44947021 -42.13085938 97.92822266 C-65.16889016 158.04105814 -78.75818589 221.94332146 -85.3125 285.875 C-85.39399292 286.66962646 -85.47548584 287.46425293 -85.55944824 288.28295898 C-87.18114506 304.33248296 -88.0655564 320.37694089 -88.5625 336.5 C-88.59376984 337.51163208 -88.59376984 337.51163208 -88.62567139 338.54370117 C-88.93599314 348.70022978 -89.20725269 358.83858156 -89 369 C-88.98211426 370.01739258 -88.96422852 371.03478516 -88.94580078 372.08300781 C-87.8361029 429.41469817 -80.60075584 486.28747952 -67 542 C-66.84184814 542.65170166 -66.68369629 543.30340332 -66.52075195 543.97485352 C-62.05699659 562.32334413 -56.77290603 580.35371937 -50.9375 598.3125 C-50.65212372 599.1938562 -50.36674744 600.0752124 -50.07272339 600.98327637 C-44.48551702 618.16917667 -38.20739341 635.09562183 -31.1875 651.75 C-30.76992432 652.74346436 -30.35234863 653.73692871 -29.92211914 654.76049805 C-28.62118488 657.8431098 -27.31187332 660.92202955 -26 664 C-25.58943359 664.96824707 -25.17886719 665.93649414 -24.75585938 666.93408203 C-13.36901769 693.68419397 -0.90583168 720.10005883 13.96289062 745.10351562 C15 747 15 747 16 750 C-53.71501994 792.67463844 -134.0707579 822.22786152 -287.1875 850.25 C-288.48357178 850.40106201 -289.77964355 850.55212402 -291.11499023 850.70776367 C-295.406885 851.18072839 -299.70059603 851.6022989 -304 852 C-304.9151236 852.08720306 -305.83024719 852.17440613 -306.77310181 852.26425171 C-326.3056831 854.07713268 -345.75354953 854.36301489 -365.35133743 854.31805801 C-367.84953119 854.31241637 -370.34771816 854.30959672 -372.84591675 854.30697632 C-395.87619583 854.27185649 -418.75442724 853.98040942 -441.65179443 851.27587891 C-444.29775605 850.96501813 -446.94489954 850.66567356 -449.59228516 850.3671875 C-461.73851341 848.992391 -473.87287913 847.53386869 -486 846 C-485.505 843.525 -485.505 843.525 -485 841 C-484.34 841 -483.68 841 -483 841 C-482.75765625 840.33613281 -482.5153125 839.67226562 -482.265625 838.98828125 C-480.67517794 835.23305902 -478.74387564 831.74138773 -476.75 828.1875 C-476.31381348 827.40616699 -475.87762695 826.62483398 -475.42822266 825.81982422 C-471.24004651 818.35622355 -466.9209478 810.970182 -462.59448242 803.58618164 C-458.03318402 795.79444661 -453.53398382 787.96849785 -449.0625 780.125 C-439.14887819 762.7414821 -429.16524308 745.39941691 -419.0625 728.125 C-413.32256807 718.30855493 -407.6667672 708.44534606 -402.03369141 698.56738281 C-395.68076105 687.42847496 -389.27453369 676.3206742 -382.85888672 665.21777344 C-379.73675395 659.81329355 -376.61858796 654.40652588 -373.5 649 C-372.25001878 646.8333225 -371.00001879 644.66665583 -369.75 642.5 C-369.13125 641.4275 -368.5125 640.355 -367.875 639.25 C-347.25 603.50000001 -347.25 603.50000001 -345.37524414 600.25048828 C-344.1243552 598.08223736 -342.87354148 595.91394303 -341.62280273 593.74560547 C-338.51201665 588.35282085 -335.39995762 582.96077907 -332.28515625 577.5703125 C-325.82980858 566.39550898 -319.39670656 555.20845697 -313 544 C-305.99200141 531.72042301 -298.93725374 519.46825804 -291.86328125 507.2265625 C-289.9796495 503.96475993 -288.09877679 500.70138156 -286.21875 497.4375 C-280.19560214 486.98286968 -274.15466632 476.53957993 -268.0625 466.125 C-262.32246579 456.30861542 -256.66676663 446.44534506 -251.03369141 436.56738281 C-243.45501657 423.27931638 -235.79969268 410.03569781 -228.14550781 396.79101562 C-226.28397328 393.56931725 -224.42301161 390.34728921 -222.5625 387.125 C-221.94697266 386.05894531 -221.33144531 384.99289062 -220.69726562 383.89453125 C-216.42773665 376.49282962 -212.18474626 369.07635608 -207.95184326 361.65368652 C-202.09305994 351.38010426 -196.18476524 341.13728806 -190.21411133 330.92822266 C-180.34298985 314.04579818 -170.61054463 297.08400264 -160.9229126 280.0958252 C-155.76683517 271.05706757 -150.54689688 262.05740558 -145.28881836 253.07763672 C-140.80810607 245.41397748 -136.39484244 237.71305362 -132 230 C-126.48736165 220.32518781 -120.91575433 210.68717863 -115.2890625 201.078125 C-110.80833854 193.4142623 -106.39493248 185.71321165 -102 178 C-97.04621177 169.30598314 -92.05621631 160.63502771 -87 152 C-81.9681021 143.4048271 -76.99610876 134.77687778 -72.0625 126.125 C-65.03396493 113.79974804 -57.95759566 101.50277933 -50.85888672 89.21777344 C-47.73675397 83.81329358 -44.61855266 78.40654621 -41.5 73 C-37.7162997 66.4405645 -33.93190491 59.88153412 -30.14453125 53.32421875 C-27.02160763 47.91693433 -23.90257427 42.5074211 -20.78564453 37.09667969 C-19.02560134 34.04439806 -17.26094145 30.9948179 -15.49609375 27.9453125 C-14.41383451 26.06783974 -13.33179174 24.19024217 -12.25 22.3125 C-11.76055908 21.46969482 -11.27111816 20.62688965 -10.7668457 19.75854492 C-8.18143911 15.2587358 -5.99908441 10.78586776 -4 6 C-2.76869481 3.89566237 -1.41070547 1.99444567 0 0 Z " fill="#ED5924" transform="translate(1151,701)"/>
<path d="M0 0 C6.17140582 3.7931286 12.12229413 7.74796722 17.9375 12.0625 C94.28125886 68.57607522 180.4411898 112.55646333 352 157 C352.74560181 157.12312561 353.49120361 157.24625122 354.25939941 157.37310791 C396.69214694 164.32611534 439.04727667 167.58568198 482 169 C476.8562515 175.22395983 471.2361774 180.90151808 465.52175903 186.59849548 C464.45629371 187.66439739 463.39104837 188.73051924 462.32600296 189.79684073 C459.41159471 192.71347678 456.49409151 195.62699937 453.57605791 198.54000771 C450.42503482 201.68670181 447.27691305 204.83629623 444.12843323 207.98553467 C438.67734488 213.4371467 433.22443241 218.88692861 427.77026749 224.33546257 C419.88451717 232.21307682 412.00153818 240.0934595 404.11922716 247.97451491 C391.32981318 260.76174168 378.53816884 273.5467349 365.74511719 286.33032227 C353.31979025 298.74646652 340.89551676 311.16366336 328.47265625 323.58227539 C327.70657473 324.34809419 326.9404932 325.11391299 326.15119709 325.90293842 C322.30789737 329.74493307 318.46461833 333.58694841 314.62134957 337.42897403 C282.75077139 369.28918991 250.87657145 401.14578054 219 433 C217.8851043 432.05063855 216.77110115 431.10022886 215.6574707 430.14938354 C215.0370137 429.62023787 214.4165567 429.09109219 213.77729797 428.54591179 C211.49024101 426.55660647 209.33218907 424.46180463 207.1875 422.3203125 C206.33929688 421.47339844 205.49109375 420.62648438 204.6171875 419.75390625 C203.75351563 418.88636719 202.88984375 418.01882813 202 417.125 C200.70449219 415.83529297 200.70449219 415.83529297 199.3828125 414.51953125 C194.37853973 409.5076532 189.61128265 404.3730016 185 399 C183.52465464 397.37152983 182.0460657 395.74598483 180.5625 394.125 C176.88494513 390.04919891 173.41485669 385.85613722 170.015625 381.546875 C167.95575326 378.94409133 165.85846975 376.37603517 163.75 373.8125 C162.16582736 371.87568619 160.5825583 369.9381331 159 368 C158.55140625 367.4524707 158.1028125 366.90494141 157.640625 366.34082031 C149.92035751 356.89727882 142.65406245 347.18772378 135.59375 337.2421875 C134.05922584 335.08332262 132.51510505 332.93164999 130.96875 330.78125 C112.24416544 304.64184063 95.39689051 277.10350814 80.40966797 248.66357422 C79.12487415 246.23595029 77.81960562 243.82112645 76.50390625 241.41015625 C57.05745724 205.54508703 41.98236807 167.615854 29 129 C28.5982959 127.80971191 28.1965918 126.61942383 27.78271484 125.39306641 C17.68266883 95.1101419 10.21726957 63.92698234 4.375 32.5625 C4.20660614 31.66488953 4.03821228 30.76727905 3.86471558 29.84246826 C2.01639621 19.90151665 0.46965042 10.11581186 0 0 Z " fill="#9A65C2" transform="translate(9,894)"/>
<path d="M0 0 C0.66 0.33 1.32 0.66 2 1 C-14.5 17.5 -31 34 -48 51 C-48.66 50.67 -49.32 50.34 -50 50 C-49.34 49.01 -48.68 48.02 -48 47 C-47.34 47 -46.68 47 -46 47 C-45.73454376 46.40955399 -45.46908752 45.81910797 -45.19558716 45.21076965 C-43.96526775 42.93577633 -42.69591925 41.4483351 -40.87060547 39.62768555 C-39.91853714 38.67100227 -39.91853714 38.67100227 -38.94723511 37.69499207 C-38.2608194 37.01576187 -37.57440369 36.33653168 -36.8671875 35.63671875 C-35.8011882 34.57140678 -35.8011882 34.57140678 -34.71365356 33.48457336 C-33.20795094 31.98189043 -31.69982002 30.48163732 -30.18945312 28.98364258 C-27.89923697 26.71154523 -25.61698689 24.43168678 -23.3359375 22.15039062 C-21.86765572 20.68703005 -20.39891977 19.22412502 -18.9296875 17.76171875 C-18.25541718 17.08856125 -17.58114685 16.41540375 -16.88644409 15.72184753 C-12.96916774 11.84280662 -8.95156342 8.13776194 -4.76419067 4.55134583 C-3.1058222 3.09305503 -1.54237085 1.57954781 0 0 Z " fill="#3EDAC3" transform="translate(256,199)"/>
<path d="M0 0 C0.66 0.33 1.32 0.66 2 1 C-0.34936448 2.61159752 -2.70406234 4.21427505 -5.0625 5.8125 C-6.04766602 6.49022461 -6.04766602 6.49022461 -7.05273438 7.18164062 C-11.2513709 10.01520321 -15.30212826 12.11207024 -20 14 C-21.8205677 14.87932182 -23.63411524 15.77345567 -25.4375 16.6875 C-26.73494141 17.34298828 -26.73494141 17.34298828 -28.05859375 18.01171875 C-29.01958984 18.50091797 -29.01958984 18.50091797 -30 19 C-30 17.68 -30 16.36 -30 15 C-29.33991943 14.68772461 -28.67983887 14.37544922 -27.99975586 14.05371094 C-24.97763941 12.62200082 -21.95756264 11.18603705 -18.9375 9.75 C-17.89916016 9.25886719 -16.86082031 8.76773437 -15.79101562 8.26171875 C-11.39304284 6.167446 -7.05347416 4.09347264 -2.87890625 1.578125 C-1.45384766 0.79695313 -1.45384766 0.79695313 0 0 Z " fill="#3EA2E7" transform="translate(846,406)"/>
<path d="M0 0 C0.33 0.66 0.66 1.32 1 2 C-0.07983398 4.61376953 -0.07983398 4.61376953 -1.74609375 7.8828125 C-2.33583984 9.04941406 -2.92558594 10.21601562 -3.53320312 11.41796875 C-4.16779826 12.6537334 -4.80256615 13.88940935 -5.4375 15.125 C-6.06908768 16.36811982 -6.69995654 17.61160514 -7.33007812 18.85546875 C-8.87966419 21.90732527 -10.4365736 24.95521682 -12 28 C-12.66 27.01 -13.32 26.02 -14 25 C-13.52949219 24.21496094 -13.05898437 23.42992187 -12.57421875 22.62109375 C-8.59453483 16.05197901 -8.59453483 16.05197901 -5.3125 9.125 C-3.87434168 5.70081353 -2.13823695 3.02302466 0 0 Z " fill="#E24D3B" transform="translate(1151,701)"/>
<path d="M0 0 C0.66 0.33 1.32 0.66 2 1 C-2.95 4.3 -7.9 7.6 -13 11 C-13.66 10.67 -14.32 10.34 -15 10 C-15 9.34 -15 8.68 -15 8 C-12.54665445 6.63603538 -10.08808766 5.28365831 -7.625 3.9375 C-6.92632813 3.54755859 -6.22765625 3.15761719 -5.5078125 2.75585938 C-3.70389816 1.77584822 -1.85416518 0.88124929 0 0 Z " fill="#3698D2" transform="translate(846,406)"/>
</svg>
