<?xml version="1.0" encoding="UTF-8"?>
<svg version="1.1" xmlns="http://www.w3.org/2000/svg" width="4770" height="1332">
<path d="M0 0 C1.04806824 -0.0049649 2.09613647 -0.00992981 3.17596436 -0.01504517 C6.63766138 -0.02962746 10.09931248 -0.03646441 13.56103516 -0.04199219 C15.98035685 -0.04774952 18.39967855 -0.05350717 20.81900024 -0.05926514 C25.89463513 -0.0697658 30.97025423 -0.07561371 36.04589844 -0.07910156 C42.51242913 -0.08456589 48.97874711 -0.10855383 55.44521141 -0.13707352 C60.44703758 -0.15581366 65.44881385 -0.16091165 70.45067215 -0.16243744 C72.83221212 -0.16544193 75.21375168 -0.17339482 77.59525681 -0.18662262 C100.38263835 -0.30409569 118.78387342 0.86516538 136.49072266 16.69628906 C144.29944193 24.99481458 149.415771 36.55641684 154.66259766 46.53613281 C155.97263863 49.01079731 157.28717671 51.48304211 158.60400391 53.95410156 C158.93072083 54.56725723 159.25743774 55.1804129 159.59405518 55.81214905 C162.66227495 61.54921129 165.86672341 67.20356852 169.10009766 72.84863281 C174.24139704 81.8403937 179.06937578 90.96763463 183.81152344 100.17529297 C187.31726232 106.97131055 190.92798783 113.69071109 194.67382812 120.35693359 C198.11426377 126.48413315 201.45582995 132.66176913 204.78759766 138.84863281 C209.08542726 146.82363486 213.4811241 154.73265375 217.97509766 162.59863281 C223.08974469 171.56175768 227.89008032 180.65820516 232.60668945 189.8359375 C236.67767197 197.72060815 240.98020049 205.44595873 245.38916016 213.14550781 C250.26948866 221.70646592 254.89305815 230.39283458 259.50201416 239.10150146 C263.93210882 247.46623184 268.45851601 255.7585285 273.16259766 263.97363281 C278.28470626 272.92330322 283.0907081 282.0090283 287.81176758 291.17578125 C291.31699329 297.97077141 294.92866133 304.68826396 298.67163086 311.35473633 C302.12462131 317.50808024 305.49573706 323.70351886 308.85009766 329.91113281 C309.96336863 331.96973212 311.07664988 334.02832587 312.18994141 336.08691406 C312.7389209 337.10221191 313.28790039 338.11750977 313.85351562 339.16357422 C317.8382025 346.52942569 321.83893528 353.88604639 325.87011719 361.2265625 C327.00682312 363.30493264 328.1374025 365.38665895 329.26367188 367.47070312 C331.11434844 370.89472143 332.9810155 374.30963396 334.85009766 377.72363281 C335.42107178 378.7889624 335.9920459 379.85429199 336.58032227 380.9519043 C340.21022264 387.53544818 343.2916858 391.80125946 349.91259766 395.53613281 C353.60939809 396.43779145 355.79135321 396.2225507 359.47509766 395.16113281 C366.89989229 390.37015663 370.59131385 383.42566721 374.60009766 375.78613281 C375.24368421 374.58946599 375.88906318 373.39376162 376.53613281 372.19897461 C377.86650458 369.73998342 379.18974289 367.27735597 380.50830078 364.81201172 C383.54355146 359.15549337 386.7009808 353.56728336 389.85009766 347.97363281 C391.01312087 345.8995614 392.17589024 343.82534763 393.33837891 341.75097656 C394.38383768 339.88763126 395.4294004 338.02434428 396.47509766 336.16113281 C396.89452637 335.4136377 397.31395508 334.66614258 397.74609375 333.89599609 C401.33971845 327.49356128 404.94420928 321.09736707 408.56103516 314.70800781 C409.67827788 312.73408074 410.79546423 310.76012175 411.91259766 308.78613281 C412.47140625 307.79871094 413.03021484 306.81128906 413.60595703 305.79394531 C416.94375467 299.88950982 420.25497159 293.97139273 423.53759766 288.03613281 C427.0243405 281.73312048 430.57627084 275.470478 434.16259766 269.22363281 C439.47435202 259.96733547 444.66597545 250.64718579 449.8371582 241.31176758 C454.36729018 233.13905148 458.94876761 224.9971042 463.55859375 216.86914062 C467.76139055 209.4485174 471.90523923 201.99617136 476.03759766 194.53613281 C480.93250029 185.7014305 485.88688409 176.90561946 490.91894531 168.1484375 C495.63916767 159.91516254 500.23718663 151.61538724 504.83618164 143.31396484 C508.87075528 136.03597104 512.93553169 128.7762918 517.03759766 121.53613281 C525.60790771 106.40887631 534.10960864 91.24315647 542.53759766 76.03613281 C547.92433731 66.32354319 553.37796277 56.64900824 558.86572266 46.99316406 C559.92188481 45.1346263 560.97662054 43.27527706 562.02978516 41.41503906 C563.4848946 38.84786411 564.9475343 36.28513725 566.41259766 33.72363281 C567.04862915 32.5984021 567.04862915 32.5984021 567.69750977 31.45043945 C575.83566281 17.29942426 586.59621303 7.03163691 602.47509766 2.16113281 C614.998448 -0.61583374 627.8596471 -0.14858209 640.60791016 -0.13964844 C642.93570023 -0.14354354 645.2634896 -0.14787987 647.59127808 -0.15263367 C652.44759435 -0.16005716 657.30383786 -0.15983178 662.16015625 -0.15454102 C668.3578332 -0.14873604 674.55521231 -0.16572136 680.75284004 -0.18888569 C685.55204993 -0.20366919 690.3511887 -0.20448871 695.15041733 -0.20137596 C697.43477851 -0.20188634 699.71914398 -0.20707024 702.00348282 -0.21718788 C733.0679913 -0.33797097 733.0679913 -0.33797097 745.22119141 10.75488281 C753.92175135 19.95447737 754.62924732 31.6114168 754.60373211 43.60924816 C754.60548515 44.6537681 754.60723818 45.69828805 754.60904434 46.77446011 C754.61370801 50.28562231 754.61123788 53.79674316 754.60881042 57.3079071 C754.61067821 59.84627355 754.61297879 62.3846397 754.61567575 64.9230054 C754.62052344 70.44778248 754.62224746 75.97254703 754.62121964 81.4973259 C754.61969491 89.71310221 754.62385602 97.92886883 754.62909426 106.14464326 C754.63876774 121.67227331 754.64157851 137.19990006 754.64215132 152.72753277 C754.64261079 164.7190649 754.64466878 176.71059574 754.64785194 188.70212746 C754.64874948 192.15342118 754.6496393 195.60471491 754.65052682 199.05600864 C754.65074787 199.9140044 754.65096892 200.77200016 754.65119666 201.65599579 C754.65735137 225.79185915 754.66129718 249.92772206 754.66085339 274.06358624 C754.66083781 274.97366342 754.66082223 275.88374061 754.66080618 276.82139589 C754.66072307 281.43407891 754.66062403 286.04676193 754.66052147 290.65944495 C754.66049155 292.03359508 754.66049155 292.03359508 754.66046103 293.43550582 C754.66042059 295.28808407 754.66037879 297.14066233 754.66033564 298.99324058 C754.65972292 327.8144278 754.66722852 356.63560326 754.6809082 385.45678711 C754.69627001 417.83534697 754.70487436 450.2138991 754.70394498 482.59246284 C754.70387035 486.04532834 754.70382164 489.49819384 754.70379066 492.95105934 C754.70377318 494.22633852 754.70377318 494.22633852 754.70375535 495.52738091 C754.70372458 509.20712521 754.71010958 522.88685929 754.71872293 536.56660056 C754.72720136 550.31650498 754.72818787 564.06639446 754.72161361 577.81630006 C754.71791918 585.98333273 754.71974711 594.15032 754.72955595 602.31734786 C754.73626341 608.41794692 754.73249962 614.51849251 754.72468273 620.6190922 C754.72314343 623.08543307 754.72498001 625.55177886 754.7305428 628.01811393 C754.73760915 631.37342676 754.73230412 634.72850675 754.72398663 638.08381176 C754.72895481 639.03856346 754.73392299 639.99331515 754.73904172 640.97699872 C754.67963963 652.3322228 753.70135537 664.63955853 745.49853516 673.23144531 C734.48771452 682.53033624 721.6198163 681.62206935 707.97900391 681.59472656 C705.97940393 681.59929494 703.97980552 681.60460246 701.98020935 681.61061096 C697.80192664 681.61951454 693.62383535 681.61715023 689.44555664 681.60717773 C684.11518828 681.59568943 678.78548254 681.61591179 673.45520115 681.64509487 C669.3294003 681.66351986 665.20375643 681.66315192 661.07792473 681.65745735 C659.11370858 681.65730492 657.14948125 681.66328403 655.18530464 681.67574883 C642.2140091 681.74648382 629.50768987 681.64363512 619.47509766 672.16113281 C614.16974568 666.13425296 612.22774075 660.2508867 612.21617794 652.18389511 C612.21248147 651.50238701 612.20878501 650.82087891 612.20497653 650.11871904 C612.19501399 647.83604617 612.19922023 645.5536227 612.20335388 643.27093506 C612.19906633 641.61689365 612.19390289 639.96285432 612.18793923 638.3088181 C612.17406974 633.76300319 612.17258298 629.21725519 612.17308247 624.67142224 C612.17144548 619.76677805 612.15831763 614.86216325 612.14654541 609.95753479 C612.12766274 601.45027528 612.11596256 592.94303014 612.10900688 584.43575287 C612.09881803 572.08992268 612.07673635 559.74413555 612.05162097 547.39832774 C612.0109867 527.30771587 611.97855398 507.21709984 611.9519043 487.12646484 C611.950307 485.92369468 611.94870969 484.72092451 611.94706399 483.48170677 C611.94546509 482.2776535 611.94386619 481.07360023 611.94221884 479.8330605 C611.91964176 462.85175666 611.89499773 445.87045745 611.86791992 428.88916016 C611.86602378 427.69877623 611.86412763 426.5083923 611.86217403 425.28193614 C611.8302009 405.30969838 611.79442014 385.33746835 611.75687844 365.36524034 C611.73403985 353.08271605 611.7150164 340.80019687 611.7012117 328.51765904 C611.69155371 320.05843582 611.67865448 311.59922142 611.66340285 303.14000645 C611.65478788 298.28627176 611.6476031 293.43254771 611.64476204 288.57880592 C611.62825118 262.42669148 611.20515906 236.30315262 610.47509766 210.16113281 C610.07372054 210.90416153 609.67234343 211.64719025 609.25880337 212.41273499 C608.7312045 213.38939621 608.20360563 214.36605743 607.66001892 215.37231445 C607.13746993 216.33964005 606.61492094 217.30696564 606.07653713 218.30360413 C601.60843955 226.57296092 597.12614296 234.83283885 592.53759766 243.03613281 C588.49594872 250.26291681 584.57205013 257.54960186 580.66259766 264.84863281 C576.14230497 273.28581681 571.53093964 281.65985053 566.78759766 289.97363281 C562.22111964 297.97883517 557.86606381 306.06528931 553.63623047 314.25268555 C550.25156082 320.7684801 546.68100563 327.16191868 543.03759766 333.53613281 C538.130358 342.12869135 533.46390259 350.81747819 528.92236328 359.6081543 C524.10026186 368.92998603 519.07000706 378.13141569 514.02246094 387.33251953 C511.32342964 392.26640665 508.65033228 397.21431499 505.97509766 402.16113281 C501.332522 410.74110893 496.67038221 419.31013681 491.99462891 427.87207031 C487.7546006 435.63989121 483.5397394 443.42120338 479.32836914 451.20458984 C475.25799603 458.72425694 471.16469609 466.231165 467.06274414 473.73364258 C464.37914865 478.6486703 461.71340312 483.57263377 459.06884766 488.50878906 C453.33570151 499.20906933 447.55184018 509.86573104 441.53759766 520.41113281 C437.581262 527.35074367 433.82284702 534.30457085 430.32275391 541.48535156 C426.51163256 549.18775996 422.23372501 556.6607 418.09863281 564.19189453 C416.47767615 567.15641707 414.8703328 570.12787758 413.26806641 573.10253906 C407.91717007 583.03644284 402.50427743 592.92294622 396.91259766 602.72363281 C392.55145992 610.36886617 388.38199094 618.08744114 384.35009766 625.91113281 C380.54479334 633.26680171 376.67882947 640.57779921 372.60009766 647.78613281 C372.17196777 648.56182617 371.74383789 649.33751953 371.30273438 650.13671875 C367.46369483 656.81888389 362.9891695 661.19431877 355.54150391 663.65332031 C349.34502657 665.17608412 344.38537582 664.42196142 338.76171875 661.57055664 C331.05412991 656.81976544 327.16909101 648.37619108 323.28759766 640.53613281 C322.14495758 638.28387028 321.00039117 636.03258411 319.85400391 633.78222656 C319.28568848 632.66187012 318.71737305 631.54151367 318.13183594 630.38720703 C315.74723974 625.74381561 313.24644092 621.16881087 310.72509766 616.59863281 C305.72101879 607.49831336 300.83551352 598.3386346 295.97509766 589.16113281 C291.14886639 580.05064993 286.30492765 570.95259535 281.35009766 561.91113281 C276.93267021 553.85031039 272.56304094 545.7650136 268.22509766 537.66113281 C267.91283234 537.07785217 267.60056702 536.49457153 267.27883911 535.89361572 C263.63953594 529.09387428 260.00937647 522.28928856 256.38525391 515.48144531 C255.01949697 512.91627271 253.65360483 510.35117216 252.28759766 507.78613281 C251.9494101 507.15100769 251.61122253 506.51588257 251.26278687 505.86151123 C246.60306369 497.11345746 241.88915767 488.39701859 237.12280273 479.70654297 C232.287688 470.86634829 227.57701283 461.96098055 222.8605957 453.05712891 C218.47061272 444.77148256 214.0526553 436.50455234 209.53759766 428.28613281 C204.41717478 418.96323402 199.44013095 409.56732571 194.47509766 400.16113281 C189.01129389 389.81073926 183.51227127 379.48442696 177.88134766 369.22363281 C173.86320389 361.89577835 169.91377892 354.53189026 165.97509766 347.16113281 C161.55502145 338.88993274 157.10914893 330.63425112 152.60009766 322.41113281 C147.64501329 313.36980079 142.80176778 304.27138484 137.97509766 295.16113281 C132.66260175 285.13428782 127.31265007 275.131561 121.85961914 265.18017578 C117.52770199 257.27293079 113.25053257 249.33680497 108.98413086 241.39404297 C104.91545287 233.82328255 100.82522453 226.26433599 96.73071289 218.70751953 C95.82711658 217.03960609 95.82711658 217.03960609 94.90526581 215.33799744 C93.42861776 212.61233543 91.951893 209.88671502 90.47509766 207.16113281 C90.47374113 208.09856239 90.4723846 209.03599196 90.47098696 210.00182849 C90.39041804 265.55808197 90.29938914 321.11431031 90.19504604 376.67052447 C90.18252713 383.340815 90.17009207 390.01110569 90.15771484 396.68139648 C90.15648152 397.34516313 90.15524819 398.00892978 90.1539775 398.69281057 C90.11406267 420.19922157 90.08056822 441.70563672 90.05041075 463.21206343 C90.01850049 485.94355655 89.97925855 508.67502714 89.9323076 531.40649432 C89.90442275 545.02150231 89.88238965 558.63649398 89.86783515 572.25152286 C89.8572953 581.58709196 89.83947518 590.92262946 89.81593062 600.25817475 C89.80256052 605.6447302 89.79239988 611.03124133 89.79088402 616.41781425 C89.78942447 621.35228064 89.77879344 626.28664035 89.76096325 631.22107395 C89.7561255 633.00321684 89.75461195 634.78537262 89.75681885 636.56752072 C89.78410436 662.93611482 89.78410436 662.93611482 80.97900391 672.84472656 C71.25572502 682.19493 58.67909137 681.76044365 46.10400391 681.69238281 C44.33243091 681.69508393 42.56085936 681.69897147 40.78929138 681.70397949 C37.09188604 681.70984699 33.39486957 681.70140205 29.69750977 681.68261719 C24.9893596 681.65984598 20.28212273 681.67295649 15.57400608 681.69690704 C11.91995023 681.71145424 8.26610608 681.7067182 4.61204338 681.69639587 C2.87753119 681.69375227 1.14299894 681.6969137 -0.59148979 681.70631409 C-12.39824166 681.7562723 -25.02250693 681.71392128 -34.06396484 672.91503906 C-41.8107886 663.61470787 -42.83354236 653.01675537 -42.77658463 641.29422855 C-42.77949151 640.24088236 -42.78239839 639.18753617 -42.78539336 638.10227039 C-42.79268152 634.57911297 -42.78575538 631.05613035 -42.77886963 627.53297424 C-42.78117452 624.97893098 -42.78435124 622.42488838 -42.78832412 619.87084717 C-42.7955347 614.32113199 -42.79533624 608.77145576 -42.7902298 603.22173882 C-42.78265691 594.96898751 -42.78653645 586.71626897 -42.79264641 578.46351788 C-42.80317365 563.72282848 -42.80226676 548.98215642 -42.79648859 534.24146538 C-42.79145661 521.34098236 -42.79014447 508.44050569 -42.79253387 495.5400219 C-42.79268664 494.68415701 -42.79283941 493.82829212 -42.79299681 492.94649193 C-42.7936195 489.47220834 -42.7942563 485.99792474 -42.79491634 482.52364115 C-42.80103394 449.9339641 -42.79548815 417.34429809 -42.78472255 384.75462274 C-42.77523224 355.80540338 -42.77607993 326.85620162 -42.78564453 297.90698242 C-42.79635587 265.37825292 -42.80059922 232.84953317 -42.79442 200.32080215 C-42.79377858 196.8525546 -42.79315289 193.38430705 -42.79253387 189.91605949 C-42.79237572 189.062096 -42.79221757 188.20813251 -42.79205462 187.32829134 C-42.78978045 174.43712057 -42.79243881 161.54595686 -42.79749298 148.65478706 C-42.80321193 133.99498894 -42.80178093 119.33521086 -42.79093149 104.67541523 C-42.78506087 96.47261025 -42.78467275 88.26984869 -42.79222384 80.06704484 C-42.79724024 73.94171611 -42.79179539 67.81643854 -42.78227469 61.69111609 C-42.78003973 59.21344363 -42.78117911 56.73576537 -42.78602627 54.25809664 C-42.7921103 50.88994119 -42.78586676 47.5220214 -42.77658463 44.15387821 C-42.78360812 42.71187691 -42.78360812 42.71187691 -42.79077351 41.24074426 C-42.7246746 29.23500048 -40.87605733 19.27551672 -32.70458984 10.12207031 C-23.37405174 1.24483771 -12.33453007 0.01404282 0 0 Z " fill="#000000" transform="translate(2630.52490234375,642.8388671875)"/>
<path d="M0 0 C1.75913038 -0.0013517 3.5182604 -0.0032964 5.27738953 -0.00579834 C8.94594922 -0.00872822 12.6144108 -0.00452291 16.28295898 0.00488281 C20.93885567 0.01625054 25.59452098 0.00972112 30.25040913 -0.00226212 C33.87883685 -0.00956062 37.5072116 -0.00715612 41.1356411 -0.00200653 C42.85009986 -0.00069068 44.56456374 -0.00224354 46.27901649 -0.00696564 C70.90725283 -0.05991783 91.85695021 3.39496498 111.38671875 19.703125 C111.90177979 20.13318848 112.41684082 20.56325195 112.94750977 21.00634766 C116.5014045 24.08513498 119.52102887 27.46259586 122.57739258 31.02856445 C127.37400711 36.40225059 132.65643685 41.33965778 137.80664062 46.37109375 C139.1127832 47.66080078 139.1127832 47.66080078 140.4453125 48.9765625 C141.6353186 50.14131104 141.6353186 50.14131104 142.84936523 51.32958984 C144.57421875 53.265625 144.57421875 53.265625 144.57421875 55.265625 C145.23421875 55.265625 145.89421875 55.265625 146.57421875 55.265625 C147.96899414 56.68603516 147.96899414 56.68603516 149.609375 58.6796875 C154.55872248 64.50290214 160.04782399 69.75296448 165.51757812 75.08203125 C166.29810547 75.85160156 167.07863281 76.62117187 167.8828125 77.4140625 C168.59236084 78.10677246 169.30190918 78.79948242 170.03295898 79.51318359 C171.57421875 81.265625 171.57421875 81.265625 171.57421875 83.265625 C172.56421875 83.595625 173.55421875 83.925625 174.57421875 84.265625 C176.09960938 85.81445312 176.09960938 85.81445312 177.73046875 87.796875 C181.61248525 92.37210874 185.79562118 96.56356764 190.07421875 100.765625 C194.17643222 104.79445361 198.23597997 108.8047663 201.98046875 113.171875 C206.24842154 118.13245555 210.91491831 122.67586636 215.57421875 127.265625 C225.20360014 136.75128428 225.20360014 136.75128428 229.046875 141.2421875 C234.25034803 147.31417803 240.09120024 152.78745597 245.80664062 158.37109375 C246.67740234 159.23089844 247.54816406 160.09070313 248.4453125 160.9765625 C249.2386499 161.75306152 250.0319873 162.52956055 250.84936523 163.32958984 C252.57421875 165.265625 252.57421875 165.265625 252.57421875 167.265625 C253.56421875 167.595625 254.55421875 167.925625 255.57421875 168.265625 C257.1171875 169.83203125 257.1171875 169.83203125 258.76171875 171.828125 C262.48262534 176.2134792 266.47058741 180.24060729 270.57421875 184.265625 C274.50140236 188.1175752 278.36685778 191.96260214 281.94921875 196.140625 C286.22953484 201.11006227 290.90435511 205.66546082 295.57421875 210.265625 C305.2033267 219.75101492 305.2033267 219.75101492 309.04296875 224.234375 C313.43564803 229.35745294 318.27143434 234.03077247 323.07421875 238.765625 C328.49496638 244.1097001 333.807739 249.44627911 338.75976562 255.22851562 C342.50086682 259.42869706 346.56872419 263.31991394 350.57421875 267.265625 C360.20315965 276.75085037 360.20315965 276.75085037 364.078125 281.2734375 C369.07598367 287.10549435 374.66898003 292.36701699 380.16210938 297.7265625 C380.98775391 298.54125 381.81339844 299.3559375 382.6640625 300.1953125 C383.41550537 300.92991699 384.16694824 301.66452148 384.94116211 302.42138672 C386.57421875 304.265625 386.57421875 304.265625 386.57421875 306.265625 C387.23421875 306.265625 387.89421875 306.265625 388.57421875 306.265625 C389.96899414 307.68603516 389.96899414 307.68603516 391.609375 309.6796875 C396.55872248 315.50290214 402.04782399 320.75296448 407.51757812 326.08203125 C408.29810547 326.85160156 409.07863281 327.62117188 409.8828125 328.4140625 C410.59236084 329.10677246 411.30190918 329.79948242 412.03295898 330.51318359 C413.57421875 332.265625 413.57421875 332.265625 413.57421875 334.265625 C414.23421875 334.265625 414.89421875 334.265625 415.57421875 334.265625 C416.95141602 335.66845703 416.95141602 335.66845703 418.578125 337.6484375 C423.73194474 343.71222645 429.47043106 349.1732964 435.16210938 354.7265625 C435.98775391 355.54125 436.81339844 356.3559375 437.6640625 357.1953125 C438.41550537 357.92991699 439.16694824 358.66452148 439.94116211 359.42138672 C441.57421875 361.265625 441.57421875 361.265625 441.57421875 363.265625 C442.23421875 363.265625 442.89421875 363.265625 443.57421875 363.265625 C445.00195312 364.71679688 445.00195312 364.71679688 446.66796875 366.734375 C450.57392361 371.32771322 454.77471197 375.54303247 459.07421875 379.765625 C463.1786492 383.79663094 467.23943344 387.80885499 470.984375 392.1796875 C476.0214418 398.03727849 481.63667177 403.33549441 487.16210938 408.7265625 C487.98775391 409.54125 488.81339844 410.3559375 489.6640625 411.1953125 C490.41550537 411.92991699 491.16694824 412.66452148 491.94116211 413.42138672 C493.57421875 415.265625 493.57421875 415.265625 493.57421875 417.265625 C494.23421875 417.265625 494.89421875 417.265625 495.57421875 417.265625 C495.57421875 417.925625 495.57421875 418.585625 495.57421875 419.265625 C496.23421875 419.265625 496.89421875 419.265625 497.57421875 419.265625 C498.94921875 420.6640625 498.94921875 420.6640625 500.57421875 422.640625 C503.50203183 426.07682403 506.53272994 429.35964906 509.69921875 432.578125 C510.50617188 433.39925781 511.313125 434.22039062 512.14453125 435.06640625 C515.71036766 438.29400416 518.3271462 440.11247574 523.13671875 440.703125 C526.51156332 440.49474922 526.51156332 440.49474922 528.88671875 438.953125 C534.21883394 430.46123784 532.84869081 418.65506363 532.80126953 408.97642517 C532.80070868 407.34063761 532.80103706 405.70484955 532.80217171 404.06906229 C532.80275995 399.59815402 532.79093435 395.12735318 532.7770319 390.6564697 C532.76423911 385.82548533 532.76314211 380.99449663 532.76068115 376.16349792 C532.75491742 367.79920174 532.74205464 359.43494102 532.72454834 351.07066154 C532.69940144 338.96654542 532.68727786 326.86244237 532.67868161 314.75830442 C532.66455773 295.10407732 532.64296202 275.44986672 532.61523438 255.7956543 C532.61357875 254.62021447 532.61192313 253.44477464 532.61021733 252.23371542 C532.59841643 243.89018499 532.58634816 235.54665496 532.57421875 227.203125 C532.56036145 217.6704918 532.54662651 208.13785844 532.53320312 198.60522461 C532.53071874 196.84376522 532.53071874 196.84376522 532.52818418 195.0467208 C532.50080776 175.46321415 532.48129252 155.87970723 532.46738243 136.29618651 C532.45842482 124.22280258 532.44235456 112.14946771 532.4170928 100.07610667 C532.40023424 91.80499146 532.39045819 83.53388754 532.38624239 75.26275628 C532.38355421 70.49191007 532.37754915 65.72112734 532.3627243 60.95030212 C532.34919576 56.58011143 532.34496049 52.21001235 532.34799552 47.83980269 C532.34745414 46.26189696 532.34352902 44.68398785 532.33580995 43.10610091 C532.22770794 19.9261098 532.22770794 19.9261098 540.57421875 10.265625 C549.01681474 2.12518508 559.47328813 0.15459648 570.88964844 0.12036133 C571.59622589 0.11700272 572.30280334 0.1136441 573.03079224 0.11018372 C575.35257761 0.10073289 577.67429037 0.09873341 579.99609375 0.09765625 C581.62266061 0.09443902 583.24922719 0.0910746 584.87579346 0.08757019 C588.28178579 0.08159317 591.6877528 0.07972876 595.09375 0.08032227 C599.43542513 0.08042367 603.77693595 0.06678716 608.11857224 0.04955006 C611.47825856 0.03837159 614.83790594 0.03640486 618.19760895 0.03693199 C619.79701553 0.03576007 621.39642339 0.03138309 622.99581146 0.02359962 C636.86542063 -0.03756692 648.84269822 0.33546773 659.6171875 10.12109375 C668.64215507 19.76183736 669.72969904 30.08299767 669.7028532 42.73494434 C669.70460624 43.78175185 669.70635928 44.82855936 669.70816544 45.90708831 C669.71282918 49.42601251 669.71035895 52.94489547 669.70793152 56.46382141 C669.7097993 59.00773804 669.71209987 61.55165438 669.71479684 64.09557027 C669.71964455 69.63242042 669.72136855 75.16925806 669.72034073 80.70611 C669.71881603 88.93973177 669.72297704 97.17334387 669.72821535 105.40696376 C669.73788859 120.96767337 669.74069958 136.52837968 669.74127241 152.08909193 C669.74173186 164.10495476 669.74378969 176.12081629 669.74697304 188.1366787 C669.74787057 191.59474395 669.74876039 195.0528092 669.74964792 198.51087445 C669.74986896 199.37054473 669.75009001 200.23021501 669.75031776 201.1159359 C669.75647232 225.29824187 669.76041828 249.4805474 669.75997448 273.66285419 C669.7599589 274.57466468 669.75994332 275.48647516 669.75992727 276.42591627 C669.75984416 281.04741176 669.75974512 285.66890725 669.75964256 290.29040275 C669.75961265 291.66718588 669.75961265 291.66718588 669.75958212 293.07178281 C669.75954169 294.92791003 669.75949989 296.78403724 669.75945673 298.64016445 C669.75884391 327.52175203 669.7663517 356.40332788 669.7800293 385.28491211 C669.79538748 417.72864238 669.80399569 450.17236493 669.80306607 482.61609906 C669.80299144 486.07510738 669.80294274 489.53411569 669.80291176 492.99312401 C669.80289428 494.27068018 669.80289428 494.27068018 669.80287644 495.57404557 C669.80284566 509.2839395 669.80923323 522.99382325 669.81784402 536.70371416 C669.8263179 550.48046895 669.82731252 564.25720883 669.8207347 578.03396479 C669.81703737 586.21919224 669.81887691 594.4043744 669.82867704 602.58959705 C669.83537529 608.70018712 669.83162871 614.81072369 669.82380382 620.92131438 C669.82226232 623.3943491 669.82410931 625.8673887 669.8296639 628.34041766 C669.83671062 631.69995313 669.83144059 635.05925474 669.82310772 638.41878223 C669.83055999 639.86119734 669.83055999 639.86119734 669.83816281 641.33275214 C669.77834854 652.7282279 667.79676138 663.82085149 659.57421875 672.265625 C648.67332845 680.72730618 639.19145338 681.72231775 625.87890625 681.6640625 C624.24235912 681.66608768 622.60581287 681.6690028 620.9692688 681.67276001 C617.54485453 681.67716998 614.12067581 681.67080036 610.69628906 681.65673828 C606.34597211 681.63972864 601.99621394 681.64944347 597.64591789 681.66745567 C594.26545152 681.67839954 590.88511315 681.67479778 587.50464249 681.6670723 C585.90296485 681.66509516 584.30127492 681.66744025 582.69961166 681.67451096 C555.9735582 681.76655209 536.34417683 672.73450988 517.34570312 654.09033203 C514.93373092 651.60589429 512.69838953 648.98493452 510.44042969 646.36108398 C506.99397275 642.49125929 503.26795753 638.8973883 499.57421875 635.265625 C491.00814203 626.8432744 491.00814203 626.8432744 487.13671875 622.328125 C482.88116092 617.37638144 478.22295227 612.84497443 473.57421875 608.265625 C468.31390669 603.08382506 463.18171128 597.89501618 458.375 592.2890625 C454.79595974 588.26749448 450.90964006 584.54045514 447.07421875 580.765625 C441.97437744 575.74634991 437.02238392 570.70516875 432.36132812 565.27539062 C428.94420991 561.4325331 425.2396321 557.86953813 421.57421875 554.265625 C416.62464838 549.39910111 411.84091689 544.49516431 407.31640625 539.23046875 C404.23023824 535.74988017 400.89382608 532.52163831 397.57421875 529.265625 C393.64480823 525.41149055 389.77820224 521.56450952 386.1953125 517.3828125 C381.14526136 511.51666392 375.5225217 506.20624999 369.98632812 500.8046875 C369.16068359 499.99 368.33503906 499.1753125 367.484375 498.3359375 C366.73293213 497.60133301 365.98148926 496.86672852 365.20727539 496.10986328 C363.57421875 494.265625 363.57421875 494.265625 363.57421875 492.265625 C362.91421875 492.265625 362.25421875 492.265625 361.57421875 492.265625 C360.14648438 490.81445312 360.14648438 490.81445312 358.48046875 488.796875 C354.57451389 484.20353678 350.37372553 479.98821753 346.07421875 475.765625 C341.30564101 471.08235276 336.72445909 466.34596148 332.36523438 461.27929688 C329.10230875 457.61072946 325.57573163 454.20449901 322.07421875 450.765625 C317.97200528 446.73679639 313.91245753 442.7264837 310.16796875 438.359375 C305.90001596 433.39879445 301.23351919 428.85538364 296.57421875 424.265625 C291.29343879 419.06366266 286.13812774 413.85457799 281.3125 408.2265625 C278.072442 404.57148583 274.55762 401.18671138 271.07421875 397.765625 C266.98252544 393.74712836 262.93159378 389.74873469 259.19921875 385.390625 C254.76888747 380.24131425 249.90877317 375.53179817 245.07421875 370.765625 C239.61132944 365.38000428 234.25253413 360.00187688 229.26318359 354.17285156 C225.59153502 350.02672282 221.53981924 346.23453386 217.56445312 342.3828125 C216.91927734 341.74859375 216.27410156 341.114375 215.609375 340.4609375 C214.73357788 339.61039795 214.73357788 339.61039795 213.84008789 338.74267578 C212.57421875 337.265625 212.57421875 337.265625 212.57421875 335.265625 C211.91421875 335.265625 211.25421875 335.265625 210.57421875 335.265625 C209.14648438 333.81445312 209.14648438 333.81445312 207.48046875 331.796875 C203.57451389 327.20353678 199.37372553 322.98821753 195.07421875 318.765625 C190.30564101 314.08235276 185.72445909 309.34596148 181.36523438 304.27929688 C178.10230875 300.61072946 174.57573163 297.20449901 171.07421875 293.765625 C166.97200528 289.73679639 162.91245753 285.7264837 159.16796875 281.359375 C154.90001596 276.39879445 150.23351919 271.85538364 145.57421875 267.265625 C140.30768807 262.07769925 135.16553936 256.88334355 130.35253906 251.27099609 C126.89384795 247.37070933 123.15384188 243.74281438 119.44921875 240.078125 C118.66417969 239.29759766 117.87914063 238.51707031 117.0703125 237.71289062 C115.56562301 236.2170821 114.05959443 234.72261896 112.55200195 233.22973633 C110.91578476 231.60482985 109.29159994 229.96940237 107.671875 228.328125 C104.47173654 225.18162014 101.99496522 223.46858878 97.51171875 222.828125 C94.56189419 223.07225616 94.56189419 223.07225616 92.32421875 224.640625 C86.78269798 232.95290615 88.29115643 244.82870924 88.31593323 254.43508911 C88.31307567 256.17868549 88.30933608 257.9222806 88.30479473 259.66587341 C88.29484484 264.43932188 88.29717888 269.21269658 88.30152166 273.9861505 C88.30400336 279.14092223 88.2949227 284.29567483 88.28713989 289.45043945 C88.27510854 298.37732398 88.26998769 307.30419066 88.2692585 316.23108292 C88.26793173 329.14651071 88.25281069 342.06189527 88.23376333 354.97730778 C88.20293786 375.94433916 88.17876382 396.91137164 88.16088867 417.87841797 C88.15981599 419.1327039 88.15874331 420.38698984 88.15763813 421.67928444 C88.14581384 435.67819712 88.13560825 449.67711024 88.12719727 463.67602539 C88.12412319 468.75520834 88.12103443 473.83439129 88.11791992 478.91357422 C88.11715458 480.16693589 88.11638924 481.42029757 88.11560071 482.7116399 C88.10252338 503.60368258 88.07789178 524.49569387 88.04417652 545.38771331 C88.0238809 558.27252728 88.01359791 571.15727415 88.01616573 584.04210423 C88.01720009 592.86689265 88.00757521 601.69162796 87.9895267 610.51639785 C87.97947434 615.60901554 87.97436164 620.70151576 87.98229408 625.79413986 C87.98946946 630.45607761 87.98289808 635.11778643 87.96540868 639.77969502 C87.96152459 641.46592982 87.96270405 643.1521855 87.96946556 644.83841123 C88.0094462 655.66798337 87.67264699 664.3925897 80.57421875 673.265625 C70.29189977 682.94310169 56.42806545 681.72584576 43.296875 681.69921875 C41.31969525 681.70378728 39.34251708 681.70909484 37.36534119 681.71510315 C33.23413618 681.72400611 29.10312478 681.72164313 24.97192383 681.71166992 C19.70208675 681.70018171 14.43291992 681.72040413 9.16317081 681.74958706 C5.08369264 681.76801365 1.0043732 681.76764379 -3.07513618 681.76194954 C-5.01702375 681.76179713 -6.95892263 681.7677746 -8.90077019 681.78024101 C-22.12819875 681.85321193 -33.14344541 681.51729381 -43.671875 672.53515625 C-49.02057928 665.61400439 -50.00867562 658.72312521 -49.9263525 650.18542385 C-49.93186667 649.09687687 -49.93738083 648.00832988 -49.9430621 646.88679662 C-49.95666174 643.23773078 -49.94175664 639.58934552 -49.92698669 635.94029236 C-49.93087938 633.29833482 -49.93635435 630.65642344 -49.94375759 628.01447779 C-49.95665193 622.26965989 -49.95470689 616.5249963 -49.94297791 610.78017807 C-49.92558444 602.23748744 -49.93109865 593.69491802 -49.94114482 585.1522211 C-49.95833529 569.89493807 -49.95279698 554.6377269 -49.93778763 539.38044536 C-49.92473789 526.02920854 -49.91953949 512.67799664 -49.92210579 499.32675362 C-49.9222662 498.44127133 -49.92242662 497.55578905 -49.9225919 496.64347397 C-49.92325548 493.04905944 -49.92395789 489.45464492 -49.92471724 485.86023041 C-49.93174171 452.14027498 -49.91624831 418.42036345 -49.89009378 384.70041918 C-49.86697663 354.73768429 -49.86159124 324.77499766 -49.87182617 294.81225586 C-49.87442815 287.13926413 -49.87701315 279.4662724 -49.8794241 271.7932806 C-49.87972154 270.8486647 -49.88001899 269.90404879 -49.88032545 268.93080816 C-49.88793881 243.89833395 -49.88152959 218.8658637 -49.87072808 193.83339125 C-49.86958026 191.14017043 -49.86843708 188.44694962 -49.86730125 185.7537288 C-49.866546 183.96709817 -49.86578036 182.18046754 -49.86500424 180.39383692 C-49.85934396 167.04981004 -49.86067718 153.70579565 -49.86523247 140.36176872 C-49.87033775 125.19094329 -49.86449844 110.02016462 -49.84433817 94.84935086 C-49.83334348 86.35707331 -49.83056638 77.86488765 -49.8396267 69.37260727 C-49.84484081 63.70198967 -49.83916231 58.03145081 -49.82457336 52.36084975 C-49.81655867 49.12871697 -49.81490704 45.8968072 -49.82314592 42.66466939 C-49.83126365 39.1829225 -49.82102264 35.70169824 -49.80609798 32.21998501 C-49.81283564 31.21679266 -49.81957329 30.21360032 -49.82651511 29.1800082 C-49.77015985 22.4097897 -48.90858526 16.76040736 -44.8828125 11.09375 C-32.36052831 -0.92288376 -16.36925124 -0.04490011 0 0 Z " fill="#000000" transform="translate(4043.42578125,642.734375)"/>
<path d="M0 0 C1.86493769 -0.00391162 1.86493769 -0.00391162 3.76755089 -0.00790226 C5.13428508 -0.00574045 6.50101913 -0.00348381 7.86775303 -0.0011425 C9.33021523 -0.00229544 10.79267715 -0.00388413 12.25513846 -0.00586975 C16.26667289 -0.0100409 20.27818351 -0.00798218 24.28971803 -0.00488353 C28.62100884 -0.00261998 32.95229556 -0.00611426 37.28358555 -0.00886345 C45.77508206 -0.01331359 54.26656973 -0.01234694 62.75806659 -0.00945081 C69.67880064 -0.00718892 76.59953222 -0.00688768 83.52026653 -0.00797462 C84.50689923 -0.00812786 85.49353193 -0.00828109 86.51006259 -0.00843897 C88.51506261 -0.00875873 90.52006262 -0.00908294 92.52506263 -0.00941156 C111.34545921 -0.0122654 130.16585093 -0.00898338 148.98624671 -0.00361119 C165.05299823 0.00083388 181.1197425 0.00009983 197.18649387 -0.00452995 C215.89014145 -0.00991716 234.59378472 -0.01196671 253.29743296 -0.00891769 C255.30498922 -0.0085992 257.31254548 -0.00828483 259.32010174 -0.00797462 C260.30748803 -0.00782035 261.29487433 -0.00766607 262.31218142 -0.00750712 C269.18891088 -0.0066526 276.06563757 -0.00808208 282.9423666 -0.01045418 C291.37684996 -0.0132997 299.81132405 -0.01241719 308.24580639 -0.00717343 C312.53020432 -0.00459549 316.81458699 -0.0034266 321.09898472 -0.00682259 C339.06526779 -0.01982847 357.01699278 0.13638776 374.97825718 0.58314705 C375.80484315 0.60336677 376.63142912 0.6235865 377.48306315 0.64441894 C430.45968171 1.96850929 484.54773925 6.74489694 533.62814426 28.12584114 C534.36081516 28.44133919 535.09348606 28.75683723 535.84835911 29.08189583 C578.33398492 47.5622334 612.44963596 79.72121111 629.62814426 123.12584114 C637.25152797 144.41746868 641.71262904 167.27920762 641.83126926 189.91880989 C641.84172276 191.27002937 641.84172276 191.27002937 641.85238743 192.64854622 C641.86967155 195.53685933 641.87610609 198.42497848 641.87814426 201.31334114 C641.87915134 202.29871864 641.88015842 203.28409615 641.88119602 204.29933357 C641.8711627 218.79261819 641.47944454 232.86933977 638.62814426 247.12584114 C638.48892551 247.86576302 638.34970676 248.60568489 638.20626926 249.36802864 C633.09978645 275.94065215 621.80095698 300.24254175 604.62814426 321.12584114 C603.5646677 322.44648567 603.5646677 322.44648567 602.47970676 323.79380989 C597.50072095 329.6974645 591.71345277 334.40377313 585.62814426 339.12584114 C584.72451145 339.85673958 583.82087864 340.58763802 582.88986301 341.34068489 C559.60256709 359.66775458 530.04326785 371.19024745 502.23751926 380.66099739 C500.97076659 381.09691134 499.70408346 381.53302743 498.43747044 381.969347 C496.00355602 382.80179743 493.56379817 383.61742223 491.11764622 384.41319466 C482.68463301 387.29218275 476.26507098 390.67602731 471.62814426 398.50084114 C469.7351013 405.36312189 469.8806058 411.02519721 473.06173801 417.45396614 C476.38966285 423.13052622 480.2095758 428.47543125 484.01144505 433.84117317 C485.67276458 436.18889716 487.32189979 438.54475997 488.96798801 440.90318489 C491.31315023 444.26263309 493.6619782 447.61945305 496.01486301 450.97349739 C498.41587195 454.39618464 500.81440887 457.82057609 503.21017551 461.24693489 C508.66718568 469.051022 514.13149827 476.84960679 519.62814426 484.62584114 C526.92858115 494.95394089 534.17172943 505.32203737 541.41915989 515.68736458 C547.95664464 525.03632501 554.50395756 534.37784769 561.08957005 543.69297981 C565.55392836 550.01145717 569.98861459 556.35051603 574.4216013 562.69102669 C578.10061385 567.95073068 581.79532249 573.19891828 585.50314426 578.43834114 C590.20260276 585.08232128 594.8589788 591.75561109 599.50314426 598.43834114 C614.70586261 620.37124861 614.70586261 620.37124861 630.27926731 642.04112434 C637.1493551 651.46095835 641.55916926 658.09148095 640.62814426 670.12584114 C638.90973265 675.3765433 636.39399175 677.44505193 631.62814426 680.12584114 C628.71857015 681.09569918 626.85794735 681.25580132 623.83043003 681.26628304 C622.34833042 681.27484825 622.34833042 681.27484825 620.83628941 681.2835865 C619.75318989 681.28470436 618.67009037 681.28582222 617.55416965 681.28697395 C616.41233219 681.29193886 615.27049473 681.29690376 614.09405613 681.30201912 C610.3046315 681.31665948 606.51524882 681.32344781 602.72580051 681.32896614 C600.09082634 681.33471844 597.45585218 681.34047616 594.82087803 681.34623909 C589.9945311 681.35581367 585.1681932 681.36170761 580.34183794 681.36473584 C573.26255017 681.36920283 566.1834568 681.38668502 559.10422808 681.41573644 C552.95597903 681.44008144 546.80780928 681.44768637 540.65951443 681.44941139 C538.05417355 681.45242805 535.4488333 681.46042303 532.84352398 681.47359657 C529.18442584 681.49076945 525.52579243 681.48874858 521.86666965 681.48228645 C520.2693475 681.49610863 520.2693475 681.49610863 518.6397562 681.51021004 C502.38028019 681.42085983 490.40898924 675.82701501 478.82345676 664.54771614 C472.26151452 657.77855467 467.01423109 649.83034468 461.62814426 642.12584114 C460.44716142 640.4461489 459.26617187 638.76646138 458.08517551 637.08677864 C455.73663416 633.73901721 453.39748424 630.38488141 451.06173801 627.02818489 C447.80205199 622.35612151 444.47620571 617.73482778 441.12814426 613.12584114 C435.95547381 606.00270349 430.89188867 598.8089181 425.85861301 591.58677864 C422.00075985 586.06089584 418.08797287 580.57903576 414.12814426 575.12584114 C408.95561381 568.00259969 403.89189085 560.80892123 398.85861301 553.58677864 C395.00075985 548.06089584 391.08797287 542.57903576 387.12814426 537.12584114 C382.56192596 530.8375697 378.07153348 524.50148531 373.62814426 518.12584114 C368.6158008 510.93454947 363.53057782 503.80206079 358.38424778 496.70616341 C353.2299874 489.5934567 348.16472837 482.41978682 343.11203098 475.23472786 C340.12510769 470.98973882 337.1294375 466.7509146 334.13449192 462.51158333 C331.59183446 458.9114927 329.0534404 455.30852271 326.52267551 451.70005989 C321.91086709 445.1304494 317.28614501 438.57240872 312.50314426 432.12584114 C311.79931614 431.17709114 311.09548801 430.22834114 310.37033176 429.25084114 C308.8014918 427.04245532 308.8014918 427.04245532 306.62814426 426.12584114 C306.62814426 425.46584114 306.62814426 424.80584114 306.62814426 424.12584114 C306.1009177 423.88478645 305.57369114 423.64373177 305.03048801 423.39537239 C302.55395597 422.08663595 300.27570223 420.57414572 297.95944309 419.00303841 C282.47678697 408.58937612 267.60525327 405.80230623 249.15084934 405.89879036 C247.62215272 405.89935567 246.09345556 405.89903558 244.56475925 405.89790535 C240.4477248 405.89733551 236.33080875 405.90902952 232.21380162 405.92305326 C227.89901578 405.93562266 223.58422672 405.93673599 219.26942539 405.93910408 C211.1134685 405.9453007 202.95756573 405.96168673 194.80163258 405.98180306 C185.51014714 406.00421888 176.21865901 406.01516974 166.92715323 406.02519393 C147.82745298 406.04605471 128.72780299 406.08119506 109.62814426 406.12584114 C109.63183144 407.40413449 109.63551861 408.68242785 109.63931751 409.99945736 C109.72602013 440.36951473 109.79194191 470.7395386 109.83240558 501.10969009 C109.83740818 504.85083245 109.84258549 508.59197456 109.84787083 512.33311653 C109.84892007 513.07788481 109.84996931 513.82265309 109.85105035 514.5899901 C109.86843753 526.63620488 109.89996587 538.68234302 109.93675545 550.72851238 C109.97421192 563.09654644 109.99639005 575.46454046 110.00449824 587.83262891 C110.00997629 595.45938715 110.02725419 603.0859287 110.05981013 610.71262022 C110.08352941 616.56886568 110.08595225 622.42500098 110.08057499 628.28129578 C110.08167305 630.6777867 110.08959791 633.07428602 110.10496616 635.47072792 C110.1249688 638.75147431 110.1200454 642.03130556 110.10916233 645.31207466 C110.1208137 646.25277048 110.13246506 647.1934663 110.1444695 648.16266805 C110.07144139 656.34879233 107.93409378 663.53127277 103.50314426 670.43834114 C94.81787837 678.55717665 85.81362581 681.42868144 74.19552708 681.41636848 C72.81598347 681.42644432 72.81598347 681.42644432 71.40857029 681.43672371 C68.38274757 681.45564555 65.35714739 681.45962514 62.33126926 681.46177864 C60.21528122 681.46821117 58.09929405 681.47493987 55.98330784 681.48195076 C51.55174798 681.49390942 47.12026599 681.49763309 42.68869114 681.49644661 C37.03206697 681.49624364 31.37594641 681.52353001 25.71944141 681.55799103 C21.34917029 681.58031636 16.97901923 681.5842824 12.60869694 681.58322716 C10.52445588 681.58557524 8.44021111 681.59435366 6.35602665 681.60989189 C-8.46779638 681.7100521 -20.05903684 681.38309335 -31.27029324 670.56334114 C-38.29261307 662.41849434 -38.52205797 652.97792707 -38.50049019 642.69868946 C-38.50224323 641.64429433 -38.50399626 640.5898992 -38.50580242 639.50355271 C-38.51047278 635.95280572 -38.50799424 632.4020995 -38.5055685 628.85135078 C-38.50743595 626.28696052 -38.50973639 623.72257054 -38.51243383 621.15818101 C-38.51758809 615.57352727 -38.51900498 609.98888219 -38.51797771 604.4042263 C-38.51645384 596.09955684 -38.5206122 587.79489698 -38.52585234 579.49022939 C-38.53552861 563.7956277 -38.53833668 548.10102928 -38.5389094 532.40642496 C-38.53936874 520.28755479 -38.54142605 508.16868589 -38.54461002 496.04981613 C-38.54550755 492.56282578 -38.54639736 489.07583543 -38.5472849 485.58884507 C-38.54750595 484.72199733 -38.547727 483.85514958 -38.54795474 482.96203372 C-38.55410984 458.57574728 -38.55805522 434.18946128 -38.55761147 409.80317402 C-38.55759589 408.883558 -38.55758031 407.96394198 -38.55756426 407.01645881 C-38.55748115 402.35534178 -38.55738211 397.69422475 -38.55727955 393.03310772 C-38.5572596 392.10737406 -38.55723966 391.18164041 -38.55721911 390.22785421 C-38.55717867 388.35579495 -38.55713687 386.48373569 -38.55709372 384.61167643 C-38.55648089 355.48187153 -38.56398859 326.35207826 -38.57766628 297.22227669 C-38.5930226 264.50388775 -38.60163278 231.78550646 -38.60070306 199.0671137 C-38.60062843 195.57918028 -38.60057972 192.09124686 -38.60054874 188.60331345 C-38.60053709 187.74447966 -38.60052544 186.88564587 -38.60051343 186.00078681 C-38.60048264 172.17255165 -38.60687184 158.34432659 -38.61548101 144.51609444 C-38.62395259 130.62161315 -38.62495131 116.72714665 -38.61837169 102.83266421 C-38.61467279 94.57613465 -38.61651855 86.31964997 -38.62631403 78.06312515 C-38.6330074 71.90119305 -38.62926993 65.73930898 -38.62144081 59.57737914 C-38.61989813 57.08212521 -38.62175066 54.58686644 -38.62730088 52.0916182 C-38.63433721 48.704504 -38.62908577 45.31762244 -38.62074471 41.93051624 C-38.62819697 40.47169926 -38.62819697 40.47169926 -38.6357998 38.98341122 C-38.57707668 27.73183731 -36.23360723 18.59227858 -28.51638699 10.07896614 C-20.18502457 2.2963761 -11.26024096 0.00170972 0 0 Z M118.25314426 123.50084114 C109.79482327 134.49187972 109.3186753 147.14698763 109.3693552 160.62632942 C109.36585056 161.80049416 109.36234592 162.97465889 109.35873508 164.18440437 C109.35001406 168.0217163 109.35573196 171.85884021 109.36251926 175.69615364 C109.36207238 178.38649326 109.35922978 181.07682967 109.35672092 183.76716805 C109.35310017 189.38690881 109.3578314 195.00659671 109.36740208 200.62632942 C109.37829361 207.09580086 109.37474835 213.56514627 109.36374927 220.03461468 C109.35463484 225.6222745 109.353411 231.20989667 109.3586266 236.79756153 C109.36172222 240.12048413 109.36142071 243.4433355 109.35555363 246.76625633 C109.35044407 250.47230351 109.35826035 254.17811237 109.3693552 257.88414192 C109.36530674 258.9649604 109.36125828 260.04577888 109.35708714 261.15934944 C109.42377265 273.2540773 110.87390021 283.65231658 119.12814426 292.93834114 C119.95314426 293.66021614 120.77814426 294.38209114 121.62814426 295.12584114 C122.35001926 295.80646614 123.07189426 296.48709114 123.81564426 297.18834114 C134.18444677 304.33129398 144.73671502 303.67936866 156.8434763 303.59581184 C158.8946554 303.59632122 160.94583471 303.59858066 162.99701023 303.60244942 C168.55170317 303.60785563 174.10606078 303.58848292 179.66069365 303.56434846 C185.50040868 303.542964 191.34012359 303.54364292 197.17987156 303.5416584 C207.00008958 303.53521424 216.82018293 303.51399497 226.6403513 303.48253059 C239.17724591 303.44241005 251.71405892 303.42486165 264.25100994 303.41522121 C275.09523441 303.40685755 285.9394422 303.38963646 296.78365183 303.37018371 C299.09411334 303.36615632 301.40457538 303.36241361 303.71503782 303.35896134 C310.32317968 303.34905001 316.93127516 303.33431683 323.5393877 303.31212234 C325.52565693 303.30610285 327.51193155 303.30159718 329.49820805 303.29887962 C357.26045211 303.30316206 357.26045211 303.30316206 384.87814426 300.81334114 C386.34997166 300.61768562 386.34997166 300.61768562 387.85153294 300.41807747 C414.48778261 296.74136713 442.42264049 290.66372634 463.62814426 273.12584114 C464.91978489 272.07783333 464.91978489 272.07783333 466.23751926 271.00865364 C482.04507301 257.54828212 491.18585198 238.0222978 492.85055637 217.36607552 C493.78992833 193.91611923 490.24542334 170.19837217 473.96798801 152.08677864 C443.28448139 119.45847007 395.05096292 114.21201322 352.66932774 112.8397541 C349.75885786 112.75047243 346.84823769 112.66841797 343.93747044 112.58946419 C342.75572194 112.5571555 342.75572194 112.5571555 341.55009973 112.52419412 C322.1862524 112.00794932 302.82440912 111.96126808 283.4547894 111.95858407 C280.50650654 111.95786076 277.55822801 111.9557037 274.60994625 111.95308685 C264.28243187 111.94394068 253.95493014 111.93974047 243.62741184 111.94053841 C234.05482023 111.94114453 224.48228397 111.93046158 214.90970641 111.91479474 C206.61587651 111.90171152 198.32206479 111.89635445 190.02822465 111.89699382 C185.10552561 111.89724746 180.18287667 111.89446662 175.2601881 111.88381577 C170.65590343 111.87411505 166.05171689 111.87406901 161.4474287 111.8813324 C159.76647389 111.88237396 158.08551285 111.88004094 156.40456867 111.87397194 C142.00671005 111.8253658 128.63680244 112.09968882 118.25314426 123.50084114 Z " fill="#000000" transform="translate(1775.3718557357788,642.8741588592529)"/>
<path d="M0 0 C1.55604446 0.00090637 1.55604446 0.00090637 3.14352417 0.00183105 C88.66651919 0.13567369 173.45716219 14.0880972 288 56.1875 C288.87350098 56.57099609 289.74700195 56.95449219 290.64697266 57.34960938 C305.08310841 63.69247822 318.93273757 70.79467873 325.875 85.875 C326.96179546 89.07500886 327.66405298 91.82802977 328 95.1875 C328.06445312 95.82042969 328.12890625 96.45335937 328.1953125 97.10546875 C328.97844246 111.43674698 320.49073301 124.98486764 314.25610352 137.32714844 C312.68756476 140.43737159 311.14074886 143.55773941 309.59570312 146.6796875 C308.58982383 148.68814265 307.58270414 150.69597716 306.57421875 152.703125 C305.89258919 154.08156586 305.89258919 154.08156586 305.19718933 155.487854 C298.60841442 168.43310942 290.03668598 178.50860467 276 183.1875 C260.55585709 184.20268612 250.55254667 180.60400628 237.05908203 173.38085938 C169.48322489 137.5363864 90.16921529 122.9822567 14.25 122.9375 C13.06146423 122.93649292 11.87292847 122.93548584 10.64837646 122.93444824 C-62.53101578 122.97620118 -135.37155043 137.13439163 -190 189.1875 C-190.77859375 189.91324219 -191.5571875 190.63898438 -192.359375 191.38671875 C-229.0679676 226.59832973 -248.32589169 279.69637743 -254 329.1875 C-254.09498779 330.0134668 -254.18997559 330.83943359 -254.2878418 331.69042969 C-259.93468048 386.40202223 -246.41335424 446.89240204 -213 491.1875 C-212.43023437 491.95578125 -211.86046875 492.7240625 -211.2734375 493.515625 C-200.58557657 507.59726168 -188.95869596 520.27845672 -175 531.1875 C-174.41331543 531.6505957 -173.82663086 532.11369141 -173.22216797 532.59082031 C-121.93970145 572.89843991 -57.00593429 587.30641895 7 589.1875 C7.73057617 589.21086426 8.46115234 589.23422852 9.21386719 589.25830078 C78.18685409 591.17511195 150.69975301 578.21617983 215.68188477 555.62475586 C216.60412842 555.30514893 217.52637207 554.98554199 218.4765625 554.65625 C219.28174316 554.37201172 220.08692383 554.08777344 220.91650391 553.79492188 C223 553.1875 223 553.1875 226 553.1875 C225.96274245 538.6266879 225.90274884 524.06611543 225.81609726 509.50551033 C225.77638151 502.74390418 225.74395136 495.98241315 225.72900391 489.22070312 C225.71454904 482.69126293 225.67935251 476.16212252 225.63169098 469.6328392 C225.61689151 467.14590437 225.60895981 464.65891857 225.60811615 462.17193985 C225.60574056 458.67950957 225.57861084 455.188061 225.54589844 451.69580078 C225.5509288 450.67512009 225.55595917 449.65443939 225.56114197 448.60282898 C225.44013224 440.21347842 223.61314997 432.67105411 217.875 426.3125 C208.94159324 418.34267622 198.38539621 418.6214349 187.09838867 418.70507812 C185.40373928 418.70288887 183.70909141 418.69888697 182.01445007 418.69322205 C178.38151542 418.68469302 174.74887705 418.68838988 171.11595726 418.7016449 C165.36084311 418.72208282 159.60602367 418.71195991 153.85090637 418.6973877 C140.59286898 418.66842532 127.33491975 418.67906284 114.07686615 418.69008636 C101.92724393 418.69978141 89.77777718 418.70093889 77.62818128 418.67020559 C71.91810601 418.65689869 66.20847866 418.66269682 60.49843061 418.68357086 C56.93266498 418.69261264 53.36706863 418.68503276 49.80131721 418.67315865 C48.1603423 418.67104381 46.5193412 418.6756546 44.87841034 418.6878643 C32.37691 418.77556644 19.91792484 417.87535078 10.00390625 409.3671875 C1.48323654 400.09909063 -1.31567147 389.64001151 -1.30078125 377.3828125 C-1.30506638 376.57818573 -1.3093515 375.77355896 -1.31376648 374.94454956 C-1.31946581 373.25552301 -1.32004285 371.56647193 -1.31567383 369.87744141 C-1.31251598 367.32541062 -1.33602055 364.7745442 -1.36132812 362.22265625 C-1.41642171 348.29866435 -0.06649235 336.78154775 9.8515625 326.21484375 C19.58999054 317.07779274 29.79475855 316.03695656 42.65029907 316.04705811 C44.42163399 316.04260142 44.42163399 316.04260142 46.22875345 316.0380547 C49.49849483 316.03089068 52.76820415 316.02819665 56.03795218 316.02745724 C59.56776753 316.02560192 63.09757159 316.01805216 66.62738037 316.01132202 C74.34245921 315.99775721 82.05753285 315.99171679 89.77262163 315.98731136 C94.59334326 315.98454565 99.41406289 315.98030768 104.23478317 315.97580719 C117.59150631 315.96361664 130.94822786 315.9533171 144.30495644 315.9499321 C145.15933423 315.94971253 146.01371202 315.94949297 146.89398005 315.94926675 C148.17855126 315.94893933 148.17855126 315.94893933 149.4890734 315.9486053 C151.22432367 315.94816184 152.95957395 315.94771528 154.69482422 315.94726562 C155.55556177 315.9470442 156.41629932 315.94682277 157.30311982 315.94659463 C171.24295334 315.94264854 185.18273451 315.92519936 199.12254782 315.9019061 C213.44683499 315.87816434 227.77109592 315.86572895 242.09540308 315.86456418 C250.13290215 315.86364898 258.17033303 315.85793573 266.20781326 315.83974457 C273.0533346 315.82430537 279.89876666 315.81924555 286.74430211 315.82748267 C290.23340683 315.83137579 293.72233199 315.83052561 297.21141434 315.81642532 C301.00369574 315.80368906 304.79552045 315.80959241 308.58779907 315.82000732 C310.22179136 315.80792272 310.22179136 315.80792272 311.88879359 315.79559398 C324.43834565 315.87585546 335.83872545 318.60854362 345.2578125 327.26171875 C351.68544875 334.05698733 356.11559268 342.0236465 356.13142776 351.53769016 C356.13526891 352.40623617 356.13911005 353.27478217 356.1430676 354.16964775 C356.14220112 355.1193392 356.14133463 356.06903064 356.14044189 357.04750061 C356.14489858 358.56619213 356.14489858 358.56619213 356.1494453 360.11556429 C356.15813794 363.5185388 356.15964104 366.92147815 356.16113281 370.32446289 C356.16576066 372.76037674 356.17078528 375.19628987 356.17617798 377.63220215 C356.18930904 384.25852477 356.19578539 390.88484008 356.20018864 397.51117253 C356.20295303 401.6514513 356.20719083 405.79172774 356.21169281 409.93200493 C356.22388618 421.40226755 356.23418433 432.87252831 356.2375679 444.34279728 C356.23778747 445.07682481 356.23800703 445.81085235 356.23823325 446.56712314 C356.23845153 447.30288274 356.23866981 448.03864233 356.2388947 448.79669768 C356.23933816 450.28756082 356.23978473 451.77842397 356.24023438 453.26928711 C356.2404558 454.00880277 356.24067723 454.74831842 356.24090537 455.51024365 C356.24484984 467.48182657 356.2622928 479.45334849 356.2855939 491.42490787 C356.30934098 503.72527502 356.32177133 516.02561162 356.32293582 528.32600206 C356.32385087 535.22835037 356.32955979 542.13061927 356.34775543 549.03294563 C356.36482126 555.52950456 356.36638394 562.0259532 356.35761642 568.5225296 C356.35684683 570.9028889 356.36117851 573.28325634 356.37107468 575.6635952 C356.38382375 578.92211264 356.37790089 582.18009955 356.36749268 585.43861389 C356.37554908 586.37269028 356.38360548 587.30676667 356.39190602 588.26914841 C356.27435377 604.08824313 349.51221093 618.53581263 338.60546875 629.7890625 C334.67722803 633.40516415 330.54083253 636.39362665 326 639.1875 C325.30060303 639.62658691 324.60120605 640.06567383 323.88061523 640.51806641 C283.87621973 665.19203358 234.76535425 677.2704154 189 686.1875 C187.84000488 686.4148584 186.68000977 686.6422168 185.48486328 686.87646484 C158.69860784 692.05172863 131.71623293 695.80733055 104.5625 698.375 C103.3396077 698.49308517 103.3396077 698.49308517 102.0920105 698.61355591 C72.54755918 701.4309555 42.97656766 702.54899743 13.30883789 702.50317383 C10.05934854 702.498531 6.81023264 702.50554333 3.56079102 702.52368164 C-25.34618042 702.68313377 -54.00018406 701.21421901 -82.625 696.9375 C-83.32206055 696.83556335 -84.01912109 696.73362671 -84.73730469 696.62860107 C-100.985684 694.23884083 -117.01227431 690.92206875 -133 687.1875 C-134.16402344 686.91711914 -135.32804687 686.64673828 -136.52734375 686.36816406 C-164.92140882 679.6635539 -192.4244216 670.20543516 -219 658.1875 C-220.31726074 657.59606201 -220.31726074 657.59606201 -221.66113281 656.99267578 C-246.3892491 645.81976004 -269.66404299 631.9652114 -291 615.1875 C-291.99515625 614.40632813 -292.9903125 613.62515625 -294.015625 612.8203125 C-311.34447949 598.90771789 -328.66189814 583.01077344 -342 565.1875 C-342.50273437 564.53410645 -343.00546875 563.88071289 -343.5234375 563.20751953 C-352.62300898 551.37964912 -360.63565662 539.16161302 -368 526.1875 C-368.40025391 525.49543457 -368.80050781 524.80336914 -369.21289062 524.09033203 C-398.03573016 473.99407643 -408.20844984 413.59713429 -408.25 356.4375 C-408.25067474 355.58989105 -408.25134949 354.7422821 -408.25204468 353.86898804 C-408.14703173 270.04412064 -377.67360597 183.38039269 -321.41943359 120.77001953 C-320.15027548 119.35504139 -318.89634383 117.92644013 -317.64453125 116.49609375 C-308.2126841 105.79292294 -298.19819513 96.03078056 -287 87.1875 C-285.2913182 85.75041422 -283.5829933 84.312904 -281.875 82.875 C-270.63306038 73.68872934 -258.54034727 65.48947436 -246 58.1875 C-245.3714209 57.81979492 -244.7428418 57.45208984 -244.09521484 57.07324219 C-205.68391136 34.74475797 -164.39078613 20.31592531 -121 11.1875 C-120.12182617 10.99849121 -119.24365234 10.80948242 -118.33886719 10.61474609 C-79.57859494 2.34738167 -39.54677169 -0.04317028 0 0 Z " fill="#000000" transform="translate(434,629.8125)"/>
<path d="M0 0 C1.33868134 -0.0049926 1.33868134 -0.0049926 2.70440674 -0.01008606 C4.58353159 -0.01512203 6.46266528 -0.01749542 8.34179688 -0.01733398 C11.18114352 -0.01951437 14.02009718 -0.03768913 16.859375 -0.05664062 C41.51198963 -0.13852321 41.51198963 -0.13852321 52.640625 5.85546875 C53.65950806 6.38720703 53.65950806 6.38720703 54.69897461 6.9296875 C68.54916738 14.34381865 76.33767695 24.03747844 83.265625 37.98046875 C84.39622638 40.21660568 85.52776034 42.4522713 86.66015625 44.6875 C86.95358917 45.27081085 87.24702209 45.8541217 87.54934692 46.45510864 C90.04095994 51.39750478 92.62250954 56.28953581 95.21484375 61.1796875 C101.29750991 72.67750499 107.06582523 84.32889524 112.84863281 95.97949219 C118.14967929 106.65216671 123.51643586 117.27828421 129.09472656 127.80908203 C131.96259174 133.22319349 134.75040383 138.66932913 137.453125 144.16796875 C140.53413716 150.38303084 143.68881163 156.54738117 146.953125 162.66796875 C151.96371709 172.07931113 156.70159278 181.6242588 161.453125 191.16796875 C166.40722954 201.11837569 171.37246524 211.05025529 176.6171875 220.8515625 C181.28094014 229.62574119 185.6572715 238.5463948 190.08465576 247.44128418 C194.54910057 256.40702795 199.05950608 265.33606218 203.77734375 274.171875 C207.78487843 281.71308045 211.56815405 289.36576143 215.3699646 297.01190186 C218.98306156 304.27484938 222.63817483 311.50857893 226.453125 318.66796875 C230.59090924 326.4332105 234.53594856 334.28983252 238.453125 342.16796875 C242.26675007 349.83767533 246.10139714 357.48890401 250.140625 365.04296875 C255.72100533 375.49174986 260.94553478 386.12049151 266.22549438 396.72296143 C271.03401985 406.37530514 275.8658522 416.00423881 280.94921875 425.515625 C284.99966158 433.12255422 288.80646634 440.84983457 292.64257812 448.56640625 C295.79479342 454.89306162 299.00358381 461.18028445 302.328125 467.41796875 C306.68429967 475.59484146 310.82728138 483.87344342 314.953125 492.16796875 C318.97536732 500.25406151 323.00748851 508.32757356 327.265625 516.29296875 C332.17964692 525.49188176 336.8053299 534.8328048 341.453125 544.16796875 C348.2855734 557.92532542 348.2855734 557.92532542 355.390625 571.54296875 C360.89483602 581.81881593 366.02829949 592.28350126 371.2225647 602.71810913 C375.75118227 611.8129922 380.28666477 620.89521188 385.078125 629.85546875 C388.33227976 635.97024931 391.48498367 642.12648499 394.515625 648.35546875 C394.8986377 649.12270264 395.28165039 649.88993652 395.67626953 650.68041992 C398.31256537 656.18633893 399.97621663 661.28401341 399.140625 667.48828125 C397.14738618 672.72053316 394.26363793 676.23495698 389.453125 679.16796875 C383.7687043 681.65376838 378.29447628 681.45692111 372.20629883 681.44262695 C371.08192413 681.44773788 369.95754944 681.45284882 368.79910278 681.45811462 C365.08606627 681.47200152 361.37321564 681.47105402 357.66015625 681.46875 C355.07191397 681.47263834 352.48367233 681.4769733 349.89543152 681.48173523 C344.46924502 681.4891962 339.04313023 681.4890465 333.61694336 681.48364258 C327.36853936 681.47761478 321.12036122 681.4898864 314.87199575 681.51121265 C308.83745006 681.53104289 302.80302144 681.53399136 296.76843834 681.53047752 C294.21251585 681.53098925 291.65658965 681.53619897 289.10068703 681.54628944 C285.51592549 681.5587015 281.93167788 681.55183233 278.34692383 681.5402832 C277.30186172 681.54792694 276.25679962 681.55557068 275.18006897 681.56344604 C261.86709121 681.46920769 248.56577464 677.34111145 238.703125 668.10546875 C230.55611414 659.14052425 225.1690615 647.99543175 219.75332642 637.24945068 C214.4490328 626.74247513 209.01481242 616.31422441 203.265625 606.04296875 C202.7497583 605.10855957 202.2338916 604.17415039 201.70239258 603.21142578 C198.18561107 596.9994702 194.78166712 591.75517991 187.953125 588.91796875 C187.2209375 588.6034375 186.48875 588.28890625 185.734375 587.96484375 C180.60010046 586.17136429 175.60076274 586.00272427 170.20581055 585.96264648 C169.36726626 585.95275538 168.52872198 585.94286428 167.66476727 585.93267345 C164.80648852 585.90059737 161.94819841 585.87588721 159.08984375 585.8515625 C156.97579778 585.83061355 154.86175364 585.80947869 152.74771118 585.78817749 C146.81080818 585.73066684 140.87386239 585.6815268 134.93686295 585.63513565 C131.13713046 585.60544144 127.33741054 585.57439025 123.53768921 585.54330444 C66.98295582 585.09134131 10.42615628 585.02623317 -46.13010961 584.98931354 C-54.77348416 584.98331188 -63.41684422 584.97243674 -72.06021118 584.95968628 C-82.7453343 584.94417248 -93.43043179 584.93645367 -104.11556649 584.93821859 C-109.66030895 584.93902092 -115.20500344 584.93674115 -120.74973679 584.92609787 C-125.89691143 584.91640682 -131.04399886 584.91630225 -136.19117677 584.92349541 C-138.05884254 584.92451041 -139.92651392 584.92218628 -141.79417002 584.91608989 C-165.79130215 584.43564302 -165.79130215 584.43564302 -186.90222168 594.36643982 C-190.4948298 598.30172964 -192.53199786 603.32306189 -194.828125 608.08203125 C-195.70944068 609.86342744 -196.59075763 611.64482302 -197.47214508 613.4261837 C-198.69855679 615.91406301 -199.91172824 618.4083071 -201.12530518 620.90246582 C-202.94579551 624.63700902 -204.78427279 628.36271657 -206.62160492 632.08899498 C-208.05464296 634.9956579 -209.48369068 637.90409838 -210.90441895 640.81680298 C-226.29500962 672.26798161 -226.29500962 672.26798161 -242.70462036 678.33557129 C-253.43666238 681.43595794 -263.60580056 681.75541709 -274.7265625 681.69921875 C-276.63412676 681.70192103 -278.54168966 681.70580952 -280.44924927 681.71081543 C-284.41779897 681.71666734 -288.38598518 681.70828231 -292.35449219 681.68945312 C-297.42151965 681.66657208 -302.48770362 681.67987173 -307.55470085 681.70374298 C-311.48227227 681.71823832 -315.40964547 681.71357947 -319.33722305 681.70323181 C-321.20539579 681.7005797 -323.07358701 681.70378042 -324.94173813 681.71315002 C-345.45745587 681.7935606 -345.45745587 681.7935606 -352.13912964 675.7208252 C-354.51113017 673.10431768 -356.22540919 670.70409265 -356.546875 667.16796875 C-356.7325 665.71390625 -356.7325 665.71390625 -356.921875 664.23046875 C-356.62223639 650.05756237 -345.24946284 633.48091531 -338.96289062 621.01660156 C-330.1158906 603.41493264 -321.72513929 585.57386123 -313.23828125 567.796875 C-311.41950357 563.98891283 -309.59353661 560.18451855 -307.76171875 556.3828125 C-303.43755626 547.40497148 -299.12521945 538.42259367 -294.8984375 529.3984375 C-294.58251648 528.72406143 -294.26659546 528.04968536 -293.94110107 527.35487366 C-293.28804297 525.96069443 -292.63498718 524.56651411 -291.98193359 523.17233276 C-291.48814209 522.11829758 -291.48814209 522.11829758 -290.984375 521.04296875 C-290.4881665 519.98373703 -290.4881665 519.98373703 -289.98193359 518.90310669 C-283.99262741 506.13055045 -277.83070946 493.44646068 -271.62738037 480.7767334 C-266.15156883 469.58730427 -260.80701887 458.35430296 -255.61303711 447.03076172 C-250.29754559 435.50481922 -244.69168987 424.12344435 -239.10269165 412.72836304 C-233.57976347 401.46255964 -228.1678826 390.16814338 -222.99902344 378.73461914 C-220.36924924 372.92554222 -217.62357113 367.19874612 -214.73657227 361.51367188 C-209.15163435 350.49205636 -203.88719759 339.30941219 -198.546875 328.16796875 C-198.10005371 327.23694336 -197.65323242 326.30591797 -197.19287109 325.34667969 C-192.49256944 315.55241018 -187.81873577 305.74571481 -183.1640625 295.9296875 C-175.6720284 280.13200821 -168.1768104 264.33712766 -160.546875 248.60546875 C-160.23751007 247.96755402 -159.92814514 247.32963928 -159.60940552 246.6723938 C-158.69928914 244.79589451 -157.78910728 242.91942698 -156.87890625 241.04296875 C-150.68047738 228.26342692 -144.56379244 215.44548491 -138.5 202.6015625 C-136.9951419 199.41519904 -135.48989117 196.22902133 -133.984375 193.04296875 C-133.60265137 192.23497833 -133.22092773 191.42698792 -132.82763672 190.59451294 C-126.67593855 177.58104465 -120.40872464 164.62725982 -114.08688354 151.69573975 C-108.76607097 140.8056742 -103.5852383 129.86531169 -98.52270508 118.85229492 C-92.12467283 104.99105857 -85.37362815 91.30064059 -78.67378235 77.58361816 C-75.58229836 71.2502478 -72.52226679 64.90223019 -69.484375 58.54296875 C-68.83964233 57.19803345 -68.83964233 57.19803345 -68.18188477 55.82592773 C-66.13652573 51.54818034 -64.1249459 47.25857753 -62.1640625 42.94140625 C-54.38132463 25.8840893 -44.79313828 11.25536027 -26.546875 4.16796875 C-25.81984375 3.884375 -25.0928125 3.60078125 -24.34375 3.30859375 C-16.34049623 0.42306688 -8.43208691 0.01117389 0 0 Z M-4.546875 197.16796875 C-11.2510983 204.03540811 -14.76591939 213.53199176 -18.734375 222.10546875 C-19.52253217 223.79038662 -20.31144804 225.47494976 -21.10107422 227.15917969 C-23.59602031 232.48942832 -26.07217957 237.82829595 -28.546875 243.16796875 C-29.3577806 244.91493645 -30.16881448 246.6618446 -30.97998047 248.40869141 C-34.18019957 255.30221877 -37.37720787 262.19721907 -40.56567383 269.09619141 C-45.96969662 280.78715166 -51.42652494 292.45204406 -56.92196655 304.10028076 C-61.30893255 313.39952995 -65.6659983 322.71159014 -69.984375 332.04296875 C-74.95266085 342.77648772 -79.98866154 353.47662043 -85.046875 364.16796875 C-98.44998315 392.31997564 -98.44998315 392.31997564 -111.16088867 420.78662109 C-113.40361351 425.96450247 -115.9225564 430.9762848 -118.48193359 436.00170898 C-121.14053124 441.2599826 -123.59635115 446.59429854 -125.984375 451.98046875 C-126.32654053 452.75181152 -126.66870605 453.5231543 -127.02124023 454.31787109 C-130.21678262 461.5873437 -131.30413432 467.2272634 -130.546875 475.16796875 C-128.02490383 480.39872376 -124.38247605 483.71184929 -119.234375 486.35546875 C-112.72714306 488.32277143 -105.9945585 488.31424844 -99.25538635 488.30168152 C-98.35243597 488.30394708 -97.4494856 488.30621263 -96.51917309 488.30854684 C-93.51089709 488.31484794 -90.5026666 488.31405999 -87.49438477 488.31323242 C-85.33049461 488.31622629 -83.16660499 488.31962934 -81.00271606 488.32341003 C-75.13706723 488.33222975 -69.27143299 488.33458726 -63.40577817 488.33522582 C-59.73921066 488.33593732 -56.07264684 488.33807351 -52.40608025 488.34072304 C-39.60950358 488.34996879 -26.81293732 488.35405877 -14.01635742 488.35327148 C-2.09552134 488.35267046 9.82526953 488.36322913 21.74609417 488.37901515 C31.98920099 488.39209526 42.23229303 488.3974552 52.47540814 488.39681607 C58.58954749 488.39656129 64.70364662 488.39940223 70.81777763 488.40999413 C76.56747167 488.41968333 82.31708708 488.41974859 88.06678391 488.41247749 C90.173849 488.41143278 92.28091902 488.41378783 94.38797569 488.41983795 C97.27029335 488.42757659 100.15234071 488.42290068 103.03465271 488.41520691 C104.27699327 488.42292225 104.27699327 488.42292225 105.54443163 488.43079346 C113.6821887 488.38298674 120.97684704 487.43935779 127.453125 482.16796875 C131.19900189 477.91589228 132.6357108 475.43218492 132.828125 469.79296875 C132.87710937 468.83648438 132.92609375 467.88 132.9765625 466.89453125 C132.17856534 461.21326791 129.8064902 456.36986929 127.453125 451.16796875 C126.92348145 449.99024902 126.39383789 448.8125293 125.84814453 447.59912109 C124.3543227 444.29610333 122.84238311 441.00162503 121.32571411 437.70904541 C119.55737849 433.86943802 117.79638195 430.02646644 116.03515625 426.18359375 C115.66355881 425.37306549 115.29196136 424.56253723 114.90910339 423.72744751 C110.57518621 414.26561128 106.29701035 404.77865584 102.015625 395.29296875 C95.64096233 381.17148255 89.20401102 367.08052812 82.71328735 353.01205444 C77.09677854 340.8302768 71.61833082 328.59155712 66.19403076 316.32315063 C61.34504147 305.36097021 56.38573656 294.46011553 51.31103516 283.60009766 C47.17827092 274.751434 43.11466612 265.87328816 39.078125 256.98046875 C38.45258138 255.60399207 37.82701173 254.22752722 37.20141602 252.85107422 C34.24643065 246.34558067 31.30111649 239.8359223 28.3755188 233.31715393 C27.02211781 230.30329577 25.66444332 227.29137212 24.30633545 224.27963257 C23.66294262 222.84963208 23.02164628 221.41868615 22.38262939 219.98672485 C16.29423784 204.40167706 16.29423784 204.40167706 4.015625 194.23046875 C0.28456322 194.13946724 -1.44262823 195.07735358 -4.546875 197.16796875 Z " fill="#000000" transform="translate(1234.546875,642.83203125)"/>
<path d="M0 0 C8.78483914 6.37715019 14.17962883 14.88585392 19.375 24.25 C20.35371878 25.97998883 21.33245491 27.70996812 22.31222534 29.43936157 C23.31966501 31.22060553 24.32249641 33.00438387 25.32470703 34.78857422 C28.43970821 40.32388323 31.63059012 45.81548646 34.8125 51.3125 C36.06284325 53.4789686 37.31284247 55.64563579 38.5625 57.8125 C39.18125 58.885 39.8 59.9575 40.4375 61.0625 C46.0625 70.8125 46.0625 70.8125 47.93774414 74.06298828 C49.18685518 76.22807071 50.43604129 78.39310982 51.68530273 80.55810547 C54.82452309 85.99865706 57.96240563 91.43997216 61.09765625 96.8828125 C67.11997329 107.33456199 73.15919337 117.77549548 79.25 128.1875 C84.67171178 137.45749777 90.01454915 146.77081752 95.33172607 156.10095215 C100.53295129 165.2253284 105.79277878 174.31382774 111.09594727 183.37939453 C117.25016742 193.90334625 123.33619996 204.46630137 129.42138672 215.03027344 C132.54930148 220.45909942 135.68108448 225.88569281 138.8125 231.3125 C140.06251879 233.47915583 141.31251878 235.6458225 142.5625 237.8125 C143.18125 238.885 143.8 239.9575 144.4375 241.0625 C180.0625 302.81249999 180.0625 302.81249999 181.93774414 306.06298828 C183.18685518 308.22807071 184.43604129 310.39310982 185.68530273 312.55810547 C188.82452309 317.99865706 191.96240563 323.43997216 195.09765625 328.8828125 C200.55344481 338.3513501 206.01432105 347.81632905 211.53149414 357.24926758 C217.00937102 366.61512185 222.46612282 375.99321391 227.87307739 385.40020752 C228.57196236 386.61475534 229.2723348 387.82844867 229.97433472 389.04119873 C238.68899119 404.10439382 245.18533491 417.48335492 240.55859375 435.19921875 C236.19296978 448.29609065 228.29085309 457.5031127 216.25390625 464.05078125 C209.93862164 466.75972803 203.9708755 467.60890731 197.1464119 467.56976891 C196.36074766 467.57327498 195.57508342 467.57678105 194.76561117 467.58039337 C192.14097154 467.58967468 189.5165554 467.58479254 186.89190674 467.57992554 C184.98789501 467.58366344 183.08388481 467.58826552 181.17987704 467.59365618 C175.95357448 467.6058842 170.72733594 467.60562594 165.50102234 467.60326743 C159.86215225 467.60285922 154.22330267 467.61389884 148.58444214 467.62338257 C137.53905047 467.63999236 126.49368014 467.6454921 115.44827703 467.64660732 C106.46973398 467.64755779 97.49119798 467.651668 88.51265717 467.65800858 C67.19684938 467.6727552 45.88104817 467.68505832 24.56523514 467.68401146 C23.88378445 467.6839803 23.20233376 467.68394914 22.50023304 467.68391704 C19.04648944 467.68375083 15.59274584 467.68355275 12.13900223 467.68334763 C11.11014468 467.68328779 11.11014468 467.68328779 10.06050212 467.68322675 C8.67343531 467.68314587 7.28636851 467.68306228 5.8993017 467.68297596 C-15.67848727 467.68175061 -37.25621338 467.69676189 -58.83398438 467.72412109 C-83.08619163 467.75485876 -107.33834472 467.77202725 -131.59057546 467.77019465 C-144.42799438 467.7695307 -157.26534239 467.7750252 -170.10274506 467.79655075 C-181.03253905 467.81476026 -191.96223 467.81911168 -202.89203259 467.8055319 C-208.46718056 467.79900123 -214.04213081 467.79888889 -219.61725998 467.8162384 C-224.72485699 467.83196935 -229.83209951 467.82910501 -234.93968788 467.81167014 C-236.78352782 467.80860033 -238.62739421 467.81223186 -240.47120294 467.82339029 C-255.8105374 467.91004419 -267.79421767 465.87178068 -279.6875 455.3125 C-288.33213866 446.39005632 -292.75179256 435.64449072 -293 423.3125 C-293.05607422 421.518125 -293.05607422 421.518125 -293.11328125 419.6875 C-292.57484832 409.23103147 -287.82359662 399.97843301 -282.4375 391.25 C-281.17948185 389.15324763 -279.92303508 387.05555185 -278.66796875 384.95703125 C-278.01489746 383.87244629 -277.36182617 382.78786133 -276.68896484 381.67041016 C-273.63971219 376.55459886 -270.69449414 371.38019121 -267.7527771 366.20211792 C-266.07064418 363.24201651 -264.38291145 360.28511251 -262.6953125 357.328125 C-262.19450417 356.45032631 -262.19450417 356.45032631 -261.68357849 355.55479431 C-256.33962971 346.19310443 -250.93954797 336.86366326 -245.54638672 327.53027344 C-243.05060656 323.21002357 -240.55743703 318.88827013 -238.06445312 314.56640625 C-236.19040437 311.31753504 -234.31590572 308.06892368 -232.44140625 304.8203125 C-229.92680564 300.46184612 -227.41395339 296.10237809 -224.90234375 291.7421875 C-218.28527108 280.2580118 -211.64116023 268.79053106 -204.95458984 257.34667969 C-198.78830946 246.78629718 -192.6825405 236.19123234 -186.57861328 225.59472656 C-183.45069852 220.16590058 -180.31891552 214.73930719 -177.1875 209.3125 C-175.93748121 207.14584417 -174.68748122 204.9791775 -173.4375 202.8125 C-154.6875 170.3125 -154.6875 170.3125 -135.9375 137.8125 C-135.31866943 136.73983887 -134.69983887 135.66717773 -134.06225586 134.56201172 C-132.81314482 132.39692929 -131.56395871 130.23189018 -130.31469727 128.06689453 C-127.17547691 122.62634294 -124.03759437 117.18502784 -120.90234375 111.7421875 C-114.28527108 100.2580118 -107.64116023 88.79053106 -100.95458984 77.34667969 C-96.69767051 70.05627223 -92.46743066 62.75081486 -88.25 55.4375 C-87.6324585 54.36814209 -87.01491699 53.29878418 -86.37866211 52.19702148 C-83.46875516 47.15431723 -80.56669762 42.10752982 -77.69178772 37.0447998 C-76.69298059 35.2869891 -75.69150292 33.53072688 -74.68920898 31.77490234 C-73.4412061 29.58685146 -72.19812543 27.3959819 -70.96118164 25.20166016 C-62.91156658 11.11907282 -54.51479687 -1.29530378 -38.19140625 -6.0625 C-24.45212307 -8.51320826 -12.0221075 -7.30276919 0 0 Z " fill="#007CC1" transform="translate(4375.6875,6.6875)"/>
<path d="M0 0 C1.27954056 -0.00503792 1.27954056 -0.00503792 2.58493042 -0.01017761 C5.38825969 -0.01963006 8.19152886 -0.02162786 10.99487305 -0.02270508 C12.95631433 -0.02592166 14.91775538 -0.02928604 16.87919617 -0.03279114 C20.98538773 -0.03876817 25.0915583 -0.04063251 29.19775391 -0.04003906 C34.4395539 -0.03993753 39.68121817 -0.05358679 44.92298603 -0.07081127 C48.97322702 -0.08197156 53.02343562 -0.08395703 57.07369041 -0.08342934 C59.00523534 -0.08460349 60.93678127 -0.08899332 62.86831093 -0.0967617 C89.56326266 -0.19407497 89.56326266 -0.19407497 99.1940918 8.14526367 C108.38601363 17.85899766 109.34871117 28.89402442 109.32551956 41.68708324 C109.3275722 42.74173343 109.32962483 43.79638361 109.33173966 44.88299289 C109.33740891 48.42861402 109.3359525 51.9741963 109.33453369 55.51982117 C109.33711736 58.08293652 109.34013053 60.64605148 109.34353709 63.20916587 C109.35110827 69.52212463 109.3533097 75.83507492 109.35386615 82.14803775 C109.35478065 89.71011195 109.36145071 97.27217834 109.36821297 104.83424918 C109.38426573 123.10983205 109.39017524 141.38541409 109.39496172 159.66100274 C109.39729819 168.30702847 109.40090087 176.95305353 109.4046571 185.59907874 C109.41749137 215.1975936 109.42821113 244.79610809 109.4316597 274.39462566 C109.43188133 276.25229193 109.43210311 278.1099582 109.43232505 279.96762447 C109.43254569 281.82976128 109.43276617 283.69189808 109.4329865 285.55403489 C109.43342905 289.28976675 109.43387616 293.02549861 109.43432617 296.76123047 C109.43449026 298.15059473 109.43449026 298.15059473 109.43465766 299.56802696 C109.43828877 329.60550485 109.45421151 359.64295862 109.47751654 389.68042727 C109.50211346 421.44108483 109.51583245 453.2017286 109.51702762 484.96239597 C109.51719907 488.44896337 109.5174145 491.93553076 109.51766205 495.42209816 C109.51771782 496.28058318 109.51777359 497.1390682 109.51783104 498.02356792 C109.51898154 511.83721482 109.53000332 525.65083694 109.5445491 539.46447548 C109.55891653 553.34880899 109.56214967 567.23311076 109.55410913 581.11744966 C109.54965421 589.36448851 109.55350799 597.61142486 109.56934763 605.85845024 C109.58025172 612.01860814 109.57545242 618.17866042 109.56457576 624.33881626 C109.56261367 626.82938418 109.56572074 629.31996235 109.57442012 631.81051584 C109.58550495 635.19860033 109.57802856 638.58616808 109.56602859 641.9742384 C109.57362379 642.93861616 109.58121898 643.90299393 109.58904433 644.89659527 C109.50412871 656.02063462 107.52763769 665.0615803 99.59643555 673.08276367 C91.78499196 679.78917377 82.79547604 681.44642786 72.77734375 681.43579102 C71.40020958 681.44586685 71.40020958 681.44586685 69.99525452 681.45614624 C66.97423822 681.47506978 63.95344485 681.47904792 60.93237305 681.48120117 C58.81878063 681.48763415 56.70518909 681.49436288 54.59159851 681.50137329 C50.1642348 681.51333279 45.73694903 681.51705559 41.30957031 681.51586914 C35.66201212 681.51566629 30.01495906 681.54293932 24.36752033 681.57741356 C20.00149788 681.59975569 15.63559546 681.6037044 11.26952171 681.60264969 C9.18889823 681.60499576 7.10827093 681.61376267 5.02770424 681.62931442 C-10.02380036 681.73126807 -22.37971273 681.63519825 -33.73950195 670.51245117 C-40.97116982 662.22815868 -40.95683531 653.18292253 -40.93454266 642.66870689 C-40.93629569 641.6211098 -40.93804873 640.57351271 -40.93985489 639.49417025 C-40.94451869 635.9725306 -40.94204839 632.45093216 -40.93962097 628.92929077 C-40.94148875 626.38338742 -40.94378933 623.83748436 -40.94648629 621.29158175 C-40.95133405 615.75031027 -40.95305799 610.20905128 -40.95203018 604.66777802 C-40.95050547 596.42742131 -40.95466655 588.18707427 -40.95990481 579.94671944 C-40.96957849 564.37232552 -40.97238907 548.79793489 -40.97296187 533.22353832 C-40.97342135 521.19530616 -40.9754794 509.16707528 -40.97866249 497.13884354 C-40.97956003 493.67689312 -40.98044985 490.21494269 -40.98133737 486.75299227 C-40.98155842 485.89234324 -40.98177946 485.03169421 -40.98200721 484.1449649 C-40.98816201 459.93408324 -40.99210772 435.72320204 -40.99166393 411.51231956 C-40.99164835 410.59940188 -40.99163278 409.68648419 -40.99161672 408.74590233 C-40.99153362 404.11883417 -40.99143458 399.49176601 -40.99133202 394.86469786 C-40.99131207 393.94574309 -40.99129213 393.02678832 -40.99127158 392.07998644 C-40.99123114 390.22163494 -40.99118934 388.36328344 -40.99114619 386.50493194 C-40.99053352 357.59646327 -40.99803805 328.68800633 -41.01171875 299.77954102 C-41.02708228 267.30172208 -41.03568479 234.82391085 -41.03475553 202.34608805 C-41.0346809 198.8822515 -41.03463219 195.41841495 -41.03460121 191.9545784 C-41.03458956 191.1016934 -41.0345779 190.24880841 -41.0345659 189.37007841 C-41.03453513 175.64961896 -41.04091891 161.9291697 -41.04953348 148.20871327 C-41.05801408 134.41622368 -41.05899673 120.62374898 -41.05242416 106.83125822 C-41.04873111 98.63999623 -41.05055351 90.44877951 -41.0603665 82.25752233 C-41.06707835 76.137111 -41.06330637 70.01674785 -41.05549327 63.89633878 C-41.05395503 61.42325069 -41.05578664 58.95015769 -41.06135335 56.47707538 C-41.13667856 20.6352427 -41.13667856 20.6352427 -32.05200195 10.11401367 C-22.99630127 1.47908292 -12.04074317 -0.00689553 0 0 Z " fill="#000000" transform="translate(3651.805908203125,642.854736328125)"/>
</svg>
