<svg width="17" height="16" viewBox="0 0 17 16" fill="none" xmlns="http://www.w3.org/2000/svg">
<path d="M16.3439 8.17912C16.3439 7.65244 16.2952 7.15244 16.2118 6.66577H8.35156V9.67246H12.852C12.6503 10.6591 12.0591 11.4925 11.1826 12.0591V14.0592H13.8676C15.4397 12.6658 16.3439 10.6125 16.3439 8.17912Z" fill="#4285F4"/>
<path d="M8.34824 16C10.602 16 12.487 15.28 13.8643 14.06L11.1793 12.06C10.4281 12.54 9.4751 12.8333 8.34824 12.8333C6.17103 12.8333 4.32771 11.4266 3.6669 9.52661H0.898438V11.5866C2.26876 14.2 5.08591 16 8.34824 16Z" fill="#34A853"/>
<path d="M3.66577 9.52596C3.49188 9.04596 3.40145 8.53262 3.40145 7.99929C3.40145 7.46595 3.49883 6.95261 3.66577 6.47261V4.4126H0.897314C0.326928 5.4926 0 6.70594 0 7.99929C0 9.29263 0.326928 10.506 0.897314 11.586L3.66577 9.52596Z" fill="#FBBC05"/>
<path d="M8.34824 3.16669C9.57944 3.16669 10.6785 3.57336 11.548 4.3667L13.9269 2.08668C12.487 0.793339 10.602 0 8.34824 0C5.08591 0 2.26876 1.80001 0.898438 4.41336L3.6669 6.47338C4.32771 4.57336 6.17103 3.16669 8.34824 3.16669Z" fill="#EA4335"/>
</svg>
