<?xml version="1.0" encoding="UTF-8"?>
<svg version="1.1" xmlns="http://www.w3.org/2000/svg" width="379" height="512">
<path d="M0 0 C14.41123914 8.5182519 27.20633647 18.84095683 39.46697593 30.19150496 C40.18612442 30.85261526 40.9052729 31.51372557 41.64621377 32.19486952 C91.74936386 78.65845928 100.82099414 135.68421319 103.35369468 200.68759871 C106.07352421 273.2733584 102.66361646 346.17274871 97.41472983 418.5757823 C97.36243281 419.30084268 97.31013579 420.02590305 97.256254 420.77293496 C96.91335438 425.50862086 96.5541137 430.24278095 96.18514609 434.97650862 C96.09817818 436.13471898 96.01121026 437.29292934 95.92160696 438.48623699 C94.86428786 451.51304249 93.10106031 463.90511747 83.06072593 473.21884871 C76.62541982 478.08245505 69.81887063 480.87267142 61.77347827 480.88822603 C60.16760385 480.8949128 60.16760385 480.8949128 58.52928752 480.90173465 C56.76623785 480.90145811 56.76623785 480.90145811 54.96757102 480.90117598 C53.71826397 480.90485266 52.46895692 480.90852935 51.18179208 480.91231745 C47.71178146 480.92232769 44.24178813 480.92605268 40.77176511 480.92870677 C37.02993298 480.93261276 33.28811451 480.94219095 29.54629111 480.95091963 C20.50815614 480.97067651 11.47002005 480.98074962 2.43186888 480.98964742 C-1.82594995 480.99403191 -6.08376754 480.99939833 -10.3415854 481.00463629 C-24.49858903 481.02164839 -38.6555919 481.03614185 -52.81260419 481.04338503 C-56.48593101 481.04529488 -60.15925782 481.04721522 -63.83258462 481.04917097 C-64.74555593 481.04965471 -65.65852725 481.05013845 -66.59916436 481.05063685 C-81.38369688 481.05893446 -96.16814843 481.08426692 -110.95264561 481.11675165 C-126.13680361 481.14984207 -141.32092049 481.16783561 -156.50511473 481.17102927 C-165.02832963 481.17319262 -173.55142646 481.18191547 -182.07460618 481.20749044 C-189.33450596 481.22922461 -196.59425899 481.23723457 -203.85418762 481.22752366 C-207.55585498 481.22298668 -211.25721975 481.22482962 -214.95884538 481.24428511 C-218.97935301 481.26523331 -222.99919305 481.25490673 -227.01973367 481.24175215 C-228.75936076 481.25820602 -228.75936076 481.25820602 -230.53413182 481.27499229 C-240.9980346 481.19252851 -249.84622098 478.5869803 -257.96271157 471.80869246 C-265.26406903 464.33687529 -268.28954665 455.3500696 -268.22779298 445.02051878 C-268.23129905 444.26947626 -268.23480513 443.51843374 -268.23841745 442.74463236 C-268.24771025 440.23175194 -268.24281364 437.71910436 -268.23794961 435.20621443 C-268.24168694 433.38484898 -268.24628879 431.56348514 -268.25168025 429.74212384 C-268.26391545 424.73966202 -268.26364917 419.73726704 -268.2612915 414.73479366 C-268.26088347 409.33859905 -268.27192121 403.9424259 -268.28140664 398.54624128 C-268.29802048 387.9749646 -268.30351636 377.40371022 -268.3046314 366.83242157 C-268.30558169 358.23952481 -268.30969105 349.64663541 -268.31603265 341.05374098 C-268.33364611 316.69162902 -268.34287135 292.32953469 -268.3413717 267.96741632 C-268.34129179 266.65401205 -268.34121188 265.34060779 -268.34112954 263.98740339 C-268.34104778 262.67239559 -268.34096602 261.35738779 -268.34088178 260.00253126 C-268.34006885 238.69023297 -268.35920796 217.37802772 -268.38740627 196.06574681 C-268.41613122 174.18277691 -268.42994678 152.29984147 -268.42821872 130.41685224 C-268.42755469 118.13109669 -268.43305297 105.84541522 -268.45457482 93.55967665 C-268.47278146 83.0993782 -268.47713815 72.63918743 -268.46355598 62.17888001 C-268.45702378 56.8428411 -268.45691842 51.50700879 -268.47426248 46.17098951 C-268.48998679 41.28298297 -268.48713593 36.39534694 -268.46969421 31.50734946 C-268.46662293 29.74223169 -268.47026152 27.97708632 -268.48141436 26.21200112 C-268.55608576 13.55243883 -267.44533005 2.84427692 -259.02521157 -7.23818254 C-220.28541532 -45.09418116 -44.33462566 -25.22390267 0 0 Z " fill="#1AA05F" transform="translate(273.9705240726471,24.245995044708252)"/>
<path d="M0 0 C59.73 0 119.46 0 181 0 C181 54.12 181 108.24 181 164 C121.27 164 61.54 164 0 164 C0 109.88 0 55.76 0 0 Z " fill="#EFF0EF" transform="translate(97,250)"/>
<path d="M0 0 C6.95061487 5.6917231 13.20587533 12.06500757 19.54467773 18.4152832 C20.80657137 19.67582024 22.0686773 20.93614479 23.33097839 22.1962738 C26.74188213 25.60263675 30.14963715 29.01213321 33.55668139 32.42235589 C37.12393954 35.99215164 40.69364342 39.55950038 44.26295471 43.12724304 C50.24896124 49.11143339 56.23286267 55.09772264 62.21557617 61.08520508 C69.14104222 68.01612761 76.07012354 74.94342017 83.00106472 81.86886722 C88.95203946 87.8153129 94.90107449 93.76369385 100.84847409 99.71371526 C104.40090644 103.26770961 107.95401817 106.82101767 111.50887871 110.37258339 C114.84439945 113.70522792 118.17748828 117.04028527 121.5086689 120.37726784 C122.73495618 121.60488343 123.96210642 122.83163765 125.19015503 124.0574913 C126.85832489 125.72295281 128.52342248 127.39142431 130.18772888 129.06074524 C130.68099543 129.55178106 131.17426197 130.04281688 131.68247598 130.54873258 C135 133.88584919 135 133.88584919 135 135 C121.22167238 135.06962685 107.44338688 135.12287578 93.6649189 135.15543652 C87.26645806 135.17106701 80.86811794 135.1922577 74.46972656 135.22631836 C68.29055475 135.25900477 62.11149878 135.27687269 55.93224716 135.28463173 C53.57923434 135.29015856 51.22622759 135.30095101 48.87326431 135.31719017 C45.56787857 135.33908747 42.26296657 135.34196174 38.95751953 135.34057617 C37.99294327 135.351362 37.028367 135.36214783 36.03456116 135.3732605 C25.18776073 135.32432271 16.87576883 132.54383988 9 125 C1.53162585 116.84675312 -0.45832619 108.89898433 -0.34057617 98.0859375 C-0.34101425 97.0216301 -0.34145233 95.95732269 -0.34190369 94.86076355 C-0.33982437 91.36531825 -0.31653324 87.87036085 -0.29296875 84.375 C-0.28736976 81.94262962 -0.2831011 79.51025584 -0.28010559 77.07788086 C-0.26868073 70.69263277 -0.23923361 64.30759114 -0.20599365 57.92242432 C-0.17524202 51.4001342 -0.16158936 44.87781055 -0.14648438 38.35546875 C-0.11436186 25.57022469 -0.06377494 12.78512336 0 0 Z " fill="#8DD0B0" transform="translate(233,8)"/>
<path d="M0 0 C18.81 0 37.62 0 57 0 C57 9.57 57 19.14 57 29 C38.19 29 19.38 29 0 29 C0 19.43 0 9.86 0 0 Z " fill="#1DA261" transform="translate(198,363)"/>
<path d="M0 0 C18.81 0 37.62 0 57 0 C57 9.57 57 19.14 57 29 C38.19 29 19.38 29 0 29 C0 19.43 0 9.86 0 0 Z " fill="#1EA262" transform="translate(119,363)"/>
<path d="M0 0 C18.81 0 37.62 0 57 0 C57 9.24 57 18.48 57 28 C38.19 28 19.38 28 0 28 C0 18.76 0 9.52 0 0 Z " fill="#1AA15F" transform="translate(198,318)"/>
<path d="M0 0 C18.81 0 37.62 0 57 0 C57 9.24 57 18.48 57 28 C38.19 28 19.38 28 0 28 C0 18.76 0 9.52 0 0 Z " fill="#1BA260" transform="translate(119,318)"/>
<path d="M0 0 C18.48 0 36.96 0 56 0 C56 9.24 56 18.48 56 28 C37.52 28 19.04 28 0 28 C0 18.76 0 9.52 0 0 Z " fill="#18A05E" transform="translate(199,273)"/>
<path d="M0 0 C18.48 0 36.96 0 56 0 C56 9.24 56 18.48 56 28 C37.52 28 19.04 28 0 28 C0 18.76 0 9.52 0 0 Z " fill="#1AA160" transform="translate(120,273)"/>
<path d="M0 0 C0.33 0 0.66 0 1 0 C1.21914062 0.845625 1.43828125 1.69125 1.6640625 2.5625 C4.68555983 13.37110832 8.24468119 19.70516197 17.75390625 25.7734375 C25.92364231 30.2348238 33.91121585 30.14607637 43.00543213 30.13371277 C44.22448518 30.13597833 45.44353822 30.13824388 46.69953227 30.14057809 C50.07575826 30.14580872 53.45193094 30.14656375 56.82815719 30.14538372 C60.47245269 30.14517944 64.11674029 30.15070108 67.7610321 30.15544128 C74.89838493 30.16374275 82.03572949 30.16649591 89.17308673 30.16705366 C94.97615844 30.1675291 100.77922743 30.16958523 106.58229828 30.17275429 C123.04211513 30.18155979 139.50192547 30.18617387 155.9617447 30.18542381 C156.84883672 30.18538386 157.73592874 30.1853439 158.64990234 30.18530273 C159.53808005 30.18526185 160.42625775 30.18522097 161.34134993 30.18517885 C175.73194523 30.1847725 190.12251435 30.19433964 204.51310208 30.2084411 C219.29616441 30.22281261 234.07921398 30.22971085 248.86228347 30.22884732 C257.15903692 30.2285156 265.45576292 30.23125172 273.75251007 30.24202538 C280.81729655 30.2511406 287.88204316 30.25329726 294.94683298 30.24651595 C298.54906544 30.2432558 302.15122144 30.24317575 305.75344658 30.2518692 C309.66454401 30.26121069 313.5755304 30.25494491 317.4866333 30.24723816 C318.61680571 30.25238172 319.74697812 30.25752529 320.91139817 30.26282471 C332.8206343 30.21104653 342.70496343 28.54361649 351.8203125 20.3671875 C356.74478755 15.04677476 360.06885252 8.21639297 361 1 C361.33 1 361.66 1 362 1 C362.6554924 8.53816264 360.46665506 14.54366868 356.08203125 20.6875 C350.32411014 27.53585927 343.84589693 32.15611831 335 34 C333.24984132 34.09191053 331.49656945 34.13083274 329.74400234 34.13422108 C328.13812792 34.14090784 328.13812792 34.14090784 326.49981159 34.14772969 C324.73676192 34.14745315 324.73676192 34.14745315 322.93809509 34.14717102 C321.68878804 34.15084771 320.43948099 34.1545244 319.15231615 34.1583125 C315.68230553 34.16832273 312.2123122 34.17204772 308.74228919 34.17470181 C305.00045706 34.17860781 301.25863859 34.188186 297.51681519 34.19691467 C288.47868021 34.21667155 279.44054413 34.22674467 270.40239295 34.23564246 C266.14457412 34.24002696 261.88675653 34.24539338 257.62893867 34.25063133 C243.47193504 34.26764344 229.31493217 34.28213689 215.15791988 34.28938007 C211.48459306 34.29128992 207.81126625 34.29321026 204.13793945 34.29516602 C203.22496814 34.29564976 202.31199682 34.2961335 201.37135971 34.2966319 C186.58682719 34.30492951 171.80237564 34.33026196 157.01787847 34.36274669 C141.83372046 34.39583711 126.64960358 34.41383066 111.46540934 34.41702431 C102.94219444 34.41918766 94.41909761 34.42791051 85.89591789 34.45348549 C78.63601811 34.47521966 71.37626508 34.48322961 64.11633646 34.47351871 C60.41466909 34.46898173 56.71330433 34.47082466 53.0116787 34.49028015 C48.99117107 34.51122836 44.97133102 34.50090177 40.95079041 34.48774719 C39.79103901 34.49871644 38.63128762 34.50968568 37.43639225 34.52098733 C26.97248947 34.43852355 18.12430309 31.83297534 10.0078125 25.0546875 C4.0157437 18.92272604 0.18802494 11.17068577 -0.125 2.5625 C-0.08375 1.716875 -0.0425 0.87125 0 0 Z " fill="#168952" transform="translate(6,471)"/>
<path d="M0 0 C0.81860789 -0.00170885 1.63721579 -0.0034177 2.48062998 -0.00517833 C5.20906544 -0.00845864 7.93725207 0.0025063 10.66566467 0.01345825 C12.62726333 0.01402268 14.58886241 0.01370519 16.55046082 0.01257324 C21.86602962 0.01199997 27.18150796 0.02375025 32.49705577 0.03772116 C38.05574124 0.05023269 43.61442884 0.05139935 49.17312622 0.05377197 C59.69499696 0.05998549 70.21682609 0.0763946 80.73867851 0.09647095 C94.95990586 0.12301631 109.1811446 0.13380363 123.40239048 0.14547539 C145.80276109 0.16427525 168.20304388 0.20412183 190.60340881 0.24050903 C190.60340881 35.55050903 190.60340881 70.86050903 190.60340881 107.24050903 C190.27340881 107.24050903 189.94340881 107.24050903 189.60340881 107.24050903 C189.60340881 72.92050903 189.60340881 38.60050903 189.60340881 3.24050903 C155.56918592 3.36023375 155.56918592 3.36023375 121.53504944 3.49832153 C107.65396131 3.55872002 93.77288567 3.6171026 79.89173889 3.66238403 C69.78170204 3.69537308 59.67171947 3.7352424 49.5617426 3.78329909 C44.21091509 3.80849538 38.86012326 3.83029685 33.50925255 3.843853 C28.46712874 3.85673581 23.42512775 3.87885674 18.3830719 3.90789223 C16.53810267 3.91691955 14.6931137 3.92264684 12.84812355 3.92472267 C-8.12280887 3.72235308 -8.12280887 3.72235308 -25.99034119 13.72097778 C-31.81272457 20.34216377 -34.09137681 26.70509394 -35.39659119 35.24050903 C-35.72659119 35.24050903 -36.05659119 35.24050903 -36.39659119 35.24050903 C-37.23149049 25.84789181 -33.40857843 17.38174054 -27.45127869 10.24832153 C-19.74092389 2.71386836 -10.61805058 -0.08204891 0 0 Z " fill="#4FB784" transform="translate(42.39659118652344,6.759490966796875)"/>
</svg>
