<svg xmlns="http://www.w3.org/2000/svg" width="20" height="20" viewBox="0 0 20 20"><path d="M6.10413 11.25H14.6666L12.0208 7.4375L9.68746 10.625L8.06246 8.60417L6.10413 11.25ZM4.52079 15.1458C4.11297 15.1458 3.75755 14.9921 3.45452 14.6846C3.15148 14.3772 2.99996 14.024 2.99996 13.625V1.875C2.99996 1.47604 3.15148 1.12283 3.45452 0.815374C3.75755 0.507902 4.11297 0.354166 4.52079 0.354166H16.2708C16.6698 0.354166 17.023 0.507902 17.3304 0.815374C17.6379 1.12283 17.7916 1.47604 17.7916 1.875V13.625C17.7916 14.024 17.6379 14.3772 17.3304 14.6846C17.023 14.9921 16.6698 15.1458 16.2708 15.1458H4.52079ZM4.52079 13.625H16.2708V1.875H4.52079V13.625ZM1.74996 17.9167C1.34214 17.9167 0.986716 17.7629 0.683688 17.4555C0.380647 17.148 0.229126 16.7948 0.229126 16.3958V3.125H1.74996V16.3958H15.0208V17.9167H1.74996Z" fill="#666666"></path></svg>