<?xml version="1.0" encoding="UTF-8"?>
<svg version="1.1" xmlns="http://www.w3.org/2000/svg" width="512" height="512">
<path d="M0 0 C0.82762942 -0.00170885 1.65525885 -0.0034177 2.50796795 -0.00517833 C5.26093597 -0.00845339 8.01365627 0.00249753 10.76660156 0.01345825 C12.7480519 0.0140228 14.72950266 0.01370496 16.71095276 0.01257324 C22.07604726 0.01200041 27.44105197 0.02374348 32.80612564 0.03772116 C38.41819043 0.05024012 44.03025738 0.05139994 49.64233398 0.05377197 C60.26333596 0.05998331 70.88429667 0.07638947 81.50528049 0.09647095 C93.59954695 0.11884071 105.69381539 0.1298261 117.78809738 0.13986182 C142.6611633 0.16075598 167.53419262 0.19592525 192.40722656 0.24050903 C192.74674275 1.80167722 193.078552 3.36452242 193.40722656 4.92800903 C193.59285156 5.79812622 193.77847656 6.66824341 193.96972656 7.56472778 C194.40722656 10.24050903 194.40722656 10.24050903 194.40722656 15.24050903 C138.96722656 15.24050903 83.52722656 15.24050903 26.40722656 15.24050903 C26.40722656 110.94050903 26.40722656 206.64050903 26.40722656 305.24050903 C105.60722656 305.24050903 184.80722656 305.24050903 266.40722656 305.24050903 C266.40722656 334.94050903 266.40722656 364.64050903 266.40722656 395.24050903 C261.90720712 399.74052847 261.90720712 399.74052847 257.88803864 399.74108028 C256.98179198 399.75089457 256.07554532 399.76070886 255.14183664 399.77082056 C254.15002689 399.76121555 253.15821713 399.75161054 252.13635254 399.74171448 C250.55134075 399.75001607 250.55134075 399.75001607 248.93430853 399.75848538 C245.3814246 399.7721353 241.82923788 399.75709815 238.27636719 399.74221802 C235.73370057 399.74599978 233.19103601 399.75149863 230.64837646 399.7585907 C224.44980082 399.77113161 218.25148501 399.76495501 212.05292231 399.74991512 C204.82845446 399.73305434 197.60403732 399.73626577 190.37955588 399.7400092 C177.47988421 399.74589121 164.58031004 399.73170748 151.68066406 399.70706177 C139.17932472 399.68317987 126.67811587 399.67604154 114.17675781 399.68655396 C100.55854334 399.69798507 86.94038928 399.69986311 73.3221755 399.68545586 C71.86722406 399.68393009 70.41227262 399.68240973 68.95732117 399.68089485 C68.24152099 399.68013704 67.52572082 399.67937922 66.78822973 399.67859844 C61.76036603 399.6738694 56.73252941 399.67569753 51.70466614 399.67996025 C44.92160757 399.68542633 38.13875516 399.67455834 31.35572052 399.6530056 C28.8709753 399.64745877 26.38621274 399.64695301 23.90146637 399.65195847 C20.4987705 399.65795128 17.09661691 399.64532888 13.69396973 399.62818909 C12.72000575 399.63419913 11.74604177 399.64020918 10.74256372 399.64640135 C-2.41308789 399.52663877 -14.20367616 395.80102858 -24.13574219 386.98269653 C-36.80609896 373.78175531 -38.91148244 359.23693085 -38.84674072 341.59568787 C-38.84905064 340.2594332 -38.8522307 338.92317981 -38.85619521 337.58692902 C-38.86447863 333.94867316 -38.86044766 330.31052336 -38.85422277 326.67226732 C-38.84967276 322.73565697 -38.85669453 318.79906408 -38.86218262 314.86245728 C-38.87105044 307.16477027 -38.8691665 299.46712239 -38.86335734 291.76943389 C-38.85883153 285.51216621 -38.85823191 279.25490946 -38.86040497 272.99764061 C-38.86071143 272.10542331 -38.8610179 271.21320602 -38.86133365 270.29395184 C-38.86197313 268.48119082 -38.86262156 266.66842981 -38.86327884 264.85566881 C-38.86897422 247.88032821 -38.86243616 230.90500925 -38.8516781 213.9296722 C-38.8427387 199.37336155 -38.84429938 184.81708279 -38.85351562 170.26077271 C-38.86422429 153.33947846 -38.86842982 136.41820314 -38.8622911 119.49690598 C-38.86165402 117.69191404 -38.86102528 115.8869221 -38.86040497 114.08193016 C-38.85994214 112.74992813 -38.85994214 112.74992813 -38.85946997 111.39101696 C-38.85774516 105.1418665 -38.8606534 98.89272808 -38.86536407 92.64357948 C-38.87097933 85.02737785 -38.8694427 77.41121743 -38.85880259 69.7950205 C-38.85355528 65.91136305 -38.85147315 62.02777426 -38.85810089 58.14411736 C-38.86518239 53.93081183 -38.85671289 49.71767892 -38.84674072 45.50437927 C-38.85120217 44.28200398 -38.85566361 43.05962869 -38.86026025 41.80021173 C-38.80756095 30.3251229 -37.15818454 19.64463728 -29.26464844 10.75222778 C-20.58167407 2.90103367 -11.46176842 -0.08800023 0 0 Z M-16.38183594 332.34597778 C-21.98271592 340.14030584 -24.43950972 348.00766417 -23.15917969 357.57644653 C-21.12722481 367.1336412 -15.73364932 374.71981222 -7.59277344 380.11550903 C-0.84500549 384.27469358 5.96903534 384.52847768 13.66404724 384.48101807 C15.19210018 384.48358134 15.19210018 384.48358134 16.75102288 384.4861964 C20.1565971 384.48948456 23.56197329 384.47849855 26.9675293 384.46755981 C29.41188045 384.46699556 31.85623193 384.46731255 34.30058289 384.46844482 C39.55904992 384.46889992 44.81747237 384.46323558 50.07592583 384.45196915 C57.67869094 384.43569057 65.28143208 384.43050373 72.88421274 384.42799316 C85.22026678 384.42361976 97.55629432 384.41032028 109.89233398 384.39138794 C121.87312691 384.37301996 133.85391263 384.35886795 145.8347168 384.35037231 C146.57365264 384.34984687 147.31258847 384.34932142 148.07391631 384.34878005 C151.78107149 384.34616991 155.48822673 384.34364251 159.195382 384.34115624 C189.93268669 384.32043478 220.66994272 384.28357098 251.40722656 384.24050903 C251.40722656 363.12050903 251.40722656 342.00050903 251.40722656 320.24050903 C220.11109757 320.17433453 188.81503625 320.11895672 157.5188591 320.08731304 C153.82149188 320.08356106 150.12412481 320.07967808 146.42675781 320.07571411 C145.69069907 320.07492718 144.95464032 320.07414025 144.19627677 320.07332947 C132.28843429 320.06028645 120.3806354 320.0366387 108.47281875 320.00905064 C96.24829903 319.9809657 84.02380209 319.96432625 71.79925144 319.95824355 C64.26005302 319.9541335 56.72097782 319.94116663 49.18181734 319.91675963 C43.39434601 319.89898138 37.60695309 319.89715121 31.81945992 319.90118599 C29.44996826 319.90036191 27.08047187 319.89441124 24.71100807 319.88289261 C21.46945125 319.86790987 18.22841648 319.8715768 14.98684692 319.87974548 C14.05491111 319.87100696 13.12297529 319.86226843 12.162799 319.85326511 C0.53356995 319.9321727 -8.750547 323.36505041 -16.38183594 332.34597778 Z " fill="#6C5AF0" transform="translate(71.5927734375,112.75949096679688)"/>
<path d="M0 0 C1.27294922 -0.00386719 2.54589844 -0.00773438 3.85742188 -0.01171875 C4.84802612 -0.00229248 4.84802612 -0.00229248 5.85864258 0.00732422 C7.86934592 0.02336125 9.87803141 0.00747473 11.88867188 -0.01171875 C13.8000293 -0.00591797 13.8000293 -0.00591797 15.75 0 C17.49494751 0.00507568 17.49494751 0.00507568 19.27514648 0.01025391 C22.78624944 0.44071529 24.66187085 1.23393224 27.44140625 3.3984375 C28.46743617 5.95616251 29.1629343 8.12301784 29.75390625 10.7734375 C29.92212891 11.4334375 30.09035156 12.0934375 30.26367188 12.7734375 C31.14191456 16.37244018 31.63436331 19.69652057 31.44140625 23.3984375 C37.24480436 21.1562155 42.25300832 18.10368294 47.4765625 14.7265625 C51.13899801 13.0859458 52.60345637 13.34572562 56.44140625 14.3984375 C59.90125679 16.95819591 62.8457664 19.99990038 65.86621094 23.06152344 C67.31293454 24.51993774 68.78876458 25.94344903 70.26953125 27.3671875 C71.18992187 28.28757813 72.1103125 29.20796875 73.05859375 30.15625 C73.90019043 30.9930127 74.74178711 31.82977539 75.60888672 32.69189453 C77.97366891 36.18456377 77.9254837 38.25609642 77.44140625 42.3984375 C76.59936523 44.53833008 76.59936523 44.53833008 75.4375 46.29296875 C75.02693359 46.93814453 74.61636719 47.58332031 74.19335938 48.24804688 C73.75958984 48.89580078 73.32582031 49.54355469 72.87890625 50.2109375 C71.32483561 52.57980807 69.86317787 54.94372951 68.44140625 57.3984375 C68.77140625 58.0584375 69.10140625 58.7184375 69.44140625 59.3984375 C72.97922666 60.29323161 76.51327444 61.03545141 80.09570312 61.72265625 C80.84529297 61.88121094 81.59488281 62.03976563 82.3671875 62.203125 C83.05208252 62.33702637 83.73697754 62.47092773 84.44262695 62.60888672 C87.2847002 63.73155252 88.60624935 64.94434024 90.44140625 67.3984375 C90.95898438 70.7265625 90.95898438 70.7265625 90.97265625 74.6484375 C90.97648315 75.34356445 90.98031006 76.03869141 90.98425293 76.75488281 C90.98696805 78.22071791 90.9796346 79.68660178 90.96289062 81.15234375 C90.94147044 83.39172725 90.96270068 85.62790337 90.98828125 87.8671875 C90.9856379 89.29427789 90.98051275 90.72136629 90.97265625 92.1484375 C90.96814453 93.44265625 90.96363281 94.736875 90.95898438 96.0703125 C90.35546995 99.95102411 89.57363861 101.10353458 86.44140625 103.3984375 C84.45849609 104.21972656 84.45849609 104.21972656 82.40234375 104.6640625 C81.65726563 104.83164062 80.9121875 104.99921875 80.14453125 105.171875 C79.37625 105.32914062 78.60796875 105.48640625 77.81640625 105.6484375 C77.04039062 105.82117188 76.264375 105.99390625 75.46484375 106.171875 C69.85770089 107.3984375 69.85770089 107.3984375 67.44140625 107.3984375 C68.16328125 108.460625 68.88515625 109.5228125 69.62890625 110.6171875 C70.56736304 112.04364182 71.50480992 113.47076093 72.44140625 114.8984375 C73.15683594 115.94257813 73.15683594 115.94257813 73.88671875 117.0078125 C76.35164264 120.81083794 78.57219376 124.51737056 78.23828125 129.22460938 C76.4771683 134.02882191 72.52435164 137.48434926 68.90869141 140.97412109 C67.44396696 142.39595178 66.02693147 143.85552601 64.609375 145.32421875 C56.83313173 153.0134551 56.83313173 153.0134551 52.2109375 153.3046875 C47.75330692 152.23300844 44.79146466 150.5760049 41.12890625 147.8984375 C36.72495101 144.49904902 36.72495101 144.49904902 31.44140625 143.3984375 C31.33828125 144.6565625 31.23515625 145.9146875 31.12890625 147.2109375 C29.56640625 161.2734375 29.56640625 161.2734375 25.44140625 165.3984375 C22.14140625 165.7284375 18.84140625 166.0584375 15.44140625 166.3984375 C15.44140625 183.5584375 15.44140625 200.7184375 15.44140625 218.3984375 C65.60140625 218.3984375 115.76140625 218.3984375 167.44140625 218.3984375 C167.40015625 199.5059375 167.35890625 180.6134375 167.31640625 161.1484375 C167.32003174 152.19734863 167.32003174 152.19734863 167.32373047 143.06542969 C167.29720277 137.72058728 167.29720277 137.72058728 167.26272583 132.37579346 C167.25117569 129.99349717 167.25145101 127.61112588 167.26101685 125.2288208 C167.27321293 121.62154286 167.24799587 118.01628204 167.21435547 114.40917969 C167.2326859 112.81472582 167.2326859 112.81472582 167.25138664 111.18806076 C167.20456273 108.45894348 167.11656868 106.04324614 166.44140625 103.3984375 C163.68151929 100.78860198 163.68151929 100.78860198 160.44140625 99.3984375 C156.59275249 94.71764238 156.35590346 92.79991799 155.44140625 86.3984375 C168.31140625 86.3984375 181.18140625 86.3984375 194.44140625 86.3984375 C192.12383868 96.82749155 192.12383868 96.82749155 187.44140625 101.3984375 C186.12758509 102.10277845 184.79701491 102.77831865 183.44140625 103.3984375 C183.43782372 104.35923155 183.43782372 104.35923155 183.43416882 105.33943558 C183.37504528 120.92144722 183.29951239 136.50327968 183.20569134 152.08511734 C183.16071638 159.62037 183.12130571 167.15557521 183.0949707 174.69091797 C183.0720043 181.25835629 183.03862166 187.82564468 182.99270469 194.39296412 C182.96875391 197.8706744 182.9500374 201.34823603 182.94379234 204.82602692 C182.93662744 208.70742597 182.90620857 212.58845222 182.8737793 216.46972656 C182.87521439 217.62418777 182.87664948 218.77864899 182.87812805 219.96809387 C182.8655899 221.02536179 182.85305176 222.0826297 182.84013367 223.17193604 C182.8355247 224.09004185 182.83091574 225.00814766 182.82616711 225.95407486 C182.36288717 228.89726451 181.49060617 230.25893644 179.44140625 232.3984375 C175.9857565 233.55032075 173.30730043 233.53016163 169.66043091 233.53887939 C168.62057189 233.54333608 168.62057189 233.54333608 167.55970562 233.5478828 C165.23136059 233.55657056 162.90306699 233.5580781 160.57470703 233.55957031 C158.90752045 233.56419839 157.24033492 233.56922304 155.57315063 233.57461548 C151.04007968 233.58774148 146.50702355 233.59418469 141.97393656 233.59862614 C139.14279766 233.60155621 136.31166283 233.60566087 133.48052597 233.61013031 C124.62519796 233.62380504 115.76987921 233.63347212 106.91454136 233.6373322 C96.68719157 233.64181469 86.45997532 233.65937153 76.23266613 233.6883328 C68.33025466 233.70993503 60.42788079 233.72003568 52.5254401 233.72137332 C47.80413042 233.72242229 43.08294627 233.72834968 38.36166763 233.74619293 C33.92114818 233.76264869 29.48084895 233.76484131 25.04030991 233.75605392 C23.41049358 233.75528224 21.78066554 233.75964356 20.15087891 233.76951218 C17.92577225 233.78219552 15.70144989 233.77637521 13.47634888 233.76593018 C12.23121584 233.76739674 10.9860828 233.7688633 9.70321846 233.7703743 C6.13963104 233.36402678 4.25102944 232.60150488 1.44140625 230.3984375 C0.3652126 227.16985656 0.32088129 224.85304471 0.32788086 221.45825195 C0.32799416 219.62669304 0.32799416 219.62669304 0.32810974 217.75813293 C0.33327103 216.43931625 0.33843231 215.12049957 0.34375 213.76171875 C0.34561545 212.39837191 0.34703875 211.03502439 0.34803772 209.67167664 C0.35185293 206.08615259 0.3616747 202.50066915 0.3727417 198.91516113 C0.38297724 195.2552953 0.38753993 191.5954229 0.39257812 187.93554688 C0.40329787 180.75649192 0.42036232 173.5774704 0.44140625 166.3984375 C-0.17347656 166.36105469 -0.78835937 166.32367188 -1.421875 166.28515625 C-2.63423828 166.18654297 -2.63423828 166.18654297 -3.87109375 166.0859375 C-4.67160156 166.02792969 -5.47210938 165.96992188 -6.296875 165.91015625 C-8.95874652 165.30790207 -9.88311409 164.51420878 -11.55859375 162.3984375 C-12.3581543 160.3137207 -12.3581543 160.3137207 -12.9453125 157.94921875 C-13.16123047 157.10166016 -13.37714844 156.25410156 -13.59960938 155.38085938 C-13.91961914 154.05924805 -13.91961914 154.05924805 -14.24609375 152.7109375 C-14.47103516 151.81826172 -14.69597656 150.92558594 -14.92773438 150.00585938 C-15.48075428 147.80554616 -16.02396208 145.60327754 -16.55859375 143.3984375 C-18.31074481 144.33191108 -20.06022938 145.2703907 -21.80859375 146.2109375 C-22.783125 146.73300781 -23.75765625 147.25507813 -24.76171875 147.79296875 C-27.52482619 149.29128265 -27.52482619 149.29128265 -29.68359375 151.05859375 C-32.17569842 152.83941021 -34.41256138 153.06782809 -37.4375 152.91796875 C-41.82760443 151.84267614 -44.47477168 148.52821056 -47.55859375 145.3984375 C-48.67540151 144.35746656 -49.79544625 143.31996217 -50.91796875 142.28515625 C-52.11202772 141.15767868 -53.30473066 140.02876332 -54.49609375 138.8984375 C-55.36657349 138.09853394 -55.36657349 138.09853394 -56.25463867 137.2824707 C-59.17638314 134.43362882 -60.44834273 132.79431955 -61.5703125 128.765625 C-61.55829499 125.31259422 -61.26165173 123.88046225 -59.43359375 121.0234375 C-58.97339844 120.27449219 -58.51320312 119.52554688 -58.0390625 118.75390625 C-57.55050781 117.97660156 -57.06195313 117.19929688 -56.55859375 116.3984375 C-55.61157252 114.71626233 -54.67364857 113.02892437 -53.74609375 111.3359375 C-53.01749082 110.02312447 -52.28842034 108.71057066 -51.55859375 107.3984375 C-52.39052246 107.25595581 -52.39052246 107.25595581 -53.23925781 107.1105957 C-55.76665337 106.66531533 -58.28711104 106.18851877 -60.80859375 105.7109375 C-61.68128906 105.56205078 -62.55398437 105.41316406 -63.453125 105.25976562 C-64.71962891 105.01323242 -64.71962891 105.01323242 -66.01171875 104.76171875 C-66.78676758 104.62032471 -67.56181641 104.47893066 -68.36035156 104.33325195 C-71.55083719 102.97648058 -72.7584714 101.34235618 -74.55859375 98.3984375 C-75.07617188 95.04858398 -75.07617188 95.04858398 -75.08984375 91.26953125 C-75.09367065 90.59801529 -75.09749756 89.92649933 -75.10144043 89.2346344 C-75.10415066 87.82185355 -75.09685163 86.40902176 -75.08007812 84.99633789 C-75.05861641 82.83821659 -75.07992133 80.68341043 -75.10546875 78.52539062 C-75.10282597 77.14843019 -75.097702 75.7714718 -75.08984375 74.39453125 C-75.08533203 73.14857178 -75.08082031 71.9026123 -75.07617188 70.61889648 C-74.4628142 66.80248087 -73.65126029 65.65420566 -70.55859375 63.3984375 C-68.36035156 62.57714844 -68.36035156 62.57714844 -66.01171875 62.1328125 C-64.74521484 61.88144531 -64.74521484 61.88144531 -63.453125 61.625 C-62.58042969 61.46773437 -61.70773438 61.31046875 -60.80859375 61.1484375 C-59.92042969 60.97570312 -59.03226563 60.80296875 -58.1171875 60.625 C-55.93323668 60.20229984 -53.74759213 59.79400897 -51.55859375 59.3984375 C-52.47432913 57.71043195 -53.39123449 56.02306109 -54.30859375 54.3359375 C-54.85128906 53.32917969 -55.39398438 52.32242188 -55.953125 51.28515625 C-57.22498949 48.99827581 -58.56898793 46.83666643 -59.99609375 44.6484375 C-61.95382611 40.5763542 -61.60017731 38.75136794 -60.55859375 34.3984375 C-58.7043457 31.78369141 -58.7043457 31.78369141 -56.296875 29.375 C-55.42482422 28.49972656 -54.55277344 27.62445313 -53.65429688 26.72265625 C-52.27661133 25.38654297 -52.27661133 25.38654297 -50.87109375 24.0234375 C-49.97197266 23.10949219 -49.07285156 22.19554687 -48.14648438 21.25390625 C-40.54334929 13.74560117 -40.54334929 13.74560117 -34.55859375 13.3984375 C-31.70703125 14.5078125 -31.70703125 14.5078125 -28.93359375 16.1484375 C-28.01320312 16.67953125 -27.0928125 17.210625 -26.14453125 17.7578125 C-23.55859375 19.3984375 -23.55859375 19.3984375 -21.47265625 21.0390625 C-19.47701396 22.4563758 -17.94899257 22.97158057 -15.55859375 23.3984375 C-15.44902344 22.625 -15.33945313 21.8515625 -15.2265625 21.0546875 C-12.89393654 5.73142102 -12.89393654 5.73142102 -8.86694336 1.70849609 C-5.79033153 -0.03757467 -3.52782815 0.01027167 0 0 Z M-23.66015625 56.75390625 C-31.67071062 67.47441411 -33.83116315 78.28832147 -32.55859375 91.3984375 C-30.46101319 101.74213165 -24.22729494 110.96348488 -15.87109375 117.3359375 C-6.73951697 123.15329728 3.6781187 125.78269233 14.44140625 124.3984375 C26.08024401 121.78922702 35.48926207 116.15917858 42.44140625 106.3984375 C48.82206742 95.9219673 50.90928692 85.53660654 48.31640625 73.5234375 C45.36236829 62.70104035 39.50405463 54.98119213 30.44140625 48.3984375 C12.07905304 38.08499783 -9.36203521 40.72831705 -23.66015625 56.75390625 Z " fill="#6362ED" transform="translate(202.55859375,167.6015625)"/>
<path d="M0 0 C10.87075082 10.03310735 18.12240099 24.48637743 18.96875 39.2578125 C19.5835496 57.85590156 15.62982756 72.63571627 3.53125 87.23046875 C-6.03823506 97.35423404 -19.73252022 105.1751002 -33.78710938 106.2199707 C-55.77344644 106.76701378 -55.77344644 106.76701378 -66.40625 102.04296875 C-67.33179688 101.64207031 -68.25734375 101.24117188 -69.2109375 100.828125 C-84.38735947 93.4118848 -94.30594203 80.5814153 -100.40625 65.08984375 C-105.61828641 49.20942033 -104.10527868 32.67240784 -96.78125 17.73046875 C-89.30232367 3.2347286 -77.14935161 -7.31614447 -61.83203125 -12.89453125 C-39.77652935 -19.91986723 -17.8084567 -14.48382599 0 0 Z M-25.40625 27.04296875 C-26.44613304 28.08251317 -27.48653367 29.12153999 -28.52734375 30.16015625 C-30.2267008 31.85926533 -31.92362216 33.56052221 -33.61401367 35.26855469 C-37.15425729 38.83717804 -40.78355579 42.22205388 -44.6171875 45.4765625 C-47.69988987 48.17560977 -50.55076567 51.10717393 -53.40625 54.04296875 C-56.76436644 51.60070225 -59.27252631 49.01556911 -61.84375 45.79296875 C-64.58458468 42.55086565 -64.58458468 42.55086565 -68.65625 41.35546875 C-71.6270579 42.09817073 -72.70086329 42.52976728 -74.40625 45.04296875 C-75.5016031 46.8394684 -75.5016031 46.8394684 -75.40625 49.04296875 C-72.81086408 53.3364958 -69.80469637 56.98977222 -66.40625 60.66796875 C-65.560625 61.58835938 -64.715 62.50875 -63.84375 63.45703125 C-60.07156109 67.72852585 -60.07156109 67.72852585 -55.53125 71.04296875 C-50.32502673 71.04296875 -46.17081527 65.94019674 -42.7265625 62.5234375 C-40.9897113 60.76411562 -39.2580761 58.9996316 -37.53125 57.23046875 C-32.22644965 51.81829988 -26.93109936 46.50254082 -21.17480469 41.5690918 C-18.67990404 39.41618954 -16.3211352 37.16381554 -13.96875 34.85546875 C-13.12441406 34.03691406 -12.28007812 33.21835938 -11.41015625 32.375 C-9.46373663 30.1098684 -8.63996582 28.98286773 -8.40625 26.04296875 C-9.76145439 22.61509883 -10.7339164 21.35568205 -14.09375 19.79296875 C-19.38368824 20.19220937 -21.78142517 23.37688575 -25.40625 27.04296875 Z " fill="#3A87E1" transform="translate(419.40625,56.95703125)"/>
<path d="M0 0 C1.43489137 -0.00256327 1.43489137 -0.00256327 2.89877045 -0.00517833 C6.10016216 -0.00846932 9.3013437 0.00252415 12.50271606 0.01345825 C14.79913834 0.01402245 17.09556097 0.01370564 19.39198303 0.01257324 C25.6249316 0.01199906 31.85780331 0.023764 38.090734 0.03772116 C44.6050207 0.05021761 51.11930913 0.05139816 57.63360596 0.05377197 C68.56704072 0.05928332 79.50044709 0.07177858 90.43386841 0.08963013 C101.69395812 0.1079959 112.95404017 0.12214899 124.21414185 0.13064575 C125.25573229 0.13143392 125.25573229 0.13143392 126.31836496 0.13223802 C129.80202971 0.13484814 133.28569451 0.13737555 136.76935935 0.13986182 C165.65722272 0.16058594 194.54505526 0.19635563 223.43289185 0.24050903 C223.43289185 12.78050903 223.43289185 25.32050903 223.43289185 38.24050903 C193.59742861 38.30832692 163.76197388 38.36203721 133.9264503 38.39370502 C130.40418329 38.39745715 126.88191644 38.40134011 123.35964966 38.40530396 C122.65842905 38.40609089 121.95720844 38.40687782 121.23473872 38.4076886 C109.8803142 38.42074291 98.52593524 38.44439689 87.17153774 38.47196742 C75.52108279 38.50002092 63.87065442 38.51646061 52.22016728 38.52277452 C45.67617073 38.5266895 39.13227752 38.53590705 32.58831406 38.5576992 C26.43079653 38.57803861 20.27342508 38.58434793 14.11587715 38.57983208 C11.85435887 38.58065841 9.59283578 38.58663909 7.33134651 38.59812546 C4.24602674 38.61302944 1.16126004 38.60947 -1.92407227 38.60127258 C-2.82096807 38.61001111 -3.71786387 38.61874963 -4.64193833 38.62775296 C-10.53702271 38.58535643 -14.82405824 37.66119197 -19.39523315 33.62722778 C-23.81764558 28.34220194 -25.85210508 24.2735332 -25.44210815 17.24050903 C-24.69037967 11.41898379 -22.4389078 8.01379291 -18.19210815 3.99050903 C-12.3380773 0.0878218 -6.79514451 -0.04452338 0 0 Z " fill="#8C3EF9" transform="translate(86.56710815429688,445.7594909667969)"/>
<path d="M0 0 C1.44551483 1.17773061 2.88310749 2.36525335 4.3125 3.5625 C5.03953125 4.14386719 5.7665625 4.72523437 6.515625 5.32421875 C25.85955461 21.45543278 36.31516458 45.51699066 39.03515625 70.15234375 C41.17765552 96.49603195 34.08142345 118.26653361 17.3125 138.5625 C9.82645737 147.85211065 4.91782056 155.40075163 3.3125 167.3125 C2.42999327 173.84304977 0.68088932 177.42517306 -4.25 181.875 C-7.5600128 184.16654733 -10.06661198 184.68764504 -13.99409485 184.70294189 C-14.87303406 184.70865204 -15.75197327 184.71436218 -16.657547 184.72024536 C-18.09997017 184.72192215 -18.09997017 184.72192215 -19.5715332 184.72363281 C-20.58645844 184.72859772 -21.60138367 184.73356262 -22.64706421 184.73867798 C-26.01081008 184.75330496 -29.37450878 184.76010256 -32.73828125 184.765625 C-35.07374574 184.77137605 -37.40921022 184.77713379 -39.74467468 184.78289795 C-44.64480815 184.79340949 -49.5449252 184.79925115 -54.44506836 184.80273438 C-60.72322329 184.80821908 -67.00116133 184.83224615 -73.27924824 184.86070633 C-78.10481906 184.87933228 -82.93033765 184.8845383 -87.75594139 184.88607025 C-90.0703875 184.88909745 -92.38483268 184.89712819 -94.69924355 184.91025543 C-97.93809115 184.92731445 -101.17640887 184.92543579 -104.4152832 184.91894531 C-105.37082596 184.9281601 -106.32636871 184.93737488 -107.31086731 184.9468689 C-112.52774613 184.91412871 -116.19124039 184.50817283 -120.6875 181.5625 C-125.86539831 176.14924268 -127.68635538 171.71568392 -128.5 164.375 C-130.06809856 153.94831482 -134.54999986 147.46249382 -141.38305664 139.66235352 C-158.41783428 120.03414476 -164.81743972 97.22206524 -163.6875 71.5625 C-161.67070088 45.14243147 -148.96162669 20.52123285 -129.00341797 3.09179688 C-92.36890923 -27.16042874 -37.96607871 -28.85159695 0 0 Z M-120.6875 16.5625 C-121.43773437 17.21734375 -122.18796875 17.8721875 -122.9609375 18.546875 C-139.41998665 33.9086542 -148.26193403 55.27629339 -149.03881836 77.61645508 C-149.30967707 100.58918343 -140.32989766 117.29101964 -125.9375 134.1875 C-118.2991534 143.45877935 -115.02802336 152.61646192 -113.23046875 164.2890625 C-112.87383801 167.43551204 -112.87383801 167.43551204 -111.6875 169.5625 C-98.94444376 169.60876362 -86.20140738 169.64433873 -73.45828438 169.66612434 C-67.54165819 169.67657834 -61.6250893 169.69076694 -55.70849609 169.71337891 C-50.00268869 169.73504975 -44.29693653 169.74705644 -38.59109116 169.75225449 C-36.41010544 169.75596062 -34.22912287 169.76319737 -32.04816055 169.77396011 C-29.0022545 169.78839852 -25.95657909 169.79048116 -22.91064453 169.78955078 C-21.5468718 169.80033661 -21.5468718 169.80033661 -20.1555481 169.81134033 C-15.43757364 170.03195428 -15.43757364 170.03195428 -11.6875 167.5625 C-11.39725309 165.48679485 -11.18025372 163.40063403 -11 161.3125 C-9.32853938 148.66641033 -2.79463655 139.11090527 5.3125 129.5625 C16.26702517 115.92523397 23.29810739 102.2375227 24.3125 84.5625 C24.36535156 83.76972656 24.41820312 82.97695312 24.47265625 82.16015625 C25.30292451 58.15457399 15.20583666 37.1620359 -0.46875 19.5625 C-14.56783508 4.6653535 -36.61031085 -4.92098891 -57 -5.640625 C-80.91316497 -6.03977096 -102.510495 0.57620896 -120.6875 16.5625 Z " fill="#3988E1" transform="translate(439.6875,20.4375)"/>
<path d="M0 0 C26.73 0 53.46 0 81 0 C81 18 81 18 78 22 C74.81213379 22.50793457 74.81213379 22.50793457 70.82226562 22.51757812 C69.73156013 22.52809204 69.73156013 22.52809204 68.61882019 22.53881836 C66.21424212 22.55642979 63.81084012 22.5447655 61.40625 22.53125 C59.73620375 22.53394404 58.06615904 22.53782572 56.39611816 22.54284668 C52.89560008 22.54874596 49.39549018 22.54016528 45.89501953 22.52148438 C41.40545411 22.49869419 36.91684508 22.51181503 32.42731476 22.53577423 C28.97862528 22.55022084 25.53016296 22.54563154 22.08146667 22.53526306 C20.4260395 22.53259261 18.77059178 22.53587673 17.1151886 22.54518127 C14.80214731 22.55532869 12.49065976 22.5398737 10.17773438 22.51757812 C8.86107788 22.51439575 7.54442139 22.51121338 6.18786621 22.50793457 C3 22 3 22 0 18 C0 12.06 0 6.12 0 0 Z " fill="#576DEA" transform="translate(337,218)"/>
</svg>
