<svg width="68" height="23" viewBox="0 0 68 23" fill="none" xmlns="http://www.w3.org/2000/svg">
<g clip-path="url(#clip0_11_233)">
<path d="M65.1939 14.3452L67.0539 15.5851C66.4503 16.4743 65.0064 17.9999 62.51 17.9999C59.4101 17.9999 57.1016 15.6015 57.1016 12.5505C57.1016 9.30375 59.4346 7.10114 62.249 7.10114C65.0797 7.10114 66.4665 9.3526 66.9153 10.5681L67.16 11.1882L59.867 14.2065C60.4217 15.2997 61.2865 15.8544 62.51 15.8544C63.7338 15.8544 64.5821 15.2507 65.1939 14.3452ZM59.4755 12.3793L64.3456 10.3561C64.0763 9.67906 63.277 9.19781 62.3224 9.19781C61.107 9.19781 59.4184 10.2746 59.4755 12.3793Z" fill="#FF302F"/>
<path d="M53.5856 1.54578H55.9349V17.5023H53.5856V1.54578Z" fill="#20B15A"/>
<path d="M49.8821 7.52529H52.1499V17.2167C52.1499 21.2384 49.776 22.8944 46.9697 22.8944C44.3267 22.8944 42.736 21.1161 42.1404 19.6722L44.2206 18.8074C44.5958 19.6965 45.5013 20.749 46.9697 20.749C48.7725 20.749 49.8821 19.6313 49.8821 17.543V16.7599H49.8005C49.262 17.4125 48.2342 17.9998 46.929 17.9998C44.2042 17.9998 41.7079 15.6259 41.7079 12.5668C41.7079 9.49128 44.2042 7.09302 46.929 7.09302C48.226 7.09302 49.262 7.67222 49.8005 8.30852H49.8821V7.52529ZM50.0451 12.5668C50.0451 10.6416 48.7644 9.23841 47.1329 9.23841C45.4849 9.23841 44.0982 10.6416 44.0982 12.5668C44.0982 14.4675 45.4849 15.8461 47.1329 15.8461C48.7645 15.8544 50.0452 14.4675 50.0452 12.5668" fill="#3686F7"/>
<path d="M28.8106 12.526C28.8106 15.6667 26.3634 17.9753 23.3613 17.9753C20.3594 17.9753 17.912 15.6586 17.912 12.526C17.912 9.36898 20.3594 7.06854 23.3613 7.06854C26.3634 7.06854 28.8106 9.36898 28.8106 12.526ZM26.4286 12.526C26.4286 10.5682 25.0091 9.22205 23.3613 9.22205C21.7135 9.22205 20.294 10.5682 20.294 12.526C20.294 14.4675 21.7135 15.8299 23.3613 15.8299C25.0092 15.8299 26.4286 14.4675 26.4286 12.526Z" fill="#FF302F"/>
<path d="M40.7127 12.5505C40.7127 15.6912 38.2654 17.9998 35.2634 17.9998C32.2613 17.9998 29.8141 15.6911 29.8141 12.5505C29.8141 9.39346 32.2613 7.10114 35.2634 7.10114C38.2654 7.10114 40.7127 9.38534 40.7127 12.5505ZM38.3225 12.5505C38.3225 10.5927 36.9031 9.24653 35.2552 9.24653C33.6074 9.24653 32.1879 10.5927 32.1879 12.5505C32.1879 14.492 33.6074 15.8544 35.2552 15.8544C36.9112 15.8544 38.3225 14.4838 38.3225 12.5505Z" fill="#FFBA40"/>
<path d="M8.95484 15.6097C5.53672 15.6097 2.86111 12.8523 2.86111 9.43422C2.86111 6.01623 5.53672 3.2589 8.95484 3.2589C10.7985 3.2589 12.1445 3.9849 13.1397 4.91492L14.7795 3.27527C13.3927 1.94558 11.5409 0.933838 8.95484 0.933838C4.27238 0.933969 0.332153 4.75188 0.332153 9.43422C0.332153 14.1168 4.27238 17.9346 8.95484 17.9346C11.4838 17.9346 13.3927 17.1025 14.8855 15.5526C16.4191 14.0189 16.8923 11.8652 16.8923 10.1195C16.8923 9.5729 16.827 9.01007 16.7536 8.59403H8.95484V10.8619H14.5102C14.3471 12.2814 13.8984 13.2521 13.2376 13.9128C12.4382 14.7205 11.1738 15.6097 8.95484 15.6097Z" fill="#3686F7"/>
</g>
<defs>
<clipPath id="clip0_11_233">
<rect width="67.05" height="22" fill="white" transform="translate(0.233521 0.900024)"/>
</clipPath>
</defs>
</svg>
