<svg width="22" height="24" viewBox="0 0 22 24" fill="none" xmlns="http://www.w3.org/2000/svg">
<g clip-path="url(#clip0_300_3177)">
<path d="M18.5719 4.71281C18.5554 4.59281 18.4502 4.5264 18.3634 4.51909C17.7228 4.47095 17.0821 4.4232 16.4415 4.37583C16.4415 4.37583 15.1669 3.11049 15.027 2.97043C14.8871 2.83046 14.6137 2.87303 14.5076 2.90427C14.492 2.90887 14.2291 2.98999 13.7943 3.12454C13.3686 1.89939 12.6172 0.773526 11.2953 0.773526C11.2588 0.773526 11.2212 0.775006 11.1837 0.777143C10.8077 0.279965 10.342 0.0639648 9.93977 0.0639648C6.86045 0.0639648 5.3893 3.91342 4.92804 5.86958C3.73149 6.24035 2.88147 6.50394 2.77289 6.53805C2.105 6.74755 2.08388 6.7686 1.99618 7.39794C1.93018 7.8744 0.182617 21.3891 0.182617 21.3891L13.8 23.9405L21.1783 22.3443C21.1783 22.3443 18.5882 4.83281 18.5719 4.71281ZM13.0417 3.35731L11.8894 3.71394C11.8898 3.63273 11.8903 3.55284 11.8903 3.46547C11.8903 2.70405 11.7846 2.09098 11.615 1.60498C12.2961 1.69046 12.7497 2.46544 13.0417 3.35731ZM10.7701 1.75596C10.9594 2.23046 11.0826 2.91142 11.0826 3.83032C11.0826 3.87733 11.0822 3.92032 11.0817 3.9638C10.3324 4.19591 9.51812 4.44791 8.70204 4.70073C9.16026 2.93229 10.0192 2.07816 10.7701 1.75596ZM9.85519 0.88991C9.9881 0.88991 10.122 0.935033 10.2501 1.02323C9.26325 1.48761 8.20544 2.6572 7.75873 4.99284L5.87769 5.57542C6.40092 3.79391 7.64341 0.88991 9.85519 0.88991Z" fill="#95BF46"/>
<path d="M18.3632 4.51936C17.7226 4.47122 17.082 4.42347 16.4414 4.3761C16.4414 4.3761 15.1668 3.11075 15.0269 2.9707C14.9746 2.91859 14.904 2.89188 14.8302 2.88037L13.8005 23.9406L21.1782 22.3446C21.1782 22.3446 18.588 4.83308 18.5718 4.71308C18.5552 4.59308 18.4501 4.52667 18.3632 4.51936Z" fill="#5E8E3E"/>
<path d="M11.2952 8.59581L10.3854 11.3021C10.3854 11.3021 9.58834 10.8766 8.61124 10.8766C7.1788 10.8766 7.10672 11.7756 7.10672 12.0021C7.10672 13.2381 10.3286 13.7117 10.3286 16.6068C10.3286 18.8846 8.88395 20.3513 6.93601 20.3513C4.59847 20.3513 3.40308 18.8965 3.40308 18.8965L4.02897 16.8285C4.02897 16.8285 5.25773 17.8835 6.29458 17.8835C6.97209 17.8835 7.24768 17.3501 7.24768 16.9603C7.24768 15.348 4.60439 15.2761 4.60439 12.6268C4.60439 10.397 6.20483 8.23926 9.43546 8.23926C10.6803 8.23926 11.2952 8.59581 11.2952 8.59581Z" fill="#FEFEFE"/>
</g>
<defs>
<clipPath id="clip0_300_3177">
<rect width="21.05" height="24" fill="white" transform="translate(0.175049)"/>
</clipPath>
</defs>
</svg>
