<svg width="25" height="24" viewBox="0 0 25 24" fill="none" xmlns="http://www.w3.org/2000/svg">
<g clip-path="url(#clip0_300_3172)">
<path d="M24.7 12C24.7 5.37262 19.3273 0 12.7 0C6.07258 0 0.699951 5.37262 0.699951 12C0.699951 17.9895 5.0882 22.954 10.825 23.8542V15.4688H7.77808V12H10.825V9.35625C10.825 6.34875 12.6165 4.6875 15.3576 4.6875C16.6705 4.6875 18.0437 4.92188 18.0437 4.92188V7.875H16.5306C15.0399 7.875 14.575 8.80003 14.575 9.74906V12H17.9031L17.371 15.4688H14.575V23.8542C20.3117 22.954 24.7 17.9896 24.7 12Z" fill="#1877F2"/>
<path d="M17.371 15.4688L17.9031 12H14.575V9.74906C14.575 8.79994 15.0399 7.875 16.5306 7.875H18.0437V4.92188C18.0437 4.92188 16.6705 4.6875 15.3575 4.6875C12.6165 4.6875 10.825 6.34875 10.825 9.35625V12H7.77808V15.4688H10.825V23.8542C11.4452 23.9514 12.0721 24.0002 12.7 24C13.3278 24.0002 13.9547 23.9514 14.575 23.8542V15.4688H17.371Z" fill="#FEFEFE"/>
</g>
<defs>
<clipPath id="clip0_300_3172">
<rect width="24" height="24" fill="white" transform="translate(0.699951)"/>
</clipPath>
</defs>
</svg>
