<?xml version="1.0" encoding="UTF-8"?>
<svg version="1.1" xmlns="http://www.w3.org/2000/svg" width="512" height="512">
<path d="M0 0 C5.24211335 0.50563692 8.19104896 2.58591286 12.46875 5.5078125 C14.15745637 6.61801451 15.84762558 7.72599381 17.5390625 8.83203125 C18.42368164 9.4151709 19.30830078 9.99831055 20.21972656 10.59912109 C24.86326207 13.61205808 29.60481252 16.46072597 34.34375 19.3203125 C41.67749573 23.76574502 48.99392289 28.23666677 56.28125 32.7578125 C64.06353554 37.58565033 71.85562323 42.39715829 79.65625 47.1953125 C80.74784424 47.86675293 81.83943848 48.53819336 82.96411133 49.22998047 C85.18875824 50.59821582 87.41344921 51.96637954 89.63818359 53.33447266 C95.08242568 56.68274938 100.5255389 60.03286009 105.96875 63.3828125 C108.13541108 64.71615492 110.30207775 66.04948824 112.46875 67.3828125 C125.46875 75.3828125 125.46875 75.3828125 128.72216797 77.38500977 C130.87732953 78.7112007 133.03260202 80.03721139 135.18798828 81.36303711 C140.1945906 84.44300307 145.20018506 87.52456239 150.20159912 90.61294556 C151.95182595 91.69359298 153.70242108 92.77364132 155.453125 93.85351562 C157.63354013 95.19869109 159.81328377 96.5449559 161.9921875 97.89257812 C164.97785456 99.73361123 167.97088403 101.56171786 170.96875 103.3828125 C172.0417334 104.03822021 173.1147168 104.69362793 174.22021484 105.36889648 C175.80503662 106.31937866 175.80503662 106.31937866 177.421875 107.2890625 C178.3696582 107.86076172 179.31744141 108.43246094 180.29394531 109.02148438 C184.72873279 111.27854672 188.17905482 111.69486449 192.96875 110.3828125 C197.15279576 108.49535509 200.99134947 106.1860514 204.85351562 103.7265625 C207.15384598 102.26522613 209.47314107 100.83787433 211.796875 99.4140625 C216.2939727 96.65310519 220.77529458 93.86757971 225.25292969 91.07519531 C229.54868936 88.39826201 233.85229305 85.73403944 238.15625 83.0703125 C239.44088135 82.27488037 239.44088135 82.27488037 240.75146484 81.46337891 C251.03458117 75.09908123 261.33685934 68.76591794 271.63818359 62.43115234 C277.08242568 59.08287562 282.5255389 55.73276491 287.96875 52.3828125 C290.13541108 51.04947008 292.30207775 49.71613676 294.46875 48.3828125 C296.0775 47.3928125 296.0775 47.3928125 297.71875 46.3828125 C300.96875 44.3828125 304.21875 42.3828125 307.46875 40.3828125 C308.54189453 39.72240967 309.61503906 39.06200684 310.72070312 38.3815918 C312.88083701 37.05229113 315.04099315 35.72302663 317.20117188 34.39379883 C323.84487827 30.30563399 330.48803017 26.21657244 337.12963867 22.125 C339.33163053 20.77002716 341.53489172 19.41711468 343.73950195 18.06640625 C348.639045 15.06308509 353.52180905 12.04204207 358.35546875 8.93359375 C359.58330078 8.15399292 359.58330078 8.15399292 360.8359375 7.35864258 C362.32468104 6.41173026 363.80594698 5.45289676 365.27734375 4.47924805 C369.62602588 1.73403545 372.67195248 0.69680136 377.96875 1.3828125 C380.39109289 3.80515539 380.21193821 5.06897992 380.245561 8.37470996 C380.2409152 9.42175859 380.2409152 9.42175859 380.23617554 10.48995972 C380.24070665 11.23049186 380.24523776 11.971024 380.24990618 12.73399651 C380.26262041 15.22881406 380.26092527 17.72341525 380.25927734 20.21826172 C380.26525865 22.00202212 380.27206327 23.78577993 380.27963257 25.5695343 C380.29735091 30.42751844 380.30199069 35.28543217 380.30326414 40.14344549 C380.30516138 44.20096334 380.3125178 48.25846473 380.31960833 52.31597626 C380.33591579 61.89750824 380.34077554 71.47900262 380.33935547 81.06054688 C380.33815678 90.92952043 380.35919861 100.79827431 380.3908428 110.66719234 C380.41705496 119.14549213 380.42772053 127.62372047 380.42644465 136.10206044 C380.42593601 141.16289482 380.43156365 146.22353456 380.45280075 151.28432846 C380.47226362 156.05322148 380.47225283 160.82173602 380.45776749 165.59064293 C380.45568749 167.33362192 380.46033162 169.07662507 380.4724884 170.81956291 C380.58080727 187.43706033 377.24683898 199.64012579 365.65625 212.1328125 C355.10562125 222.118229 343.29327765 224.84367947 329.15408325 224.77049255 C327.89627167 224.77587809 326.63846008 224.78126363 325.34253299 224.78681237 C321.8765336 224.8011887 318.41077357 224.79704697 314.94476151 224.78964555 C311.19686581 224.78489667 307.44902063 224.79743889 303.70114136 224.80766296 C296.36846185 224.82482287 289.03586814 224.8256968 281.70317377 224.82045006 C275.74050093 224.81640179 269.77785337 224.8178597 263.81518173 224.82319832 C262.5401942 224.82432095 262.5401942 224.82432095 261.23944934 224.82546626 C259.51245745 224.82699781 257.78546557 224.82853616 256.05847369 224.83008123 C239.87802355 224.84379618 223.69762182 224.83837572 207.5171728 224.82689602 C192.73045464 224.81696525 177.94386165 224.82990339 163.1571628 224.85383021 C147.95584844 224.87824167 132.75459233 224.88782402 117.55325878 224.88117748 C109.02620292 224.87768974 100.49924329 224.87988788 91.9722023 224.89742851 C84.71319212 224.91217613 77.45434592 224.91275262 70.19533886 224.8953576 C66.49554321 224.8868661 62.79604018 224.88465228 59.09626007 224.90000916 C55.0763994 224.91648733 51.05723975 224.90166163 47.03738403 224.88401794 C45.88074725 224.89362295 44.72411047 224.90322796 43.53242409 224.91312402 C29.3177265 224.78520755 18.54431433 219.65026716 8.21875 210.0703125 C-3.36417667 197.83174847 -4.47759443 184.31212913 -4.38769531 168.28100586 C-4.3884872 166.45851544 -4.39058758 164.6360252 -4.39389038 162.8135376 C-4.39900028 157.89058433 -4.38554093 152.96784202 -4.36836338 148.04492259 C-4.35328123 142.88978146 -4.35450046 137.73464253 -4.35369873 132.57948303 C-4.35001366 123.93389297 -4.33507836 115.28838268 -4.3125 106.64282227 C-4.28354284 95.53181689 -4.27326797 84.4208754 -4.2688179 73.30983639 C-4.26484557 63.76171243 -4.25234954 54.21360245 -4.23847103 44.66548848 C-4.23436705 41.59170453 -4.23144417 38.51792108 -4.22867584 35.44413567 C-4.22379752 30.62848878 -4.21361917 25.81288102 -4.19923782 20.99725342 C-4.19470112 19.22546809 -4.19187294 17.4536775 -4.19083023 15.68188667 C-4.18909467 13.27424838 -4.18123914 10.86670928 -4.17169189 8.45909119 C-4.17255838 7.74899979 -4.17342486 7.03890839 -4.1743176 6.30729908 C-4.13961385 0.52278629 -4.13961385 0.52278629 0 0 Z " fill="#219FE6" transform="translate(68.03125,167.6171875)"/>
<path d="M0 0 C1.25952044 -0.00623996 2.51904087 -0.01247993 3.81672859 -0.01890898 C7.27828226 -0.03546432 10.73938958 -0.02741982 14.20094395 -0.0149641 C17.94744817 -0.00585871 21.69387928 -0.01991035 25.44036865 -0.03088379 C32.7661188 -0.04861543 40.09170448 -0.04485303 47.41746092 -0.03323323 C53.37436993 -0.024178 59.33123304 -0.02298391 65.28814697 -0.02732849 C66.13786768 -0.02794142 66.98758839 -0.02855436 67.86305821 -0.02918586 C69.58956704 -0.03046484 71.31607586 -0.03176169 73.04258466 -0.03307623 C89.2097094 -0.04446633 105.37674322 -0.031393 121.54385304 -0.00987476 C135.39825873 0.0079948 149.25253033 0.00489025 163.10693359 -0.0135498 C179.2185302 -0.0349843 195.33004724 -0.04336784 211.44165611 -0.03110075 C213.16160455 -0.02982663 214.881553 -0.02856915 216.60150146 -0.02732849 C217.44761903 -0.02671139 218.29373659 -0.02609429 219.16549408 -0.02545848 C225.11118306 -0.02201331 231.05682132 -0.02781592 237.00250244 -0.0372467 C244.25415312 -0.04849678 251.50563075 -0.0453637 258.75726175 -0.02412373 C262.45301487 -0.01365356 266.14848005 -0.00942191 269.84423065 -0.02272034 C273.8596176 -0.03694976 277.87428554 -0.01989306 281.88964844 0 C283.04492098 -0.00892289 284.20019352 -0.01784577 285.39047432 -0.02703905 C295.16098582 0.06651534 304.56244642 2.16980302 312.63232422 7.94543457 C313.44056641 8.50102051 314.24880859 9.05660645 315.08154297 9.62902832 C316.94482422 11.50793457 316.94482422 11.50793457 317.96435547 13.98059082 C317.94482422 16.50793457 317.94482422 16.50793457 316.26635742 18.45788574 C313.87922777 20.56586005 311.50262254 22.18535761 308.78076172 23.83605957 C307.75466797 24.46254395 306.72857422 25.08902832 305.67138672 25.73449707 C304.56537109 26.40223145 303.45935547 27.06996582 302.31982422 27.75793457 C301.15279271 28.46827301 299.98613242 29.17922166 298.81982422 29.89074707 C296.39775195 31.36772312 293.97410717 32.84206678 291.54931641 34.3145752 C285.99943084 37.68785282 280.47340277 41.09989514 274.94482422 44.50793457 C272.77826951 45.84144981 270.61160247 47.17478257 268.44482422 48.50793457 C266.83607422 49.49793457 266.83607422 49.49793457 265.19482422 50.50793457 C203.44482422 88.50793457 203.44482422 88.50793457 200.19238281 90.50939941 C198.03380942 91.83777723 195.87528051 93.16622732 193.71679688 94.49475098 C188.74985674 97.55173346 183.78260587 100.60820409 178.81349182 103.66165161 C177.66976733 104.36456277 176.5261611 105.06766639 175.38267517 105.77096558 C172.60299272 107.4805764 169.82176405 109.18755785 167.0378418 110.89025879 C162.29183578 113.79880688 157.57151115 116.72698018 152.93310547 119.80480957 C151.82539795 120.53111572 151.82539795 120.53111572 150.6953125 121.27209473 C149.36940941 122.14672003 148.05296318 123.03594875 146.74902344 123.94299316 C145.01904297 125.07824707 145.01904297 125.07824707 141.94482422 126.50793457 C138.18183329 125.36970756 135.00777633 123.44196261 131.68310547 121.37512207 C130.66023437 120.74219238 129.63736328 120.1092627 128.58349609 119.45715332 C127.48585937 118.77266113 126.38822266 118.08816895 125.25732422 117.38293457 C124.09547334 116.66246547 122.93335912 115.94242087 121.77099609 115.22277832 C119.35737531 113.7280009 116.94489578 112.23140664 114.53320312 110.73352051 C109.01429685 107.30786437 103.47871042 103.90931582 97.94482422 100.50793457 C95.77807919 99.17472858 93.61141277 97.84139483 91.44482422 96.50793457 C90.37232422 95.84793457 89.29982422 95.18793457 88.19482422 94.50793457 C67.61149089 81.8412679 47.02815755 69.17460124 26.44482422 56.50793457 C25.37151855 55.84745117 24.29821289 55.18696777 23.19238281 54.50646973 C21.03380942 53.17809191 18.87528051 51.84964182 16.71679688 50.52111816 C10.6065931 46.76049584 4.49553867 43.00126805 -1.61787415 39.24586487 C-4.39846464 37.53734712 -7.17714128 35.82582939 -9.95336914 34.11022949 C-14.68316976 31.18749919 -19.41763798 28.28055329 -24.20751953 25.45715332 C-24.96403809 25.00453125 -25.72055664 24.55190918 -26.5 24.08557129 C-27.85972952 23.27324498 -29.22676698 22.4729604 -30.60253906 21.68811035 C-33.38314856 20.01114878 -34.87464036 18.96474389 -36.08642578 15.89855957 C-36.05517578 13.50793457 -36.05517578 13.50793457 -33.99267578 10.94543457 C-23.65488467 2.36726748 -13.24937712 -0.10233316 0 0 Z " fill="#13B4F0" transform="translate(115.05517578125,119.4920654296875)"/>
</svg>
