<?xml version="1.0" ?>
<!-- Uploaded to: SVG Repo, www.svgrepo.com, Generator: SVG Repo Mixer Tools -->
<svg width="800px" height="800px" viewBox="0 0 120 120" id="Layer_1" version="1.1" xml:space="preserve" xmlns="http://www.w3.org/2000/svg" xmlns:xlink="http://www.w3.org/1999/xlink">
<style type="text/css">
	.st0{fill:#FFAA54;}
	.st1{opacity:0.1;}
	.st2{fill:#00D992;}
	.st3{fill:#FFFFFF;}
</style>
<g>
<g>
<circle class="st0" cx="81.8" cy="61.1" r="10.8"/>
<path class="st0" d="M81.8,75.8C69.2,75.8,59,86,59,98.5h45.5C104.5,86,94.4,75.8,81.8,75.8z"/>
</g>
<g class="st1">
<path d="M82.8,71.8c-0.3,0-0.7,0.1-1,0.1c-6,0-10.8-4.9-10.8-10.8c0-6,4.8-10.8,10.8-10.8c0.3,0,0.7,0,1,0    c-5.5,0.5-9.8,5.1-9.8,10.8C73,66.7,77.3,71.3,82.8,71.8z"/>
<path d="M82.8,75.8C70.7,76.3,61,86.3,61,98.5h-2C59,86,69.2,75.8,81.8,75.8C82.1,75.8,82.5,75.8,82.8,75.8z"/>
</g>
<path class="st0" d="M68.1,42.8h8.3c0.1,0,0.1,0,0.2,0.1l6.4,4.7c0.2,0.2,0.5,0,0.4-0.3l-1.2-4.1c0-0.2,0.1-0.3,0.3-0.3h1.3   c1.8,0,3.2-1.4,3.2-3.2V29.5c0-1.8-1.4-3.2-3.2-3.2H68.1c-1.8,0-3.2,1.4-3.2,3.2v10.2C64.9,41.4,66.3,42.8,68.1,42.8z"/>
<g class="st1">
<path d="M77.7,42.6c0,0-0.1-0.1-0.2-0.1h-8.3c-1.8,0-3.2-1.4-3.2-3.2V29.2c0-1.3,0.8-2.4,1.8-2.9c-1.7,0.1-3,1.5-3,3.2v10.2    c0,1.8,1.4,3.2,3.2,3.2h8.3c0.1,0,0.1,0,0.2,0.1l6.4,4.7c0.2,0.2,0.5,0,0.4-0.3l-0.2-0.7L77.7,42.6z"/>
</g>
<g>
<ellipse class="st2" cx="43.1" cy="53.1" rx="13.1" ry="13.1" transform="matrix(0.7071 -0.7071 0.7071 0.7071 -24.9361 46.0084)"/>
<path class="st2" d="M43.1,70.9c-15.3,0-27.6,12.4-27.6,27.6h55.2C70.7,83.3,58.3,70.9,43.1,70.9z"/>
</g>
<g class="st1">
<path d="M31.8,53.1c0-6.9,5.4-12.6,12.2-13.1c-0.3,0-0.6,0-0.9,0C35.8,40,30,45.9,30,53.1c0,7.2,5.9,13.1,13.1,13.1    c0.3,0,0.6,0,0.9,0C37.2,65.7,31.8,60,31.8,53.1z"/>
<path d="M15.5,98.5h1.9c0-14.9,11.9-27.1,26.7-27.6c-0.3,0-0.6,0-0.9,0C27.8,70.9,15.5,83.3,15.5,98.5z"/>
</g>
<g>
<path class="st3" d="M75.9,33.2c-0.7,0-1.2,0.5-1.2,1.2s0.5,1.2,1.2,1.2s1.2-0.5,1.2-1.2S76.6,33.2,75.9,33.2z"/>
<path class="st3" d="M71.4,33.2c-0.7,0-1.2,0.5-1.2,1.2s0.5,1.2,1.2,1.2s1.2-0.5,1.2-1.2S72,33.2,71.4,33.2z"/>
<path class="st3" d="M80.5,33.2c-0.7,0-1.2,0.5-1.2,1.2s0.5,1.2,1.2,1.2s1.2-0.5,1.2-1.2S81.1,33.2,80.5,33.2z"/>
</g>
<path class="st2" d="M70,38h-8.3c-0.1,0-0.1,0-0.2,0.1l-6.4,4.7c-0.2,0.2-0.5,0-0.4-0.3l1.2-4.1c0-0.2-0.1-0.3-0.3-0.3h-1.3   c-1.8,0-3.2-1.4-3.2-3.2V24.7c0-1.8,1.4-3.2,3.2-3.2H70c1.8,0,3.2,1.4,3.2,3.2v10.2C73.2,36.6,71.8,38,70,38z"/>
<g class="st1">
<path d="M56,41.9l1.2-4.1c0-0.2-0.1-0.3-0.3-0.3h-1.3c-1.8,0-3.2-1.4-3.2-3.2V24.1c0-1.1,0.5-2,1.3-2.6c-1.4,0.3-2.5,1.6-2.5,3.1    v10.2c0,1.8,1.4,3.2,3.2,3.2h1.3c0.2,0,0.3,0.2,0.3,0.3l-1.2,4.1c-0.1,0.2,0.2,0.4,0.4,0.3l0.8-0.6C56,42.1,56,42,56,41.9z"/>
<path d="M71.2,37.5H63c-0.1,0-0.1,0-0.2,0.1L62.1,38H70c0.7,0,1.3-0.2,1.8-0.6C71.7,37.4,71.4,37.5,71.2,37.5z"/>
</g>
<g>
<path class="st3" d="M62.2,28.6c-0.7,0-1.2,0.5-1.2,1.2s0.5,1.2,1.2,1.2s1.2-0.5,1.2-1.2S62.9,28.6,62.2,28.6z"/>
<path class="st3" d="M57.7,28.6c-0.7,0-1.2,0.5-1.2,1.2S57,31,57.7,31s1.2-0.5,1.2-1.2S58.3,28.6,57.7,28.6z"/>
<path class="st3" d="M66.8,28.6c-0.7,0-1.2,0.5-1.2,1.2s0.5,1.2,1.2,1.2s1.2-0.5,1.2-1.2S67.4,28.6,66.8,28.6z"/>
</g>
</g>
</svg>