<?xml version="1.0" encoding="UTF-8"?>
<svg version="1.1" xmlns="http://www.w3.org/2000/svg" width="512" height="512">
<path d="M0 0 C5.69358797 6.54762616 6.30508097 14.39793523 6.22705078 22.7109375 C6.22734283 23.54115921 6.22763489 24.37138092 6.22793579 25.22676086 C6.22655385 27.94295073 6.21104671 30.65885866 6.1953125 33.375 C6.19157832 35.26928559 6.18873326 37.16357311 6.18673706 39.05786133 C6.17913246 44.02265842 6.15951146 48.98733689 6.1373291 53.9520874 C6.11680206 59.0266357 6.10772072 64.10120332 6.09765625 69.17578125 C6.07626238 79.11723937 6.04216505 89.05860979 6 99 C6.74040527 99.19553467 7.48081055 99.39106934 8.24365234 99.5925293 C9.22285645 99.85461182 10.20206055 100.11669434 11.2109375 100.38671875 C12.17821777 100.64412842 13.14549805 100.90153809 14.14208984 101.16674805 C27.91956677 105.18370762 39.59968388 113.64782697 46.64453125 126.2265625 C52.90214364 139.03032272 54.219288 153.16917226 50.4375 166.9375 C45.48163817 180.74435717 36.21473914 191.5999558 23 198 C10.69129288 203 10.69129288 203 6 203 C6.00999275 204.56402054 6.00999275 204.56402054 6.02018738 206.15963745 C6.0811696 216.01630563 6.12605453 225.87293521 6.15543652 235.72974968 C6.17105021 240.796476 6.19220958 245.86304925 6.22631836 250.9296875 C6.25906555 255.82505917 6.27688528 260.72028418 6.28463173 265.61575699 C6.29014777 267.47754345 6.30091888 269.33932246 6.31719017 271.20104599 C6.49545762 292.45548102 6.49545762 292.45548102 1.1875 300.875 C-3.98132349 305.89614282 -9.29557386 308.87323403 -16.609375 309.0703125 C-28.23637623 308.52429311 -34.38509326 301.97166869 -42.125 293.875 C-57.40086689 278.30175304 -73.48143208 266.73332389 -94 259 C-93.95359375 259.99 -93.9071875 260.98 -93.859375 262 C-93.57627275 270.50060258 -93.59829998 277.14141466 -99.54296875 283.703125 C-104.6292664 288.49844453 -110.2765449 290.37504079 -117 292 C-116.39302627 299.13873582 -114.61989692 305.87582815 -112.72631836 312.77392578 C-112.18586194 314.75600745 -111.66603379 316.74281903 -111.14648438 318.73046875 C-110.63118164 320.61958984 -110.63118164 320.61958984 -110.10546875 322.546875 C-109.79762451 323.68995117 -109.48978027 324.83302734 -109.17260742 326.01074219 C-107.89913387 329.25713198 -106.76022972 330.8885026 -104 333 C-101.12717521 333.18761305 -98.59534151 333.18448292 -95.75 333 C-89.29665363 332.8096759 -84.17723052 332.66499837 -79 337 C-78.37867188 337.51304687 -77.75734375 338.02609375 -77.1171875 338.5546875 C-70.85980672 344.65497922 -68.34317785 353.08876156 -67.84375 361.69140625 C-68.18239259 366.69485048 -69.69072901 370.13918385 -73 374 C-76.40094058 376.30758978 -79.56293597 377.62983185 -83.51782227 378.70166016 C-84.59987442 378.99851715 -85.68192657 379.29537415 -86.79676819 379.60122681 C-87.95824875 379.91071259 -89.11972931 380.22019836 -90.31640625 380.5390625 C-91.52384995 380.86538666 -92.73129364 381.19171082 -93.97532654 381.52792358 C-96.53052615 382.21590513 -99.08635994 382.90056489 -101.64379883 383.58007812 C-104.24603425 384.27203526 -106.84581992 384.97217763 -109.44360352 385.68066406 C-113.21086441 386.7068576 -116.98171602 387.71865723 -120.75390625 388.7265625 C-121.90121719 389.04009674 -123.04852814 389.35363098 -124.23060608 389.67666626 C-138.09678401 393.32560387 -150.57376599 394.57766829 -163.546875 387.6015625 C-174.27667911 380.59643562 -179.50135964 370.71645043 -182.4921875 358.546875 C-183.15704708 355.21234848 -183.48262464 352.37837249 -183 349 C-181.948125 348.13375 -181.948125 348.13375 -180.875 347.25 C-178.72424817 345.18371182 -178.72424817 345.18371182 -179.109375 342.62890625 C-179.6417062 339.7212487 -180.29036997 336.86937359 -181 334 C-181.37751459 332.27138058 -181.75277198 330.54226549 -182.125 328.8125 C-182.558125 326.9253125 -182.558125 326.9253125 -183 325 C-184.0725 325.020625 -185.145 325.04125 -186.25 325.0625 C-190 324 -190 324 -191.14906311 322.26257324 C-193.42582998 316.74473781 -195.18229173 311.25928179 -196.62109375 305.46875 C-197.08635514 303.67051251 -197.55185725 301.87233729 -198.01757812 300.07421875 C-198.73035687 297.28444445 -199.43908082 294.49372815 -200.14282227 291.70166016 C-200.83316286 288.97530637 -201.53884992 286.25326015 -202.24609375 283.53125 C-202.44835068 282.70911011 -202.6506076 281.88697021 -202.85899353 281.03991699 C-205.50980538 270.90598138 -210.24774379 262.94721878 -219 257 C-227.20033312 252.57838038 -236.27149785 252.44280357 -245.36010742 251.77661133 C-273.34385956 249.60234399 -296.5548825 235.64009925 -314.84375 214.7109375 C-333.39590375 191.38630941 -338.85813517 163.48820178 -335.70263672 134.24414062 C-331.872957 108.08067595 -316.44203973 85.63834399 -296.1640625 69.31640625 C-279.84193398 57.36699611 -260.16978806 49.98756377 -239.84301758 49.82299805 C-239.16567062 49.81642685 -238.48832367 49.80985565 -237.79045105 49.80308533 C-235.575143 49.7835589 -233.35990164 49.77174401 -231.14453125 49.76171875 C-230.383664 49.75764322 -229.62279675 49.7535677 -228.83887291 49.74936867 C-224.82072607 49.72860831 -220.80261249 49.71425682 -216.78442383 49.70483398 C-212.63819035 49.69371698 -208.49248576 49.65922882 -204.34644032 49.61966228 C-201.15084322 49.59354793 -197.95537421 49.58514742 -194.75967979 49.58155251 C-193.23064234 49.57668264 -191.70161076 49.56505714 -190.17267799 49.54651451 C-188.0376171 49.52220434 -185.90395529 49.52307064 -183.76879883 49.5300293 C-182.55525223 49.52416306 -181.34170563 49.51829681 -180.09138489 49.51225281 C-176.39716287 50.0951134 -175.18599934 51.00836196 -173 54 C-173 54.99 -173 55.98 -173 57 C-166.4 57 -159.8 57 -153 57 C-152.67 55.35 -152.34 53.7 -152 52 C-148.67682456 49.78454971 -147.56552968 49.74158711 -143.6875 49.69140625 C-142.62144531 49.66860596 -141.55539063 49.64580566 -140.45703125 49.62231445 C-139.31621094 49.60257568 -138.17539063 49.58283691 -137 49.5625 C-98.1810657 48.41746955 -68.66478019 35.15096887 -41.34375 7.29296875 C-40.4153833 6.34877075 -40.4153833 6.34877075 -39.46826172 5.38549805 C-38.26923844 4.15900046 -37.07769948 2.92512591 -35.89501953 1.68286133 C-25.17026864 -9.3353529 -11.94243093 -9.33959342 0 0 Z " fill="#010101" transform="translate(336,63)"/>
<path d="M0 0 C3.73797275 0.94481908 5.22887443 1.81185125 7.828125 4.71484375 C8.59693382 8.3470835 8.49765292 11.94636418 8.45631409 15.64697266 C8.46340847 16.77462854 8.47050286 17.90228443 8.47781223 19.06411171 C8.49546692 22.85688605 8.47724803 26.64864575 8.45922852 30.44140625 C8.46160693 33.15470184 8.47145402 35.86795888 8.48091125 38.58123779 C8.49930707 45.19423947 8.49076278 51.80694603 8.47282303 58.41993856 C8.45880717 63.79359111 8.45490203 69.16716345 8.4582653 74.54083252 C8.45874275 75.30513537 8.45922019 76.06943822 8.4597121 76.85690176 C8.46073841 78.40948472 8.46179377 79.96206766 8.46287786 81.51465058 C8.47144885 95.24875846 8.45475707 108.9827237 8.42504883 122.71679688 C8.39621043 136.04888908 8.38912734 149.38077578 8.40454102 162.71289062 C8.4212955 177.22465061 8.4253451 191.73631297 8.40783066 206.24807549 C8.40598623 207.79500197 8.40415151 209.34192847 8.40232658 210.88885498 C8.40141449 211.65000661 8.4005024 212.41115825 8.39956268 213.19537508 C8.39395258 218.56363673 8.39726885 223.93185079 8.40387154 229.30010986 C8.41159666 235.8407388 8.40488198 242.38116531 8.3796965 248.92175341 C8.36718183 252.2600916 8.36321909 255.59785086 8.37223816 258.93624115 C8.38088332 262.55206746 8.36505904 266.16696636 8.3427887 269.78271484 C8.35514985 271.37199767 8.35514985 271.37199767 8.36776072 272.99338722 C8.28718844 280.04522511 8.28718844 280.04522511 6.01106167 283.36532593 C2.75084487 285.38083134 0.5818337 285.26804898 -3.171875 284.71484375 C-5.73217773 282.88574219 -5.73217773 282.88574219 -8.10546875 280.32421875 C-8.99363281 279.3923877 -9.88179687 278.46055664 -10.796875 277.50048828 C-11.25578125 277.00438049 -11.7146875 276.50827271 -12.1875 275.99713135 C-14.58420304 273.41431757 -17.04647889 270.89613371 -19.51171875 268.37890625 C-20.24054764 267.63294693 -20.24054764 267.63294693 -20.98410034 266.87191772 C-59.29533526 228.04126877 -110.42946646 229.55202484 -163.171875 228.71484375 C-163.171875 171.95484375 -163.171875 115.19484375 -163.171875 56.71484375 C-161.521875 56.05484375 -159.871875 55.39484375 -158.171875 54.71484375 C-157.181875 52.73484375 -156.191875 50.75484375 -155.171875 48.71484375 C-148.571875 48.71484375 -141.971875 48.71484375 -135.171875 48.71484375 C-134.181875 50.69484375 -133.191875 52.67484375 -132.171875 54.71484375 C-129.13294086 57.75377789 -117.85744784 55.96481472 -113.37466431 55.96487427 C-102.393459 55.93788697 -91.793959 55.80528166 -81.171875 52.71484375 C-80.4072998 52.49441406 -79.64272461 52.27398437 -78.85498047 52.046875 C-60.50762774 46.55900214 -43.76366509 38.15011237 -29.171875 25.71484375 C-28.36234375 25.03292969 -27.5528125 24.35101563 -26.71875 23.6484375 C-22.69189318 20.13493825 -18.90030621 16.45391335 -15.20703125 12.59375 C-14.50102783 11.86365723 -13.79502441 11.13356445 -13.06762695 10.38134766 C-11.65756082 8.91657307 -10.261019 7.43863507 -8.87963867 5.94677734 C-4.02420894 0.90693379 -4.02420894 0.90693379 0 0 Z " fill="#DEF5FC" transform="translate(318.171875,71.28515625)"/>
<path d="M0 0 C0 45.54 0 91.08 0 138 C-4.95 138 -9.9 138 -15 138 C-15.00586624 136.54309753 -15.01173248 135.08619507 -15.01777649 133.58514404 C-15.07493149 119.87083688 -15.14747734 106.15667145 -15.23571491 92.44253159 C-15.28068542 85.39155318 -15.32009709 78.34062543 -15.34643555 71.28955078 C-15.37185811 64.48784362 -15.41275427 57.68637087 -15.46318626 50.88480377 C-15.47990128 48.28684534 -15.49138658 45.68884794 -15.49761391 43.0908432 C-15.5072044 39.45843274 -15.53520414 35.82660418 -15.56762695 32.19433594 C-15.56619186 31.11468063 -15.56475677 30.03502533 -15.5632782 28.9226532 C-15.57581635 27.93269852 -15.58835449 26.94274384 -15.60127258 25.92279053 C-15.60588155 25.06367947 -15.61049051 24.20456841 -15.61523914 23.31942368 C-16.08539464 20.48522222 -17.06371122 19.0932075 -19 17 C-20.93425486 16.37276792 -20.93425486 16.37276792 -23 16.5 C-23.680625 16.4896875 -24.36125 16.479375 -25.0625 16.46875 C-27.83883584 17.23000337 -28.50798239 18.58264238 -30 21 C-30.45366652 23.35562699 -30.45366652 23.35562699 -30.39872742 25.92279053 C-30.41753464 27.40772255 -30.41753464 27.40772255 -30.4367218 28.9226532 C-30.43456917 30.54213615 -30.43456917 30.54213615 -30.43237305 32.19433594 C-30.4425647 33.3360878 -30.45275635 34.47783966 -30.46325684 35.65419006 C-30.49346954 39.43096776 -30.5026657 43.20749216 -30.51171875 46.984375 C-30.52855924 49.60183562 -30.54670862 52.21928812 -30.56611633 54.83673096 C-30.60978206 61.02374029 -30.63832848 67.21072326 -30.66143972 73.39783978 C-30.68849107 80.44261665 -30.73240256 87.48725687 -30.77772844 94.53193617 C-30.87057564 109.02121069 -30.94225602 123.51054361 -31 138 C-38.69422421 138.09350555 -46.38838806 138.16416706 -54.08305454 138.20724869 C-57.65770891 138.22794681 -61.23196896 138.25592917 -64.80639648 138.30175781 C-68.26888219 138.34586321 -71.73099356 138.3692699 -75.19373894 138.37950897 C-77.12933091 138.39027958 -79.06477646 138.4213964 -81.00013733 138.45318604 C-91.37492695 138.455755 -100.20380549 136.26539817 -110 133 C-111.99396257 130.33916031 -114 127.38757675 -114 124 C-113.08186523 123.98541748 -112.16373047 123.97083496 -111.21777344 123.95581055 C-107.80312091 123.89466485 -104.38926328 123.82049783 -100.97509766 123.73754883 C-99.49896862 123.70434645 -98.02271406 123.67629983 -96.54638672 123.65356445 C-94.42100668 123.61993049 -92.29677196 123.56761481 -90.171875 123.51171875 C-88.8940918 123.48553467 -87.61630859 123.45935059 -86.29980469 123.43237305 C-82.86212216 122.98193388 -81.41757134 122.43400217 -79 120 C-78.33740346 117.16431142 -78.71832307 114.95760774 -79 112 C-82.08643773 108.91356227 -85.79759417 109.64134992 -89.9453125 109.5859375 C-90.8303244 109.56657135 -91.7153363 109.5472052 -92.62716675 109.5272522 C-95.45967916 109.46737277 -98.29223203 109.42103787 -101.125 109.375 C-103.04298668 109.33682789 -104.96095607 109.29777662 -106.87890625 109.2578125 C-111.58579748 109.16166445 -116.29276896 109.07766458 -121 109 C-122.59162079 103.42932723 -123.20674944 98.78898419 -123 93 C-121.80922852 92.98541748 -120.61845703 92.97083496 -119.39160156 92.95581055 C-114.97072423 92.89780765 -110.55035519 92.82057485 -106.12988281 92.73754883 C-104.21720636 92.70430886 -102.30443203 92.67627401 -100.39160156 92.65356445 C-97.64085206 92.62000131 -94.89099868 92.56768511 -92.140625 92.51171875 C-90.85916595 92.50213387 -90.85916595 92.50213387 -89.55181885 92.49235535 C-85.97928685 92.40401956 -83.62176067 92.34449386 -80.45751953 90.59130859 C-78.6296243 88.59562666 -78.51499982 87.61250443 -78.625 84.9375 C-78.57855488 80.99685749 -78.57855488 80.99685749 -81 79 C-82.9368613 78.6706462 -82.9368613 78.6706462 -85.17431641 78.68115234 C-86.03505768 78.66128265 -86.89579895 78.64141296 -87.78262329 78.62094116 C-88.71287323 78.60938995 -89.64312317 78.59783875 -90.6015625 78.5859375 C-91.55316254 78.56657135 -92.50476257 78.5472052 -93.48519897 78.5272522 C-96.53170747 78.46735868 -99.57825354 78.42103205 -102.625 78.375 C-104.6875167 78.33682921 -106.7500173 78.29777802 -108.8125 78.2578125 C-113.87486966 78.16164914 -118.93731395 78.07765437 -124 78 C-123.54775239 72.08507728 -122.8417395 66.64800112 -121 61 C-119.19813232 60.970271 -119.19813232 60.970271 -117.35986328 60.93994141 C-112.91303146 60.8640038 -108.46653195 60.77526868 -104.02001953 60.68261719 C-102.09365386 60.64427832 -100.1672154 60.60943418 -98.24072266 60.578125 C-95.47532082 60.53258055 -92.71042231 60.47456963 -89.9453125 60.4140625 C-89.0806839 60.40251129 -88.2160553 60.39096008 -87.32522583 60.37905884 C-82.68217152 60.47337842 -82.68217152 60.47337842 -79 58 C-78.52786327 53.93904042 -78.52786327 53.93904042 -79 50 C-82.4177199 46.55905185 -85.460162 46.58483275 -90.171875 46.48828125 C-91.1955014 46.46135445 -91.1955014 46.46135445 -92.23980713 46.43388367 C-94.4098094 46.37989617 -96.57959325 46.34592417 -98.75 46.3125 C-100.22529074 46.27931648 -101.70055269 46.24482585 -103.17578125 46.20898438 C-106.78364427 46.12417842 -110.39158362 46.05731163 -114 46 C-106.8838023 27.78996732 -90.36256278 14.1338132 -73 6 C-48.87504023 -3.89802511 -28.41875856 0 0 0 Z " fill="#FB4654" transform="translate(139,129)"/>
<path d="M0 0 C2.83573818 1.31674194 2.83573818 1.31674194 5 4 C5.74850608 7.63870457 5.66956082 11.22857474 5.62818909 14.93212891 C5.63528347 16.05978479 5.64237786 17.18744068 5.64968723 18.34926796 C5.66734192 22.1420423 5.64912303 25.933802 5.63110352 29.7265625 C5.63348193 32.43985809 5.64332902 35.15311513 5.65278625 37.86639404 C5.67118207 44.47939572 5.66263778 51.09210228 5.64469803 57.70509481 C5.63068217 63.07874736 5.62677703 68.4523197 5.6301403 73.82598877 C5.63061775 74.59029162 5.63109519 75.35459447 5.6315871 76.14205801 C5.63261341 77.69464097 5.63366877 79.24722391 5.63475286 80.79980683 C5.64332385 94.53391471 5.62663207 108.26787995 5.59692383 122.00195312 C5.56808543 135.33404533 5.56100234 148.66593203 5.57641602 161.99804688 C5.5931705 176.50980686 5.5972201 191.02146922 5.57970566 205.53323174 C5.57786123 207.08015822 5.57602651 208.62708472 5.57420158 210.17401123 C5.57328949 210.93516286 5.5723774 211.6963145 5.57143768 212.48053133 C5.56582758 217.84879298 5.56914385 223.21700704 5.57574654 228.58526611 C5.58347166 235.12589505 5.57675698 241.66632156 5.5515715 248.20690966 C5.53905683 251.54524785 5.53509409 254.88300711 5.54411316 258.2213974 C5.55275832 261.83722371 5.53693404 265.45212261 5.5146637 269.06787109 C5.52702485 270.65715392 5.52702485 270.65715392 5.53963572 272.27854347 C5.45906344 279.33038136 5.45906344 279.33038136 3.18293667 282.65048218 C-0.07728013 284.66598759 -2.2462913 284.55320523 -6 284 C-8.56030273 282.17089844 -8.56030273 282.17089844 -10.93359375 279.609375 C-11.82175781 278.67754395 -12.70992187 277.74571289 -13.625 276.78564453 C-14.08390625 276.28953674 -14.5428125 275.79342896 -15.015625 275.2822876 C-17.41232804 272.69947382 -19.87460389 270.18128996 -22.33984375 267.6640625 C-23.06867264 266.91810318 -23.06867264 266.91810318 -23.81222534 266.15707397 C-51.65080559 237.9410653 -88.80609681 228.60717152 -127.24023438 228.29296875 C-129.37560568 228.28078561 -131.51097608 228.27095209 -133.6463623 228.26177979 C-137.30800017 228.24186724 -140.96939486 228.20014686 -144.63085938 228.16015625 C-151.75405728 228.08388645 -158.87620933 228.0426702 -166 228 C-166 217.11 -166 206.22 -166 195 C-129.87132651 194.48016297 -97.45132065 204.47490879 -70.5703125 229.23828125 C-63.97976424 235.30735515 -58.66707742 238.60550877 -49.48828125 238.28515625 C-42.77033171 237.51528134 -37.74632279 234.85419376 -33 230 C-29.20494077 223.80423238 -27.85368353 218.5101228 -27.98309326 211.26370239 C-27.99791162 210.06926775 -27.99791162 210.06926775 -28.01302934 208.85070312 C-28.03517224 207.10199801 -28.05961935 205.35332097 -28.0860424 203.60467529 C-28.15913422 198.74009749 -28.21458887 193.87530216 -28.27288818 189.01052856 C-28.28580477 187.97166449 -28.29872136 186.93280041 -28.31202936 185.86245561 C-28.47368957 172.54182477 -28.53594262 159.22053511 -28.59832716 145.89912629 C-28.65914224 132.93616856 -28.75257857 119.97573503 -28.95654297 107.01416016 C-29.11841617 96.71652193 -29.20479346 86.4213264 -29.20422101 76.12237251 C-29.2065936 70.6782388 -29.24513016 65.24013728 -29.37496185 59.79742813 C-30.24118477 21.83247841 -30.24118477 21.83247841 -19.62381363 10.42738152 C-7.5399413 -1.10231439 -7.5399413 -1.10231439 0 0 Z " fill="#C6EDFC" transform="translate(321,72)"/>
<path d="M0 0 C18.15 0 36.3 0 55 0 C63.01847452 28.81214574 63.01847452 28.81214574 65.625 39.5 C67.93372383 48.95115551 70.59664167 58.28554388 73.31982422 67.62451172 C73.94791623 69.8180994 74.54610332 72.01667056 75.12890625 74.22265625 C75.45761719 75.44855469 75.78632813 76.67445313 76.125 77.9375 C76.39570313 78.97777344 76.66640625 80.01804687 76.9453125 81.08984375 C79.27956719 87.53065761 83.11213251 91.28134449 88.59765625 95.1171875 C92.98229676 96.72845377 97.74827879 95.99161711 102.35742188 95.74609375 C106.31067718 95.63473445 108.46797307 95.70056076 111.984375 97.6796875 C114.25612708 100.29484396 114.82070356 101.85213366 115.3125 105.25 C115.45300781 106.14203125 115.59351563 107.0340625 115.73828125 107.953125 C115.82464844 108.62859375 115.91101563 109.3040625 116 110 C106.95144031 113.15539517 97.63220441 115.51830721 88.39794922 118.06103516 C86.18458163 118.67266123 83.97258444 119.28927535 81.76220703 119.91162109 C78.72008404 120.76732189 75.67340181 121.60448441 72.625 122.4375 C71.7182251 122.6962793 70.8114502 122.95505859 69.87719727 123.22167969 C62.31912385 125.2516458 54.18198938 126.60286735 46.75 123.5 C39.98746921 119.54246145 35.66744765 113.80626514 33.5546875 106.3203125 C33.37164062 105.55460937 33.18859375 104.78890625 33 104 C32.79632813 103.15179688 32.59265625 102.30359375 32.3828125 101.4296875 C31.89378248 99.29269328 31.44303214 97.1470019 31 95 C28.03 94.34 25.06 93.68 22 93 C21.13541688 90.06520402 20.28302813 87.12778481 19.4375 84.1875 C19.19064453 83.35412109 18.94378906 82.52074219 18.68945312 81.66210938 C18.46064453 80.85966797 18.23183594 80.05722656 17.99609375 79.23046875 C17.67402954 78.12288208 17.67402954 78.12288208 17.34545898 76.99291992 C17 75 17 75 18 72 C18.70125 71.484375 19.4025 70.96875 20.125 70.4375 C22.73369482 67.04619674 21.9913606 65.03517951 21.48974609 60.92260742 C20.60834306 55.66274911 19.19136245 50.56744517 17.75 45.4375 C17.43426025 44.29724365 17.11852051 43.1569873 16.79321289 41.98217773 C16.15979211 39.70286045 15.52259281 37.42458935 14.88134766 35.14746094 C14.11413344 32.40759233 13.36999469 29.66315023 12.63671875 26.9140625 C9.91476974 16.9096488 6.26091051 8.34788068 0 0 Z " fill="#E21E2C" transform="translate(136,315)"/>
<path d="M0 0 C15.84 0 31.68 0 48 0 C48 56.76 48 113.52 48 172 C-26.09742647 172 -26.09742647 172 -53.4375 145.9375 C-56.9351025 142.30846358 -59.52554277 138.36953258 -62 134 C-61.13898682 134.28004883 -60.27797363 134.56009766 -59.39086914 134.84863281 C-45.0567394 139.05215904 -30.35263678 138.67328242 -15.55541992 138.73822021 C-11.98797309 138.75806221 -8.42078516 138.79999731 -4.85351562 138.83984375 C2.09756506 138.91434649 9.04862354 138.96355499 16 139 C15.99631283 138.40162229 15.99262566 137.80324457 15.98882675 137.1867342 C15.90046524 122.62266708 15.83428533 108.05861582 15.79275131 93.49434376 C15.77213151 86.45112795 15.74402236 79.40809115 15.69824219 72.36499023 C15.65409497 65.56986988 15.63087179 58.77493574 15.62049103 51.97968102 C15.61309185 49.38528196 15.59864329 46.79089325 15.57707977 44.19657326 C15.54810546 40.56677754 15.54404167 36.9377538 15.54589844 33.30786133 C15.53151733 32.2318013 15.51713623 31.15574127 15.50231934 30.04707336 C15.54273665 22.76040834 15.54273665 22.76040834 17.90338135 18.83476257 C20.15333443 16.86581619 21.04960095 16.31737502 24 16.375 C24.66 16.36210937 25.32 16.34921875 26 16.3359375 C29.30867956 17.43452251 30.20282777 19.01138355 32 22 C32.58461998 25.76815099 32.50496909 29.50171962 32.45410156 33.30786133 C32.45468567 34.44975922 32.45526978 35.5916571 32.45587158 36.76815796 C32.45308651 40.53975905 32.42197272 44.31056834 32.390625 48.08203125 C32.38316416 50.6980496 32.37747049 53.31407355 32.37347412 55.93009949 C32.36105397 62.11015551 32.32824573 68.28992766 32.28807616 74.46985883 C32.24332825 81.50728559 32.22136388 88.5447261 32.20129442 95.58225977 C32.15951199 110.05498973 32.08837078 124.52748139 32 139 C36.95 139 41.9 139 47 139 C47 93.46 47 47.92 47 1 C31.49 1 15.98 1 0 1 C0 0.67 0 0.34 0 0 Z " fill="#F12B39" transform="translate(92,128)"/>
<path d="M0 0 C1.06863281 -0.02835937 2.13726562 -0.05671875 3.23828125 -0.0859375 C12.09334573 1.097412 17.60184518 6.68440934 23.640625 12.76171875 C24.46326843 13.5781636 25.28591187 14.39460846 26.13348389 15.23579407 C27.86286652 16.95810118 29.58717287 18.68551887 31.30664062 20.41772461 C33.92767545 23.05262348 36.57180742 25.66264321 39.21875 28.27148438 C40.90249411 29.95427716 42.58483383 31.63847654 44.265625 33.32421875 C45.05108704 34.09642258 45.83654907 34.8686264 46.64581299 35.66423035 C52.01111418 41.1210616 55.82136587 46.51237294 57.18359375 54.16015625 C56.96164618 62.78651842 55.00758828 69.19535813 48.6875 75.375 C41.95795652 79.57091057 35.54931637 81.36649682 27.5859375 80.01953125 C15.71141797 76.89355349 6.22582188 64.12789746 -2.23730469 55.69042969 C-4.1980468 53.73950601 -6.16922153 51.79951736 -8.140625 49.859375 C-9.40430132 48.60222104 -10.66734503 47.3444308 -11.9296875 46.0859375 C-12.51201141 45.51596039 -13.09433533 44.94598328 -13.69430542 44.35873413 C-19.65429552 38.36610575 -23.36197336 32.28431801 -23.625 23.6875 C-23.52028014 17.21390859 -21.84688718 12.14748201 -17.44140625 7.328125 C-11.970312 2.32243574 -7.52578168 0.09012912 0 0 Z " fill="#000001" transform="translate(410.3125,262.625)"/>
<path d="M0 0 C5.86503098 4.06040606 9.57392779 8.92295004 11 16 C11.96752719 23.8784357 10.14458785 29.32809031 6 36 C3.45045474 39.19637971 0.64293349 42.06010474 -2.265625 44.9296875 C-3.05845886 45.72730499 -3.85129272 46.52492249 -4.66815186 47.34671021 C-6.3362712 49.01821079 -8.0106364 50.68349943 -9.69091797 52.34277344 C-12.24661668 54.87165219 -14.77447801 57.4261678 -17.30078125 59.984375 C-18.93329489 61.61358493 -20.56735871 63.24124333 -22.203125 64.8671875 C-23.32391449 66.00315872 -23.32391449 66.00315872 -24.46734619 67.16207886 C-30.33822033 72.90514066 -36.90027374 77.57581861 -45.4375 77.5625 C-52.05275666 77.29343626 -57.63716776 74.9354219 -62.62890625 70.578125 C-67.86172221 64.76735624 -69.31594709 58.69527296 -69.59375 51.13671875 C-67.86354516 41.99622873 -62.1959371 35.43704608 -55.76953125 29.0703125 C-54.97906906 28.27269501 -54.18860687 27.47507751 -53.37419128 26.65328979 C-51.7103554 24.98171772 -50.04018402 23.31642999 -48.36401367 21.65722656 C-45.81748185 19.12994419 -43.30169732 16.57464724 -40.78710938 14.015625 C-39.15802198 12.38624724 -37.52721822 10.75858336 -35.89453125 9.1328125 C-35.15249954 8.37549835 -34.41046783 7.6181842 -33.64595032 6.83792114 C-24.13464456 -2.46728879 -12.2950561 -6.47245025 0 0 Z " fill="#000001" transform="translate(456,79)"/>
<path d="M0 0 C2.953125 2.41015625 2.953125 2.41015625 5 5 C5 5.66 5 6.32 5 7 C11.27 7 17.54 7 24 7 C24.33 5.68 24.66 4.36 25 3 C26.11328125 1.27734375 26.11328125 1.27734375 28 0 C36.03379439 -1.05783058 44.3357748 -1.07276843 51 4 C56.1278235 8.3120334 59.59697999 12.58043627 60.38671875 19.28125 C60.64860378 27.73381495 60.00626179 33.71244749 54.1640625 39.96484375 C46.58114441 47.06838196 39.56245671 47.31670403 29.515625 47.3359375 C27.69946686 47.3459227 27.69946686 47.3459227 25.84661865 47.35610962 C23.28806066 47.36621997 20.72947638 47.37092714 18.17089844 47.37060547 C14.27754688 47.37496913 10.38533798 47.41128246 6.4921875 47.44921875 C4.00000385 47.45508926 1.50781485 47.45905709 -0.984375 47.4609375 C-2.71611969 47.48249405 -2.71611969 47.48249405 -4.48284912 47.50448608 C-12.66361804 47.45876716 -19.88053885 46.26124007 -26.4375 41.0703125 C-32.39513938 33.65305148 -33.87321741 27.49450676 -33 18 C-31.08559649 11.61865498 -27.5654492 6.54141033 -22.13671875 2.671875 C-15.50434446 -0.87538356 -7.31164237 -1.33164527 0 0 Z " fill="#000202" transform="translate(452,186)"/>
<path d="M0 0 C2.66126735 2.39270413 2.98867097 3.89718801 3.38311005 7.47675991 C3.40219639 8.8965283 3.40474375 10.31657588 3.39440918 11.73643494 C3.40050028 12.52036686 3.40659139 13.30429878 3.41286707 14.11198622 C3.4295292 16.74138961 3.42471676 19.37031044 3.41992188 21.99975586 C3.42726032 23.88383997 3.43584589 25.76791958 3.44558716 27.6519928 C3.46783488 32.77180278 3.47073223 37.89145198 3.46883965 43.01130366 C3.4687201 47.28332693 3.47727764 51.55531594 3.48561716 55.8273297 C3.50486277 65.9043595 3.50773074 75.98130646 3.50097656 86.05834961 C3.49433371 96.45923742 3.51720739 106.85977077 3.55429029 117.26058668 C3.58496122 126.18638245 3.59635018 135.11206404 3.59245348 144.03791147 C3.59038338 149.37071405 3.59590556 154.70324082 3.62034607 160.03599358 C3.6425677 165.05037338 3.64077357 170.0641758 3.62041855 175.07855797 C3.61700043 176.91961869 3.62213198 178.76071794 3.63640213 180.60172653 C3.65453301 183.1140222 3.6418933 185.62434623 3.62145996 188.13658142 C3.63397781 188.86635081 3.64649566 189.59612019 3.65939283 190.3480038 C3.59132338 194.24754468 3.0966658 195.87970184 0.621315 198.96021366 C-2 201 -2 201 -4.5625 201.5 C-7.45183375 200.90731615 -8.88353148 200.04088035 -11 198 C-12.19554279 194.41337162 -12.14811162 191.14812958 -12.14717102 187.41505432 C-12.15084771 186.63535481 -12.1545244 185.8556553 -12.1583125 185.05232853 C-12.16935347 182.43144482 -12.17319382 179.81060075 -12.17700195 177.18969727 C-12.18326612 175.31399408 -12.18991288 173.43829213 -12.19691467 171.56259155 C-12.21432462 166.46142796 -12.22487569 161.36027374 -12.2331202 156.2590878 C-12.23826869 153.07417656 -12.24434438 149.88926824 -12.25063133 146.70435905 C-12.26968046 136.74538969 -12.28391412 126.78642774 -12.2922433 116.82744366 C-12.30202608 105.3197939 -12.3283739 93.81233597 -12.36874419 82.30475384 C-12.39885972 73.41638 -12.41370769 64.5280613 -12.41702431 55.63963741 C-12.41937934 50.32755365 -12.42839888 45.01567489 -12.45348549 39.70364571 C-12.4766925 34.70907216 -12.48102927 29.71483968 -12.47072411 24.72022629 C-12.47022689 22.88518963 -12.47660171 21.05013658 -12.49028015 19.21515083 C-12.50788674 16.71366372 -12.50094933 14.21341572 -12.48774719 11.71192932 C-12.49871644 10.98245592 -12.50968568 10.25298252 -12.52098733 9.50140387 C-12.47706301 6.06438803 -12.2343955 4.30157614 -10.09671307 1.55120754 C-6.55152039 -1.07162612 -4.32161149 -0.54877606 0 0 Z " fill="#010202" transform="translate(307,114)"/>
<path d="M0 0 C3.41262164 0.9956209 4.22581685 2.52829524 6.03515625 5.59375 C6.64474672 9.66852564 6.58117646 13.71843548 6.55273438 17.83203125 C6.55974365 19.07318695 6.56675293 20.31434265 6.57397461 21.59310913 C6.58855016 24.99007838 6.5851532 28.38607142 6.57245827 31.78298569 C6.56231553 35.34142091 6.57172747 38.89981505 6.57800293 42.45825195 C6.58527567 48.43350698 6.57570161 54.4085641 6.55664062 60.38378906 C6.53487238 67.28731172 6.54192403 74.19036182 6.56394625 81.09387302 C6.58211106 87.02610341 6.58465335 92.95819172 6.57419157 98.89044094 C6.5679625 102.43132203 6.56710461 105.97198116 6.58033752 109.5128479 C6.59406099 113.46057436 6.57502851 117.40777351 6.55273438 121.35546875 C6.5608313 122.52653168 6.56892822 123.6975946 6.57727051 124.90414429 C6.49455268 132.79992995 6.49455268 132.79992995 4.18640137 136.78833008 C1.35285906 139.16636394 -0.25837831 139.7450343 -3.96484375 139.59375 C-6.50760533 137.94162188 -7.52896721 137.16975798 -8.96484375 134.59375 C-9.71608155 130.41755465 -9.62677847 126.28152909 -9.58007812 122.04833984 C-9.58562714 120.77471085 -9.59117615 119.50108185 -9.59689331 118.18885803 C-9.61112077 114.70323784 -9.59410275 111.21840843 -9.57060814 107.7328639 C-9.55048222 104.08408898 -9.55637944 100.43534633 -9.55871582 96.78652954 C-9.55866228 90.66159029 -9.53892165 84.53695988 -9.50683594 78.41210938 C-9.46991141 71.32910172 -9.46116515 64.24649807 -9.46813345 57.16340673 C-9.47443541 50.34872629 -9.46369205 43.53418448 -9.44416809 36.71953201 C-9.4359897 33.81926118 -9.43328532 30.91906116 -9.43486023 28.01877975 C-9.43590123 23.97243539 -9.41174718 19.9266255 -9.38476562 15.88037109 C-9.38769623 14.6740654 -9.39062683 13.4677597 -9.39364624 12.22489929 C-9.38229645 11.12574692 -9.37094666 10.02659454 -9.35925293 8.89413452 C-9.35365986 7.45896516 -9.35365986 7.45896516 -9.3479538 5.99480247 C-8.96484375 3.59375 -8.96484375 3.59375 -7.68628693 1.79372597 C-5.27212682 0.11087395 -2.87704257 0.13304243 0 0 Z " fill="#050101" transform="translate(117.96484375,144.40625)"/>
<path d="M0 0 C12.59377255 3.77813177 21.82731312 7.6562737 28.3515625 19.44140625 C32.7687168 29.08605611 33.56543149 38.45325736 30.0625 48.625 C26.03810601 58.05293423 19.95996147 64.73485552 10.65234375 69.0625 C7.17957951 70.28998662 3.57334114 71.10666471 0 72 C0 48.24 0 24.48 0 0 Z " fill="#F84553" transform="translate(341,178)"/>
<path d="M0 0 C6.27 0 12.54 0 19 0 C19.99 1.98 20.98 3.96 22 6 C23.67348526 7.67348526 25.89335692 7.16331173 28.1875 7.25 C31.9333225 7.56702925 34.65011476 7.90215967 37.6875 10.1875 C40 13 40 13 40.625 16 C39.80101805 19.95511334 39.09038808 21.32536917 36 24 C31.98660488 24.75473496 28.01004323 24.65191286 23.9375 24.59375 C22.16234009 24.59381042 22.16234009 24.59381042 20.35131836 24.59387207 C17.8497181 24.58851162 15.34811858 24.57090684 12.84667969 24.54199219 C9.01445124 24.50015776 5.18398063 24.50092143 1.3515625 24.5078125 C-1.07813723 24.49731963 -3.50782789 24.48438102 -5.9375 24.46875 C-7.08549072 24.46854858 -8.23348145 24.46834717 -9.41625977 24.46813965 C-10.48416748 24.45222778 -11.5520752 24.43631592 -12.65234375 24.41992188 C-14.05987915 24.40729309 -14.05987915 24.40729309 -15.49584961 24.39440918 C-18.45110285 23.92895031 -19.83985202 23.03970919 -22 21 C-22.820783 17.92630918 -22.61253467 15.10763002 -22 12 C-20.25 9.5 -20.25 9.5 -17 8 C-13.9018368 7.62838743 -10.86190323 7.43722239 -7.7421875 7.37109375 C-5.01514328 7.22441489 -5.01514328 7.22441489 -3.2578125 5.72265625 C-1.71945072 3.71599821 -1.71945072 3.71599821 0 0 Z " fill="#00BDF6" transform="translate(457,193)"/>
<path d="M0 0 C3.15894354 2.25734667 5.82846757 4.93994539 8.55859375 7.69140625 C9.34774673 8.47007553 10.13689972 9.24874481 10.94996643 10.05101013 C12.61049976 11.69872097 14.26335103 13.35420516 15.90893555 15.0168457 C18.42923912 17.55418329 20.98459351 20.05196068 23.54492188 22.54882812 C25.15590822 24.15659043 26.76470899 25.7665463 28.37109375 27.37890625 C29.13659042 28.12193497 29.9020871 28.86496368 30.69078064 29.63050842 C36.45854673 35.55327524 36.45854673 35.55327524 36.57446289 40.38256836 C36 44 36 44 34.4375 46.5 C30.89383548 48.68071663 29.10900306 48.75331723 25 48 C17.3964974 42.82329448 10.96747127 35.11944162 4.48852539 28.61889648 C2.54622735 26.67118197 0.5985686 24.7289407 -1.34960938 22.78710938 C-2.58625875 21.54980017 -3.82259842 20.31218132 -5.05859375 19.07421875 C-5.64080185 18.49403488 -6.22300995 17.91385101 -6.82286072 17.31608582 C-11.88116508 12.22796087 -11.88116508 12.22796087 -12.375 7.125 C-12.32042351 3.79583412 -12.13460445 3.16723583 -9.9375 0.4375 C-5.94232943 -1.51758347 -4.29596258 -1.19415505 0 0 Z " fill="#00BBF4" transform="translate(415,279)"/>
<path d="M0 0 C2.4375 1.5625 2.4375 1.5625 4 4 C4.6875 7.25 4.6875 7.25 4 11 C-1.17670552 18.6035026 -8.88055838 25.03252873 -15.38110352 31.51147461 C-17.32881803 33.45377265 -19.2710593 35.4014314 -21.21289062 37.34960938 C-22.45019983 38.58625875 -23.68781868 39.82259842 -24.92578125 41.05859375 C-25.50596512 41.64080185 -26.08614899 42.22300995 -26.68391418 42.82286072 C-31.77773472 47.88682729 -31.77773472 47.88682729 -36.375 48.3125 C-40 48 -40 48 -42.4375 46.4375 C-44.70159958 42.90550465 -44.7587407 41.13858566 -44 37 C-38.82329448 29.3964974 -31.11944162 22.96747127 -24.61889648 16.48852539 C-22.67118197 14.54622735 -20.7289407 12.5985686 -18.78710938 10.65039062 C-17.54980017 9.41374125 -16.31218132 8.17740158 -15.07421875 6.94140625 C-14.49403488 6.35919815 -13.91385101 5.77699005 -13.31608582 5.17713928 C-8.70568984 0.593764 -6.6145658 -0.57022119 0 0 Z " fill="#01BCF5" transform="translate(447,92)"/>
<path d="M0 0 C1.89551022 -0.05441656 3.7914792 -0.09298035 5.6875 -0.125 C6.74324219 -0.14820313 7.79898438 -0.17140625 8.88671875 -0.1953125 C12.13852579 0.00869045 14.19535961 0.33890367 17 2 C19.33718403 6.66662903 19.98042207 11.76659045 20.0625 16.9375 C19 20 19 20 16.375 22.375 C12.819869 24.08672974 9.91535314 24.68677175 6 25 C5.73445312 24.13117188 5.46890625 23.26234375 5.1953125 22.3671875 C4.66550781 20.63855469 4.66550781 20.63855469 4.125 18.875 C3.77695313 17.73804688 3.42890625 16.60109375 3.0703125 15.4296875 C2.39025617 13.25052891 1.66093059 11.08568179 0.8671875 8.9453125 C-0.05292974 5.82022961 -0.15426168 3.23949537 0 0 Z " fill="#00529D" transform="translate(207,315)"/>
</svg>
