<?xml version="1.0" encoding="UTF-8"?>
<svg version="1.1" xmlns="http://www.w3.org/2000/svg" width="1101" height="1024">
<path d="M0 0 C1.11133536 -0.00327219 2.22267072 -0.00654439 3.3676829 -0.00991574 C4.59098086 -0.00843212 5.81427882 -0.00694849 7.07464641 -0.00541991 C8.37770234 -0.00777214 9.68075827 -0.01012437 11.02330074 -0.01254788 C14.65926209 -0.01895906 18.29520137 -0.01910861 21.93116729 -0.01827047 C25.87972521 -0.01843975 29.82827516 -0.02434341 33.77682912 -0.02951133 C41.61692747 -0.03884731 49.45702017 -0.04276106 57.29712338 -0.0450303 C66.68453735 -0.04798977 76.07194382 -0.05668567 85.45935386 -0.06544458 C108.15101095 -0.08630025 130.84266935 -0.09676045 153.5343338 -0.10557419 C164.26617601 -0.10977901 174.99801766 -0.11500121 185.7298594 -0.12025872 C222.45608218 -0.13814968 259.18230512 -0.15314642 295.90853161 -0.16057891 C298.21471404 -0.16105367 300.52089647 -0.16152955 302.8270789 -0.16200657 C304.54259108 -0.16236113 304.54259108 -0.16236113 306.29276007 -0.16272286 C312.08731899 -0.16392408 317.88187792 -0.16513952 323.67643684 -0.16636485 C324.82639066 -0.166605 325.97634448 -0.16684515 327.16114539 -0.16709258 C364.45243592 -0.17498698 401.74369465 -0.19842133 439.03497129 -0.23092079 C478.4484781 -0.26520716 517.86196629 -0.28492893 557.27548826 -0.28822315 C561.60098083 -0.2886407 565.92647338 -0.28912026 570.25196594 -0.28964633 C571.31704731 -0.28976952 572.38212867 -0.28989271 573.47948523 -0.29001964 C590.63067124 -0.29235313 607.78182037 -0.3080214 624.93299323 -0.32848817 C642.16821887 -0.34872917 659.40340014 -0.35423164 676.63863546 -0.34471754 C686.88104971 -0.3394959 697.12331641 -0.34541138 707.36570947 -0.36725221 C714.20690955 -0.38073927 721.04800783 -0.37970185 727.88920888 -0.36685025 C731.78758138 -0.35993968 735.68567138 -0.35933143 739.58401889 -0.37641034 C743.7858426 -0.39466876 747.98700944 -0.3819095 752.18884319 -0.36618346 C753.99920788 -0.38151677 753.99920788 -0.38151677 755.8461456 -0.39715984 C768.32148348 -0.29498644 779.61292718 3.92402261 788.98625129 12.28114492 C797.41057772 20.97313389 802.69340015 31.56063605 802.70098996 43.70436561 C802.70276497 44.36781737 802.70453998 45.03126914 802.70636878 45.7148255 C802.71112374 47.95216004 802.70873215 50.18943053 802.70640987 52.42676812 C802.70836227 54.0482584 802.71075091 55.66974821 802.71353784 57.29123726 C802.71995501 61.77479548 802.7200981 66.25833581 802.71926043 70.74189774 C802.71942959 75.60926556 802.72533192 80.47662691 802.73050129 85.34399152 C802.73984091 95.01033449 802.74375163 104.67667287 802.74602026 114.34301979 C802.74897878 125.91622926 802.7576741 137.48943264 802.76643454 149.06263892 C802.78729388 177.03806582 802.7977509 205.01349378 802.80656415 232.98892664 C802.81076835 246.21821692 802.81599063 259.44750675 802.82124868 272.67679664 C802.8388593 317.23534644 802.85391285 361.79389654 802.86121891 406.35244932 C802.86180289 409.90479995 802.86240015 413.45715058 802.86299653 417.00950122 C802.86311465 417.71417782 802.86323277 418.41885443 802.86335447 419.14488488 C802.86455186 426.28429982 802.86576062 433.42371477 802.866987 440.56312971 C802.86723224 441.99460803 802.86747609 443.42608634 802.86771857 444.85756466 C802.87550837 490.83181082 802.89789165 536.80603145 802.930395 582.78026645 C802.95373997 615.81160704 802.97529207 648.84294255 802.98240131 681.87429124 C802.98254833 682.55357085 802.98269535 683.23285045 802.98284683 683.93271429 C802.98603163 698.84454643 802.98808254 713.75637852 802.98907438 728.66821096 C802.98948912 734.66814034 802.99004421 740.66806972 802.99063629 746.66799909 C802.99075948 747.98066439 802.99088267 749.29332969 802.9910096 750.64577273 C802.99334391 771.79151871 803.0090167 792.93723481 803.02947814 814.08297013 C803.04971039 835.32853629 803.05522576 856.57406646 803.0457075 877.81964047 C803.04048248 890.44824111 803.04641727 903.07672215 803.06824217 915.70530564 C803.08171532 924.13707131 803.08070416 932.56875434 803.06784022 941.00052077 C803.06092039 945.80733618 803.06035304 950.61392234 803.0774003 955.4207176 C803.09278825 959.7952195 803.08970002 964.16930757 803.07199002 968.54379713 C803.06884489 970.11495872 803.07237696 971.68615184 803.08348177 973.25727734 C803.17735965 987.46697433 800.07962462 999.70848294 790.41984504 1010.54286367 C782.22119411 1018.48904399 771.72462994 1024.24867895 760.14437759 1024.25760233 C759.03304223 1024.26087453 757.92170687 1024.26414672 756.77669469 1024.26751807 C754.94174775 1024.26529264 754.94174775 1024.26529264 753.06973118 1024.26302224 C751.76667525 1024.26537447 750.46361932 1024.2677267 749.12107685 1024.27015021 C745.4851155 1024.2765614 741.84917622 1024.27671095 738.21321029 1024.27587281 C734.26465238 1024.27604208 730.31610243 1024.28194574 726.36754847 1024.28711367 C718.52745012 1024.29644964 710.68735742 1024.30036339 702.84725421 1024.30263263 C693.45984024 1024.3055921 684.07243377 1024.314288 674.68502373 1024.32304691 C651.99336664 1024.34390258 629.30170824 1024.35436279 606.61004379 1024.36317652 C595.87820158 1024.36738134 585.14635993 1024.37260355 574.41451819 1024.37786105 C537.68829541 1024.39575201 500.96207247 1024.41074876 464.23584598 1024.41818124 C461.92966355 1024.418656 459.62348112 1024.41913189 457.31729868 1024.4196089 C455.60178651 1024.41996347 455.60178651 1024.41996347 453.85161752 1024.42032519 C448.0570586 1024.42152641 442.26249967 1024.42274185 436.46794075 1024.42396718 C435.31798693 1024.42420733 434.1680331 1024.42444748 432.9832322 1024.42469491 C395.69194167 1024.43258931 358.40068294 1024.45602367 321.1094063 1024.48852313 C281.69589949 1024.52280949 242.2824113 1024.54253127 202.86888933 1024.54582548 C198.54339676 1024.54624303 194.21790421 1024.5467226 189.89241165 1024.54724866 C188.82733028 1024.54737185 187.76224892 1024.54749504 186.66489236 1024.54762197 C169.51370635 1024.54995546 152.36255722 1024.56562373 135.21138436 1024.58609051 C117.97615872 1024.60633151 100.74097745 1024.61183398 83.50574213 1024.60231987 C73.26332788 1024.59709823 63.02106118 1024.60301371 52.77866812 1024.62485455 C45.93746804 1024.6383416 39.09636976 1024.63730418 32.25516871 1024.62445259 C28.35679621 1024.61754201 24.45870621 1024.61693376 20.5603587 1024.63401268 C16.35853499 1024.65227109 12.15736815 1024.63951183 7.9555344 1024.62378579 C6.14516971 1024.6391191 6.14516971 1024.6391191 4.29823199 1024.65476218 C-8.17710589 1024.55258877 -19.46854959 1020.33357972 -28.84187371 1011.97645742 C-37.74415684 1002.79132582 -42.5981636 992.03598621 -42.54806572 979.32075673 C-42.54934736 978.13344178 -42.54934736 978.13344178 -42.55065489 976.92214066 C-42.55230322 974.26737173 -42.54679887 971.61266585 -42.5413366 968.95790273 C-42.54105456 967.05585908 -42.54121278 965.15381533 -42.5417791 963.25177175 C-42.54206643 958.08480852 -42.53618006 952.91786843 -42.52920514 947.75091058 C-42.52296092 942.35235951 -42.52236696 936.95380793 -42.52117974 931.5552538 C-42.51806958 921.33079213 -42.50986043 911.10634113 -42.49983025 900.88188416 C-42.48865933 889.24235286 -42.48315619 877.60282106 -42.47813481 865.96328574 C-42.46767757 842.01845163 -42.45008421 818.073627 -42.42781121 794.12880117 C-43.53087766 794.13156655 -44.63394411 794.13433192 -45.77043682 794.1371811 C-72.62913498 794.20382435 -99.48782239 794.25309963 -126.34658581 794.28423768 C-139.33536078 794.29969662 -152.32408109 794.32076763 -165.31282097 794.35511953 C-176.63578751 794.38505157 -187.95871444 794.40438324 -199.28171945 794.41106665 C-205.27534992 794.41497243 -211.26886712 794.42413149 -217.26246125 794.44599134 C-222.90865449 794.46641649 -228.55468823 794.47262275 -234.20091492 794.46812421 C-236.26843944 794.46894671 -238.33596952 794.47487625 -240.40346199 794.48641759 C-260.53128954 794.59322629 -260.53128954 794.59322629 -269.42781121 791.12880117 C-270.5116835 790.70938646 -270.5116835 790.70938646 -271.6174522 790.28149873 C-281.31380144 786.25512666 -290.20393196 776.98084034 -294.64265496 767.54676992 C-297.40836374 760.82442436 -298.57610155 755.34114537 -298.56203228 748.04885274 C-298.56438451 747.22390616 -298.56673674 746.39895959 -298.56916025 745.54901463 C-298.57585168 742.76671846 -298.57539199 739.98446897 -298.57498223 737.20216542 C-298.57828077 735.19436221 -298.58200631 733.18655966 -298.5861237 731.17875797 C-298.59615304 725.64699371 -298.59986201 720.11524031 -298.60251302 714.58346826 C-298.60641333 708.62278514 -298.61599189 702.66211063 -298.62472588 696.701433 C-298.64356379 682.9796506 -298.65374781 669.25786664 -298.66218656 655.53607486 C-298.66639341 648.75437495 -298.67161538 641.97267592 -298.67687109 635.19097676 C-298.69476219 611.97402812 -298.70975755 588.75707922 -298.71719128 565.54012471 C-298.71766604 564.08251354 -298.71814192 562.62490237 -298.71861894 561.16729119 C-298.71885532 560.44444985 -298.71909169 559.7216085 -298.71933523 558.97686287 C-298.72053642 555.31461834 -298.72175188 551.65237382 -298.72297722 547.99012929 C-298.72333745 546.89995542 -298.72333745 546.89995542 -298.72370495 545.78775784 C-298.73159597 522.22946026 -298.75502328 498.67121307 -298.78753316 475.11293749 C-298.82184545 450.20304447 -298.84154376 425.29318092 -298.84483552 400.38326389 C-298.84525305 397.64764036 -298.84573262 394.91201684 -298.8462587 392.17639333 C-298.84638189 391.50281097 -298.84650508 390.82922862 -298.84663201 390.13523467 C-298.8489624 379.30338231 -298.86461346 368.47158853 -298.88510055 357.63975703 C-298.9053754 346.74712081 -298.91049509 335.85455816 -298.90132991 324.96190679 C-298.89678221 319.06274421 -298.89869909 313.1637715 -298.91809136 307.26463491 C-298.93570181 301.86082324 -298.9347422 296.45734027 -298.91919407 291.05352521 C-298.9168148 289.10189241 -298.92115802 287.15023698 -298.93302272 285.1986388 C-299.0289328 268.37630657 -296.52387513 255.46015462 -284.55281121 242.87880117 C-274.55921342 233.34031979 -263.26582317 229.96044086 -249.62634331 230.00854665 C-248.29686416 230.00726501 -248.29686416 230.00726501 -246.94052684 230.00595748 C-243.97101708 230.00431054 -241.00156381 230.00981124 -238.03205925 230.01527578 C-235.90327 230.01555784 -233.77448065 230.01539953 -231.64569145 230.01483327 C-225.86517165 230.01454606 -220.08467254 230.02043055 -214.30415756 230.02740723 C-208.26365551 230.03365338 -202.22315301 230.03424557 -196.18264824 230.03543264 C-184.74345273 230.03854222 -173.30426677 230.04675061 -161.86507547 230.05678213 C-148.84223396 230.06795481 -135.81939199 230.07345663 -122.79654688 230.07847756 C-96.00696303 230.08893351 -69.21738765 230.10652577 -42.42781121 230.12880117 C-42.43149838 229.14427056 -42.43518555 228.15973994 -42.43898445 227.14537507 C-42.52786754 203.1657894 -42.59355449 179.18622515 -42.63505989 155.20650941 C-42.65566621 143.60999039 -42.68374997 132.01358032 -42.72956902 120.41713125 C-42.7694958 110.30713172 -42.79525805 100.19721113 -42.80416518 90.08713496 C-42.80937001 84.73620551 -42.82156314 79.38550184 -42.85073143 74.0346449 C-42.87799277 68.99250105 -42.88623456 63.95067481 -42.88024193 58.90846425 C-42.88133738 57.06346388 -42.88922711 55.21845228 -42.9046331 53.3735159 C-43.02484664 38.22743438 -40.74023563 25.45199227 -30.27546746 13.71473867 C-22.07681652 5.76855835 -11.58025235 0.00892338 0 0 Z " fill="#117B41" transform="translate(298.4278112053871,-0.128801167011261)"/>
<path d="M0 0 C43.56 0 87.12 0 132 0 C132 84.48 132 168.96 132 256 C267.3 256 402.6 256 542 256 C542.1613254 374.75789796 542.1613254 374.75789796 542.1953125 424.31054688 C542.20263424 434.93106895 542.21014258 445.55159086 542.21810398 456.17211247 C542.21918334 457.61265357 542.22025683 459.05319467 542.22132435 460.49373578 C542.23838683 483.45230197 542.26839826 506.41082871 542.30518888 529.36937106 C542.34293718 552.96843902 542.36754593 576.56748516 542.37565996 600.16658279 C542.38091598 615.37218732 542.39769279 630.5776842 542.43166587 645.78325327 C542.45279966 655.74956 542.45920259 665.71580817 542.45400551 675.68213568 C542.451442 681.4333078 542.45538878 687.18428208 542.4768219 692.93541908 C542.49630956 698.2030202 542.49725539 703.47029069 542.48359558 708.73790713 C542.4819077 710.64119247 542.48696293 712.54449858 542.49953273 714.44774316 C542.56093863 724.32143843 542.52488703 732.96081118 538 742 C537.5551684 742.88996148 537.1103368 743.77992297 536.65202546 744.69685298 C530.61288361 756.1797284 520.88416769 762.49110169 509 767 C505.79992252 767.97397826 502.91231641 768.12622737 499.57218879 768.12880117 C498.46085344 768.13207336 497.34951808 768.13534555 496.20450589 768.13871691 C494.98120793 768.13723328 493.75790997 768.13574966 492.49754238 768.13422108 C491.19448645 768.13657331 489.89143053 768.13892554 488.54888806 768.14134905 C484.91292671 768.14776023 481.27698743 768.14790978 477.6410215 768.14707164 C473.69246359 768.14724092 469.74391363 768.15314458 465.79535967 768.1583125 C457.95526133 768.16764848 450.11516863 768.17156222 442.27506542 768.17383147 C432.88765144 768.17679094 423.50024498 768.18548683 414.11283494 768.19424575 C391.42117784 768.21510142 368.72951944 768.22556162 346.037855 768.23437535 C335.30601279 768.23858017 324.57417113 768.24380238 313.8423294 768.24905988 C277.11610662 768.26695085 240.38988368 768.28194759 203.66365719 768.28938007 C201.35747476 768.28985483 199.05129232 768.29033072 196.74510989 768.29080774 C195.02959771 768.2911623 195.02959771 768.2911623 193.27942873 768.29152403 C187.4848698 768.29272524 181.69031088 768.29394069 175.89575195 768.29516602 C174.74579813 768.29540617 173.59584431 768.29564632 172.4110434 768.29589374 C135.11975288 768.30378815 97.82849414 768.3272225 60.5372175 768.35972196 C21.1237107 768.39400833 -18.2897775 768.4137301 -57.70329946 768.41702431 C-62.02879203 768.41744186 -66.35428459 768.41792143 -70.67977715 768.41844749 C-71.74485851 768.41857069 -72.80993988 768.41869388 -73.90729644 768.4188208 C-91.05848245 768.4211543 -108.20963158 768.43682256 -125.36080444 768.45728934 C-142.59603008 768.47753034 -159.83121135 768.48303281 -177.06644667 768.47351871 C-187.30886092 768.46829706 -197.55112762 768.47421255 -207.79352067 768.49605338 C-214.63472075 768.50954043 -221.47581903 768.50850302 -228.31702008 768.49565142 C-232.21539259 768.48874084 -236.11348258 768.48813259 -240.0118301 768.50521151 C-244.21365381 768.52346992 -248.41482065 768.51071066 -252.6166544 768.49498463 C-253.82356419 768.50520683 -255.03047399 768.51542904 -256.27395681 768.52596101 C-268.74929469 768.42378761 -280.04073839 764.20477856 -289.4140625 755.84765625 C-298.33179596 746.64658343 -303.17016148 735.8874287 -303.12025452 723.1539917 C-303.12110894 722.35836484 -303.12196337 721.56273798 -303.12284368 720.74300122 C-303.12449207 718.07441288 -303.11898757 715.40588725 -303.11352539 712.73730469 C-303.11324335 710.82540895 -303.11340157 708.91351311 -303.1139679 707.00161743 C-303.11425523 701.8077956 -303.10836878 696.61399679 -303.10139394 691.42018032 C-303.0951498 685.99360203 -303.09455576 680.56702323 -303.09336853 675.14044189 C-303.09025835 664.8628563 -303.08204916 654.58528132 -303.07201904 644.3077004 C-303.0608482 632.60771075 -303.055345 620.9077206 -303.05032361 609.20772696 C-303.03986631 585.13847875 -303.0222729 561.06923997 -303 537 C-302.4378565 536.99940291 -301.87571299 536.99880582 -301.29653484 536.99819064 C-267.94395909 536.96225942 -234.59149038 536.90556335 -201.23900085 536.82207905 C-197.23005366 536.81206216 -193.22110607 536.80221794 -189.2121582 536.79248047 C-188.41408348 536.7905391 -187.61600876 536.78859772 -186.79374995 536.78659752 C-173.8888831 536.7556168 -160.98403402 536.73860786 -148.079137 536.72680578 C-134.82736829 536.71437383 -121.57569247 536.68682642 -108.32398242 536.64538693 C-100.15372854 536.62030989 -91.98362882 536.60687847 -83.81333592 536.60857043 C-78.20282273 536.60860029 -72.59246601 536.59388471 -66.98201386 536.56783572 C-63.74998711 536.5532569 -60.51834317 536.54712222 -57.28628159 536.55419731 C-39.02981865 536.58882672 -24.71006135 536.0760993 -10.3125 523.6875 C-1.40194928 513.33199511 3.16323649 502.52511314 3.13142776 488.8538866 C3.1334804 488.03394048 3.13553303 487.21399436 3.13764787 486.36920139 C3.14332148 483.6099549 3.14186017 480.85075827 3.14044189 478.09150696 C3.14302532 476.09791465 3.14603842 474.10432285 3.1494453 472.11073178 C3.15752116 466.62297035 3.15930519 461.135222 3.16004276 455.64745533 C3.16189229 449.73250103 3.1694391 443.81755353 3.17617798 437.90260315 C3.19047449 424.28988544 3.19628832 410.67716873 3.20086992 397.06444507 C3.2032062 390.33698536 3.20680888 383.60952649 3.2105653 376.88206744 C3.2234003 353.85143714 3.23411966 330.82080732 3.2375679 307.79017353 C3.23778953 306.34458503 3.23801132 304.89899652 3.23823325 303.45340801 C3.23845389 302.00433758 3.23867438 300.55526714 3.2388947 299.1061967 C3.23933725 296.19913439 3.23978437 293.29207208 3.24023438 290.38500977 C3.24034377 289.66422792 3.24045316 288.94344608 3.24056586 288.20082237 C3.24419653 264.82924535 3.26011719 241.45769934 3.28342474 218.0861342 C3.3080242 193.37391561 3.32174079 168.66171476 3.32293582 143.94948357 C3.32310727 141.23637942 3.3233227 138.52327527 3.32357025 135.81017113 C3.3236539 134.80811398 3.3236539 134.80811398 3.32373925 133.78581325 C3.32481836 123.70362964 3.33412485 113.62147476 3.34775543 103.53930092 C3.36314576 92.06994196 3.36828316 80.60063616 3.36001733 69.13126884 C3.35610711 63.27896011 3.35705872 57.42675848 3.37107468 51.57446289 C3.38379095 46.21586846 3.38263595 40.85746186 3.37048396 35.49886777 C3.36852304 33.56143446 3.37162361 31.62398794 3.38032833 29.68657319 C3.58892915 17.01911178 3.58892915 17.01911178 0.64333034 4.7933957 C0 3 0 3 0 0 Z " fill="#175B36" transform="translate(559,256)"/>
<path d="M0 0 C91.9771875 -0.12375 91.9771875 -0.12375 185.8125 -0.25 C205.18557861 -0.28641602 224.55865723 -0.32283203 244.51879883 -0.36035156 C268.14587402 -0.37841797 268.14587402 -0.37841797 279.20097351 -0.3817749 C286.93470617 -0.3855068 294.6683234 -0.40018691 302.40202332 -0.42230225 C311.32219925 -0.44777271 320.24226437 -0.45934164 329.16247694 -0.4537798 C333.72508742 -0.45137119 338.28745027 -0.45517704 342.85001528 -0.47686052 C346.97945571 -0.4963661 351.10847404 -0.49726784 355.23793411 -0.48360443 C356.72721167 -0.48191411 358.21651602 -0.48693639 359.70574129 -0.49953032 C373.66939952 -0.6106332 385.78806658 2.6783571 396.4140625 12.15234375 C405.35830315 21.38076596 410.16766401 32.14630692 410.12304783 44.91044235 C410.12420167 45.71703523 410.12535552 46.52362811 410.12654433 47.35466319 C410.12920441 50.07441427 410.12469379 52.79410689 410.12025452 55.51385498 C410.12069034 57.47658752 410.12156546 59.43932 410.12284368 61.40205216 C410.12508641 66.80876972 410.12107037 72.21546757 410.11606562 77.62218261 C410.11175814 83.44766093 410.11320776 89.27313809 410.1139679 95.09861755 C410.11449294 105.19607559 410.11134816 115.29352717 410.10573006 125.39098358 C410.09761244 139.99031746 410.09499623 154.58964885 410.09374207 169.18898466 C410.09164093 192.87387564 410.08490156 216.55876326 410.07543945 240.24365234 C410.06625701 263.2550454 410.05918933 286.26643752 410.05493164 309.27783203 C410.054661 310.72454107 410.05439029 312.1712501 410.05411953 313.61795914 C410.052034 324.8185768 410.05008323 336.01919447 410.04816496 347.21981215 C410.03872662 402.14654459 410.01860942 457.07326843 410 512 C274.7 512 139.4 512 0 512 C0 343.04 0 174.08 0 0 Z " fill="#20A265" transform="translate(691,0)"/>
<path d="M0 0 C135.3 0 270.6 0 410 0 C410 84.48 410 168.96 410 256 C274.7 256 139.4 256 0 256 C0 171.52 0 87.04 0 0 Z " fill="#107B40" transform="translate(691,512)"/>
<path d="M0 0 C93.16093508 -0.1613254 93.16093508 -0.1613254 132.05273438 -0.1953125 C140.95467152 -0.2031439 149.85660839 -0.21122581 158.75854492 -0.21972656 C160.43209719 -0.22130906 160.43209719 -0.22130906 162.1394586 -0.22292352 C180.14791169 -0.24031729 198.15631365 -0.27185067 216.16473643 -0.30861118 C234.64839919 -0.34602692 253.1320352 -0.3682372 271.61573428 -0.37635398 C283.01972526 -0.38184042 294.42357179 -0.39916443 305.82751831 -0.43166587 C313.64930055 -0.45282154 321.4710082 -0.45919764 329.29281697 -0.45400551 C333.80454744 -0.45144539 338.31602559 -0.45534982 342.82771111 -0.4768219 C346.96288199 -0.49635787 351.09763205 -0.4972246 355.23282274 -0.48359558 C356.72426877 -0.48191236 358.21574159 -0.48692685 359.7071353 -0.49953273 C373.67021367 -0.61063738 385.78856845 2.67880455 396.4140625 12.15234375 C405.69575334 21.72893781 410.16590643 32.62574912 410.12025452 45.79510498 C410.12111053 46.69065598 410.12196655 47.58620697 410.12284851 48.50889587 C410.12450631 51.52515642 410.1189758 54.5413617 410.11352539 57.55761719 C410.11321913 59.7507998 410.11335242 61.9439825 410.11389065 64.13716507 C410.11411673 70.01897249 410.10831407 75.90075963 410.10128021 81.78256226 C410.09559211 87.2985643 410.09531746 92.81456137 410.09460449 98.33056641 C410.08935379 114.4703803 410.07539268 130.6101904 410.0625 146.75 C410.041875 182.8025 410.02125 218.855 410 256 C274.7 256 139.4 256 0 256 C0 171.52 0 87.04 0 0 Z " fill="#32C380" transform="translate(691,0)"/>
<path d="M0 0 C0.6765881 -0.00115384 1.35317621 -0.00230769 2.05026698 -0.0034965 C4.32777999 -0.00615299 6.60522296 -0.00164894 8.88273239 0.00279331 C10.52785533 0.00235741 12.17297819 0.00148216 13.81810069 0.00020415 C18.3468985 -0.00203714 22.87567277 0.00197549 27.40446758 0.00698221 C32.2851518 0.01129175 37.16583465 0.00983992 42.04652023 0.00907993 C50.5053476 0.00855502 58.96416727 0.01169843 67.42299271 0.01731777 C79.65310692 0.02543716 91.88321741 0.02804844 104.11333403 0.02930576 C123.95482424 0.03149559 143.79631033 0.0381538 163.63779831 0.04760838 C182.91449081 0.05678428 202.19118219 0.06385278 221.46787643 0.06811619 C222.66777065 0.06838419 223.86766486 0.06865218 225.10391951 0.0689283 C234.48757106 0.07100767 243.87122264 0.07296461 253.25487423 0.07488286 C299.26728498 0.08432033 345.27968546 0.10443774 391.29209518 0.12304783 C391.29209518 84.60304783 391.29209518 169.08304783 391.29209518 256.12304783 C355.65209518 256.12304783 320.01209518 256.12304783 283.29209518 256.12304783 C281.31209518 253.15304783 279.33209518 250.18304783 277.29209518 247.12304783 C269.47150971 237.89475697 257.54771395 232.04154886 245.455405 230.84154284 C242.30158938 230.73130475 239.15982532 230.71050178 236.0041008 230.72432041 C234.80315926 230.71767358 233.60221772 230.71102676 232.36488402 230.70417851 C229.05805699 230.68883552 225.75171357 230.68669566 222.44488597 230.69030797 C218.86898651 230.69093475 215.29316095 230.67428457 211.7172966 230.65979099 C205.53072045 230.63705312 199.34420043 230.62512822 193.15758514 230.62066174 C184.21292349 230.61418825 175.26836309 230.59122985 166.32374234 230.56431844 C151.80978959 230.52109526 137.29584111 230.49110301 122.78184128 230.46948338 C108.68741887 230.44846028 94.59303142 230.42117357 80.49863815 230.385499 C79.19427494 230.38220076 79.19427494 230.38220076 77.86356096 230.37883589 C73.50091823 230.36776591 69.13827583 230.35657316 64.77563357 230.34531939 C28.61448428 230.25219759 -7.54668224 230.18057031 -43.70790482 230.12304783 C-43.80143533 205.14898847 -43.87192679 180.17495544 -43.9151535 155.20075607 C-43.93575982 143.60423705 -43.96384358 132.00782699 -44.00966263 120.41137791 C-44.04958941 110.30137838 -44.07535166 100.1914578 -44.08425879 90.08138162 C-44.08946362 84.73045217 -44.10165675 79.3797485 -44.13082504 74.02889156 C-44.15808638 68.98674771 -44.16632818 63.94492147 -44.16033554 58.90271091 C-44.16143099 57.05771054 -44.16932072 55.21269894 -44.18472672 53.36776257 C-44.30494025 38.22168104 -42.02032924 25.44623893 -31.55556107 13.70898533 C-22.80833535 5.23112313 -12.20814669 -0.00383904 0 0 Z " fill="#20A265" transform="translate(299.7079048156738,-0.1230478286743164)"/>
<path d="M0 0 C8.25 0 16.5 0 25 0 C29.13574055 8.27148111 30.3000693 14.63393396 30.25447559 23.68097305 C30.25768207 24.63040954 30.26088855 25.57984603 30.26419219 26.55805331 C30.27249416 29.73979335 30.26656712 32.92134525 30.26069641 36.10308838 C30.263717 38.40720517 30.26760602 40.71132097 30.27228898 43.01543498 C30.28258968 49.34768981 30.28038186 55.67988816 30.27610838 62.01214767 C30.27292384 68.13985141 30.28104915 74.26754574 30.28786864 80.39524482 C30.30310842 94.47614958 30.30481369 108.55703637 30.30234561 122.63794765 C30.30051275 133.51246648 30.30227242 144.38697941 30.30657005 155.2614975 C30.30717246 156.82400087 30.30777365 158.38650424 30.30837366 159.94900762 C30.30928091 162.30358364 30.31018958 164.65815967 30.31110601 167.01273569 C30.31953568 188.90480854 30.32387117 210.79687916 30.31969929 232.6889534 C30.31954291 233.51424154 30.31938654 234.33952967 30.31922542 235.18982654 C30.31841964 239.37267543 30.31757387 243.55552431 30.31671212 247.73837319 C30.31645549 248.98445347 30.31645549 248.98445347 30.31619367 250.25570709 C30.31584702 251.93562557 30.31549849 253.61554406 30.31514808 255.29546255 C30.30979159 281.43152614 30.3177192 307.56755598 30.33618164 333.70361328 C30.35690267 363.07137285 30.36762409 392.43911152 30.36360615 421.80687881 C30.36321081 424.93899901 30.36284927 428.07111923 30.36250877 431.20323944 C30.36241804 431.97443948 30.36232731 432.74563952 30.36223383 433.54020926 C30.36106834 445.17722848 30.36771253 456.81422659 30.37832069 468.45124054 C30.39037537 481.68850974 30.39192863 494.92573245 30.37953053 508.16300234 C30.37348778 514.91681698 30.37256189 521.6705353 30.38453293 528.42434502 C30.39536743 534.6088254 30.39231713 540.79313878 30.37827124 546.97761127 C30.37561762 549.2131024 30.37801168 551.44860652 30.38600711 553.68408492 C30.44522528 571.47847937 29.47922237 587.11558232 16.6875 600.875 C8.43331061 608.46293195 -2.74872393 614.12787533 -14.08369827 614.12304783 C-15.11578077 614.12503888 -16.14786326 614.12702993 -17.21122098 614.12908131 C-18.34350841 614.12616847 -19.47579585 614.12325563 -20.64239502 614.12025452 C-21.84637711 614.12110894 -23.05035921 614.12196337 -24.29082561 614.12284368 C-27.6338727 614.12420745 -30.97686142 614.12107666 -34.31990147 614.11606562 C-37.92450014 614.11175156 -41.52909698 614.11320823 -45.13369751 614.1139679 C-51.37930988 614.11449252 -57.6249118 614.1113521 -63.87052155 614.10573006 C-72.90065057 614.09760679 -81.93077455 614.09499899 -90.96090683 614.09374207 C-105.61131054 614.09155285 -120.26170869 614.08489629 -134.91210938 614.07543945 C-149.14453097 614.06626197 -163.37695105 614.05918278 -177.609375 614.05493164 C-178.48650081 614.05466892 -179.36362661 614.05440619 -180.26733199 614.05413551 C-184.66756639 614.05283048 -189.0678008 614.05156677 -193.46803522 614.05032361 C-229.97869509 614.03995505 -266.48934467 614.02151892 -303 614 C-303 588.59 -303 563.18 -303 537 C-294.94956299 536.9906543 -286.89912598 536.98130859 -278.60473633 536.97167969 C-252.81611241 536.93893887 -227.02756359 536.88663015 -201.23900085 536.82207905 C-197.23005366 536.81206216 -193.22110607 536.80221794 -189.2121582 536.79248047 C-188.41408348 536.7905391 -187.61600876 536.78859772 -186.79374995 536.78659752 C-173.8888831 536.7556168 -160.98403402 536.73860786 -148.079137 536.72680578 C-134.82736829 536.71437383 -121.57569247 536.68682642 -108.32398242 536.64538693 C-100.15372854 536.62030989 -91.98362882 536.60687847 -83.81333592 536.60857043 C-78.20282273 536.60860029 -72.59246601 536.59388471 -66.98201386 536.56783572 C-63.74998711 536.5532569 -60.51834317 536.54712222 -57.28628159 536.55419731 C-39.02981865 536.58882672 -24.71006135 536.0760993 -10.3125 523.6875 C-1.40194928 513.33199511 3.16323649 502.52511314 3.13142776 488.8538866 C3.1334804 488.03394048 3.13553303 487.21399436 3.13764787 486.36920139 C3.14332148 483.6099549 3.14186017 480.85075827 3.14044189 478.09150696 C3.14302532 476.09791465 3.14603842 474.10432285 3.1494453 472.11073178 C3.15752116 466.62297035 3.15930519 461.135222 3.16004276 455.64745533 C3.16189229 449.73250103 3.1694391 443.81755353 3.17617798 437.90260315 C3.19047449 424.28988544 3.19628832 410.67716873 3.20086992 397.06444507 C3.2032062 390.33698536 3.20680888 383.60952649 3.2105653 376.88206744 C3.2234003 353.85143714 3.23411966 330.82080732 3.2375679 307.79017353 C3.23778953 306.34458503 3.23801132 304.89899652 3.23823325 303.45340801 C3.23845389 302.00433758 3.23867438 300.55526714 3.2388947 299.1061967 C3.23933725 296.19913439 3.23978437 293.29207208 3.24023438 290.38500977 C3.24034377 289.66422792 3.24045316 288.94344608 3.24056586 288.20082237 C3.24419653 264.82924535 3.26011719 241.45769934 3.28342474 218.0861342 C3.3080242 193.37391561 3.32174079 168.66171476 3.32293582 143.94948357 C3.32310727 141.23637942 3.3233227 138.52327527 3.32357025 135.81017113 C3.3236539 134.80811398 3.3236539 134.80811398 3.32373925 133.78581325 C3.32481836 123.70362964 3.33412485 113.62147476 3.34775543 103.53930092 C3.36314576 92.06994196 3.36828316 80.60063616 3.36001733 69.13126884 C3.35610711 63.27896011 3.35705872 57.42675848 3.37107468 51.57446289 C3.38379095 46.21586846 3.38263595 40.85746186 3.37048396 35.49886777 C3.36852304 33.56143446 3.37162361 31.62398794 3.38032833 29.68657319 C3.58892915 17.01911178 3.58892915 17.01911178 0.64333034 4.7933957 C0 3 0 3 0 0 Z " fill="#0E3520" transform="translate(559,256)"/>
<path d="M0 0 C24.09 0 48.18 0 73 0 C75.33835937 4.68832031 77.67671875 9.37664062 80.0859375 14.20703125 C81.58961721 17.2195146 83.09342007 20.23193526 84.59765625 23.24414062 C86.97269703 28.00014471 89.34733769 32.75634492 91.71923828 37.51391602 C102.56592076 59.31939065 102.56592076 59.31939065 113.80232239 80.92533875 C117.59412333 88.06127258 121.09659571 95.32654079 124.5625 102.625 C125.4820724 104.55636759 126.40274767 106.4871864 127.32591248 108.4168396 C128.13979754 110.11865015 128.95002814 111.82220705 129.76000977 113.52587891 C130.77946019 115.88456998 130.77946019 115.88456998 132 117 C132.26514404 116.42894531 132.53028809 115.85789062 132.8034668 115.26953125 C142.25113432 95.00928707 152.83802074 75.49528782 163.90478516 56.08178711 C169.1773455 46.78493205 174.19436882 37.35620326 179.1809082 27.90380859 C183.97455936 18.83960706 188.9677452 9.94623075 194 1 C216.11 1 238.22 1 261 1 C256.50340136 9.99319728 256.50340136 9.99319728 254.2578125 13.56640625 C253.75636719 14.36949219 253.25492187 15.17257812 252.73828125 16 C252.20589844 16.845625 251.67351562 17.69125 251.125 18.5625 C249.9601312 20.42788215 248.79609791 22.29378626 247.6328125 24.16015625 C247.0337207 25.12066895 246.43462891 26.08118164 245.81738281 27.07080078 C242.84556654 31.86067875 239.92334555 36.68044134 237 41.5 C232.00769225 49.72234051 226.96826821 57.91364098 221.89453125 66.0859375 C217.89460869 72.53617582 213.9393787 79.01263464 210 85.5 C205.53392589 92.8547269 201.03844672 100.18970852 196.5 107.5 C191.81910106 115.04132851 187.17659414 122.60510325 182.5625 130.1875 C181.9953125 131.11949219 181.428125 132.05148437 180.84375 133.01171875 C179.75896026 134.79662102 178.67951163 136.58478256 177.60595703 138.37646484 C176.50179738 140.18025013 175.35963798 141.96114665 174.18701172 143.72119141 C173.61869629 144.59308105 173.05038086 145.4649707 172.46484375 146.36328125 C171.94398193 147.13583252 171.42312012 147.90838379 170.88647461 148.7043457 C169.74371759 150.99714753 169.74371759 150.99714753 170.64355469 153.44995117 C172.09324798 156.1753015 173.60960928 158.8145264 175.23828125 161.4375 C175.88692139 162.48655518 176.53556152 163.53561035 177.20385742 164.61645508 C177.89970947 165.7330249 178.59556152 166.84959473 179.3125 168 C180.03853152 169.17124242 180.7641945 170.34271335 181.48950195 171.5144043 C182.95866485 173.88640813 184.42998084 176.25705302 185.90332031 178.62646484 C187.77012325 181.63013077 189.63260892 184.63638944 191.4921875 187.64453125 C194.13313639 191.91659586 196.77753052 196.18651063 199.42333984 200.45556641 C202.66163266 205.68156327 205.89664306 210.90959293 209.13232422 216.13720703 C211.80203244 220.45018186 214.47242352 224.76273007 217.14453125 229.07421875 C222.39365939 237.54576895 227.63195014 246.02370845 232.84887695 254.51513672 C238.91197155 264.38236838 244.99475386 274.23681848 251.125 284.0625 C251.72812012 285.03098877 252.33124023 285.99947754 252.95263672 286.99731445 C256.1732609 292.14950099 259.46594546 297.22744172 262.92919922 302.22045898 C264 304 264 304 264 306 C240.57 306 217.14 306 193 306 C179.32893319 280.93637751 179.32893319 280.93637751 173.68847656 270.26806641 C171.89299741 266.8724212 170.09278604 263.47928475 168.29296875 260.0859375 C167.93069183 259.40271423 167.56841492 258.71949097 167.19515991 258.01556396 C163.64995229 251.33304067 160.07709369 244.66551077 156.5 238 C151.27883104 228.26659661 146.07556772 218.52386996 140.89086914 208.77099609 C140.13835256 207.35549839 139.38559103 205.94013088 138.63256836 204.52490234 C137.58237853 202.5508755 136.53321607 200.57630624 135.484375 198.6015625 C134.88334961 197.47057129 134.28232422 196.33958008 133.66308594 195.17431641 C132.07032871 192.13423574 130.52390401 189.07508276 129 186 C127.00023464 188.99964804 125.34239925 192.03651774 123.65625 195.22265625 C122.98546523 196.48683354 122.31464685 197.75099299 121.64379883 199.01513672 C121.11902451 200.0060733 121.11902451 200.0060733 120.58364868 201.01702881 C115.36260742 210.87215037 110.11251365 220.70536905 104.65820312 230.43383789 C101.21148283 236.59003134 97.85200178 242.79180026 94.5 249 C90.32575992 256.72890893 86.11227474 264.43247192 81.82617188 272.09985352 C77.5705935 279.73135107 73.42738367 287.42356392 69.2890625 295.11914062 C68.49628906 296.58963867 68.49628906 296.58963867 67.6875 298.08984375 C67.21699219 298.96503662 66.74648437 299.84022949 66.26171875 300.74194336 C65 303 65 303 63 306 C60.0640564 306.36076355 60.0640564 306.36076355 56.25537109 306.34057617 C55.56257553 306.34101425 54.86977997 306.34145233 54.1559906 306.34190369 C51.86152149 306.33981032 49.56777926 306.31645468 47.2734375 306.29296875 C45.68446248 306.28737471 44.09548229 306.28310371 42.50650024 306.28010559 C38.32077797 306.26864158 34.13536714 306.23916131 29.94976807 306.20599365 C25.68009657 306.17532611 21.41037484 306.16160737 17.140625 306.14648438 C8.76027361 306.11429284 0.38017553 306.06307803 -8 306 C-6.75378109 302.81648625 -5.47530377 299.94325153 -3.63671875 297.05859375 C-3.16911133 296.32108887 -2.70150391 295.58358398 -2.21972656 294.82373047 C-1.7140918 294.03627441 -1.20845703 293.24881836 -0.6875 292.4375 C-0.15479492 291.60105957 0.37791016 290.76461914 0.92675781 289.90283203 C5.1980395 283.21132382 9.5233424 276.55488302 13.8605957 269.90600586 C18.27884624 263.12840041 22.64515735 256.3184868 27 249.5 C33.45386627 239.39769376 39.96468102 229.33421476 46.50927734 219.29052734 C50.24573387 213.54938174 53.96031851 207.79404158 57.67919922 202.04150391 C58.9734554 200.04102883 60.26961316 198.04180003 61.56640625 196.04296875 C62.44022051 194.69538793 63.31391694 193.3477307 64.1875 192 C64.62271973 191.32855957 65.05793945 190.65711914 65.50634766 189.96533203 C68.40160063 185.49085016 71.27735986 181.00425008 74.14453125 176.51171875 C74.68354317 175.66747849 74.68354317 175.66747849 75.23344421 174.80618286 C77.02640328 171.99772725 78.81764727 169.18821902 80.60620117 166.37695312 C81.26209229 165.34892578 81.9179834 164.32089844 82.59375 163.26171875 C83.17833984 162.34350342 83.76292969 161.42528809 84.36523438 160.47924805 C86 158 86 158 87.77539062 155.92114258 C89.19057281 154.11388784 89.19057281 154.11388784 88.89306641 152.1159668 C87.70922123 149.31104986 86.26040162 146.76677982 84.7109375 144.14453125 C84.37603302 143.5748613 84.04112854 143.00519135 83.69607544 142.41825867 C82.59396487 140.54672305 81.48459973 138.67960354 80.375 136.8125 C79.59926066 135.49890379 78.82387451 134.18509894 78.04882812 132.87109375 C72.63397304 123.7031318 67.15862638 114.57145255 61.66308594 105.45166016 C56.91884281 97.56744108 52.26271871 89.63455624 47.625 81.6875 C41.67131353 71.48659771 35.60689683 61.36072136 29.45013428 51.28121948 C23.04568337 40.79115773 16.8013911 30.21221785 10.61914062 19.58984375 C7.81650283 14.77987451 5.01881189 9.98487922 2.015625 5.296875 C0 2 0 2 0 0 Z " fill="#FDFEFD" transform="translate(154,359)"/>
<path d="M0 0 C35.31 0 70.62 0 107 0 C107 84.48 107 168.96 107 256 C73.34 256 39.68 256 5 256 C4.98541748 248.72146973 4.97083496 241.44293945 4.95581055 233.94384766 C4.90701932 210.63670431 4.84360085 187.32962422 4.77101372 164.02254388 C4.75974599 160.40028351 4.74860747 156.77802274 4.73754883 153.15576172 C4.73534514 152.43465605 4.73314146 151.71355038 4.730871 150.97059302 C4.69552993 139.30527961 4.67064781 127.63996627 4.64965298 115.97461922 C4.62786548 103.99865677 4.59478712 92.0227636 4.55129844 80.0468601 C4.52720308 73.32280269 4.50826902 66.5988141 4.50238609 59.8747139 C4.49633436 53.54312848 4.47633074 47.211739 4.44572449 40.88022614 C4.43694579 38.55913275 4.43322133 36.23801376 4.43499184 33.91690445 C4.43664919 30.74097807 4.41990524 27.56564573 4.39872742 24.38980103 C4.40357499 23.47731995 4.40842257 22.56483888 4.41341704 21.62470686 C4.34404262 15.29441698 2.99873077 9.97780416 1 4 C0.67 2.68 0.34 1.36 0 0 Z " fill="#107C41" transform="translate(584,256)"/>
<path d="M0 0 C0.33 0 0.66 0 1 0 C1.07661597 7.18580222 1.12883556 14.3714975 1.16479492 21.55761719 C1.17979978 23.9977614 1.20021015 26.43787902 1.22631836 28.87792969 C1.26306851 32.40306192 1.27981002 35.92783488 1.29296875 39.453125 C1.30845261 40.5286261 1.32393646 41.6041272 1.33988953 42.71221924 C1.3429573 56.7947966 -2.58104086 69.40735482 -12.3125 79.875 C-20.56668939 87.46293195 -31.74872393 93.12787533 -43.08369827 93.12304783 C-44.11578077 93.12503888 -45.14786326 93.12702993 -46.21122098 93.12908131 C-47.34350841 93.12616847 -48.47579585 93.12325563 -49.64239502 93.12025452 C-50.84637711 93.12110894 -52.05035921 93.12196337 -53.29082561 93.12284368 C-56.6338727 93.12420745 -59.97686142 93.12107666 -63.31990147 93.11606562 C-66.92450014 93.11175156 -70.52909698 93.11320823 -74.13369751 93.1139679 C-80.37930988 93.11449252 -86.6249118 93.1113521 -92.87052155 93.10573006 C-101.90065057 93.09760679 -110.93077455 93.09499899 -119.96090683 93.09374207 C-134.61131054 93.09155285 -149.26170869 93.08489629 -163.91210938 93.07543945 C-178.14453097 93.06626197 -192.37695105 93.05918278 -206.609375 93.05493164 C-207.48650081 93.05466892 -208.36362661 93.05440619 -209.26733199 93.05413551 C-213.66756639 93.05283048 -218.0678008 93.05156677 -222.46803522 93.05032361 C-258.97869423 93.03995505 -295.48934632 93.02206526 -332 93 C-332 76.17 -332 59.34 -332 42 C-328.33895172 41.99413376 -324.67790344 41.98826752 -320.90591431 41.98222351 C-287.32025777 41.92702801 -253.73465797 41.85705932 -220.14906583 41.77101372 C-215.74569912 41.75974578 -211.34233209 41.74860729 -206.93896484 41.73754883 C-205.62403839 41.7342433 -205.62403839 41.7342433 -204.28254776 41.730871 C-190.09528706 41.69551495 -175.90802641 41.67064126 -161.72073801 41.64965298 C-147.15931471 41.62787745 -132.5979485 41.59481036 -118.03657377 41.55129844 C-109.05407286 41.52481193 -100.07164307 41.50709447 -91.08910505 41.50065396 C-84.9263893 41.49539089 -78.76376296 41.4791431 -72.60109515 41.45433434 C-69.04749515 41.44035077 -65.4940551 41.43113672 -61.94042587 41.43499184 C-58.08147186 41.43905109 -54.22282418 41.41994094 -50.36392212 41.39872742 C-49.24911173 41.40357499 -48.13430135 41.40842257 -46.98570883 41.41341704 C-33.36348666 41.2900305 -22.11551323 36.66378333 -12.140625 27.3515625 C-4.88275015 19.3784956 -1.77524634 10.48240698 0 0 Z " fill="#124529" transform="translate(588,777)"/>
<path d="M0 0 C40.30704913 -0.06785439 80.61408322 -0.1215479 120.921178 -0.15319599 C125.68247814 -0.156948 130.44377816 -0.16083097 135.20507812 -0.16479492 C136.1529459 -0.16558185 137.10081367 -0.16636878 138.07740471 -0.16717956 C153.41438316 -0.18022465 168.75132779 -0.20387356 184.08828619 -0.23145839 C199.83167479 -0.25953754 215.57504571 -0.27618157 231.31845832 -0.28226548 C241.02879809 -0.28637672 250.73904226 -0.29935017 260.44935259 -0.3237494 C267.11290465 -0.33963757 273.77640746 -0.34439339 280.43997708 -0.34050413 C284.28143469 -0.33858738 288.12272552 -0.34147422 291.96415329 -0.35761642 C296.1376888 -0.37502524 300.31087226 -0.3689373 304.48443604 -0.36076355 C306.28798723 -0.37387134 306.28798723 -0.37387134 308.12797379 -0.38724393 C322.81172368 -0.30973667 335.32866749 3.56580821 346 14 C353.43928056 23.28683815 358.17345358 32.26701388 358.0625 44.25 C358.05347656 45.51328125 358.04445313 46.7765625 358.03515625 48.078125 C358.01775391 49.52445313 358.01775391 49.52445313 358 51 C353.69530892 51.22352603 349.39373467 51.38623281 345.08496094 51.49438477 C343.62179723 51.53948228 342.15903561 51.60078644 340.69726562 51.67895508 C328.5242398 52.31331235 328.5242398 52.31331235 324.77880859 49.08618164 C323.26122032 46.78346364 322.14791994 44.50161907 321 42 C313.93926552 32.97427537 302.94929355 28.47218384 292 26 C287.89915314 25.59304373 283.83065742 25.58323739 279.71200562 25.60127258 C278.51106408 25.59462576 277.31012254 25.58797893 276.07278883 25.58113068 C272.76596181 25.5657877 269.45961839 25.56364783 266.15279078 25.56726015 C262.57689132 25.56788692 259.00106577 25.55123674 255.42520142 25.53674316 C249.23862527 25.51400529 243.05210525 25.50208039 236.86548996 25.49761391 C227.92082831 25.49114042 218.97626791 25.46818202 210.03164716 25.44127061 C195.51769441 25.39804743 181.00374593 25.36805518 166.48974609 25.34643555 C152.39532369 25.32541245 138.30093623 25.29812574 124.20654297 25.26245117 C123.33696749 25.26025235 122.46739202 25.25805352 121.57146578 25.25578807 C117.20882305 25.24471808 112.84618065 25.23352533 108.48353839 25.22227156 C72.32238769 25.12914976 36.16122231 25.05834184 0 25 C0 16.75 0 8.5 0 0 Z " fill="#1D925B" transform="translate(256,205)"/>
<path d="M0 0 C0.33 0 0.66 0 1 0 C1.66177691 17.4084094 0.06414659 30.36475361 -11.7265625 43.99609375 C-20.29541507 53.09316326 -30.99751997 57.76976145 -43.46360207 58.35993195 C-50.33460962 58.5447748 -57.20475158 58.49528968 -64.07739258 58.45410156 C-66.71968723 58.45297204 -69.36193744 58.45343331 -72.00422668 58.45587158 C-77.67189458 58.45795885 -83.33937685 58.44551577 -89.00699806 58.42292023 C-97.20117647 58.39027331 -105.39526603 58.37998031 -113.58950242 58.37496826 C-126.88727436 58.3662354 -140.1849476 58.33967465 -153.48266602 58.30175781 C-166.39249176 58.26498551 -179.30229059 58.23669937 -192.2121582 58.21972656 C-193.40780732 58.21815022 -193.40780732 58.21815022 -194.62761096 58.21654204 C-198.62682364 58.21132151 -202.62603651 58.20626677 -206.62524951 58.20129442 C-239.75024116 58.159895 -272.87510028 58.08839306 -306 58 C-306 49.42 -306 40.84 -306 32 C-301.0070153 31.99453156 -301.0070153 31.99453156 -295.91316223 31.98895264 C-265.35505101 31.95364027 -234.7970362 31.89856858 -204.23900085 31.82207905 C-200.23005366 31.81206216 -196.22110607 31.80221794 -192.2121582 31.79248047 C-191.41408348 31.7905391 -190.61600876 31.78859772 -189.79374995 31.78659752 C-176.8888831 31.7556168 -163.98403402 31.73860786 -151.079137 31.72680578 C-137.82736829 31.71437383 -124.57569247 31.68682642 -111.32398242 31.64538693 C-103.15372854 31.62030989 -94.98362882 31.60687847 -86.81333592 31.60857043 C-81.20282273 31.60860029 -75.59246601 31.59388471 -69.98201386 31.56783572 C-66.74998711 31.5532569 -63.51834317 31.54712222 -60.28628159 31.55419731 C-42.02981865 31.58882672 -27.71006135 31.0760993 -13.3125 18.6875 C-10.16095008 15.02488793 -7.60029203 11.06474222 -5 7 C-1.16969697 1.16969697 -1.16969697 1.16969697 0 0 Z " fill="#0B2B1A" transform="translate(562,761)"/>
<path d="M0 0 C8.25 0 16.5 0 25 0 C29.22587145 8.4517429 30.29917771 14.90130399 30.24050903 24.14929199 C30.24221788 25.14434706 30.24392673 26.13940213 30.24568737 27.16461039 C30.24897004 30.48416351 30.23799864 33.80351251 30.22705078 37.12304688 C30.2264864 39.50843298 30.22680375 41.89381942 30.22793579 44.27920532 C30.22844978 50.07475799 30.21979352 55.87024428 30.20706047 61.6657818 C30.1927351 68.41242296 30.18976768 75.15905484 30.18748413 81.90570909 C30.18311239 93.93617682 30.16981744 105.96661734 30.15087891 117.99707031 C30.13250661 129.68001164 30.11835672 141.36294557 30.10986328 153.04589844 C30.10933783 153.76664958 30.10881239 154.48740072 30.10827102 155.22999281 C30.10566085 158.84597293 30.10313345 162.4619531 30.10064721 166.07793331 C30.07993093 196.05197515 30.04416722 226.02598297 30 256 C21.75 256 13.5 256 5 256 C5 334.21 5 412.42 5 493 C4.67 493 4.34 493 4 493 C3.99902319 491.98813177 3.99804638 490.97626354 3.99703997 489.93373263 C3.95379062 445.3352361 3.90683838 400.7367446 3.84101868 356.13827515 C3.84002311 355.4629817 3.83902754 354.78768825 3.83800181 354.09193136 C3.81634283 339.41567438 3.7940201 324.73941848 3.77101372 310.06316356 C3.75973529 302.8658397 3.74860352 295.66851561 3.73754883 288.47119141 C3.73589498 287.39686605 3.73589498 287.39686605 3.73420772 286.30083716 C3.6985448 263.0898718 3.67256458 239.87890788 3.65161031 216.66792497 C3.63002432 192.81386988 3.59866042 168.95984712 3.55500887 145.10582171 C3.54884671 141.73592655 3.54279622 138.3660312 3.53681374 134.99613571 C3.53504241 134.00127871 3.53504241 134.00127871 3.53323531 132.98632359 C3.51336553 121.65533111 3.50561274 110.32435955 3.50065396 98.99335305 C3.49540224 88.92004523 3.47919242 78.84679237 3.45433434 68.77351399 C3.4403121 62.95973334 3.43115129 57.14605112 3.43499184 51.3322525 C3.43840198 46.0085949 3.4280374 40.68514752 3.40676448 35.36153297 C3.40149613 33.43674512 3.40126217 31.51193544 3.40660437 29.58714779 C3.58487528 16.97256514 3.58487528 16.97256514 0.64223224 4.79755151 C0 3 0 3 0 0 Z " fill="#094826" transform="translate(559,256)"/>
<path d="M0 0 C10.23 0 20.46 0 31 0 C31 84.48 31 168.96 31 256 C22.42 256 13.84 256 5 256 C4.99413376 252.99041168 4.98826752 249.98082336 4.98222351 246.8800354 C4.92700984 219.260819 4.85703024 191.64167955 4.77101372 164.02254388 C4.75974599 160.40028351 4.74860747 156.77802274 4.73754883 153.15576172 C4.73534514 152.43465605 4.73314146 151.71355038 4.730871 150.97059302 C4.69552993 139.30527961 4.67064781 127.63996627 4.64965298 115.97461922 C4.62786548 103.99865677 4.59478712 92.0227636 4.55129844 80.0468601 C4.52720308 73.32280269 4.50826902 66.5988141 4.50238609 59.8747139 C4.49633436 53.54312848 4.47633074 47.211739 4.44572449 40.88022614 C4.43694579 38.55913275 4.43322133 36.23801376 4.43499184 33.91690445 C4.43664919 30.74097807 4.41990524 27.56564573 4.39872742 24.38980103 C4.40357499 23.47731995 4.40842257 22.56483888 4.41341704 21.62470686 C4.34404262 15.29441698 2.99873077 9.97780416 1 4 C0.67 2.68 0.34 1.36 0 0 Z " fill="#0E703B" transform="translate(584,256)"/>
<path d="M0 0 C32.62986355 -1.37693646 32.62986355 -1.37693646 46.5 10.375 C50.42201805 14.1999384 54.20373864 18.25999599 57 23 C57 23.66 57 24.32 57 25 C44.625 25.495 44.625 25.495 32 26 C30.02 22.7 28.04 19.4 26 16 C19.16469195 8.08607065 10.06547273 3.40696087 0 1 C0 0.67 0 0.34 0 0 Z " fill="#135E3B" transform="translate(526,231)"/>
</svg>
