<?xml version="1.0" encoding="UTF-8"?>
<svg version="1.1" xmlns="http://www.w3.org/2000/svg" width="512" height="512">
<path d="M0 0 C7.77008432 5.42157009 13.21347125 12.54190662 15 22 C15.88770273 31.84081878 14.50289332 39.21935802 10 48 C10.86044922 48.09474609 10.86044922 48.09474609 11.73828125 48.19140625 C31.96229614 51.10685604 52.1917576 61.28869397 68 74 C68.50982422 74.40444336 69.01964844 74.80888672 69.54492188 75.22558594 C82.10336294 85.24369408 92.43360462 96.33781446 101 110 C101.37898438 110.60295898 101.75796875 111.20591797 102.1484375 111.82714844 C113.76136582 130.62021785 122.07001038 153.50700468 122.14476013 175.79055786 C122.14828698 176.4366513 122.15181382 177.08274475 122.15544754 177.74841678 C122.16604386 179.89364606 122.16979962 182.03883078 122.17358398 184.18408203 C122.17989651 185.73050622 122.18666308 187.27692861 122.19384766 188.823349 C122.20847249 192.14520007 122.22021563 195.46704433 122.22979546 198.78891373 C122.24531428 204.05225101 122.26926504 209.31552938 122.29469299 214.5788269 C122.36571398 229.54307316 122.42555557 244.50735309 122.47680664 259.47167969 C122.50520915 267.74292733 122.5406436 276.0141162 122.58346039 284.28530204 C122.61006886 289.50599218 122.62807432 294.72661596 122.63949764 299.94736028 C122.64869599 303.21155737 122.6660911 306.47567457 122.68567657 309.7398243 C122.69307957 311.24048529 122.69722869 312.74116689 122.69767189 314.24184608 C122.70589816 329.66766918 123.71139603 343.22816953 133 356 C133.56847656 356.78761719 134.13695312 357.57523437 134.72265625 358.38671875 C142.24937739 367.02372809 154.98836198 373.35456424 166.33837891 374.16748047 C169.71683455 374.31448347 173.0834944 374.44766424 176.46557617 374.41015625 C180.77025048 374.45314478 182.49060058 374.6097237 186.0234375 377.31640625 C188 380 188 380 188.625 383.5 C187.83032314 387.95019042 186.49427442 389.19508894 183 392 C179.80712509 392.62674582 179.80712509 392.62674582 176.12054443 392.6292057 C175.09604824 392.64010651 175.09604824 392.64010651 174.05085516 392.65122753 C171.75697718 392.66950868 169.46476482 392.65211001 167.17089844 392.63491821 C165.51196817 392.64067823 163.85304427 392.64861855 162.19413376 392.65855443 C157.6314778 392.6794676 153.06934333 392.6690924 148.50668526 392.65362334 C143.58771315 392.64233199 138.66883208 392.65976152 133.74987793 392.67352295 C124.11207269 392.69578359 114.47446188 392.69094158 104.83664894 392.67645974 C97.00546291 392.66517862 89.17433147 392.66363172 81.34313965 392.66907883 C80.22956549 392.66984499 79.11599134 392.67061116 77.96867251 392.67140054 C75.70663482 392.67299913 73.44459715 392.67462019 71.18255949 392.6762635 C49.95965157 392.69052928 28.73685154 392.67411525 7.51396132 392.64726166 C-10.70559025 392.62492216 -28.92498256 392.62880205 -47.14453125 392.65185547 C-68.29026793 392.67859881 -89.43590999 392.68915591 -110.58166122 392.67379415 C-112.83548735 392.67220136 -115.08931349 392.67062951 -117.34313965 392.66907883 C-119.00663039 392.66792176 -119.00663039 392.66792176 -120.70372701 392.66674132 C-128.52764608 392.66241992 -136.35150525 392.66972034 -144.17541504 392.68147659 C-153.70712495 392.69548384 -163.23862892 392.69173904 -172.77031517 392.66507287 C-177.63577487 392.65191079 -182.50089093 392.64682297 -187.36634827 392.66331863 C-191.81753551 392.67818179 -196.26805952 392.67009047 -200.71918631 392.64343087 C-202.33216363 392.63783041 -203.94519662 392.64072133 -205.55813837 392.65280981 C-207.74641025 392.66795632 -209.93239324 392.65248799 -212.12054443 392.6292057 C-213.33711605 392.62839394 -214.55368767 392.62758218 -215.80712509 392.62674582 C-219.93592175 391.81628311 -221.42829222 390.26713221 -224 387 C-224.625 383.5 -224.625 383.5 -224 380 C-221.99869852 377.28281795 -220.42624467 375.3081588 -217.01806641 374.57177734 C-214.66972801 374.42464877 -212.35269534 374.41069862 -210 374.4375 C-195.0793488 374.11118646 -181.85914509 369.61783075 -171 359 C-159.37542842 345.17825665 -158.85103557 330.00625324 -158.8581543 312.71582031 C-158.85511727 311.18208212 -158.85159433 309.64834483 -158.84762573 308.11460876 C-158.83977393 304.82445427 -158.83460573 301.53431042 -158.83133507 298.24414825 C-158.82538023 293.02045959 -158.80879513 287.79683747 -158.78999329 282.57318115 C-158.78365657 280.77736286 -158.77733094 278.98154453 -158.77101612 277.18572617 C-158.76785031 276.28656967 -158.7646845 275.38741317 -158.76142275 274.4610095 C-158.71953844 262.31467581 -158.68642382 250.16837375 -158.67407227 238.02197266 C-158.66563617 229.80992041 -158.64294197 221.59803433 -158.6047166 213.38606524 C-158.58513926 209.05444192 -158.5724893 204.72306588 -158.57755089 200.39139557 C-158.61558041 160.19870029 -151.63842108 125.49542642 -125 94 C-124.33484375 93.19949219 -123.6696875 92.39898437 -122.984375 91.57421875 C-103.95810339 69.48260338 -77.34998439 54.43051913 -49 48 C-48.01 48 -47.02 48 -46 48 C-46.3609375 47.29617187 -46.721875 46.59234375 -47.09375 45.8671875 C-51.73648631 35.98847635 -52.77914795 26.71606471 -49.5 16.1875 C-45.69151866 7.11396026 -39.02185632 0.79867635 -30 -3 C-20.81931653 -6.10699986 -8.18460827 -5.0476504 0 0 Z M-31.3125 19.5625 C-34.22383696 23.76776449 -34.77462744 28.0049886 -34 33 C-32.20342054 37.45519481 -29.68778312 40.89541669 -25.625 43.5 C-20.99342213 45.41651498 -17.73978644 45.91669546 -12.921875 44.3046875 C-8.0636806 42.1634833 -5.54432617 39.78333319 -3 35 C-1.44582381 30.33747142 -1.45551198 26.51246673 -3.125 21.875 C-5.69321077 17.93707682 -8.74225165 15.12887417 -13 13 C-21.08455584 12.11302535 -25.73176092 13.37843778 -31.3125 19.5625 Z " fill="#4EDAA4" transform="translate(274,36)"/>
<path d="M0 0 C2.66206528 1.04377987 5.00277066 2.09676421 7.5 3.4375 C8.53930664 3.97938965 8.53930664 3.97938965 9.59960938 4.53222656 C11.74603508 5.66587465 13.87522381 6.82632823 16 8 C16.64066406 8.35271973 17.28132813 8.70543945 17.94140625 9.06884766 C55.99703611 30.31127779 85.55120624 63.08278777 105.5625 101.5 C105.90949951 102.14638428 106.25649902 102.79276855 106.61401367 103.45874023 C108.80830334 107.80175754 109.47566076 111.16015174 109 116 C106.84524379 119.27522945 105.3358577 119.90229594 101.5625 121 C98 121 98 121 95.6015625 119.61328125 C91.95685247 115.9521536 90.06317968 111.79794113 87.8125 107.1875 C79.10625322 89.98360131 68.20648657 75.06430971 55 61 C54.50790039 60.47390137 54.01580078 59.94780273 53.50878906 59.40576172 C36.26038264 41.11695846 15.85886587 27.69805526 -6.56640625 16.5 C-9.15423565 14.90493341 -10.50065927 13.63397696 -12 11 C-11.93108944 7.14100853 -11.52415508 4.78623262 -9.375 1.5625 C-6.04600704 -0.62762695 -3.95145361 -0.32322729 0 0 Z " fill="#12BE9E" transform="translate(369,34)"/>
<path d="M0 0 C3.74093467 2.07829704 4.79149259 3.32541719 6.0625 7.4375 C5.98284491 11.97784022 5.20289386 12.81142608 2 16 C-1.22491432 17.99299181 -4.5983701 19.64411836 -8 21.3125 C-16.08639744 25.41831463 -23.67217498 29.62903734 -31 35 C-32.051875 35.76828125 -33.10375 36.5365625 -34.1875 37.328125 C-41.91388693 43.07549653 -49.04494458 49.34897784 -56 56 C-57.39025391 57.31097656 -57.39025391 57.31097656 -58.80859375 58.6484375 C-74.54666787 73.87307091 -86.23813092 92.14808811 -96.296875 111.48876953 C-96.72355469 112.29427246 -97.15023437 113.09977539 -97.58984375 113.9296875 C-97.95972412 114.64366699 -98.32960449 115.35764648 -98.71069336 116.09326172 C-100.23248151 118.34381379 -101.67315827 119.60296104 -104 121 C-107.85899147 120.93108944 -110.21376738 120.52415508 -113.4375 118.375 C-115.54298785 115.17465846 -115.65717397 112.67535245 -115 109 C-113.50424742 105.17120469 -111.58948443 101.60654781 -109.625 98 C-109.0791626 96.9797876 -108.5333252 95.9595752 -107.97094727 94.90844727 C-103.45456959 86.58603736 -98.60421125 78.6309397 -93 71 C-92.57928223 70.42523926 -92.15856445 69.85047852 -91.72509766 69.25830078 C-74.8688592 46.49826141 -31.66808347 -3.05608078 0 0 Z " fill="#89F6AA" transform="translate(149,34)"/>
<path d="M0 0 C32.34 0 64.68 0 98 0 C92.96579039 15.10262884 86.09604084 24.85056962 71.9765625 32.5234375 C60.46639444 38.23320591 45.71611356 39.27303209 33.25 35.75 C31.81755194 35.20657128 30.39833707 34.62599973 29 34 C28.33484375 33.73316406 27.6696875 33.46632813 26.984375 33.19140625 C14.29283013 27.57015114 6.04875044 17.40527821 0.62890625 4.91015625 C0 3 0 3 0 0 Z " fill="#4DDAA4" transform="translate(207,443)"/>
<path d="M0 0 C3.38671875 1.6171875 3.38671875 1.6171875 6.6875 3.875 C7.58359985 4.48347778 7.58359985 4.48347778 8.49780273 5.10424805 C10.35067704 6.3782974 12.17784443 7.68246412 14 9 C14.55913086 9.4007373 15.11826172 9.80147461 15.69433594 10.21435547 C33.61025604 23.17968372 48.3903044 38.87132273 61 57 C61.66902344 57.94488281 62.33804688 58.88976562 63.02734375 59.86328125 C66.19955753 64.66265411 67.66156164 68.29863586 67.50390625 74.08984375 C66.86174503 76.5240828 65.97708403 77.46534037 64 79 C60.33728143 79.9495937 58.03901034 80.46196504 54.53125 78.90234375 C51.46135779 76.5951871 49.78426974 73.94131963 47.875 70.6875 C33.90104108 48.10717975 15.15387249 29.93451408 -7.828125 16.6328125 C-10.41631294 14.68701653 -11.61824905 12.91652969 -13 10 C-12.93611417 6.29462195 -12.79259706 3.98282035 -10.4375 1.0625 C-6.97063023 -0.44869964 -3.69546638 -0.48079099 0 0 Z " fill="#1EC39F" transform="translate(362,83)"/>
<path d="M0 0 C2.4375 1 2.4375 1 4 3 C4.90193423 5.72348766 5.41748455 8.15066792 5 11 C2.08322574 15.68608656 -1.72804982 17.88634468 -6.375 20.5625 C-14.70282783 25.5740203 -21.89859076 31.38681264 -29 38 C-29.53109375 38.49258301 -30.0621875 38.98516602 -30.609375 39.49267578 C-41.05264102 49.28646888 -49.56558182 60.16857979 -56.95776367 72.41943359 C-58.94191815 75.64596754 -60.70600835 78.06903938 -64 80 C-67.68818005 80.54930341 -69.53248818 80.23375591 -72.875 78.5625 C-75.51275011 75.38168369 -75.85111099 73.60993049 -75.60546875 69.546875 C-74.36360047 64.32301619 -71.13242584 60.2693804 -68 56 C-67.32453125 55.05125 -66.6490625 54.1025 -65.953125 53.125 C-51.84153393 33.7601889 -35.84320727 18.43127102 -16 5 C-15.28312012 4.51450684 -14.56624023 4.02901367 -13.82763672 3.52880859 C-13.13299316 3.0745752 -12.43834961 2.6203418 -11.72265625 2.15234375 C-10.80045288 1.54700806 -10.80045288 1.54700806 -9.85961914 0.92944336 C-6.41864706 -0.79036506 -3.78531359 -0.50470848 0 0 Z " fill="#7DF0A9" transform="translate(158,83)"/>
</svg>
