<?xml version="1.0" encoding="UTF-8"?>
<svg version="1.1" xmlns="http://www.w3.org/2000/svg" width="4096" height="4096">
<path d="M0 0 C1.89314935 1.76580746 3.77050829 3.39098443 5.78125 5.0078125 C8.20140912 7.08414212 9.57379758 8.67423676 11.23828125 11.3125 C13.1963874 13.63901272 14.04284346 14.37023139 17.09765625 14.73046875 C20.31138909 14.4742387 23.43082034 13.95457127 26.61328125 13.4375 C38.42449827 11.63900212 49.98882965 11.03425226 61.92578125 11.0625 C62.7970163 11.06304382 63.66825134 11.06358765 64.56588745 11.06414795 C127.34205953 11.24325258 183.88482076 37.23672648 227.84985352 81.36938477 C233.50043221 87.16331269 238.5888832 93.25037653 243.37939453 99.76806641 C244.56851114 101.37692659 245.79150914 102.96057508 247.015625 104.54296875 C282.286774 150.8856182 296.28554461 212.15424063 288.61328125 269.4375 C286.76908316 280.75249355 284.45388641 291.96616 281.17944336 302.95605469 C280.58376555 305.56686506 280.40510692 307.76926288 280.61328125 310.4375 C282.16054559 312.62610975 282.16054559 312.62610975 284.36328125 314.6875 C320.3341676 352.91008503 338.39403128 410.7253227 337.76171875 462.51171875 C336.80522604 487.80843376 333.30140698 512.5743858 324.61328125 536.4375 C324.33145996 537.2222168 324.04963867 538.00693359 323.75927734 538.81542969 C317.02461033 557.29764671 308.27124482 575.53594233 296.61328125 591.4375 C295.59041016 592.86642578 295.59041016 592.86642578 294.546875 594.32421875 C281.61244907 612.02517732 266.81343298 628.15370589 249.19482422 641.25732422 C247.78118172 642.31220965 246.38538069 643.39090714 244.9921875 644.47265625 C219.56287589 663.79258567 188.2293965 678.3532079 156.61328125 683.4375 C156.46826172 684.40042969 156.46826172 684.40042969 156.3203125 685.3828125 C151.19923808 707.50811746 138.10068211 729.42819842 124.61328125 747.4375 C124.17693359 748.02789063 123.74058594 748.61828125 123.29101562 749.2265625 C103.31762455 776.09447227 78.1118863 797.65098425 48.61328125 813.4375 C47.9387793 813.80423828 47.26427734 814.17097656 46.56933594 814.54882812 C28.2736458 824.42904667 8.8391955 830.82430574 -11.38671875 835.4375 C-12.48282471 835.69055908 -12.48282471 835.69055908 -13.60107422 835.94873047 C-70.4926452 848.65054961 -132.4435501 836.29098044 -181.453125 805.51171875 C-192.32165479 798.44079781 -202.39069082 790.58282292 -211.8828125 781.75390625 C-214.75387715 779.09783552 -217.71765925 776.56803211 -220.70703125 774.046875 C-222.37526028 772.44847881 -223.41407698 770.88301756 -224.63671875 768.9375 C-227.06828512 766.22217104 -227.06828512 766.22217104 -229.796875 766.21875 C-233.0299628 766.46242822 -236.18131017 766.94842556 -239.38671875 767.4375 C-251.2039213 769.21298693 -262.75806708 769.84075768 -274.69921875 769.8125 C-275.5704538 769.81195618 -276.44168884 769.81141235 -277.33932495 769.81085205 C-340.24912385 769.63136618 -396.69299224 743.54581838 -440.76660156 699.43041992 C-448.05802195 691.95866569 -454.37186035 683.95559173 -460.38671875 675.4375 C-460.82387207 674.8290625 -461.26102539 674.220625 -461.71142578 673.59375 C-495.459366 626.36993492 -510.36980024 565.6136478 -500.84960938 508.19824219 C-498.99865597 497.98205764 -496.92076286 487.87118723 -493.95288086 477.91674805 C-493.35685167 475.3067108 -493.17861862 473.10506769 -493.38671875 470.4375 C-494.93398309 468.24889025 -494.93398309 468.24889025 -497.13671875 466.1875 C-533.44097818 427.61067347 -551.06841386 369.7056732 -550.5390625 317.53515625 C-549.14552103 272.12413138 -536.34458741 226.51810247 -509.38671875 189.4375 C-508.36191406 188.00470703 -508.36191406 188.00470703 -507.31640625 186.54296875 C-494.78095568 169.40220032 -480.33811069 153.3076014 -463.38671875 140.4375 C-462.76909668 139.95990234 -462.15147461 139.48230469 -461.51513672 138.99023438 C-438.09569932 120.97269355 -400.22644236 97.4375 -369.38671875 97.4375 C-369.20109375 96.55964844 -369.20109375 96.55964844 -369.01171875 95.6640625 C-363.65710968 73.37550224 -350.91479478 51.71142836 -337.38671875 33.4375 C-336.9474707 32.84130859 -336.50822266 32.24511719 -336.05566406 31.63085938 C-316.07212882 4.75900397 -290.87353981 -16.74654325 -261.38671875 -32.5625 C-260.72816895 -32.9239209 -260.06961914 -33.2853418 -259.39111328 -33.65771484 C-178.66908135 -77.74992845 -70.25878309 -65.06797368 0 0 Z M-266.38671875 44.4375 C-267.73661721 45.58835861 -269.09062496 46.73441931 -270.44921875 47.875 C-301.40484703 75.13075239 -318.21233353 116.99481957 -321.38671875 157.4375 C-321.75084042 164.77485727 -321.73179262 172.1229022 -321.7565918 179.4675293 C-321.77079506 181.62776652 -321.78571341 183.78799914 -321.80128479 185.94822693 C-321.84802417 192.96935166 -321.8741271 199.99048618 -321.8984375 207.01171875 C-321.9078584 209.44008729 -321.917353 211.86845554 -321.92691994 214.2968235 C-321.96530623 224.38992413 -321.99853445 234.48301694 -322.01729107 244.57617474 C-322.04418123 259.00329096 -322.10208071 273.42951798 -322.20305604 287.85631245 C-322.27182466 298.02991653 -322.30624365 308.20328341 -322.31485587 318.37711459 C-322.32086111 324.44500907 -322.34186202 330.51198306 -322.39941978 336.57962608 C-322.45264138 342.27402972 -322.46338177 347.96692959 -322.44127464 353.66152382 C-322.44055677 355.75055905 -322.45526434 357.83966475 -322.48648453 359.9284668 C-323.14353485 370.5361202 -323.14353485 370.5361202 -319.41777134 379.97041607 C-317.09413871 381.55307373 -315.03405072 382.52606123 -312.38671875 383.4375 C-311.39808838 384.03812256 -310.40945801 384.63874512 -309.39086914 385.25756836 C-308.51422607 385.75909424 -307.63758301 386.26062012 -306.734375 386.77734375 C-305.2179541 387.64830688 -305.2179541 387.64830688 -303.67089844 388.53686523 C-302.60774414 389.14344971 -301.54458984 389.75003418 -300.44921875 390.375 C-298.73200468 391.36004659 -297.01479365 392.34509852 -295.29776001 393.33045959 C-293.52014977 394.35011722 -291.74179656 395.36847015 -289.96337891 396.38671875 C-285.29697056 399.0602332 -280.64063256 401.75110835 -275.98388672 404.44140625 C-271.71689697 406.90636313 -267.44768396 409.36745219 -263.17822266 411.828125 C-261.42229506 412.84046318 -259.66671076 413.8533973 -257.91162109 414.8671875 C-255.88363179 416.03846113 -253.85422751 417.20723124 -251.82421875 418.375 C-250.77105469 418.98214844 -249.71789062 419.58929687 -248.6328125 420.21484375 C-246.66655281 421.5171838 -246.66655281 421.5171838 -245.38671875 421.4375 C-245.38525219 420.13343799 -245.38378563 418.82937597 -245.38227463 417.48579693 C-245.34654461 386.50471058 -245.29026303 355.52373697 -245.2087978 324.5427397 C-245.19878078 320.72649156 -245.18893657 316.910243 -245.17919922 313.09399414 C-245.17628716 311.95441211 -245.17628716 311.95441211 -245.17331627 310.79180823 C-245.1423259 298.50314374 -245.1253239 286.21449791 -245.11352453 273.92580172 C-245.10109759 261.30910704 -245.07356145 248.69251002 -245.03210568 236.07587701 C-245.00701432 228.29562558 -244.99359827 220.51553618 -244.99528918 212.73524372 C-244.99532255 206.76140616 -244.97429734 200.7878286 -244.94555092 194.81405258 C-244.93704969 192.36921277 -244.93530347 189.92433843 -244.94091606 187.47949028 C-244.94757375 184.13299778 -244.92959146 180.78748023 -244.90570068 177.44108582 C-244.9134611 176.48093526 -244.92122152 175.5207847 -244.9292171 174.53153867 C-244.80826002 164.91456276 -242.15255253 156.24466976 -235.40869141 149.20751953 C-231.78093969 146.03181319 -227.77508805 143.71109688 -223.57421875 141.375 C-222.62063477 140.82827637 -221.66705078 140.28155273 -220.68457031 139.71826172 C-218.6432694 138.54911702 -216.59840063 137.38618313 -214.55029297 136.22900391 C-210.30893847 133.82716263 -206.09360472 131.38135078 -201.8762207 128.93774414 C-197.48936432 126.39833319 -193.09506987 123.87192743 -188.70117188 121.34472656 C-183.2602131 118.21385076 -177.82366627 115.07533458 -172.38671875 111.9375 C-170.22007377 110.68746242 -168.05340709 109.43746244 -165.88671875 108.1875 C-164.81421875 107.56875 -163.74171875 106.95 -162.63671875 106.3125 C-100.88671875 70.6875 -100.88671875 70.6875 -97.63232422 68.81005859 C-95.48019745 67.56838473 -93.32817802 66.32652478 -91.17626953 65.08447266 C-86.13640898 62.17583177 -81.09554383 59.26898102 -76.05072021 56.36895752 C-74.26922297 55.34474335 -72.48807553 54.31992349 -70.70703125 53.29492188 C-68.4759525 52.01116625 -66.24422302 50.72854061 -64.01171875 49.44726562 C-58.3980651 46.21548665 -52.85380437 42.91178702 -47.38671875 39.4375 C-69.28374086 15.2752687 -108.58325639 2.86752454 -140.27734375 0.5625 C-186.8240647 -1.30872496 -232.04304215 11.95695233 -266.38671875 44.4375 Z M-18.38671875 91.4375 C-19.28986816 91.93137207 -20.19301758 92.42524414 -21.12353516 92.93408203 C-34.6410981 100.36285286 -47.99081929 108.07538419 -61.296875 115.875 C-67.60242294 119.5696331 -73.92966311 123.22602681 -80.26171875 126.875 C-81.34187256 127.49753662 -82.42202637 128.12007324 -83.53491211 128.76147461 C-85.72468209 130.02326826 -87.9145423 131.28490534 -90.10449219 132.54638672 C-95.53331817 135.67430148 -100.95991156 138.80608448 -106.38671875 141.9375 C-108.55337458 143.18751879 -110.72004125 144.43751878 -112.88671875 145.6875 C-113.95921875 146.30625 -115.03171875 146.925 -116.13671875 147.5625 C-151.88671875 168.1875 -151.88671875 168.1875 -155.14160156 170.06518555 C-157.29214418 171.30597033 -159.44253667 172.54701535 -161.59277344 173.78833008 C-166.65049688 176.70769474 -171.70966368 179.62446209 -176.77429199 182.53182983 C-179.15595377 183.89924766 -181.53674895 185.26817039 -183.91748047 186.63720703 C-185.58997896 187.59814553 -187.26372211 188.55691672 -188.9375 189.515625 C-189.95714844 190.10214844 -190.97679687 190.68867187 -192.02734375 191.29296875 C-192.91969727 191.80496826 -193.81205078 192.31696777 -194.73144531 192.84448242 C-196.04580566 193.63302612 -196.04580566 193.63302612 -197.38671875 194.4375 C-198.417435 194.95627213 -199.44815125 195.47504425 -200.51010132 196.00953674 C-203.7598169 198.23531544 -203.7598169 198.23531544 -204.10824585 202.22137451 C-204.1256039 203.77352086 -204.10975681 205.32625151 -204.06787109 206.87792969 C-204.06874725 207.72707443 -204.06962341 208.57621918 -204.07052612 209.45109558 C-204.06634945 212.25479482 -204.01969578 215.05609441 -203.97265625 217.859375 C-203.96146434 219.80420627 -203.95292413 221.74905446 -203.94692993 223.69390869 C-203.92403118 228.81043276 -203.86509868 233.92593331 -203.79870605 239.04205322 C-203.73730623 244.26357171 -203.70991982 249.48525575 -203.6796875 254.70703125 C-203.61535667 264.95097031 -203.51296427 275.19415001 -203.38671875 285.4375 C-199.76533674 284.01957839 -196.42107887 282.43595838 -193.02734375 280.53125 C-192.00326416 279.95769775 -190.97918457 279.38414551 -189.92407227 278.79321289 C-188.83924561 278.18082764 -187.75441895 277.56844238 -186.63671875 276.9375 C-185.50999756 276.30384521 -184.38327637 275.67019043 -183.22241211 275.01733398 C-176.43154132 271.18749436 -169.67687129 267.30414399 -162.97143555 263.3269043 C-156.6594735 259.58445337 -150.30730274 255.91346521 -143.94921875 252.25 C-142.84199463 251.61199463 -141.73477051 250.97398926 -140.59399414 250.31665039 C-138.32334807 249.00860523 -136.05259517 247.70074552 -133.78173828 246.39306641 C-128.31501895 243.24417946 -122.85096988 240.09066736 -117.38671875 236.9375 C-115.22006564 235.6874765 -113.05339896 234.43747653 -110.88671875 233.1875 C-109.27796875 232.259375 -109.27796875 232.259375 -107.63671875 231.3125 C-71.88671875 210.6875 -71.88671875 210.6875 -68.63623047 208.81225586 C-66.47114804 207.56314482 -64.30610893 206.31395871 -62.14111328 205.06469727 C-56.70056169 201.92547691 -51.25924659 198.78759437 -45.81640625 195.65234375 C-35.1788734 189.523125 -24.55170529 183.37717466 -13.94921875 177.1875 C-12.96622803 176.61475342 -11.9832373 176.04200684 -10.97045898 175.4519043 C-6.2734607 172.71398515 -1.58414915 169.96453084 3.08984375 167.1875 C3.95037354 166.67993164 4.81090332 166.17236328 5.69750977 165.64941406 C7.29031884 164.70982774 8.87966993 163.7643409 10.46459961 162.81152344 C16.54891618 159.23697883 22.27809724 157.16027953 29.42578125 157.0625 C30.36035156 157.03414062 31.29492188 157.00578125 32.2578125 156.9765625 C41.96118745 158.30950574 50.42195096 163.96356707 58.73828125 168.8125 C59.97739263 169.52844881 61.21681885 170.24385296 62.45654297 170.95874023 C66.18075045 173.10926643 69.89756441 175.27234688 73.61328125 177.4375 C74.67546875 178.05544434 75.73765625 178.67338867 76.83203125 179.31005859 C81.76776454 182.18261084 86.69948899 185.06193768 91.62890625 187.9453125 C101.17151058 193.52179156 110.75385918 199.02961491 120.33105469 204.54638672 C125.75988067 207.67430148 131.18647406 210.80608448 136.61328125 213.9375 C138.77993708 215.18751879 140.94660375 216.43751878 143.11328125 217.6875 C147.44661458 220.1875 151.77994792 222.6875 156.11328125 225.1875 C157.18594238 225.80633057 158.25860352 226.42516113 159.36376953 227.06274414 C161.52885196 228.31185518 163.69389107 229.56104129 165.85888672 230.81030273 C171.29943831 233.94952309 176.74075341 237.08740563 182.18359375 240.22265625 C183.26825928 240.84785156 184.3529248 241.47304687 185.47045898 242.1171875 C187.63074123 243.3618716 189.79170023 244.60538195 191.95336914 245.84765625 C197.48644539 249.03279169 202.99633711 252.25215262 208.4765625 255.52734375 C210.13244385 256.51142212 210.13244385 256.51142212 211.82177734 257.51538086 C213.93269947 258.77194292 216.03873753 260.03675601 218.13916016 261.31079102 C219.07808105 261.86822998 220.01700195 262.42566895 220.984375 263 C221.8086499 263.49628906 222.6329248 263.99257812 223.48217773 264.50390625 C225.72816345 265.77160913 225.72816345 265.77160913 228.61328125 264.4375 C229.76040332 256.16454299 229.85685382 247.96442661 229.86328125 239.625 C229.86395599 238.84093781 229.86463074 238.05687561 229.86532593 237.24905396 C229.84911536 225.39670749 229.37451601 214.01165284 226.61328125 202.4375 C226.45230957 201.71997559 226.29133789 201.00245117 226.12548828 200.26318359 C219.08965002 169.53123685 202.74470005 141.69763386 180.61328125 119.4375 C179.8855249 118.70370117 179.8855249 118.70370117 179.14306641 117.95507812 C147.83693189 86.82101095 105.2774093 71.12138874 61.52148438 70.42626953 C33.33565066 70.53511342 6.25923336 77.94300072 -18.38671875 91.4375 Z M-432.38671875 193.4375 C-433.2271875 194.15550781 -434.06765625 194.87351562 -434.93359375 195.61328125 C-467.55041521 224.12767641 -486.26069299 265.25079272 -490.01171875 308.0625 C-493.01145631 353.98575503 -477.31011274 397.90600135 -447.1484375 432.35546875 C-434.5563847 446.48796841 -420.13719796 457.77908868 -403.70214844 467.11914062 C-400.98748453 468.66481598 -398.28472891 470.23037092 -395.58203125 471.796875 C-389.99851099 475.0300463 -384.40725188 478.24958158 -378.81396484 481.46582031 C-373.33516087 484.61775227 -367.86107988 487.77786003 -362.38671875 490.9375 C-355.86442714 494.7012104 -349.34158107 498.46394625 -342.81640625 502.22265625 C-332.36465676 508.24497329 -321.92372327 514.28419337 -311.51171875 520.375 C-302.24341642 525.79572017 -292.93207512 531.13809683 -283.603302 536.45370483 C-275.35840469 541.1527687 -267.14125348 545.89669994 -258.94921875 550.6875 C-257.98000488 551.25154541 -257.01079102 551.81559082 -256.01220703 552.39672852 C-251.134062 555.23648523 -246.27414724 558.10178193 -241.4375 561.01171875 C-239.54570811 562.13304062 -237.65378655 563.25414375 -235.76171875 564.375 C-234.90263916 564.9019043 -234.04355957 565.42880859 -233.15844727 565.97167969 C-232.35463623 566.44379883 -231.5508252 566.91591797 -230.72265625 567.40234375 C-230.0270459 567.8212085 -229.33143555 568.24007324 -228.61474609 568.67163086 C-224.63046701 570.04119951 -221.43806681 568.93340066 -217.73144531 567.18505859 C-216.8390918 566.65734863 -215.94673828 566.12963867 -215.02734375 565.5859375 C-214.00713135 564.98942383 -212.98691895 564.39291016 -211.93579102 563.77832031 C-210.84709717 563.12959961 -209.75840332 562.48087891 -208.63671875 561.8125 C-207.4848695 561.1354126 -206.33243326 560.45932289 -205.17944336 559.78417969 C-202.78060066 558.37850264 -200.3843473 556.96855341 -197.98974609 555.55566406 C-192.33405124 552.22398996 -186.63887924 548.96068439 -180.94921875 545.6875 C-178.80718475 544.4494037 -176.66525566 543.21112589 -174.5234375 541.97265625 C-170.5363285 539.67020586 -166.53925446 537.38696135 -162.53125 535.12109375 C-161.63656006 534.61223633 -160.74187012 534.10337891 -159.82006836 533.57910156 C-158.15638861 532.63350784 -156.48938867 531.69372384 -154.81860352 530.76074219 C-152.97485168 529.7090492 -151.17472918 528.58139583 -149.38671875 527.4375 C-149.38671875 526.7775 -149.38671875 526.1175 -149.38671875 525.4375 C-149.95777344 525.11700684 -150.52882813 524.79651367 -151.1171875 524.46630859 C-163.20046157 517.67787143 -175.23232523 510.81061092 -187.19384766 503.80981445 C-197.80318664 497.60153197 -208.45300378 491.46421226 -219.10449219 485.32861328 C-224.53331817 482.20069852 -229.95991156 479.06891552 -235.38671875 475.9375 C-237.55337458 474.68748121 -239.72004125 473.43748122 -241.88671875 472.1875 C-263.55338542 459.6875 -285.22005208 447.1875 -306.88671875 434.6875 C-308.4965564 433.75877075 -308.4965564 433.75877075 -310.13891602 432.8112793 C-312.2983127 431.5654423 -314.45765544 430.31951182 -316.61694336 429.07348633 C-323.275528 425.23131865 -329.93614013 421.3926958 -336.59838867 417.55688477 C-339.87147976 415.66981957 -343.14095956 413.77661413 -346.41015625 411.8828125 C-350.10752473 409.74297373 -353.81756816 407.63129643 -357.55078125 405.5546875 C-367.51746867 399.96333938 -375.68974877 394.73379715 -379.38671875 383.4375 C-380.33644014 378.0877688 -380.53839016 372.92032976 -380.54493713 367.50941467 C-380.5523441 366.19574823 -380.5523441 366.19574823 -380.5599007 364.85554308 C-380.57520562 361.9337265 -380.58361725 359.01193179 -380.59204102 356.09008789 C-380.60162505 353.99055796 -380.61163544 351.89102993 -380.62203979 349.79150391 C-380.64903796 344.09996341 -380.67007505 338.40841467 -380.69004178 332.71684575 C-380.71193275 326.76575934 -380.73930621 320.81469821 -380.76609802 314.8636322 C-380.81598286 303.59805997 -380.8609373 292.33247367 -380.90412039 281.06687397 C-380.95352874 268.23985311 -381.00843353 255.41285763 -381.06379998 242.58586133 C-381.17755541 216.2030979 -381.28440845 189.82031012 -381.38671875 163.4375 C-397.90645322 163.4375 -420.39843469 183.04887961 -432.38671875 193.4375 Z M3.94140625 214.4453125 C2.81420166 215.09532227 1.68699707 215.74533203 0.52563477 216.41503906 C-0.69525255 217.13068401 -1.91603447 217.84650878 -3.13671875 218.5625 C-4.39938812 219.29469227 -5.66249595 220.02612889 -6.92602539 220.75683594 C-10.14114576 222.61903145 -13.35024159 224.49132654 -16.55718994 226.36755371 C-19.31477012 227.98024364 -22.07552308 229.58748006 -24.8359375 231.1953125 C-27.80623748 232.92663315 -30.77579634 234.65916584 -33.74316406 236.39550781 C-43.58165674 242.15097616 -53.47782103 247.80431667 -63.38671875 253.4375 C-63.38671875 254.0975 -63.38671875 254.7575 -63.38671875 255.4375 C-62.71842041 255.8092334 -62.05012207 256.1809668 -61.36157227 256.56396484 C-38.77722755 269.13773144 -38.77722755 269.13773144 -27.97265625 275.54760742 C-21.66000398 279.28974409 -15.30768109 282.96131678 -8.94921875 286.625 C-7.84199463 287.26300537 -6.73477051 287.90101074 -5.59399414 288.55834961 C-3.32334807 289.86639477 -1.05259517 291.17425448 1.21826172 292.48193359 C6.68498105 295.63082054 12.14903012 298.78433264 17.61328125 301.9375 C19.77993436 303.1875235 21.94660104 304.43752347 24.11328125 305.6875 C28.44661458 308.1875 32.77994792 310.6875 37.11328125 313.1875 C38.18594238 313.80633057 39.25860352 314.42516113 40.36376953 315.06274414 C42.52885196 316.31185518 44.69389107 317.56104129 46.85888672 318.81030273 C52.29943831 321.94952309 57.74075341 325.08740563 63.18359375 328.22265625 C74.66635022 334.83891117 86.13289026 341.48140011 97.57470703 348.16821289 C103.81522904 351.81269822 110.06683144 355.43726201 116.32885742 359.04467773 C118.50721683 360.30007211 120.68447623 361.55737728 122.8605957 362.81665039 C128.3362189 365.98405608 133.82495372 369.12319564 139.34375 372.21484375 C141.49609674 373.43489056 143.6484406 374.65494245 145.80078125 375.875 C146.78626953 376.41769531 147.77175781 376.96039062 148.78710938 377.51953125 C157.19701005 382.31850032 163.57569826 387.98724182 166.61328125 397.4375 C167.48783307 403.14213397 167.76446595 408.68362963 167.77149963 414.44787598 C167.77643761 415.32042448 167.78137559 416.19297297 167.7864632 417.09196234 C167.80174233 419.9968533 167.81017265 422.90172234 167.81860352 425.80664062 C167.82818959 427.89646597 167.83820009 429.9862894 167.84860229 432.07611084 C167.87557842 437.73660135 167.89662737 443.39710014 167.91660428 449.05761909 C167.93850892 454.97800317 167.96587566 460.89836194 167.99266052 466.81872559 C168.04252693 478.02405736 168.08748817 489.22940322 168.13068289 500.43476248 C168.18010704 513.19409319 168.23500594 525.95339852 168.29036248 538.71270466 C168.4040896 564.95427941 168.51094876 591.19587852 168.61328125 617.4375 C170.05698709 616.96392196 171.50004473 616.48836759 172.94282532 616.01197815 C173.74649693 615.74736566 174.55016855 615.48275316 175.37819386 615.21012211 C179.73600801 613.70371857 183.73375098 611.52618758 187.80078125 609.375 C188.72133301 608.88821777 189.64188477 608.40143555 190.59033203 607.89990234 C228.4690549 587.48023061 257.1814028 551.79581638 270.1171875 510.828125 C274.32772165 496.70123532 277.01548749 482.17685231 277.61328125 467.4375 C277.67515625 465.95830078 277.67515625 465.95830078 277.73828125 464.44921875 C278.61232362 421.45725988 262.5969354 378.07402308 232.90039062 346.83276367 C231.47707721 345.36211529 230.04537694 343.89959769 228.61328125 342.4375 C227.8553125 341.62925781 227.09734375 340.82101562 226.31640625 339.98828125 C208.68161836 321.54898661 184.89105366 309.90383276 162.93257141 297.45933533 C156.76637645 293.96257382 150.62578134 290.42185493 144.48828125 286.875 C143.42391846 286.26027832 142.35955566 285.64555664 141.26293945 285.01220703 C139.11886997 283.77378704 136.97490811 282.53518071 134.83105469 281.29638672 C129.4265748 278.17425395 124.01980713 275.05608796 118.61328125 271.9375 C116.44660375 270.68751878 114.27993708 269.43751879 112.11328125 268.1875 C111.04078125 267.56875 109.96828125 266.95 108.86328125 266.3125 C73.11328125 245.6875 73.11328125 245.6875 69.86035156 243.81079102 C67.70347222 242.56645002 65.54657133 241.32214636 63.38964844 240.07788086 C56.67515561 236.20440832 49.96141924 232.3296289 43.24853516 228.45336914 C41.02233925 227.16880305 38.79546987 225.88540328 36.56787109 224.60327148 C32.03687586 221.99531086 27.50904776 219.38443221 23.01171875 216.71875 C22.3578418 216.33452881 21.70396484 215.95030762 21.03027344 215.55444336 C19.40078679 214.59562145 17.77627907 213.6283506 16.15234375 212.66015625 C11.19869173 210.27478228 8.35359297 211.87924389 3.94140625 214.4453125 Z M-113.55078125 282.19140625 C-114.57703613 282.79090088 -115.60329102 283.39039551 -116.66064453 284.00805664 C-117.76649902 284.66539795 -118.87235352 285.32273926 -120.01171875 286 C-121.17638734 286.68377039 -122.34159872 287.36661702 -123.50732422 288.04858398 C-125.93145894 289.46765778 -128.3531998 290.89069718 -130.7734375 292.31640625 C-136.3296521 295.58441794 -141.92316523 298.78773516 -147.51171875 302 C-156.86075712 307.38883327 -166.19147162 312.80843571 -175.50634766 318.25610352 C-176.83738525 319.03425415 -176.83738525 319.03425415 -178.1953125 319.828125 C-179.50858521 320.64239456 -179.50858521 320.64239456 -180.84838867 321.47311401 C-183.50963715 323.04372097 -186.2035345 324.17951446 -189.08236694 325.2971344 C-198.44241259 329.21434399 -198.44241259 329.21434399 -204.45228004 336.95126724 C-206.10183973 344.54882147 -205.56471331 352.29719358 -205.2421875 360.01171875 C-205.20671143 362.5069604 -205.17968382 365.00233518 -205.16072083 367.49775696 C-205.08845873 374.03952967 -204.90213816 380.57317621 -204.69134521 387.11175537 C-204.48593119 393.79360004 -204.41006458 400.4779875 -204.31445312 407.16210938 C-204.11119862 420.25735697 -203.79101562 433.34699488 -203.38671875 446.4375 C-202.66718018 446.85261841 -201.9476416 447.26773682 -201.20629883 447.69543457 C-184.34375003 457.4238281 -184.34375003 457.4238281 -182.61131382 458.42331219 C-179.69082695 460.10821062 -176.77033631 461.79310252 -173.84983826 463.47798157 C-172.72046341 464.1295372 -171.59108856 464.78109283 -170.42749023 465.45239258 C-169.42056625 466.03330154 -168.41364227 466.61421051 -167.37620544 467.21272278 C-164.22467644 469.03098992 -161.07326859 470.84946693 -157.921875 472.66796875 C-153.47249068 475.23504997 -149.02181347 477.79987232 -144.5703125 480.36328125 C-142.88953613 481.33201172 -142.88953613 481.33201172 -141.17480469 482.3203125 C-138.96697797 483.59185595 -136.75801918 484.86143606 -134.54785156 486.12890625 C-129.72062769 488.90341134 -124.91913171 491.7016529 -120.1875 494.63671875 C-119.01973022 495.35347778 -119.01973022 495.35347778 -117.82836914 496.0847168 C-116.42136107 496.95318419 -115.02252066 497.83510732 -113.63452148 498.73364258 C-110.76730862 500.49573278 -108.78153263 501.43647184 -105.38671875 501.4453125 C-101.65369378 500.19124942 -98.46057113 498.37992726 -95.13671875 496.3125 C-93.62068718 495.39565302 -92.10369617 494.48039132 -90.5859375 493.56640625 C-89.75755371 493.06512207 -88.92916992 492.56383789 -88.07568359 492.04736328 C-83.0707352 489.05093785 -78.00643681 486.15701468 -72.94921875 483.25 C-70.70306586 481.9558318 -68.45697291 480.66155957 -66.2109375 479.3671875 C-63.9362275 478.0572403 -61.66148806 476.74734421 -59.38671875 475.4375 C-55.01121084 472.91754704 -50.63632476 470.39651824 -46.26171875 467.875 C-45.32400635 467.33528564 -44.38629395 466.79557129 -43.42016602 466.23950195 C-41.44277771 465.09975156 -39.48013838 463.93409572 -37.5316925 462.74554443 C-34.29448499 460.85025191 -30.9670126 459.36724991 -27.52407837 457.88194275 C-16.05001436 452.86043604 -16.05001436 452.86043604 -8.03765488 443.75343895 C-6.01831137 436.13515426 -6.62870076 428.36308685 -7.04296875 420.5703125 C-7.08780314 418.07942146 -7.12193277 415.58831692 -7.14587402 413.09713745 C-7.23699881 406.57776736 -7.47213881 400.07148792 -7.73876953 393.55725098 C-7.9855047 386.89519781 -8.0941366 380.23183102 -8.21484375 373.56640625 C-8.47129858 360.51788983 -8.87547028 347.47839424 -9.38671875 334.4375 C-10.10625732 334.02238159 -10.8257959 333.60726318 -11.56713867 333.17956543 C-28.42968749 323.45117188 -28.42968749 323.45117188 -30.16212368 322.45168781 C-33.08261055 320.76678938 -36.00310119 319.08189748 -38.92359924 317.39701843 C-40.05297409 316.7454628 -41.18234894 316.09390717 -42.34594727 315.42260742 C-43.35287125 314.84169846 -44.35979523 314.26078949 -45.39723206 313.66227722 C-48.54876106 311.84401008 -51.70016891 310.02553307 -54.8515625 308.20703125 C-59.30094682 305.63995003 -63.75162403 303.07512768 -68.203125 300.51171875 C-69.32380371 299.865979 -70.44448242 299.22023926 -71.59912109 298.55493164 C-73.80592706 297.28362999 -76.01327083 296.01326136 -78.22119141 294.74389648 C-83.05693575 291.9589031 -87.87855875 289.15707947 -92.65625 286.2734375 C-93.44378662 285.80010986 -94.23132324 285.32678223 -95.04272461 284.83911133 C-96.47142981 283.97692098 -97.89581385 283.10750803 -99.31469727 282.22924805 C-104.97502323 278.81626368 -107.94804754 278.88406344 -113.55078125 282.19140625 Z M32.61328125 359.4375 C32.60969872 361.38724511 32.60969872 361.38724511 32.60604382 363.37637901 C32.54864889 394.25135462 32.47589346 425.12625172 32.38429497 456.00114336 C32.37302719 459.80365905 32.36188867 463.6061751 32.35083008 467.40869141 C32.34862639 468.16568445 32.34642271 468.9226775 32.34415225 469.70260973 C32.30880718 481.94991105 32.28392731 494.19721231 32.26293423 506.44454567 C32.24114993 519.01715266 32.20807458 531.58969363 32.16457969 544.16224444 C32.13810821 551.91636849 32.12037971 559.67041033 32.11393521 567.42457731 C32.10804362 573.3765969 32.08642105 579.32849512 32.05900574 585.28045654 C32.05022389 587.7176547 32.04650323 590.15487727 32.04827309 592.59209061 C32.04992929 595.92565293 32.03319609 599.25864817 32.01200867 602.59213257 C32.01928003 604.03089125 32.01928003 604.03089125 32.02669829 605.49871576 C31.93515483 614.2565404 30.27209499 622.5211721 24.61328125 629.4375 C18.89610209 634.83150079 12.63360856 638.53688233 5.80078125 642.375 C4.0574058 643.36727694 2.31403683 644.35956552 0.57107544 645.35256958 C-1.22819701 646.3764697 -3.0292462 647.39718801 -4.83056641 648.41748047 C-10.36817759 651.55797635 -15.87569756 654.7506611 -21.38671875 657.9375 C-23.55324702 659.18773985 -25.71991409 660.43773922 -27.88671875 661.6875 C-28.95921875 662.30625 -30.03171875 662.925 -31.13671875 663.5625 C-66.88671876 684.1875 -66.88671876 684.1875 -70.13720703 686.06274414 C-72.30228946 687.31185518 -74.46732857 688.56104129 -76.63232422 689.81030273 C-82.07287581 692.94952309 -87.51419091 696.08740563 -92.95703125 699.22265625 C-104.42472763 705.83023369 -115.87994387 712.45782021 -127.30200195 719.14404297 C-132.70681021 722.30443986 -138.12548304 725.4384463 -143.5625 728.54296875 C-144.76501198 729.23105335 -145.96748626 729.91920384 -147.16992188 730.60742188 C-149.47694495 731.9277577 -151.78719702 733.24179182 -154.09960938 734.55273438 C-155.65905273 735.44508789 -155.65905273 735.44508789 -157.25 736.35546875 C-158.17079346 736.87906982 -159.09158691 737.4026709 -160.0402832 737.94213867 C-162.14413037 739.28290071 -163.7237948 740.59344165 -165.38671875 742.4375 C-134.22782704 770.79559246 -90.59736832 781.81421406 -49.38671875 780.4375 C-10.27444864 778.46261937 27.35273967 761.26606183 55.61328125 734.4375 C56.10940918 733.9739209 56.60553711 733.5103418 57.11669922 733.03271484 C88.25853597 703.78871856 106.16821828 662.95530688 108.61328125 620.4375 C108.83114221 613.37783959 108.8325003 606.31286784 108.86962891 599.25048828 C108.88410097 597.12054761 108.8988589 594.99060887 108.91387939 592.860672 C109.04338696 573.53505828 109.10987535 554.20889785 109.16172218 534.88293648 C109.2007313 520.6075668 109.26934898 506.33297912 109.37626994 492.057953 C109.44904027 482.0033607 109.4875417 471.94898318 109.50074804 461.89413822 C109.50961757 455.893209 109.53391426 449.89325244 109.59541702 443.89261246 C109.65254287 438.25657742 109.66736999 432.62201988 109.64954376 426.98573875 C109.65042379 424.91765815 109.66674188 422.84951815 109.69958878 420.78169823 C110.35784916 410.2626803 110.35784916 410.2626803 106.64531231 400.91649151 C104.32294374 399.33501878 102.25678692 398.35558239 99.61328125 397.4375 C98.62465088 396.83687744 97.63602051 396.23625488 96.61743164 395.61743164 C95.30246704 394.86514282 95.30246704 394.86514282 93.9609375 394.09765625 C92.94999023 393.51701416 91.93904297 392.93637207 90.89746094 392.33813477 C89.83430664 391.73155029 88.77115234 391.12496582 87.67578125 390.5 C85.95856718 389.51495341 84.24135615 388.52990148 82.52432251 387.54454041 C80.74671227 386.52488278 78.96835906 385.50652985 77.18994141 384.48828125 C72.52353306 381.8147668 67.86719506 379.12389165 63.21044922 376.43359375 C58.94345947 373.96863687 54.67424646 371.50754781 50.40478516 369.046875 C48.64885756 368.03453682 46.89327326 367.0216027 45.13818359 366.0078125 C43.11019429 364.83653887 41.08079001 363.66776876 39.05078125 362.5 C37.99761719 361.89285156 36.94445312 361.28570313 35.859375 360.66015625 C33.89311531 359.3578162 33.89311531 359.3578162 32.61328125 359.4375 Z M-16.35546875 498.19140625 C-17.90427734 499.09052734 -17.90427734 499.09052734 -19.484375 500.0078125 C-20.60714844 500.66523438 -21.72992187 501.32265625 -22.88671875 502 C-24.06223469 502.68404988 -25.23802022 503.36763667 -26.4140625 504.05078125 C-28.86042801 505.47232132 -31.30561338 506.89586082 -33.75 508.32080078 C-39.28476868 511.54507154 -44.83653207 514.7398703 -50.38671875 517.9375 C-52.55346685 519.18735884 -54.72013323 520.43735936 -56.88671875 521.6875 C-95.88671875 544.1875 -95.88671875 544.1875 -99.13720703 546.06274414 C-101.30228946 547.31185518 -103.46732857 548.56104129 -105.63232422 549.81030273 C-111.07287581 552.94952309 -116.51419091 556.08740563 -121.95703125 559.22265625 C-132.40878074 565.24497329 -142.84971423 571.28419337 -153.26171875 577.375 C-162.52704264 582.79397818 -171.83559163 588.13425887 -181.16107178 593.44866943 C-191.46121229 599.31998775 -201.71673023 605.26540831 -211.94921875 611.25390625 C-212.82771484 611.76767822 -213.70621094 612.2814502 -214.61132812 612.81079102 C-216.61462702 613.98496242 -218.61565026 615.16301938 -220.61523438 616.34350586 C-221.68451172 616.97264893 -222.75378906 617.60179199 -223.85546875 618.25 C-224.82935547 618.82492187 -225.80324219 619.39984375 -226.80664062 619.9921875 C-233.66924378 623.83649207 -240.68370568 624.27547285 -248.38671875 623.4375 C-256.64433291 620.79435618 -264.11775874 616.51187887 -271.51171875 612.0625 C-273.62066561 610.81307912 -275.73005612 609.56440686 -277.83984375 608.31640625 C-279.45729492 607.35565186 -279.45729492 607.35565186 -281.10742188 606.37548828 C-286.46763828 603.20772489 -291.86474412 600.1045842 -297.26171875 597 C-299.4466648 595.74097256 -301.63156041 594.48185758 -303.81640625 593.22265625 C-304.90147461 592.59762207 -305.98654297 591.97258789 -307.10449219 591.32861328 C-312.53331817 588.20069852 -317.95991156 585.06891552 -323.38671875 581.9375 C-325.55337458 580.68748121 -327.72004125 579.43748122 -329.88671875 578.1875 C-336.38671875 574.4375 -336.38671875 574.4375 -342.88671875 570.6875 C-343.95937988 570.06866943 -345.03204102 569.44983887 -346.13720703 568.81225586 C-348.30228946 567.56314482 -350.46732857 566.31395871 -352.63232422 565.06469727 C-358.07287581 561.92547691 -363.51419091 558.78759437 -368.95703125 555.65234375 C-378.45883735 550.17749357 -387.95731877 544.69762274 -397.42651367 539.16650391 C-399.38428258 538.0230054 -401.34276773 536.88073217 -403.30200195 535.73974609 C-408.12126939 532.93294199 -412.93432617 530.1165991 -417.73245239 527.27383423 C-420.13396488 525.85339888 -422.54029191 524.44125767 -424.94750977 523.03051758 C-426.6690972 522.01772029 -428.38442065 520.99429938 -430.09960938 519.97070312 C-431.13923828 519.36291016 -432.17886719 518.75511719 -433.25 518.12890625 C-434.17079346 517.58435791 -435.09158691 517.03980957 -436.0402832 516.47875977 C-438.46256809 515.08842282 -438.46256809 515.08842282 -441.38671875 516.4375 C-441.72824967 519.72836844 -442.05838521 523.02029077 -442.38671875 526.3125 C-442.48210937 527.2303125 -442.5775 528.148125 -442.67578125 529.09375 C-446.97237249 572.67346117 -431.81754942 615.90686399 -404.33129883 649.47119141 C-375.28001253 684.23420384 -334.55283624 705.24578309 -289.57421875 709.75 C-256.45304898 712.57883369 -223.44904373 705.59647888 -194.38671875 689.4375 C-193.48937012 688.94507812 -192.59202148 688.45265625 -191.66748047 687.9453125 C-178.14350215 680.51567828 -164.78783989 672.80267661 -151.4765625 665 C-145.17101456 661.3053669 -138.84377439 657.64897319 -132.51171875 654 C-130.89148804 653.06619507 -130.89148804 653.06619507 -129.23852539 652.11352539 C-127.04875541 650.85173174 -124.8588952 649.59009466 -122.66894531 648.32861328 C-117.24011933 645.20069852 -111.81352594 642.06891552 -106.38671875 638.9375 C-104.22006292 637.68748121 -102.05339625 636.43748122 -99.88671875 635.1875 C-98.81421875 634.56875 -97.74171875 633.95 -96.63671875 633.3125 C-60.88671875 612.6875 -60.88671875 612.6875 -57.63183594 610.80981445 C-55.48129332 609.56902967 -53.33090083 608.32798465 -51.18066406 607.08666992 C-46.12294062 604.16730526 -41.06377382 601.25053791 -35.99914551 598.34317017 C-33.61748373 596.97575234 -31.23668855 595.60682961 -28.85595703 594.23779297 C-27.18345854 593.27685447 -25.50971539 592.31808328 -23.8359375 591.359375 C-22.81628906 590.77285156 -21.79664063 590.18632812 -20.74609375 589.58203125 C-19.85374023 589.07003174 -18.96138672 588.55803223 -18.04199219 588.03051758 C-17.16575195 587.50482178 -16.28951172 586.97912598 -15.38671875 586.4375 C-14.3560025 585.91872787 -13.32528625 585.39995575 -12.26333618 584.86546326 C-9.0136206 582.63968456 -9.0136206 582.63968456 -8.66519165 578.65362549 C-8.6478336 577.10147914 -8.66368069 575.54874849 -8.70556641 573.99707031 C-8.70469025 573.14792557 -8.70381409 572.29878082 -8.70291138 571.42390442 C-8.70708805 568.62020518 -8.75374172 565.81890559 -8.80078125 563.015625 C-8.81197316 561.07079373 -8.82051337 559.12594554 -8.82650757 557.18109131 C-8.84940632 552.06456724 -8.90833882 546.94906669 -8.97473145 541.83294678 C-9.03613127 536.61142829 -9.06351768 531.38974425 -9.09375 526.16796875 C-9.15808083 515.92402969 -9.26047323 505.68084999 -9.38671875 495.4375 C-12.26331433 495.4375 -13.87430423 496.74354957 -16.35546875 498.19140625 Z " fill="#000000" transform="translate(967.38671875,1657.5625)"/>
<path d="M0 0 C2.99643673 2.70633079 5.92183989 5.47521478 8.8203125 8.28515625 C9.37960449 8.81866699 9.93889648 9.35217773 10.51513672 9.90185547 C60.35281111 57.53979802 81.26451971 126.47631434 82.94921875 193.94921875 C84.14521693 264.98270592 62.2509413 334.28330875 13.0078125 386.28515625 C6.98118471 392.44875286 0.63769118 398.01555514 -6.1796875 403.28515625 C-6.70981445 403.7023291 -7.23994141 404.11950195 -7.78613281 404.54931641 C-35.89279695 426.56321267 -69.93431878 440.84143449 -105.1796875 446.28515625 C-106.30777832 446.46248291 -107.43586914 446.63980957 -108.59814453 446.82250977 C-119.84289479 448.41946046 -130.95909361 448.64283218 -142.3046875 448.59765625 C-143.72967056 448.59492203 -143.72967056 448.59492203 -145.18344116 448.59213257 C-159.05878468 448.54729566 -172.55208635 448.10304836 -186.1796875 445.28515625 C-187.06736816 445.1135498 -187.95504883 444.94194336 -188.86962891 444.76513672 C-224.27485753 437.85212837 -258.28210845 422.55338147 -285.1796875 398.28515625 C-286.47318363 397.16316875 -287.76750997 396.04213792 -289.0625 394.921875 C-332.25995061 357.12474496 -355.95032276 304.2333053 -365.1796875 248.28515625 C-365.34484863 247.28871094 -365.51000977 246.29226563 -365.68017578 245.265625 C-376.2244412 178.00913163 -364.76871676 100.35357982 -325.08984375 43.890625 C-324.45949219 43.03082031 -323.82914063 42.17101563 -323.1796875 41.28515625 C-322.49777344 40.33253906 -321.81585937 39.37992188 -321.11328125 38.3984375 C-286.37241225 -9.14496999 -236.49602873 -39.33419688 -178.34765625 -48.69140625 C-115.26827116 -57.88951813 -48.59219774 -42.16767445 0 0 Z M-189.1796875 34.28515625 C-190.1689624 34.65616455 -190.1689624 34.65616455 -191.17822266 35.03466797 C-208.46606941 41.68833791 -222.2924524 52.0496175 -235.1796875 65.28515625 C-235.6746875 65.73503906 -236.1696875 66.18492188 -236.6796875 66.6484375 C-262.18361737 90.44029801 -274.03916084 128.90386124 -279.1796875 162.28515625 C-279.29828125 163.05134277 -279.416875 163.8175293 -279.5390625 164.60693359 C-287.11979154 216.64547983 -278.57700649 276.10334594 -247.08203125 319.15234375 C-245.17333336 321.58849493 -243.20705237 323.94711464 -241.1796875 326.28515625 C-240.11814453 327.52845703 -240.11814453 327.52845703 -239.03515625 328.796875 C-218.73317764 352.01437419 -189.3395069 368.87278314 -158.1796875 371.28515625 C-121.10951224 373.07578001 -87.52642405 366.0108637 -59.1171875 340.91015625 C-57.46512382 339.37516795 -55.81925157 337.83348862 -54.1796875 336.28515625 C-53.37917969 335.56070313 -52.57867188 334.83625 -51.75390625 334.08984375 C-20.77488835 304.93893376 -6.29327607 257.66574235 -4.97460938 216.0793457 C-4.8524269 210.43941672 -4.84569702 204.80114222 -4.8671875 199.16015625 C-4.86901031 198.16725586 -4.87083313 197.17435547 -4.87271118 196.15136719 C-4.91744267 181.683426 -5.26183893 167.50433048 -8.1796875 153.28515625 C-8.35129395 152.41713379 -8.52290039 151.54911133 -8.69970703 150.65478516 C-16.88644317 110.29176166 -36.23669475 70.88584244 -71.1796875 47.28515625 C-106.21464363 24.86170411 -150.09038202 19.57624316 -189.1796875 34.28515625 Z " fill="#000000" transform="translate(1811.1796875,1831.71484375)"/>
<path d="M0 0 C32.67 0 65.34 0 99 0 C102.34125 8.86875 105.6825 17.7375 109.125 26.875 C118.10091909 50.68937209 127.10810776 74.49160828 136.14038086 98.28466797 C141.66981487 112.8512871 147.18625122 127.42271424 152.6875 142 C158.60321648 157.67497956 164.54445488 173.34011082 170.5 189 C176.80030237 205.56641581 183.08167041 222.13979326 189.33984375 238.72216797 C195.54198576 255.15491875 201.76786439 271.578603 208 288 C214.57626337 305.32815815 221.1432902 322.65971026 227.6875 340 C234.00047321 356.72742593 240.34355782 373.44325524 246.69976807 390.15429688 C252.86804639 406.3720528 259.01055792 422.59936409 265.13131714 438.83511353 C268.48774645 447.73776208 271.84655989 456.63891052 275.28125 465.51171875 C275.52540146 466.14288605 275.76955292 466.77405334 276.02110291 467.42434692 C277.11231038 470.2427067 278.20813314 473.05914506 279.31079102 475.87304688 C279.67358154 476.80568359 280.03637207 477.73832031 280.41015625 478.69921875 C280.72090088 479.49158936 281.03164551 480.28395996 281.35180664 481.1003418 C282 483 282 483 282 485 C252.96 485 223.92 485 194 485 C191.0300072 477.87201729 188.09673138 470.78870755 185.390625 463.56640625 C185.06616898 462.70579086 184.74171295 461.84517548 184.40742493 460.95848083 C183.35305034 458.16053171 182.30153852 455.36151606 181.25 452.5625 C180.50925721 450.59561875 179.76828631 448.62882339 179.02709961 446.66210938 C177.47858644 442.55258647 175.93106429 438.44269247 174.38427734 434.33251953 C170.82627698 424.88005528 167.25806998 415.43144563 163.68908691 405.98312378 C162.5782794 403.04178276 161.46827792 400.10013857 160.35839844 397.15844727 C159.67775948 395.35562203 158.9970967 393.55280579 158.31640625 391.75 C157.85504021 390.52645058 157.85504021 390.52645058 157.38435364 389.27818298 C157.09839828 388.52122635 156.81244293 387.76426971 156.51782227 386.984375 C156.12386765 385.93926758 156.12386765 385.93926758 155.72195435 384.87304688 C155.10928026 383.283518 154.45533767 381.70999287 153.79272461 380.140625 C153 378 153 378 153 375 C84.03 375 15.06 375 -56 375 C-56.99 378.3 -57.98 381.6 -59 385 C-59.82577054 387.37583126 -60.67532096 389.74358235 -61.55273438 392.10083008 C-61.90727692 393.05727165 -61.90727692 393.05727165 -62.26898193 394.03303528 C-63.0408824 396.1130051 -63.81723567 398.19128 -64.59375 400.26953125 C-65.14628487 401.75509065 -65.69856604 403.24074444 -66.25061035 404.72648621 C-67.40865367 407.84124017 -68.56872747 410.95522696 -69.73046875 414.06860352 C-71.1841131 417.96429435 -72.63433205 421.86124754 -74.08320618 425.75871468 C-77.70872657 435.51083645 -81.34788801 445.25780568 -85 455 C-85.27245544 455.7268676 -85.54491089 456.4537352 -85.82562256 457.20262909 C-87.39704599 461.39298952 -88.9722529 465.58189619 -90.55293274 469.76877403 C-91.26620739 471.65934748 -91.97706306 473.55083299 -92.68786621 475.44233704 C-93.11120239 476.56053329 -93.53453857 477.67872955 -93.97070312 478.83081055 C-94.34038208 479.81019089 -94.71006104 480.78957123 -95.09094238 481.79862976 C-96 484 -96 484 -97 485 C-99.67787973 485.09512944 -102.32988869 485.12555279 -105.00805664 485.11352539 C-105.84700974 485.11367142 -106.68596283 485.11381744 -107.55033875 485.1139679 C-110.33697044 485.1132685 -113.12353616 485.10547485 -115.91015625 485.09765625 C-117.83686791 485.09579217 -119.76358005 485.09436822 -121.69029236 485.09336853 C-126.77187397 485.08954259 -131.8534272 485.07971166 -136.93499756 485.06866455 C-142.11616634 485.05845206 -147.29733969 485.05387126 -152.47851562 485.04882812 C-162.65235625 485.03808946 -172.82617577 485.02101213 -183 485 C-182.28779202 480.36832114 -181.14591191 476.39794498 -179.4296875 472.02734375 C-179.16123016 471.33747375 -178.89277283 470.64760376 -178.61618042 469.93682861 C-178.02344786 468.41451868 -177.42825074 466.89316667 -176.83093262 465.37265015 C-175.12612996 461.02982267 -173.44278015 456.67867835 -171.7578125 452.328125 C-171.199729 450.88864754 -171.199729 450.88864754 -170.63037109 449.42008972 C-165.83534368 437.02807224 -161.16666374 424.5881639 -156.48884583 412.15156937 C-154.25711073 406.21896152 -152.02309518 400.28721169 -149.7890625 394.35546875 C-149.54394424 393.70456709 -149.29882599 393.05366543 -149.04627991 392.38303947 C-144.09838187 379.2455193 -139.11756729 366.12060526 -134.125 353 C-128.29375481 337.67369677 -122.4773846 322.34197847 -116.6875 307 C-109.90734205 289.03433086 -103.10193345 271.07832017 -96.28850555 253.12524414 C-89.94947445 236.42197916 -83.62070062 219.71493274 -77.3125 203 C-70.9964882 186.26452275 -64.64984227 169.540844 -58.29116821 152.8215332 C-52.67544582 138.05470007 -47.07808992 123.28108788 -41.5 108.5 C-32.37327507 84.31815035 -23.19770445 60.15493612 -14 36 C-13.65118774 35.08393982 -13.30237549 34.16787964 -12.94299316 33.22406006 C-11.03868415 28.22380726 -9.13284693 23.22414169 -7.2244873 18.22543335 C-6.66370671 16.75633565 -6.10323489 15.28712005 -5.54309082 13.81777954 C-4.78758073 11.83645347 -4.030736 9.85564307 -3.2734375 7.875 C-2.64574463 6.23144531 -2.64574463 6.23144531 -2.00537109 4.5546875 C-1 2 -1 2 0 0 Z M47 99 C46.79686691 99.54168823 46.59373383 100.08337646 46.38444519 100.64147949 C45.94700737 101.80798035 45.94700737 101.80798035 45.50073242 102.99804688 C45.16633148 103.88978607 44.83193054 104.78152527 44.48739624 105.70028687 C43.71406933 107.76248501 42.94073314 109.82467968 42.16738892 111.88687134 C40.13606256 117.30362681 38.10482006 122.72041368 36.07390499 128.13732338 C34.83838662 131.43271505 33.60280255 134.72808208 32.3671875 138.0234375 C32.11201418 138.70398067 31.85684086 139.38452385 31.59393501 140.08568954 C27.84195226 150.09179997 24.08667145 160.096668 20.32956314 170.10085487 C8.57108596 201.41204364 -3.15786728 232.73401322 -14.81238174 264.0840683 C-15.68538074 266.43180074 -16.55896921 268.77931309 -17.43270874 271.12677002 C-18.79270955 274.78102732 -20.15101108 278.43591151 -21.50788879 282.09132957 C-22.00689615 283.43495788 -22.50644085 284.77838675 -23.00654602 286.12160683 C-23.68648333 287.94825713 -24.36418347 289.77573973 -25.04174805 291.60327148 C-25.42219772 292.62742661 -25.8026474 293.65158173 -26.19462585 294.70677185 C-27.05522602 296.75216102 -27.05522602 296.75216102 -27 298 C22.5 298 72 298 123 298 C122.10156624 293.50783119 120.80083045 289.4919415 119.18359375 285.23828125 C118.89599686 284.47280472 118.60839996 283.70732819 118.31208801 282.9186554 C117.35772422 280.38180781 116.39770198 277.84714301 115.4375 275.3125 C114.7578877 273.51034829 114.07853046 271.70810037 113.39941406 269.90576172 C107.03940127 253.04301127 100.61691458 236.203901 94.19064331 219.36631775 C90.41160069 209.46230988 86.64624167 199.5531101 82.8817749 189.64355469 C81.69116807 186.50965504 80.50017048 183.37590413 79.30908203 180.2421875 C75.55649052 170.36818587 71.80683041 160.49309067 68.06520081 150.6149292 C66.3356968 146.04946595 64.60475441 141.48454867 62.87368774 136.91967773 C62.05181954 134.75116852 61.23065396 132.58239285 60.4102478 130.41333008 C54.44701487 114.61013589 54.44701487 114.61013589 48 99 C47.67 99 47.34 99 47 99 Z " fill="#000000" transform="translate(3258,1788)"/>
<path d="M0 0 C0.76005341 -0.00067474 1.52010681 -0.00134949 2.30319214 -0.00204468 C13.99643581 0.014444 25.27528281 0.47877326 36.6875 3.25 C37.74130859 3.49943359 37.74130859 3.49943359 38.81640625 3.75390625 C75.88771158 12.83671246 107.58431684 37.04565313 127.3125 69.5625 C128.80712303 72.10544406 130.25799478 74.66994934 131.6875 77.25 C132.03022949 77.86681641 132.37295898 78.48363281 132.72607422 79.11914062 C150.15083156 110.98250732 156.90977352 147.36159668 156.9375 183.375 C156.93817474 184.16690735 156.93884949 184.9588147 156.93954468 185.77471924 C156.86883454 238.32887251 141.34047433 290.40285488 103.9375 328.4375 C79.41252718 352.69944718 45.43158623 368.23964421 10.62890625 368.453125 C9.88148666 368.45882507 9.13406708 368.46452515 8.36399841 368.47039795 C6.78833399 368.4797838 5.2126505 368.48635616 3.63696289 368.49023438 C1.28689918 368.49984904 -1.06225341 368.53089534 -3.41210938 368.5625 C-38.60250636 368.80871914 -70.14464812 355.64936785 -95.3125 331.25 C-97.2925 329.27 -97.2925 329.27 -99.3125 327.25 C-99.6425 378.4 -99.9725 429.55 -100.3125 482.25 C-127.3725 482.25 -154.4325 482.25 -182.3125 482.25 C-182.3125 325.17 -182.3125 168.09 -182.3125 6.25 C-155.2525 6.25 -128.1925 6.25 -100.3125 6.25 C-99.9825 17.8 -99.6525 29.35 -99.3125 41.25 C-95.6825 37.62 -92.0525 33.99 -88.3125 30.25 C-85.90359857 28.23684667 -83.60351848 26.3659203 -81.0625 24.5625 C-80.43682129 24.11245605 -79.81114258 23.66241211 -79.16650391 23.19873047 C-55.60739847 6.6397088 -28.47172095 0.02264931 0 0 Z M-79.4296875 99.515625 C-87.31818217 108.78537361 -92.64674473 119.56852267 -96.625 131 C-96.85525879 131.64066406 -97.08551758 132.28132813 -97.32275391 132.94140625 C-102.44342646 148.66033065 -102.79763603 165.12055548 -102.70361328 181.48413086 C-102.68750193 184.81210186 -102.70357097 188.13886191 -102.72265625 191.46679688 C-102.73883756 207.1090408 -101.90826368 222.55535321 -96.625 237.4375 C-96.36936279 238.17250732 -96.11372559 238.90751465 -95.8503418 239.66479492 C-88.15993147 260.92975366 -73.94686919 279.10968143 -53.3125 289.25 C-29.00906411 299.23771338 -3.92834475 300.09108932 20.6875 290.25 C30.71395581 285.85625563 38.08705876 279.92710275 45.6875 272.25 C46.78191406 271.18845703 46.78191406 271.18845703 47.8984375 270.10546875 C69.24619264 248.04049654 74.38187614 213.59388516 74.9375 184.25 C74.36466874 154.03315102 68.60858845 121.33667246 47.6875 98.25 C46.93855469 97.40824219 46.18960938 96.56648438 45.41796875 95.69921875 C30.87364971 80.21504065 10.67990342 72.39693595 -10.3125 71.25 C-11.02921875 71.19714844 -11.7459375 71.14429688 -12.484375 71.08984375 C-38.52444174 70.05722041 -61.80878021 80.65930355 -79.4296875 99.515625 Z " fill="#000000" transform="translate(2135.3125,1911.75)"/>
<path d="M0 0 C1.10060005 -0.01058945 1.10060005 -0.01058945 2.22343445 -0.02139282 C33.42907373 -0.25334681 33.42907373 -0.25334681 48.046875 3.203125 C48.89169434 3.40180176 49.73651367 3.60047852 50.60693359 3.80517578 C75.42634432 9.86367154 97.23885174 20.86041485 116.046875 38.203125 C116.92988281 39.01523438 117.81289062 39.82734375 118.72265625 40.6640625 C142.55328104 63.56814667 156.45307491 95.12095458 163.359375 127.015625 C163.50673096 127.69431641 163.65408691 128.37300781 163.8059082 129.07226562 C168.69448213 153.56382054 167.046875 176.86463311 167.046875 202.203125 C85.536875 202.203125 4.026875 202.203125 -79.953125 202.203125 C-75.33101908 227.62470755 -70.11147071 249.71005838 -52.953125 269.203125 C-52.51097656 269.79867187 -52.06882812 270.39421875 -51.61328125 271.0078125 C-39.55406445 286.91571551 -18.2616316 294.21492037 0.5625 297.6640625 C2.73414236 297.96165793 4.8566949 298.11388167 7.046875 298.203125 C8.54154297 298.28046875 8.54154297 298.28046875 10.06640625 298.359375 C32.19518523 298.96633579 55.86257303 293.06899779 72.484375 277.828125 C83.4815107 267.27571976 89.54455269 256.22603379 95.046875 242.203125 C102.38365726 244.28252951 109.49141045 246.78223184 116.609375 249.51171875 C117.68131104 249.91971207 118.75324707 250.32770538 119.85766602 250.74806213 C123.25533102 252.04230101 126.65108299 253.34148096 130.046875 254.640625 C132.325405 255.50876762 134.60404987 256.37660882 136.8828125 257.24414062 C139.08343628 258.08306335 141.28396046 258.92224737 143.484375 259.76171875 C144.49508057 260.14726425 145.50578613 260.53280975 146.54711914 260.93003845 C152.7366838 263.29848709 158.90134578 265.72264156 165.046875 268.203125 C164.59024276 274.51102157 161.62382884 279.58438446 158.734375 285.078125 C158.19748047 286.0995459 157.66058594 287.1209668 157.10742188 288.17333984 C152.2328781 297.22423574 146.68167156 305.36397098 140.046875 313.203125 C139.31235107 314.07203369 139.31235107 314.07203369 138.56298828 314.95849609 C111.87875343 346.0417146 73.65846938 364.25978538 33.046875 368.203125 C30.1766309 368.35121745 27.31123649 368.38934954 24.4375 368.40625 C23.23681381 368.41683945 23.23681381 368.41683945 22.01187134 368.42764282 C-19.22557233 368.70878111 -60.21608022 361.35640973 -92.953125 334.203125 C-93.49694824 333.75791504 -94.04077148 333.31270508 -94.60107422 332.85400391 C-105.86778287 323.61779305 -115.25284452 313.89403153 -123.953125 302.203125 C-124.38028809 301.63094238 -124.80745117 301.05875977 -125.24755859 300.46923828 C-155.8470504 258.81228444 -164.58786476 201.5174652 -156.953125 151.203125 C-149.54333252 104.13707413 -128.4542151 59.14503246 -89.19140625 30.47265625 C-63.20664125 12.26137946 -32.04091247 0.20654937 0 0 Z M-55.58935547 97.57763672 C-66.00640917 109.99380993 -71.7338739 124.73253763 -75.953125 140.203125 C-22.823125 140.203125 30.306875 140.203125 85.046875 140.203125 C83.51402081 118.74316632 77.70790475 99.78411959 61.046875 85.203125 C26.36374087 57.39254278 -26.93587492 65.38061341 -55.58935547 97.57763672 Z " fill="#000000" transform="translate(2496.953125,1911.796875)"/>
<path d="M0 0 C8.41340732 7.81340204 16.40481626 15.4396001 22.46484375 25.2890625 C23.04621094 26.19914062 23.62757813 27.10921875 24.2265625 28.046875 C30.8569941 38.83391123 35.09207719 50.0876171 38.21484375 62.2890625 C38.41352051 63.05863281 38.61219727 63.82820313 38.81689453 64.62109375 C42.62503288 80.36270419 42.74386717 95.83645197 42.69189453 111.94116211 C42.69132949 114.40639745 42.69164879 116.87163314 42.69277954 119.33686829 C42.69323261 124.6159361 42.68761947 129.89494233 42.67630386 135.17399406 C42.65995478 142.80632931 42.65483131 150.43864073 42.65232788 158.07099158 C42.64796542 170.45806728 42.63469594 182.84511643 42.61572266 195.23217773 C42.59732614 207.25528838 42.58318816 219.27839177 42.57470703 231.30151367 C42.57418158 232.04432171 42.57365614 232.78712976 42.57311477 233.55244713 C42.57050443 237.27940538 42.56797708 241.00636369 42.56549096 244.73332202 C42.54480366 275.58525874 42.50795849 306.43714664 42.46484375 337.2890625 C15.40484375 337.2890625 -11.65515625 337.2890625 -39.53515625 337.2890625 C-39.54450195 330.54235107 -39.55384766 323.79563965 -39.56347656 316.84448242 C-39.59627016 295.19164024 -39.64861504 273.53888116 -39.7130772 251.88611067 C-39.72309317 248.51578971 -39.73293756 245.14546826 -39.74267578 241.77514648 C-39.74461715 241.10425144 -39.74655853 240.4333564 -39.74855873 239.74213121 C-39.77947525 228.91707349 -39.79653033 218.09203691 -39.80835047 207.26694342 C-39.82081595 196.1373032 -39.84873045 185.00776469 -39.88976932 173.87819177 C-39.9123064 167.63616122 -39.92807159 161.39428698 -39.9270401 155.15221214 C-39.9262889 149.26294174 -39.94442322 143.37401583 -39.97632408 137.48483467 C-39.98476141 135.33684234 -39.9866156 133.18881109 -39.98095894 131.04080963 C-39.92713508 107.43689875 -42.9616393 85.4129536 -59.37109375 67.2578125 C-70.09535583 56.94080087 -85.49829565 53.27629884 -99.97265625 52.9140625 C-117.55570022 53.36817004 -134.27175007 58.5439296 -147.53515625 70.2890625 C-148.54578125 71.0315625 -149.55640625 71.7740625 -150.59765625 72.5390625 C-163.81420135 83.77861747 -170.53404113 102.57084642 -172.53515625 119.2890625 C-172.67752633 122.32877699 -172.68977961 125.36426109 -172.69337463 128.40696716 C-172.69831261 129.30316255 -172.70325059 130.19935794 -172.7083382 131.12271076 C-172.72364711 134.11362505 -172.73205585 137.10451798 -172.74047852 140.09545898 C-172.75006224 142.24424933 -172.76007261 144.39303781 -172.77047729 146.54182434 C-172.79747888 152.36765835 -172.81851413 158.19350041 -172.83847928 164.01936221 C-172.86036813 170.11058437 -172.88774263 176.20178181 -172.91453552 182.29298401 C-172.96442321 193.82417631 -173.0093766 205.35538236 -173.05255789 216.88660151 C-173.1019638 230.0159137 -173.15686949 243.14520109 -173.21223748 256.27448928 C-173.32599729 283.27932501 -173.43212339 310.28418357 -173.53515625 337.2890625 C-200.59515625 337.2890625 -227.65515625 337.2890625 -255.53515625 337.2890625 C-255.53515625 220.1390625 -255.53515625 102.9890625 -255.53515625 -17.7109375 C-228.47515625 -17.7109375 -201.41515625 -17.7109375 -173.53515625 -17.7109375 C-173.20515625 -6.1609375 -172.87515625 5.3890625 -172.53515625 17.2890625 C-167.58515625 12.3390625 -167.58515625 12.3390625 -162.53515625 7.2890625 C-119.81834502 -29.32534712 -45.12188558 -38.71997703 0 0 Z " fill="#000000" transform="translate(2979.53515625,1935.7109375)"/>
<path d="M0 0 C29.04 0 58.08 0 88 0 C88 159.72 88 319.44 88 484 C58.96 484 29.92 484 0 484 C0 324.28 0 164.56 0 0 Z " fill="#000000" transform="translate(3591,1790)"/>
</svg>
