<?xml version="1.0" encoding="UTF-8"?>
<svg version="1.1" xmlns="http://www.w3.org/2000/svg" width="24" height="24">
<path d="M0 0 C2.94502331 2.09251656 5.66647508 4.29391984 8.375 6.6875 C8.06491116 8.29213449 7.75183713 9.89619231 7.4375 11.5 C7.17646484 12.83998047 7.17646484 12.83998047 6.91015625 14.20703125 C6.375 16.6875 6.375 16.6875 5.375 19.6875 C0.755 19.6875 -3.865 19.6875 -8.625 19.6875 C-12.11250267 9.08549188 -12.11250267 9.08549188 -10.625 5.6875 C-7.66213818 2.54465125 -4.45690274 -0.53058366 0 0 Z M-4.75 7.6875 C-5.36875 8.3475 -5.9875 9.0075 -6.625 9.6875 C-5.965 11.3375 -5.305 12.9875 -4.625 14.6875 C-2.645 14.6875 -0.665 14.6875 1.375 14.6875 C2.035 12.7075 2.695 10.7275 3.375 8.6875 C-0.623286 5.18240703 -0.623286 5.18240703 -4.75 7.6875 Z M-7.625 15.6875 C-7.625 16.0175 -7.625 16.3475 -7.625 16.6875 C-4.985 16.6875 -2.345 16.6875 0.375 16.6875 C0.375 16.3575 0.375 16.0275 0.375 15.6875 C-2.265 15.6875 -4.905 15.6875 -7.625 15.6875 Z M-6.625 17.6875 C-6.625 18.0175 -6.625 18.3475 -6.625 18.6875 C-3.655 18.6875 -0.685 18.6875 2.375 18.6875 C2.375 18.3575 2.375 18.0275 2.375 17.6875 C-0.595 17.6875 -3.565 17.6875 -6.625 17.6875 Z " fill="#3A84D2" transform="translate(13.625,2.3125)"/>
</svg>
