<?xml version="1.0" encoding="UTF-8"?>
<svg version="1.1" xmlns="http://www.w3.org/2000/svg" width="512" height="512">
    <path
        d="M0 0 C7.96332212 7.20502298 15.08747552 14.98870492 21.64599609 23.48925781 C22.28770752 24.31635254 22.28770752 24.31635254 22.94238281 25.16015625 C58.21032322 70.90560866 73.00205858 127.78624621 66.05859375 184.97021484 C59.50697122 233.7955765 36.17037672 276.93936646 1.07714844 311.08764648 C-0.25303709 312.3903751 -1.56226724 313.71440681 -2.86962891 315.04003906 C-16.49341501 328.47103574 -32.48877343 338.62628282 -49.35400391 347.48925781 C-50.00530273 347.8319873 -50.65660156 348.1747168 -51.32763672 348.52783203 C-100.85372199 374.14942493 -159.56305618 376.50967815 -212.35400391 360.48925781 C-243.42233445 350.43210767 -273.53580009 333.03881431 -296.35400391 309.48925781 C-296.81419922 309.01810547 -297.27439453 308.54695313 -297.74853516 308.06152344 C-331.88892652 272.88520991 -353.25410913 229.19120658 -359.35400391 180.48925781 C-359.48548828 179.49925781 -359.61697266 178.50925781 -359.75244141 177.48925781 C-365.47780492 124.25885107 -349.42485169 67.56554456 -315.98291016 25.70800781 C-304.87402133 12.03552925 -293.36393985 -0.70150962 -279.35400391 -11.51074219 C-278.80260742 -11.9385498 -278.25121094 -12.36635742 -277.68310547 -12.80712891 C-203.08236705 -70.32135728 -94.38570286 -73.34116984 0 0 Z M-282.27832031 36.73828125 C-313.53565375 72.12351731 -329.94291011 119.37629143 -327.35400391 166.48925781 C-324.15547626 210.60323012 -306.20971351 250.15270127 -276.35400391 282.48925781 C-273.1785553 281.12347347 -271.51748646 279.70883205 -269.41650391 276.98925781 C-244.95383189 248.3285425 -199.98338368 237.07792507 -164.16650391 234.17675781 C-127.21343826 231.62917245 -89.65052748 236.64522625 -56.35400391 253.48925781 C-55.66371094 253.83714355 -54.97341797 254.1850293 -54.26220703 254.54345703 C-40.49945081 261.60252331 -28.04941606 270.29471768 -18.35400391 282.48925781 C-14.32211394 280.93637212 -11.97627332 278.10749013 -9.29150391 274.86425781 C-8.81398682 274.2908667 -8.33646973 273.71747559 -7.84448242 273.12670898 C22.57743828 235.95764977 38.5820825 188.72592432 34.14208984 140.61425781 C29.15099652 93.16275896 7.16152317 47.79376731 -30.27514648 17.39013672 C-97.4045878 -35.84949483 -192.61108528 -39.38653081 -282.27832031 36.73828125 Z "
        fill="#ffffff" transform="translate(402.35400390625,99.5107421875)" />
    <path
        d="M0 0 C23.49715494 -0.64636187 44.3490883 8.67262558 61.265625 24.49609375 C77.82211731 41.79222317 83.42612082 63.57201362 83.03125 86.87109375 C82.37438747 104.95924207 74.93712074 121.81321956 62.7265625 135.12109375 C62.06269531 135.87648438 61.39882813 136.631875 60.71484375 137.41015625 C47.30239478 151.83907548 27.97232028 160.4978956 8.35546875 161.3359375 C-6.49174108 161.74475622 -19.76289556 159.63377212 -33.2734375 153.12109375 C-34.18609375 152.70214844 -35.09875 152.28320312 -36.0390625 151.8515625 C-44.02916665 147.89075373 -50.02390849 142.36164355 -56.2734375 136.12109375 C-56.94375 135.46238281 -57.6140625 134.80367187 -58.3046875 134.125 C-73.87738165 117.66749368 -77.80886248 96.49844815 -77.54296875 74.66796875 C-77.06681615 58.16447277 -70.07117785 41.64976957 -59.2734375 29.12109375 C-58.71527344 28.40953125 -58.15710938 27.69796875 -57.58203125 26.96484375 C-45.1220713 11.77357734 -25.7041955 2.85299805 -6.4609375 0.37109375 C-4.30811224 0.20703086 -2.15594546 0.11483558 0 0 Z "
        fill="#ffffff" transform="translate(253.2734375,146.87890625)" />
</svg>