<?xml version="1.0" encoding="UTF-8"?>
<svg version="1.1" xmlns="http://www.w3.org/2000/svg" width="512" height="512">
<path d="M0 0 C1.01790619 0.00215515 2.03581238 0.0043103 3.08456421 0.00653076 C17.69363523 0.05620146 32.02575853 0.30709809 46.375 3.3125 C47.34985352 3.51117676 48.32470703 3.70985352 49.32910156 3.91455078 C97.7109774 14.03517194 141.69928269 35.9516877 177.375 70.3125 C178.3640332 71.26068604 178.3640332 71.26068604 179.37304688 72.22802734 C188.86130305 81.37247479 197.6012044 90.66984009 205.375 101.3125 C206.23306152 102.46355017 207.09113451 103.61459177 207.94921875 104.765625 C213.98736829 112.95680614 219.34595521 121.47054105 224.375 130.3125 C224.73948242 130.94430176 225.10396484 131.57610352 225.47949219 132.22705078 C247.08534998 169.97532572 256.85198095 212.74189997 256.6875 255.9375 C256.68534485 256.95540619 256.6831897 257.97331238 256.68096924 259.02206421 C256.63129854 273.63113523 256.38040191 287.96325853 253.375 302.3125 C253.07698486 303.77478027 253.07698486 303.77478027 252.77294922 305.26660156 C242.65232806 353.6484774 220.7358123 397.63678269 186.375 433.3125 C185.74287598 433.97185547 185.11075195 434.63121094 184.45947266 435.31054688 C175.31502521 444.79880305 166.01765991 453.5387044 155.375 461.3125 C154.22394983 462.17056152 153.07290823 463.02863451 151.921875 463.88671875 C143.73224019 469.92427396 135.22961724 475.30707302 126.375 480.3125 C125.66778809 480.7146875 124.96057617 481.116875 124.23193359 481.53125 C101.09654164 494.5566741 75.92537591 503.30551461 49.9375 508.625 C49.21860596 508.77235596 48.49971191 508.91971191 47.7590332 509.0715332 C33.08339502 511.86090125 18.55831162 512.66142619 3.64770508 512.62817383 C0.70811513 512.6250221 -2.2304558 512.64854926 -5.16992188 512.67382812 C-18.54306192 512.71848737 -31.43916711 511.51301542 -44.625 509.3125 C-46.33055054 509.03031616 -46.33055054 509.03031616 -48.07055664 508.74243164 C-91.33802759 500.97044532 -132.38793216 480.98345309 -165.625 452.3125 C-166.37007813 451.67828125 -167.11515625 451.0440625 -167.8828125 450.390625 C-181.38779833 438.57948485 -194.05918743 425.82889772 -204.625 411.3125 C-205.48149066 410.16255169 -206.33826433 409.01281411 -207.1953125 407.86328125 C-213.23534209 399.67315742 -218.61867614 391.16870382 -223.625 382.3125 C-224.0271875 381.60528809 -224.429375 380.89807617 -224.84375 380.16943359 C-237.8691741 357.03404164 -246.61801461 331.86287591 -251.9375 305.875 C-252.08485596 305.15610596 -252.23221191 304.43721191 -252.3840332 303.6965332 C-255.35789088 288.05024391 -255.99800362 272.57681954 -255.9375 256.6875 C-255.93534485 255.66959381 -255.9331897 254.65168762 -255.93096924 253.60293579 C-255.88129854 238.99386477 -255.63040191 224.66174147 -252.625 210.3125 C-252.42632324 209.33764648 -252.22764648 208.36279297 -252.02294922 207.35839844 C-241.90232806 158.9765226 -219.9858123 114.98821731 -185.625 79.3125 C-184.99287598 78.65314453 -184.36075195 77.99378906 -183.70947266 77.31445312 C-174.56502521 67.82619695 -165.26765991 59.0862956 -154.625 51.3125 C-153.47394983 50.45443848 -152.32290823 49.59636549 -151.171875 48.73828125 C-142.98224019 42.70072604 -134.47961724 37.31792698 -125.625 32.3125 C-124.91778809 31.9103125 -124.21057617 31.508125 -123.48193359 31.09375 C-100.34654164 18.0683259 -75.17537591 9.31948539 -49.1875 4 C-48.46860596 3.85264404 -47.74971191 3.70528809 -47.0090332 3.5534668 C-31.36274391 0.57960912 -15.88931954 -0.06050362 0 0 Z " fill="#FCF3CC" transform="translate(255.625,-0.3125)"/>
<path d="M0 0 C0.84744978 -0.00382555 1.69489956 -0.00765109 2.56802964 -0.01159257 C5.40058023 -0.02189052 8.23292689 -0.01793647 11.06549072 -0.01396179 C13.09938748 -0.01831011 15.1332826 -0.02349367 17.16717529 -0.02944946 C22.68799498 -0.04283977 28.20874621 -0.04341794 33.72957897 -0.04088616 C38.34171227 -0.03981618 42.95383174 -0.04470069 47.56596208 -0.04949158 C58.45058111 -0.06058753 69.33516564 -0.0610241 80.2197876 -0.05497742 C91.43849812 -0.04894078 102.65708313 -0.06124062 113.87577224 -0.08254749 C123.51504367 -0.10017973 133.15427521 -0.10616216 142.79356217 -0.10290974 C148.54728243 -0.10109887 154.30091321 -0.10371337 160.05461884 -0.11762428 C165.46863289 -0.13022385 170.88245186 -0.12823827 176.29646301 -0.11521339 C178.27893897 -0.11285247 180.26142875 -0.11556488 182.24388885 -0.12383652 C196.36204124 -0.17847595 207.73149424 -0.0196285 218.44927979 10.26069641 C226.3257771 18.77954885 228.9299544 26.45364622 228.74224854 37.88569641 C228.73800369 38.87319885 228.73375885 39.86070129 228.72938538 40.87812805 C228.71270624 44.00593818 228.67507413 47.13308381 228.63677979 50.26069641 C228.62171903 52.39219747 228.60803307 54.52370871 228.59576416 56.65522766 C228.56283818 61.85727406 228.51274746 67.05893774 228.44927979 72.26069641 C229.23246582 72.56233704 230.01565186 72.86397766 230.8225708 73.17475891 C238.90631332 76.51675043 243.63366984 83.70869334 247.44927979 91.26069641 C248.4834837 94.36330815 248.58503568 96.52582604 248.60317993 99.77972412 C248.6117804 100.92765945 248.62038086 102.07559479 248.62924194 103.25831604 C248.63563187 105.14946136 248.63563187 105.14946136 248.64215088 107.07881165 C248.65005445 108.41937471 248.65832356 109.75993566 248.66693115 111.10049438 C248.693138 115.50673903 248.70846483 119.91299306 248.72271729 124.31929016 C248.72807891 125.83925444 248.73345642 127.35921865 248.73884964 128.87918282 C248.76048298 135.20752738 248.77921482 141.53586942 248.79047203 147.8642416 C248.80667711 156.91322192 248.83976525 165.96177051 248.89687288 175.01058811 C248.9357052 181.38275784 248.95512078 187.75481279 248.96039259 194.12709767 C248.96403008 197.92712634 248.97587716 201.72669443 249.00849533 205.52659416 C249.03880859 209.10956859 249.04480654 212.69180949 249.03311157 216.27488518 C249.03278933 218.1977671 249.05710341 220.12060533 249.08248901 222.0433197 C249.00745107 232.62734864 246.4951999 241.28602001 239.26177979 249.19819641 C231.52382751 256.32798187 223.59372886 259.41944131 213.19927979 259.32319641 C211.93599854 259.31417297 210.67271729 259.30514954 209.37115479 259.29585266 C208.40693604 259.2842511 207.44271729 259.27264954 206.44927979 259.26069641 C206.48070068 260.49110657 206.51212158 261.72151672 206.54449463 262.98921204 C206.65360022 267.58106506 206.72215938 272.172805 206.77886963 276.76557922 C206.80892889 278.7481975 206.84978889 280.73068404 206.9019165 282.71284485 C206.97521381 285.57287684 207.00884423 288.43114224 207.03521729 291.29194641 C207.066185 292.16935486 207.09715271 293.04676331 207.12905884 293.95075989 C207.13265281 300.61446572 205.09711363 304.5104217 200.44927979 309.26069641 C196.27687353 312.29517369 192.22282393 312.97043296 187.15240479 312.79585266 C178.77581018 311.13748061 171.88115145 304.10913156 165.52349854 298.77632141 C161.94899907 295.85131804 158.27859645 293.08062068 154.57427979 290.32319641 C149.72957997 286.71658655 144.90891601 283.08790146 140.13677979 279.38569641 C139.14376358 278.64021545 138.15074738 277.8947345 137.12763977 277.12666321 C134.47232316 275.10530953 131.97346054 272.96590505 129.48246765 270.74604797 C116.74891961 259.84168107 106.87381027 258.34557809 90.48443604 258.88569641 C88.23110179 258.90466964 85.9776973 258.91649013 83.72428894 258.92158508 C77.84666211 258.94976427 71.97340048 259.05612087 66.097229 259.18556213 C56.67327714 259.38304417 47.24839606 259.47357987 37.82272148 259.53700256 C34.55562337 259.57242459 31.291643 259.65033507 28.02546692 259.73384094 C17.06301267 259.92626312 8.65006317 259.8851056 -0.55072021 253.26069641 C-1.74053749 252.412453 -1.74053749 252.412453 -2.95439148 251.54707336 C-10.08972486 246.1569628 -13.79216115 237.89139736 -15.55072021 229.26069641 C-15.80716345 225.96659372 -15.78465761 222.69199378 -15.74603271 219.38960266 C-15.74320282 218.46727341 -15.74037292 217.54494415 -15.73745728 216.59466553 C-15.72632995 213.67070628 -15.70123934 210.7470619 -15.67572021 207.82319641 C-15.66568078 205.8316644 -15.65655662 203.84012755 -15.64837646 201.84858704 C-15.62641504 196.98583691 -15.59193695 192.12331991 -15.55072021 187.26069641 C-16.33318115 186.95978088 -17.11564209 186.65886536 -17.92181396 186.34883118 C-25.65107254 183.14960147 -30.18542734 176.64347071 -33.55072021 169.26069641 C-33.8959907 168.50916385 -34.24126118 167.75763128 -34.5969944 166.983325 C-35.64974327 163.97801243 -35.80749261 161.66633884 -35.81814575 158.48770142 C-35.82667572 157.33412643 -35.83520569 156.18055145 -35.84399414 154.99201965 C-35.84308777 153.73530457 -35.8421814 152.47858948 -35.84124756 151.18379211 C-35.84723562 149.83968738 -35.8540418 148.49558607 -35.86160278 147.15148926 C-35.87924647 143.50658359 -35.8839576 139.86177188 -35.88523436 136.21682763 C-35.88665797 133.93606804 -35.89093165 131.65533217 -35.89622879 129.37457848 C-35.91472694 121.40732183 -35.92290008 113.44013202 -35.92132568 105.47285461 C-35.92012584 98.06391768 -35.94119772 90.6552728 -35.97281301 83.24640971 C-35.99903561 76.87251847 -36.00969041 70.49872222 -36.00841486 64.1247775 C-36.00790678 60.32381653 -36.01350351 56.52311493 -36.03477097 52.72220802 C-36.05425353 49.14254541 -36.05421041 45.56338677 -36.0397377 41.98370552 C-36.03667696 40.05811726 -36.05325768 38.13252842 -36.07061768 36.20701599 C-36.00149537 26.58577978 -34.17560567 18.14336604 -27.45306396 10.92475891 C-19.16600638 3.67571059 -11.01111309 -0.0530109 0 0 Z " fill="#DFD6B1" transform="translate(149.55072021484375,99.73930358886719)"/>
<path d="M0 0 C4.9787705 3.620924 8.22446038 7.00162453 10 13 C10.54528102 17.36777012 10.5367945 21.68482988 10.50170898 26.08203125 C10.50981346 28.02497574 10.50981346 28.02497574 10.51808167 30.00717163 C10.53197515 33.54035282 10.52091012 37.07304369 10.50437045 40.60619736 C10.49045598 44.31534906 10.49698728 48.02447414 10.50050354 51.73364258 C10.50320064 57.96085451 10.48977337 64.18787314 10.46655273 70.41503906 C10.43994606 77.5996786 10.43819772 84.7839951 10.4499411 91.96866703 C10.46074555 98.89918688 10.45451095 105.82959065 10.44038582 112.76010132 C10.43464908 115.70090501 10.43469038 118.64162311 10.43945122 121.58242798 C10.4451393 125.69445167 10.4258404 129.80599888 10.40405273 133.91796875 C10.41080521 135.73547134 10.41080521 135.73547134 10.41769409 137.58969116 C10.35289097 144.96288348 9.80976864 150.95276849 5.4921875 157.171875 C4.95851563 157.69265625 4.42484375 158.2134375 3.875 158.75 C3.35679687 159.28109375 2.83859375 159.8121875 2.3046875 160.359375 C-5.20690649 165.7066114 -11.99756116 166.54739862 -21.0625 166.25 C-22.11888672 166.23195313 -23.17527344 166.21390625 -24.26367188 166.1953125 C-26.8434255 166.14862013 -29.42120817 166.08315588 -32 166 C-31.99111755 166.60499329 -31.98223511 167.20998657 -31.9730835 167.83331299 C-31.88462407 174.12722328 -31.82427158 180.42095713 -31.78027344 186.71533203 C-31.76015186 189.06468884 -31.73285149 191.41399554 -31.69824219 193.76318359 C-31.6497496 197.13912315 -31.62703643 200.51440086 -31.609375 203.890625 C-31.58872986 204.94179504 -31.56808472 205.99296509 -31.54681396 207.07598877 C-31.54457388 214.34746257 -31.54457388 214.34746257 -33.85302734 217.6550293 C-36.95413406 219.59771714 -38.38094898 219.69864174 -42 219 C-44.94602224 217.26498161 -47.50396058 215.12401084 -50.125 212.9375 C-51.73027111 211.64266975 -53.33709856 210.3497671 -54.9453125 209.05859375 C-55.77579102 208.38683105 -56.60626953 207.71506836 -57.46191406 207.02294922 C-61.56799765 203.75024735 -65.78399416 200.62894491 -70 197.5 C-77.25680832 192.08870344 -84.44217465 186.59558449 -91.5625 181.00585938 C-92.90440083 179.95427363 -94.2584733 178.91801695 -95.62481689 177.89839172 C-98 176 -98 176 -100.2164917 173.73149109 C-110.08122605 164.56840763 -121.04763844 165.82573037 -133.859375 166.04296875 C-136.17718067 166.04747971 -138.49499926 166.0474285 -140.81280518 166.04304504 C-146.88639435 166.04108975 -152.95844643 166.0891812 -159.03167725 166.15161133 C-168.76399624 166.24554615 -178.49641432 166.27332348 -188.22913361 166.28124428 C-191.61740325 166.29278324 -195.00451471 166.3321365 -198.39251709 166.37480164 C-200.47619227 166.3850771 -202.55987164 166.39454491 -204.64355469 166.40307617 C-206.04487389 166.43183083 -206.04487389 166.43183083 -207.47450256 166.46116638 C-215.76607901 166.45259849 -221.92158273 163.68144293 -228 158 C-235.57039403 148.24388991 -234.71247095 137.40866633 -234.375 125.75 C-234.34484032 123.92582563 -234.31747519 122.10160282 -234.29296875 120.27734375 C-234.22749884 115.85034568 -234.12431799 111.42572039 -234 107 C-230.04 107 -226.08 107 -222 107 C-221.98541748 108.21059082 -221.97083496 109.42118164 -221.95581055 110.66845703 C-221.89768315 115.17509981 -221.8204511 119.68125049 -221.73754883 124.1875 C-221.70436735 126.13500968 -221.67631443 128.08261397 -221.65356445 130.03027344 C-221.61989366 132.83569515 -221.56757173 135.64025528 -221.51171875 138.4453125 C-221.50532883 139.31116974 -221.4989389 140.17702698 -221.49235535 141.06912231 C-221.33405517 147.63010283 -219.8856062 151.77595166 -215.5625 156.875 C-211.75525901 159.83300678 -207.64409071 159.51712594 -203 159.46875 C-195.99522853 158.37425446 -191.0022445 153.85779111 -185.625 149.5625 C-184.02045343 148.29700696 -182.41496618 147.0327058 -180.80859375 145.76953125 C-180.00405762 145.13611816 -179.19952148 144.50270508 -178.37060547 143.85009766 C-174.84671023 141.09993513 -171.27205427 138.42034619 -167.6875 135.75 C-162.95453316 132.21833191 -158.24049906 128.66676478 -153.5625 125.0625 C-152.5677919 124.31600693 -151.5730838 123.56951385 -150.54823303 122.80039978 C-148.05629108 120.8898283 -145.75959289 118.86594586 -143.47850037 116.70924377 C-131.62654403 105.95659735 -121.70087353 105.22609241 -106.16015625 105.65234375 C-103.8991487 105.66434358 -101.6380993 105.66996508 -99.37705994 105.66957092 C-93.47272278 105.68276123 -87.57199292 105.76981753 -81.66870117 105.87695312 C-72.20042988 106.03592214 -62.73093045 106.07978339 -53.26156425 106.12549019 C-49.97392411 106.1518328 -46.68801437 106.20933052 -43.40089417 106.27220154 C-41.37412175 106.29526927 -39.34734272 106.3177654 -37.32055664 106.33959961 C-35.96985832 106.37778053 -35.96985832 106.37778053 -34.59187317 106.41673279 C-24.25446808 106.47560766 -16.60434016 102.55218286 -9.203125 95.51171875 C-2.84550015 88.26357552 -0.86940196 80.69801838 -0.79467773 71.29394531 C-0.78477814 70.52282913 -0.77487854 69.75171295 -0.76467896 68.95722961 C-0.73314922 66.41422573 -0.70834032 63.87120318 -0.68359375 61.328125 C-0.66301686 59.56263754 -0.64202019 57.79715493 -0.62062073 56.03167725 C-0.56547601 51.38913909 -0.51603325 46.74655702 -0.46777344 42.10394287 C-0.41750289 37.36482851 -0.36184583 32.62577775 -0.30664062 27.88671875 C-0.19915202 18.5912002 -0.09768644 9.29562637 0 0 Z " fill="#ECE4BE" transform="translate(378,183)"/>
<path d="M0 0 C0.84744978 -0.00382555 1.69489956 -0.00765109 2.56802964 -0.01159257 C5.40058023 -0.02189052 8.23292689 -0.01793647 11.06549072 -0.01396179 C13.09938748 -0.01831011 15.1332826 -0.02349367 17.16717529 -0.02944946 C22.68799498 -0.04283977 28.20874621 -0.04341794 33.72957897 -0.04088616 C38.34171227 -0.03981618 42.95383174 -0.04470069 47.56596208 -0.04949158 C58.45058111 -0.06058753 69.33516564 -0.0610241 80.2197876 -0.05497742 C91.43849812 -0.04894078 102.65708313 -0.06124062 113.87577224 -0.08254749 C123.51504367 -0.10017973 133.15427521 -0.10616216 142.79356217 -0.10290974 C148.54728243 -0.10109887 154.30091321 -0.10371337 160.05461884 -0.11762428 C165.46863289 -0.13022385 170.88245186 -0.12823827 176.29646301 -0.11521339 C178.27893897 -0.11285247 180.26142875 -0.11556488 182.24388885 -0.12383652 C196.36204124 -0.17847595 207.73149424 -0.0196285 218.44927979 10.26069641 C226.3257771 18.77954885 228.9299544 26.45364622 228.74224854 37.88569641 C228.73800369 38.87319885 228.73375885 39.86070129 228.72938538 40.87812805 C228.71270624 44.00593818 228.67507413 47.13308381 228.63677979 50.26069641 C228.62171903 52.39219747 228.60803307 54.52370871 228.59576416 56.65522766 C228.56283818 61.85727406 228.51274746 67.05893774 228.44927979 72.26069641 C229.23246582 72.56233704 230.01565186 72.86397766 230.8225708 73.17475891 C238.90631332 76.51675043 243.63366984 83.70869334 247.44927979 91.26069641 C248.4834837 94.36330815 248.58503568 96.52582604 248.60317993 99.77972412 C248.6117804 100.92765945 248.62038086 102.07559479 248.62924194 103.25831604 C248.63563187 105.14946136 248.63563187 105.14946136 248.64215088 107.07881165 C248.65005445 108.41937471 248.65832356 109.75993566 248.66693115 111.10049438 C248.693138 115.50673903 248.70846483 119.91299306 248.72271729 124.31929016 C248.72807891 125.83925444 248.73345642 127.35921865 248.73884964 128.87918282 C248.76048298 135.20752738 248.77921482 141.53586942 248.79047203 147.8642416 C248.80667711 156.91322192 248.83976525 165.96177051 248.89687288 175.01058811 C248.9357052 181.38275784 248.95512078 187.75481279 248.96039259 194.12709767 C248.96403008 197.92712634 248.97587716 201.72669443 249.00849533 205.52659416 C249.03880859 209.10956859 249.04480654 212.69180949 249.03311157 216.27488518 C249.03278933 218.1977671 249.05710341 220.12060533 249.08248901 222.0433197 C249.00745107 232.62734864 246.4951999 241.28602001 239.26177979 249.19819641 C231.52382751 256.32798187 223.59372886 259.41944131 213.19927979 259.32319641 C211.93599854 259.31417297 210.67271729 259.30514954 209.37115479 259.29585266 C208.40693604 259.2842511 207.44271729 259.27264954 206.44927979 259.26069641 C206.48070068 260.49110657 206.51212158 261.72151672 206.54449463 262.98921204 C206.65360022 267.58106506 206.72215938 272.172805 206.77886963 276.76557922 C206.80892889 278.7481975 206.84978889 280.73068404 206.9019165 282.71284485 C206.97521381 285.57287684 207.00884423 288.43114224 207.03521729 291.29194641 C207.066185 292.16935486 207.09715271 293.04676331 207.12905884 293.95075989 C207.13265281 300.61446572 205.09711363 304.5104217 200.44927979 309.26069641 C196.27687353 312.29517369 192.22282393 312.97043296 187.15240479 312.79585266 C178.77581018 311.13748061 171.88115145 304.10913156 165.52349854 298.77632141 C161.94899907 295.85131804 158.27859645 293.08062068 154.57427979 290.32319641 C149.72957997 286.71658655 144.90891601 283.08790146 140.13677979 279.38569641 C139.14376358 278.64021545 138.15074738 277.8947345 137.12763977 277.12666321 C134.47232316 275.10530953 131.97346054 272.96590505 129.48246765 270.74604797 C116.74891961 259.84168107 106.87381027 258.34557809 90.48443604 258.88569641 C88.23110179 258.90466964 85.9776973 258.91649013 83.72428894 258.92158508 C77.84666211 258.94976427 71.97340048 259.05612087 66.097229 259.18556213 C56.67327714 259.38304417 47.24839606 259.47357987 37.82272148 259.53700256 C34.55562337 259.57242459 31.291643 259.65033507 28.02546692 259.73384094 C17.06301267 259.92626312 8.65006317 259.8851056 -0.55072021 253.26069641 C-1.74053749 252.412453 -1.74053749 252.412453 -2.95439148 251.54707336 C-10.08972486 246.1569628 -13.79216115 237.89139736 -15.55072021 229.26069641 C-15.80716345 225.96659372 -15.78465761 222.69199378 -15.74603271 219.38960266 C-15.74320282 218.46727341 -15.74037292 217.54494415 -15.73745728 216.59466553 C-15.72632995 213.67070628 -15.70123934 210.7470619 -15.67572021 207.82319641 C-15.66568078 205.8316644 -15.65655662 203.84012755 -15.64837646 201.84858704 C-15.62641504 196.98583691 -15.59193695 192.12331991 -15.55072021 187.26069641 C-16.33318115 186.95978088 -17.11564209 186.65886536 -17.92181396 186.34883118 C-25.65107254 183.14960147 -30.18542734 176.64347071 -33.55072021 169.26069641 C-33.8959907 168.50916385 -34.24126118 167.75763128 -34.5969944 166.983325 C-35.64974327 163.97801243 -35.80749261 161.66633884 -35.81814575 158.48770142 C-35.82667572 157.33412643 -35.83520569 156.18055145 -35.84399414 154.99201965 C-35.84308777 153.73530457 -35.8421814 152.47858948 -35.84124756 151.18379211 C-35.84723562 149.83968738 -35.8540418 148.49558607 -35.86160278 147.15148926 C-35.87924647 143.50658359 -35.8839576 139.86177188 -35.88523436 136.21682763 C-35.88665797 133.93606804 -35.89093165 131.65533217 -35.89622879 129.37457848 C-35.91472694 121.40732183 -35.92290008 113.44013202 -35.92132568 105.47285461 C-35.92012584 98.06391768 -35.94119772 90.6552728 -35.97281301 83.24640971 C-35.99903561 76.87251847 -36.00969041 70.49872222 -36.00841486 64.1247775 C-36.00790678 60.32381653 -36.01350351 56.52311493 -36.03477097 52.72220802 C-36.05425353 49.14254541 -36.05421041 45.56338677 -36.0397377 41.98370552 C-36.03667696 40.05811726 -36.05325768 38.13252842 -36.07061768 36.20701599 C-36.00149537 26.58577978 -34.17560567 18.14336604 -27.45306396 10.92475891 C-19.16600638 3.67571059 -11.01111309 -0.0530109 0 0 Z M-22.80072021 22.32319641 C-25.33325833 26.57424253 -25.67662768 29.85237033 -25.71134949 34.76158142 C-25.72139511 35.88012512 -25.73144073 36.99866882 -25.74179077 38.15110779 C-25.74762177 39.3740152 -25.75345276 40.59692261 -25.75946045 41.85688782 C-25.76924423 43.14838745 -25.77902802 44.43988708 -25.78910828 45.77052307 C-25.82043648 50.05107134 -25.84075638 54.33163868 -25.85931396 58.61225891 C-25.86261129 59.34182029 -25.86590861 60.07138167 -25.86930585 60.82305098 C-25.90008843 67.71048004 -25.92678104 74.59791367 -25.94372463 81.48539162 C-25.96560956 90.27663718 -26.00754288 99.0672704 -26.07716221 107.85827124 C-26.12451722 114.04953615 -26.14867354 120.24063655 -26.15592152 126.43207681 C-26.16086118 130.12481532 -26.17577847 133.81686293 -26.21566582 137.50940323 C-26.25965532 141.63602021 -26.25561005 145.7612936 -26.2477417 149.88813782 C-26.26774231 151.09889984 -26.28774292 152.30966187 -26.30834961 153.55711365 C-26.2399365 161.57107872 -24.54977287 166.93278852 -19.55072021 173.26069641 C-17.22750629 175.52798087 -17.22750629 175.52798087 -14.80072021 176.82319641 C-14.04275146 177.27823547 -13.28478271 177.73327454 -12.50384521 178.20210266 C-8.98235267 180.11075162 -6.93275522 180.3787875 -2.88665771 180.35835266 C-1.76517334 180.35513 -0.64368896 180.35190735 0.51177979 180.34858704 C1.68740479 180.34020813 2.86302979 180.33182922 4.07427979 180.32319641 C5.25763916 180.31868469 6.44099854 180.31417297 7.66021729 180.30952454 C10.58995485 180.29771108 13.51959251 180.28123899 16.44927979 180.26069641 C16.44261795 180.88043839 16.43595612 181.50018036 16.42909241 182.13870239 C16.36281469 188.57848431 16.31751069 195.01816963 16.28448486 201.45820618 C16.26938163 203.86286859 16.2488977 206.26750339 16.22296143 208.67207336 C16.18664628 212.12486072 16.16956878 215.57728445 16.15631104 219.03022766 C16.14082718 220.10843277 16.12534332 221.18663788 16.10939026 222.29751587 C16.10905037 223.79873238 16.10905037 223.79873238 16.10870361 225.33027649 C16.10204178 226.21185928 16.09537994 227.09344208 16.08851624 228.0017395 C16.52846892 230.75654709 17.22945563 231.61560296 19.44927979 233.26069641 C23.25302911 234.13238896 25.21178522 233.96432599 28.61334229 232.03022766 C30.98013174 230.32839334 33.28065826 228.56026955 35.56256104 226.74653625 C38.62724406 224.33301906 41.74600566 221.99105505 44.85528564 219.63545227 C51.5349192 214.56919882 58.18949199 209.46964307 64.83650589 204.36067581 C66.20029497 203.3183835 67.56885236 202.28226937 68.94425583 201.25535202 C72.69955058 198.43963814 76.29535811 195.54128266 79.78967285 192.40626526 C92.88604198 181.04976507 102.88634182 179.15969588 119.87115479 179.68257141 C122.15508096 179.69577211 124.43905823 179.70183666 126.72302246 179.70118713 C132.67300349 179.71629328 138.61812781 179.81797747 144.56671143 179.94203186 C152.97823209 180.10103046 161.39134886 180.13902022 169.80407715 180.19166565 C174.27024633 180.21994164 178.73408273 180.28065064 183.19946289 180.36830139 C185.2368353 180.39731398 187.27420909 180.42622951 189.31158447 180.45503235 C190.22387817 180.48003311 191.13617188 180.50503387 192.07611084 180.53079224 C198.67128625 180.60111112 204.07236682 179.60510002 209.62115479 175.75288391 C210.14193604 175.21921204 210.66271729 174.68554016 211.19927979 174.13569641 C211.73037354 173.61749329 212.26146729 173.09929016 212.80865479 172.56538391 C218.32776385 164.81234975 219.03412482 157.6232063 218.98272705 148.2804718 C218.99134262 147.00774918 218.99995819 145.73502655 219.00883484 144.42373657 C219.03119908 140.95662822 219.02841991 137.48997913 219.01951337 134.02282643 C219.0143768 131.1179377 219.02171756 128.21313327 219.02898544 125.30825323 C219.04594333 118.4502839 219.04246043 111.59253729 219.0256958 104.73457336 C219.00877775 97.6821734 219.02461342 90.63039258 219.05691868 83.57806021 C219.08369059 77.50129334 219.09087022 71.4247183 219.0824036 65.34789842 C219.07749647 61.72804956 219.07956856 58.10857292 219.10019112 54.48877144 C219.1221085 50.44889838 219.1030644 46.41018449 219.0803833 42.37031555 C219.0920755 41.18611023 219.1037677 40.00190491 219.11581421 38.78181458 C219.02149835 30.49796934 217.43056087 23.59655651 211.69393253 17.34901524 C205.49363924 11.50793341 199.07987631 9.80920562 190.80281067 9.87301636 C189.95717888 9.86763082 189.1115471 9.86224528 188.24029011 9.85669655 C185.4199107 9.84244231 182.60000233 9.8495144 179.77960205 9.85664368 C177.75216292 9.8509388 175.724727 9.84397408 173.69729614 9.83584595 C168.19936859 9.81791278 162.70160063 9.81908322 157.20365262 9.82478833 C152.61115716 9.82787985 148.01869238 9.82178815 143.42620128 9.81574959 C132.59101332 9.80170553 121.75590421 9.80326477 110.92071533 9.81465149 C99.74791359 9.82613364 88.57535186 9.81205501 77.40258175 9.78525501 C67.80407635 9.76309443 58.20564628 9.75646143 48.60711712 9.76233143 C42.87692609 9.7657012 37.14688892 9.76328438 31.41671944 9.7460804 C26.02808525 9.73060769 20.63980653 9.73457068 15.25118637 9.75338554 C13.27593364 9.75707044 11.30065455 9.75396587 9.3254261 9.74349976 C6.6241198 9.73028141 3.92398882 9.74184464 1.22273254 9.75949097 C0.44538382 9.74988596 -0.33196491 9.74028095 -1.13286966 9.73038489 C-10.86034983 9.86068604 -17.14723111 14.62816958 -22.80072021 22.32319641 Z M228.44927979 83.26069641 C228.44563416 84.22820831 228.44198853 85.19572021 228.43823242 86.19255066 C228.40117371 95.34307534 228.343283 104.49326686 228.26537704 113.64353752 C228.22599076 118.346992 228.19375909 123.05026173 228.17828369 127.75386047 C228.16305854 132.29933392 228.12851004 136.84429918 228.08097076 141.38954544 C228.06621709 143.11729115 228.05824225 144.84510944 228.05739594 146.57291794 C228.04839501 155.74083705 227.99937474 164.01346294 223.44927979 172.26069641 C222.87177979 173.31257141 222.29427979 174.36444641 221.69927979 175.44819641 C215.7562075 182.87703676 208.62104332 188.29275371 198.94284058 189.59897995 C196.33347387 189.68978967 193.75433287 189.66288795 191.14459229 189.58442688 C190.16742752 189.57227646 189.19026276 189.56012604 188.18348694 189.54760742 C186.07785952 189.52027718 183.97232815 189.48445534 181.86697388 189.4408989 C178.5172836 189.37679313 175.16889627 189.34691131 171.81866455 189.32737732 C162.29946501 189.27022302 152.7817762 189.18806591 143.26422119 188.99702454 C137.42303735 188.8822512 131.58469453 188.8375431 125.74243164 188.83598709 C123.53529229 188.8224356 121.3281387 188.78365768 119.12194824 188.71754074 C104.11977581 188.28025761 95.31657491 190.58255356 84.09339905 200.82862854 C83.15864809 201.71699543 83.15864809 201.71699543 82.20501328 202.62330914 C79.87155192 204.7994822 77.40314214 206.67286809 74.83599854 208.56538391 C74.05369873 209.16052795 73.27139893 209.755672 72.46539307 210.36885071 C71.69695068 210.95190979 70.9285083 211.53496887 70.13677979 212.13569641 C68.37761355 213.47286804 66.61850067 214.81010988 64.85943604 216.14741516 C63.97658936 216.81821106 63.09374268 217.48900696 62.18414307 218.18013 C59.35177333 220.33487513 56.523114 222.49441162 53.69537354 224.65522766 C52.28348755 225.73344788 52.28348755 225.73344788 50.84307861 226.83345032 C49.04936093 228.20345142 47.25619396 229.57417399 45.46368408 230.945755 C29.9951731 242.75119321 29.9951731 242.75119321 19.47271729 242.67475891 C15.51697329 242.13301619 13.57862307 240.78073584 10.75396729 238.06147766 C7.05945747 232.9621692 7.11557318 227.86289893 7.03521729 221.80366516 C7.01585114 220.90070206 6.99648499 219.99773895 6.97653198 219.06741333 C6.91693896 216.19443594 6.87043209 213.32141804 6.82427979 210.44819641 C6.78608134 208.49570536 6.74702852 206.54323082 6.70709229 204.59077454 C6.61125409 199.81421657 6.52714827 195.03757975 6.44927979 190.26069641 C2.48927979 190.26069641 -1.47072021 190.26069641 -5.55072021 190.26069641 C-5.70056155 195.59504798 -5.8086285 200.92813906 -5.88031006 206.26411438 C-5.91023188 208.07390212 -5.95098572 209.88354804 -6.00335693 211.69282532 C-6.31541331 222.7616484 -6.47060282 232.01094402 0.44927979 241.26069641 C6.50575244 247.11150921 12.14667909 249.50548963 20.53486633 249.41748047 C21.47043869 249.39764603 22.40601105 249.37781158 23.36993408 249.3573761 C25.4342777 249.33158589 27.49862417 249.30602287 29.56297302 249.28065491 C31.20159837 249.25530293 31.20159837 249.25530293 32.87332726 249.22943878 C38.69330811 249.14921718 44.51361399 249.13409455 50.33404541 249.10835266 C57.72539151 249.07282492 65.11485673 249.01839052 72.50518799 248.88716125 C78.489863 248.78261241 84.47153541 248.74804691 90.4570713 248.75811005 C92.72274929 248.74952601 94.9884897 248.71626576 97.25339317 248.65641022 C113.52620498 248.24395937 122.62166064 251.19825818 134.48690224 262.46842194 C137.71236986 265.41429915 141.23275631 267.94437491 144.76177979 270.51069641 C146.0832797 271.49478095 147.40375188 272.48024872 148.72271729 273.46772766 C149.35145752 273.93775208 149.98019775 274.40777649 150.62799072 274.89204407 C154.44655418 277.76159725 158.22290526 280.68573186 162.00396729 283.60444641 C166.16347225 286.8151185 170.33767278 290.00654518 174.51177979 293.19819641 C175.23873047 293.75434631 175.96568115 294.31049622 176.71466064 294.88349915 C178.05720955 295.909969 179.40110494 296.93468129 180.74664307 297.95722961 C182.09738293 298.99129903 183.43084003 300.04793762 184.75787354 301.11225891 C187.40673724 302.91079454 189.34276187 302.71373027 192.44927979 302.26069641 C194.83164549 300.99328251 194.83164549 300.99328251 196.44927979 298.26069641 C197.01649239 294.55729664 196.91333213 290.88995529 196.83990479 287.15132141 C196.8314151 285.52840179 196.8314151 285.52840179 196.82275391 283.87269592 C196.80036978 280.41824534 196.75016769 276.96483331 196.69927979 273.51069641 C196.67921751 271.16826348 196.66096627 268.82581428 196.64459229 266.48335266 C196.60049834 260.74211312 196.53356534 255.00147896 196.44927979 249.26069641 C197.0936499 249.28688049 197.73802002 249.31306458 198.4019165 249.34004211 C201.37578058 249.44520562 204.34925201 249.50939373 207.32427979 249.57319641 C208.84408447 249.63603821 208.84408447 249.63603821 210.39459229 249.70014954 C218.91930883 249.83676358 225.29643593 247.71474443 231.88677979 242.23335266 C232.40240479 241.6030011 232.91802979 240.97264954 233.44927979 240.32319641 C233.98552979 239.69542297 234.52177979 239.06764954 235.07427979 238.42085266 C237.8730067 234.02398906 238.69895699 229.65419015 238.71670532 224.50584412 C238.72523529 223.38166077 238.73376526 222.25747742 238.74255371 221.09922791 C238.74164734 219.88036896 238.74074097 218.66151001 238.73980713 217.40571594 C238.74652435 216.11071167 238.75324158 214.8157074 238.76016235 213.48146057 C238.77777881 209.9400503 238.78251586 206.39873678 238.78379393 202.85728693 C238.78521845 200.64169855 238.78949372 198.42613453 238.79478836 196.21055222 C238.81327357 188.47253109 238.82146079 180.73457873 238.81988525 172.99653625 C238.81868395 165.79714113 238.83978768 158.59804585 238.87137258 151.39872658 C238.89756896 145.20573624 238.90825116 139.01284364 238.90697443 132.81979835 C238.90646583 129.1262245 238.91209271 125.43291734 238.93333054 121.73939896 C238.95638595 117.61754776 238.94717159 113.49636404 238.93511963 109.37446594 C238.94635864 108.15965546 238.95759766 106.94484497 238.96917725 105.69322205 C238.91356027 98.20275645 238.34670041 92.14262373 232.8496151 86.66739082 C231.43788538 85.46407639 229.94946809 84.35174245 228.44927979 83.26069641 Z " fill="#2D4157" transform="translate(149.55072021484375,99.73930358886719)"/>
</svg>
