<?xml version="1.0" encoding="UTF-8"?>
<svg version="1.1" xmlns="http://www.w3.org/2000/svg" width="512" height="512">
<path d="M0 0 C10.18076416 7.63557312 16.88994167 16.30448237 19 29 C21.23269625 50.89282708 7.12668555 70.05749168 -5.43652344 86.56396484 C-20.43464479 106.360737 -29.34037876 125.77688275 -27 151 C-25.80055324 159.42379623 -23.88482767 167.70854001 -22 176 C-21.29803056 179.16584847 -20.60162462 182.33284103 -19.90893555 185.50073242 C-19.48375335 187.4360282 -19.052095 189.3699179 -18.61254883 191.30200195 C-14.03979409 211.73071363 -13.93161825 234.6560089 -19 255 C-19.16097168 255.65645508 -19.32194336 256.31291016 -19.48779297 256.98925781 C-23.3016638 271.90035701 -29.75451655 286.43776259 -39.26953125 298.5546875 C-41.9812129 302.38654464 -43.53759765 306.56468762 -45 311 C-44.09636719 310.96519531 -43.19273437 310.93039062 -42.26171875 310.89453125 C-41.08222656 310.86746094 -39.90273438 310.84039062 -38.6875 310.8125 C-37.51574219 310.77769531 -36.34398437 310.74289062 -35.13671875 310.70703125 C-32 311 -32 311 -30.32821655 312.1270752 C-28.39839863 314.8483211 -28.61876435 316.94410135 -28.61181641 320.25976562 C-28.60235992 321.55120483 -28.59290344 322.84264404 -28.5831604 324.17321777 C-28.58853008 325.58423163 -28.59468303 326.9952427 -28.6015625 328.40625 C-28.59954165 329.85209297 -28.59663012 331.29793494 -28.59286499 332.74377441 C-28.58844211 335.77345487 -28.59487123 338.80286993 -28.60888672 341.83251953 C-28.62597895 345.71662776 -28.61613752 349.60011412 -28.59816933 353.48419952 C-28.5873303 356.46963184 -28.59077829 359.45491664 -28.5985527 362.44035339 C-28.6005544 363.87249322 -28.59809647 365.30464643 -28.59111404 366.73677063 C-28.58349856 368.73792262 -28.59716338 370.73912154 -28.61181641 372.74023438 C-28.61420319 373.87924194 -28.61658997 375.01824951 -28.61904907 376.19177246 C-29 379 -29 379 -30.33085632 380.86994934 C-33.05436564 382.71383105 -35.62050672 382.33391764 -38.85546875 382.29296875 C-39.51710526 382.28872391 -40.17874176 382.28447906 -40.86042786 382.28010559 C-42.9698691 382.26333693 -45.07834846 382.22569099 -47.1875 382.1875 C-48.61912681 382.17245068 -50.05076862 382.1587627 -51.48242188 382.14648438 C-54.98859288 382.1134403 -58.49420254 382.06167167 -62 382 C-61.67620361 383.06766602 -61.35240723 384.13533203 -61.01879883 385.23535156 C-56.96089617 400.2300458 -60.87983798 415.38105408 -68.06640625 428.70703125 C-76.2623896 442.66503925 -89.69530695 450.80385405 -105 455 C-121.98240134 458.40959409 -138.30404941 454.6996906 -152.65234375 445.25390625 C-159.52666762 440.15906838 -164.18116252 433.98382244 -169 427 C-169.68924561 427.17128418 -170.37849121 427.34256836 -171.08862305 427.51904297 C-197.00924244 433.93154398 -197.00924244 433.93154398 -207 435 C-208.010625 435.10957031 -209.02125 435.21914063 -210.0625 435.33203125 C-219.03834744 436.15701723 -227.9966599 436.09704199 -237 436 C-237.12955078 437.58361328 -237.12955078 437.58361328 -237.26171875 439.19921875 C-239.09054509 459.2566479 -242.18073701 484.78502565 -258.0625 498.875 C-266.06715815 504.66560377 -275.94963831 503.89947305 -285.36328125 502.5 C-297.01423985 499.8403778 -305.33389856 494.13882647 -314.59570312 486.88598633 C-327.58530192 476.7757486 -340.17614303 470.43026274 -357.0703125 472.3984375 C-369.06787486 474.11868129 -380.80841281 477.30970906 -392.51489258 480.38330078 C-407.58254368 484.12245853 -422.19187506 483.13791214 -435.70703125 475.40625 C-441.35384597 471.97491697 -445.92547932 467.80477134 -450.5625 463.125 C-451.39023926 462.29000977 -452.21797852 461.45501953 -453.07080078 460.59472656 C-474.50829082 438.29770454 -479.46867197 406.3325601 -479.1484375 376.44140625 C-478.31304965 337.50000701 -462.57661529 301.24686468 -436 273 C-434.65709822 271.57143469 -433.32303429 270.13448455 -432 268.6875 C-431.443125 268.09324219 -430.88625 267.49898438 -430.3125 266.88671875 C-427.70047982 263.13193974 -427.90379925 259.44411727 -428.4375 255.0625 C-431.24644762 224.31388676 -427.46215772 191.96114423 -415.09667969 163.52929688 C-413.53372708 159.87251167 -412.68550344 157.78582892 -414 154 C-415.19369555 152.45214056 -415.19369555 152.45214056 -416.6875 151 C-426.28690483 140.17759408 -429.68109258 126.02429827 -429.34765625 111.875 C-427.92115287 95.97509713 -421.38126303 83.93998627 -410 73 C-403.90624464 67.91701108 -397.54281724 64.42883597 -390 62 C-388.95972656 61.66162109 -388.95972656 61.66162109 -387.8984375 61.31640625 C-375.0817054 57.83620746 -359.65640768 59.15693793 -348.01171875 65.671875 C-346.35794474 66.74009051 -344.7307513 67.85197009 -343.1484375 69.0234375 C-341.03062581 70.25201042 -341.03062581 70.25201042 -338.74609375 69.45703125 C-335.01774861 67.4788339 -331.34864958 65.41195512 -327.6875 63.3125 C-281.16980154 37.14865257 -226.21583201 31.16638964 -174.79296875 45.25390625 C-163.47189384 48.55310371 -152.07727996 52.50505612 -141.80664062 58.35888672 C-139.39045062 59.21630766 -138.36149262 58.98873551 -136 58 C-133.82613113 56.25566999 -133.82613113 56.25566999 -131.69921875 54.02734375 C-130.48008789 52.80047852 -130.48008789 52.80047852 -129.23632812 51.54882812 C-128.39521484 50.68708984 -127.55410156 49.82535156 -126.6875 48.9375 C-125.85798828 48.10283203 -125.02847656 47.26816406 -124.17382812 46.40820312 C-119.80202 41.98118669 -115.56794138 37.47949569 -111.52636719 32.74853516 C-106.49735947 26.98753815 -100.80532574 21.95600958 -95 17 C-94.13761719 16.236875 -93.27523438 15.47375 -92.38671875 14.6875 C-66.67111622 -7.58311654 -31.25987668 -19.38957216 0 0 Z " fill="#C992C7" transform="translate(486,9)"/>
<path d="M0 0 C-1.37199423 3.07644987 -2.93676928 5.1854025 -5.31640625 7.55932617 C-5.99050537 8.23650192 -6.66460449 8.91367767 -7.35913086 9.6113739 C-8.08624268 10.3313002 -8.81335449 11.0512265 -9.5625 11.79296875 C-10.30959229 12.53960281 -11.05668457 13.28623688 -11.82641602 14.05549622 C-13.404373 15.63043531 -14.98475653 17.20294642 -16.56738281 18.77319336 C-18.9960241 21.18355403 -21.41654393 23.60184503 -23.8359375 26.02148438 C-25.36932003 27.54995247 -26.90315868 29.07796313 -28.4375 30.60546875 C-29.16461182 31.33146774 -29.89172363 32.05746674 -30.64086914 32.8054657 C-31.31496826 33.47318497 -31.98906738 34.14090424 -32.68359375 34.82885742 C-33.27712646 35.41857834 -33.87065918 36.00829926 -34.48217773 36.6158905 C-37.0451824 38.9531069 -38.80303428 39.12640888 -42.17089844 39.1418457 C-43.46299225 39.15239738 -43.46299225 39.15239738 -44.78118896 39.16316223 C-46.18114105 39.16940865 -46.18114105 39.16940865 -47.609375 39.17578125 C-49.58073978 39.19898485 -51.55209398 39.22310241 -53.5234375 39.24804688 C-56.63516259 39.28312861 -59.74649988 39.31248488 -62.85839844 39.32592773 C-65.85920399 39.34143269 -68.85887128 39.38166542 -71.859375 39.42578125 C-73.2471817 39.42291862 -73.2471817 39.42291862 -74.6630249 39.41999817 C-82.55283625 39.56886511 -86.7132591 42.44883269 -92.234375 48.00390625 C-92.97300781 48.74447266 -93.71164062 49.48503906 -94.47265625 50.24804688 C-95.22417969 51.01181641 -95.97570312 51.77558594 -96.75 52.5625 C-97.51699219 53.33013672 -98.28398437 54.09777344 -99.07421875 54.88867188 C-105.8564073 61.72260201 -105.8564073 61.72260201 -107.2734375 71.08203125 C-107.29373386 72.50326298 -107.31458479 73.92448688 -107.3359375 75.34570312 C-107.35848628 77.57729706 -107.37498969 79.80858078 -107.38085938 82.0402832 C-107.39043206 84.20059792 -107.42426865 86.35952947 -107.4609375 88.51953125 C-107.46915527 89.80964111 -107.47737305 91.09975098 -107.48583984 92.42895508 C-108.39691025 98.75669814 -112.29785508 102.55009127 -116.73046875 106.890625 C-117.61541016 107.76460937 -118.50035156 108.63859375 -119.41210938 109.5390625 C-120.32798828 110.43367187 -121.24386719 111.32828125 -122.1875 112.25 C-124.01648827 114.0446709 -125.84342256 115.84143826 -127.66796875 117.640625 C-128.47516357 118.42985352 -129.2823584 119.21908203 -130.11401367 120.03222656 C-134.27980335 124.37866861 -133.22214831 129.59942242 -133.25 135.3125 C-133.270625 136.35857422 -133.29125 137.40464844 -133.3125 138.48242188 C-133.31765625 139.49498047 -133.3228125 140.50753906 -133.328125 141.55078125 C-133.34214355 142.93777222 -133.34214355 142.93777222 -133.35644531 144.3527832 C-132.47565232 150.8941794 -127.25055463 155.0273075 -122.77734375 159.453125 C-121.72541588 160.50436554 -121.72541588 160.50436554 -120.65223694 161.57684326 C-119.17441565 163.05165209 -117.69417331 164.52403841 -116.21166992 165.99414062 C-113.93673607 168.25075778 -111.66996628 170.51533515 -109.40429688 172.78125 C-107.96661798 174.21401559 -106.52848268 175.64632338 -105.08984375 177.078125 C-104.06950294 178.09679657 -104.06950294 178.09679657 -103.02854919 179.13604736 C-102.39771927 179.76049744 -101.76688934 180.38494751 -101.11694336 181.02832031 C-100.56195663 181.57949524 -100.00696991 182.13067017 -99.43516541 182.69854736 C-96.36231366 185.48510492 -93.63048668 185.17196099 -89.59765625 185.25634766 C-88.94043076 185.27095032 -88.28320526 185.28555298 -87.60606384 185.30059814 C-81.52629549 185.4268995 -75.44521739 185.49544574 -69.3644104 185.54844093 C-65.28346573 185.58411782 -61.2045064 185.63720001 -57.12451172 185.73388672 C-53.17325519 185.82723102 -49.22375057 185.87544405 -45.27145386 185.89283371 C-43.77230207 185.90684464 -42.27320501 185.93629549 -40.77468872 185.98213577 C-33.09581772 186.20542116 -27.26754269 186.0504456 -21.24511719 180.73022461 C-19.78259426 179.19742453 -18.36429183 177.62085077 -17 176 C-15.95630501 174.78512154 -15.95630501 174.78512154 -14.89152527 173.54570007 C-13.65637508 172.08580894 -12.42383541 170.62370608 -11.19360352 169.15966797 C-5.3667572 162.49769646 -0.55133722 158.06789099 8.5378418 157.36572266 C15.9984315 157.38959252 22.12882186 157.98876132 27.9375 163.0625 C29.33327179 164.67320042 30.69093762 166.31806944 32 168 C33.29775025 169.2653065 34.60911791 170.51689122 35.9375 171.75 C39.6732678 175.3848011 41.86498698 178.42611342 42.32128906 183.74536133 C42.31546167 185.1910253 42.29617725 186.63667841 42.265625 188.08203125 C42.26839708 189.66992426 42.27234023 191.25781558 42.27734375 192.84570312 C42.26901223 195.32776206 42.25006489 197.80853272 42.20947266 200.2902832 C41.64502937 211.08596777 41.64502937 211.08596777 45.92578125 220.51953125 C47.25590431 221.71162907 48.61676793 222.86995858 50 224 C51.6239758 225.6116908 53.23664046 227.23483219 54.83984375 228.8671875 C57.41583351 231.40538281 59.999449 233.9354425 62.58789062 236.4609375 C63.41353516 237.275625 64.23917969 238.0903125 65.08984375 238.9296875 C65.84128662 239.66429199 66.59272949 240.39889648 67.36694336 241.15576172 C69 243 69 243 69 245 C34.73983931 245.16024831 0.47976423 245.2835808 -33.78069034 245.35745731 C-37.8261249 245.36621217 -41.87155873 245.37527244 -45.91699219 245.38452148 C-46.72235969 245.38635766 -47.5277272 245.38819383 -48.35749978 245.39008565 C-61.39519394 245.42053871 -74.43267187 245.4757272 -87.47023779 245.54006957 C-100.84960975 245.60554774 -114.22886853 245.64441512 -127.60839415 245.65861946 C-135.86334163 245.66822085 -144.11767796 245.6985364 -152.3724373 245.75541527 C-158.03430352 245.7924389 -163.69585415 245.80359592 -169.35783261 245.79450964 C-172.62403064 245.790029 -175.8889375 245.80069393 -179.15499496 245.83443832 C-182.70008775 245.86927083 -186.2425664 245.86089427 -189.78771973 245.84178162 C-190.81497303 245.86217151 -191.84222634 245.8825614 -192.90060854 245.90356916 C-199.44427724 245.80821469 -202.76010956 244.39178747 -207.40392733 239.74453312 C-207.93063131 239.16883719 -208.45733529 238.59314126 -209 238 C-210.21780151 236.76890503 -210.21780151 236.76890503 -211.46020508 235.51293945 C-214.41942209 230.68350856 -213.70412554 224.89994736 -213.6862793 219.39038086 C-213.68749178 217.20232548 -213.7472155 215.02101141 -213.81054688 212.83398438 C-213.9576807 201.14344993 -213.9576807 201.14344993 -209.69921875 196.2265625 C-208.49744075 195.1161826 -207.26744787 194.03478972 -206 193 C-205.28070313 192.27167969 -204.56140625 191.54335938 -203.8203125 190.79296875 C-202.67536553 189.70869869 -201.52950892 188.62538847 -200.3828125 187.54296875 C-197.04026238 183.81328711 -197.62965431 178.53407786 -197.5 173.8125 C-197.44585937 172.98685547 -197.39171875 172.16121094 -197.3359375 171.31054688 C-197.23063219 166.53795992 -197.76886512 163.67646986 -200.91796875 160.0078125 C-202.25874567 158.65190381 -203.62131789 157.31734839 -205 156 C-206.59069101 154.36671015 -208.18049269 152.73255382 -209.76953125 151.09765625 C-211.44790854 149.41665855 -213.12893432 147.73830135 -214.8125 146.0625 C-215.67037109 145.20076172 -216.52824219 144.33902344 -217.41210938 143.45117188 C-218.23130859 142.63326172 -219.05050781 141.81535156 -219.89453125 140.97265625 C-221.00598511 139.86289429 -221.00598511 139.86289429 -222.13989258 138.73071289 C-225.54628692 135.56127734 -228.08432945 135.8519887 -232.65283203 135.79467773 C-233.33587402 135.78477814 -234.01891602 135.77487854 -234.72265625 135.76467896 C-236.98433953 135.73304691 -239.24604382 135.70829989 -241.5078125 135.68359375 C-243.07437695 135.66302569 -244.64093583 135.64202925 -246.20748901 135.62062073 C-250.33383682 135.56538478 -254.46023483 135.51598225 -258.58666992 135.46777344 C-262.79610674 135.41756952 -267.0054705 135.36187767 -271.21484375 135.30664062 C-279.47650076 135.19904042 -287.73821882 135.09759961 -296 135 C-295.07810631 124.45116804 -295.07810631 124.45116804 -293.765625 119.8515625 C-293.52336182 118.9968335 -293.28109863 118.14210449 -293.03149414 117.26147461 C-292.77360107 116.39143799 -292.51570801 115.52140137 -292.25 114.625 C-291.98630615 113.71177979 -291.7226123 112.79855957 -291.45092773 111.85766602 C-289.64786555 105.76293738 -287.53905617 100.01252982 -284.78515625 94.27734375 C-283.87357645 91.6333088 -283.91653388 90.55464316 -285 88 C-286.19369555 86.45214056 -286.19369555 86.45214056 -287.6875 85 C-297.28690483 74.17759408 -300.68109258 60.02429827 -300.34765625 45.875 C-298.92115287 29.97509713 -292.38126303 17.93998627 -281 7 C-274.90624464 1.91701108 -268.54281724 -1.57116403 -261 -4 C-260.30648437 -4.22558594 -259.61296875 -4.45117188 -258.8984375 -4.68359375 C-246.0817054 -8.16379254 -230.65640768 -6.84306207 -219.01171875 -0.328125 C-217.35794474 0.74009051 -215.7307513 1.85197009 -214.1484375 3.0234375 C-212.03062581 4.25201042 -212.03062581 4.25201042 -209.74609375 3.45703125 C-206.01774861 1.4788339 -202.34864958 -0.58804488 -198.6875 -2.6875 C-139.24759634 -36.11943284 -57.76610517 -39.13462206 0 0 Z " fill="#A288E5" transform="translate(357,75)"/>
<path d="M0 0 C10.18076416 7.63557312 16.88994167 16.30448237 19 29 C21.23269625 50.89282708 7.12668555 70.05749168 -5.43652344 86.56396484 C-20.43464479 106.360737 -29.34037876 125.77688275 -27 151 C-25.80055324 159.42379623 -23.88482767 167.70854001 -22 176 C-21.29803056 179.16584847 -20.60162462 182.33284103 -19.90893555 185.50073242 C-19.48375335 187.4360282 -19.052095 189.3699179 -18.61254883 191.30200195 C-14.03979409 211.73071363 -13.93161825 234.6560089 -19 255 C-19.16097168 255.65645508 -19.32194336 256.31291016 -19.48779297 256.98925781 C-23.3164773 271.95827341 -29.78910909 286.51624466 -39.3359375 298.6875 C-41.69263833 301.96253965 -42.83923582 305.15496864 -44 309 C-44.66 309 -45.32 309 -46 309 C-46 309.99 -46 310.98 -46 312 C-50.27279605 312.98842729 -53.72307658 313.03045799 -58 312 C-63.69042203 308.40525507 -68.14758308 303.02269336 -72.6875 298.125 C-73.97052623 296.7902898 -75.25631363 295.45822804 -76.54492188 294.12890625 C-87.13049659 283.13195904 -87.13049659 283.13195904 -87.10546875 274.2109375 C-87.11893464 272.61326783 -87.13395958 271.01561068 -87.15039062 269.41796875 C-87.17313795 266.90304406 -87.18757233 264.38952458 -87.17504883 261.87451172 C-86.7359235 249.72556973 -86.7359235 249.72556973 -92.36694336 239.47412109 C-92.90585205 238.98766113 -93.44476074 238.50120117 -94 238 C-95.32064453 236.56527344 -95.32064453 236.56527344 -96.66796875 235.1015625 C-97.91513672 233.87566406 -97.91513672 233.87566406 -99.1875 232.625 C-100.02667969 231.79226562 -100.86585938 230.95953125 -101.73046875 230.1015625 C-107.20595916 225.03131492 -112.38941275 224.60510654 -119.59692383 224.21923828 C-130.65590709 224.67397354 -136.6962224 231.93379812 -143.77084351 239.58807373 C-146.16096139 242.21352877 -148.49937241 244.86956 -150.80541992 247.56982422 C-153.42143416 250.46667657 -154.98775219 251.90051537 -158.92643738 252.28761292 C-160.12142349 252.30428513 -161.31640961 252.32095734 -162.54760742 252.33813477 C-163.20819153 252.34967087 -163.86877563 252.36120697 -164.54937744 252.37309265 C-166.7347654 252.40739797 -168.91987063 252.42590411 -171.10546875 252.44140625 C-171.85397913 252.44830915 -172.60248951 252.45521206 -173.37368202 252.46232414 C-177.33807205 252.49816399 -181.30231979 252.52169775 -185.2668457 252.53540039 C-189.34831847 252.55191596 -193.42804853 252.61028725 -197.50893688 252.67854404 C-200.65841037 252.72348385 -203.8074726 252.7369063 -206.95723915 252.74201775 C-208.46071403 252.7498806 -209.96417773 252.76943237 -211.46733665 252.80124092 C-224.67486032 253.06220125 -224.67486032 253.06220125 -229.54248047 248.88549805 C-230.72346665 247.61624713 -231.87716369 246.32097119 -233 245 C-234.17550802 243.85398266 -235.36030665 242.71741357 -236.55444336 241.59082031 C-237.73564676 240.42268262 -238.91404654 239.25170416 -240.08984375 238.078125 C-241.03483482 237.13812653 -241.03483482 237.13812653 -241.99891663 236.17913818 C-243.31348219 234.86958735 -244.62674117 233.55872368 -245.9387207 232.24658203 C-247.95180117 230.23571455 -249.97278584 228.23301456 -251.99414062 226.23046875 C-253.27652952 224.95100962 -254.55844797 223.67107875 -255.83984375 222.390625 C-256.44392563 221.79372864 -257.04800751 221.19683228 -257.6703949 220.58184814 C-263.59701602 214.62235545 -263.32015805 209.84044463 -263.5 201.8125 C-263.58121094 200.28786133 -263.58121094 200.28786133 -263.6640625 198.73242188 C-263.76010755 193.41907228 -263.52659292 189.89602945 -259.98828125 185.77734375 C-258.68290027 184.49331633 -257.35222155 183.23460228 -256 182 C-254.62639432 180.62229156 -253.25533714 179.24203795 -251.88671875 177.859375 C-249.7717698 175.78194615 -247.6491739 173.71281435 -245.52148438 171.6484375 C-244.83763672 170.97554687 -244.15378906 170.30265625 -243.44921875 169.609375 C-242.83393311 169.01092773 -242.21864746 168.41248047 -241.5847168 167.79589844 C-237.90756696 163.62872633 -237.78880436 160.47520257 -237.90234375 154.9609375 C-237.90641184 153.56120247 -237.90829312 152.16145969 -237.90820312 150.76171875 C-237.91626154 148.57520144 -237.93703039 146.39230742 -237.99633789 144.20654297 C-238.18322665 136.55888116 -238.25213004 130.43571308 -232.8671875 124.4140625 C-231.27192857 122.91332925 -229.65068702 121.43954287 -228 120 C-226.79512048 118.76047339 -225.59992003 117.51140875 -224.41796875 116.25 C-223.34367693 115.16415665 -222.26692223 114.08074343 -221.1875 113 C-220.64158203 112.44183594 -220.09566406 111.88367188 -219.53320312 111.30859375 C-213.5249073 105.27850241 -213.5249073 105.27850241 -208.90240479 104.76863098 C-207.77944 104.78031563 -207.77944 104.78031563 -206.63378906 104.79223633 C-205.77899963 104.79496048 -204.92421021 104.79768463 -204.04351807 104.80049133 C-203.12681335 104.81089951 -202.21010864 104.82130768 -201.265625 104.83203125 C-199.30989097 104.82635211 -197.35416089 104.81914216 -195.3984375 104.81054688 C-192.32599825 104.80637903 -189.25489535 104.8124474 -186.18261719 104.84545898 C-183.20935576 104.87249298 -180.23886178 104.85551077 -177.265625 104.83203125 C-176.35701721 104.85256058 -175.44840942 104.8730899 -174.51226807 104.89424133 C-168.32978053 104.80132098 -165.24619439 103.30162074 -160.86273193 98.96064758 C-160.2480304 98.31363388 -159.63332886 97.66662018 -159 97 C-157.81220368 95.85591618 -156.62214432 94.71417661 -155.4296875 93.57495117 C-154.242056 92.40038337 -153.05722639 91.22297675 -151.875 90.04296875 C-151.24263428 89.41393143 -150.61026855 88.7848941 -149.95874023 88.13679504 C-148.63997877 86.82304776 -147.32252335 85.50798821 -146.00634766 84.19165039 C-143.98227957 82.16979898 -141.95030266 80.15611673 -139.91796875 78.14257812 C-138.63232502 76.8598634 -137.34715111 75.57667758 -136.0625 74.29296875 C-135.14863525 73.38988228 -135.14863525 73.38988228 -134.21630859 72.46855164 C-131.06471089 69.74572117 -131.06471089 69.74572117 -130 66 C-131.78965547 64.63722914 -131.78965547 64.63722914 -134 63.375 C-134.7425 62.92898437 -135.485 62.48296875 -136.25 62.0234375 C-136.8275 61.68570313 -137.405 61.34796875 -138 61 C-133.75237153 55.91462662 -129.29086188 51.20002378 -124.5625 46.5625 C-120.02214052 42.07058276 -115.60039149 37.56356555 -111.46484375 32.69140625 C-106.47910267 26.93453722 -100.7802571 21.93460847 -95 17 C-94.13761719 16.236875 -93.27523437 15.47375 -92.38671875 14.6875 C-66.67111622 -7.58311654 -31.25987668 -19.38957216 0 0 Z " fill="#FEB28D" transform="translate(486,9)"/>
<path d="M0 0 C9.11945842 -0.03155358 18.23789684 -0.02529337 27.35725403 0.02846622 C31.59242065 0.05226142 35.82680239 0.06331565 40.06201172 0.04467773 C44.1538865 0.02714894 48.24435542 0.04383885 52.33605957 0.08367729 C53.89243143 0.09292969 55.44892604 0.0901126 57.00524902 0.07469368 C70.71532905 -0.04788115 70.71532905 -0.04788115 75.69946289 4.24462891 C76.83086826 5.46826894 77.93476615 6.71834097 79 8 C79.90032959 8.85762939 80.80065918 9.71525879 81.72827148 10.59887695 C82.51790283 11.38738037 83.30753418 12.17588379 84.12109375 12.98828125 C84.99314453 13.85904297 85.86519531 14.72980469 86.76367188 15.62695312 C87.64603516 16.51318359 88.52839844 17.39941406 89.4375 18.3125 C90.34693359 19.21806641 91.25636719 20.12363281 92.19335938 21.05664062 C93.05638672 21.92095703 93.91941406 22.78527344 94.80859375 23.67578125 C95.98119751 24.8500769 95.98119751 24.8500769 97.17749023 26.0480957 C100.91417484 30.05007741 100.21896866 34.09535634 100.25 39.3125 C100.2809375 40.59543945 100.2809375 40.59543945 100.3125 41.90429688 C100.35465299 48.70673624 99.07034589 51.80519051 94.3359375 56.82421875 C93.35400372 57.78383585 92.36691635 58.73820506 91.375 59.6875 C84.55187374 66.27444112 84.60744672 71.04719816 84.43017578 80.2734375 C84.39373285 81.74405498 84.33937832 83.21435038 84.26611328 84.68359375 C83.87543379 92.64841434 83.80924433 98.66080234 89.4140625 104.96875 C91.55875354 107.0101702 93.35695132 108.67847566 96 110 C96 110.66 96 111.32 96 112 C94.18715767 111.99333817 94.18715767 111.99333817 92.33769226 111.98654175 C80.96305786 111.94604555 69.58843804 111.91603961 58.21374798 111.89637566 C52.3655313 111.88592649 46.5173727 111.8717466 40.66918945 111.84912109 C35.02821594 111.82743316 29.38729837 111.81543992 23.74628639 111.81024551 C21.59124686 111.80654247 19.43621048 111.79931163 17.28119469 111.78853989 C14.26901949 111.77407884 11.25707722 111.7720198 8.24487305 111.77294922 C6.90051933 111.76216339 6.90051933 111.76216339 5.52900696 111.75115967 C4.29856155 111.75528366 4.29856155 111.75528366 3.04325867 111.75949097 C2.33071269 111.75764738 1.61816671 111.75580379 0.88402843 111.75390434 C-1.33237617 111.90217476 -1.33237617 111.90217476 -4 114 C-4.45396333 116.81368308 -4.45396333 116.81368308 -4.37231445 120.16210938 C-4.37854324 121.45685181 -4.38477203 122.75159424 -4.39118958 124.08557129 C-4.38250177 125.50496809 -4.37318382 126.92436115 -4.36328125 128.34375 C-4.3627628 129.79341634 -4.36327992 131.24308338 -4.36479187 132.69274902 C-4.36470209 135.73260986 -4.35426065 138.77220582 -4.33618164 141.81201172 C-4.31349402 145.71296053 -4.31294962 149.61352212 -4.31969929 153.51451874 C-4.32303721 156.50847834 -4.31641258 159.50234931 -4.30657005 162.49629211 C-4.30271468 163.93483517 -4.30157123 165.37338808 -4.3031559 166.81193542 C-4.30352581 168.82060959 -4.28944585 170.82927086 -4.2746582 172.83789062 C-4.27005081 173.98213501 -4.26544342 175.12637939 -4.26069641 176.30529785 C-4.27366273 179.15015747 -4.27366273 179.15015747 -2 181 C0.68179432 181.26975183 0.68179432 181.26975183 3.8515625 181.17602539 C5.08044189 181.16684586 6.30932129 181.15766632 7.57543945 181.14820862 C8.23468414 181.13941744 8.89392883 181.13062626 9.57315063 181.12156868 C12.35369439 181.08916398 15.13386534 181.09159955 17.91456604 181.09185696 C23.08983599 181.0917135 28.26416822 181.07700681 33.43896484 181.00366211 C37.04051124 180.95395987 40.63985271 180.94884836 44.24163818 180.97179985 C45.60667919 180.97236436 46.97183408 180.95692459 48.33648682 180.92436409 C55.9536522 180.7501755 60.88459535 181.16487745 66.68481445 186.37866211 C68.13671704 187.90638373 69.57656519 189.44571952 71 191 C73.32271683 192.93996436 75.73405984 194.72929515 78.1875 196.5 C78.82349121 196.96011475 79.45948242 197.42022949 80.11474609 197.89428711 C112.50305267 220.99518098 149.48305091 232.64102653 189 235 C188.31762621 255.39466536 184.66255093 282.54603763 169.46484375 297.51171875 C162.41884023 303.80086255 154.99582273 303.56406333 146.01416016 303.15234375 C132.10414388 302.1002407 122.02753352 295.20495232 111.40429688 286.88598633 C98.41469808 276.7757486 85.82385697 270.43026274 68.9296875 272.3984375 C56.93212514 274.11868129 45.19158719 277.30970906 33.48510742 280.38330078 C18.41745632 284.12245853 3.80812494 283.13791214 -9.70703125 275.40625 C-15.35384597 271.97491697 -19.92547932 267.80477134 -24.5625 263.125 C-25.39023926 262.29000977 -26.21797852 261.45501953 -27.07080078 260.59472656 C-48.50829082 238.29770454 -53.46867197 206.3325601 -53.1484375 176.44140625 C-52.31304965 137.50000701 -36.57661529 101.24686468 -10 73 C-8.65709822 71.57143469 -7.32303429 70.13448455 -6 68.6875 C-5.443125 68.09324219 -4.88625 67.49898438 -4.3125 66.88671875 C-1.70047982 63.13193974 -1.90379925 59.44411727 -2.4375 55.0625 C-3.75033611 40.69132066 -3.25301612 26.56561387 -1.484375 12.2578125 C-1.34241699 11.07131104 -1.20045898 9.88480957 -1.05419922 8.66235352 C-0.70791698 5.77424326 -0.35644532 2.88687042 0 0 Z " fill="#FED1D1" transform="translate(60,209)"/>
<path d="M0 0 C10.18076416 7.63557312 16.88994167 16.30448237 19 29 C21.23269625 50.89282708 7.12668555 70.05749168 -5.43652344 86.56396484 C-20.43464479 106.360737 -29.34037876 125.77688275 -27 151 C-25.80055324 159.42379623 -23.88482767 167.70854001 -22 176 C-21.29803056 179.16584847 -20.60162462 182.33284103 -19.90893555 185.50073242 C-19.48375335 187.4360282 -19.052095 189.3699179 -18.61254883 191.30200195 C-14.03979409 211.73071363 -13.93161825 234.6560089 -19 255 C-19.16097168 255.65645508 -19.32194336 256.31291016 -19.48779297 256.98925781 C-23.54024809 272.83315056 -30.56945876 288.35261349 -41 301 C-42.15694559 297.52916323 -41.78802064 296.38240381 -40.85546875 292.9140625 C-40.59145264 291.90698242 -40.32743652 290.89990234 -40.05541992 289.86230469 C-39.76900635 288.79399414 -39.48259277 287.72568359 -39.1875 286.625 C-26.30485909 236.86170346 -32.8785612 183.28879937 -58.42822266 138.49609375 C-64.22267455 128.71712961 -70.44027591 119.5046896 -78 111 C-78.680625 110.21109375 -79.36125 109.4221875 -80.0625 108.609375 C-82.32903635 106.02619019 -84.64859221 103.50624781 -87 101 C-87.49064941 100.47535156 -87.98129883 99.95070313 -88.48681641 99.41015625 C-100.20058372 86.99004912 -113.13653677 76.44870542 -128 68 C-129.72006416 66.95659772 -131.42881017 65.89428051 -133.125 64.8125 C-134.24261719 64.11060547 -134.24261719 64.11060547 -135.3828125 63.39453125 C-135.91648437 62.93433594 -136.45015625 62.47414063 -137 62 C-137 59 -137 59 -135.27514648 56.95043945 C-134.48180908 56.17917725 -133.68847168 55.40791504 -132.87109375 54.61328125 C-131.56495117 53.3284082 -131.56495117 53.3284082 -130.23242188 52.01757812 C-129.31009766 51.12490234 -128.38777344 50.23222656 -127.4375 49.3125 C-121.93015142 43.93996053 -116.47905868 38.60752889 -111.5 32.73535156 C-106.50746045 26.95947735 -100.79439149 21.94667501 -95 17 C-94.13761719 16.236875 -93.27523437 15.47375 -92.38671875 14.6875 C-66.67111622 -7.58311654 -31.25987668 -19.38957216 0 0 Z " fill="#FEB7B7" transform="translate(486,9)"/>
<path d="M0 0 C1.5128974 1.18740312 2.99319476 2.41755233 4.4375 3.6875 C5.22511719 4.3784375 6.01273437 5.069375 6.82421875 5.78125 C17.07226356 15.40255488 25.10105906 29.44844152 25.640625 43.7265625 C25.92251113 60.00149778 22.4165515 74.65407715 11.8125 87.5 C1.00651159 98.65926111 -12.87851148 105.81041569 -28.5 106.890625 C-45.03887448 107.14377104 -59.41611484 102.74363131 -72.16796875 92.03125 C-78.193251 86.13374699 -83.13041793 79.80161453 -85.5625 71.6875 C-85.91570312 70.883125 -86.26890625 70.07875 -86.6328125 69.25 C-91.77160475 56.76463808 -91.59616888 40.17316736 -86.87890625 27.56640625 C-79.29379797 10.97820208 -68.43991993 0.97218724 -51.9609375 -6.453125 C-34.66040025 -12.65201457 -15.34028201 -10.1478218 0 0 Z " fill="#FEAA67" transform="translate(400.5625,358.3125)"/>
<path d="M0 0 C9.11945842 -0.03155358 18.23789684 -0.02529337 27.35725403 0.02846622 C31.59242065 0.05226142 35.82680239 0.06331565 40.06201172 0.04467773 C44.1538865 0.02714894 48.24435542 0.04383885 52.33605957 0.08367729 C53.89243143 0.09292969 55.44892604 0.0901126 57.00524902 0.07469368 C70.71532905 -0.04788115 70.71532905 -0.04788115 75.69946289 4.24462891 C76.83086826 5.46826894 77.93476615 6.71834097 79 8 C79.90032959 8.85762939 80.80065918 9.71525879 81.72827148 10.59887695 C82.51790283 11.38738037 83.30753418 12.17588379 84.12109375 12.98828125 C84.99314453 13.85904297 85.86519531 14.72980469 86.76367188 15.62695312 C87.64603516 16.51318359 88.52839844 17.39941406 89.4375 18.3125 C90.34693359 19.21806641 91.25636719 20.12363281 92.19335938 21.05664062 C93.05638672 21.92095703 93.91941406 22.78527344 94.80859375 23.67578125 C95.98119751 24.8500769 95.98119751 24.8500769 97.17749023 26.0480957 C100.91417484 30.05007741 100.21896866 34.09535634 100.25 39.3125 C100.270625 40.16779297 100.29125 41.02308594 100.3125 41.90429688 C100.35465299 48.70673624 99.07034589 51.80519051 94.3359375 56.82421875 C93.35400372 57.78383585 92.36691635 58.73820506 91.375 59.6875 C84.55187374 66.27444112 84.60744672 71.04719816 84.43017578 80.2734375 C84.39373285 81.74405498 84.33937832 83.21435038 84.26611328 84.68359375 C83.87543379 92.64841434 83.80924433 98.66080234 89.4140625 104.96875 C91.55875354 107.0101702 93.35695132 108.67847566 96 110 C96 110.66 96 111.32 96 112 C68.28 112 40.56 112 12 112 C8.8127164 104.35051936 5.9677154 97.28855648 3.875 89.375 C3.49661987 87.96275146 3.49661987 87.96275146 3.1105957 86.52197266 C-3.26758526 62.05268868 -4.58284622 37.32355937 -1.484375 12.2578125 C-1.34241699 11.07131104 -1.20045898 9.88480957 -1.05419922 8.66235352 C-0.70791698 5.77424326 -0.35644532 2.88687042 0 0 Z " fill="#FEA988" transform="translate(60,209)"/>
<path d="M0 0 C11.77981783 9.18979274 20.91833934 21.09239407 24.3984375 35.87109375 C24.84254019 39.63148497 24.92294665 43.3369434 24.8984375 47.12109375 C24.89344238 48.13453857 24.88844727 49.1479834 24.88330078 50.19213867 C24.6929746 58.39125927 23.34963393 64.59753852 19.3984375 71.87109375 C18.96402344 72.74507813 18.52960938 73.6190625 18.08203125 74.51953125 C11.09351767 87.46122307 0.5632452 94.33803261 -12.6015625 99.87109375 C-13.98021484 100.46277344 -13.98021484 100.46277344 -15.38671875 101.06640625 C-26.89170525 103.94614771 -42.111263 103.55411568 -52.6015625 97.87109375 C-53.73658203 97.32775391 -53.73658203 97.32775391 -54.89453125 96.7734375 C-70.21706714 88.99349243 -78.97060856 77.6915969 -84.3515625 61.6328125 C-88.09411903 47.83213531 -85.87401129 31.96630191 -78.9140625 19.55859375 C-70.83177377 7.36426338 -60.6129821 -1.61713845 -46.6015625 -6.12890625 C-45.90804687 -6.35449219 -45.21453125 -6.58007812 -44.5 -6.8125 C-29.9425852 -10.76535608 -12.59294834 -8.38832605 0 0 Z " fill="#FE6A6B" transform="translate(142.6015625,77.12890625)"/>
<path d="M0 0 C4.05602714 1.61623263 6.76955528 4.50152676 9.77832031 7.55126953 C10.34461151 8.11726868 10.91090271 8.68326782 11.49435425 9.26641846 C13.36039238 11.1338472 15.21925096 13.00825462 17.078125 14.8828125 C18.37234554 16.18076411 19.66700905 17.47827416 20.96209717 18.77536011 C24.36625646 22.18714836 27.76436634 25.60490052 31.16125488 29.02392578 C34.62991407 32.5130592 38.10425583 35.99652387 41.578125 39.48046875 C48.39099302 46.31477368 55.1974842 53.15539203 62 60 C60 61.33333333 58 62.66666667 56 64 C55.58333333 66.5 55.58333333 66.5 56 69 C57.98303808 71.27468189 57.98303808 71.27468189 61.4375 72.1875 C65.91195302 74.4639761 66.23258251 76.45521217 68 81 C69.9172483 82.23075102 69.9172483 82.23075102 72 82 C75.30736863 80.21708544 75.30736863 80.21708544 76.3125 76.5 C78 73 78 73 80.9375 71.5 C83.96452826 71.0057913 85.18838126 70.99505741 88 72 C90.83646125 74.14281243 93.28931219 76.68800409 95.8125 79.1875 C96.87114258 80.1784668 96.87114258 80.1784668 97.95117188 81.18945312 C99.84118136 83.05369812 101.52359344 84.79271332 103 87 C102.8828125 90.34765625 102.8828125 90.34765625 102 93 C102.94054984 95.36549876 102.94054984 95.36549876 105 97 C106.5159375 97.37125 106.5159375 97.37125 108.0625 97.75 C111 99 111 99 111.83203125 100.8984375 C112.32263442 102.91026345 112.67026445 104.95563957 113 107 C115.31 107 117.62 107 120 107 C120.18433594 106.46890625 120.36867188 105.9378125 120.55859375 105.390625 C120.84863281 104.68421875 121.13867188 103.9778125 121.4375 103.25 C121.70433594 102.55390625 121.97117187 101.8578125 122.24609375 101.140625 C124 99 124 99 133 95 C143.395 105.395 143.395 105.395 154 116 C153.34 116.66 152.68 117.32 152 118 C151.39414063 117.66226563 150.78828125 117.32453125 150.1640625 116.9765625 C130.30656716 106.40626498 110.34829254 113.14455625 89.83007812 118.57421875 C73.29727761 122.9479755 57.30666332 122.99518618 42.29296875 114.40625 C36.64615403 110.97491697 32.07452068 106.80477134 27.4375 102.125 C26.60976074 101.29000977 25.78202148 100.45501953 24.92919922 99.59472656 C4.89723693 78.75958664 -1.24991816 48.68986385 -1.125 20.5 C-1.12886719 19.62730469 -1.13273438 18.75460937 -1.13671875 17.85546875 C-1.12782129 11.84968033 -0.70299313 5.96343151 0 0 Z " fill="#FFD5D5" transform="translate(8,370)"/>
<path d="M0 0 C1.0494429 0.00674492 1.0494429 0.00674492 2.12008667 0.0136261 C4.42670094 0.03266513 6.7322863 0.07395924 9.03857422 0.11669922 C10.64231252 0.13712661 12.24606278 0.15663484 13.849823 0.17526245 C17.20740451 0.2177696 20.56458467 0.27126725 23.921875 0.33251953 C28.23060143 0.41026532 32.5391437 0.46090259 36.8483448 0.50340462 C40.15814379 0.53897306 43.46761283 0.5886939 46.77715683 0.64275742 C48.36636196 0.66702538 49.95564061 0.68688433 51.54495621 0.70230484 C53.76226666 0.72596654 55.97840909 0.76860314 58.1953125 0.81640625 C59.45787872 0.83655792 60.72044495 0.85670959 62.02127075 0.87747192 C62.99377777 1.01571381 63.96628479 1.15395569 64.96826172 1.29638672 C67.32258007 4.82786424 67.2211309 6.29751301 67.22705078 10.48022461 C67.2333551 11.75487076 67.23965942 13.02951691 67.24615479 14.3427887 C67.24257538 15.73487486 67.23847351 17.12695976 67.23388672 18.51904297 C67.23523384 19.9448605 67.23717477 21.37067758 67.23968506 22.79649353 C67.24263316 25.78323748 67.2383482 28.76986176 67.22900391 31.7565918 C67.2175991 35.58911422 67.22417715 39.42135685 67.23614883 43.25386906 C67.24336714 46.19720071 67.24107985 49.14046573 67.23589325 52.08379936 C67.2345572 53.49722769 67.23620291 54.91066202 67.24085236 56.32408333 C67.24591795 58.2967022 67.23683133 60.26934223 67.22705078 62.24194336 C67.22545959 63.36540665 67.22386841 64.48886993 67.222229 65.64637756 C66.96826172 68.29638672 66.96826172 68.29638672 64.96826172 70.29638672 C56.67712422 71.91012566 47.84530824 71.47181053 39.43701172 71.49951172 C38.4317318 71.50375278 38.4317318 71.50375278 37.40614319 71.50807953 C33.87541326 71.52292349 30.3447228 71.53225213 26.81396484 71.53662109 C23.17452005 71.54215653 19.53543984 71.56633097 15.89611053 71.59459305 C13.08401389 71.61318279 10.27200704 71.61842253 7.45985413 71.61995697 C5.46615267 71.6244461 3.47249929 71.64308144 1.47888184 71.66192627 C-0.32945129 71.65742462 -0.32945129 71.65742462 -2.17431641 71.65283203 C-3.23589966 71.65647766 -4.29748291 71.66012329 -5.39123535 71.66387939 C-8.03173828 71.29638672 -8.03173828 71.29638672 -9.87257385 70.16534424 C-11.56979197 67.42886571 -11.42058103 65.24304952 -11.43579102 62.03662109 C-11.44847519 60.74518188 -11.46115936 59.45374268 -11.47422791 58.12316895 C-11.47217661 56.71215658 -11.46918871 55.30114531 -11.46533203 53.89013672 C-11.46989239 52.44429274 -11.47519753 50.99845094 -11.48121643 49.5526123 C-11.49015187 46.52294099 -11.48771931 43.49353322 -11.4777832 40.46386719 C-11.46628626 36.57963137 -11.48651258 32.69630368 -11.51570034 28.81218719 C-11.53403736 25.82674373 -11.5337751 22.84151896 -11.52806282 19.85603333 C-11.52790933 18.42388128 -11.53397658 16.99171466 -11.54635429 15.55961609 C-11.56121418 13.55851206 -11.5479832 11.55725876 -11.53344727 9.55615234 C-11.5332811 8.41714478 -11.53311493 7.27813721 -11.53294373 6.10461426 C-11.03173828 3.29638672 -11.03173828 3.29638672 -9.43986511 1.42367554 C-6.16481117 -0.10943794 -3.61462695 -0.0439709 0 0 Z " fill="#A972C7" transform="translate(66.03173828125,319.70361328125)"/>
<path d="M0 0 C24.42 0 48.84 0 74 0 C74 9.24 74 18.48 74 28 C76.83425608 36.5607133 76.83425608 36.5607133 80 45 C63.36480189 50.89112967 45.67071008 54.49196709 28 55 C26.14375 55.05994141 26.14375 55.05994141 24.25 55.12109375 C10.23406041 55.41291678 -4.20882612 54.57280723 -18 52 C-19.03270675 36.24165992 -19.03270675 36.24165992 -15.5625 31.5 C-13.92578125 29.73828125 -13.92578125 29.73828125 -12 28 C-11.23042969 27.29230469 -10.46085938 26.58460938 -9.66796875 25.85546875 C-8.1182945 24.4660193 -6.54806093 23.09896945 -4.953125 21.76171875 C2.07092526 15.42602542 -0.69921204 11.88660474 0 0 Z " fill="#B674BC" transform="translate(238,390)"/>
<path d="M0 0 C1.94119159 2.91178739 2.45348911 4.42269358 3.11328125 7.76171875 C3.30696289 8.70869629 3.50064453 9.65567383 3.70019531 10.63134766 C3.90225586 11.63987793 4.10431641 12.6484082 4.3125 13.6875 C6.09086329 22.25341728 8.21344531 30.52506097 10.984375 38.8203125 C11.85604285 41.54930339 12.51075194 44.18150577 13 47 C12.16855469 47.04898438 11.33710937 47.09796875 10.48046875 47.1484375 C8.85044922 47.26058594 8.85044922 47.26058594 7.1875 47.375 C6.10855469 47.44460938 5.02960937 47.51421875 3.91796875 47.5859375 C0.81373814 47.81195733 0.81373814 47.81195733 -2 50 C-2.45396333 52.81368308 -2.45396333 52.81368308 -2.37231445 56.16210938 C-2.37854324 57.45685181 -2.38477203 58.75159424 -2.39118958 60.08557129 C-2.38250177 61.50496809 -2.37318382 62.92436115 -2.36328125 64.34375 C-2.3627628 65.79341634 -2.36327992 67.24308338 -2.36479187 68.69274902 C-2.36470209 71.73260986 -2.35426065 74.77220582 -2.33618164 77.81201172 C-2.31349402 81.71296053 -2.31294962 85.61352212 -2.31969929 89.51451874 C-2.32303721 92.50847834 -2.31641258 95.50234931 -2.30657005 98.49629211 C-2.30271468 99.93483517 -2.30157123 101.37338808 -2.3031559 102.81193542 C-2.30352581 104.82060959 -2.28944585 106.82927086 -2.2746582 108.83789062 C-2.27005081 109.98213501 -2.26544342 111.12637939 -2.26069641 112.30529785 C-2.27366273 115.15015747 -2.27366273 115.15015747 0 117 C1.72465144 116.99338296 3.44987203 116.97864027 5.17324066 116.91180515 C12.62474727 116.75278322 17.39178838 118.01276396 22.86523438 123.16235352 C25.1762961 125.42391762 27.38682926 127.76625818 29.59375 130.12890625 C30.80066214 131.36385738 32.01097521 132.59549299 33.2244873 133.82395935 C36.38242509 137.03869021 39.49267621 140.29583313 42.59454346 143.5645752 C45.77849123 146.90303404 49.00629506 150.19850443 52.23046875 153.49804688 C58.5301887 159.95778369 64.78027974 166.46326494 71 173 C69 174 69 174 66.5625 174.125 C63.57420552 174.81304172 63.57420552 174.81304172 62.1875 178.5625 C61.795625 179.696875 61.40375 180.83125 61 182 C55.07314927 177.0686789 49.58366573 171.77593817 44.1015625 166.35791016 C43.12368506 165.39451155 42.14566907 164.43125355 41.16752625 163.46812439 C32.30489076 154.73486561 23.47334631 145.96992327 14.64927673 137.19771767 C8.13372152 130.72117223 1.60378239 124.25986972 -4.94552994 117.81745875 C-9.56084355 113.27495346 -14.15886966 108.71539645 -18.74451828 104.14294851 C-21.48032639 101.416002 -24.22328482 98.69727565 -26.98529053 95.99684525 C-29.57913523 93.46019617 -32.15093951 90.90312999 -34.70741844 88.32884407 C-36.09641587 86.94114414 -37.50769747 85.57586183 -38.91950989 84.21138 C-44.82003414 78.21161373 -44.82003414 78.21161373 -45.34207916 74.69696426 C-45.09802246 72.53683472 -45.09802246 72.53683472 -44 69 C-43.76732422 68.17822266 -43.53464844 67.35644531 -43.29492188 66.50976562 C-43.02228516 65.81560547 -42.74964844 65.12144531 -42.46875 64.40625 C-42.00202881 63.21443115 -42.00202881 63.21443115 -41.52587891 61.99853516 C-41.18733887 61.17401855 -40.84879883 60.34950195 -40.5 59.5 C-40.14470215 58.62778809 -39.7894043 57.75557617 -39.42333984 56.85693359 C-31.90810606 38.87088959 -21.28025046 23.21305918 -8 9 C-6.66050723 7.48458886 -5.32668646 5.96413514 -4 4.4375 C-1.09230769 1.09230769 -1.09230769 1.09230769 0 0 Z " fill="#FED2D2" transform="translate(58,273)"/>
<path d="M0 0 C5.95986961 4.9389815 11.41135111 10.28234387 16.86669922 15.76904297 C17.84124225 16.74550866 18.81601579 17.72174435 19.79100037 18.69776917 C21.87675864 20.78666995 23.96095794 22.87710909 26.0439415 24.9687767 C29.33529101 28.2737111 32.63050769 31.57477163 35.92630005 34.87527466 C42.91217695 41.8722153 49.89379061 48.8734028 56.875 55.875 C64.43333621 63.45536191 71.99240992 71.03497993 79.55634129 78.60975945 C82.83573243 81.8941441 86.11266792 85.18095381 89.38776851 88.46961665 C91.41736026 90.50663614 93.44899331 92.54161004 95.48120308 94.57601738 C96.87938667 95.97698267 98.27505674 97.38045506 99.67066956 98.78398132 C100.49492935 99.60831161 101.31918915 100.43264191 102.16842651 101.2819519 C102.88847303 102.00421904 103.60851955 102.72648617 104.35038567 103.47064018 C105.74730814 105.113312 105.74730814 105.113312 107 105 C107.268125 104.05125 107.53625 103.1025 107.8125 102.125 C109 99 109 99 112 97 C113.32 97 114.64 97 116 97 C115.32348389 96.3257045 114.64696777 95.651409 113.94995117 94.9566803 C107.58997611 88.6169339 101.2326105 82.2745813 94.87782288 75.92963505 C91.61029798 72.66733969 88.34184488 69.40598549 85.07128906 66.14672852 C81.91796128 63.00422713 78.76704772 59.85932402 75.61782837 56.71270561 C74.41295931 55.50969125 73.20720723 54.30756063 72.00057983 53.10630989 C70.31708497 51.43002217 68.63669291 49.75068399 66.95703125 48.07055664 C66.45209137 47.56921204 65.94715149 47.06786743 65.4269104 46.55133057 C62 43.11405216 62 43.11405216 62 42 C69.15506423 41.44763689 69.15506423 41.44763689 72.84284973 43.8584671 C74.1481086 45.17478748 74.1481086 45.17478748 75.47973633 46.5177002 C75.97251446 47.00364293 76.46529259 47.48958566 76.97300339 47.99025393 C78.61227441 49.6163922 80.22138278 51.26937265 81.83203125 52.92382812 C83.00389097 54.0979454 84.17751706 55.27030196 85.35276794 56.44102478 C88.53357696 59.61953994 91.68912993 62.82210218 94.8407135 66.029562 C98.14020265 69.37908683 101.46238566 72.70594602 104.78222656 76.03527832 C111.06321555 82.34112479 117.32353517 88.66708424 123.57668114 95.00052881 C130.6975361 102.21082603 137.8411411 109.39839988 144.98674583 116.58415699 C159.683282 131.364297 174.35101989 146.17273455 189 161 C183.68717084 162.77094305 178.83548476 159.34816706 174 157 C163.58406205 151.17102659 153.91917458 143.85833684 146.2109375 134.71484375 C142.88074271 130.79049526 139.28725859 127.17506197 135.625 123.5625 C134.98433594 122.92634766 134.34367188 122.29019531 133.68359375 121.63476562 C132.12469121 120.08749668 130.56348584 118.54263508 129 117 C127.53571343 117.57490572 126.07870069 118.16836067 124.625 118.76953125 C123.81289062 119.09800049 123.00078125 119.42646973 122.1640625 119.76489258 C118.63032523 121.78172209 118.14683824 124.20109834 117 128 C116.67 128.33 116.34 128.66 116 129 C113.66055264 128.71269945 111.3260857 128.38063221 109 128 C108.85304688 127.44570313 108.70609375 126.89140625 108.5546875 126.3203125 C107.85717137 124.06741557 107.14662108 122.06391794 106 120 C103.0497509 118.68314723 103.0497509 118.68314723 100 118 C98.0625 116.25 98.0625 116.25 97 114 C97.28617187 113.12730469 97.57234375 112.25460937 97.8671875 111.35546875 C98.02192183 107.44615149 97.55339013 106.95795048 95.09765625 104.09765625 C93.7713199 102.73414531 92.42531457 101.38955187 91.0625 100.0625 C90.40958984 99.36576172 89.75667969 98.66902344 89.08398438 97.95117188 C85.48727937 94.30607265 85.48727937 94.30607265 80.78735352 92.64624023 C78.34003746 92.74960721 78.34003746 92.74960721 75 94 C73.39700452 95.70201296 73.39700452 95.70201296 72.8125 97.9375 C71.24521929 101.86624402 71.24521929 101.86624402 68.25 103.5 C67.5075 103.665 66.765 103.83 66 104 C61.08108108 99.45945946 61.08108108 99.45945946 60.625 96.875 C60.41875 96.25625 60.2125 95.6375 60 95 C56.57831151 93.33118065 56.57831151 93.33118065 53 92 C51 90 51 90 50.5 87.625 C51 85 51 85 54.03125 82.8359375 C55.0109375 82.23007812 55.990625 81.62421875 57 81 C55.87247314 79.89912048 55.87247314 79.89912048 54.72216797 78.77600098 C47.63749567 71.85357092 40.57409569 64.91005941 33.53091431 57.94541168 C29.90930202 54.36553227 26.28063664 50.79346505 22.63476562 47.23828125 C19.11586962 43.80637212 15.61693891 40.35522734 12.13092041 36.88993835 C10.79822545 35.57201395 9.4585134 34.26114613 8.11175537 32.95759583 C6.22464721 31.12865517 4.36417543 29.27608425 2.5078125 27.41601562 C1.94676819 26.88373352 1.38572388 26.35145142 0.80767822 25.80303955 C-2.02680571 22.90681103 -3.33594866 20.82477431 -3.38525391 16.82556152 C-3.01032195 13.10249671 -2.40713964 9.62855856 -1.5 6 C-1.2215625 4.865625 -0.943125 3.73125 -0.65625 2.5625 C-0.33140625 1.2940625 -0.33140625 1.2940625 0 0 Z " fill="#FFD3D3" transform="translate(12,349)"/>
<path d="M0 0 C4.88896118 4.09769323 9.47947327 8.35420252 13.95703125 12.89453125 C14.58606857 13.52735519 15.2151059 14.16017914 15.86320496 14.81217957 C17.8487756 16.80985086 19.83103376 18.81075807 21.8125 20.8125 C24.44115474 23.46769724 27.07307321 26.11959605 29.70703125 28.76953125 C30.61011772 29.68506523 30.61011772 29.68506523 31.53144836 30.61909485 C36.1362752 35.25118812 37.92674471 36.12084624 44.40234375 36.25634766 C45.05956924 36.27095032 45.71679474 36.28555298 46.39393616 36.30059814 C52.47370451 36.4268995 58.55478261 36.49544574 64.6355896 36.54844093 C68.71653427 36.58411782 72.7954936 36.63720001 76.87548828 36.73388672 C80.82674481 36.82723102 84.77624943 36.87544405 88.72854614 36.89283371 C90.22769793 36.90684464 91.72679499 36.93629549 93.22531128 36.98213577 C100.90418228 37.20542116 106.73245731 37.0504456 112.75488281 31.73022461 C114.21740574 30.19742453 115.63570817 28.62085077 117 27 C117.69579666 26.19008102 118.39159332 25.38016205 119.10847473 24.54570007 C120.34362492 23.08580894 121.57616459 21.62370608 122.80639648 20.15966797 C128.6332428 13.49769646 133.44866278 9.06789099 142.5378418 8.36572266 C149.9984315 8.38959252 156.12882186 8.98876132 161.9375 14.0625 C163.33433294 15.67228025 164.69186512 17.31734797 166 19 C167.3176375 20.30767426 168.64970003 21.60108064 170 22.875 C174.89172614 27.74320822 174.89172614 27.74320822 175.22705078 31.63549805 C175.21134033 33.18297729 175.21134033 33.18297729 175.1953125 34.76171875 C175.18564453 36.43911133 175.18564453 36.43911133 175.17578125 38.15039062 C175.15064453 39.90125977 175.15064453 39.90125977 175.125 41.6875 C175.11597656 42.86634766 175.10695313 44.04519531 175.09765625 45.25976562 C175.07406423 48.17338026 175.0411454 51.08658892 175 54 C172.41258939 51.45120746 169.96606327 48.95780839 167.6875 46.125 C164.55821349 42.27587762 160.77065434 39.19800824 157 36 C156.67 35.67 156.34 35.34 156 35 C152.65775921 34.60784829 149.29946414 34.58150216 145.9375 34.5 C145.00744141 34.44585937 144.07738281 34.39171875 143.11914062 34.3359375 C138.06041414 34.23639826 134.80766484 34.59158356 130.890625 37.9375 C129.56673382 39.26526664 128.27117222 40.62167736 127 42 C126.26595947 42.75216797 125.53191895 43.50433594 124.77563477 44.27929688 C121.63393394 47.50006125 118.51913428 50.74376711 115.44726562 54.03125 C114.68736328 54.815 113.92746094 55.59875 113.14453125 56.40625 C112.46753174 57.12103516 111.79053223 57.83582031 111.09301758 58.57226562 C109 60 109 60 106.3659668 59.78710938 C104 59 104 59 102 58 C97.22095697 57.48803853 97.22095697 57.48803853 93.09796143 59.48739624 C90.49244566 61.36594028 88.99518464 61.40095673 85.80761719 61.45166016 C84.25515289 61.48521103 84.25515289 61.48521103 82.67132568 61.5194397 C81.55775696 61.52591522 80.44418823 61.53239075 79.296875 61.5390625 C78.1451178 61.55141937 76.9933606 61.56377625 75.80670166 61.57650757 C73.36907024 61.59607708 70.93135975 61.60730647 68.49365234 61.61083984 C64.77696554 61.624898 61.06366469 61.69220075 57.34765625 61.76171875 C54.97657742 61.77412092 52.60547936 61.78333859 50.234375 61.7890625 C49.1289032 61.81578033 48.0234314 61.84249817 46.88446045 61.87002563 C41.43671246 61.82242029 37.8773119 61.49295579 33.66259766 57.86962891 C32.41872829 56.60192099 31.19693404 55.31211405 30 54 C28.85561562 52.88950651 27.70679789 51.78356024 26.55322266 50.68261719 C25.42085245 49.55669553 24.29119179 48.42804317 23.1640625 47.296875 C22.255923 46.39017059 22.255923 46.39017059 21.32943726 45.46514893 C20.06621658 44.20260206 18.80423077 42.9388185 17.54345703 41.67382812 C15.61214044 39.73710444 13.67547546 37.80584276 11.73828125 35.875 C10.50488717 34.64094591 9.27180289 33.40658208 8.0390625 32.171875 C7.46201569 31.59685242 6.88496887 31.02182983 6.29043579 30.42938232 C0.11251441 24.21503466 0.11251441 24.21503466 -0.22705078 20.5480957 C-0.21657715 19.60023193 -0.20610352 18.65236816 -0.1953125 17.67578125 C-0.18886719 16.64775391 -0.18242187 15.61972656 -0.17578125 14.56054688 C-0.15064453 12.95276367 -0.15064453 12.95276367 -0.125 11.3125 C-0.11597656 10.22904297 -0.10695312 9.14558594 -0.09765625 8.02929688 C-0.0740734 5.3526429 -0.04116126 2.67643203 0 0 Z " fill="#9D76D8" transform="translate(223,224)"/>
<path d="M0 0 C6.91406186 5.55734029 11.67341259 12.84777912 13.0703125 21.6640625 C14.01838263 32.65235071 11.71074882 41.22992146 4.7578125 49.8515625 C-1.4834093 56.55509702 -9.2034022 61.02563706 -18.36328125 62.046875 C-29.7780335 62.41548917 -37.42561489 59.10512604 -45.9296875 51.6640625 C-52.71405754 44.72550224 -55.82289604 36.5504666 -56.1796875 26.9765625 C-56.02714481 16.71043961 -52.39968599 9.21110322 -45.265625 1.9765625 C-31.916799 -10.21414617 -14.50384896 -10.25882 0 0 Z " fill="#FFF1F1" transform="translate(133.9296875,97.3359375)"/>
<path d="M0 0 C38.61 0 77.22 0 117 0 C117 16 117 16 113.9375 20.625 C112.01171875 22.40234375 112.01171875 22.40234375 110 24 C108.74956025 25.06198243 107.49953973 26.12445874 106.25 27.1875 C105.69828125 27.61417969 105.1465625 28.04085938 104.578125 28.48046875 C100.20523962 32.69099453 99.5087499 36.95303877 99.3125 42.8125 C99.27833984 43.50537109 99.24417969 44.19824219 99.20898438 44.91210938 C99.12713656 46.60752849 99.06187635 48.30373458 99 50 C92.45665006 49.42729231 86.42872968 48.26511696 80.125 46.4375 C79.21443848 46.17356445 78.30387695 45.90962891 77.36572266 45.63769531 C48.41466693 36.96190692 22.06953605 21.60056534 0 1 C0 0.67 0 0.34 0 0 Z " fill="#FE895E" transform="translate(121,391)"/>
<path d="M0 0 C0.88405518 0.00829834 1.76811035 0.01659668 2.67895508 0.02514648 C14.60472479 0.33443502 22.88455174 4.913395 31.1015625 13.50390625 C39.15462079 23.08190537 40.771622 33.01973595 40.5625 45.25 C40.56958984 46.43787109 40.57667969 47.62574219 40.58398438 48.84960938 C40.50544056 59.62219619 40.50544056 59.62219619 37.125 64.4375 C32.22323894 68.97162898 28.20520788 69.86275054 21.6953125 69.77734375 C17.54559109 69.22867238 14.9490427 67.4637951 12.125 64.4375 C10.53672221 62.15641261 9.35502759 59.94675628 8.125 57.4375 C7.135 57.7675 6.145 58.0975 5.125 58.4375 C-0.0874181 58.93664836 -4.47870235 59.10979146 -9.25 56.8125 C-17.64046814 49.22112407 -17.64046814 49.22112407 -18.11328125 43.609375 C-18.36147181 32.1664838 -18.36147181 32.1664838 -13.875 27.4375 C-8.57909376 22.67118439 -4.56259946 20.90836815 2.5234375 21.0546875 C8.05294282 21.86833843 11.7917553 24.99899914 15.5 29 C18.09910165 32.89865247 19.36390667 35.62398841 19.50390625 40.3515625 C19.53806641 41.27710938 19.57222656 42.20265625 19.60742188 43.15625 C19.63384766 44.1153125 19.66027344 45.074375 19.6875 46.0625 C19.74731481 47.97148327 19.81092845 49.88035248 19.87890625 51.7890625 C19.90283447 52.63291504 19.9267627 53.47676758 19.95141602 54.34619141 C19.99941425 56.49607489 19.99941425 56.49607489 21.125 58.4375 C23.45794775 58.47991723 25.79202567 58.47842937 28.125 58.4375 C30.6942571 55.8682429 29.45712835 48.94337303 29.5 45.5 C29.53738281 44.39591797 29.57476562 43.29183594 29.61328125 42.15429688 C29.70983811 33.07258772 27.59329228 26.65569332 21.8125 19.625 C12.50425422 12.04852087 5.17037245 10.47801931 -6.875 11.4375 C-12.17459571 12.81525847 -16.02864222 14.56897301 -19.875 18.4375 C-20.535 18.4375 -21.195 18.4375 -21.875 18.4375 C-22.15085937 19.00726563 -22.42671875 19.57703125 -22.7109375 20.1640625 C-23.875 22.4375 -23.875 22.4375 -25.1640625 24.5234375 C-29.78827816 32.44680118 -30.3419015 40.41418938 -28.17578125 49.30859375 C-25.17683924 57.62211653 -20.28454639 63.36036438 -12.453125 67.44921875 C-8.55056439 68.94520032 -4.6175255 69.44410583 -0.4765625 69.8828125 C2.40050046 70.49624034 3.45943314 71.03358906 5.125 73.4375 C4.9375 76.5625 4.9375 76.5625 4.125 79.4375 C-0.52770064 81.76385032 -6.08861515 80.96883498 -10.921875 79.53125 C-23.66062282 74.48748183 -31.85426903 67.10409414 -37.89453125 54.8671875 C-41.5441196 45.82318769 -41.35736272 34.04230556 -37.8125 25 C-32.30218033 13.64073767 -24.12350922 5.3215411 -12.09448242 1.02636719 C-8.08487033 -0.03745246 -4.12713478 -0.04983799 0 0 Z " fill="#FFFCFA" transform="translate(367.875,366.5625)"/>
<path d="M0 0 C0.5676292 19.11018319 -2.07301184 32.28279475 -15.58984375 46.6796875 C-28.41181552 59.02369274 -42.75460165 62.53662954 -59.97265625 62.2734375 C-74.75905753 61.71877584 -87.0000439 53.45732174 -97.33203125 43.4296875 C-99 41 -99 41 -98.921875 38.58984375 C-97.84914058 35.57618731 -96.69783078 32.62827183 -95.4375 29.6875 C-94.98246094 28.61886719 -94.52742188 27.55023438 -94.05859375 26.44921875 C-93.53458984 25.23685547 -93.53458984 25.23685547 -93 24 C-89.97877326 25.45184809 -87.15831007 27.10610678 -84.3125 28.875 C-70.75008463 37.06854193 -56.59615514 39.47754859 -40.81347656 36.6015625 C-36.95575523 35.55293987 -33.49883778 33.90525793 -30 32 C-29.1028125 31.54238281 -28.205625 31.08476562 -27.28125 30.61328125 C-16.2315266 24.53926161 -9.02295955 15.5255809 -4.25 3.9375 C-2.57446809 0 -2.57446809 0 0 0 Z " fill="#937AE5" transform="translate(167,141)"/>
<path d="M0 0 C7.15506423 -0.55236311 7.15506423 -0.55236311 10.84284973 1.8584671 C12.1481086 3.17478748 12.1481086 3.17478748 13.47973633 4.5177002 C13.97251446 5.00364293 14.46529259 5.48958566 14.97300339 5.99025393 C16.61227441 7.6163922 18.22138278 9.26937265 19.83203125 10.92382812 C21.00389097 12.0979454 22.17751706 13.27030196 23.35276794 14.44102478 C26.53357696 17.61953994 29.68912993 20.82210218 32.8407135 24.029562 C36.14020265 27.37908683 39.46238566 30.70594602 42.78222656 34.03527832 C49.06321555 40.34112479 55.32353517 46.66708424 61.57668114 53.00052881 C68.6975361 60.21082603 75.8411411 67.39839988 82.98674583 74.58415699 C97.683282 89.364297 112.35101989 104.17273455 127 119 C121.68717084 120.77094305 116.83548476 117.34816706 112 115 C101.58406205 109.17102659 91.91917458 101.85833684 84.2109375 92.71484375 C80.88074271 88.79049526 77.28725859 85.17506197 73.625 81.5625 C72.98433594 80.92634766 72.34367187 80.29019531 71.68359375 79.63476562 C70.12469121 78.08749668 68.56348584 76.54263508 67 75 C65.53571343 75.57490572 64.07870069 76.16836067 62.625 76.76953125 C61.81289062 77.09800049 61.00078125 77.42646973 60.1640625 77.76489258 C56.63032523 79.78172209 56.14683824 82.20109834 55 86 C54.67 86.33 54.34 86.66 54 87 C51.66055264 86.71269945 49.3260857 86.38063221 47 86 C46.85304687 85.44570313 46.70609375 84.89140625 46.5546875 84.3203125 C45.85717137 82.06741557 45.14662108 80.06391794 44 78 C41.0497509 76.68314723 41.0497509 76.68314723 38 76 C36 74.1875 36 74.1875 35 72 C35.375 69.4375 35.375 69.4375 37 67 C38.134375 66.54625 39.26875 66.0925 40.4375 65.625 C44.31412847 64.31121185 44.31412847 64.31121185 45.75 60.4375 C46.36875 58.7359375 46.36875 58.7359375 47 57 C50 55 50 55 54 55 C53.32348389 54.3257045 52.64696777 53.651409 51.94995117 52.9566803 C45.58997611 46.6169339 39.2326105 40.2745813 32.87782288 33.92963505 C29.61029798 30.66733969 26.34184488 27.40598549 23.07128906 24.14672852 C19.91796128 21.00422713 16.76704772 17.85932402 13.61782837 14.71270561 C12.41295931 13.50969125 11.20720723 12.30756063 10.00057983 11.10630989 C8.31708497 9.43002217 6.63669291 7.75068399 4.95703125 6.07055664 C4.45209137 5.56921204 3.94715149 5.06786743 3.4269104 4.55133057 C0 1.11405216 0 1.11405216 0 0 Z " fill="#FFD1D1" transform="translate(74,391)"/>
<path d="M0 0 C25.41 0 50.82 0 77 0 C75.02 2.64 73.04 5.28 71 8 C68.59880941 11.60178588 68.56228678 14.50866369 68.375 18.6875 C68.33632812 19.38939453 68.29765625 20.09128906 68.2578125 20.81445312 C68.1637666 22.54254655 68.0808032 24.27123675 68 26 C61.45665006 25.42729231 55.42872968 24.26511696 49.125 22.4375 C47.75915771 22.04159668 47.75915771 22.04159668 46.36572266 21.63769531 C29.96663409 16.72336598 14.97964708 9.18596615 0 1 C0 0.67 0 0.34 0 0 Z " fill="#FD977D" transform="translate(152,415)"/>
<path d="M0 0 C4.72208526 2.03785809 7.47866836 4.74721447 9.96875 9.234375 C11.62555671 13.50026516 11.3868992 17.50118034 10.03515625 21.87890625 C9.49962214 24.49543573 9.49962214 24.49543573 11.45703125 26.4140625 C12.21113281 27.04441406 12.96523437 27.67476563 13.7421875 28.32421875 C17.73500482 32.0104323 17.73500482 32.0104323 18.4296875 35.76171875 C17.8046875 38.38671875 17.8046875 38.38671875 15.8046875 40.38671875 C13.390625 40.76171875 13.390625 40.76171875 10.8046875 40.38671875 C9.09375 38.63671875 9.09375 38.63671875 7.4296875 36.38671875 C4.60396531 33.30215178 3.39072554 32.44959837 -0.8359375 31.99609375 C-3.43082225 32.08767792 -6.02447495 32.25092797 -8.609375 32.49609375 C-14.07496763 32.32938722 -16.91192519 29.73765276 -20.5703125 25.88671875 C-22.96662789 20.72542407 -22.95633717 15.98294057 -22.1953125 10.38671875 C-17.71975818 1.10408757 -9.85052198 -2.75183621 0 0 Z " fill="#FCC5C7" transform="translate(98.1953125,335.61328125)"/>
<path d="M0 0 C3.75212276 2.01502889 5.63644095 3.45466142 8 7 C12.26167447 6.52648061 14.15020808 3.99978097 17 1 C20.30078318 -0.65039159 23.46105184 -0.77881782 27 0 C29.25969215 1.57250965 31.1331136 3.32042119 33.1015625 5.2421875 C35.56226243 7.52061336 37.93356863 8.69676667 41 10 C41.125 12.875 41.125 12.875 41 16 C39 18 39 18 35.1875 18.375 C31.01553142 18.28397523 28.94137062 17.03050306 26 14 C25.505 13.01 25.505 13.01 25 12 C21.29258245 12.32712508 20.04023227 12.96251084 17.25 15.5625 C14.06323247 18.36423392 11.42910643 18.78177305 7.2421875 18.5703125 C3.89167796 17.7180923 1.95984581 15.86917229 -0.39453125 13.41015625 C-2.23484648 11.79372365 -3.6123819 11.40915798 -6 11 C-6.226875 11.598125 -6.45375 12.19625 -6.6875 12.8125 C-8.42429529 15.70715882 -9.9183036 16.63035715 -13 18 C-16.6875 18.3125 -16.6875 18.3125 -20 18 C-22 16 -22 16 -22.25 13 C-22 10 -22 10 -20 8 C-19.278125 7.7525 -18.55625 7.505 -17.8125 7.25 C-15.05291567 6.02351808 -13.81031456 4.93965526 -11.6875 2.875 C-7.67030287 -0.6880792 -5.28005985 -0.83810474 0 0 Z " fill="#C299D5" transform="translate(197,270)"/>
<path d="M0 0 C3.4617684 1.93060161 6.34704787 4.05227542 9 7 C12.44164469 5.47038014 15.09151758 3.37270934 18 1 C21.10953379 -0.5547669 23.56266761 -0.28644437 27 0 C29.92053524 1.62876004 32.24663588 3.21650132 34.5625 5.625 C36.47672753 7.45600025 38.52517189 8.1304658 41 9 C41.625 12.375 41.625 12.375 42 16 C40 18 40 18 36.375 18.5625 C31.42332577 18.499017 28.88984715 15.84708262 25.46875 12.53125 C24.74171875 11.77328125 24.74171875 11.77328125 24 11 C23.51789063 11.42152344 23.03578125 11.84304688 22.5390625 12.27734375 C21.90742188 12.82519531 21.27578125 13.37304688 20.625 13.9375 C19.99851562 14.48277344 19.37203125 15.02804687 18.7265625 15.58984375 C15.34622291 18.35070935 12.56525261 18.32713913 8.328125 18.29296875 C4.81065618 17.85033425 2.65682977 16.25830531 0 14 C-0.33 13.34 -0.66 12.68 -1 12 C-4.72403371 12.32859121 -6.01330592 13.01185962 -8.875 15.5625 C-12 18 -12 18 -15.6875 18.625 C-19 18 -19 18 -20.9375 15.5 C-21.288125 14.675 -21.63875 13.85 -22 13 C-19.85732923 8.71465846 -18.37869252 7.66807334 -14 6 C-12.29413425 4.37347684 -10.6222454 2.70993434 -9 1 C-5.89046621 -0.5547669 -3.43733239 -0.28644437 0 0 Z " fill="#C397D3" transform="translate(325,281)"/>
<path d="M0 0 C2.99318601 2.02927865 5.50097713 4.39463573 8 7 C10.85972867 5.69513447 12.36646328 4.64205912 14.6875 2.375 C17.88845581 -0.31799557 20.55671354 -0.84473425 24.69921875 -0.62890625 C28.34420554 0.36743139 30.4968 2.62872085 33.13671875 5.2421875 C35.57466483 7.54213663 37.93650812 8.69801595 41 10 C40.74438677 12.3431213 40.40729228 14.67843403 40 17 C36.73952371 18.63023814 34.62198965 18.4673535 31 18 C28.04917657 15.94008835 25.51815995 13.56394468 23 11 C22.16855469 11.63228516 22.16855469 11.63228516 21.3203125 12.27734375 C20.59585938 12.82519531 19.87140625 13.37304688 19.125 13.9375 C18.40570313 14.48277344 17.68640625 15.02804688 16.9453125 15.58984375 C13.76164851 17.8976805 11.21932333 18.5 7.2421875 18.5 C2.8900205 17.52948192 0.00294 14.13072468 -3 11 C-5.85401712 12.30783654 -7.44596771 13.41623653 -9.8125 15.625 C-13 18 -13 18 -16.6875 18.5625 C-20 18 -20 18 -22 16.25 C-23 14 -23 14 -22.8125 11.875 C-22 10 -22 10 -20 8 C-19.236875 7.731875 -18.47375 7.46375 -17.6875 7.1875 C-14.36262288 5.71836825 -12.48381635 3.61807669 -10 1 C-6.69973349 -0.65013326 -3.53645244 -0.78861657 0 0 Z " fill="#B3ACF8" transform="translate(229,74)"/>
<path d="M0 0 C2.875 2.375 2.875 2.375 5 5 C7.06248402 6.16193323 7.06248402 6.16193323 9 7 C9.47308594 6.4946875 9.94617188 5.989375 10.43359375 5.46875 C13.83430412 2.12770122 16.5967492 -0.51684951 21.5 -0.875 C26.33733354 -0.50802987 28.88125387 2.00625387 32.20703125 5.33203125 C33.99737865 7.21578647 33.99737865 7.21578647 36.9375 8.0625 C37.618125 8.371875 38.29875 8.68125 39 9 C40 11.9375 40 11.9375 40 15 C38.9375 16.875 38.9375 16.875 37 18 C33.02903551 18.61770559 31.28567671 18.1593197 27.75 16.1875 C25 14 25 14 23 11 C19.62583084 11.57947688 18.11555019 12.63379191 15.75 15.0625 C13.22334967 17.28207343 11.44962384 18.51970344 8.0625 18.8125 C3.47424355 18.49114352 0.8925959 15.77248473 -2.23828125 12.62890625 C-4.00760511 10.76865242 -4.00760511 10.76865242 -7 10 C-7.20625 10.5775 -7.4125 11.155 -7.625 11.75 C-9.56842873 14.9301561 -11.73776636 16.24341266 -15 18 C-18.25 18.375 -18.25 18.375 -21 18 C-23 16 -23 16 -23.6875 13.3125 C-22.57642317 7.9591298 -18.33427652 5.96366921 -14 3 C-13.34386719 2.44699219 -12.68773437 1.89398438 -12.01171875 1.32421875 C-8.3323896 -1.09770859 -4.22344113 -0.75541223 0 0 Z " fill="#B5AAF3" transform="translate(209,103)"/>
<path d="M0 0 C1.90072266 0.02126953 1.90072266 0.02126953 3.83984375 0.04296875 C5.74443359 0.05263672 5.74443359 0.05263672 7.6875 0.0625 C10.77734375 0.23046875 10.77734375 0.23046875 11.77734375 1.23046875 C11.87841249 4.10310931 11.91704047 6.95120503 11.91015625 9.82421875 C11.91159134 11.11700745 11.91159134 11.11700745 11.91305542 12.43591309 C11.91373725 14.26180087 11.91188279 16.08769106 11.90771484 17.91357422 C11.90236661 20.71847953 11.90765974 23.5232247 11.9140625 26.328125 C11.91340172 28.09765661 11.91212056 29.86718811 11.91015625 31.63671875 C11.91218048 32.4814978 11.91420471 33.32627686 11.91629028 34.19665527 C11.89229406 40.11551844 11.89229406 40.11551844 10.77734375 41.23046875 C8.26598271 41.33021907 5.7883096 41.36929058 3.27734375 41.35546875 C2.57480469 41.35933594 1.87226563 41.36320312 1.1484375 41.3671875 C-4.09604247 41.35708253 -4.09604247 41.35708253 -5.22265625 40.23046875 C-5.33610775 37.44223137 -5.38683888 34.6796953 -5.390625 31.890625 C-5.3939534 31.05333359 -5.3972818 30.21604218 -5.40071106 29.3533783 C-5.40578381 27.57877147 -5.40811928 25.80415508 -5.40795898 24.02954102 C-5.41014422 21.30794619 -5.42829258 18.58675732 -5.44726562 15.86523438 C-5.45019967 14.14453264 -5.45218439 12.42382898 -5.453125 10.703125 C-5.46031052 9.88538101 -5.46749603 9.06763702 -5.47489929 8.22511292 C-5.44306975 0.38926196 -5.44306975 0.38926196 0 0 Z " fill="#FE6263" transform="translate(152.22265625,334.76953125)"/>
<path d="M0 0 C2.50228169 1.54280668 4.4199869 3.43866877 6.4375 5.5625 C6.97826172 6.07619141 7.51902344 6.58988281 8.07617188 7.11914062 C10.83673905 9.9285674 11.91130605 11.55800847 12.703125 15.50390625 C11.76257238 20.18054288 9.73484859 22.20541572 6.3125 25.375 C5.51682617 26.17357422 5.51682617 26.17357422 4.70507812 26.98828125 C1.68211832 29.90367562 -0.68325176 32.06464348 -5 32 C-8.10975668 30.20121918 -10.48714828 27.55071013 -13 25 C-13.69480469 24.31550781 -14.38960938 23.63101563 -15.10546875 22.92578125 C-19.98787794 17.80948419 -19.98787794 17.80948419 -20.03515625 14.65234375 C-18.58472968 10.93596774 -16.15155168 8.45396735 -13.375 5.6875 C-12.86582031 5.13771484 -12.35664063 4.58792969 -11.83203125 4.02148438 C-8.07067623 0.22713502 -5.51934763 -1.1075614 0 0 Z M-4 13 C-4.99 14.485 -4.99 14.485 -6 16 C-4.515 16.99 -4.515 16.99 -3 18 C-2.34 17.01 -1.68 16.02 -1 15 C-1.99 14.34 -2.98 13.68 -4 13 Z " fill="#FF6B6B" transform="translate(353,11)"/>
<path d="M0 0 C3.87279836 1.29093279 6.2359614 3.81045659 9.015625 6.671875 C9.55703125 7.1978125 10.0984375 7.72375 10.65625 8.265625 C12.92453224 10.55659007 14.6201951 12.55586741 15.81640625 15.56640625 C15.74914868 18.68612295 14.84828784 19.63223142 12.703125 21.859375 C12.0534375 22.53871094 11.40375 23.21804688 10.734375 23.91796875 C10.0846875 24.57925781 9.435 25.24054688 8.765625 25.921875 C8.2396875 26.53160156 7.71375 27.14132812 7.171875 27.76953125 C4.9069363 30.31758729 3.19469242 31.80061682 -0.109375 32.734375 C-4.94239528 31.47778973 -7.79092207 28.42189389 -11.234375 24.921875 C-11.76933594 24.39722656 -12.30429687 23.87257813 -12.85546875 23.33203125 C-15.02944535 21.01024887 -16.17111586 19.28034346 -16.7265625 16.1328125 C-16.02526916 11.55770834 -13.67703293 9.65752067 -10.359375 6.609375 C-9.52599609 5.8040332 -9.52599609 5.8040332 -8.67578125 4.98242188 C-3.33870357 -0.11673789 -3.33870357 -0.11673789 0 0 Z M-1.234375 13.921875 C-2.224375 15.406875 -2.224375 15.406875 -3.234375 16.921875 C-1.749375 17.911875 -1.749375 17.911875 -0.234375 18.921875 C0.425625 17.931875 1.085625 16.941875 1.765625 15.921875 C0.775625 15.261875 -0.214375 14.601875 -1.234375 13.921875 Z " fill="#6B6BFF" transform="translate(457.234375,420.078125)"/>
<path d="M0 0 C1.134375 0.020625 2.26875 0.04125 3.4375 0.0625 C6.4375 6.8125 6.4375 6.8125 6.4375 9.0625 C7.00339844 9.19527344 7.56929687 9.32804687 8.15234375 9.46484375 C8.88582031 9.64144531 9.61929688 9.81804688 10.375 10 C11.10589844 10.17402344 11.83679688 10.34804688 12.58984375 10.52734375 C14.4375 11.0625 14.4375 11.0625 15.4375 12.0625 C15.625 15.5 15.625 15.5 15.4375 19.0625 C13.4375 21.0625 13.4375 21.0625 10.5 21.75 C7.08343986 22.81738821 7.08343986 22.81738821 5.75 26.5625 C5.316875 27.7175 4.88375 28.8725 4.4375 30.0625 C1.4375 32.0625 1.4375 32.0625 -1.125 31.8125 C-3.5625 31.0625 -3.5625 31.0625 -5.5625 29.0625 C-5.789375 28.093125 -6.01625 27.12375 -6.25 26.125 C-7.31738821 22.70843986 -7.31738821 22.70843986 -11.0625 21.375 C-12.795 20.7253125 -12.795 20.7253125 -14.5625 20.0625 C-16.5625 17.0625 -16.5625 17.0625 -16.6875 14.625 C-15.33667421 11.54811904 -14.66815595 11.46414124 -11.6875 10.1875 C-8.37710258 8.74845425 -6.99209172 7.74807554 -5.625 4.375 C-5.274375 3.281875 -4.92375 2.18875 -4.5625 1.0625 C-3.5625 0.0625 -3.5625 0.0625 0 0 Z " fill="#6B6BFF" transform="translate(136.5625,18.9375)"/>
<path d="M0 0 C3.0625 0.1875 3.0625 0.1875 5.0625 2.1875 C5.454375 3.321875 5.84625 4.45625 6.25 5.625 C8.53154572 10.10941745 10.5429125 10.34618657 15.0625 12.1875 C16.1875 14.625 16.1875 14.625 16.0625 17.1875 C15 19.375 15 19.375 13.0625 21.1875 C12.0725 21.455625 11.0825 21.72375 10.0625 22 C6.687731 22.9315813 6.687731 22.9315813 5.5 26.6875 C5.025625 27.8425 4.55125 28.9975 4.0625 30.1875 C1.375 31.625 1.375 31.625 -0.9375 32.1875 C-5.85641892 27.64695946 -5.85641892 27.64695946 -6.3125 25.0625 C-6.51875 24.44375 -6.725 23.825 -6.9375 23.1875 C-10.35918849 21.51868065 -10.35918849 21.51868065 -13.9375 20.1875 C-15.9375 18.1875 -15.9375 18.1875 -16.3125 15.75 C-15.9375 13.1875 -15.9375 13.1875 -14.25 11.5 C-11.9375 10.1875 -11.9375 10.1875 -9.375 9.4375 C-5.76769234 7.58759864 -5.28024419 4.88004653 -3.9375 1.1875 C-2.9375 0.1875 -2.9375 0.1875 0 0 Z " fill="#FF6E6E" transform="translate(78.9375,420.8125)"/>
<path d="M0 0 C3.07688096 1.35082579 3.16085876 2.01934405 4.4375 5 C5.72288814 8.12360125 5.72288814 8.12360125 8.33203125 10.07421875 C8.96496094 10.27660156 9.59789062 10.47898437 10.25 10.6875 C11.343125 11.161875 12.43625 11.63625 13.5625 12.125 C14.5 15.8125 14.5 15.8125 14.5625 19.125 C12.36902435 20.91227646 10.73995569 22.07306175 8 22.875 C4.39269234 24.72490136 3.90524419 27.43245347 2.5625 31.125 C2.2325 31.455 1.9025 31.785 1.5625 32.125 C-0.77694736 31.83769945 -3.1114143 31.50563221 -5.4375 31.125 C-5.58445312 30.57070313 -5.73140625 30.01640625 -5.8828125 29.4453125 C-6.58032863 27.19241557 -7.29087892 25.18891794 -8.4375 23.125 C-11.3877491 21.80814723 -11.3877491 21.80814723 -14.4375 21.125 C-16.4375 19.3125 -16.4375 19.3125 -17.4375 17.125 C-17.0625 14.5625 -17.0625 14.5625 -15.4375 12.125 C-14.303125 11.67125 -13.16875 11.2175 -12 10.75 C-8.12337153 9.43621185 -8.12337153 9.43621185 -6.6875 5.5625 C-6.275 4.428125 -5.8625 3.29375 -5.4375 2.125 C-2.4375 0.125 -2.4375 0.125 0 0 Z " fill="#FF9D36" transform="translate(126.4375,445.875)"/>
<path d="M0 0 C0.71567139 0.71712158 1.43134277 1.43424316 2.16870117 2.1730957 C4.8670006 4.87151365 7.58317314 7.5514915 10.30078125 10.23046875 C11.79348699 11.70846157 13.28525502 13.18739364 14.77661133 14.66674805 C15.80774427 15.68771882 16.84064906 16.70690296 17.87524414 17.72436523 C19.37593475 19.20092366 20.87018285 20.68373859 22.36328125 22.16796875 C23.25313721 23.04735107 24.14299316 23.9267334 25.05981445 24.83276367 C27 27 27 27 27 29 C23.25026094 29.11622939 19.50098536 29.1872595 15.75 29.25 C14.68652344 29.28351563 13.62304688 29.31703125 12.52734375 29.3515625 C11.50253906 29.36445313 10.47773438 29.37734375 9.421875 29.390625 C8.47924805 29.41157227 7.53662109 29.43251953 6.56542969 29.45410156 C3.24417869 28.86621359 2.09016095 27.58443347 0 25 C-2.42727225 17.27686103 -0.68734878 7.93094752 0 0 Z " fill="#A474CE" transform="translate(399,291)"/>
<path d="M0 0 C3.66702054 3.66702054 2.55484248 9.44777585 2.57226562 14.40161133 C2.35704891 22.96339335 2.35704891 22.96339335 -1 26.6875 C-2.31573081 27.8125841 -3.65040255 28.91577284 -5 30 C-6.48135386 31.64623954 -7.93973153 33.31343001 -9.375 35 C-10.55991445 36.35418794 -11.76129826 37.69483134 -13 39 C-13.33 39 -13.66 39 -14 39 C-14.20505665 35.16746871 -14.32820828 31.33636234 -14.4375 27.5 C-14.49615234 26.42234375 -14.55480469 25.3446875 -14.61523438 24.234375 C-14.73701408 18.52812577 -14.5533423 14.87978428 -10.71875 10.46875 C-9.50351188 9.28693901 -8.26619792 8.12704203 -7 7 C-6.26910156 6.236875 -5.53820312 5.47375 -4.78515625 4.6875 C-4.21667969 4.130625 -3.64820313 3.57375 -3.0625 3 C-2.47597656 2.4225 -1.88945312 1.845 -1.28515625 1.25 C-0.86105469 0.8375 -0.43695313 0.425 0 0 Z " fill="#A076D4" transform="translate(158,261)"/>
<path d="M0 0 C4.70278169 3.92982116 9.16132826 8.01614823 13.48608398 12.35668945 C14.09182755 12.96068069 14.69757111 13.56467194 15.32167053 14.18696594 C17.29898059 16.15991716 19.27266097 18.13645239 21.24609375 20.11328125 C22.62599837 21.49251164 24.00605136 22.87159361 25.38624573 24.25053406 C28.26490235 27.12772227 31.14175679 30.00669707 34.01733398 32.88696289 C37.71186782 36.58722579 41.41091624 40.28293806 45.11129665 43.9773531 C47.95511622 46.81757131 50.79656489 49.66015177 53.63728523 52.50346947 C55.00137906 53.86823209 56.36622081 55.23224756 57.73180962 56.5955143 C59.63018802 58.49136971 61.52535969 60.39037193 63.41967773 62.2902832 C63.98842621 62.85700745 64.55717468 63.42373169 65.14315796 64.00762939 C69 67.88573108 69 67.88573108 69 69 C66.95263672 69.41992188 66.95263672 69.41992188 64 69 C61.30377667 67.04935708 59.06571517 64.66937207 56.7578125 62.28125 C56.07121552 61.58994995 55.38461853 60.8986499 54.67721558 60.18640137 C52.48120281 57.9690354 50.30337832 55.73467836 48.125 53.5 C46.66646474 52.02495302 45.20684053 50.55098194 43.74609375 49.078125 C37.86999336 43.12844106 32.0891537 37.16385041 26.61407471 30.84042358 C22.71388375 26.3932915 18.48167563 22.25491843 14.3125 18.0625 C13.36650609 17.09573284 12.42054237 16.12893614 11.47460938 15.16210938 C10.57162109 14.25396484 9.66863281 13.34582031 8.73828125 12.41015625 C7.92399658 11.58652588 7.10971191 10.76289551 6.27075195 9.91430664 C4.06194965 8.05222527 2.8214254 7.37152743 0 7 C-0.38133299 5.0085944 -0.71325582 3.00720923 -1 1 C-0.67 0.67 -0.34 0.34 0 0 Z " fill="#FFD0D0" transform="translate(12,422)"/>
<path d="M0 0 C3.69824535 2.05458075 4.7810498 3.3431494 6.125 7.375 C6 11 6 11 4.0625 14.4375 C0.48317601 17.43244456 0.48317601 17.43244456 -3.0625 17.625 C-7 17 -7 17 -9.5 15.5625 C-11.72920717 11.75427109 -11.90705593 8.29865635 -11 4 C-7.77123438 0.10648852 -4.96361941 -0.8272699 0 0 Z " fill="#FFAC6B" transform="translate(371,398)"/>
<path d="M0 0 C4.39575777 3.48629064 5.79693531 7.68869219 7 13 C7.20624974 15.40478419 7.15434373 17.58194825 7 20 C2.71 20 -1.58 20 -6 20 C-6.5847137 13.42197086 -4.71495253 7.97487728 -2 2 C-1.34 1.34 -0.68 0.68 0 0 Z " fill="#FF7575" transform="translate(112,100)"/>
<path d="M0 0 C4.29 0 8.58 0 13 0 C12.60339997 7.1388005 11.55827293 11.80171812 8 18 C7.01 18 6.02 18 5 18 C1.44172707 11.80171812 0.39660003 7.1388005 0 0 Z " fill="#FF6C6C" transform="translate(106,130)"/>
<path d="M0 0 C2 1.125 2 1.125 3 3 C2.66666667 9.33333333 2.66666667 9.33333333 0 12 C-6.00458716 12.54587156 -6.00458716 12.54587156 -8.9375 10.9375 C-10.6140629 7.88023824 -10.36528977 5.4093712 -10 2 C-7.70805517 -2.31424909 -4.19774255 -1.04943564 0 0 Z " fill="#AA74C8" transform="translate(96,346)"/>
<path d="M0 0 C6.74080425 5.52650334 12.8071129 11.69449559 18.9375 17.875 C20.01343727 18.95596274 21.08960731 20.03669383 22.16601562 21.1171875 C24.78003292 23.74212641 27.39088596 26.37018628 30 29 C29.34 29.33 28.68 29.66 28 30 C21.82806452 25.66531129 16.48608401 20.79220317 11.1875 15.4375 C10.43791016 14.69564453 9.68832031 13.95378906 8.91601562 13.18945312 C8.19478516 12.46564453 7.47355469 11.74183594 6.73046875 10.99609375 C6.08489014 10.34825928 5.43931152 9.7004248 4.77416992 9.03295898 C0 3.56240539 0 3.56240539 0 0 Z " fill="#FFFFFF" transform="translate(23,455)"/>
<path d="M0 0 C5.96118297 4.93997261 11.41486302 10.28529862 16.87109375 15.7734375 C18.25458763 17.1590538 18.25458763 17.1590538 19.66603088 18.57266235 C22.09633814 21.00675431 24.52362496 23.44383597 26.95025635 25.8815918 C29.43569364 28.3773311 31.92402932 30.87017708 34.41210938 33.36328125 C39.27755096 38.2393886 44.13980198 43.11866631 49 48 C48.01 48.33 47.02 48.66 46 49 C45.59144272 48.52038818 45.18288544 48.04077637 44.76194763 47.54663086 C40.2659699 42.33112486 35.54512849 37.41290836 30.66015625 32.5625 C29.89319931 31.79695801 29.12624237 31.03141602 28.33604431 30.24267578 C25.91389119 27.82606803 23.48826388 25.41298274 21.0625 23 C19.40797107 21.35049314 17.75367198 19.70075571 16.09960938 18.05078125 C12.06905798 14.03118629 8.03565728 10.01446831 4 6 C3.01 6.495 3.01 6.495 2 7 C1.34 4.69 0.68 2.38 0 0 Z " fill="#FFFAFA" transform="translate(16,441)"/>
<path d="M0 0 C2.5625 0.3125 2.5625 0.3125 4.4375 1.5 C5.5625 3.3125 5.5625 3.3125 5.375 5.875 C4.5625 8.3125 4.5625 8.3125 2.5625 10.3125 C0.0625 10.5625 0.0625 10.5625 -2.4375 10.3125 C-4.4375 8.3125 -4.4375 8.3125 -4.6875 5.3125 C-4.37675292 1.58353509 -3.7821044 0.48488518 0 0 Z " fill="#FF8E3E" transform="translate(94.4375,243.6875)"/>
<path d="M0 0 C2.5 0.25 2.5 0.25 4.5 2.25 C4.8125 5.25 4.8125 5.25 4.5 8.25 C1.5 10.25 1.5 10.25 -1.0625 10 C-3.5 9.25 -3.5 9.25 -5.5 7.25 C-5.08994391 3.14943907 -4.53376372 0.45337637 0 0 Z " fill="#FF8E3D" transform="translate(130.5,243.75)"/>
<path d="M0 0 C5.56818182 0.56818182 5.56818182 0.56818182 7 2 C7.1875 4.9375 7.1875 4.9375 7 8 C5 10 5 10 2.5625 10.3125 C0 10 0 10 -1.875 8.8125 C-3 7 -3 7 -2.8125 4.4375 C-2 2 -2 2 0 0 Z " fill="#FF903C" transform="translate(274,213)"/>
<path d="M0 0 C0.66 0.66 1.32 1.32 2 2 C1.625 5.125 1.625 5.125 1 8 C-1.31 8.33 -3.62 8.66 -6 9 C-8 6 -8 6 -7.75 2.875 C-7.37875 1.451875 -7.37875 1.451875 -7 0 C-4.29393021 -1.35303489 -2.8671629 -0.7884698 0 0 Z " fill="#FF903B" transform="translate(315,214)"/>
<path d="M0 0 C1.32278481 5.41139241 1.32278481 5.41139241 -0.0625 7.9375 C-2.91093248 9.49954362 -4.93504903 8.74921024 -8 8 C-9.32278481 2.58860759 -9.32278481 2.58860759 -7.9375 0.0625 C-5.08906752 -1.49954362 -3.06495097 -0.74921024 0 0 Z " fill="#FF8F3B" transform="translate(298,214)"/>
<path d="M0 0 C3.125 0.375 3.125 0.375 6 1 C6.33 3.31 6.66 5.62 7 8 C4 10 4 10 1.4375 9.75 C-1 9 -1 9 -3 7 C-2.67028521 3.70285207 -2.3773161 2.3773161 0 0 Z " fill="#FF963A" transform="translate(370,141)"/>
<path d="M0 0 C2.5 0.25 2.5 0.25 4.5 2.25 C4.75 5.25 4.75 5.25 4.5 8.25 C2.5 10.25 2.5 10.25 0 10.5 C-2.5 10.25 -2.5 10.25 -4.5 8.25 C-4.75 5.25 -4.75 5.25 -4.5 2.25 C-2.5 0.25 -2.5 0.25 0 0 Z " fill="#FF8D3C" transform="translate(112.5,243.75)"/>
<path d="M0 0 C5.56818182 0.56818182 5.56818182 0.56818182 7 2 C7.1875 4.9375 7.1875 4.9375 7 8 C5 10 5 10 2.5 10.25 C0 10 0 10 -2 8 C-2.25 5 -2.25 5 -2 2 C-1.34 1.34 -0.68 0.68 0 0 Z " fill="#FF9539" transform="translate(352,141)"/>
<path d="M0 0 C5.56818182 0.56818182 5.56818182 0.56818182 7 2 C7.1875 4.9375 7.1875 4.9375 7 8 C5 10 5 10 2.5 10.25 C0 10 0 10 -2 8 C-2.25 5 -2.25 5 -2 2 C-1.34 1.34 -0.68 0.68 0 0 Z " fill="#FF9539" transform="translate(334,141)"/>
<path d="M0 0 C4.99710274 3.99768219 6.37709278 5.55989613 9 11 C9 12.32 9 13.64 9 15 C6.69 15 4.38 15 2 15 C1.34 10.05 0.68 5.1 0 0 Z " fill="#FF7878" transform="translate(127,105)"/>
<path d="M0 0 C2.31 0 4.62 0 7 0 C5.36058473 6.6008036 3.64842118 10.10886541 -2 14 C-1.34 9.38 -0.68 4.76 0 0 Z " fill="#FF7070" transform="translate(129,130)"/>
<path d="M0 0 C2.31 0 4.62 0 7 0 C7.66 4.62 8.32 9.24 9 14 C3.35157882 10.10886541 1.63941527 6.6008036 0 0 Z " fill="#FF7171" transform="translate(89,130)"/>
<path d="M0 0 C1.15837573 3.47512718 0.77265943 5.13670286 0.0625 8.6875 C-0.13214844 9.68136719 -0.32679687 10.67523438 -0.52734375 11.69921875 C-0.68332031 12.45847656 -0.83929688 13.21773437 -1 14 C-3.31 14 -5.62 14 -8 14 C-7.65015815 8.40253042 -3.85992893 3.85992893 0 0 Z " fill="#FF7171" transform="translate(97,105)"/>
</svg>
