<?xml version="1.0" encoding="UTF-8"?>
<svg version="1.1" xmlns="http://www.w3.org/2000/svg" width="256" height="253">
<path d="M0 0 C3.54243167 1.28639398 6.72163735 3.15356586 10 5 C12.76156023 6.49673472 15.53597917 7.96873517 18.3125 9.4375 C19.10736816 9.85894287 19.90223633 10.28038574 20.72119141 10.71459961 C34.92549585 18.18193582 49.49640979 24.96016373 63.98828125 31.84765625 C74.9890548 37.07980132 85.92016507 42.4324123 96.80255127 47.9067688 C104.63750716 51.84712563 112.50604664 55.69558858 120.4375 59.4375 C128.97838161 63.47525175 137.37751671 67.7500526 145.75 72.125 C166.35211178 82.88566846 187.33209751 92.877627 208.3125 102.875 C216.00923441 106.54399268 223.67509154 110.27144278 231.3125 114.0625 C232.25714111 114.52833496 233.20178223 114.99416992 234.17504883 115.47412109 C235.04154053 115.9067627 235.90803223 116.3394043 236.80078125 116.78515625 C237.56559814 117.16551025 238.33041504 117.54586426 239.1184082 117.93774414 C241 119 241 119 243 121 C243.4765625 123.42578125 243.4765625 123.42578125 243.625 126.3125 C243.73714844 127.72982422 243.73714844 127.72982422 243.8515625 129.17578125 C242.37917445 134.05897649 237.3104252 135.74414662 233.00540161 138.08418274 C230.97806143 139.14187941 228.93818342 140.16951582 226.890625 141.1875 C225.75672333 141.75642975 225.75672333 141.75642975 224.59991455 142.33685303 C222.1522528 143.56258965 219.70137493 144.78170841 217.25 146 C216.40542236 146.42140259 215.56084473 146.84280518 214.69067383 147.27697754 C202.93149935 153.14213907 191.10509809 158.80979403 179.1574707 164.28051758 C170.50266972 168.25913307 161.95448792 172.42410747 153.4375 176.6875 C151.69146484 177.56003418 151.69146484 177.56003418 149.91015625 178.45019531 C143.97197994 181.43763177 138.0704842 184.48332574 132.19796753 187.59794617 C121.84317092 193.08844023 111.36749386 198.28196042 100.8125 203.375 C97.37405378 205.03971829 93.93682959 206.70694705 90.5 208.375 C89.66817703 208.77850677 88.83635406 209.18201355 87.97932434 209.5977478 C81.39303688 212.79745137 74.84621749 216.06917613 68.3125 219.375 C59.93790096 223.607009 51.46594579 227.58802771 42.9375 231.5 C31.98777246 236.52293549 21.2684079 241.88347899 10.6328125 247.5390625 C9.82408691 247.96791748 9.01536133 248.39677246 8.18212891 248.83862305 C6.336148 249.82109465 4.49557838 250.81372337 2.65625 251.80859375 C-1.31949101 253.59183053 -4.73194254 253.68029758 -9 253 C-11.5625 251.6875 -11.5625 251.6875 -13 249 C-14.04677984 240.40724482 -11.88521075 232.76710832 -9.375 224.625 C-8.82368408 222.76657471 -8.82368408 222.76657471 -8.26123047 220.87060547 C-7.52171521 218.37816515 -6.77655012 215.8873933 -6.02539062 213.3984375 C-4.6931382 208.98297231 -3.39872394 204.55765162 -2.125 200.125 C-1.7837207 198.95167114 -1.7837207 198.95167114 -1.43554688 197.75463867 C0.31039744 191.66303897 1.89416939 185.53592444 3.453125 179.39453125 C3.89708215 177.65928716 4.34125724 175.92409882 4.78564453 174.18896484 C5.67188314 170.72811191 6.53949516 167.26324516 7.39794922 163.79541016 C7.80886458 162.18504111 8.22045661 160.57484453 8.6328125 158.96484375 C8.8118512 158.22095901 8.99088989 157.47707428 9.175354 156.71064758 C10.29688661 152.40805488 11.29421373 149.56373941 15 147 C21.8697396 144.76759193 29.12623599 143.92274648 36.24609375 142.79296875 C38.2093099 142.47589161 40.17252508 142.15880837 42.13568974 141.84141254 C46.92012473 141.06909617 51.70577873 140.30437471 56.49145508 139.53979492 C60.4937686 138.8997325 64.4953109 138.25503068 68.49609375 137.60546875 C69.15208872 137.49898262 69.80808369 137.39249649 70.48395729 137.28278351 C81.60219384 135.46934186 92.64133305 133.35930632 103.67041016 131.07006836 C109.43165114 129.88539625 115.2198973 128.8985313 121.04420471 128.07832336 C123.16633621 127.77163014 123.16633621 127.77163014 126 127 C126.99 125.515 126.99 125.515 128 124 C127.23147705 123.86948242 126.4629541 123.73896484 125.67114258 123.60449219 C122.05123018 122.98845166 118.43186952 122.3692218 114.8125 121.75 C113.60529297 121.54503906 112.39808594 121.34007813 111.15429688 121.12890625 C104.75740775 120.03229669 98.37699649 118.88644277 92.00785828 117.63822937 C82.29465071 115.74085967 72.55497923 114.08208914 62.78125 112.52734375 C61.44320574 112.31366757 60.10516763 112.09995285 58.76713562 111.88619995 C53.27440296 111.01010579 47.78129908 110.13665133 42.28564453 109.27905273 C39.53089341 108.84884619 36.77715067 108.41299466 34.02429199 107.97084045 C31.46031707 107.55922808 28.89499935 107.15587009 26.32824707 106.76194763 C25.17514038 106.57487747 24.02203369 106.38780731 22.83398438 106.19506836 C21.82476929 106.03614609 20.8155542 105.87722382 19.77575684 105.71348572 C16.70512425 104.92420459 14.56802883 103.85097408 12 102 C8.92643046 96.34529601 7.59564288 90.11870277 6.0390625 83.90625 C5.76661713 82.84192749 5.49417175 81.77760498 5.21347046 80.68103027 C4.34528471 77.2886938 3.48427137 73.89460463 2.625 70.5 C-0.83585219 56.82983073 -4.33204151 43.31166869 -9 30 C-11.6988883 21.6126856 -14.50592997 12.87706089 -13 4 C-10.21689463 -1.20319699 -5.2885607 -0.93476153 0 0 Z " fill="#202020" transform="translate(13,0)"/>
</svg>
