<?xml version="1.0" encoding="UTF-8"?>
<svg version="1.1" xmlns="http://www.w3.org/2000/svg" width="211" height="239">
<path d="M0 0 C69.63 0 139.26 0 211 0 C211 78.87 211 157.74 211 239 C141.37 239 71.74 239 0 239 C0 160.13 0 81.26 0 0 Z " fill="#51613A" transform="translate(0,0)"/>
<path d="M0 0 C69.63 0 139.26 0 211 0 C211 2.97 211 5.94 211 9 C141.37 9 71.74 9 0 9 C0 6.03 0 3.06 0 0 Z " fill="#939591" transform="translate(0,230)"/>
<path d="M0 0 C69.63 0 139.26 0 211 0 C211 1.32 211 2.64 211 4 C141.37 4 71.74 4 0 4 C0 2.68 0 1.36 0 0 Z " fill="#73776D" transform="translate(0,230)"/>
</svg>
