<?xml version="1.0" encoding="UTF-8"?>
<svg version="1.1" xmlns="http://www.w3.org/2000/svg" width="512" height="512">
<path d="M0 0 C1.13127319 -0.00945648 2.26254639 -0.01891296 3.42810059 -0.02865601 C5.26096619 -0.01954697 5.26096619 -0.01954697 7.13085938 -0.01025391 C8.38467407 -0.01312408 9.63848877 -0.01599426 10.93029785 -0.01895142 C13.58356688 -0.02099468 16.23600909 -0.01695109 18.88916016 -0.00292969 C22.28902571 0.01416273 25.68818083 0.00432043 29.08802032 -0.01364708 C32.33149215 -0.0270973 35.57487828 -0.01767874 38.81835938 -0.01025391 C40.04026978 -0.0163266 41.26218018 -0.02239929 42.52111816 -0.02865601 C44.21802795 -0.01447128 44.21802795 -0.01447128 45.94921875 0 C46.94610718 0.00238678 47.94299561 0.00477356 48.97009277 0.00723267 C51.47460938 0.38818359 51.47460938 0.38818359 53.10859394 1.4338789 C55.20402376 4.43172815 54.87710983 7.51163127 54.83537292 11.03800964 C54.8379362 11.82461497 54.84049947 12.6112203 54.84314042 13.42166215 C54.84809448 16.06590111 54.83155893 18.70957313 54.81518555 21.35375977 C54.81433962 23.2458037 54.81481374 25.13784861 54.81651306 27.02989197 C54.8173758 32.17426415 54.799705 37.31842759 54.77879119 42.46275115 C54.76007074 47.83594064 54.75827761 53.20913461 54.75471497 58.58235168 C54.74538087 68.76084706 54.72074862 78.93924607 54.6906665 89.11769897 C54.65716494 100.70399161 54.64064716 112.29028879 54.62558019 123.87661779 C54.59420025 147.71386168 54.54081081 171.55101318 54.47460938 195.38818359 C61.73460937 195.38818359 68.99460938 195.38818359 76.47460938 195.38818359 C76.46461662 192.48539864 76.46461662 192.48539864 76.454422 189.52397156 C76.39370892 171.32104999 76.3485039 153.11814882 76.31917286 134.91514874 C76.30369185 125.55594001 76.28257881 116.19680677 76.24829102 106.83764648 C76.21842637 98.68194953 76.19904335 90.52630724 76.19234389 82.37055713 C76.18842664 78.05054988 76.17919508 73.73069902 76.1574192 69.41074181 C76.13710032 65.3470129 76.13076619 61.28350525 76.13528633 57.21973038 C76.13445906 55.72613766 76.12846597 54.23253776 76.11699295 52.73898888 C76.10212254 50.70382883 76.10743059 48.66855082 76.11384583 46.63334656 C76.11108045 45.49308864 76.10831507 44.35283072 76.10546589 43.17801952 C76.47460938 40.38818359 76.47460938 40.38818359 77.84062481 38.52209091 C80.23324158 36.86172904 82.10728535 36.99980894 85 36.98413086 C86.13127319 36.97144669 87.26254639 36.95876251 88.42810059 36.94569397 C89.65001099 36.94862961 90.87192139 36.95156525 92.13085938 36.95458984 C93.38467407 36.94934799 94.63848877 36.94410614 95.93029785 36.93870544 C98.58357036 36.93227638 101.23598456 36.93219833 103.88916016 36.94213867 C107.28917146 36.95363585 110.68814534 36.93340824 114.08802032 36.90422153 C117.33147234 36.88146723 120.5748462 36.88832528 123.81835938 36.89208984 C125.04026978 36.88085587 126.26218018 36.86962189 127.52111816 36.85804749 C128.65239136 36.86742844 129.78366455 36.87680939 130.94921875 36.88647461 C131.94610718 36.88664078 132.94299561 36.88680695 133.97009277 36.88697815 C136.47460937 37.38818359 136.47460937 37.38818359 138.29171753 38.92289734 C139.94172962 42.36171734 139.92521435 45.59664653 139.92626953 49.33447266 C139.93795166 50.13175278 139.94963379 50.9290329 139.96166992 51.75047302 C139.99524984 54.38504072 140.00599304 57.01904574 140.01367188 59.65380859 C140.02585524 61.48980913 140.03834134 63.32580769 140.05111694 65.1618042 C140.07359449 69.01188615 140.08314698 72.86177018 140.08544922 76.71191406 C140.09072523 81.63291525 140.14201083 86.5522575 140.20496559 91.47281265 C140.24594193 95.26654455 140.25509225 99.05987988 140.25556564 102.85381317 C140.26093501 104.66706092 140.27773512 106.48031373 140.30641556 108.29334259 C140.53766061 124.24479686 140.53766061 124.24479686 136.07348633 129.34863281 C134.88692029 130.37708006 133.68835875 131.39196316 132.47460938 132.38818359 C130.82926028 134.5881395 129.42534671 136.8940834 128.03710938 139.26318359 C127.47588379 140.21692871 127.47588379 140.21692871 126.90332031 141.18994141 C114.33868178 163.06956049 108.25774672 186.21332915 108.43164062 211.41943359 C108.43474243 212.28729492 108.43784424 213.15515625 108.44104004 214.04931641 C108.44904371 216.16228661 108.46137004 218.27523971 108.47460938 220.38818359 C79.76344468 220.481583 51.05230273 220.55214133 22.34101677 220.59543228 C9.01015924 220.6160664 -4.32057231 220.64420331 -17.65136719 220.68994141 C-29.26910428 220.72978302 -40.88677306 220.75561023 -52.50457656 220.76453757 C-58.65737417 220.76975681 -64.80997631 220.78204185 -70.96271133 220.81110382 C-76.75255563 220.83823043 -82.54212372 220.84663405 -88.33202553 220.84061432 C-90.45809619 220.84171578 -92.58417598 220.84968585 -94.71019173 220.86500549 C-97.61175098 220.88488996 -100.51226575 220.88012809 -103.41384888 220.86920166 C-104.2562714 220.88085303 -105.09869393 220.89250439 -105.96664441 220.90450883 C-111.28036609 220.85037635 -114.32338028 219.93561789 -118.52539062 216.38818359 C-121.49590627 211.93241013 -121.15276553 207.61375754 -120.52539062 202.38818359 C-118.4132561 198.69194818 -116.39865301 196.99836671 -112.52539062 195.38818359 C-110.32714844 195.16113281 -110.32714844 195.16113281 -107.97851562 195.19287109 C-106.71201172 195.20253906 -106.71201172 195.20253906 -105.41992188 195.21240234 C-104.11087891 195.23753906 -104.11087891 195.23753906 -102.77539062 195.26318359 C-101.88722656 195.27220703 -100.9990625 195.28123047 -100.08398438 195.29052734 C-97.89751005 195.31403782 -95.71158968 195.3468986 -93.52539062 195.38818359 C-93.5290778 194.80011334 -93.53276497 194.21204309 -93.53656387 193.60615253 C-93.62492841 179.29244097 -93.69110674 164.97875376 -93.73263931 150.66483021 C-93.75325843 143.742681 -93.78136625 136.82071393 -93.82714844 129.89868164 C-93.87129829 123.22026244 -93.89451931 116.54207169 -93.9048996 109.8635006 C-93.91229834 107.3137584 -93.92674606 104.76402674 -93.94831085 102.21436501 C-93.97728845 98.64683143 -93.98134883 95.08008323 -93.97949219 91.51245117 C-93.99387329 90.45509262 -94.00825439 89.39773407 -94.02307129 88.30833435 C-93.99844803 83.94447056 -93.919523 81.12508917 -91.8369751 77.23136902 C-89.0237685 74.98820574 -87.65814071 74.76527353 -84.0859375 74.77294922 C-82.99800903 74.7636438 -81.91008057 74.75433838 -80.78918457 74.74475098 C-79.61932007 74.76114624 -78.44945557 74.7775415 -77.24414062 74.79443359 C-76.03850464 74.79439331 -74.83286865 74.79435303 -73.59069824 74.79431152 C-71.04202054 74.7996723 -68.49334356 74.81727842 -65.94482422 74.84619141 C-62.04017708 74.88802517 -58.13725517 74.88726227 -54.23242188 74.88037109 C-51.75714945 74.89086395 -49.28188593 74.90380255 -46.80664062 74.91943359 C-45.63677612 74.91963501 -44.46691162 74.91983643 -43.26159668 74.92004395 C-42.17366821 74.93595581 -41.08573975 74.95186768 -39.96484375 74.96826172 C-39.00872192 74.97668091 -38.0526001 74.9851001 -37.06750488 74.99377441 C-34.00516006 75.4688974 -32.76391448 76.26411552 -30.52539062 78.38818359 C-30.03319931 80.58455944 -30.03319931 80.58455944 -30.04437256 83.1907196 C-30.0388739 84.17929962 -30.03337524 85.16787964 -30.02770996 86.18641663 C-30.04209106 87.26966721 -30.05647217 88.35291779 -30.07128906 89.46899414 C-30.07070496 90.61059998 -30.07012085 91.75220581 -30.06951904 92.92840576 C-30.07231111 96.71087803 -30.10345765 100.49256734 -30.13476562 104.27490234 C-30.14222398 106.89377919 -30.14791882 109.51266161 -30.1519165 112.13154602 C-30.16435276 118.32583426 -30.19718281 124.51984038 -30.23731446 130.71400434 C-30.28201224 137.76589501 -30.30401413 144.81779911 -30.3240962 151.86979616 C-30.36591517 166.37609158 -30.43927545 180.88208154 -30.52539062 195.38818359 C-23.26539062 195.38818359 -16.00539063 195.38818359 -8.52539062 195.38818359 C-8.53538338 191.79009041 -8.53538338 191.79009041 -8.545578 188.11930847 C-8.60680315 165.56040542 -8.65149125 143.0015133 -8.68082714 120.44254589 C-8.69631073 108.84358126 -8.7174287 97.24467751 -8.75170898 85.64575195 C-8.78156572 75.53875972 -8.80095477 65.43181157 -8.80765611 55.32477647 C-8.81157469 49.97079248 -8.82081479 44.61693461 -8.8425808 39.26299095 C-8.86288712 34.22747474 -8.86923632 29.19213705 -8.86471367 24.15658379 C-8.8655415 22.30500571 -8.87154189 20.45342189 -8.88300705 18.60187912 C-8.89785973 16.08036737 -8.89437096 13.55953604 -8.88615417 11.03800964 C-8.8948927 10.2996861 -8.90363122 9.56136255 -8.91263455 8.80066556 C-8.88668903 5.86960492 -8.8678783 3.87816727 -7.15937519 1.4338789 C-4.75308695 -0.10606485 -2.84087118 0.0068017 0 0 Z " fill="#4F91CD" transform="translate(128.525390625,175.61181640625)"/>
<path d="M0 0 C1.33864281 4.01592843 1.13067772 7.87474284 1.11352539 12.0612793 C1.11367142 12.98830658 1.11381744 13.91533386 1.1139679 14.87045288 C1.11327054 17.93839854 1.10548637 21.00628368 1.09765625 24.07421875 C1.09579144 26.1998542 1.09436784 28.32549007 1.09336853 30.4511261 C1.08954829 36.04889103 1.07972219 41.64663007 1.06866455 47.24438477 C1.05843984 52.95523732 1.05386863 58.66609406 1.04882812 64.37695312 C1.03809951 75.5846468 1.02102897 86.79232125 1 98 C2.19381287 97.99111755 3.38762573 97.98223511 4.61761475 97.9730835 C15.85945048 97.89205261 27.10122708 97.83206093 38.34328842 97.79275131 C44.12318834 97.77186252 49.9028528 97.74352088 55.68261719 97.69824219 C61.25877451 97.65483114 66.83470513 97.63087263 72.41101837 97.62049103 C74.54013896 97.61309118 76.66924691 97.59864125 78.79827118 97.57707977 C81.77692125 97.54810922 84.75463051 97.54404139 87.73339844 97.54589844 C88.61668823 97.53151733 89.49997803 97.51713623 90.41003418 97.50231934 C96.37997282 97.54268373 96.37997282 97.54268373 99.54815674 99.87945557 C103.92800435 106.27660719 100.78514224 117.53955333 99.54931641 124.86279297 C95.87919223 144.07791421 87.12032221 161.52599375 74 176 C73.56204102 176.48710449 73.12408203 176.97420898 72.67285156 177.47607422 C55.07069474 196.81111804 30.08274571 209.49014707 3.83862305 211.20678711 C0.61862265 211.30224412 -2.59115291 211.32907146 -5.8125 211.3125 C-6.95178955 211.30758545 -8.0910791 211.3026709 -9.26489258 211.29760742 C-17.8723648 211.17815279 -25.69410537 210.39240635 -34 208 C-35.22332031 207.6596875 -36.44664062 207.319375 -37.70703125 206.96875 C-63.43971899 199.12438793 -86.10389718 181.36366999 -99.24853516 157.7578125 C-113.01581236 131.64390664 -117.07780447 101.98446893 -108.74609375 73.39453125 C-99.1415393 43.51219687 -78.75118688 21.32219967 -51 7 C-38.97666967 1.31267812 -12.38931612 -8.25954408 0 0 Z " fill="#459CD5" transform="translate(372,279)"/>
<path d="M0 0 C0.91092911 -0.00619858 1.82185822 -0.01239716 2.76039124 -0.01878357 C4.68261651 -0.0258721 6.60490331 -0.02272462 8.52709961 -0.01000977 C11.4599776 0.00384635 14.38965738 -0.03021603 17.32226562 -0.06835938 C19.19401119 -0.06931075 21.06576074 -0.06745079 22.9375 -0.0625 C23.80954575 -0.07575821 24.68159149 -0.08901642 25.58006287 -0.10267639 C29.69163404 -0.04016028 32.66498663 0.20655433 36.01000977 2.73071289 C40.55554379 7.83526454 40.83932318 12.7727051 40.80078125 19.37890625 C40.8026947 20.11085205 40.80460815 20.84279785 40.80657959 21.59692383 C40.80793389 23.13655951 40.80429046 24.67620691 40.79589844 26.21582031 C40.78518777 28.55950811 40.79581906 30.90242952 40.80859375 33.24609375 C40.80727202 34.74869959 40.80470935 36.25130496 40.80078125 37.75390625 C40.80482971 38.44782471 40.80887817 39.14174316 40.81304932 39.85668945 C40.75892003 45.53109867 39.84368779 49.78204506 36.47265625 54.37890625 C32.54462746 57.30403407 29.3911058 57.95721041 24.53515625 57.56640625 C21.5776206 56.79858449 19.69470994 55.72290493 17.53515625 53.56640625 C16.57373047 51.34130859 16.57373047 51.34130859 15.83984375 48.90234375 C15.58960449 48.09071777 15.33936523 47.2790918 15.08154297 46.44287109 C14.90123535 45.8236377 14.72092773 45.2044043 14.53515625 44.56640625 C13.83500271 45.27347324 13.83500271 45.27347324 13.12070465 45.99482441 C1.74948454 57.47658394 -9.63562285 68.94437123 -21.03627777 80.39690113 C-26.54927529 85.93565338 -32.05751163 91.4789881 -37.5546875 97.03344727 C-42.34740855 101.87608681 -47.14892656 106.70979992 -51.96110392 111.53310889 C-54.50759271 114.08610212 -57.04953338 116.64327315 -59.58097839 119.21119118 C-62.41078872 122.08143828 -65.26006939 124.93157582 -68.11132812 127.78051758 C-68.94283386 128.62999969 -69.7743396 129.47948181 -70.63104248 130.35470581 C-75.33796152 135.02041712 -79.00251522 137.89660034 -85.46484375 139.56640625 C-93.70951912 139.29158374 -98.51992184 133.3562939 -104.08984375 127.89697266 C-105.82483864 126.21804472 -107.63118717 124.6364747 -109.46484375 123.06640625 C-113.39573625 119.65963275 -117.21680948 116.1363784 -121.04296875 112.61328125 C-123.81978432 110.06085482 -126.61465092 107.53657337 -129.46484375 105.06640625 C-132.85535473 102.1279634 -136.16443159 99.10515674 -139.46484375 96.06640625 C-143.50500127 92.3489571 -147.55746093 88.65179316 -151.72265625 85.07421875 C-152.88272499 84.07021307 -154.02380924 83.04383851 -155.14453125 81.99609375 C-156.84765998 80.39305101 -156.84765998 80.39305101 -159.46484375 78.56640625 C-162.87810665 78.87793421 -164.44060217 80.22948454 -166.71484375 82.69140625 C-169.08934093 85.17110267 -171.48491119 87.51718146 -174.08984375 89.75390625 C-177.79198678 92.94466377 -181.38322413 96.24207807 -184.96484375 99.56640625 C-189.02482901 103.33211456 -193.11896444 107.03861227 -197.30859375 110.66015625 C-200.23724737 113.24925583 -203.09882552 115.90835306 -205.96484375 118.56640625 C-210.02499338 122.33194185 -214.11895777 126.03860651 -218.30859375 129.66015625 C-221.23724737 132.24925583 -224.09882552 134.90835306 -226.96484375 137.56640625 C-231.02499338 141.33194185 -235.11895777 145.03860651 -239.30859375 148.66015625 C-242.23725634 151.24926375 -245.09855808 153.90862945 -247.96484375 156.56640625 C-252.73160414 160.97939425 -257.49787343 165.3777653 -262.46484375 169.56640625 C-263.20347656 170.20707031 -263.94210937 170.84773437 -264.703125 171.5078125 C-269.15670656 175.21289296 -272.41226341 177.79057589 -278.46484375 177.56640625 C-282.72320639 176.41159604 -285.49486757 175.09119923 -287.96484375 171.44140625 C-289.60490348 167.93431423 -290.2173632 164.93389446 -289.59375 161.09375 C-286.93981258 155.15223611 -281.26731588 150.81243658 -276.46484375 146.56640625 C-275.76617187 145.93992188 -275.0675 145.3134375 -274.34765625 144.66796875 C-273.12582503 143.59296703 -271.89516077 142.52792889 -270.65625 141.47265625 C-267.69957431 138.90071733 -264.83621881 136.23282862 -261.96484375 133.56640625 C-257.90496481 129.800588 -253.81071832 126.09419614 -249.62109375 122.47265625 C-246.69244013 119.88355667 -243.83086198 117.22445944 -240.96484375 114.56640625 C-236.90469412 110.80087065 -232.81072973 107.09420599 -228.62109375 103.47265625 C-225.69244013 100.88355667 -222.83086198 98.22445944 -219.96484375 95.56640625 C-215.90469412 91.80087065 -211.81072973 88.09420599 -207.62109375 84.47265625 C-204.69244013 81.88355667 -201.83086198 79.22445944 -198.96484375 76.56640625 C-194.9080109 72.80394676 -190.8208154 69.09655203 -186.62890625 65.484375 C-184.82595115 63.88644909 -183.05914309 62.26352218 -181.30078125 60.6171875 C-180.73101562 60.08480469 -180.16125 59.55242187 -179.57421875 59.00390625 C-178.44833435 57.94902357 -177.3257319 56.89062299 -176.20703125 55.828125 C-166.81058567 47.03047252 -166.81058567 47.03047252 -160.77734375 46.75390625 C-153.62383204 47.11530209 -149.40292071 51.86340585 -144.46484375 56.56640625 C-143.14165982 57.79798773 -141.81737331 59.02838531 -140.4921875 60.2578125 C-137.7657627 62.79534898 -135.05728149 65.3501678 -132.359375 67.91796875 C-129.09447419 71.00739041 -125.74119702 73.97787896 -122.34643555 76.92333984 C-119.67389559 79.2570876 -117.07093892 81.65860093 -114.46484375 84.06640625 C-110.56381105 87.66023263 -106.63284181 91.2081222 -102.60546875 94.66015625 C-100.84307549 96.22958675 -99.143249 97.83110525 -97.44921875 99.47265625 C-96.91554687 99.98248047 -96.381875 100.49230469 -95.83203125 101.01757812 C-94.77004097 102.03467751 -93.71754954 103.0618072 -92.67578125 104.09960938 C-91.05671867 105.69278436 -91.05671867 105.69278436 -88.46484375 107.56640625 C-85.02224814 107.2598068 -83.33158724 105.80516268 -80.94671631 103.40904236 C-80.26808533 102.73453537 -79.58945435 102.06002838 -78.89025879 101.36508179 C-78.15658081 100.62061798 -77.42290283 99.87615417 -76.66699219 99.10913086 C-75.88612244 98.32869919 -75.10525269 97.54826752 -74.30072021 96.7441864 C-71.7180467 94.15942068 -69.14616508 91.56418633 -66.57421875 88.96875 C-64.78697015 87.17590702 -62.99905863 85.38372466 -61.21051025 83.59217834 C-56.98349757 79.35487643 -52.7632354 75.11096305 -48.54615998 70.8637796 C-43.74434825 66.0284321 -38.93401194 61.20160361 -34.12293959 56.3754729 C-24.22739115 46.44856947 -14.34259951 36.51101216 -4.46484375 26.56640625 C-5.09132813 26.29868408 -5.7178125 26.03096191 -6.36328125 25.75512695 C-7.18054688 25.40023193 -7.9978125 25.04533691 -8.83984375 24.6796875 C-9.65195312 24.32946533 -10.4640625 23.97924316 -11.30078125 23.6184082 C-13.99921493 22.30663578 -15.21056174 21.31014815 -16.46484375 18.56640625 C-17.95051322 12.94208612 -17.3219691 9.61399437 -14.46484375 4.56640625 C-10.06801872 -0.14731662 -6.06818009 -0.03443361 0 0 Z " fill="#37ABE0" transform="translate(318.46484375,21.43359375)"/>
<path d="M0 0 C2.14941512 0.11132429 4.29576721 0.28702322 6.4375 0.5 C7.11796387 0.56719238 7.79842773 0.63438477 8.49951172 0.70361328 C38.79881101 3.95592952 63.99639406 18.72892865 83.50390625 41.9609375 C92.49404252 54.18418543 98.61647156 67.89018539 102.4375 82.5 C102.68242187 83.34304688 102.92734375 84.18609375 103.1796875 85.0546875 C104.63236607 90.80570267 104.63664623 96.60041579 104.6875 102.5 C104.7016394 103.77580933 104.7016394 103.77580933 104.71606445 105.07739258 C104.71179443 105.87685303 104.70752441 106.67631348 104.703125 107.5 C104.70086914 108.221875 104.69861328 108.94375 104.69628906 109.6875 C104.4375 111.5 104.4375 111.5 102.4375 113.5 C100.51310825 113.75726891 100.51310825 113.75726891 98.11708069 113.76742554 C97.2099382 113.77595551 96.30279572 113.78448547 95.36816406 113.79327393 C94.37018799 113.79236755 93.37221191 113.79146118 92.34399414 113.79052734 C90.77070595 113.80060318 90.77070595 113.80060318 89.16563416 113.81088257 C85.68459387 113.82994301 82.20374553 113.83379074 78.72265625 113.8359375 C76.31131408 113.84235952 73.8999727 113.84908742 71.4886322 113.85610962 C66.42868238 113.86810233 61.36880093 113.87178836 56.30883789 113.87060547 C49.81391986 113.8704021 43.31943851 113.8977145 36.82462406 113.93214989 C31.84303255 113.95434816 26.86154734 113.95844519 21.87991142 113.95738602 C19.48483206 113.95975227 17.08975022 113.96863286 14.69471931 113.98405075 C11.34963198 114.00356866 8.00550198 113.99792835 4.66040039 113.98583984 C3.66444855 113.99707886 2.6684967 114.00831787 1.6423645 114.01989746 C0.27742104 114.007314 0.27742104 114.007314 -1.11509705 113.99447632 C-2.30169623 113.99611062 -2.30169623 113.99611062 -3.51226711 113.99777794 C-5.5625 113.5 -5.5625 113.5 -7.31623268 111.74382114 C-8.6869277 109.27597623 -8.94119192 107.90359101 -8.95018005 105.10438538 C-8.96008469 104.2310405 -8.96998932 103.35769562 -8.98019409 102.45788574 C-8.97569244 101.50764526 -8.9711908 100.55740479 -8.96655273 99.57836914 C-8.97341599 98.57144516 -8.98027924 97.56452118 -8.98735046 96.52708435 C-9.0056621 93.19629849 -9.00177461 89.86598169 -8.99609375 86.53515625 C-9.00065348 84.22114406 -9.00595842 81.90713324 -9.01197815 79.59312439 C-9.02091787 74.74179587 -9.01847627 69.89063189 -9.00854492 65.03930664 C-8.99705493 58.8203759 -9.01726336 52.60201292 -9.04646206 46.38315678 C-9.0648026 41.60392139 -9.06453583 36.82482258 -9.05882454 32.04556084 C-9.05867106 29.75262086 -9.06473736 27.45967178 -9.07711601 25.16676521 C-9.09198298 21.96115566 -9.08137969 18.75660177 -9.06420898 15.55102539 C-9.07387695 14.60280914 -9.08354492 13.6545929 -9.09350586 12.67764282 C-9.04571073 8.41937358 -8.93535132 6.10712903 -6.66419983 2.40892029 C-4.19001018 0.16167701 -3.2973424 -0.12702443 0 0 Z " fill="#34AEE2" transform="translate(399.5625,244.5)"/>
<path d="M0 0 C1.02471405 -0.00960754 2.0494281 -0.01921509 3.10519409 -0.02911377 C4.76459518 -0.03548859 4.76459518 -0.03548859 6.45751953 -0.04199219 C8.16465622 -0.0505423 8.16465622 -0.0505423 9.90628052 -0.05926514 C12.31544057 -0.06871598 14.72461355 -0.07524945 17.13378906 -0.07910156 C20.8187514 -0.08881033 24.5031568 -0.119835 28.18798828 -0.15136719 C30.52782872 -0.15789696 32.86767314 -0.16314753 35.20751953 -0.16699219 C36.30973846 -0.17933899 37.4119574 -0.19168579 38.5475769 -0.20440674 C40.09410446 -0.19990509 40.09410446 -0.19990509 41.671875 -0.1953125 C42.57549774 -0.19895813 43.47912048 -0.20260376 44.41012573 -0.20635986 C47.55635594 0.24613454 49.42786734 1.26772411 51.96533203 3.16113281 C52.90251486 5.97268129 53.09091939 7.67014945 53.09231567 10.57730103 C53.09654541 11.931791 53.09654541 11.931791 53.1008606 13.31364441 C53.09782425 14.79590263 53.09782425 14.79590263 53.09472656 16.30810547 C53.09735504 17.87180122 53.09735504 17.87180122 53.10003662 19.46708679 C53.10444531 22.91980646 53.101521 26.3724751 53.09814453 29.82519531 C53.09881775 32.21747853 53.09978793 34.60976169 53.1010437 37.00204468 C53.10251926 42.01732026 53.10037028 47.03257805 53.09570312 52.04785156 C53.08999978 58.49232712 53.09328958 64.93676109 53.09927559 71.38123512 C53.10287978 76.3206921 53.10174338 81.26013913 53.0991478 86.19959641 C53.09847845 88.57677592 53.09930721 90.95395632 53.10162735 93.3311348 C53.10415221 96.64509749 53.10031592 99.95899166 53.09472656 103.27294922 C53.09675079 104.26516983 53.09877502 105.25739044 53.1008606 106.27967834 C53.09804077 107.17703201 53.09522095 108.07438568 53.09231567 108.99893188 C53.09175014 110.1752867 53.09175014 110.1752867 53.09117317 111.37540627 C52.96533203 113.16113281 52.96533203 113.16113281 51.96533203 114.16113281 C50.65911121 114.46747048 49.3411347 114.72410545 48.02001953 114.95800781 C28.46703652 118.55281339 9.85799383 124.16773235 -6.33544922 136.12988281 C-8.03466797 137.16113281 -8.03466797 137.16113281 -11.03466797 137.16113281 C-11.10472786 120.01957478 -11.15764128 102.87806139 -11.19010448 85.73639297 C-11.20557789 77.77733832 -11.2266764 69.81837258 -11.26098633 61.859375 C-11.29087425 54.92286169 -11.31023953 47.98641278 -11.31693345 41.04983687 C-11.32084677 37.37644845 -11.33005325 33.70324427 -11.35185814 30.02991486 C-11.37599424 25.93066714 -11.37663836 21.83174039 -11.37524414 17.73242188 C-11.38602997 16.51250549 -11.3968158 15.29258911 -11.40792847 14.03570557 C-11.40380447 12.91953857 -11.39968048 11.80337158 -11.39543152 10.65338135 C-11.3981969 9.68365513 -11.40096228 8.71392891 -11.40381145 7.71481705 C-10.96674179 4.69122881 -10.14725392 3.34259509 -8.03466797 1.16113281 C-5.07070149 0.17314399 -3.09377204 0.02341856 0 0 Z " fill="#36ACE1" transform="translate(300.03466796875,140.8388671875)"/>
</svg>
