<svg xmlns="http://www.w3.org/2000/svg" width="28" height="28" viewBox="0 0 72 72" fill="none">
    <path
        d="M19.0789 58.125C15.0827 58.125 11.6913 56.7458 8.9048 53.9875C6.11825 51.2291 4.72498 47.8544 4.72498 43.8635C4.72498 40.2126 5.99708 37.0008 8.54128 34.2282C11.0855 31.4556 14.0884 29.9442 17.55 29.6942C18.2884 25.1288 20.4137 21.3538 23.9259 18.3692C27.4381 15.3846 31.4936 13.8923 36.0923 13.8923C41.172 13.8923 45.4659 15.6513 48.9742 19.1691C52.4824 22.687 54.3865 26.9665 54.6865 32.0077V35.8846H56.5326C59.5788 35.9961 62.1307 37.0865 64.1884 39.1558C66.2461 41.225 67.275 43.8192 67.275 46.9385C67.275 50.0263 66.2018 52.6627 64.0553 54.8476C61.9088 57.0325 59.2917 58.125 56.2039 58.125H39.525C38.104 58.125 36.8939 57.6175 35.8948 56.6024C34.8957 55.5874 34.3961 54.3853 34.3961 52.9962V34.8116L27.7961 41.3942L25.4538 39.1097L36 28.5635L46.6212 39.1097L44.2789 41.3942L37.6789 34.8116V52.9962C37.6789 53.4577 37.8712 53.8808 38.2558 54.2654C38.6404 54.65 39.0634 54.8423 39.525 54.8423H56.0524C58.2495 54.8423 60.1221 54.0599 61.6702 52.4951C63.2183 50.9303 63.9923 49.0846 63.9923 46.958C63.9923 44.8269 63.2136 42.9806 61.6562 41.419C60.0989 39.8573 58.2382 39.0765 56.0743 39.0765H51.3838V32.9393C51.3838 28.6306 49.8849 24.926 46.8874 21.8256C43.8897 18.7252 40.2318 17.175 35.9137 17.175C31.5957 17.175 27.9357 18.7239 24.9337 21.8216C21.9317 24.9193 20.4307 28.6205 20.4307 32.9254H18.8276C15.9083 32.9254 13.3751 33.975 11.2282 36.0742C9.08115 38.1734 8.00765 40.7926 8.00765 43.9319C8.00765 46.9467 9.07805 49.5188 11.2189 51.6482C13.3597 53.7776 15.9797 54.8423 19.0789 54.8423H27.5884V58.125H19.0789Z"
        fill="#999999"></path>
</svg>