<?xml version="1.0" encoding="UTF-8"?>
<svg version="1.1" xmlns="http://www.w3.org/2000/svg" width="512" height="512">
<path d="M0 0 C1.89508602 -0.00542829 3.79016781 -0.01255489 5.6852417 -0.02124023 C10.80510666 -0.03939244 15.92464727 -0.03243963 21.04451752 -0.01972389 C26.41787043 -0.0095541 31.7911967 -0.01900058 37.16455078 -0.02526855 C46.1859228 -0.0325334 55.20716356 -0.0229878 64.22851562 -0.00390625 C74.63905163 0.01786019 85.04927421 0.010808 95.45980263 -0.01121187 C104.4189604 -0.02939903 113.37802416 -0.03190799 122.33719444 -0.0214572 C127.67897042 -0.01524049 133.02059936 -0.01433631 138.36236572 -0.02760315 C143.38584215 -0.03920935 148.40891685 -0.03104909 153.43235016 -0.00802612 C155.26927272 -0.00276444 157.10622943 -0.00420895 158.94313812 -0.01307678 C173.12103165 -0.07517983 184.39123202 1.27824445 195.1171875 11.51757812 C206.7520451 23.70537945 206.72203021 36.87672093 206.6484375 52.79492188 C206.65113575 54.85470258 206.65502094 56.91448205 206.66003418 58.97425842 C206.66590427 63.27015428 206.65744061 67.56571553 206.63867188 71.86157227 C206.61578291 77.3686172 206.62908396 82.87488654 206.65296173 88.38190365 C206.66740123 92.6258176 206.66282393 96.86954682 206.65245056 101.11346626 C206.64978338 103.14486343 206.65305272 105.17627739 206.66236877 107.20765495 C206.6725149 110.03920049 206.65706505 112.86947693 206.63476562 115.70092773 C206.64286255 116.53888382 206.65095947 117.3768399 206.65930176 118.2401886 C206.60563591 121.91385537 206.46231244 124.06198835 204.20983887 127.03541565 C201.94398101 128.64025511 200.86367299 129.06049196 198.1171875 129.01757812 C197.1271875 129.03304687 197.1271875 129.03304687 196.1171875 129.04882812 C193.10448902 128.24858009 192.02183884 126.98254922 190.1171875 124.51757812 C189.72438562 121.71298695 189.57276373 119.29841004 189.60302734 116.49536133 C189.59590225 115.68993393 189.58877716 114.88450653 189.58143616 114.05467224 C189.56214145 111.39231899 189.57044009 108.7307595 189.578125 106.06835938 C189.56821625 104.21232445 189.55627433 102.35629936 189.54238892 100.50028992 C189.5099911 95.60958696 189.49963331 90.7191078 189.49554443 85.82830811 C189.48680019 78.0184294 189.45107833 70.20873526 189.4033699 62.3990078 C189.3908506 59.67985942 189.39153783 56.96094669 189.39364624 54.24177551 C189.38705891 52.55677108 189.38005128 50.87176823 189.37255859 49.18676758 C189.37668259 48.4399472 189.38080658 47.69312683 189.38505554 46.92367554 C189.31991409 38.2905743 188.06415869 30.42366526 181.69921875 24.11132812 C174.8391061 18.04480178 167.65200768 17.39548213 158.77458191 17.38386536 C158.05710024 17.3815998 157.33961856 17.37933424 156.60039502 17.37700003 C154.20778256 17.37069429 151.81522725 17.37148719 149.42260742 17.37231445 C147.70235623 17.36932082 145.98210572 17.36591781 144.26185608 17.36213684 C139.59646302 17.35331328 134.9310883 17.35095941 130.2656877 17.35032105 C127.34856905 17.3496096 124.43145504 17.34747346 121.51433754 17.34482384 C111.33076304 17.33557573 101.14720161 17.33148827 90.96362305 17.33227539 C81.48197568 17.33287598 72.00038524 17.32232639 62.51875228 17.30653173 C54.36908615 17.29344129 46.2194386 17.28809213 38.06976205 17.2887308 C33.20643729 17.28898535 28.34316312 17.28615776 23.47984886 17.27555275 C18.90388432 17.26584652 14.3280185 17.26580988 9.7520504 17.27306938 C8.07715205 17.2741121 6.40224747 17.271771 4.72735977 17.26570892 C-11.03167531 16.86459616 -11.03167531 16.86459616 -24.8828125 23.51757812 C-31.85081715 30.54364948 -33.00583958 37.86215571 -33.01144695 47.47767353 C-33.01319999 48.1572497 -33.01495303 48.83682587 -33.01675919 49.53699526 C-33.02140875 51.81271401 -33.01895638 54.08836858 -33.01652527 56.36408997 C-33.01839377 58.01277474 -33.02069462 59.66145907 -33.02339059 61.3101427 C-33.02951019 65.83984566 -33.02937481 70.36953017 -33.02819622 74.89923632 C-33.02799225 79.78483212 -33.03351056 84.67042198 -33.03825378 89.55601501 C-33.04656173 99.12745278 -33.04930869 108.69888439 -33.04986616 118.27032546 C-33.05034125 126.0499504 -33.05239561 133.82957332 -33.05556679 141.60919762 C-33.06437369 163.66317015 -33.0689861 185.71713782 -33.06823631 207.77111212 C-33.06817638 209.55467407 -33.06817638 209.55467407 -33.06811523 211.37426758 C-33.06807435 212.56475968 -33.06803347 213.75525179 -33.06799135 214.98181941 C-33.06758485 234.27794773 -33.07715532 253.57405654 -33.0912536 272.87017921 C-33.10561355 292.68066141 -33.112524 312.49113408 -33.11165982 332.30162162 C-33.11132773 343.42476614 -33.11408041 354.54789021 -33.12483788 365.67103004 C-33.13393784 375.14104958 -33.13612226 384.61103939 -33.12932845 394.0810614 C-33.12606073 398.91249961 -33.12601568 403.74388077 -33.1346817 408.57531357 C-33.14253641 412.99994126 -33.14112577 417.42446656 -33.13239757 421.84909173 C-33.13086032 423.44798567 -33.13268721 425.04688722 -33.13825765 426.6457722 C-33.46502635 442.03551808 -33.46502635 442.03551808 -26.8828125 455.51757812 C-19.73615527 462.60517207 -12.30477151 463.63851324 -2.54020691 463.65129089 C-1.82272524 463.65355645 -1.10524356 463.65582201 -0.36602002 463.65815622 C2.02659244 463.66446196 4.41914775 463.66366906 6.81176758 463.6628418 C8.53201877 463.66583543 10.25226928 463.66923844 11.97251892 463.67301941 C16.63791198 463.68184297 21.3032867 463.68419684 25.9686873 463.6848352 C28.88580595 463.68554665 31.80291996 463.68768279 34.72003746 463.69033241 C44.90361196 463.69958052 55.08717339 463.70366798 65.27075195 463.70288086 C74.75239932 463.70228027 84.23398976 463.71282986 93.71562272 463.72862452 C101.86528885 463.74171496 110.0149364 463.74706412 118.16461295 463.74642545 C123.02793771 463.7461709 127.89121188 463.74899849 132.75452614 463.7596035 C137.33049068 463.76930973 141.9063565 463.76934637 146.4823246 463.76208687 C148.15722295 463.76104415 149.83212753 463.76338525 151.50701523 463.76944733 C167.26605031 464.17056009 167.26605031 464.17056009 181.1171875 457.51757812 C188.07298173 450.50381894 189.23841995 443.19692289 189.24848938 433.59689331 C189.25060509 432.92488644 189.25272081 432.25287956 189.25490063 431.56050885 C189.26086388 429.32206084 189.25990315 427.0836698 189.2590332 424.84521484 C189.26206699 423.23507594 189.26558906 421.62493789 189.26956177 420.01480103 C189.27743179 416.55430888 189.2825884 413.09382697 189.28585243 409.63332748 C189.29177379 404.16251231 189.30832285 398.69176178 189.32719421 393.22097778 C189.33353085 391.34676174 189.33985649 389.47254566 189.34617138 387.59832954 C189.3509201 386.19084525 189.3509201 386.19084525 189.35576475 384.75492692 C189.39783002 372.0226643 189.43084202 359.29043302 189.44311523 346.55810547 C189.45148594 337.96242787 189.47393449 329.36691162 189.5124709 320.77131474 C189.53225484 316.2238907 189.54462817 311.67670797 189.53963661 307.12923813 C189.53500256 302.85600352 189.54872684 298.58322742 189.57664871 294.3100853 C189.58357987 292.74114487 189.58366641 291.17215722 189.57644844 289.60321808 C189.56759557 287.46302795 189.58319228 285.32436173 189.60493469 283.18429565 C189.60851722 281.38742719 189.60851722 281.38742719 189.61217213 279.55425835 C190.21704433 275.91713448 191.23609904 274.7428101 194.1171875 272.51757812 C196.1171875 271.98632812 196.1171875 271.98632812 198.1171875 272.01757812 C199.1071875 272.00210938 199.1071875 272.00210938 200.1171875 271.98632812 C203.0885624 272.77559958 204.21402312 274.11937273 206.1171875 276.51757812 C206.62055206 279.68084812 206.62055206 279.68084812 206.62512207 283.49232483 C206.63136203 284.19443586 206.637602 284.8965469 206.64403105 285.61993402 C206.65998723 287.97295703 206.64734706 290.3249478 206.63476562 292.67797852 C206.64018596 294.3651388 206.64730811 296.05229435 206.65600586 297.73944092 C206.6742626 302.32462486 206.66715946 306.90944929 206.65448952 311.49463964 C206.64436238 316.29814832 206.65375548 321.10162621 206.66003418 325.90513611 C206.66731633 333.97970091 206.65771315 342.05411951 206.63867188 350.12866211 C206.61695359 359.44559321 206.62391542 368.76217347 206.6459775 378.0790959 C206.66417703 386.08695591 206.66666607 394.09471074 206.65622282 402.10258478 C206.65000621 406.88108618 206.64910054 411.65942324 206.66236877 416.43791389 C206.67399114 420.93848032 206.66578582 425.43859897 206.64279175 429.93911743 C206.63753634 431.58413897 206.63896364 433.22919867 206.64784241 434.87420464 C206.71436136 448.45958282 204.82540272 459.34798238 195.1171875 469.51757812 C183.57808438 480.53316806 171.3381823 481.10807115 156.234375 481.03515625 C154.33928898 481.04058454 152.44420719 481.04771114 150.5491333 481.05639648 C145.42926834 481.07454869 140.30972773 481.06759588 135.18985748 481.05488014 C129.81650457 481.04471035 124.4431783 481.05415683 119.06982422 481.0604248 C110.0484522 481.06768965 101.02721144 481.05814405 92.00585938 481.0390625 C81.59532337 481.01729606 71.18510079 481.02434825 60.77457237 481.04636812 C51.8154146 481.06455528 42.85635084 481.06706424 33.89718056 481.05661345 C28.55540458 481.05039674 23.21377564 481.04949256 17.87200928 481.0627594 C12.84853285 481.0743656 7.82545815 481.06620534 2.80202484 481.04318237 C0.96510228 481.03792069 -0.87185443 481.0393652 -2.70876312 481.04823303 C-16.88665665 481.11033608 -28.15685702 479.7569118 -38.8828125 469.51757812 C-49.32199596 458.58227505 -50.4750833 446.83164702 -50.39074707 432.39990234 C-50.39536175 430.67407646 -50.40171847 428.94825452 -50.40965605 427.22244072 C-50.42629459 422.50256444 -50.41812798 417.78301328 -50.40571117 413.0631361 C-50.39664054 407.96420825 -50.41064039 402.86533531 -50.42163086 397.76641846 C-50.43939917 387.78654674 -50.4355836 377.80679548 -50.4239803 367.82691908 C-50.41493962 359.71466046 -50.41372473 351.60243555 -50.41807556 343.49017334 C-50.41868849 342.33473868 -50.41930143 341.17930403 -50.41993293 339.9888562 C-50.42121186 337.6414701 -50.42250871 335.29408402 -50.4238233 332.94669795 C-50.43522415 310.94530831 -50.42212313 288.94398538 -50.40062183 266.94260669 C-50.38275132 248.07238147 -50.38585556 229.20225469 -50.40429688 210.33203125 C-50.4257123 188.40832207 -50.43412556 166.48467132 -50.42184782 144.56095314 C-50.42057365 142.22229641 -50.41931617 139.88363966 -50.41807556 137.54498291 C-50.41745846 136.39437752 -50.41684136 135.24377212 -50.41620556 134.0582999 C-50.41275468 125.95761451 -50.41857536 117.85696626 -50.42799377 109.75628662 C-50.43922257 99.88163564 -50.4361551 90.00711182 -50.4148708 80.13247538 C-50.40437233 75.09615234 -50.40021812 70.06004117 -50.41346741 65.02371979 C-50.42542194 60.40971389 -50.41877835 55.79611545 -50.3975572 51.18214631 C-50.3931041 49.5167494 -50.39532824 47.85131779 -50.40506035 46.18594337 C-50.47840108 32.58837541 -48.60167688 21.69832913 -38.8828125 11.51757812 C-27.34370938 0.50198819 -15.1038073 -0.0729149 0 0 Z " fill="#000000" transform="translate(129.8828125,15.482421875)"/>
<path d="M0 0 C1.09231682 -0.01043099 2.18463364 -0.02086198 3.31005096 -0.03160906 C4.50964699 -0.02268617 5.70924301 -0.01376328 6.94519043 -0.00457001 C8.2198542 -0.01080997 9.49451797 -0.01704993 10.80780792 -0.02347898 C14.3484819 -0.04020703 17.88872569 -0.03191053 21.4294014 -0.01953411 C25.24678745 -0.0105 29.06409848 -0.02444516 32.88146973 -0.0354538 C40.36070617 -0.05326121 47.83978225 -0.04938919 55.31902504 -0.03780323 C61.39633121 -0.0287779 67.47359237 -0.027541 73.55090332 -0.0318985 C74.41511918 -0.03251143 75.27933503 -0.03312436 76.16973925 -0.03375587 C77.9252542 -0.03503474 79.68076914 -0.03633159 81.43628407 -0.03764623 C97.90643425 -0.04905854 114.37649546 -0.03592814 130.84663105 -0.01444477 C144.98564854 0.00342681 159.12453468 0.00032289 173.2635498 -0.01811981 C189.67385777 -0.03951506 206.08408769 -0.04795984 222.49440765 -0.03567076 C224.24354552 -0.03439653 225.9926834 -0.03313905 227.74182129 -0.0318985 C229.0328107 -0.03097285 229.0328107 -0.03097285 230.3498807 -0.03002849 C236.42146455 -0.02657155 242.49299899 -0.03241134 248.5645752 -0.04181671 C255.96157473 -0.05302314 263.35840443 -0.05002534 270.75538445 -0.02869374 C274.5310997 -0.01816491 278.30653157 -0.01409235 282.08224487 -0.02729034 C286.1709225 -0.04136639 290.25888158 -0.02458551 294.34753418 -0.00457001 C296.14692822 -0.01795434 296.14692822 -0.01795434 297.98267365 -0.03160906 C299.62114887 -0.01596257 299.62114887 -0.01596257 301.29272461 0 C302.70886677 0.00097411 302.70886677 0.00097411 304.15361786 0.00196791 C307.39537338 0.65402247 308.59619264 1.96597204 310.6463623 4.50336456 C311.14972687 6.60858917 311.14972687 6.60858917 311.15429688 8.90570831 C311.17121582 10.21789337 311.17121582 10.21789337 311.18847656 11.55658722 C311.17633118 12.9843045 311.17633118 12.9843045 311.16394043 14.44086456 C311.17445435 15.95365997 311.17445435 15.95365997 311.18518066 17.49701691 C311.20279449 20.83274571 311.1911254 24.16762704 311.1776123 27.50336456 C311.18030623 29.81977247 311.18418782 32.13617928 311.18920898 34.45258331 C311.19510865 39.30816154 311.18652568 44.16344552 311.16784668 49.01898956 C311.14505727 55.24701102 311.15817778 61.47434302 311.18213654 67.70233917 C311.19658163 72.48583941 311.19199436 77.26917583 311.18162537 82.05268097 C311.17895453 84.34923128 311.18224031 86.64579639 311.19154358 88.94232941 C311.20168757 92.15057597 311.18623714 95.35770162 311.16394043 98.56586456 C311.17203735 99.51767609 311.18013428 100.46948761 311.18847656 101.45014191 C311.17719727 102.32493195 311.16591797 103.19972198 311.15429688 104.10102081 C311.15203472 105.23809479 311.15203472 105.23809479 311.14972687 106.39813995 C310.42974308 109.40933245 309.01404365 110.55024176 306.6463623 112.50336456 C304.15361786 113.00476122 304.15361786 113.00476122 301.29272461 113.00672913 C300.20040779 113.01716012 299.10809097 113.0275911 297.98267365 113.03833818 C296.18327961 113.02495385 296.18327961 113.02495385 294.34753418 113.01129913 C292.43553852 113.02065908 292.43553852 113.02065908 290.48491669 113.03020811 C286.94424271 113.04693615 283.40399891 113.03863966 279.86332321 113.02626324 C276.04593716 113.01722912 272.22862613 113.03117429 268.41125488 113.04218292 C260.93201844 113.05999034 253.45294236 113.05611832 245.97369957 113.04453236 C239.8963934 113.03550702 233.81913224 113.03427013 227.74182129 113.03862762 C226.87760543 113.03924056 226.01338958 113.03985349 225.12298536 113.04048499 C223.36747041 113.04176387 221.61195547 113.04306072 219.85644054 113.04437536 C203.38629036 113.05578767 186.91622915 113.04265727 170.44609356 113.02117389 C156.30707607 113.00330231 142.16818993 113.00640624 128.0291748 113.02484894 C111.61886684 113.04624418 95.20863692 113.05468897 78.79831696 113.04239988 C77.04917909 113.04112566 75.30004121 113.03986817 73.55090332 113.03862762 C72.69024372 113.03801052 71.82958411 113.03739342 70.94284391 113.03675762 C64.87126006 113.03330067 58.79972562 113.03914047 52.72814941 113.04854584 C45.33114988 113.05975227 37.93432018 113.05675446 30.53734016 113.03542286 C26.76162491 113.02489403 22.98619304 113.02082148 19.21047974 113.03401947 C15.12180211 113.04809551 11.03384302 113.03131464 6.94519043 113.01129913 C5.74559441 113.02022202 4.54599838 113.02914491 3.31005096 113.03833818 C2.21773415 113.0279072 1.12541733 113.01747621 0 113.00672913 C-0.94409477 113.00607972 -1.88818954 113.00543031 -2.86089325 113.00476122 C-6.10264877 112.35270666 -7.30346803 111.04075709 -9.3536377 108.50336456 C-9.85700226 106.39813995 -9.85700226 106.39813995 -9.86157227 104.10102081 C-9.87285156 103.22623077 -9.88413086 102.35144073 -9.89575195 101.45014191 C-9.88765503 100.49833038 -9.87955811 99.54651886 -9.87121582 98.56586456 C-9.8782251 97.55733429 -9.88523438 96.54880402 -9.89245605 95.50971222 C-9.91006988 92.17398342 -9.8984008 88.83910208 -9.8848877 85.50336456 C-9.88758162 83.18695665 -9.89146321 80.87054985 -9.89648438 78.55414581 C-9.90238404 73.69856758 -9.89380108 68.84328361 -9.87512207 63.98773956 C-9.85233266 57.7597181 -9.86545318 51.53238611 -9.88941193 45.30438995 C-9.90385702 40.52088972 -9.89926975 35.73755329 -9.88890076 30.95404816 C-9.88622992 28.65749785 -9.8895157 26.36093273 -9.89881897 24.06439972 C-9.90896297 20.85615316 -9.89351253 17.6490275 -9.87121582 14.44086456 C-9.87931274 13.48905304 -9.88740967 12.53724152 -9.89575195 11.55658722 C-9.88447266 10.68179718 -9.87319336 9.80700714 -9.86157227 8.90570831 C-9.86006416 8.147659 -9.85855606 7.38960968 -9.85700226 6.60858917 C-8.61330581 1.40707011 -4.9243346 0.00338728 0 0 Z M6.6463623 16.50336456 C6.6463623 42.90336456 6.6463623 69.30336456 6.6463623 96.50336456 C101.6863623 96.50336456 196.7263623 96.50336456 294.6463623 96.50336456 C294.6463623 70.10336456 294.6463623 43.70336456 294.6463623 16.50336456 C199.6063623 16.50336456 104.5663623 16.50336456 6.6463623 16.50336456 Z " fill="#000000" transform="translate(153.3536376953125,159.49663543701172)"/>
<path d="M0 0 C0.85247314 -0.00700928 1.70494629 -0.01401855 2.58325195 -0.02124023 C5.3995832 -0.03883756 8.21490864 -0.02719147 11.03125 -0.01367188 C12.98893425 -0.01636629 14.9466172 -0.02024829 16.90429688 -0.02526855 C21.00664007 -0.03116595 25.10863482 -0.02259281 29.2109375 -0.00390625 C34.47045628 0.01888337 39.72915864 0.00576159 44.98864746 -0.01819611 C49.0309871 -0.03264751 53.07313305 -0.0280511 57.11547852 -0.01768494 C59.05476986 -0.01501583 60.99407877 -0.01829385 62.93334961 -0.02760315 C65.6435405 -0.03775789 68.35240775 -0.02228315 71.0625 0 C71.86469971 -0.00809692 72.66689941 -0.01619385 73.4934082 -0.02453613 C77.09387563 0.03033112 79.1245547 0.20680866 82.02734375 2.42492676 C83.65685192 4.69235034 84.0743805 5.75722605 84.03125 8.51757812 C84.04671875 9.50757813 84.04671875 9.50757813 84.0625 10.51757812 C83.25733917 13.54877184 82.02578717 14.61141893 79.53125 16.51757812 C76.5833973 16.912136 74.00947717 17.06490127 71.0625 17.03515625 C69.78379028 17.04567017 69.78379028 17.04567017 68.47924805 17.05639648 C65.6629168 17.07399381 62.84759136 17.06234772 60.03125 17.04882812 C58.07356575 17.05152254 56.1158828 17.05540454 54.15820312 17.0604248 C50.05585993 17.0663222 45.95386518 17.05774906 41.8515625 17.0390625 C36.59204372 17.01627288 31.33334136 17.02939466 26.07385254 17.05335236 C22.0315129 17.06780376 17.98936695 17.06320735 13.94702148 17.05284119 C12.00773014 17.05017208 10.06842123 17.0534501 8.12915039 17.0627594 C5.4189595 17.07291414 2.71009225 17.0574394 0 17.03515625 C-0.80219971 17.04325317 -1.60439941 17.0513501 -2.4309082 17.05969238 C-6.03137563 17.00482513 -8.0620547 16.82834759 -10.96484375 14.61022949 C-12.59435192 12.34280591 -13.0118805 11.2779302 -12.96875 8.51757812 C-12.98421875 7.52757812 -12.98421875 7.52757812 -13 6.51757812 C-11.24883612 -0.07503884 -5.81974348 -0.05874101 0 0 Z " fill="#000000" transform="translate(172.46875,47.482421875)"/>
<path d="M0 0 C2.24642857 1.5074718 4.02629821 3.12257634 6 5 C8.57729827 3.81047772 10.54789551 2.57385905 12.8125 0.8125 C16 -1 16 -1 19.625 -1.0625 C23.71108416 0.22385983 25.02126538 1.20742531 27 5 C27.11011215 11.05616846 24.98086297 13.81499021 21 18 C22.18952228 20.57729827 23.42614095 22.54789551 25.1875 24.8125 C27 28 27 28 27.0625 31.625 C25.77614017 35.71108416 24.79257469 37.02126538 21 39 C14.94383154 39.11011215 12.18500979 36.98086297 8 33 C5.42270173 34.18952228 3.45210449 35.42614095 1.1875 37.1875 C-2 39 -2 39 -5.625 39.0625 C-9 38 -9 38 -11.5 35.9375 C-13.2507913 32.50886704 -13.35810883 30.66044108 -12.6953125 26.9375 C-11.58006311 23.82983879 -9.50208109 22.05298961 -7 20 C-8.18952228 17.42270173 -9.42614095 15.45210449 -11.1875 13.1875 C-13 10 -13 10 -13.0625 6.375 C-10.86523724 -0.60454054 -6.79297809 -2.02597592 0 0 Z " fill="#000000" transform="translate(393,197)"/>
<path d="M0 0 C2.24642857 1.5074718 4.02629821 3.12257634 6 5 C8.57729827 3.81047772 10.54789551 2.57385905 12.8125 0.8125 C16 -1 16 -1 19.625 -1.0625 C23.71108416 0.22385983 25.02126538 1.20742531 27 5 C27.11011215 11.05616846 24.98086297 13.81499021 21 18 C22.18952228 20.57729827 23.42614095 22.54789551 25.1875 24.8125 C27 28 27 28 27.0625 31.625 C25.77614017 35.71108416 24.79257469 37.02126538 21 39 C14.94383154 39.11011215 12.18500979 36.98086297 8 33 C5.42270173 34.18952228 3.45210449 35.42614095 1.1875 37.1875 C-2 39 -2 39 -5.625 39.0625 C-9 38 -9 38 -11.5 35.9375 C-13.2507913 32.50886704 -13.35810883 30.66044108 -12.6953125 26.9375 C-11.58006311 23.82983879 -9.50208109 22.05298961 -7 20 C-8.18952228 17.42270173 -9.42614095 15.45210449 -11.1875 13.1875 C-13 10 -13 10 -13.0625 6.375 C-10.86523724 -0.60454054 -6.79297809 -2.02597592 0 0 Z " fill="#000000" transform="translate(329,197)"/>
<path d="M0 0 C2.24642857 1.5074718 4.02629821 3.12257634 6 5 C8.57729827 3.81047772 10.54789551 2.57385905 12.8125 0.8125 C16 -1 16 -1 19.625 -1.0625 C23.71108416 0.22385983 25.02126538 1.20742531 27 5 C27.11011215 11.05616846 24.98086297 13.81499021 21 18 C22.18952228 20.57729827 23.42614095 22.54789551 25.1875 24.8125 C27 28 27 28 27.0625 31.625 C25.77614017 35.71108416 24.79257469 37.02126538 21 39 C14.94383154 39.11011215 12.18500979 36.98086297 8 33 C5.42270173 34.18952228 3.45210449 35.42614095 1.1875 37.1875 C-2 39 -2 39 -5.625 39.0625 C-9 38 -9 38 -11.5 35.9375 C-13.2507913 32.50886704 -13.35810883 30.66044108 -12.6953125 26.9375 C-11.58006311 23.82983879 -9.50208109 22.05298961 -7 20 C-8.18952228 17.42270173 -9.42614095 15.45210449 -11.1875 13.1875 C-13 10 -13 10 -13.0625 6.375 C-10.86523724 -0.60454054 -6.79297809 -2.02597592 0 0 Z " fill="#000000" transform="translate(265,197)"/>
<path d="M0 0 C2.24642857 1.5074718 4.02629821 3.12257634 6 5 C8.57729827 3.81047772 10.54789551 2.57385905 12.8125 0.8125 C16 -1 16 -1 19.625 -1.0625 C23.71108416 0.22385983 25.02126538 1.20742531 27 5 C27.11011215 11.05616846 24.98086297 13.81499021 21 18 C22.18952228 20.57729827 23.42614095 22.54789551 25.1875 24.8125 C27 28 27 28 27.0625 31.625 C25.77614017 35.71108416 24.79257469 37.02126538 21 39 C14.94383154 39.11011215 12.18500979 36.98086297 8 33 C5.42270173 34.18952228 3.45210449 35.42614095 1.1875 37.1875 C-2 39 -2 39 -5.625 39.0625 C-9 38 -9 38 -11.5 35.9375 C-13.2507913 32.50886704 -13.35810883 30.66044108 -12.6953125 26.9375 C-11.58006311 23.82983879 -9.50208109 22.05298961 -7 20 C-8.18952228 17.42270173 -9.42614095 15.45210449 -11.1875 13.1875 C-13 10 -13 10 -13.0625 6.375 C-10.86523724 -0.60454054 -6.79297809 -2.02597592 0 0 Z " fill="#000000" transform="translate(201,197)"/>
<path d="M0 0 C1.051875 -0.00515625 2.10375 -0.0103125 3.1875 -0.015625 C4.280625 -0.00015625 5.37375 0.0153125 6.5 0.03125 C8.1396875 0.00804687 8.1396875 0.00804687 9.8125 -0.015625 C10.864375 -0.01046875 11.91625 -0.0053125 13 0 C14.43859375 0.00676758 14.43859375 0.00676758 15.90625 0.01367188 C19.21298564 0.673525 20.40908706 1.94238555 22.5 4.53125 C23.03125 6.53125 23.03125 6.53125 23 8.53125 C23.0103125 9.19125 23.020625 9.85125 23.03125 10.53125 C22.2561666 13.44921104 20.80895833 14.6243588 18.5 16.53125 C15.90625 17.04882812 15.90625 17.04882812 13 17.0625 C11.948125 17.06765625 10.89625 17.0728125 9.8125 17.078125 C8.719375 17.06265625 7.62625 17.0471875 6.5 17.03125 C4.8603125 17.05445313 4.8603125 17.05445313 3.1875 17.078125 C2.135625 17.07296875 1.08375 17.0678125 0 17.0625 C-0.9590625 17.05798828 -1.918125 17.05347656 -2.90625 17.04882812 C-6.21298564 16.388975 -7.40908706 15.12011445 -9.5 12.53125 C-10.03125 10.53125 -10.03125 10.53125 -10 8.53125 C-10.01546875 7.54125 -10.01546875 7.54125 -10.03125 6.53125 C-8.65240655 1.34030994 -4.94094259 0.02324368 0 0 Z " fill="#000000" transform="translate(201.5,447.46875)"/>
</svg>
