<svg xmlns="http://www.w3.org/2000/svg" width="20" height="20" viewBox="0 0 20 20"><path d="M7.62496 11.9583L13.4583 8.20833L7.62496 4.45833V11.9583ZM4.52079 15.6458C4.11297 15.6458 3.75755 15.4921 3.45452 15.1846C3.15148 14.8772 2.99996 14.524 2.99996 14.125V2.375C2.99996 1.97604 3.15148 1.62283 3.45452 1.31537C3.75755 1.0079 4.11297 0.854166 4.52079 0.854166H16.2708C16.6698 0.854166 17.023 1.0079 17.3304 1.31537C17.6379 1.62283 17.7916 1.97604 17.7916 2.375V14.125C17.7916 14.524 17.6379 14.8772 17.3304 15.1846C17.023 15.4921 16.6698 15.6458 16.2708 15.6458H4.52079ZM4.52079 14.125H16.2708V2.375H4.52079V14.125ZM1.74996 18.4167C1.34214 18.4167 0.986716 18.2629 0.683688 17.9555C0.380647 17.648 0.229126 17.2948 0.229126 16.8958V3.625H1.74996V16.8958H15.0208V18.4167H1.74996Z" fill="#666666"></path></svg>