<?xml version="1.0" encoding="UTF-8"?>
<svg version="1.1" xmlns="http://www.w3.org/2000/svg" width="512" height="512">
<path d="M0 0 C1.01790619 0.00215515 2.03581238 0.0043103 3.08456421 0.00653076 C17.69363523 0.05620146 32.02575853 0.30709809 46.375 3.3125 C47.34985352 3.51117676 48.32470703 3.70985352 49.32910156 3.91455078 C97.7109774 14.03517194 141.69928269 35.9516877 177.375 70.3125 C178.3640332 71.26068604 178.3640332 71.26068604 179.37304688 72.22802734 C188.86130305 81.37247479 197.6012044 90.66984009 205.375 101.3125 C206.23306152 102.46355017 207.09113451 103.61459177 207.94921875 104.765625 C213.98736829 112.95680614 219.34595521 121.47054105 224.375 130.3125 C224.73948242 130.94430176 225.10396484 131.57610352 225.47949219 132.22705078 C247.08534998 169.97532572 256.85198095 212.74189997 256.6875 255.9375 C256.68534485 256.95540619 256.6831897 257.97331238 256.68096924 259.02206421 C256.63129854 273.63113523 256.38040191 287.96325853 253.375 302.3125 C253.07698486 303.77478027 253.07698486 303.77478027 252.77294922 305.26660156 C242.65232806 353.6484774 220.7358123 397.63678269 186.375 433.3125 C185.74287598 433.97185547 185.11075195 434.63121094 184.45947266 435.31054688 C175.31502521 444.79880305 166.01765991 453.5387044 155.375 461.3125 C154.22394983 462.17056152 153.07290823 463.02863451 151.921875 463.88671875 C143.73224019 469.92427396 135.22961724 475.30707302 126.375 480.3125 C125.66778809 480.7146875 124.96057617 481.116875 124.23193359 481.53125 C101.09654164 494.5566741 75.92537591 503.30551461 49.9375 508.625 C49.21860596 508.77235596 48.49971191 508.91971191 47.7590332 509.0715332 C33.08339502 511.86090125 18.55831162 512.66142619 3.64770508 512.62817383 C0.70811513 512.6250221 -2.2304558 512.64854926 -5.16992188 512.67382812 C-18.54306192 512.71848737 -31.43916711 511.51301542 -44.625 509.3125 C-46.33055054 509.03031616 -46.33055054 509.03031616 -48.07055664 508.74243164 C-91.33802759 500.97044532 -132.38793216 480.98345309 -165.625 452.3125 C-166.37007813 451.67828125 -167.11515625 451.0440625 -167.8828125 450.390625 C-181.38779833 438.57948485 -194.05918743 425.82889772 -204.625 411.3125 C-205.48149066 410.16255169 -206.33826433 409.01281411 -207.1953125 407.86328125 C-213.23534209 399.67315742 -218.61867614 391.16870382 -223.625 382.3125 C-224.0271875 381.60528809 -224.429375 380.89807617 -224.84375 380.16943359 C-237.8691741 357.03404164 -246.61801461 331.86287591 -251.9375 305.875 C-252.08485596 305.15610596 -252.23221191 304.43721191 -252.3840332 303.6965332 C-255.35789088 288.05024391 -255.99800362 272.57681954 -255.9375 256.6875 C-255.93534485 255.66959381 -255.9331897 254.65168762 -255.93096924 253.60293579 C-255.88129854 238.99386477 -255.63040191 224.66174147 -252.625 210.3125 C-252.42632324 209.33764648 -252.22764648 208.36279297 -252.02294922 207.35839844 C-241.90232806 158.9765226 -219.9858123 114.98821731 -185.625 79.3125 C-184.99287598 78.65314453 -184.36075195 77.99378906 -183.70947266 77.31445312 C-174.56502521 67.82619695 -165.26765991 59.0862956 -154.625 51.3125 C-153.47394983 50.45443848 -152.32290823 49.59636549 -151.171875 48.73828125 C-142.98224019 42.70072604 -134.47961724 37.31792698 -125.625 32.3125 C-124.91778809 31.9103125 -124.21057617 31.508125 -123.48193359 31.09375 C-100.34654164 18.0683259 -75.17537591 9.31948539 -49.1875 4 C-48.46860596 3.85264404 -47.74971191 3.70528809 -47.0090332 3.5534668 C-31.36274391 0.57960912 -15.88931954 -0.06050362 0 0 Z " fill="#D8FEED" transform="translate(255.625,-0.3125)"/>
<path d="M0 0 C0.91237877 -0.00453111 1.82475754 -0.00906223 2.76478416 -0.01373065 C5.80522192 -0.02633509 8.84547964 -0.02475682 11.88594055 -0.02310181 C14.07289865 -0.02908958 16.25985464 -0.0358957 18.44680786 -0.04345703 C24.37678129 -0.06110025 30.30669696 -0.06581175 36.2366941 -0.0670886 C39.94550979 -0.06851187 43.65431088 -0.07278483 47.36312294 -0.07808304 C59.645618 -0.09562496 71.92807788 -0.10492397 84.21058562 -0.10342209 C84.871734 -0.10334218 85.53288237 -0.10326227 86.21406555 -0.10317993 C87.20701104 -0.10305729 87.20701104 -0.10305729 88.22001604 -0.10293217 C98.27244817 -0.10217043 108.32475592 -0.11775155 118.37715149 -0.14419556 C130.07157303 -0.17485298 141.76590268 -0.19170993 153.46036655 -0.19026911 C159.6428688 -0.18976035 165.82521175 -0.19539626 172.00768089 -0.21662521 C177.826407 -0.2360601 183.64482273 -0.23609601 189.4635601 -0.22159195 C191.59152431 -0.21950918 193.71950822 -0.22417276 195.84743881 -0.23631287 C213.05343915 -0.32806769 228.27638243 1.22046849 241.43403625 13.64242554 C251.91925464 24.93987915 254.23023283 37.88062302 254.12324524 52.86727905 C254.12703734 54.39798477 254.13254466 55.92868703 254.13961792 57.4593811 C254.15347271 61.58132707 254.14247425 65.70285094 254.12590671 69.82477307 C254.11195857 74.15843791 254.11852723 78.49208065 254.12203979 82.82575989 C254.12473397 90.09927089 254.11133388 97.37261611 254.08808899 104.64608765 C254.06147425 113.03156779 254.05973832 121.41677113 254.07147735 129.80227906 C254.08228987 137.90104275 254.07604153 145.99970721 254.06192207 154.09846306 C254.05619333 157.53080555 254.05622024 160.96307469 254.06098747 164.39541817 C254.06579142 168.44297595 254.05551558 172.49023409 254.03403282 176.53773499 C254.02851137 178.0150546 254.02795646 179.49240328 254.03298569 180.96972466 C254.08163401 197.3214 250.75372581 208.86263331 239.2660675 220.69320679 C233.10195049 226.03276002 226.31117691 228.75454156 218.62153625 231.26742554 C217.63153625 231.59742554 216.64153625 231.92742554 215.62153625 232.26742554 C212.79779757 232.3621726 209.99827137 232.40067591 207.17451477 232.3934021 C206.31243408 232.39527023 205.45035339 232.39713837 204.56214905 232.39906311 C202.68949241 232.40306738 200.81683088 232.40514197 198.94417 232.40552521 C194.96604514 232.40893791 190.98808415 232.43029393 187.01001644 232.45075607 C179.6011226 232.48880743 172.19240418 232.5200369 164.78340149 232.51791382 C159.63149152 232.51712802 154.48018164 232.54043213 149.32842827 232.57979584 C147.36404554 232.59027617 145.39959373 232.59176498 143.43519783 232.58414459 C140.68878534 232.57455177 137.94419961 232.5956483 135.19795227 232.62387085 C134.38483078 232.61367416 133.57170929 232.60347748 132.73394775 232.5929718 C128.80795197 232.66542942 127.03793567 232.86191896 124.17402649 235.65090942 C122.66097182 238.20096213 121.22903128 240.72648227 119.93013 243.39242554 C119.46026672 244.34633179 118.99040344 245.30023804 118.50630188 246.28305054 C118.02870422 247.26789429 117.55110657 248.25273804 117.05903625 249.26742554 C116.10122165 251.22665007 115.14164267 253.18501322 114.18013 255.14242554 C113.76045959 256.00609741 113.34078918 256.86976929 112.90840149 257.75961304 C109.2816428 264.82735451 109.2816428 264.82735451 105.62153625 267.26742554 C102.16918017 267.71773285 100.27090514 267.6442724 97.23872375 265.88461304 C93.48937183 262.13526111 91.74959118 257.82549964 89.62153625 253.01742554 C85.24620644 242.45120562 85.24620644 242.45120562 78.62153625 233.26742554 C75.92630143 233.16881482 73.25596129 233.13443167 70.56025696 233.14144897 C69.71453125 233.13958084 68.86880554 233.13771271 67.99745178 233.13578796 C66.15206521 233.13177215 64.30667363 233.12970805 62.46128273 233.12932587 C58.52372391 233.12591346 54.58633063 233.10454077 50.64882946 233.084095 C43.31508611 233.04611966 35.98151209 233.01479478 28.6476593 233.01693726 C23.54988136 233.01772994 18.45269968 232.99411331 13.35507774 232.95505524 C11.42128883 232.94466698 9.48743045 232.94301766 7.55362892 232.95070648 C-8.44749893 233.00790919 -23.2622755 231.13737796 -35.304245 219.38851929 C-46.54270123 207.09119351 -48.83844667 195.22629398 -48.78251648 178.79696655 C-48.78823085 177.26803085 -48.7951992 175.73909941 -48.80331421 174.21017456 C-48.82114248 170.08818847 -48.82009694 165.96641645 -48.81437182 161.84440351 C-48.81126511 158.39036106 -48.81738877 154.93635885 -48.82341057 151.48232216 C-48.83742009 143.32789171 -48.83592421 135.17356612 -48.82450867 127.01913452 C-48.81302916 118.6342255 -48.82710841 110.2496364 -48.85390514 101.86476952 C-48.87612479 94.63891951 -48.88268551 87.41316946 -48.87682873 80.18728775 C-48.87347311 75.88335655 -48.87578077 71.57963037 -48.89307976 67.27572823 C-48.9086474 63.22649494 -48.90448582 59.1777325 -48.88577461 55.12851715 C-48.88211579 53.65160901 -48.8851172 52.17466519 -48.8956604 50.69779015 C-48.998689 35.05914454 -45.15477861 23.76163937 -34.4683075 12.20101929 C-25.01470571 3.21330342 -12.72937717 -0.04696852 0 0 Z " fill="#45D5A3" transform="translate(153.3784637451172,121.73257446289063)"/>
<path d="M0 0 C2.63484773 2.05237405 3.84717134 3.22890548 4.50336456 6.53971767 C4.50562672 7.98456586 4.50562672 7.98456586 4.50793457 9.45860291 C4.52485352 11.12201469 4.52485352 11.12201469 4.54211426 12.81903076 C4.53401733 14.03109192 4.52592041 15.24315308 4.51757812 16.49194336 C4.5245874 17.77196732 4.53159668 19.05199127 4.53881836 20.37080383 C4.55704964 23.87920941 4.54998492 27.38714434 4.53730202 30.89555812 C4.52717098 34.56877706 4.53656817 38.24195586 4.54284668 41.91517639 C4.55012374 48.08471913 4.54053496 54.25407033 4.52148438 60.42358398 C4.49972497 67.55259152 4.50675966 74.68114129 4.52879 81.81013769 C4.54695399 87.93342786 4.5494972 94.05658037 4.53903532 100.17988878 C4.53280457 103.83591846 4.53195283 107.49173315 4.54518127 111.14774895 C4.55890322 115.22499475 4.53987397 119.30145428 4.51757812 123.37866211 C4.52567505 124.58869904 4.53377197 125.79873596 4.54211426 127.04544067 C4.45926187 135.21191205 4.45926187 135.21191205 2.10632324 139.24952698 C-0.30853012 141.25640588 -1.3901417 141.6530267 -4.5 141.5625 C-5.2528125 141.56378906 -6.005625 141.56507813 -6.78125 141.56640625 C-9.85131785 140.78267414 -11.00311711 139.43514786 -13 137 C-13.50336456 134.44187164 -13.50336456 134.44187164 -13.50793457 131.4967041 C-13.51921387 130.37790359 -13.53049316 129.25910309 -13.54211426 128.10639954 C-13.53401733 126.8834166 -13.52592041 125.66043365 -13.51757812 124.40039062 C-13.5245874 123.10900681 -13.53159668 121.81762299 -13.53881836 120.48710632 C-13.55704923 116.94777849 -13.54998556 113.40891718 -13.53730202 109.86958122 C-13.52717295 106.16519796 -13.53656743 102.46085456 -13.54284668 98.75646973 C-13.55012339 92.53565297 -13.5405349 86.31502619 -13.52148438 80.09423828 C-13.4997154 72.90272819 -13.50676677 65.7116717 -13.52879 58.5201726 C-13.54694346 52.34509413 -13.54950264 46.1701522 -13.53903532 39.99505568 C-13.53280002 36.30720046 -13.53196554 32.61955843 -13.54518127 28.93171692 C-13.55888436 24.82074124 -13.53989117 20.71054721 -13.51757812 16.59960938 C-13.52567505 15.37662643 -13.53377197 14.15364349 -13.54211426 12.89360046 C-13.53083496 11.77479996 -13.51955566 10.65599945 -13.50793457 9.5032959 C-13.50642647 8.53139061 -13.50491837 7.55948532 -13.50336456 6.55812836 C-12.85638165 3.2701231 -11.55402485 2.09683293 -9 0 C-5.81452856 -1.59273572 -3.39809153 -0.76164121 0 0 Z " fill="#DAFEEE" transform="translate(225,168)"/>
<path d="M0 0 C2.69990662 1.79993774 4.5418865 3.083773 6 6 C6.10910758 8.93311377 6.15733672 11.84284447 6.16113281 14.77661133 C6.16609772 15.68570755 6.17106262 16.59480377 6.17617798 17.53144836 C6.1908202 20.54831694 6.19760529 23.56513293 6.203125 26.58203125 C6.20887509 28.6746979 6.21463284 30.76736452 6.22039795 32.86003113 C6.23091403 37.25247443 6.23675261 41.64489939 6.24023438 46.03735352 C6.24571809 51.66658603 6.26974103 57.29557654 6.29820633 62.92473316 C6.31682826 67.24929004 6.32203809 71.5737886 6.32357025 75.89838219 C6.32659869 77.97362274 6.33463362 80.04886222 6.34775543 82.12406349 C6.36480525 85.0279646 6.36293812 87.93127425 6.35644531 90.83520508 C6.3656601 91.69305603 6.37487488 92.55090698 6.3843689 93.43475342 C6.35163693 98.10675262 6.05111026 101.21219749 3 105 C0.67313547 106.16343227 -0.84721413 106.19895988 -3.4375 106.25 C-4.61119141 106.28867187 -4.61119141 106.28867187 -5.80859375 106.328125 C-8.53677498 105.91962728 -9.3441611 105.16727539 -11 103 C-12.32029746 99.03910761 -12.16409268 95.24024912 -12.17700195 91.10986328 C-12.18357315 90.20062103 -12.19014435 89.29137878 -12.19691467 88.35458374 C-12.21663947 85.34315917 -12.22830719 82.3317844 -12.23828125 79.3203125 C-12.24235678 78.29224361 -12.2464323 77.26417473 -12.25063133 76.20495224 C-12.2714865 70.76570588 -12.2857918 65.32648472 -12.29516602 59.88720703 C-12.30624182 54.26577815 -12.34065696 48.64474386 -12.38033772 43.02345467 C-12.40646041 38.70318863 -12.41485389 34.38301736 -12.41844749 30.06267929 C-12.42332306 27.9902161 -12.43496453 25.91775741 -12.45348549 23.84537125 C-12.47778889 20.94623585 -12.47692818 18.0481315 -12.4699707 15.14892578 C-12.48278076 14.29264587 -12.49559082 13.43636597 -12.50878906 12.55413818 C-12.47331733 8.50079141 -12.31440099 6.49681931 -10.09562683 2.99069214 C-6.74907718 -0.18828514 -4.57539315 -0.44856796 0 0 Z " fill="#D8FEED" transform="translate(259,185)"/>
<path d="M0 0 C2.69990662 1.79993774 4.5418865 3.083773 6 6 C6.10910758 8.93311377 6.15733672 11.84284447 6.16113281 14.77661133 C6.16609772 15.68570755 6.17106262 16.59480377 6.17617798 17.53144836 C6.1908202 20.54831694 6.19760529 23.56513293 6.203125 26.58203125 C6.20887509 28.6746979 6.21463284 30.76736452 6.22039795 32.86003113 C6.23091403 37.25247443 6.23675261 41.64489939 6.24023438 46.03735352 C6.24571809 51.66658603 6.26974103 57.29557654 6.29820633 62.92473316 C6.31682826 67.24929004 6.32203809 71.5737886 6.32357025 75.89838219 C6.32659869 77.97362274 6.33463362 80.04886222 6.34775543 82.12406349 C6.36480525 85.0279646 6.36293812 87.93127425 6.35644531 90.83520508 C6.3656601 91.69305603 6.37487488 92.55090698 6.3843689 93.43475342 C6.35163693 98.10675262 6.05111026 101.21219749 3 105 C0.67313547 106.16343227 -0.84721413 106.19895988 -3.4375 106.25 C-4.61119141 106.28867187 -4.61119141 106.28867187 -5.80859375 106.328125 C-8.53677498 105.91962728 -9.3441611 105.16727539 -11 103 C-12.32029746 99.03910761 -12.16409268 95.24024912 -12.17700195 91.10986328 C-12.18357315 90.20062103 -12.19014435 89.29137878 -12.19691467 88.35458374 C-12.21663947 85.34315917 -12.22830719 82.3317844 -12.23828125 79.3203125 C-12.24235678 78.29224361 -12.2464323 77.26417473 -12.25063133 76.20495224 C-12.2714865 70.76570588 -12.2857918 65.32648472 -12.29516602 59.88720703 C-12.30624182 54.26577815 -12.34065696 48.64474386 -12.38033772 43.02345467 C-12.40646041 38.70318863 -12.41485389 34.38301736 -12.41844749 30.06267929 C-12.42332306 27.9902161 -12.43496453 25.91775741 -12.45348549 23.84537125 C-12.47778889 20.94623585 -12.47692818 18.0481315 -12.4699707 15.14892578 C-12.48278076 14.29264587 -12.49559082 13.43636597 -12.50878906 12.55413818 C-12.47331733 8.50079141 -12.31440099 6.49681931 -10.09562683 2.99069214 C-6.74907718 -0.18828514 -4.57539315 -0.44856796 0 0 Z " fill="#D8FEED" transform="translate(188,185)"/>
<path d="M0 0 C4.23259682 0.67184077 5.44879559 1.24036201 7.9375 4.625 C9.24265178 7.23530357 9.07888712 9.17370289 9.09863281 12.09692383 C9.10824036 13.24183792 9.1178479 14.38675201 9.12774658 15.56636047 C9.13199646 16.80903183 9.13624634 18.05170319 9.140625 19.33203125 C9.14632507 20.60471359 9.15202515 21.87739594 9.15789795 23.18864441 C9.1673593 25.88629738 9.17425014 28.5838388 9.17773438 31.28149414 C9.1832118 34.73156434 9.2072232 38.18123841 9.23570633 41.63118458 C9.25885968 44.92727006 9.26078454 48.22337583 9.265625 51.51953125 C9.2779718 52.75612991 9.2903186 53.99272858 9.30303955 55.26679993 C9.30003845 56.4211705 9.29703735 57.57554108 9.29394531 58.76489258 C9.29759094 59.77812088 9.30123657 60.79134918 9.30499268 61.83528137 C8.87170918 65.12443271 7.89728996 66.9666986 5.9375 69.625 C2.42496854 71.96668764 1.07280644 72.12123677 -3.0625 71.625 C-6.40011045 69.47409549 -7.79720933 68.42087201 -9.0625 64.625 C-9.17563527 62.7708088 -9.23161618 60.91290756 -9.25537109 59.05541992 C-9.27143402 57.91380905 -9.28749695 56.77219818 -9.30404663 55.59599304 C-9.3485169 50.38001345 -9.3899901 45.1641202 -9.41259766 39.94799805 C-9.42593185 37.19603192 -9.45377714 34.44480823 -9.49462891 31.69311523 C-9.55350925 27.7264206 -9.57126687 23.76008539 -9.5859375 19.79296875 C-9.60860687 18.56466843 -9.63127625 17.3363681 -9.65463257 16.07084656 C-9.63106699 6.55322615 -9.63106699 6.55322615 -6.66088867 2.84741211 C-3.14188726 -0.16240372 -3.14188726 -0.16240372 0 0 Z " fill="#D8FEED" transform="translate(327.0625,202.375)"/>
<path d="M0 0 C0.7528125 -0.0103125 1.505625 -0.020625 2.28125 -0.03125 C5.38464412 0.7118162 6.50273488 2.03533366 8.5 4.5 C9.01757812 7.27734375 9.01757812 7.27734375 9.03125 10.4375 C9.03640625 11.57960937 9.0415625 12.72171875 9.046875 13.8984375 C9.03140625 15.08695313 9.0159375 16.27546875 9 17.5 C9.01546875 18.68851563 9.0309375 19.87703125 9.046875 21.1015625 C9.04171875 22.24367187 9.0365625 23.38578125 9.03125 24.5625 C9.02673828 25.60535156 9.02222656 26.64820313 9.01757812 27.72265625 C8.37534976 31.16887792 7.18901744 32.32568711 4.5 34.5 C1.61138291 35.94430855 -0.29647701 35.87688506 -3.5 35.5 C-6.08482501 33.84374116 -7.07593117 33.12298579 -8.5 30.5 C-9.22821359 26.13607577 -9.15169158 21.85127807 -9.0625 17.4375 C-9.07345703 16.25349609 -9.08441406 15.06949219 -9.09570312 13.84960938 C-9.02170455 5.142444 -9.02170455 5.142444 -6.60327148 2.16430664 C-4.18141177 0.24790296 -3.05180314 -0.04180552 0 0 Z " fill="#D9FEED" transform="translate(291.5,220.5)"/>
<path d="M0 0 C0.7528125 -0.00128906 1.505625 -0.00257813 2.28125 -0.00390625 C5.36563782 0.78348148 6.506193 2.10155927 8.5 4.5625 C9.00170898 7.33984375 9.00170898 7.33984375 8.99609375 10.5 C8.99673828 11.64210937 8.99738281 12.78421875 8.99804688 13.9609375 C8.97806641 15.14945313 8.95808594 16.33796875 8.9375 17.5625 C8.94458984 18.75101563 8.95167969 19.93953125 8.95898438 21.1640625 C8.88669252 31.01799906 8.88669252 31.01799906 5.5 34.5625 C3.4140625 35.34765625 3.4140625 35.34765625 1.125 35.625 C0.37476563 35.73972656 -0.37546875 35.85445313 -1.1484375 35.97265625 C-3.5 35.5625 -3.5 35.5625 -6.25390625 33.83984375 C-9.70660808 28.80190143 -9.18856657 24.02510803 -9.0625 18.0625 C-9.07345703 16.93457031 -9.08441406 15.80664062 -9.09570312 14.64453125 C-9.05364257 9.9057092 -9.02228384 6.52913223 -6.74609375 2.31640625 C-4.24370236 0.36236497 -3.14166703 -0.09145264 0 0 Z " fill="#D9FEED" transform="translate(362.5,220.4375)"/>
<path d="M0 0 C0.7528125 -0.02191406 1.505625 -0.04382813 2.28125 -0.06640625 C4.5 0.5625 4.5 0.5625 6.75 2.3125 C9.49945373 7.41862836 9.077911 12.42126578 9 18.125 C9.01546875 19.26130859 9.0309375 20.39761719 9.046875 21.56835938 C9.04171875 22.66083984 9.0365625 23.75332031 9.03125 24.87890625 C9.02673828 25.87349854 9.02222656 26.86809082 9.01757812 27.89282227 C8.3651687 31.25796237 7.11962193 32.42442622 4.5 34.5625 C1.61138291 36.00680855 -0.29647701 35.93938506 -3.5 35.5625 C-6.08482501 33.90624116 -7.07593117 33.18548579 -8.5 30.5625 C-9.22821359 26.19857577 -9.15169158 21.91377807 -9.0625 17.5 C-9.07345703 16.31599609 -9.08441406 15.13199219 -9.09570312 13.91210938 C-9.02169936 5.20433325 -9.02169936 5.20433325 -6.60327148 2.22900391 C-4.19310081 0.31933182 -3.04142143 -0.00520791 0 0 Z " fill="#D9FEED" transform="translate(149.5,220.4375)"/>
</svg>
