<?xml version="1.0" encoding="UTF-8"?>
<svg version="1.1" xmlns="http://www.w3.org/2000/svg" width="512" height="512">
<path d="M0 0 C1.03125 0.21430664 2.0625 0.42861328 3.125 0.64941406 C17.87198819 3.81540809 32.00836475 8.39471408 46 14 C46.78036621 14.31163086 47.56073242 14.62326172 48.36474609 14.94433594 C71.97806889 24.53582102 93.72332901 38.37579894 113 55 C113.73347656 55.62261719 114.46695312 56.24523438 115.22265625 56.88671875 C129.07835054 68.98371428 142.20852909 82.08357256 153 97 C153.99214732 98.33596734 154.98433662 99.67190351 155.9765625 101.0078125 C163.2181718 110.88450874 169.37896627 121.12755945 175 132 C175.61439941 133.16595703 175.61439941 133.16595703 176.24121094 134.35546875 C187.91659348 156.70366391 195.71931003 181.17997464 200 206 C200.16081055 206.88059082 200.32162109 207.76118164 200.48730469 208.66845703 C206.73827594 244.02833258 204.00022736 281.42461254 195 316 C194.79036621 316.81855469 194.58073242 317.63710938 194.36474609 318.48046875 C187.35077541 345.30526194 175.21843606 371.48916525 159 394 C158.56606934 394.60231445 158.13213867 395.20462891 157.68505859 395.82519531 C143.64230572 415.20082209 128.0157956 433.32833012 109 448 C107.53046875 449.17755859 107.53046875 449.17755859 106.03125 450.37890625 C61.49314612 485.83187989 6.1402162 504.56107895 -50.625 504.3125 C-51.93161087 504.30976578 -51.93161087 504.30976578 -53.26461792 504.30697632 C-67.36214514 504.25752148 -81.10617245 503.54753903 -95 501 C-95.91845703 500.83902832 -96.83691406 500.67805664 -97.78320312 500.51220703 C-118.80617675 496.7311228 -139.43818698 490.19787766 -158.6472168 480.83105469 C-159.3875415 480.47430664 -160.12786621 480.11755859 -160.890625 479.75 C-161.52000977 479.43546875 -162.14939453 479.1209375 -162.79785156 478.796875 C-169.4478081 476.39050492 -174.66740602 477.29434409 -181.2421875 479.08618164 C-182.14260773 479.32023712 -183.04302795 479.5542926 -183.97073364 479.79544067 C-186.94226016 480.57118562 -189.90846279 481.36556472 -192.875 482.16015625 C-194.96193479 482.70887843 -197.04918028 483.25642012 -199.13671875 483.80284119 C-204.64159718 485.24711642 -210.14216628 486.70718266 -215.64196777 488.1706543 C-221.15729908 489.63544802 -226.67642269 491.08579218 -232.1953125 492.53710938 C-239.40932387 494.43549049 -246.6222834 496.33768485 -253.83224487 498.25139523 C-255.72090392 498.75190231 -257.60999757 499.25077258 -259.49954224 499.74792576 C-264.4069219 501.03975566 -269.30528288 502.35744503 -274.1953125 503.71359253 C-275.21923096 503.99262389 -276.24314941 504.27165525 -277.2980957 504.55914211 C-279.23951559 505.08820991 -281.17841565 505.62665867 -283.11401367 506.17664433 C-289.04624735 507.77729754 -294.84661466 508.80222566 -301 508 C-303.93423195 506.20353146 -305.47205355 505.0558929 -307 502 C-308.34698435 492.63119811 -305.0345421 483.4807163 -302.5390625 474.5703125 C-302.0686819 472.85510648 -301.59941671 471.13959424 -301.13119507 469.42379761 C-299.89354998 464.90044933 -298.64067292 460.38145871 -297.38452148 455.86322021 C-296.14678646 451.40094873 -294.92370924 446.93467011 -293.69921875 442.46875 C-286.21639803 415.22112332 -286.21639803 415.22112332 -282.74740791 403.10296059 C-281.78980623 399.75612576 -280.83962087 396.40720351 -279.88965988 393.05819321 C-279.22676828 390.73516467 -278.55177238 388.41588303 -277.87637329 386.09646606 C-277.47733633 384.69193094 -277.07889434 383.2872266 -276.68115234 381.88232422 C-276.33096039 380.6684201 -275.98076843 379.45451599 -275.6199646 378.2038269 C-274.65562699 373.2203637 -275.84695568 369.92558183 -278.15234375 365.53515625 C-289.5083689 343.25987615 -297.48703358 319.60641213 -302 295 C-302.16081055 294.18869629 -302.32162109 293.37739258 -302.48730469 292.54150391 C-307.80123607 264.94740866 -307.57237227 232.52527511 -302 205 C-301.72663818 203.62328125 -301.72663818 203.62328125 -301.44775391 202.21875 C-300.13614932 195.76701418 -298.62841942 189.37849758 -297 183 C-296.81743652 182.26652344 -296.63487305 181.53304687 -296.44677734 180.77734375 C-289.55147697 153.52721853 -276.42498388 126.74847881 -260 104 C-259.54689453 103.36046387 -259.09378906 102.72092773 -258.62695312 102.06201172 C-251.18567777 91.59165754 -242.95930626 82.18884814 -234 73 C-233.38721191 72.36143066 -232.77442383 71.72286133 -232.14306641 71.06494141 C-224.17236799 62.76187089 -216.00159611 55.161401 -206.75048828 48.30615234 C-204.99110314 46.99336148 -203.25851821 45.65048581 -201.52734375 44.30078125 C-145.75896777 1.38964565 -68.55385381 -14.4358596 0 0 Z " fill="#64B161" transform="translate(308,4)"/>
<path d="M0 0 C1.03125 0.21430664 2.0625 0.42861328 3.125 0.64941406 C17.87198819 3.81540809 32.00836475 8.39471408 46 14 C46.78036621 14.31163086 47.56073242 14.62326172 48.36474609 14.94433594 C71.97806889 24.53582102 93.72332901 38.37579894 113 55 C113.73347656 55.62261719 114.46695312 56.24523438 115.22265625 56.88671875 C129.07835054 68.98371428 142.20852909 82.08357256 153 97 C153.99214732 98.33596734 154.98433662 99.67190351 155.9765625 101.0078125 C163.2181718 110.88450874 169.37896627 121.12755945 175 132 C175.61439941 133.16595703 175.61439941 133.16595703 176.24121094 134.35546875 C187.91659348 156.70366391 195.71931003 181.17997464 200 206 C200.16081055 206.88059082 200.32162109 207.76118164 200.48730469 208.66845703 C206.73827594 244.02833258 204.00022736 281.42461254 195 316 C194.79036621 316.81855469 194.58073242 317.63710938 194.36474609 318.48046875 C187.35077541 345.30526194 175.21843606 371.48916525 159 394 C158.56606934 394.60231445 158.13213867 395.20462891 157.68505859 395.82519531 C143.64230572 415.20082209 128.0157956 433.32833012 109 448 C107.53046875 449.17755859 107.53046875 449.17755859 106.03125 450.37890625 C61.49314612 485.83187989 6.1402162 504.56107895 -50.625 504.3125 C-51.93161087 504.30976578 -51.93161087 504.30976578 -53.26461792 504.30697632 C-67.36214514 504.25752148 -81.10617245 503.54753903 -95 501 C-95.91845703 500.83902832 -96.83691406 500.67805664 -97.78320312 500.51220703 C-118.80617675 496.7311228 -139.43818698 490.19787766 -158.6472168 480.83105469 C-159.3875415 480.47430664 -160.12786621 480.11755859 -160.890625 479.75 C-161.52000977 479.43546875 -162.14939453 479.1209375 -162.79785156 478.796875 C-169.4478081 476.39050492 -174.66740602 477.29434409 -181.2421875 479.08618164 C-182.14260773 479.32023712 -183.04302795 479.5542926 -183.97073364 479.79544067 C-186.94226016 480.57118562 -189.90846279 481.36556472 -192.875 482.16015625 C-194.96193479 482.70887843 -197.04918028 483.25642012 -199.13671875 483.80284119 C-204.64159718 485.24711642 -210.14216628 486.70718266 -215.64196777 488.1706543 C-221.15729908 489.63544802 -226.67642269 491.08579218 -232.1953125 492.53710938 C-239.40932387 494.43549049 -246.6222834 496.33768485 -253.83224487 498.25139523 C-255.72090392 498.75190231 -257.60999757 499.25077258 -259.49954224 499.74792576 C-264.4069219 501.03975566 -269.30528288 502.35744503 -274.1953125 503.71359253 C-275.21923096 503.99262389 -276.24314941 504.27165525 -277.2980957 504.55914211 C-279.23951559 505.08820991 -281.17841565 505.62665867 -283.11401367 506.17664433 C-289.04624735 507.77729754 -294.84661466 508.80222566 -301 508 C-303.93423195 506.20353146 -305.47205355 505.0558929 -307 502 C-308.34698435 492.63119811 -305.0345421 483.4807163 -302.5390625 474.5703125 C-302.0686819 472.85510648 -301.59941671 471.13959424 -301.13119507 469.42379761 C-299.89354998 464.90044933 -298.64067292 460.38145871 -297.38452148 455.86322021 C-296.14678646 451.40094873 -294.92370924 446.93467011 -293.69921875 442.46875 C-286.21639803 415.22112332 -286.21639803 415.22112332 -282.74740791 403.10296059 C-281.78980623 399.75612576 -280.83962087 396.40720351 -279.88965988 393.05819321 C-279.22676828 390.73516467 -278.55177238 388.41588303 -277.87637329 386.09646606 C-277.47733633 384.69193094 -277.07889434 383.2872266 -276.68115234 381.88232422 C-276.33096039 380.6684201 -275.98076843 379.45451599 -275.6199646 378.2038269 C-274.65562699 373.2203637 -275.84695568 369.92558183 -278.15234375 365.53515625 C-289.5083689 343.25987615 -297.48703358 319.60641213 -302 295 C-302.16081055 294.18869629 -302.32162109 293.37739258 -302.48730469 292.54150391 C-307.80123607 264.94740866 -307.57237227 232.52527511 -302 205 C-301.72663818 203.62328125 -301.72663818 203.62328125 -301.44775391 202.21875 C-300.13614932 195.76701418 -298.62841942 189.37849758 -297 183 C-296.81743652 182.26652344 -296.63487305 181.53304687 -296.44677734 180.77734375 C-289.55147697 153.52721853 -276.42498388 126.74847881 -260 104 C-259.54689453 103.36046387 -259.09378906 102.72092773 -258.62695312 102.06201172 C-251.18567777 91.59165754 -242.95930626 82.18884814 -234 73 C-233.38721191 72.36143066 -232.77442383 71.72286133 -232.14306641 71.06494141 C-224.17236799 62.76187089 -216.00159611 55.161401 -206.75048828 48.30615234 C-204.99110314 46.99336148 -203.25851821 45.65048581 -201.52734375 44.30078125 C-145.75896777 1.38964565 -68.55385381 -14.4358596 0 0 Z M-131 64 C-131.74733398 64.31308105 -132.49466797 64.62616211 -133.26464844 64.94873047 C-155.68151825 74.49890347 -175.0547928 88.87306467 -192.57177734 105.63476562 C-193.84762576 106.85434585 -195.13589562 108.0609009 -196.42578125 109.265625 C-222.24738299 134.03234781 -240.65803248 169.20057231 -248 204 C-248.27328125 205.18722656 -248.5465625 206.37445313 -248.828125 207.59765625 C-251.90800691 221.23066294 -253.38408516 234.54952421 -253.3125 248.5 C-253.31067719 249.24156342 -253.30885437 249.98312683 -253.30697632 250.74716187 C-253.25501686 263.3645095 -252.42221386 275.59282843 -250 288 C-249.8443457 288.84175781 -249.68869141 289.68351563 -249.52832031 290.55078125 C-245.37597429 312.39825452 -236.75235954 334.82106411 -224.7265625 353.61328125 C-224.16799561 354.48678223 -224.16799561 354.48678223 -223.59814453 355.37792969 C-222.57676767 356.94473724 -221.52394368 358.49092088 -220.46875 360.03515625 C-217.11417876 366.80675085 -219.69596847 372.7569959 -221.89501953 379.52539062 C-223.64830487 385.03859367 -225.02180655 390.64250449 -226.4375 396.25 C-229.39197019 407.80702846 -232.5812066 419.25321151 -236.13671875 430.640625 C-236.90240432 433.62021589 -237.18473835 435.95181717 -237 439 C-226.07790587 436.87799314 -215.3901838 434.36069681 -204.71582031 431.21679688 C-198.51113714 429.39933313 -192.28925182 427.82552306 -185.98242188 426.40722656 C-180.28108269 425.11196555 -174.72721104 423.49040541 -169.1484375 421.734375 C-163.9754668 420.52777637 -160.00812569 420.17300033 -155.3359375 422.87109375 C-154.00901033 423.71626601 -152.68903229 424.5724156 -151.375 425.4375 C-122.6281678 443.27596451 -87.58117291 452.18937046 -53.90039062 452.18530273 C-51.89969786 452.18747321 -49.89904433 452.20593966 -47.8984375 452.22460938 C-38.73181164 452.23814278 -30.04775087 451.42259004 -21 450 C-19.65083496 449.80482788 -19.65083496 449.80482788 -18.27441406 449.60571289 C30.06202867 442.41964303 75.72839181 415.18575412 106 377 C106.41185547 376.48630859 106.82371094 375.97261719 107.24804688 375.44335938 C113.47715877 367.65936901 119.05076839 359.67484366 124 351 C124.3594873 350.37673828 124.71897461 349.75347656 125.08935547 349.11132812 C131.29364256 338.24776948 135.98502025 327.04437472 140.18798828 315.27197266 C140.85772913 313.39806756 141.54903702 311.53188533 142.24609375 309.66796875 C159.28694649 262.25859245 152.50880263 206.80210629 131.41796875 161.89453125 C107.41346224 112.39316168 64.51475583 76.14771222 13 58 C12.30583984 57.74734375 11.61167969 57.4946875 10.89648438 57.234375 C-34.44496747 40.8294276 -87.1839251 45.52302555 -131 64 Z " fill="#FEFEFE" transform="translate(308,4)"/>
<path d="M0 0 C0.96679688 -0.00257813 1.93359375 -0.00515625 2.9296875 -0.0078125 C12.07288395 0.11812685 12.07288395 0.11812685 15.75 3.5 C21.15722878 10.15669006 23.96574173 18.7043464 27.1875 26.5625 C27.73960335 27.89284018 28.29233454 29.22291998 28.84570312 30.55273438 C30.2187428 33.85982571 31.57830362 37.17220753 32.92987061 40.48812866 C33.48708378 41.8550364 34.04560229 43.22141261 34.60528564 44.58731079 C35.44011913 46.6269006 36.26965573 48.66856558 37.09765625 50.7109375 C37.82674194 52.504104 37.82674194 52.504104 38.57055664 54.33349609 C40.2085867 58.73118806 41.35613233 61.9878887 39.75 66.5 C36.05299364 72.68408336 31.59158826 78.24452994 27.046875 83.8203125 C26.22703125 84.84898437 25.4071875 85.87765625 24.5625 86.9375 C23.80582031 87.84371094 23.04914063 88.74992187 22.26953125 89.68359375 C20.23543908 93.45372345 20.66094258 95.41029069 21.75 99.5 C27.31755107 110.81737315 36.25952366 121.13056767 44.7734375 130.33203125 C46.75 132.5 46.75 132.5 49.125 135.5625 C62.16975219 150.16019888 89.91014263 170.39501783 110.25 172.9375 C116.65784705 172.13651912 120.58007488 165.49912337 124.625 160.75 C125.1494873 160.13672852 125.67397461 159.52345703 126.21435547 158.89160156 C129.74504827 154.74104939 133.15952512 150.52023044 136.4453125 146.171875 C137.75 144.5 137.75 144.5 139.75 142.5 C151.29100482 141.26346377 161.85508361 148.34577011 171.9375 153.25 C172.57563629 153.55925415 173.21377258 153.8685083 173.87124634 154.18713379 C200.20493061 166.95493061 200.20493061 166.95493061 203.75 170.5 C205.14106269 184.3901701 202.51480964 197.85304574 193.8125 208.9765625 C182.32057322 221.27123417 166.92935837 228.45446988 150.20727539 229.09033203 C105.34962093 229.59486961 59.52696512 205.13142487 27.46875 175.03125 C25.17087037 172.89184482 22.83341193 170.8398101 20.4375 168.8125 C17.18147215 165.98524948 14.37034259 162.93680731 11.5859375 159.6484375 C9.59194783 157.31504533 7.51838659 155.06861914 5.4375 152.8125 C0.18752472 146.96353425 -4.61138915 140.83669992 -9.25 134.5 C-9.85295898 133.67806152 -10.45591797 132.85612305 -11.07714844 132.00927734 C-31.50598787 103.94862704 -46.09155401 77.33932051 -41.7890625 41.6796875 C-39.27285936 30.57879131 -33.51520157 21.10876625 -26.25 12.5 C-25.52683594 11.54287109 -25.52683594 11.54287109 -24.7890625 10.56640625 C-18.15685593 2.04713538 -10.53439795 -0.31403354 0 0 Z " fill="#FEFEFE" transform="translate(176.25,141.5)"/>
<path d="M0 0 C1.03125 0.21430664 2.0625 0.42861328 3.125 0.64941406 C17.87198819 3.81540809 32.00836475 8.39471408 46 14 C46.78036621 14.31163086 47.56073242 14.62326172 48.36474609 14.94433594 C71.97806889 24.53582102 93.72332901 38.37579894 113 55 C113.73347656 55.62261719 114.46695312 56.24523438 115.22265625 56.88671875 C129.07835054 68.98371428 142.20852909 82.08357256 153 97 C153.99214732 98.33596734 154.98433662 99.67190351 155.9765625 101.0078125 C163.2181718 110.88450874 169.37896627 121.12755945 175 132 C175.61439941 133.16595703 175.61439941 133.16595703 176.24121094 134.35546875 C187.91659348 156.70366391 195.71931003 181.17997464 200 206 C200.16081055 206.88059082 200.32162109 207.76118164 200.48730469 208.66845703 C206.73827594 244.02833258 204.00022736 281.42461254 195 316 C194.79036621 316.81855469 194.58073242 317.63710938 194.36474609 318.48046875 C187.35077541 345.30526194 175.21843606 371.48916525 159 394 C158.56606934 394.60231445 158.13213867 395.20462891 157.68505859 395.82519531 C143.64230572 415.20082209 128.0157956 433.32833012 109 448 C107.53046875 449.17755859 107.53046875 449.17755859 106.03125 450.37890625 C61.49314612 485.83187989 6.1402162 504.56107895 -50.625 504.3125 C-51.93161087 504.30976578 -51.93161087 504.30976578 -53.26461792 504.30697632 C-67.36214514 504.25752148 -81.10617245 503.54753903 -95 501 C-95.91845703 500.83902832 -96.83691406 500.67805664 -97.78320312 500.51220703 C-118.80617675 496.7311228 -139.43818698 490.19787766 -158.6472168 480.83105469 C-159.3875415 480.47430664 -160.12786621 480.11755859 -160.890625 479.75 C-161.52000977 479.43546875 -162.14939453 479.1209375 -162.79785156 478.796875 C-169.4478081 476.39050492 -174.66740602 477.29434409 -181.2421875 479.08618164 C-182.14260773 479.32023712 -183.04302795 479.5542926 -183.97073364 479.79544067 C-186.94226016 480.57118562 -189.90846279 481.36556472 -192.875 482.16015625 C-194.96193479 482.70887843 -197.04918028 483.25642012 -199.13671875 483.80284119 C-204.64159718 485.24711642 -210.14216628 486.70718266 -215.64196777 488.1706543 C-221.15729908 489.63544802 -226.67642269 491.08579218 -232.1953125 492.53710938 C-239.40932387 494.43549049 -246.6222834 496.33768485 -253.83224487 498.25139523 C-255.72090392 498.75190231 -257.60999757 499.25077258 -259.49954224 499.74792576 C-264.4069219 501.03975566 -269.30528288 502.35744503 -274.1953125 503.71359253 C-275.21923096 503.99262389 -276.24314941 504.27165525 -277.2980957 504.55914211 C-279.23951559 505.08820991 -281.17841565 505.62665867 -283.11401367 506.17664433 C-289.04624735 507.77729754 -294.84661466 508.80222566 -301 508 C-303.93423195 506.20353146 -305.47205355 505.0558929 -307 502 C-308.34698435 492.63119811 -305.0345421 483.4807163 -302.5390625 474.5703125 C-302.0686819 472.85510648 -301.59941671 471.13959424 -301.13119507 469.42379761 C-299.89354998 464.90044933 -298.64067292 460.38145871 -297.38452148 455.86322021 C-296.14678646 451.40094873 -294.92370924 446.93467011 -293.69921875 442.46875 C-286.21639803 415.22112332 -286.21639803 415.22112332 -282.74740791 403.10296059 C-281.78980623 399.75612576 -280.83962087 396.40720351 -279.88965988 393.05819321 C-279.22676828 390.73516467 -278.55177238 388.41588303 -277.87637329 386.09646606 C-277.47733633 384.69193094 -277.07889434 383.2872266 -276.68115234 381.88232422 C-276.33096039 380.6684201 -275.98076843 379.45451599 -275.6199646 378.2038269 C-274.65562699 373.2203637 -275.84695568 369.92558183 -278.15234375 365.53515625 C-289.5083689 343.25987615 -297.48703358 319.60641213 -302 295 C-302.16081055 294.18869629 -302.32162109 293.37739258 -302.48730469 292.54150391 C-307.80123607 264.94740866 -307.57237227 232.52527511 -302 205 C-301.72663818 203.62328125 -301.72663818 203.62328125 -301.44775391 202.21875 C-300.13614932 195.76701418 -298.62841942 189.37849758 -297 183 C-296.81743652 182.26652344 -296.63487305 181.53304687 -296.44677734 180.77734375 C-289.55147697 153.52721853 -276.42498388 126.74847881 -260 104 C-259.54689453 103.36046387 -259.09378906 102.72092773 -258.62695312 102.06201172 C-251.18567777 91.59165754 -242.95930626 82.18884814 -234 73 C-233.38721191 72.36143066 -232.77442383 71.72286133 -232.14306641 71.06494141 C-224.17236799 62.76187089 -216.00159611 55.161401 -206.75048828 48.30615234 C-204.99110314 46.99336148 -203.25851821 45.65048581 -201.52734375 44.30078125 C-145.75896777 1.38964565 -68.55385381 -14.4358596 0 0 Z M-234 89 C-237.2265942 92.50085471 -240.15165371 96.1852505 -243 100 C-243.47179687 100.61713867 -243.94359375 101.23427734 -244.4296875 101.87011719 C-270.52549893 136.09652658 -287.15922757 176.3604494 -293 219 C-293.14574463 220.02492554 -293.14574463 220.02492554 -293.29443359 221.07055664 C-299.18601762 269.55184095 -290.57232154 326.05000691 -263.8984375 367.61328125 C-261.69255448 373.47325746 -265.02463582 381.22612392 -266.62036133 387.02758789 C-266.88718216 388.01073975 -267.15400299 388.9938916 -267.4289093 390.00683594 C-268.30924991 393.2465557 -269.19557254 396.4846057 -270.08203125 399.72265625 C-270.69912858 401.98830507 -271.31587829 404.25404859 -271.93229675 406.5198822 C-273.55616848 412.48478968 -275.18523523 418.44826686 -276.81524658 424.41149902 C-278.1364182 429.2483828 -279.45383448 434.08628541 -280.77104664 438.9242487 C-282.35252797 444.7324185 -283.9358322 450.5400908 -285.51953125 456.34765625 C-285.81739847 457.44025316 -286.11526569 458.53285007 -286.42215919 459.65855598 C-287.27762643 462.79485197 -288.13420493 465.9308413 -288.99145508 469.06665039 C-289.25582776 470.03468125 -289.52020044 471.00271212 -289.79258442 472.00007725 C-291.5769124 478.5132317 -293.4267962 485.00320589 -295.35282898 491.47605896 C-296.12418887 494.05006632 -296.12418887 494.05006632 -296 497 C-287.06575672 495.57319401 -278.38220831 493.37047596 -269.65234375 491.03515625 C-268.16688496 490.64115838 -266.68132229 490.24755195 -265.19566345 489.85430908 C-262.05971666 489.02346437 -258.92446046 488.19008136 -255.78973389 487.35464478 C-250.91277491 486.05510227 -246.0339464 484.76268114 -241.15478516 483.47143555 C-228.19094202 480.03933373 -215.22980088 476.59719824 -202.27326965 473.1375885 C-198.35071927 472.09140924 -194.4268027 471.05043433 -190.50247192 470.01095581 C-187.93621992 469.32877397 -185.37229322 468.63830751 -182.80834961 467.94750977 C-181.28641808 467.54397127 -179.76437237 467.14086306 -178.2421875 466.73828125 C-176.33735596 466.22841675 -176.33735596 466.22841675 -174.39404297 465.70825195 C-167.716933 464.31490596 -163.79465653 465.2522459 -157.9375 468.5 C-124.5866297 485.98872762 -86.88450647 493.21899906 -49.5 493.25 C-48.75777191 493.25067474 -48.01554382 493.25134949 -47.25082397 493.25204468 C-34.61496475 493.23392742 -22.43410743 492.36784156 -10 490 C-9.10410156 489.83902832 -8.20820313 489.67805664 -7.28515625 489.51220703 C32.97818838 482.16400546 70.3503996 464.93173366 102 439 C102.83772949 438.31454102 102.83772949 438.31454102 103.69238281 437.61523438 C116.35664299 427.18750371 127.9319539 415.98248049 138 403 C139.04145535 401.68733232 140.08313822 400.37484513 141.125 399.0625 C148.18838173 390.08811719 154.48889646 380.99964342 160 371 C160.4626123 370.17290527 160.92522461 369.34581055 161.40185547 368.49365234 C178.99111269 336.83527887 191.27374801 300.50929278 192 264 C192.02578125 263.00323242 192.0515625 262.00646484 192.078125 260.97949219 C193.56624104 196.33945164 173.50930115 132.95302374 128.35302734 85.51342773 C127.16608321 84.2821073 125.97581612 83.05398129 124.78222656 81.82910156 C123.00801167 80.00822238 121.25018486 78.17246071 119.4921875 76.3359375 C111.85745514 68.44390259 103.83063955 61.51326425 95 55 C94.36787598 54.52353027 93.73575195 54.04706055 93.08447266 53.55615234 C63.86470789 31.58885334 29.5576395 17.19699337 -6.30615234 10.50390625 C-8.01231669 10.18475425 -9.71620649 9.85296711 -11.41650391 9.50390625 C-94.19268386 -7.34726982 -177.70606056 29.61219631 -234 89 Z " fill="#E5E5E5" transform="translate(308,4)"/>
</svg>
