<?xml version="1.0" encoding="UTF-8"?>
<svg version="1.1" xmlns="http://www.w3.org/2000/svg" width="24" height="24">
<path d="M0 0 C1.98 0 3.96 0 6 0 C6.33 1.32 6.66 2.64 7 4 C8.32 3.34 9.64 2.68 11 2 C11.66 3.32 12.32 4.64 13 6 C12.34 6.66 11.68 7.32 11 8 C12.32 8.33 13.64 8.66 15 9 C15 10.98 15 12.96 15 15 C13.68 15.33 12.36 15.66 11 16 C11.66 17.32 12.32 18.64 13 20 C11.02 20.99 11.02 20.99 9 22 C8.34 21.34 7.68 20.68 7 20 C6.67 21.32 6.34 22.64 6 24 C4.02 24 2.04 24 0 24 C-0.33 22.68 -0.66 21.36 -1 20 C-2.98 20.99 -2.98 20.99 -5 22 C-5.66 20.68 -6.32 19.36 -7 18 C-6.34 17.34 -5.68 16.68 -5 16 C-6.32 15.67 -7.64 15.34 -9 15 C-9 13.02 -9 11.04 -9 9 C-7.68 8.67 -6.36 8.34 -5 8 C-5.66 6.68 -6.32 5.36 -7 4 C-5.68 3.34 -4.36 2.68 -3 2 C-2.34 2.66 -1.68 3.32 -1 4 C-0.67 2.68 -0.34 1.36 0 0 Z M1 10 C1 11.32 1 12.64 1 14 C2.32 14 3.64 14 5 14 C5 12.68 5 11.36 5 10 C3.68 10 2.36 10 1 10 Z " fill="#FF4A00" transform="translate(9,0)"/>
</svg>
